<?xml version="1.0" encoding="utf-8"?>
<!-- Generator: Adobe Illustrator 16.0.4, SVG Export Plug-In . SVG Version: 6.00 Build 0)  -->
<!DOCTYPE svg PUBLIC "-//W3C//DTD SVG 1.1//EN" "http://www.w3.org/Graphics/SVG/1.1/DTD/svg11.dtd">
<svg version="1.1" id="Layer_1" xmlns="http://www.w3.org/2000/svg" xmlns:xlink="http://www.w3.org/1999/xlink" x="0px" y="0px"
	 width="42.7px" height="37.5px" viewBox="0 0 42.7 37.5" enable-background="new 0 0 42.7 37.5" xml:space="preserve">
<g id="london">
	<path fill="#FB4C52" d="M14.77,20.434c0,0,0,0.028-0.02,0.039c-0.059-0.06-0.078-0.117-0.078-0.176
		c-0.01-0.097-0.049-0.205-0.078-0.253c-0.043-0.087-0.063-0.175-0.073-0.253c0.01-0.02,0.02-0.078,0-0.126
		c-0.029-0.01-0.039-0.099-0.078-0.01c-0.039-0.05-0.068-0.117-0.103-0.166c0,0,0,0,0.01-0.029c0.024-0.039,0.024-0.058-0.01-0.117
		c-0.058-0.166-0.146-0.224-0.229-0.312c-0.078-0.059-0.18-0.117-0.277-0.059c-0.039,0-0.088,0-0.131,0
		c-0.049-0.058-0.117-0.058-0.18,0c-0.068,0.039-0.117,0.039-0.219,0.039c-0.029-0.039-0.01,0-0.01,0
		c-0.049,0-0.088-0.039-0.088-0.097c0-0.068-0.039-0.146-0.102-0.146c-0.068,0-0.087-0.039-0.068-0.117
		c0.01-0.068,0.02-0.126,0.039-0.185c0.029,0,0.083,0.039,0.111,0.039c0.02-0.059,0.029-0.117,0.029-0.195
		c0.049-0.117,0-0.214-0.068-0.292c-0.102-0.117-0.209-0.185-0.35-0.185c-0.132,0-0.161-0.029-0.181-0.165
		c0-0.068,0-0.175-0.048-0.214c-0.039-0.029-0.02-0.078-0.039-0.117c0-0.059,0-0.098-0.02-0.098
		c-0.024-0.039-0.054-0.058-0.054-0.106c0-0.059-0.078-0.059-0.136-0.059c-0.054,0.029-0.112,0.02-0.19,0
		c-0.063,0.078-0.112,0.107-0.199,0.029c-0.01,0-0.01,0-0.01,0c-0.209-0.156-0.209-0.156-0.151-0.351
		c-0.068-0.059-0.16-0.078-0.238-0.146c0.049-0.068,0.068-0.166,0.117-0.224c-0.117,0-0.248,0-0.365-0.02
		c0.029-0.058,0.059-0.117,0.098-0.195c-0.039-0.039-0.029-0.117-0.01-0.155c0.039-0.117,0.029-0.205,0.068-0.244
		c-0.029-0.019-0.068-0.019-0.126-0.048c0.01-0.059,0.039-0.117,0.059-0.185c0.068,0,0.121-0.039,0.141-0.205
		c0.02-0.078-0.043-0.097-0.083-0.117c-0.087-0.078-0.209-0.156-0.287-0.185c-0.058-0.039-0.112-0.106-0.112-0.165
		c0-0.078-0.039-0.078-0.088-0.078c-0.102-0.059-0.219-0.087-0.321-0.155c-0.049-0.127-0.166-0.176-0.175-0.234
		c0-0.185-0.141-0.224-0.253-0.263c-0.01,0-0.029,0-0.049,0.029c-0.059,0.01-0.087-0.029-0.107-0.068
		c-0.024-0.048,0.01-0.087,0.058-0.107c0.127-0.02,0.2-0.146,0.249-0.243c0.068-0.205,0.18-0.37,0.34-0.467
		c0.01,0,0.039-0.039,0.039-0.048c0-0.117,0.078-0.176,0.17-0.214c0.029-0.029,0.058-0.029,0.078-0.058
		c0-0.049,0.039-0.02,0.068-0.02c0.102,0,0.209-0.098,0.219-0.214c0-0.058,0.01-0.136,0.112-0.166c0.068,0,0.131-0.078,0.141-0.165
		c0-0.039,0-0.039,0.029-0.059s0.078-0.039,0.078-0.098c0-0.068-0.01-0.175-0.049-0.214c-0.068-0.117-0.102-0.156-0.029-0.194
		c0.01-0.049,0-0.049-0.01-0.117c-0.029-0.068-0.029-0.155,0.01-0.214c0.078-0.059,0.078-0.156,0.127-0.205
		c0.02-0.058,0.043-0.107,0.043-0.146c0-0.02,0-0.059,0-0.059c0.156-0.097,0.068-0.214,0.107-0.331
		c0.029-0.117-0.039-0.195-0.039-0.244c0-0.029-0.029-0.068-0.01-0.097c0.029-0.059,0.068-0.107,0.107-0.127
		c0.083-0.058,0.112-0.136,0.151-0.204c0-0.01,0-0.078,0.039-0.02c0.054,0,0.112-0.088,0.132-0.136
		c0.029-0.048,0.078-0.126,0.141-0.126c0.098-0.02,0.166-0.078,0.249-0.136c0.058-0.02,0.078-0.059,0.117-0.117
		c0.073-0.137,0.073-0.156-0.059-0.214c0.02-0.058,0.01-0.107-0.02-0.156c0.02-0.068,0.059-0.155,0-0.194
		c-0.02-0.078,0.02-0.146,0.039-0.195c0.029-0.029,0.049-0.068,0.039-0.195c-0.01-0.039,0-0.078,0.073-0.116
		c-0.029-0.059-0.112-0.098-0.122-0.166c0-0.068,0-0.107,0.02-0.146c0.059-0.107,0.059-0.195-0.01-0.224
		c-0.039-0.058-0.068-0.146-0.039-0.205c0.029-0.106-0.029-0.214-0.029-0.272c-0.01-0.01-0.02-0.029-0.01-0.029
		c0.107-0.165,0.039-0.292,0.078-0.408c0.039-0.166,0.049-0.166,0.161-0.088c0.039-0.039,0.039-0.059,0.039-0.117
		c0.01-0.205,0.01-0.438,0.17-0.604c0.039-0.059,0.087-0.137,0.131-0.176c0.049-0.116,0.029-0.155-0.014-0.204
		c-0.059-0.059-0.059-0.185,0.014-0.204c0.059-0.039,0.117-0.107,0.059-0.195c-0.029-0.078,0.068-0.214,0.161-0.214
		c0.039,0,0.039,0.039,0.049,0.059c0.087,0.078,0.126,0.185,0.161,0.253c0,0.059,0.058,0.195,0.126,0.214
		c0.141,0.186,0.219,0.351,0.321,0.555c0.068,0.185,0.2,0.243,0.316,0.379c0,0.049,0.01,0.049,0.02,0.049
		c0.054,0,0.331-0.117,0.36-0.146c0.029-0.039,0.048-0.078,0.068-0.117c0.034-0.059,0.083-0.117,0.141-0.02
		c0.01,0.02,0.039,0,0.073,0c0.039,0,0.068,0.02,0.097,0.039c0.087,0.097,0.209,0.175,0.306,0.214
		c0.034,0.029,0.073,0.068,0.132,0.068c0.15,0.087,0.258,0.165,0.34,0.263c0.02,0.058,0.059,0.078,0.097,0.078
		c0.073,0.048,0.142,0.107,0.219,0.107c0.039,0.029,0.092,0.068,0.141,0.029c0.117-0.029,0.229-0.029,0.36,0.039
		c0.048,0,0.126,0,0.199-0.039c0.02-0.029,0.049-0.029,0.068,0c0.15,0.039,0.268,0,0.408-0.029c0.151-0.02,0.258-0.087,0.38-0.136
		c0.059-0.087,0.136-0.048,0.209,0c0.2,0.01,0.419-0.048,0.608-0.146c0,0.02,0,0.059,0.01,0.098
		c0.107-0.078,0.209-0.137,0.287-0.214c0.131-0.058,0.238-0.107,0.37-0.097c0.059,0,0.131,0,0.17-0.039
		c0.029-0.049,0.068-0.049,0.117,0c0.131,0.136,0.249,0.253,0.418,0.351c0.093,0.058,0.19,0.078,0.282,0.107
		c0.156,0.029,0.316-0.029,0.477,0.029c0.048,0.039,0.087,0,0.17,0.039c0.029-0.068,0.058-0.117,0.107-0.175
		c0.029,0,0.083,0.039,0.151,0.029c0-0.107,0.068-0.107,0.131-0.068c0.039,0.039,0.068,0.02,0.087,0
		c0.068,0.039,0.02,0.214,0.151,0.214c0.048-0.097,0.151-0.097,0.209-0.146c0.087-0.166,0.149-0.282,0.219-0.409
		c0.011-0.029,0.011-0.029,0-0.068c0-0.02,0-0.059,0.011-0.059c0.021-0.02,0.049-0.02,0.049,0c0.028,0.059,0.082,0.059,0.142,0.059
		c0.06-0.02,0.106,0,0.171-0.02c0.098-0.039,0.219-0.039,0.335-0.039c0.021,0.039,0.073,0,0.122,0c0,0.059-0.012,0.156,0.01,0.166
		c0.061,0,0.112-0.01,0.188-0.039c0.029-0.029,0.078-0.068,0.129-0.029c0.054,0.059,0.141-0.039,0.197-0.039
		c0.045,0.107,0.112,0,0.19,0c0-0.059-0.021-0.166-0.028-0.205c0.049-0.059,0.082,0,0.111,0.021c0.059-0.021,0.107-0.097,0.189,0
		c0.029-0.021,0.021-0.078,0.021-0.107c0.039,0.01,0.068,0.029,0.106,0.029c-0.021,0.146,0.055,0.146,0.152,0.166
		c-0.029,0.058-0.068,0.097-0.099,0.146c0.039,0.078,0.099,0.078,0.146,0.146c0.039-0.059,0.072-0.088,0.131-0.146
		c0.039-0.048,0.088-0.068,0.143-0.048c0.137,0.097,0.238-0.039,0.335-0.097c0.039-0.02,0.073-0.088,0.134-0.02
		c0.02,0.02,0.037,0,0.086-0.029c0.131-0.136,0.248-0.224,0.379-0.341C25.353,6.068,25.353,6,25.387,5.903
		c0.02-0.039,0.029-0.088,0.039-0.166c0.068,0.019,0.146,0.087,0.199,0.166c0.117,0.165,0.258,0.204,0.429,0.165
		c0.219,0,0.438,0,0.628,0.137c0.117,0.02,0.238,0.068,0.369,0c0.225-0.059,0.419,0.02,0.574,0.194
		c0.098,0.059,0.215,0.136,0.312,0.156c0.136,0.039,0.214,0.156,0.312,0.195c0.078,0.107,0.138,0.214,0.195,0.272
		c0.176,0.204,0.398,0.253,0.623,0.253c0.039,0,0.078,0,0.098,0.059c0.021,0.039,0.088,0.039,0.137,0.078
		c0.115,0.078,0.254,0.156,0.408,0.205c0.078,0,0.156,0.087,0.233,0.146c0.117,0.098,0.253,0.127,0.39,0.175
		c0,0.175-0.06,0.312-0.137,0.428c-0.039,0.098-0.039,0.156-0.058,0.214c0,0.117-0.06,0.195-0.078,0.214
		C30.04,8.881,30.031,8.92,30.04,8.989c0.021,0.078,0.021,0.136-0.01,0.185c-0.146,0.205-0.242,0.438-0.312,0.613
		c0.051,0.02,0.107,0,0.146,0.098c-0.098,0.165-0.059,0.194,0.204,0.194c-0.028,0.136,0.039,0.175,0.126,0.194
		c0.078,0.02,0.176,0.059,0.234,0.137c0.193,0.136,0.136,0.116,0.33,0.136c0.039,0.059-0.077,0.137,0.029,0.214
		c-0.029,0.087-0.05,0.117-0.029,0.185c0,0.049-0.021,0.049-0.038,0.068c-0.06,0.078-0.078,0.185-0.166,0.205
		c-0.029,0-0.021,0.049,0,0.087c0.127,0.214,0.204,0.448,0.292,0.623c0.02,0.088,0.029,0.156,0.068,0.214
		c0.154-0.068,0.291,0,0.428,0c0.02,0,0.029,0,0.029,0.039c0,0.019,0,0.039-0.011,0.078c-0.021,0.039-0.028,0-0.06-0.039
		c-0.059-0.02-0.098,0.039-0.155,0.078c-0.039,0.039,0,0.059,0.021,0.098c0.088,0.175,0.186,0.292,0.293,0.447
		c0.078,0.078,0.185,0.204,0.271,0.214c0.028,0.02,0.099-0.02,0.138-0.02c0.154-0.048,0.252,0,0.329,0.156
		c0.029,0.078,0.06,0.087,0.078,0.078c0.021-0.078,0.099-0.058,0.138-0.078c0-0.059,0.039-0.156,0.115-0.185
		c0.061,0,0.061-0.068,0.039-0.146c0-0.02,0-0.039-0.021-0.098c0.078,0,0.156-0.019,0.233-0.019c0,0.058,0.021,0.097,0.021,0.156
		c0.117,0.078,0.234,0.107,0.369,0.049c0.078-0.02,0.177-0.049,0.254-0.088c0.021,0.039,0.029,0.088,0.06,0.146
		c0.078-0.058,0.204-0.029,0.265-0.166c0.039-0.039,0.105-0.039,0.164-0.078c0.077-0.019,0.205-0.078,0.293-0.058
		c0.213,0.097,0.467,0.175,0.682,0.224c0.117,0.058,0.242,0.097,0.33,0.204c0.021,0,0.06,0,0.078,0
		c0.117-0.02,0.225-0.039,0.332-0.039c0.039,0.021,0.039-0.02,0.059-0.059c0.078,0,0.107,0.059,0.146,0.137
		c0.019-0.078,0.058-0.059,0.096-0.039c0.029,0.078,0.089,0.078,0.146,0.078c0.078,0.02,0.138,0.02,0.205,0.078
		c0.078,0.078,0.165,0.078,0.243,0.048c0.061,0,0.088-0.029,0.105,0c0.088,0.029,0.205,0,0.283-0.029
		c0.021-0.02,0.057-0.02,0.106-0.02c0.067,0,0.155-0.02,0.205-0.078c0.058,0.155,0.155,0.233,0.214,0.37
		c0.078,0.214,0.214,0.311,0.331,0.467c0.097,0.107,0.194,0.233,0.253,0.428c0.02,0.059,0.02,0.175,0.059,0.205
		c0,0.087,0.021,0.126,0.039,0.185c0.039,0.039,0.021,0.117-0.02,0.107c-0.105-0.029-0.186,0-0.243,0.068
		c-0.028,0.078-0.087,0.117-0.165,0.137c0.193,0.097,0.312,0.224,0.486,0.253c0,0.117,0,0.155-0.039,0.194
		c-0.059,0.117-0.059,0.214-0.078,0.331c-0.02,0.156,0.039,0.214,0.059,0.312c0.038,0.214,0.116,0.408,0.116,0.623
		c0,0.039,0,0.078,0.039,0.078c0.021,0.039,0.021,0.078,0.021,0.098c-0.06,0.175,0,0.292-0.06,0.467
		c0.272,0.078,0.517,0.117,0.798,0.176c0,0.136-0.02,0.214-0.039,0.35c0,0.078,0,0.117,0.021,0.156
		c0.059,0.126,0.088,0.214,0.115,0.292c0.099,0.02,0.177,0.155,0.127,0.214c-0.021,0.107,0,0.166-0.021,0.214
		c0.089,0.059,0.127,0.253,0.039,0.332c-0.021,0.039-0.078,0.039-0.078,0c-0.028-0.098-0.126-0.079-0.204-0.098
		c-0.252-0.097-0.525-0.117-0.777-0.175c-0.039,0-0.116,0.039-0.176,0.039c-0.027,0-0.02,0.039-0.027,0.117
		c-0.1,0-0.178-0.039-0.264-0.039c-0.146-0.059-0.283-0.078-0.41-0.078c-0.059,0-0.096,0-0.135,0
		c-0.098-0.078-0.215-0.078-0.312-0.059c-0.06,0.098-0.099,0.205-0.127,0.321c0,0.021,0,0.021,0,0.068
		c0.021,0.058,0,0.097-0.011,0.097c-0.106,0-0.106,0.059-0.146,0.156c0,0.01,0,0.078-0.027,0.136
		c-0.1-0.078-0.216-0.078-0.293-0.126c-0.029,0-0.05-0.01-0.029-0.078c0.011-0.165,0.029-0.312,0.078-0.496
		c0-0.02,0.011-0.059-0.028-0.059c-0.029-0.039-0.029,0.039-0.05,0.039s-0.049,0-0.06,0c-0.02,0.02-0.049,0.02-0.049,0.039
		c0.029,0.097,0,0.117-0.06,0.165c-0.02-0.029-0.037-0.048-0.057-0.068c-0.039,0.02-0.089,0.039-0.138,0.097
		c0.011,0.061,0.049,0.078,0.067,0.1c0.067,0.02,0.05,0.115,0.029,0.154c0,0.011-0.05,0.011-0.089-0.021
		c-0.028-0.021-0.097-0.116-0.146-0.116c0,0.078,0,0.116,0,0.146c0,0.117,0.048,0.195-0.021,0.242c0,0.021-0.02,0.099,0,0.138
		c0.021,0.039,0,0.106,0,0.165c-0.214,0.059-0.369-0.039-0.562-0.107c-0.051,0.195,0,0.254,0,0.418
		c-0.068,0-0.129,0.039-0.166,0.068c-0.02,0-0.059,0.01-0.088-0.059c-0.021-0.021-0.078-0.021-0.098-0.021
		c-0.06,0-0.127,0.021-0.215,0.01c-0.029-0.01-0.068,0.068-0.098,0.117c-0.021,0.105-0.078,0.105-0.098,0.204
		c0,0.021-0.039,0.021-0.059,0.021l-0.225,0.428c0.166-0.077,0.205,0.02,0.281,0.156c0,0,0,0.028,0.021,0.028
		c-0.039,0-0.061,0.029-0.061,0.087c0,0.098-0.039,0.117-0.105,0.117c-0.067,0-0.117,0.021-0.137,0.126
		c0,0.067-0.028,0.067-0.088,0.087c-0.059,0.012-0.076,0.068-0.039,0.139c0.039,0.114,0.021,0.164-0.02,0.203
		c-0.039,0.049-0.039,0.116-0.059,0.186c-0.021,0.059-0.021,0.078-0.088,0.078c-0.067,0.02-0.135,0.039-0.205,0.098
		c-0.058,0.02-0.096,0.087-0.077,0.186c0,0.049-0.021,0.106-0.039,0.106c-0.117,0.019-0.214,0.165-0.312,0.058
		c-0.078-0.058-0.139,0.06-0.195,0.156c-0.078-0.049-0.137-0.049-0.156,0.078c-0.02,0.039-0.098,0.039-0.117,0.059
		c-0.078,0-0.156,0.039-0.225,0.02c-0.021,0-0.021,0-0.038,0.021c-0.087,0.037-0.106,0-0.146-0.06
		c-0.128,0.039-0.166,0.136-0.244,0.214c-0.067,0.098-0.146,0.214-0.166,0.271c-0.02,0.098-0.097,0.098-0.146,0.186
		c-0.066-0.087-0.166-0.146-0.225-0.204c-0.078,0.117-0.194,0.204-0.215,0.331c0,0.059-0.039,0.116-0.115,0.155
		c0,0.039,0.021,0.077,0.021,0.088c0.021,0.01,0.028,0.078,0.021,0.114c-0.021,0.021-0.039,0-0.06,0c-0.038,0-0.06,0-0.06,0.021
		c-0.021,0.088-0.039,0.146-0.098,0.188c-0.059,0.058-0.039,0.136,0.021,0.154c0.021,0.028,0.039,0.028,0.06,0.049
		c-0.06,0.127-0.06,0.127-0.195,0.088c-0.021,0.039,0,0.117,0.011,0.156c0.126,0.135,0.146,0.271,0.106,0.467
		c-0.021,0.156,0,0.232,0.021,0.429c-0.185-0.039-0.312-0.175-0.468-0.214c-0.021,0.02,0,0.078,0,0.078
		c0.021,0.059,0.021,0.098,0,0.098c-0.066,0.088-0.049,0.126-0.021,0.204c0,0.021,0,0.067,0,0.067
		c-0.059,0.078-0.059,0.099-0.059,0.205c0,0.027-0.009,0.088-0.06,0.098c0,0.068,0.078,0.164,0.06,0.203
		c-0.029,0.099-0.115,0.138-0.165,0.166c0.029,0.098,0,0.166-0.049,0.205c0.06,0.039,0.049,0.078,0,0.154
		c0-0.037-0.061-0.058-0.061-0.076c-0.058,0.146-0.185,0.213-0.271,0.33c-0.028,0.059-0.02,0.137-0.028,0.176
		c0,0.078-0.01,0.125-0.067,0.213c-0.039,0.06-0.117,0.146-0.156,0.205c-0.01,0.059-0.028,0.059-0.047,0.059
		c-0.078,0.049-0.127,0.166-0.205,0.186c-0.06,0.02-0.039,0.059-0.039,0.166c-0.078-0.146-0.187-0.186-0.293-0.205
		c-0.057-0.039-0.096-0.106-0.174,0c-0.021,0-0.068,0-0.099,0c-0.077-0.059-0.098,0-0.137,0.059
		c-0.021,0.039-0.078,0.078-0.011,0.166c0.021,0,0.011,0.048,0,0.059c-0.02,0.106-0.02,0.204,0,0.281
		c-0.02,0.098-0.166,0.098-0.205,0.194c-0.077-0.05-0.098,0.038-0.155,0.077c-0.039,0-0.078-0.039-0.097-0.039
		c-0.039,0-0.039,0.021-0.059,0.039c0,0,0-0.019-0.021-0.019c-0.059-0.06-0.098-0.06-0.176-0.049
		c-0.086,0.028-0.146,0.067-0.213,0.146c-0.117,0.107-0.265,0.127-0.391,0.166c-0.116,0.029-0.204,0.068-0.214,0.205
		c0,0-0.029,0.039-0.048,0.077c-0.098,0.116-0.088,0.214-0.131,0.351c0,0.021-0.039,0-0.061,0.021c0.049,0.195,0,0.39,0.123,0.563
		c-0.084,0.011-0.143,0.068-0.209,0.138c-0.074,0.06-0.191,0.06-0.264,0.039c-0.154-0.106-0.336-0.068-0.486-0.106
		c-0.078,0-0.141-0.021-0.209-0.021s-0.068-0.039-0.068-0.06c0-0.086,0.021-0.146-0.059-0.146c0,0,0-0.021-0.033-0.039
		c-0.029-0.097-0.117-0.136-0.201-0.185c-0.01-0.021-0.02,0-0.039,0.027c-0.037,0.021-0.066,0.021-0.115,0.021
		c0.078-0.195,0.209-0.312,0.154-0.525c-0.049-0.156-0.115-0.253-0.209-0.379c-0.146,0.116-0.307,0.126-0.428,0.264
		c-0.097,0.135-0.199,0.224-0.277,0.408c-0.01,0-0.027,0-0.027,0c-0.122-0.078-0.122-0.078-0.104-0.214
		c0.035-0.292,0.055-0.604,0.074-0.915c0-0.078,0.077-0.117,0.096-0.195c0.021-0.029,0.051-0.105,0.061-0.154
		c-0.028-0.01-0.078,0-0.126-0.01c0.028-0.205,0.077-0.498,0.098-0.75c-0.067,0-0.098-0.039-0.116-0.105
		c-0.011-0.088-0.074-0.205-0.132-0.205c-0.06-0.126-0.142,0-0.188,0.039c-0.039,0-0.068,0.059-0.107,0.059
		c-0.02-0.115-0.082-0.271-0.092-0.445c0-0.039-0.087-0.107-0.16-0.156c-0.029,0-0.068,0.049-0.1,0c-0.066,0-0.141,0-0.188-0.059
		c-0.078-0.117-0.132-0.117-0.209,0c-0.021,0.049-0.039,0.059-0.061,0.106c-0.028,0.067-0.059,0.088-0.131,0.049
		c-0.067-0.049-0.15,0-0.209,0c-0.028,0.021-0.086,0.06-0.047,0.156c0.039,0.078,0.028,0.175-0.011,0.253
		c-0.067-0.059-0.103,0.021-0.142,0.078c-0.028,0.021-0.143,0.059-0.19,0.021c-0.028,0-0.028,0-0.047,0
		c-0.067,0.105-0.144,0.037-0.209,0.105c-0.099,0.021-0.181-0.068-0.248-0.105c-0.05-0.021,0-0.078-0.028-0.127
		c-0.093,0-0.17,0.028-0.264,0c-0.029,0.127-0.175,0.106-0.249,0.127c0,0.059,0,0.137,0.01,0.174c0,0.067-0.01,0.176-0.116,0.194
		c-0.01,0-0.054,0.021-0.083,0.021c-0.059,0.039-0.136,0.059-0.136,0.186c0,0.01-0.01,0.068-0.039,0.068
		c-0.122,0-0.073,0.214-0.214,0.193c-0.029,0-0.039,0-0.059-0.06c-0.009-0.021-0.019-0.067-0.048-0.021
		c-0.029,0.021,0,0.078,0,0.099c0.02,0,0.029,0.021,0.068,0.039c-0.126,0.039-0.219,0.078-0.335,0.088
		c-0.073,0-0.161,0.048-0.229,0.087c-0.083,0.01-0.151,0.039-0.209,0c-0.092,0.039-0.16,0.117-0.209,0.214c-0.01,0-0.034,0-0.054,0
		c-0.048,0-0.097-0.02-0.146-0.02c-0.063-0.021-0.063-0.117-0.063-0.166c0.01-0.089-0.01-0.204-0.059-0.204
		c0-0.039-0.01-0.1,0-0.156c0.02-0.087-0.02-0.156-0.029-0.214c0-0.01-0.048-0.01-0.068-0.039c0-0.039,0.01-0.078,0-0.117
		c-0.083-0.038-0.209,0.039-0.209-0.137c-0.063,0.021-0.111,0.028-0.15-0.021c-0.029-0.028-0.083,0-0.122-0.067
		c-0.01-0.068-0.048-0.107-0.106-0.068c-0.01-0.077,0-0.194-0.039-0.214c0.039-0.029,0.068-0.049,0.116-0.061
		c0-0.049-0.048-0.049-0.048-0.066c0.048-0.061,0.087-0.126,0.131-0.186c-0.034-0.039-0.063-0.06-0.112-0.099
		c0.122-0.126,0.097-0.204,0.039-0.351c-0.039-0.078,0-0.146,0.083-0.176c0.039,0,0.078-0.028,0.126-0.028
		c-0.01-0.029-0.01-0.039-0.01-0.06c0-0.049,0-0.049-0.009-0.067c-0.02-0.058-0.039,0.021-0.068-0.021
		c-0.02-0.098-0.083-0.186-0.039-0.215c0.01-0.058,0.01-0.105,0.059-0.105c0.01,0,0.02-0.01,0.02-0.028c0-0.039,0-0.039-0.029-0.06
		c0,0,0,0-0.01,0c-0.093,0-0.2,0-0.272-0.146c-0.059-0.359-0.268-0.65-0.584-0.963c-0.073,0.049-0.131,0.098-0.17,0.115
		c-0.029,0.078-0.083,0-0.092,0.078c-0.117,0-0.238,0.078-0.355,0.1c-0.044,0.021-0.044,0.021-0.044,0.078
		c0,0.175-0.116,0.214-0.268,0.214c-0.068-0.049-0.097-0.078-0.131-0.146c-0.029-0.146-0.078-0.205-0.117-0.264
		c-0.01-0.061-0.039-0.066-0.02-0.115c0.098-0.021,0.17-0.117,0.258-0.139c0.078-0.039,0.171-0.098,0.229-0.136
		c0.029-0.021,0.029-0.099,0.029-0.166c0-0.077,0-0.187,0-0.226c0.019-0.059-0.02-0.039-0.029-0.097
		c0.068-0.194,0.102-0.331,0.039-0.584c-0.029-0.136-0.077-0.214-0.155-0.272c-0.063-0.058-0.112-0.174-0.209-0.154
		c-0.083,0.02-0.112-0.039-0.181-0.039c0.098-0.214,0.127-0.408,0.209-0.643c0.02-0.088,0-0.146-0.102-0.117
		c-0.078,0-0.136,0.029-0.219-0.021c-0.049-0.01-0.117-0.06-0.19-0.078c-0.087,0.156-0.258,0.195-0.428,0.195
		c-0.078,0.019-0.151,0.136-0.219,0.175c-0.02,0.02-0.059,0.078-0.088,0.078c-0.01,0-0.073,0-0.073,0
		c-0.087,0.078-0.238,0.087-0.345,0.214c0.029,0.021,0.039,0.021,0.068,0.06c-0.039,0.059-0.078,0.098-0.15,0.137
		c-0.039,0-0.098,0.049-0.107,0.105c-0.039,0.061-0.092,0.107-0.141,0.166c-0.029,0.099-0.132,0.099-0.19,0.137
		c-0.068,0.067-0.16,0.106-0.209,0.203c-0.01,0.012-0.02,0.029-0.029,0.05c-0.16,0.098-0.199,0.215-0.229,0.342
		c0,0.067-0.059,0.104-0.112,0.165c-0.136,0.059-0.297,0.078-0.418,0.186C14,24.32,13.84,24.3,13.709,24.251
		c-0.049,0-0.059-0.048-0.068-0.104c0-0.051-0.01-0.068,0.039-0.088c0.039-0.021,0.048-0.078,0.048-0.117
		c0-0.068,0.054-0.187,0.083-0.205c0.059-0.187,0.088-0.243,0.17-0.408c0.039-0.029,0-0.107,0-0.205
		c0-0.126,0.087-0.243,0.209-0.292c0.175-0.078,0.277-0.205,0.398-0.39c0.107-0.137,0.107-0.252,0.195-0.408
		c0.034-0.116,0.063-0.176,0.131-0.215c0.059-0.028,0.132,0,0.17,0c0.131,0,0.229-0.135,0.2-0.213c-0.02-0.061-0.02-0.1-0.02-0.1
		c0.029-0.136,0.029-0.351,0-0.445c-0.029,0-0.063,0.039-0.103,0.039c-0.01-0.039-0.01-0.039-0.01-0.099
		c0.029,0,0.073,0,0.112-0.021c0-0.099-0.01-0.137-0.029-0.193L14.77,20.434z"/>
	<path fill="#010101" d="M23.932,15.547c0.486,0,0.886,0.399,0.886,0.895c0,0.487-0.399,0.876-0.886,0.876
		c-0.491,0-0.891-0.389-0.891-0.876C23.042,15.946,23.44,15.547,23.932,15.547z"/>
	<path fill="#3492D0" d="M23.42,16.832c0-0.37,0.521-0.39,0.848-0.331c0.331,0.068,0.729,0.477,0.885,0.681
		c0.18,0.234,0.36,0.467,0.531,0.34c0.268-0.224,0.486-0.359,0.77-0.224c0.276,0.146,0.229,0.623,0.17,0.662
		c-0.131,0.116-0.232,0.623-0.131,0.759c0,0.331,0.733,0.516,0.715,0c-0.049-0.253-0.011-0.759,0.391-0.759
		c0.281,0,0.359,0.214,0.428,0.457c0.127,0.419,0.497,0.321,0.855,0.438c0.33,0.117,0.595,0.312,0.943,0.312
		c0.176,0,0.293-0.34,0.447-0.399c0.234-0.098,0.312-0.224,0.584-0.224c0.156,0,0.195,0.136,0.341,0.194
		c0.224,0.107,0.419-0.049,0.634-0.068c0.291-0.039,0.524,0.205,0.682,0.438c0.154,0.214,0.369,0.272,0.584,0.398
		c0.253,0.156,0.39,0.43,0.39,0.691c0,0.175-0.127,0.642,0.021,0.777c0.156,0.116,0.524,0.186,0.711,0.215
		c0.059,0.105,0.185,0.232,0.185,0.232c0.39,0.282,0.166,0.623,0.429,1.021c0.099,0.146,0.573,0.76,0.69,0.76
		c0.185,0,0.379-0.204,0.536-0.271c0.331-0.186,0.613-0.06,0.875,0.186c0.253,0.263-0.078,0.953,0.224,1.188
		c0.243,0.156,0.535,0.233,0.817,0.321c0.165,0.039,0.048,0.409,0,0.399c-0.36-0.039-1.004-0.37-1.227-0.623
		c-0.138-0.195-0.226-1.305-0.479-1.139c-0.195,0.115-0.214,0.368-0.469,0.418c-0.319,0.098-0.603-0.195-0.777-0.418
		c-0.232-0.332-0.418-0.712-0.545-1.102c-0.059-0.176-0.116-0.535-0.331-0.613c-0.138-0.049-0.358,0.039-0.506-0.027
		c-0.216-0.039-0.36-0.117-0.486-0.265c-0.331-0.38,0-0.729-0.077-1.139c-0.078-0.37-0.351-0.353-0.604-0.545
		c-0.176-0.107-0.321-0.321-0.438-0.467c-0.146-0.214-0.398-0.117-0.595-0.117c-0.231-0.021-0.409-0.117-0.612-0.165
		c-0.242-0.049-0.264,0.068-0.457,0.204c-0.359,0.292-0.75,0.389-1.188,0.146c-0.351-0.205-0.854-0.146-1.168-0.389
		c-0.194-0.185-0.233-0.817-0.507-0.691c-0.254,0.098-0.049,0.701-0.154,0.896c-0.188,0.33-0.784,0.369-1.021,0.195
		c-0.16-0.312-0.209-0.74-0.149-1.11c0.024-0.106,0.209-0.185,0.243-0.263c0.059-0.233-0.233-0.477-0.321-0.35
		c-0.258,0.166-0.446,0.37-0.726,0.224c-0.225-0.127-0.453-0.37-0.729-0.613c-0.258-0.126-0.769-0.574-1.036-0.224
		c-0.219,0.282-0.238,0.671-0.578,0.895c-0.238,0.166-0.524,0.087-0.716-0.097c-0.249-0.068-0.521-0.078-0.769-0.098
		c-0.409-0.029-0.497,0.458-0.905,0.545c-0.2,0.059-0.429-0.058-0.589-0.185c-0.078-0.039-0.312-0.36-0.37-0.36
		c-0.209-0.408-0.039-0.798-0.18-1.148c-0.2-0.535-0.535,0.059-0.657,0.263c-0.277,0.555-1.007,0.166-1.007-0.331
		c0.029-0.185,0.083-0.321-0.088-0.438c-0.238-0.155-0.481,0.078-0.647,0.214c-0.253,0.205-1.036,0.166-0.749,0.613
		c0.141,0.224,0.312,0.38,0.277,0.633c-0.02,0.253-0.409,0.243-0.564,0.233c-0.161-0.01-0.472-0.078-0.56,0.156
		c-0.039,0.126-0.039,0.428,0.059,0.555c0.17,0.146,0.37,0.263,0.418,0.516c0.073,0.282-0.17,0.458-0.258,0.69
		c-0.15,0.36-0.428,1.101-0.978,0.849c0.253-0.029,0.53-0.155,0.656-0.486c0.122-0.312,0.618-0.837,0.463-1.139
		c-0.073-0.204-0.239-0.243-0.36-0.409c-0.112-0.146-0.199-0.302-0.199-0.467c-0.171-0.574,0.847-0.253,1.036-0.35
		c0.516-0.205-0.029-0.594-0.122-0.896c-0.136-0.535,0.453-0.389,0.73-0.613c0.297-0.233,0.657-0.623,0.987-0.146
		c0.2,0.263-0.083,0.827,0.438,0.847c0.408,0.029,0.36-0.516,0.647-0.661c0.389-0.214,0.837,0.175,0.837,0.583
		c0,0.399-0.268,0.477,0,0.847c0.17,0.224,0.467,0.399,0.769,0.389c0.189,0.049,0.438-0.282,0.486-0.389
		c0.141,0,0.161-0.146,0.37-0.146c0.238,0,0.466,0.059,0.705,0.059c0.059,0.117,0.561,0.224,0.678,0.175
		C23.163,17.377,23.372,17.085,23.42,16.832z"/>
	<g>
		<path fill="#FB4C52" d="M8.992,4.146c-0.291,0.315-0.629,0.441-1,0.441c-0.229,0-0.44-0.033-0.646-0.159
			c-0.197-0.096-0.355-0.22-0.52-0.377C6.684,3.893,6.574,3.72,6.487,3.499C6.408,3.295,6.361,3.074,6.361,2.837
			c0-0.237,0.032-0.457,0.126-0.662c0.086-0.204,0.196-0.394,0.338-0.552c0.151-0.157,0.323-0.284,0.52-0.378
			C7.535,1.15,7.763,1.12,8.008,1.12c0.338,0,0.613,0.062,0.82,0.189c0.228,0.157,0.385,0.347,0.503,0.568L8.913,2.176
			C8.811,1.973,8.684,1.846,8.518,1.75C8.361,1.671,8.179,1.608,7.975,1.608c-0.165,0-0.308,0.047-0.44,0.11
			C7.409,1.781,7.298,1.877,7.196,2.002C7.103,2.128,7.04,2.254,6.993,2.395C6.946,2.54,6.914,2.697,6.914,2.87
			c0,0.157,0.032,0.332,0.079,0.489C7.04,3.5,7.119,3.643,7.213,3.736c0.102,0.126,0.23,0.221,0.362,0.284
			c0.126,0.062,0.284,0.11,0.434,0.11c0.173,0,0.338-0.047,0.496-0.143c0.167-0.063,0.324-0.204,0.473-0.363v-0.36H8.254V2.87h1.173
			v1.718H8.979V4.146H8.992z"/>
		<path fill="#FB4C52" d="M11.428,2.507c-0.214,0-0.386,0.063-0.553,0.158c-0.157,0.063-0.267,0.205-0.338,0.363V4.59H10.01V2.034
			h0.481v0.568c0.079-0.157,0.211-0.314,0.338-0.394c0.134-0.11,0.292-0.173,0.456-0.173c0.032,0,0.047,0,0.08,0
			c0.033,0,0.033,0,0.047,0v0.473L11.428,2.507L11.428,2.507L11.428,2.507z"/>
		<path fill="#FB4C52" d="M12.83,4.619c-0.189,0-0.371-0.031-0.527-0.125c-0.167-0.063-0.306-0.159-0.426-0.284
			c-0.11-0.11-0.19-0.252-0.253-0.41c-0.071-0.141-0.102-0.332-0.102-0.505c0-0.157,0.031-0.332,0.102-0.487
			c0.063-0.173,0.142-0.301,0.253-0.426c0.118-0.11,0.259-0.204,0.426-0.283c0.156-0.063,0.338-0.094,0.544-0.094
			c0.196,0,0.371,0.031,0.536,0.094c0.157,0.079,0.291,0.173,0.403,0.283c0.11,0.126,0.188,0.253,0.258,0.41
			c0.063,0.157,0.096,0.346,0.096,0.503c0,0.033,0,0.063,0,0.094c0,0.047,0,0.063,0,0.096h-2.018c0,0.11,0.033,0.221,0.08,0.315
			c0.032,0.094,0.102,0.157,0.167,0.221c0.062,0.079,0.141,0.142,0.236,0.173c0.102,0.033,0.181,0.047,0.292,0.047
			c0.069,0,0.149,0,0.212-0.032c0.062-0.016,0.126-0.033,0.189-0.063c0.056-0.046,0.119-0.095,0.149-0.125
			c0.047-0.063,0.078-0.127,0.11-0.159l0.456,0.126c-0.102,0.189-0.243,0.331-0.44,0.456C13.334,4.557,13.104,4.619,12.83,4.619z
			 M13.602,3.138c0-0.125-0.032-0.22-0.079-0.315c-0.047-0.094-0.094-0.189-0.157-0.252s-0.148-0.096-0.244-0.141
			c-0.079-0.033-0.182-0.063-0.292-0.063s-0.189,0.032-0.291,0.063c-0.094,0.031-0.158,0.077-0.236,0.141
			c-0.072,0.063-0.119,0.158-0.167,0.252c-0.047,0.096-0.063,0.19-0.078,0.315H13.602z"/>
		<path fill="#FB4C52" d="M15.232,4.619c-0.126,0-0.236-0.031-0.338-0.062c-0.11-0.033-0.188-0.111-0.275-0.173
			c-0.063-0.08-0.126-0.157-0.173-0.251c-0.032-0.11-0.063-0.206-0.063-0.332s0.015-0.236,0.079-0.332
			c0.062-0.11,0.125-0.173,0.229-0.267c0.094-0.063,0.204-0.126,0.338-0.158c0.126-0.047,0.268-0.063,0.433-0.063
			c0.11,0,0.244,0.016,0.355,0.033c0.11,0.016,0.23,0.046,0.323,0.096V2.92c0-0.189-0.046-0.346-0.157-0.41
			c-0.102-0.126-0.261-0.171-0.457-0.171c-0.126,0-0.275,0.016-0.402,0.063c-0.125,0.046-0.26,0.141-0.401,0.236l-0.167-0.351
			c0.338-0.205,0.677-0.315,1.018-0.315c0.354,0,0.629,0.078,0.811,0.252c0.189,0.19,0.291,0.44,0.291,0.772v0.93
			c0,0.096,0.047,0.173,0.142,0.173v0.456c-0.046,0-0.095,0-0.125,0c-0.031,0-0.064,0.033-0.119,0.033
			c-0.094,0-0.173-0.033-0.236-0.096c-0.047-0.063-0.102-0.126-0.102-0.206L16.22,4.129c-0.111,0.141-0.251,0.267-0.418,0.33
			C15.642,4.524,15.43,4.619,15.232,4.619z M15.383,4.225c0.126,0,0.261-0.017,0.371-0.063s0.206-0.11,0.276-0.206
			c0.063-0.063,0.094-0.126,0.094-0.19v-0.33c-0.094-0.047-0.198-0.078-0.292-0.078c-0.094-0.032-0.197-0.032-0.306-0.032
			c-0.189,0-0.338,0.032-0.465,0.126c-0.118,0.079-0.181,0.189-0.181,0.346c0,0.126,0.047,0.221,0.151,0.316
			C15.122,4.194,15.232,4.225,15.383,4.225z"/>
		<path fill="#FB4C52" d="M18.691,4.445c-0.071,0.047-0.168,0.08-0.275,0.11c-0.119,0.033-0.261,0.063-0.387,0.063
			c-0.085,0-0.166,0-0.242-0.032c-0.063-0.033-0.152-0.063-0.199-0.11c-0.046-0.047-0.092-0.11-0.125-0.173
			c-0.03-0.077-0.047-0.171-0.047-0.283V2.43h-0.338V2.034h0.338v-0.85h0.528v0.85h0.55V2.43h-0.55v1.432
			c0,0.096,0.033,0.159,0.085,0.19c0.047,0.032,0.11,0.063,0.189,0.063c0.079,0,0.149,0,0.212-0.033
			c0.063-0.032,0.111-0.062,0.14-0.062L18.691,4.445z"/>
		<path fill="#FB4C52" d="M20.142,4.619c-0.199,0-0.372-0.031-0.538-0.125c-0.158-0.063-0.307-0.159-0.417-0.284
			c-0.11-0.11-0.196-0.252-0.259-0.41c-0.063-0.141-0.095-0.332-0.095-0.505c0-0.157,0.032-0.332,0.095-0.487
			c0.063-0.173,0.149-0.301,0.259-0.426c0.111-0.11,0.259-0.204,0.417-0.283c0.166-0.063,0.338-0.094,0.554-0.094
			c0.186,0,0.369,0.031,0.527,0.094c0.164,0.079,0.291,0.173,0.408,0.283c0.11,0.126,0.189,0.253,0.253,0.41
			c0.073,0.157,0.103,0.346,0.103,0.503c0,0.033,0,0.063,0,0.094c0,0.047,0,0.063,0,0.096h-2.018c0,0.11,0.033,0.221,0.079,0.315
			c0.033,0.094,0.097,0.157,0.16,0.221c0.07,0.079,0.149,0.142,0.242,0.173c0.097,0.033,0.182,0.047,0.293,0.047
			c0.062,0,0.148,0,0.212-0.032c0.063-0.016,0.126-0.033,0.189-0.063c0.046-0.046,0.117-0.095,0.149-0.125
			c0.047-0.063,0.078-0.127,0.108-0.159l0.449,0.126c-0.097,0.189-0.235,0.331-0.435,0.456C20.637,4.557,20.401,4.619,20.142,4.619z
			 M20.898,3.138c0-0.125-0.033-0.22-0.079-0.315c-0.047-0.094-0.095-0.189-0.166-0.252c-0.062-0.063-0.141-0.096-0.235-0.141
			c-0.089-0.033-0.183-0.063-0.291-0.063c-0.12,0-0.199,0.032-0.294,0.063c-0.095,0.031-0.165,0.077-0.244,0.141
			c-0.063,0.063-0.111,0.158-0.158,0.252c-0.047,0.096-0.063,0.19-0.085,0.315H20.898z"/>
		<path fill="#FB4C52" d="M23.284,2.507c-0.205,0-0.387,0.063-0.543,0.158c-0.166,0.063-0.275,0.205-0.339,0.363V4.59h-0.536V2.034
			h0.48v0.568c0.086-0.157,0.212-0.314,0.338-0.394c0.135-0.11,0.291-0.173,0.457-0.173c0.033,0,0.047,0,0.08,0s0.033,0,0.047,0
			v0.473L23.284,2.507L23.284,2.507z"/>
		<path fill="#FB4C52" d="M24.834,4.588V1.152h0.545v2.963h1.843v0.473H24.834L24.834,4.588z"/>
		<path fill="#FB4C52" d="M28.625,4.619c-0.188,0-0.379-0.031-0.553-0.125c-0.158-0.063-0.283-0.159-0.395-0.284
			c-0.125-0.11-0.221-0.252-0.282-0.41c-0.048-0.173-0.079-0.332-0.079-0.505c0-0.157,0.031-0.332,0.079-0.487
			c0.062-0.173,0.157-0.301,0.282-0.426c0.111-0.11,0.253-0.204,0.395-0.283c0.174-0.063,0.346-0.094,0.535-0.094
			c0.204,0,0.362,0.031,0.536,0.094c0.157,0.079,0.301,0.173,0.394,0.283c0.125,0.126,0.221,0.283,0.283,0.426
			C29.87,2.965,29.9,3.138,29.9,3.295c0,0.173-0.03,0.347-0.079,0.505c-0.062,0.157-0.158,0.316-0.283,0.41
			c-0.096,0.126-0.252,0.221-0.394,0.284C29.004,4.588,28.815,4.619,28.625,4.619z M27.87,3.295c0,0.141,0.019,0.253,0.047,0.347
			c0.033,0.093,0.095,0.189,0.158,0.283c0.078,0.063,0.141,0.126,0.235,0.159c0.108,0.062,0.203,0.079,0.313,0.079
			c0.094,0,0.222-0.017,0.313-0.079C29,4.052,29.11,3.988,29.172,3.925c0.062-0.094,0.111-0.19,0.158-0.3
			c0.029-0.096,0.062-0.206,0.062-0.332s-0.016-0.252-0.062-0.346c-0.033-0.094-0.08-0.188-0.158-0.284
			c-0.062-0.062-0.143-0.126-0.235-0.158c-0.093-0.06-0.2-0.092-0.312-0.092c-0.113,0-0.205,0.032-0.285,0.094
			c-0.094,0.033-0.188,0.096-0.252,0.158c-0.063,0.096-0.111,0.19-0.157,0.3C27.899,3.075,27.87,3.201,27.87,3.295z"/>
		<path fill="#FB4C52" d="M32.674,4.588h-0.52V3.169c0-0.253-0.048-0.41-0.126-0.536c-0.079-0.096-0.19-0.159-0.349-0.159
			c-0.062,0-0.156,0.032-0.219,0.032c-0.08,0.033-0.16,0.096-0.223,0.126c-0.062,0.063-0.127,0.143-0.189,0.204
			c-0.029,0.079-0.094,0.157-0.125,0.236v1.514H30.39v-2.52h0.505v0.505c0.096-0.173,0.234-0.314,0.409-0.394
			c0.188-0.11,0.376-0.143,0.614-0.143c0.142,0,0.268,0,0.362,0.079c0.097,0.047,0.189,0.126,0.236,0.222
			c0.063,0.11,0.096,0.204,0.11,0.331c0.017,0.142,0.031,0.267,0.031,0.393v1.529h0.014l0,0H32.674z"/>
		<path fill="#FB4C52" d="M34.331,4.619c-0.156,0-0.33-0.031-0.474-0.125C33.7,4.431,33.573,4.335,33.478,4.21
			c-0.095-0.11-0.187-0.252-0.237-0.41c-0.062-0.157-0.095-0.332-0.095-0.505c0-0.188,0.03-0.346,0.079-0.503
			c0.047-0.158,0.126-0.285,0.251-0.41c0.097-0.11,0.224-0.204,0.347-0.283c0.127-0.063,0.284-0.094,0.44-0.094
			c0.22,0,0.394,0.031,0.536,0.141c0.158,0.096,0.285,0.221,0.361,0.363V1.027h0.523v2.9c0,0.063,0,0.126,0.031,0.126
			c0.031,0.033,0.062,0.063,0.125,0.063v0.44c-0.062,0.032-0.096,0.032-0.125,0.032c-0.031,0-0.062,0-0.096,0
			c-0.095,0-0.188-0.032-0.252-0.096c-0.063-0.047-0.111-0.126-0.111-0.206V4.084c-0.094,0.173-0.234,0.3-0.361,0.362
			C34.692,4.588,34.518,4.619,34.331,4.619z M34.456,4.163c0.08,0,0.16-0.017,0.221-0.032c0.08-0.047,0.158-0.079,0.221-0.11
			c0.062-0.063,0.127-0.096,0.16-0.159c0.062-0.063,0.093-0.141,0.107-0.22V2.979c-0.016-0.077-0.076-0.157-0.107-0.22
			c-0.062-0.062-0.127-0.126-0.189-0.189c-0.063-0.033-0.144-0.063-0.222-0.096c-0.063-0.029-0.144-0.062-0.222-0.062
			c-0.096,0-0.221,0.032-0.299,0.094c-0.082,0.033-0.16,0.096-0.224,0.19c-0.063,0.079-0.108,0.173-0.171,0.283
			C33.7,3.075,33.7,3.201,33.7,3.294c0,0.141,0,0.237,0.062,0.347c0.031,0.11,0.095,0.189,0.154,0.283
			c0.063,0.063,0.16,0.126,0.254,0.19C34.267,4.146,34.331,4.163,34.456,4.163z"/>
		<path fill="#FB4C52" d="M37.513,4.619c-0.188,0-0.377-0.031-0.536-0.125c-0.173-0.063-0.299-0.159-0.41-0.284
			c-0.126-0.11-0.221-0.252-0.281-0.41c-0.033-0.173-0.063-0.332-0.063-0.505c0-0.157,0.032-0.332,0.063-0.487
			c0.062-0.173,0.156-0.301,0.281-0.426c0.111-0.11,0.253-0.204,0.41-0.283c0.156-0.063,0.332-0.094,0.536-0.094
			c0.188,0,0.362,0.031,0.519,0.094c0.174,0.079,0.301,0.173,0.395,0.283c0.128,0.126,0.223,0.283,0.285,0.426
			c0.047,0.157,0.078,0.33,0.078,0.487c0,0.173-0.033,0.347-0.078,0.505c-0.062,0.157-0.143,0.316-0.285,0.41
			c-0.094,0.126-0.25,0.221-0.395,0.284C37.889,4.588,37.704,4.619,37.513,4.619z M36.756,3.295c0,0.141,0.017,0.253,0.048,0.347
			c0.046,0.093,0.108,0.189,0.173,0.283c0.062,0.063,0.126,0.126,0.234,0.159c0.098,0.062,0.189,0.079,0.302,0.079
			c0.095,0,0.221-0.017,0.315-0.079C37.907,4.052,38,3.988,38.065,3.925c0.062-0.094,0.109-0.19,0.172-0.3
			c0.033-0.095,0.062-0.205,0.062-0.332s-0.029-0.252-0.062-0.346c-0.031-0.094-0.095-0.188-0.172-0.284
			c-0.062-0.062-0.141-0.126-0.236-0.158c-0.095-0.06-0.188-0.092-0.314-0.092c-0.111,0-0.204,0.032-0.283,0.094
			c-0.098,0.033-0.189,0.096-0.253,0.158c-0.063,0.096-0.095,0.19-0.157,0.3C36.771,3.075,36.756,3.201,36.756,3.295z"/>
		<path fill="#FB4C52" d="M41.581,4.588h-0.539V3.169c0-0.253-0.028-0.41-0.125-0.536c-0.08-0.096-0.189-0.159-0.332-0.159
			c-0.076,0-0.174,0.032-0.235,0.032c-0.063,0.033-0.157,0.096-0.22,0.126c-0.063,0.063-0.127,0.143-0.176,0.204
			c-0.047,0.079-0.095,0.157-0.142,0.236v1.514h-0.519v-2.52h0.485v0.505c0.097-0.173,0.236-0.314,0.408-0.394
			c0.188-0.11,0.396-0.143,0.615-0.143c0.143,0,0.268,0,0.362,0.079c0.109,0.047,0.188,0.126,0.236,0.222
			c0.062,0.11,0.094,0.204,0.11,0.331c0.03,0.142,0.03,0.267,0.03,0.393v1.529h0.035l0,0H41.581z"/>
		<path fill="#FB4C52" d="M32.817,10.434c-0.127,0-0.234-0.017-0.332-0.063c-0.109-0.033-0.201-0.096-0.27-0.159
			c-0.062-0.078-0.143-0.171-0.189-0.267c-0.031-0.095-0.062-0.206-0.062-0.315c0-0.126,0.018-0.252,0.08-0.346
			c0.063-0.094,0.142-0.172,0.235-0.251c0.097-0.063,0.206-0.126,0.332-0.159c0.125-0.046,0.271-0.062,0.425-0.062
			c0.127,0,0.252,0.014,0.363,0.031c0.109,0.016,0.237,0.047,0.332,0.079V8.747c0-0.19-0.062-0.347-0.158-0.426
			c-0.097-0.11-0.269-0.156-0.457-0.156c-0.144,0-0.268,0.016-0.408,0.062c-0.127,0.048-0.254,0.127-0.396,0.221l-0.156-0.331
			c0.332-0.22,0.661-0.315,1.009-0.315c0.346,0,0.629,0.063,0.805,0.252c0.205,0.189,0.299,0.44,0.299,0.772v0.913
			c0,0.11,0.033,0.173,0.124,0.173v0.457c-0.031,0.016-0.091,0.016-0.124,0.016s-0.062,0.017-0.094,0.017
			c-0.11,0-0.189-0.033-0.254-0.079c-0.047-0.063-0.094-0.126-0.094-0.204L33.81,9.945c-0.11,0.157-0.271,0.284-0.427,0.347
			C33.228,10.354,33.004,10.434,32.817,10.434z M32.975,10.039c0.126,0,0.253-0.032,0.361-0.063c0.108-0.063,0.203-0.126,0.27-0.221
			c0.062-0.048,0.098-0.111,0.098-0.172V9.252c-0.098-0.032-0.19-0.063-0.285-0.094c-0.096-0.017-0.189-0.033-0.316-0.033
			c-0.188,0-0.328,0.063-0.455,0.126c-0.109,0.094-0.174,0.189-0.174,0.347c0,0.126,0.047,0.251,0.143,0.313
			C32.708,10.008,32.817,10.039,32.975,10.039z"/>
		<path fill="#FB4C52" d="M36.314,8.321c-0.22,0-0.392,0.047-0.567,0.141c-0.156,0.096-0.25,0.222-0.33,0.378v1.544h-0.521V7.865
			h0.474v0.55c0.078-0.172,0.221-0.331,0.348-0.394c0.125-0.126,0.285-0.189,0.438-0.189c0.032,0,0.063,0,0.097,0s0.033,0,0.033,0
			v0.489H36.314z"/>
		<path fill="#FB4C52" d="M37.704,10.434c-0.189,0-0.365-0.032-0.521-0.11c-0.172-0.063-0.299-0.157-0.426-0.284
			c-0.11-0.126-0.189-0.269-0.252-0.41c-0.063-0.141-0.096-0.346-0.096-0.503c0-0.159,0.032-0.347,0.096-0.505
			c0.062-0.158,0.141-0.3,0.252-0.41c0.127-0.126,0.254-0.222,0.426-0.285c0.16-0.062,0.331-0.11,0.552-0.11
			c0.19,0,0.364,0.047,0.536,0.11c0.156,0.063,0.283,0.159,0.395,0.285c0.11,0.126,0.203,0.251,0.268,0.41
			c0.062,0.157,0.097,0.331,0.097,0.489c0,0.033,0,0.078,0,0.11c0,0.033,0,0.063,0,0.094H37.01c0,0.095,0.031,0.221,0.062,0.299
			c0.032,0.096,0.109,0.174,0.173,0.237c0.063,0.062,0.144,0.125,0.235,0.158c0.095,0.032,0.19,0.063,0.285,0.063
			c0.077,0,0.155,0,0.22-0.031c0.062-0.032,0.126-0.032,0.189-0.063c0.062-0.062,0.125-0.096,0.156-0.125
			c0.031-0.063,0.062-0.126,0.094-0.174l0.473,0.126c-0.109,0.206-0.25,0.332-0.439,0.473
			C38.206,10.371,37.986,10.434,37.704,10.434z M38.491,8.936c0-0.11-0.033-0.22-0.096-0.314c-0.031-0.096-0.096-0.173-0.158-0.236
			C38.174,8.321,38.094,8.274,38,8.243c-0.078-0.032-0.172-0.063-0.299-0.063c-0.097,0-0.189,0.032-0.283,0.063
			c-0.096,0.031-0.157,0.078-0.236,0.141c-0.079,0.063-0.111,0.142-0.176,0.236c-0.03,0.094-0.062,0.204-0.062,0.314h1.546V8.936
			L38.491,8.936z"/>
		<path fill="#FB4C52" d="M40.112,10.434c-0.126,0-0.236-0.017-0.332-0.063c-0.126-0.033-0.188-0.096-0.283-0.159
			c-0.063-0.078-0.127-0.171-0.174-0.267C39.293,9.85,39.26,9.739,39.26,9.629c0-0.126,0.016-0.252,0.076-0.346
			c0.063-0.094,0.127-0.172,0.223-0.251c0.095-0.063,0.221-0.126,0.348-0.159c0.127-0.046,0.281-0.062,0.439-0.062
			c0.095,0,0.236,0.014,0.347,0.031c0.11,0.016,0.224,0.047,0.315,0.079V8.747c0-0.19-0.033-0.347-0.159-0.426
			c-0.095-0.11-0.253-0.156-0.438-0.156c-0.127,0-0.285,0.016-0.41,0.062c-0.127,0.048-0.254,0.127-0.41,0.221l-0.157-0.331
			c0.345-0.22,0.677-0.315,1.009-0.315c0.362,0,0.63,0.063,0.819,0.252c0.188,0.189,0.28,0.44,0.28,0.772v0.913
			c0,0.11,0.063,0.173,0.158,0.173v0.457c-0.062,0.016-0.095,0.016-0.127,0.016c-0.031,0-0.062,0.017-0.126,0.017
			c-0.095,0-0.173-0.033-0.235-0.079c-0.047-0.063-0.11-0.126-0.11-0.204V9.945c-0.125,0.157-0.251,0.284-0.425,0.347
			C40.523,10.354,40.318,10.434,40.112,10.434z M40.254,10.039c0.127,0,0.269-0.032,0.377-0.063
			c0.111-0.063,0.205-0.126,0.283-0.221c0.063-0.048,0.098-0.111,0.098-0.172V9.252c-0.098-0.032-0.206-0.063-0.303-0.094
			c-0.094-0.017-0.188-0.033-0.299-0.033c-0.189,0-0.347,0.063-0.474,0.126c-0.126,0.094-0.188,0.189-0.188,0.347
			c0,0.126,0.062,0.251,0.157,0.313C40.002,10.008,40.112,10.039,40.254,10.039z"/>
	</g>
	<g>
		<path fill="#010101" d="M14.487,9.697c0-0.142,0.019-0.283,0.089-0.443c0.053-0.16,0.125-0.301,0.24-0.41
			c0.106-0.108,0.23-0.232,0.4-0.303c0.141-0.072,0.329-0.106,0.524-0.106c0.239,0,0.438,0.053,0.605,0.159
			c0.159,0.108,0.294,0.25,0.382,0.41l-0.331,0.214c-0.035-0.09-0.071-0.143-0.124-0.195c-0.063-0.071-0.115-0.106-0.168-0.143
			c-0.054-0.037-0.125-0.071-0.179-0.071c-0.062,0-0.134-0.037-0.187-0.037c-0.143,0-0.249,0.037-0.366,0.108
			c-0.087,0.037-0.177,0.124-0.248,0.213c-0.08,0.088-0.134,0.196-0.17,0.32c-0.036,0.105-0.052,0.211-0.052,0.338
			c0,0.125,0.019,0.248,0.052,0.355c0.037,0.124,0.09,0.23,0.17,0.303c0.071,0.106,0.159,0.178,0.267,0.23
			c0.115,0.052,0.223,0.09,0.347,0.09c0.053,0,0.124-0.019,0.205-0.038c0.053-0.018,0.125-0.035,0.179-0.07
			c0.052-0.037,0.133-0.09,0.186-0.143c0.053-0.071,0.087-0.108,0.124-0.18l0.347,0.18c-0.035,0.106-0.087,0.194-0.168,0.267
			c-0.071,0.071-0.16,0.143-0.249,0.195c-0.089,0.037-0.205,0.071-0.31,0.106c-0.106,0.035-0.205,0.037-0.311,0.037
			c-0.178,0-0.347-0.037-0.49-0.106c-0.151-0.089-0.275-0.179-0.381-0.303s-0.203-0.267-0.258-0.41
			C14.522,10.054,14.487,9.894,14.487,9.697z"/>
		<path fill="#010101" d="M17.946,11.049c-0.143,0-0.293,0-0.401-0.071c-0.124-0.037-0.238-0.124-0.31-0.214
			c-0.089-0.089-0.16-0.196-0.195-0.32c-0.043-0.143-0.08-0.25-0.08-0.39c0-0.141,0.019-0.267,0.08-0.391
			c0.037-0.106,0.108-0.212,0.195-0.301c0.072-0.108,0.187-0.179,0.31-0.232c0.108-0.036,0.258-0.071,0.401-0.071
			c0.143,0,0.276,0.036,0.401,0.087c0.103,0.053,0.221,0.124,0.31,0.214c0.085,0.089,0.141,0.195,0.195,0.301
			c0.052,0.143,0.078,0.25,0.078,0.392c0,0.018,0,0.053,0,0.071c0,0.036,0,0.07,0,0.07h-1.539c0,0.108,0.028,0.179,0.063,0.25
			c0.018,0.072,0.071,0.124,0.123,0.178c0.053,0.053,0.109,0.087,0.18,0.106c0.078,0.036,0.15,0.036,0.221,0.036
			c0.052,0,0.107,0,0.16-0.018c0.043,0,0.098-0.037,0.15-0.054c0.054-0.018,0.072-0.052,0.109-0.087
			c0.034-0.037,0.051-0.072,0.071-0.124l0.348,0.106c-0.054,0.143-0.161,0.248-0.33,0.356C18.327,11.013,18.14,11.049,17.946,11.049
			z M18.532,9.929c0-0.07-0.029-0.142-0.062-0.231c-0.02-0.071-0.071-0.105-0.123-0.177c-0.038-0.037-0.107-0.071-0.179-0.106
			c-0.062-0.037-0.134-0.037-0.223-0.037c-0.072,0-0.143,0-0.222,0.037c-0.051,0.037-0.123,0.071-0.18,0.106
			c-0.036,0.072-0.089,0.105-0.124,0.177c-0.018,0.09-0.043,0.161-0.061,0.231H18.532z"/>
		<path fill="#010101" d="M20.965,11.049h-0.399V9.966c0-0.179-0.018-0.303-0.089-0.374c-0.062-0.108-0.133-0.143-0.257-0.143
			c-0.054,0-0.107,0.035-0.188,0.035c-0.055,0.037-0.106,0.071-0.158,0.108c-0.053,0.034-0.09,0.071-0.125,0.142
			c-0.037,0.053-0.081,0.125-0.1,0.179v1.138H19.25V9.148h0.363v0.375c0.072-0.106,0.189-0.23,0.329-0.303
			c0.133-0.071,0.295-0.108,0.453-0.108c0.114,0,0.223,0.019,0.294,0.071c0.071,0.037,0.134,0.089,0.169,0.16
			c0.036,0.072,0.069,0.178,0.09,0.25c0.018,0.105,0.018,0.213,0.018,0.319L20.965,11.049L20.965,11.049z"/>
		<path fill="#010101" d="M22.459,10.941c-0.053,0.037-0.104,0.037-0.222,0.071c-0.09,0.037-0.18,0.071-0.295,0.071
			c-0.052,0-0.124-0.037-0.178-0.037c-0.052-0.036-0.106-0.036-0.141-0.071c-0.037-0.053-0.082-0.089-0.101-0.161
			c-0.018-0.053-0.035-0.107-0.035-0.195v-1.17h-0.249V9.127h0.249V8.506h0.399v0.621h0.418v0.322h-0.418v1.065
			c0,0.071,0.019,0.124,0.061,0.143c0.037,0.035,0.09,0.052,0.145,0.052c0.056,0,0.107-0.019,0.16-0.036
			c0.063-0.019,0.101-0.037,0.115-0.037L22.459,10.941z"/>
		<path fill="#010101" d="M23.803,9.484c-0.143,0-0.285,0.037-0.401,0.108c-0.122,0.071-0.194,0.176-0.246,0.284v1.173h-0.401V9.146
			h0.383v0.409c0.054-0.142,0.144-0.23,0.252-0.32c0.113-0.072,0.221-0.124,0.345-0.124c0.019,0,0.037,0,0.052,0
			c0.019,0,0.02,0,0.037,0v0.375h-0.019L23.803,9.484L23.803,9.484z"/>
		<path fill="#010101" d="M24.568,11.049c-0.088,0-0.177,0-0.248-0.037c-0.071-0.035-0.153-0.071-0.204-0.143
			c-0.053-0.053-0.089-0.108-0.125-0.179c-0.037-0.071-0.053-0.159-0.053-0.248c0-0.108,0.018-0.179,0.053-0.25
			c0.034-0.07,0.086-0.142,0.158-0.196c0.07-0.052,0.152-0.087,0.26-0.124s0.221-0.037,0.328-0.037c0.09,0,0.178,0,0.276,0.018
			c0.088,0.019,0.157,0.038,0.229,0.072V9.784c0-0.161-0.035-0.267-0.125-0.338c-0.07-0.09-0.203-0.125-0.346-0.125
			c-0.09,0-0.204,0.019-0.312,0.054c-0.104,0.035-0.192,0.106-0.31,0.176l-0.123-0.266c0.259-0.162,0.49-0.249,0.765-0.249
			c0.271,0,0.471,0.071,0.621,0.195c0.144,0.143,0.213,0.357,0.213,0.587v0.657c0,0.106,0.037,0.159,0.09,0.159v0.34
			c-0.037,0-0.071,0.035-0.09,0.035c-0.021,0-0.055,0-0.071,0c-0.071,0-0.142-0.035-0.177-0.071
			c-0.045-0.037-0.082-0.089-0.082-0.161v-0.108c-0.088,0.108-0.194,0.195-0.328,0.267C24.844,10.978,24.717,11.049,24.568,11.049z
			 M24.683,10.764c0.09,0,0.179-0.018,0.267-0.053c0.098-0.019,0.151-0.071,0.204-0.143c0.056-0.036,0.072-0.087,0.072-0.159v-0.25
			c-0.072,0-0.144-0.036-0.214-0.053c-0.079-0.018-0.152-0.018-0.225-0.018c-0.143,0-0.259,0.018-0.363,0.105
			c-0.09,0.037-0.123,0.143-0.123,0.25c0,0.088,0.035,0.159,0.107,0.23C24.478,10.746,24.568,10.764,24.683,10.764z"/>
		<path fill="#010101" d="M26.122,8.364h0.398v2.116c0,0.071,0.021,0.124,0.055,0.159c0.035,0.053,0.071,0.071,0.143,0.071
			c0.019,0,0.055,0,0.09-0.019c0.037-0.018,0.082-0.018,0.115-0.036l0.052,0.322c-0.052,0.035-0.132,0.035-0.202,0.071
			c-0.072,0-0.145,0.037-0.214,0.037c-0.152,0-0.259-0.037-0.329-0.143c-0.07-0.071-0.107-0.179-0.107-0.319V8.364L26.122,8.364z"/>
		<path fill="#010101" d="M14.648,14.675v-2.577h0.4v2.221h1.386v0.356H14.648z"/>
		<path fill="#010101" d="M17.491,14.71c-0.152,0-0.292-0.018-0.399-0.071c-0.134-0.053-0.224-0.124-0.312-0.23
			c-0.087-0.089-0.152-0.195-0.204-0.303c-0.053-0.143-0.072-0.267-0.072-0.391c0-0.142,0.019-0.284,0.072-0.391
			c0.036-0.108,0.115-0.214,0.204-0.301c0.09-0.09,0.196-0.161,0.312-0.214c0.124-0.053,0.248-0.089,0.399-0.089
			c0.143,0,0.294,0.036,0.399,0.089c0.107,0.053,0.214,0.124,0.31,0.214c0.089,0.087,0.143,0.193,0.196,0.301
			c0.036,0.142,0.054,0.267,0.054,0.391s-0.018,0.25-0.054,0.391c-0.053,0.106-0.107,0.214-0.196,0.303
			c-0.078,0.108-0.187,0.179-0.31,0.23C17.785,14.694,17.635,14.71,17.491,14.71z M16.922,13.732c0,0.09,0.019,0.179,0.037,0.267
			c0.037,0.071,0.08,0.143,0.134,0.178c0.052,0.071,0.107,0.124,0.176,0.159c0.072,0.037,0.152,0.054,0.224,0.054
			c0.071,0,0.16-0.019,0.214-0.054c0.071-0.053,0.134-0.089,0.187-0.159c0.034-0.037,0.086-0.106,0.104-0.178
			c0.038-0.089,0.038-0.178,0.038-0.267c0-0.105,0-0.177-0.038-0.267c-0.018-0.071-0.07-0.142-0.104-0.213
			c-0.053-0.071-0.116-0.106-0.187-0.143c-0.054-0.037-0.143-0.053-0.214-0.053c-0.072,0-0.152,0.016-0.224,0.053
			c-0.071,0.037-0.124,0.106-0.176,0.143c-0.054,0.071-0.099,0.143-0.115,0.213C16.941,13.556,16.922,13.643,16.922,13.732z"/>
		<path fill="#010101" d="M20.548,14.675h-0.4v-1.067c0-0.178-0.018-0.319-0.089-0.391c-0.062-0.088-0.134-0.124-0.257-0.124
			c-0.054,0-0.108,0.018-0.189,0.036c-0.053,0.019-0.106,0.053-0.16,0.088c-0.054,0.037-0.089,0.108-0.125,0.143
			c-0.043,0.07-0.078,0.142-0.096,0.195v1.12h-0.4V12.79h0.364v0.391c0.071-0.143,0.188-0.249,0.33-0.319
			c0.123-0.072,0.295-0.108,0.451-0.108c0.116,0,0.226,0.018,0.297,0.07c0.07,0.038,0.122,0.09,0.156,0.162
			c0.045,0.071,0.079,0.159,0.099,0.267c0.018,0.071,0.018,0.178,0.018,0.303L20.548,14.675L20.548,14.675L20.548,14.675z"/>
		<path fill="#010101" d="M21.766,14.71c-0.123,0-0.259-0.018-0.365-0.071c-0.104-0.053-0.194-0.124-0.292-0.213
			c-0.09-0.09-0.144-0.214-0.179-0.32c-0.036-0.143-0.054-0.267-0.054-0.391s0.02-0.249,0.054-0.391
			c0.035-0.108,0.089-0.23,0.179-0.32c0.071-0.089,0.169-0.16,0.274-0.213c0.106-0.036,0.223-0.071,0.346-0.071
			c0.16,0,0.292,0.036,0.402,0.108c0.106,0.07,0.205,0.178,0.275,0.285v-1.138h0.398v2.205c0,0.035,0,0.071,0.02,0.105
			c0.018,0.018,0.034,0.037,0.088,0.037v0.338c-0.035,0-0.07,0.018-0.088,0.018c-0.017,0-0.055,0-0.072,0
			c-0.08,0-0.151-0.018-0.203-0.052c-0.037-0.054-0.071-0.106-0.071-0.159v-0.143c-0.069,0.108-0.168,0.195-0.295,0.267
			C22.059,14.675,21.929,14.71,21.766,14.71z M21.872,14.372c0.055,0,0.115-0.018,0.188-0.037c0.071-0.018,0.108-0.053,0.161-0.089
			c0.053-0.037,0.09-0.071,0.134-0.106c0.035-0.071,0.054-0.105,0.071-0.177v-0.497c-0.018-0.037-0.055-0.108-0.09-0.142
			c-0.043-0.071-0.098-0.108-0.133-0.143c-0.053-0.037-0.105-0.071-0.16-0.089c-0.053-0.019-0.113-0.035-0.186-0.035
			c-0.072,0-0.144,0.016-0.215,0.053c-0.053,0.037-0.134,0.106-0.168,0.177c-0.053,0.037-0.09,0.108-0.108,0.179
			c-0.016,0.106-0.033,0.177-0.033,0.267c0,0.09,0.018,0.162,0.033,0.267c0.037,0.071,0.071,0.143,0.123,0.178
			c0.054,0.071,0.116,0.106,0.189,0.159C21.75,14.372,21.787,14.372,21.872,14.372z"/>
		<path fill="#010101" d="M24.167,14.71c-0.142,0-0.281-0.018-0.399-0.071c-0.123-0.053-0.214-0.124-0.312-0.23
			c-0.086-0.089-0.143-0.195-0.193-0.303c-0.055-0.143-0.071-0.267-0.071-0.391c0-0.142,0.019-0.284,0.071-0.391
			c0.037-0.108,0.107-0.214,0.193-0.301c0.098-0.09,0.205-0.161,0.312-0.214c0.134-0.053,0.259-0.089,0.399-0.089
			c0.153,0,0.295,0.036,0.401,0.089c0.115,0.053,0.224,0.124,0.312,0.214c0.091,0.087,0.151,0.193,0.203,0.301
			c0.037,0.142,0.055,0.267,0.055,0.391s-0.02,0.25-0.055,0.391c-0.053,0.106-0.112,0.214-0.203,0.303
			c-0.07,0.108-0.178,0.179-0.312,0.23C24.458,14.694,24.336,14.71,24.167,14.71z M23.606,13.732c0,0.09,0.018,0.179,0.037,0.267
			c0.038,0.071,0.07,0.143,0.123,0.178c0.054,0.071,0.115,0.124,0.188,0.159c0.071,0.037,0.144,0.054,0.213,0.054
			c0.082,0,0.172-0.019,0.226-0.054c0.069-0.053,0.125-0.089,0.177-0.159c0.037-0.037,0.098-0.106,0.115-0.178
			c0.035-0.089,0.035-0.178,0.035-0.267c0-0.105,0-0.177-0.035-0.267c-0.018-0.071-0.082-0.142-0.115-0.213
			c-0.052-0.071-0.105-0.106-0.177-0.143c-0.054-0.037-0.144-0.053-0.226-0.053c-0.069,0-0.142,0.016-0.213,0.053
			c-0.07,0.037-0.134,0.106-0.188,0.143c-0.053,0.071-0.09,0.143-0.107,0.213C23.624,13.556,23.606,13.643,23.606,13.732z"/>
		<path fill="#010101" d="M27.225,14.675h-0.4v-1.067c0-0.178-0.019-0.319-0.09-0.391c-0.052-0.088-0.123-0.124-0.257-0.124
			c-0.054,0-0.106,0.018-0.177,0.036c-0.055,0.019-0.108,0.053-0.162,0.088c-0.061,0.037-0.098,0.108-0.133,0.143
			c-0.035,0.07-0.07,0.142-0.088,0.195v1.12h-0.4V12.79h0.367v0.391c0.07-0.143,0.175-0.249,0.328-0.319
			c0.125-0.072,0.285-0.108,0.453-0.108c0.106,0,0.215,0.018,0.293,0.07c0.07,0.038,0.125,0.09,0.16,0.162
			c0.035,0.071,0.071,0.159,0.09,0.267c0.018,0.071,0.018,0.178,0.018,0.303v1.12L27.225,14.675L27.225,14.675z"/>
	</g>
	<g>
		<path fill="#3492D0" d="M16.935,21.829V20.16h0.731c0.075,0,0.155,0,0.212,0.047c0.064,0.023,0.121,0.07,0.167,0.115
			c0.046,0.057,0.081,0.113,0.103,0.185c0.028,0.058,0.04,0.138,0.04,0.206c0,0.046,0,0.116-0.023,0.162
			c-0.018,0.059-0.041,0.104-0.064,0.148c-0.024,0.035-0.057,0.082-0.103,0.104c-0.034,0.046-0.086,0.07-0.132,0.093l0.392,0.632
			h-0.293l-0.369-0.586H17.21v0.586h-0.275V21.829L16.935,21.829z M17.199,21.014h0.454c0.041,0,0.075-0.013,0.108-0.024
			c0.024-0.013,0.059-0.033,0.07-0.067c0.023-0.023,0.034-0.059,0.046-0.115c0.012-0.024,0.024-0.07,0.024-0.115
			c0-0.047-0.012-0.082-0.024-0.127c-0.012-0.033-0.034-0.069-0.058-0.094c-0.024-0.033-0.059-0.058-0.08-0.068
			c-0.035-0.012-0.075-0.022-0.109-0.022h-0.443v0.634H17.199L17.199,21.014z"/>
		<path fill="#3492D0" d="M18.447,20.391v-0.287h0.259v0.287H18.447z M18.447,21.829V20.6h0.259v1.229H18.447z"/>
		<path fill="#3492D0" d="M19.362,21.829L18.89,20.6h0.275l0.352,1.012l0.351-1.012h0.247l-0.466,1.229H19.362z"/>
		<path fill="#3492D0" d="M20.812,21.852c-0.092,0-0.184-0.012-0.259-0.059c-0.081-0.021-0.15-0.068-0.2-0.137
			c-0.059-0.047-0.104-0.127-0.127-0.207c-0.023-0.081-0.046-0.161-0.046-0.254c0-0.094,0.012-0.172,0.046-0.242
			c0.023-0.068,0.068-0.148,0.127-0.196c0.05-0.067,0.119-0.114,0.2-0.161c0.075-0.021,0.167-0.046,0.259-0.046
			c0.099,0,0.18,0.024,0.26,0.068c0.075,0.024,0.144,0.069,0.202,0.139c0.057,0.046,0.097,0.116,0.131,0.196
			c0.035,0.08,0.047,0.148,0.047,0.242c0,0.023,0,0.046,0,0.046c0,0.024,0,0.047,0,0.047H20.46c0,0.067,0.012,0.114,0.035,0.161
			c0.011,0.046,0.046,0.08,0.08,0.115c0.04,0.047,0.074,0.067,0.12,0.067c0.047,0.024,0.093,0.024,0.139,0.024
			c0.041,0,0.074,0,0.111,0c0.021,0,0.056-0.024,0.09-0.047c0.035,0,0.046-0.022,0.069-0.058c0.029-0.022,0.042-0.046,0.053-0.079
			l0.224,0.069c-0.041,0.093-0.109,0.159-0.213,0.229C21.059,21.829,20.946,21.852,20.812,21.852z M21.193,21.127
			c0-0.059-0.013-0.104-0.035-0.148c-0.011-0.047-0.053-0.08-0.086-0.115c-0.024-0.033-0.068-0.059-0.114-0.079
			c-0.035-0.024-0.087-0.024-0.146-0.024c-0.047,0-0.092,0-0.138,0.024c-0.035,0.024-0.087,0.046-0.121,0.079
			c-0.023,0.035-0.058,0.07-0.081,0.115c-0.012,0.047-0.023,0.092-0.033,0.148H21.193z"/>
		<path fill="#3492D0" d="M22.348,20.805c-0.098,0.024-0.189,0.047-0.264,0.081c-0.082,0.046-0.127,0.115-0.162,0.185v0.76h-0.259
			V20.6h0.248v0.275c0.034-0.092,0.092-0.161,0.16-0.208c0.075-0.045,0.145-0.091,0.225-0.091c0.013,0,0.023,0,0.035,0
			c0.018,0,0.018,0,0.027,0v0.229H22.348L22.348,20.805z"/>
		<path fill="#3492D0" d="M24.252,20.391H23.7v1.438h-0.271v-1.438h-0.552v-0.229h1.375V20.391L24.252,20.391z"/>
		<path fill="#3492D0" d="M25.554,21.829h-0.261v-0.702c0-0.113-0.017-0.195-0.062-0.241s-0.093-0.081-0.172-0.081
			c-0.041,0-0.075,0-0.11,0.024c-0.033,0.012-0.066,0.032-0.102,0.058s-0.064,0.061-0.086,0.094
			c-0.024,0.033-0.047,0.078-0.061,0.125v0.726h-0.258v-1.713h0.258v0.724c0.047-0.08,0.111-0.148,0.192-0.195
			c0.079-0.047,0.177-0.08,0.271-0.08c0.068,0,0.145,0.012,0.188,0.057c0.047,0.023,0.081,0.045,0.116,0.092
			c0.033,0.046,0.046,0.116,0.058,0.174c0.019,0.057,0.019,0.127,0.019,0.194v0.748h0.009V21.829z"/>
		<path fill="#3492D0" d="M26.174,21.852c-0.059,0-0.115-0.012-0.168-0.033c-0.047-0.024-0.092-0.047-0.125-0.092
			c-0.034-0.024-0.06-0.068-0.08-0.115c-0.029-0.047-0.04-0.104-0.04-0.161s0.011-0.103,0.04-0.16
			c0.023-0.045,0.058-0.092,0.104-0.114c0.047-0.047,0.094-0.068,0.168-0.093c0.069-0.022,0.139-0.022,0.213-0.022
			c0.057,0,0.113,0,0.172,0.012c0.063,0.012,0.109,0.035,0.155,0.058v-0.103c0-0.092-0.024-0.16-0.081-0.219
			c-0.053-0.047-0.133-0.069-0.225-0.069c-0.062,0-0.133,0-0.201,0.022c-0.068,0.023-0.133,0.069-0.201,0.116l-0.078-0.162
			c0.158-0.114,0.315-0.173,0.493-0.173c0.173,0,0.306,0.046,0.396,0.127c0.104,0.092,0.15,0.23,0.15,0.379v0.438
			c0,0.06,0.023,0.093,0.045,0.093v0.219c-0.021,0-0.045,0.024-0.045,0.024c-0.023,0-0.047,0-0.047,0
			c-0.047,0-0.104-0.024-0.126-0.047c-0.022-0.021-0.046-0.047-0.046-0.092v-0.069c-0.059,0.069-0.126,0.114-0.214,0.159
			C26.352,21.807,26.266,21.852,26.174,21.852z M26.245,21.657c0.062,0,0.121,0,0.178-0.024c0.058-0.023,0.1-0.057,0.133-0.103
			c0.033-0.023,0.046-0.058,0.046-0.093v-0.172c-0.046,0-0.099-0.024-0.146-0.024c-0.045-0.022-0.092-0.022-0.138-0.022
			c-0.098,0-0.167,0.022-0.235,0.067c-0.059,0.024-0.086,0.093-0.086,0.161c0,0.058,0.027,0.104,0.073,0.16
			C26.118,21.657,26.174,21.657,26.245,21.657z"/>
		<path fill="#3492D0" d="M29.062,21.829h-0.265v-0.702c0-0.113-0.023-0.195-0.047-0.241c-0.045-0.058-0.104-0.081-0.172-0.081
			s-0.149,0.024-0.197,0.081c-0.067,0.058-0.113,0.128-0.139,0.22v0.736h-0.252v-0.689c0-0.127-0.023-0.209-0.046-0.254
			c-0.047-0.059-0.093-0.082-0.161-0.082c-0.082,0-0.148,0.024-0.207,0.082c-0.057,0.058-0.113,0.127-0.139,0.207v0.736h-0.253
			v-1.221h0.229v0.24c0.047-0.078,0.127-0.148,0.196-0.195c0.081-0.045,0.175-0.066,0.267-0.066c0.093,0,0.184,0.021,0.252,0.066
			c0.06,0.068,0.094,0.116,0.105,0.208c0.055-0.092,0.124-0.161,0.193-0.208c0.08-0.045,0.174-0.079,0.266-0.079
			c0.081,0,0.126,0.013,0.196,0.058c0.047,0.021,0.067,0.045,0.114,0.092c0.033,0.047,0.047,0.115,0.059,0.174
			c0.014,0.055,0.014,0.124,0.014,0.193v0.726H29.062L29.062,21.829z"/>
		<path fill="#3492D0" d="M29.924,21.852c-0.092,0-0.184-0.012-0.264-0.059c-0.08-0.021-0.149-0.068-0.195-0.137
			c-0.069-0.047-0.115-0.127-0.139-0.207c-0.021-0.081-0.047-0.161-0.047-0.254c0-0.094,0.024-0.172,0.047-0.242
			c0.023-0.068,0.069-0.148,0.139-0.196c0.046-0.067,0.115-0.114,0.195-0.161c0.08-0.021,0.172-0.046,0.264-0.046
			c0.093,0,0.174,0.024,0.255,0.068c0.067,0.024,0.136,0.069,0.206,0.139c0.058,0.046,0.093,0.116,0.126,0.196
			c0.034,0.08,0.046,0.148,0.046,0.242c0,0.023,0,0.046,0,0.046c0,0.024,0,0.047,0,0.047h-0.988c0,0.067,0.012,0.114,0.035,0.161
			c0.012,0.046,0.046,0.08,0.081,0.115c0.034,0.047,0.08,0.067,0.127,0.067c0.045,0.024,0.091,0.024,0.138,0.024
			c0.034,0,0.067,0,0.104,0c0.021,0,0.058-0.024,0.092-0.047c0.035,0,0.046-0.022,0.081-0.058c0.022-0.022,0.022-0.046,0.046-0.079
			l0.219,0.069c-0.033,0.093-0.104,0.159-0.219,0.229C30.167,21.829,30.051,21.852,29.924,21.852z M30.293,21.127
			c0-0.059,0-0.104-0.022-0.148c-0.024-0.047-0.046-0.08-0.092-0.115c-0.023-0.033-0.069-0.059-0.116-0.079
			c-0.034-0.024-0.08-0.024-0.139-0.024c-0.047,0-0.092,0-0.139,0.024s-0.093,0.046-0.127,0.079c-0.022,0.035-0.057,0.07-0.08,0.115
			c-0.013,0.047-0.022,0.092-0.035,0.148H30.293z"/>
		<path fill="#3492D0" d="M31.215,21.852c-0.092,0-0.196-0.012-0.289-0.059c-0.102-0.021-0.174-0.068-0.252-0.137l0.104-0.161
			c0.07,0.047,0.161,0.093,0.23,0.114c0.068,0.022,0.139,0.047,0.229,0.047c0.068,0,0.139-0.024,0.186-0.047
			c0.045-0.021,0.058-0.08,0.058-0.127c0-0.059-0.024-0.092-0.069-0.115c-0.059-0.021-0.127-0.047-0.24-0.081
			c-0.069-0.021-0.14-0.045-0.196-0.067c-0.058-0.023-0.103-0.047-0.125-0.068c-0.046-0.024-0.07-0.047-0.07-0.082
			c-0.024-0.034-0.024-0.08-0.024-0.125c0-0.059,0-0.115,0.024-0.162c0.024-0.07,0.07-0.092,0.093-0.139
			c0.058-0.023,0.104-0.047,0.16-0.08c0.059-0.013,0.116-0.023,0.186-0.023c0.091,0,0.183,0.012,0.265,0.059
			c0.081,0.021,0.149,0.067,0.22,0.113l-0.113,0.163c-0.115-0.093-0.231-0.14-0.368-0.14c-0.06,0-0.117,0-0.163,0.047
			c-0.033,0.023-0.059,0.07-0.059,0.126c0,0.024,0,0.047,0.013,0.069c0.013,0.012,0.022,0.022,0.046,0.034
			c0.023,0.011,0.046,0.021,0.081,0.034c0.034,0.012,0.079,0.034,0.127,0.034c0.092,0.022,0.159,0.046,0.229,0.069
			c0.057,0.022,0.103,0.047,0.148,0.069c0.059,0.022,0.08,0.067,0.08,0.103c0.023,0.047,0.023,0.08,0.023,0.14
			c0,0.126-0.047,0.218-0.127,0.265C31.491,21.816,31.352,21.852,31.215,21.852z"/>
	</g>
	<g>
		<path fill="#010101" d="M2.685,25.814v0.621H0.608v-0.621h0.727v-1.541c-0.026,0.05-0.076,0.086-0.156,0.123
			c-0.062,0.049-0.137,0.088-0.217,0.138c-0.075,0.026-0.162,0.05-0.238,0.073c-0.093,0.024-0.167,0.05-0.23,0.05v-0.646
			c0.063,0,0.137-0.025,0.23-0.05c0.087-0.051,0.176-0.099,0.267-0.147c0.087-0.051,0.15-0.112,0.224-0.176
			c0.069-0.05,0.106-0.074,0.119-0.125h0.703v2.301H2.685z"/>
		<path fill="#010101" d="M5.664,25.369c0,0.186-0.038,0.311-0.1,0.459c-0.063,0.137-0.169,0.249-0.28,0.347
			c-0.117,0.076-0.267,0.177-0.423,0.226c-0.149,0.062-0.316,0.088-0.51,0.088c-0.187,0-0.354-0.038-0.508-0.088
			c-0.163-0.062-0.294-0.15-0.417-0.25c-0.119-0.102-0.218-0.225-0.28-0.349c-0.068-0.124-0.106-0.298-0.106-0.46
			c0-0.111,0.013-0.212,0.05-0.285c0.043-0.088,0.08-0.162,0.142-0.238c0.05-0.086,0.112-0.137,0.181-0.187
			c0.062-0.049,0.125-0.099,0.198-0.147c-0.124-0.062-0.224-0.15-0.316-0.264C3.207,24.086,3.17,23.96,3.17,23.824
			c0-0.162,0.037-0.312,0.111-0.436c0.069-0.125,0.168-0.225,0.28-0.298c0.117-0.101,0.243-0.149,0.384-0.2
			c0.137-0.05,0.28-0.072,0.417-0.072c0.143,0,0.28,0.023,0.423,0.062c0.143,0.062,0.267,0.11,0.392,0.212
			c0.118,0.073,0.217,0.186,0.287,0.297c0.062,0.125,0.112,0.274,0.112,0.426c0,0.071-0.013,0.146-0.037,0.222
			c-0.024,0.075-0.05,0.126-0.106,0.198c-0.05,0.062-0.087,0.113-0.15,0.162c-0.061,0.049-0.117,0.088-0.193,0.113
			c0.076,0.051,0.156,0.098,0.217,0.148c0.062,0.05,0.124,0.123,0.18,0.199c0.05,0.076,0.1,0.16,0.125,0.248
			C5.639,25.207,5.664,25.27,5.664,25.369z M4.966,25.331c0-0.101-0.019-0.175-0.055-0.249c-0.037-0.062-0.087-0.124-0.137-0.161
			c-0.062-0.05-0.13-0.086-0.206-0.112c-0.073-0.025-0.155-0.035-0.229-0.035c-0.087,0-0.161,0.013-0.241,0.035
			c-0.076,0.026-0.137,0.062-0.206,0.112c-0.061,0.05-0.1,0.111-0.124,0.187c-0.037,0.05-0.05,0.125-0.05,0.225
			c0,0.074,0.013,0.15,0.05,0.225c0.037,0.073,0.075,0.123,0.144,0.174c0.05,0.05,0.123,0.086,0.199,0.111
			c0.081,0.024,0.156,0.036,0.23,0.036c0.093,0,0.168-0.013,0.243-0.036c0.074-0.025,0.143-0.064,0.206-0.111
			c0.062-0.051,0.099-0.125,0.137-0.188C4.954,25.479,4.966,25.405,4.966,25.331z M3.83,23.852c0,0.062,0.013,0.135,0.05,0.188
			c0.031,0.05,0.067,0.101,0.118,0.124c0.05,0.05,0.1,0.074,0.162,0.102c0.068,0.012,0.13,0.023,0.18,0.023
			c0.062,0,0.119-0.014,0.182-0.023c0.061-0.026,0.111-0.052,0.161-0.102c0.056-0.023,0.093-0.074,0.118-0.124
			c0.026-0.051,0.038-0.125,0.038-0.199c0-0.126-0.05-0.226-0.15-0.299c-0.106-0.05-0.217-0.11-0.36-0.11
			c-0.136,0-0.267,0.036-0.354,0.11C3.885,23.614,3.83,23.714,3.83,23.852z"/>
		<path fill="#010101" d="M7.813,25.23c0.217,0.025,0.386,0.139,0.51,0.297c0.131,0.176,0.206,0.363,0.206,0.599
			c0,0.175-0.025,0.312-0.086,0.437c-0.069,0.138-0.156,0.236-0.267,0.322c-0.117,0.1-0.256,0.162-0.423,0.213
			c-0.168,0.051-0.343,0.075-0.549,0.075c-0.267,0-0.484-0.037-0.689-0.124c-0.198-0.088-0.367-0.199-0.491-0.348l0.379-0.499
			c0.087,0.125,0.193,0.212,0.317,0.274c0.13,0.062,0.267,0.086,0.46,0.086c0.205,0,0.354-0.037,0.472-0.123
			c0.1-0.088,0.161-0.213,0.161-0.375c0-0.159-0.061-0.311-0.187-0.408c-0.13-0.088-0.323-0.139-0.577-0.139H6.913V25.01h0.162
			c0.205,0,0.373-0.05,0.484-0.138c0.119-0.101,0.182-0.212,0.182-0.358c0-0.138-0.05-0.25-0.144-0.299
			c-0.087-0.076-0.211-0.101-0.367-0.101c-0.155,0-0.292,0.026-0.422,0.101c-0.125,0.073-0.224,0.174-0.305,0.285l-0.428-0.459
			c0.05-0.087,0.111-0.162,0.199-0.225c0.094-0.062,0.18-0.125,0.287-0.176c0.1-0.05,0.224-0.074,0.342-0.1
			c0.112-0.025,0.256-0.05,0.393-0.05c0.167,0,0.335,0.024,0.473,0.075c0.142,0.05,0.267,0.1,0.366,0.186
			c0.104,0.076,0.192,0.174,0.241,0.286c0.057,0.101,0.081,0.235,0.081,0.36c0,0.112-0.013,0.213-0.043,0.285
			c-0.026,0.075-0.076,0.176-0.137,0.25c-0.05,0.074-0.124,0.147-0.205,0.197C7.994,25.182,7.919,25.207,7.813,25.23z"/>
		<path fill="#010101" d="M8.908,26.438c0-0.16,0.013-0.285,0.044-0.41c0.025-0.123,0.062-0.248,0.125-0.346
			c0.05-0.101,0.143-0.199,0.241-0.287c0.1-0.088,0.243-0.188,0.393-0.262c0.143-0.076,0.267-0.16,0.373-0.211
			c0.099-0.062,0.205-0.111,0.267-0.162c0.074-0.05,0.124-0.1,0.161-0.148c0.043-0.051,0.057-0.101,0.057-0.174
			c0-0.101-0.044-0.187-0.12-0.273c-0.073-0.074-0.204-0.1-0.354-0.1c-0.076,0-0.156,0-0.23,0.024
			c-0.062,0.025-0.125,0.05-0.192,0.101c-0.05,0.025-0.111,0.074-0.161,0.125C9.456,24.352,9.419,24.4,9.369,24.45l-0.435-0.497
			c0.043-0.051,0.106-0.1,0.193-0.16c0.081-0.051,0.18-0.102,0.292-0.15c0.106-0.05,0.229-0.1,0.373-0.123
			c0.125-0.05,0.267-0.05,0.429-0.05c0.181,0,0.336,0.025,0.46,0.05c0.143,0.049,0.256,0.1,0.343,0.187
			c0.093,0.088,0.167,0.175,0.217,0.287c0.05,0.1,0.076,0.225,0.076,0.336c0,0.112-0.026,0.237-0.062,0.312
			c-0.038,0.074-0.1,0.174-0.161,0.248c-0.069,0.062-0.143,0.125-0.218,0.199c-0.08,0.051-0.167,0.1-0.241,0.126
			c-0.05,0.05-0.132,0.086-0.205,0.123c-0.075,0.05-0.149,0.101-0.23,0.147c-0.076,0.051-0.15,0.127-0.217,0.177
			c-0.062,0.051-0.111,0.099-0.149,0.147h1.542v0.635H8.908V26.438z"/>
	</g>
	<g>
		<path fill="#010101" d="M2.685,30.689v0.623H0.608v-0.623h0.727v-1.543c-0.026,0.051-0.076,0.088-0.156,0.138
			c-0.062,0.05-0.137,0.075-0.217,0.125c-0.075,0.024-0.162,0.05-0.238,0.075c-0.093,0.037-0.167,0.05-0.23,0.05v-0.646
			c0.063,0,0.137-0.025,0.23-0.051c0.087-0.05,0.176-0.1,0.267-0.148c0.087-0.051,0.15-0.111,0.224-0.162
			c0.069-0.049,0.106-0.088,0.119-0.137h0.703v2.299H2.685L2.685,30.689z"/>
		<path fill="#010101" d="M5.664,30.243c0,0.187-0.038,0.312-0.1,0.459c-0.063,0.149-0.169,0.25-0.28,0.348
			c-0.117,0.089-0.267,0.175-0.423,0.224c-0.149,0.062-0.316,0.088-0.51,0.088c-0.187,0-0.354-0.037-0.508-0.088
			c-0.163-0.062-0.293-0.135-0.417-0.248c-0.119-0.1-0.218-0.224-0.28-0.349C3.078,30.555,3.04,30.38,3.04,30.218
			c0-0.1,0.013-0.212,0.05-0.286c0.043-0.074,0.08-0.162,0.142-0.238c0.05-0.073,0.112-0.135,0.181-0.187
			c0.062-0.05,0.125-0.1,0.198-0.149c-0.124-0.051-0.224-0.146-0.316-0.26C3.207,28.96,3.17,28.835,3.17,28.698
			c0-0.161,0.037-0.312,0.111-0.437c0.069-0.123,0.168-0.224,0.28-0.299c0.117-0.1,0.243-0.148,0.384-0.195
			c0.137-0.052,0.28-0.076,0.417-0.076c0.143,0,0.28,0.024,0.423,0.076c0.143,0.049,0.267,0.1,0.392,0.195
			c0.118,0.075,0.217,0.188,0.287,0.299c0.062,0.125,0.112,0.273,0.112,0.424c0,0.074-0.013,0.148-0.037,0.224
			c-0.024,0.073-0.05,0.136-0.106,0.198c-0.05,0.062-0.087,0.112-0.15,0.162c-0.061,0.062-0.117,0.086-0.193,0.11
			c0.076,0.05,0.156,0.101,0.217,0.147c0.062,0.062,0.124,0.125,0.18,0.199c0.05,0.075,0.1,0.176,0.125,0.25
			C5.639,30.081,5.664,30.143,5.664,30.243z M4.966,30.205c0-0.086-0.019-0.162-0.055-0.249c-0.037-0.049-0.087-0.122-0.137-0.147
			c-0.062-0.063-0.13-0.101-0.206-0.127c-0.073-0.023-0.155-0.035-0.229-0.035c-0.087,0-0.161,0.012-0.241,0.035
			c-0.076,0.026-0.137,0.062-0.206,0.127c-0.061,0.049-0.1,0.1-0.124,0.172c-0.037,0.062-0.05,0.139-0.05,0.226
			c0,0.075,0.013,0.147,0.05,0.224c0.037,0.075,0.075,0.125,0.144,0.176c0.05,0.05,0.123,0.086,0.199,0.11
			c0.081,0.024,0.156,0.037,0.23,0.037c0.093,0,0.168-0.013,0.243-0.037c0.074-0.024,0.143-0.062,0.206-0.11
			c0.062-0.051,0.099-0.127,0.137-0.176C4.954,30.354,4.966,30.28,4.966,30.205z M3.83,28.727c0,0.062,0.013,0.135,0.05,0.186
			c0.031,0.05,0.067,0.102,0.118,0.137c0.05,0.037,0.1,0.062,0.162,0.087c0.068,0.013,0.13,0.026,0.18,0.026
			c0.062,0,0.119-0.014,0.182-0.026c0.061-0.024,0.111-0.05,0.161-0.087c0.056-0.035,0.093-0.087,0.118-0.137
			c0.026-0.051,0.038-0.123,0.038-0.198c0-0.125-0.05-0.225-0.15-0.298c-0.106-0.05-0.217-0.1-0.36-0.1
			c-0.136,0-0.267,0.024-0.354,0.1C3.885,28.503,3.83,28.59,3.83,28.727z"/>
		<path fill="#010101" d="M7.473,31.97v-0.771H5.979V30.59l1.71-2.201h0.46v2.201H8.59v0.608H8.15v0.771L7.473,31.97L7.473,31.97z
			 M6.67,30.59h0.876v-1.154L6.67,30.59z"/>
		<path fill="#010101" d="M11.65,30.243c0,0.187-0.037,0.312-0.106,0.459c-0.062,0.149-0.161,0.25-0.279,0.348
			c-0.112,0.089-0.267,0.175-0.417,0.224c-0.156,0.062-0.317,0.088-0.51,0.088s-0.36-0.037-0.51-0.088
			c-0.167-0.062-0.292-0.135-0.423-0.248c-0.111-0.1-0.211-0.224-0.28-0.349c-0.063-0.122-0.1-0.297-0.1-0.459
			c0-0.1,0.012-0.212,0.05-0.286c0.037-0.074,0.076-0.162,0.143-0.238c0.05-0.073,0.111-0.135,0.174-0.187
			c0.069-0.05,0.132-0.1,0.206-0.149c-0.124-0.051-0.23-0.146-0.317-0.26c-0.086-0.138-0.129-0.263-0.129-0.398
			c0-0.161,0.043-0.311,0.117-0.436c0.061-0.125,0.161-0.225,0.28-0.3c0.111-0.1,0.241-0.149,0.379-0.196
			c0.142-0.051,0.28-0.076,0.423-0.076c0.137,0,0.279,0.025,0.423,0.076c0.137,0.051,0.267,0.101,0.392,0.196
			c0.113,0.075,0.217,0.188,0.28,0.3c0.062,0.125,0.118,0.272,0.118,0.422c0,0.075-0.02,0.149-0.043,0.225
			c-0.024,0.072-0.05,0.136-0.1,0.199c-0.05,0.062-0.087,0.111-0.156,0.16c-0.062,0.062-0.112,0.088-0.187,0.111
			c0.075,0.051,0.15,0.1,0.217,0.148c0.062,0.062,0.124,0.125,0.174,0.199c0.05,0.074,0.106,0.174,0.131,0.248
			C11.625,30.081,11.65,30.143,11.65,30.243z M10.948,30.205c0-0.086-0.012-0.162-0.05-0.249c-0.037-0.049-0.086-0.122-0.143-0.147
			c-0.062-0.063-0.125-0.101-0.199-0.127c-0.081-0.023-0.155-0.035-0.229-0.035c-0.094,0-0.168,0.012-0.243,0.035
			c-0.074,0.026-0.144,0.062-0.205,0.127c-0.062,0.049-0.1,0.1-0.125,0.172c-0.043,0.062-0.056,0.139-0.056,0.226
			c0,0.075,0.013,0.147,0.056,0.224c0.038,0.075,0.076,0.125,0.137,0.176c0.05,0.05,0.13,0.086,0.205,0.11
			c0.074,0.024,0.15,0.037,0.23,0.037c0.087,0,0.161-0.013,0.243-0.037c0.075-0.024,0.136-0.062,0.198-0.11
			c0.069-0.051,0.106-0.127,0.143-0.176C10.936,30.354,10.948,30.28,10.948,30.205z M9.816,28.727c0,0.062,0.013,0.135,0.049,0.186
			c0.026,0.05,0.063,0.102,0.112,0.137c0.055,0.037,0.106,0.062,0.167,0.087c0.062,0.013,0.131,0.026,0.18,0.026
			c0.061,0,0.111-0.014,0.173-0.026c0.069-0.024,0.119-0.05,0.167-0.087c0.05-0.035,0.087-0.087,0.118-0.137
			c0.025-0.051,0.037-0.123,0.037-0.198c0-0.125-0.056-0.225-0.156-0.298c-0.099-0.05-0.217-0.1-0.354-0.1
			c-0.143,0-0.267,0.024-0.36,0.1C9.865,28.503,9.816,28.59,9.816,28.727z"/>
		<path fill="#010101" d="M12.172,30.218v-0.61h1.542v0.61H12.172z"/>
		<path fill="#010101" d="M15.468,31.97v-0.771h-1.486V30.59l1.703-2.201h0.46v2.201h0.442v0.608h-0.442v0.771L15.468,31.97
			L15.468,31.97z M14.667,30.59h0.876v-1.154L14.667,30.59z"/>
		<path fill="#010101" d="M16.947,29.657c0-0.173,0.038-0.323,0.1-0.483c0.061-0.162,0.155-0.285,0.267-0.41
			c0.119-0.113,0.254-0.199,0.423-0.261c0.161-0.063,0.33-0.112,0.521-0.112c0.199,0,0.392,0.049,0.548,0.125
			c0.161,0.074,0.305,0.188,0.417,0.322c0.117,0.148,0.205,0.312,0.267,0.521c0.069,0.211,0.093,0.449,0.093,0.709
			c0,0.312-0.025,0.623-0.106,0.858c-0.075,0.249-0.161,0.474-0.28,0.646c-0.112,0.174-0.267,0.286-0.442,0.372
			c-0.18,0.101-0.373,0.149-0.578,0.149c-0.23,0-0.441-0.05-0.635-0.149c-0.191-0.111-0.354-0.246-0.484-0.422l0.397-0.424
			c0.076,0.125,0.188,0.226,0.306,0.299c0.125,0.074,0.267,0.099,0.417,0.099c0.229,0,0.41-0.099,0.546-0.261
			c0.132-0.187,0.206-0.437,0.217-0.782c-0.062,0.137-0.161,0.237-0.305,0.297c-0.124,0.063-0.28,0.101-0.46,0.101
			c-0.174,0-0.342-0.024-0.503-0.086c-0.156-0.062-0.286-0.148-0.398-0.262c-0.111-0.1-0.205-0.247-0.267-0.373
			C16.986,29.98,16.947,29.834,16.947,29.657z M18.271,28.961c-0.093,0-0.18,0.036-0.254,0.074
			c-0.081,0.037-0.156,0.087-0.218,0.148c-0.062,0.062-0.119,0.148-0.143,0.226c-0.037,0.075-0.05,0.175-0.05,0.262
			c0,0.099,0.013,0.187,0.05,0.263c0.026,0.072,0.081,0.159,0.143,0.223c0.05,0.062,0.124,0.111,0.218,0.138
			c0.075,0.037,0.161,0.062,0.254,0.062c0.086,0,0.175-0.025,0.267-0.062c0.074-0.024,0.149-0.075,0.217-0.138
			c0.063-0.062,0.1-0.149,0.137-0.223c0.038-0.076,0.05-0.164,0.05-0.263c0-0.087-0.012-0.187-0.05-0.262
			c-0.037-0.076-0.074-0.162-0.137-0.226c-0.068-0.062-0.131-0.111-0.217-0.148C18.446,28.997,18.359,28.961,18.271,28.961z"/>
	</g>
	<g>
		<path fill="#010101" d="M2.685,35.564v0.635H0.608v-0.635h0.727v-1.543c-0.026,0.062-0.076,0.086-0.156,0.137
			c-0.062,0.051-0.137,0.076-0.217,0.125C0.887,34.32,0.8,34.345,0.724,34.371c-0.093,0.023-0.167,0.036-0.23,0.036v-0.634
			c0.063,0,0.137-0.037,0.23-0.062c0.087-0.05,0.176-0.101,0.267-0.149c0.087-0.049,0.15-0.109,0.224-0.16
			c0.069-0.049,0.106-0.086,0.119-0.125h0.703v2.287H2.685L2.685,35.564z"/>
		<path fill="#010101" d="M5.664,35.13c0,0.175-0.038,0.31-0.1,0.447c-0.063,0.149-0.169,0.249-0.28,0.349
			C5.167,36.014,5.017,36.1,4.861,36.15c-0.149,0.074-0.316,0.1-0.51,0.1c-0.187,0-0.354-0.05-0.508-0.1
			c-0.163-0.062-0.293-0.137-0.417-0.236c-0.119-0.112-0.218-0.237-0.28-0.359c-0.068-0.127-0.106-0.3-0.106-0.462
			c0-0.097,0.013-0.196,0.05-0.284c0.043-0.076,0.08-0.15,0.142-0.236c0.05-0.076,0.112-0.137,0.181-0.188
			c0.062-0.05,0.125-0.1,0.198-0.147c-0.124-0.051-0.224-0.149-0.316-0.262C3.207,33.85,3.17,33.712,3.17,33.588
			c0-0.173,0.037-0.312,0.111-0.447c0.069-0.125,0.168-0.225,0.28-0.299c0.117-0.087,0.243-0.148,0.384-0.199
			c0.137-0.05,0.28-0.074,0.417-0.074c0.143,0,0.28,0.024,0.423,0.074c0.143,0.051,0.267,0.112,0.392,0.199
			c0.118,0.074,0.217,0.198,0.287,0.299c0.062,0.125,0.112,0.274,0.112,0.424c0,0.074-0.013,0.148-0.037,0.224
			s-0.05,0.137-0.106,0.198c-0.05,0.062-0.087,0.125-0.15,0.176c-0.061,0.05-0.117,0.074-0.193,0.1
			c0.076,0.051,0.156,0.1,0.217,0.16c0.062,0.051,0.124,0.112,0.18,0.188c0.05,0.074,0.1,0.175,0.125,0.263
			C5.639,34.957,5.664,35.02,5.664,35.13z M4.966,35.079c0-0.084-0.019-0.16-0.055-0.236c-0.037-0.062-0.087-0.137-0.137-0.161
			c-0.062-0.052-0.13-0.099-0.206-0.125c-0.073-0.025-0.155-0.035-0.229-0.035c-0.087,0-0.161,0.013-0.241,0.035
			c-0.076,0.026-0.137,0.073-0.206,0.125c-0.061,0.049-0.1,0.1-0.124,0.174c-0.037,0.063-0.05,0.138-0.05,0.225
			c0,0.075,0.013,0.15,0.05,0.225c0.037,0.075,0.075,0.125,0.144,0.176c0.05,0.049,0.123,0.086,0.199,0.111
			c0.081,0.036,0.156,0.036,0.23,0.036c0.093,0,0.168-0.012,0.243-0.036c0.075-0.023,0.143-0.062,0.206-0.111
			c0.062-0.051,0.099-0.113,0.137-0.176C4.954,35.229,4.966,35.154,4.966,35.079z M3.83,33.611c0,0.051,0.013,0.125,0.05,0.176
			c0.031,0.062,0.067,0.1,0.118,0.136c0.05,0.037,0.1,0.062,0.162,0.087c0.068,0.014,0.13,0.026,0.18,0.026
			c0.062,0,0.119-0.015,0.182-0.026c0.061-0.025,0.111-0.05,0.161-0.087c0.056-0.036,0.093-0.086,0.118-0.136
			c0.026-0.051,0.038-0.126,0.038-0.2c0-0.125-0.05-0.226-0.15-0.287c-0.106-0.06-0.217-0.108-0.36-0.108
			c-0.136,0-0.267,0.023-0.354,0.108C3.885,33.376,3.83,33.462,3.83,33.611z"/>
		<path fill="#010101" d="M7.36,34.559c0.161,0,0.317,0.049,0.467,0.101c0.143,0.05,0.267,0.124,0.373,0.235
			c0.1,0.102,0.187,0.236,0.255,0.359c0.062,0.148,0.087,0.299,0.087,0.475c0,0.186-0.025,0.346-0.1,0.496
			c-0.069,0.149-0.156,0.272-0.267,0.385c-0.117,0.113-0.267,0.188-0.423,0.263c-0.15,0.05-0.343,0.075-0.536,0.075
			c-0.267,0-0.508-0.051-0.715-0.149c-0.198-0.124-0.367-0.272-0.466-0.472l0.392-0.398c0.087,0.137,0.217,0.236,0.354,0.299
			c0.143,0.099,0.298,0.125,0.447,0.125c0.193,0,0.33-0.051,0.46-0.176c0.111-0.1,0.18-0.248,0.18-0.422
			c0-0.188-0.056-0.324-0.167-0.424c-0.119-0.125-0.255-0.175-0.423-0.175c-0.112,0-0.21,0.026-0.304,0.075
			c-0.1,0.05-0.18,0.125-0.243,0.211H6.147c0,0,0-0.062,0.013-0.111c0.013-0.075,0.025-0.148,0.05-0.262
			c0.013-0.11,0.037-0.236,0.069-0.336c0.012-0.135,0.05-0.273,0.075-0.398c0.062-0.311,0.124-0.671,0.204-1.044h1.779v0.622H7.05
			L6.9,34.708c0.037-0.024,0.1-0.075,0.18-0.101C7.143,34.583,7.243,34.559,7.36,34.559z"/>
		<path fill="#010101" d="M10.644,34.98c0.217,0.037,0.378,0.148,0.509,0.299c0.125,0.173,0.205,0.371,0.205,0.607
			c0,0.161-0.025,0.312-0.093,0.437c-0.062,0.126-0.15,0.237-0.267,0.312c-0.112,0.11-0.256,0.16-0.417,0.21
			c-0.168,0.052-0.348,0.076-0.548,0.076c-0.267,0-0.484-0.024-0.69-0.126c-0.205-0.072-0.367-0.197-0.497-0.346l0.385-0.486
			c0.087,0.112,0.187,0.198,0.318,0.262c0.124,0.075,0.267,0.1,0.454,0.1c0.205,0,0.36-0.049,0.472-0.124
			c0.106-0.087,0.169-0.211,0.169-0.373c0-0.175-0.063-0.312-0.193-0.411c-0.124-0.086-0.316-0.136-0.571-0.136H9.743v-0.521h0.162
			c0.205,0,0.373-0.05,0.484-0.125c0.112-0.108,0.182-0.222,0.182-0.372c0-0.125-0.056-0.248-0.143-0.298
			c-0.087-0.075-0.218-0.1-0.367-0.1c-0.155,0-0.293,0.022-0.423,0.1c-0.124,0.073-0.23,0.173-0.306,0.298l-0.434-0.474
			c0.05-0.075,0.118-0.147,0.206-0.224c0.086-0.062,0.18-0.125,0.279-0.162c0.106-0.049,0.23-0.086,0.342-0.111
			c0.12-0.025,0.256-0.037,0.399-0.037c0.169,0,0.33,0.023,0.473,0.062c0.136,0.05,0.267,0.111,0.367,0.199
			c0.106,0.072,0.191,0.174,0.241,0.271c0.05,0.1,0.076,0.249,0.076,0.374c0,0.1-0.013,0.196-0.038,0.272
			c-0.024,0.074-0.075,0.174-0.136,0.248c-0.055,0.075-0.131,0.148-0.205,0.198C10.83,34.932,10.731,34.969,10.644,34.98z"/>
		<path fill="#010101" d="M11.836,35.092v-0.607h1.542v0.607H11.836z"/>
		<path fill="#010101" d="M15.163,34.559c0.168,0,0.317,0.049,0.473,0.101c0.135,0.05,0.267,0.124,0.367,0.235
			c0.105,0.102,0.191,0.236,0.254,0.359c0.062,0.148,0.087,0.299,0.087,0.475c0,0.186-0.025,0.346-0.1,0.496
			c-0.062,0.149-0.15,0.272-0.267,0.385c-0.112,0.113-0.267,0.188-0.417,0.263c-0.155,0.05-0.348,0.075-0.54,0.075
			c-0.267,0-0.504-0.051-0.709-0.149c-0.206-0.124-0.373-0.272-0.473-0.472l0.391-0.398c0.094,0.137,0.218,0.236,0.361,0.299
			c0.137,0.099,0.292,0.125,0.447,0.125c0.187,0,0.33-0.051,0.454-0.176c0.119-0.1,0.18-0.248,0.18-0.422
			c0-0.188-0.049-0.324-0.167-0.424c-0.112-0.125-0.254-0.175-0.417-0.175c-0.118,0-0.218,0.026-0.304,0.075
			c-0.106,0.05-0.181,0.125-0.242,0.211h-0.59c0,0,0-0.062,0.018-0.111c0.013-0.075,0.026-0.148,0.049-0.262
			c0.013-0.11,0.038-0.236,0.063-0.336c0.013-0.135,0.05-0.273,0.076-0.398c0.062-0.311,0.13-0.671,0.204-1.044h1.784v0.622h-1.287
			l-0.156,0.797c0.037-0.025,0.106-0.075,0.182-0.102C14.934,34.583,15.039,34.559,15.163,34.559z"/>
		<path fill="#010101" d="M18.092,36.818v-0.756H16.6v-0.61l1.71-2.188h0.46v2.188h0.441v0.61H18.77v0.758h-0.678V36.818z
			 M17.29,35.465h0.876v-1.156L17.29,35.465z"/>
	</g>
</g>
</svg>
