<?xml version="1.0" encoding="utf-8" standalone="no"?>
<!DOCTYPE svg PUBLIC "-//W3C//DTD SVG 1.1//EN"
  "http://www.w3.org/Graphics/SVG/1.1/DTD/svg11.dtd">
<!-- Created with matplotlib (http://matplotlib.org/) -->
<svg height="288pt" version="1.1" viewBox="0 0 720 288" width="720pt" xmlns="http://www.w3.org/2000/svg" xmlns:xlink="http://www.w3.org/1999/xlink">
 <defs>
  <style type="text/css">
*{stroke-linecap:butt;stroke-linejoin:round;}
  </style>
 </defs>
 <g id="figure_1">
  <g id="patch_1">
   <path d="M 0 288 
L 720 288 
L 720 0 
L 0 0 
z
" style="fill:none;"/>
  </g>
  <g id="axes_1">
   <g id="patch_2">
    <path d="M 58.05 242.2 
L 354.2875 242.2 
L 354.2875 28.8 
L 58.05 28.8 
z
" style="fill:none;"/>
   </g>
   <g id="matplotlib.axis_1">
    <g id="xtick_1">
     <g id="line2d_1">
      <defs>
       <path d="M 0 0 
L 0 3.5 
" id="m65b4d92b21" style="stroke:#000000;stroke-width:0.8;"/>
      </defs>
      <g>
       <use style="stroke:#000000;stroke-width:0.8;" x="98.446023" xlink:href="#m65b4d92b21" y="242.2"/>
      </g>
     </g>
     <g id="text_1">
      <!-- −4 -->
      <defs>
       <path d="M 10.59375 35.5 
L 73.1875 35.5 
L 73.1875 27.203125 
L 10.59375 27.203125 
z
" id="DejaVuSans-2212"/>
       <path d="M 37.796875 64.3125 
L 12.890625 25.390625 
L 37.796875 25.390625 
z
M 35.203125 72.90625 
L 47.609375 72.90625 
L 47.609375 25.390625 
L 58.015625 25.390625 
L 58.015625 17.1875 
L 47.609375 17.1875 
L 47.609375 0 
L 37.796875 0 
L 37.796875 17.1875 
L 4.890625 17.1875 
L 4.890625 26.703125 
z
" id="DejaVuSans-34"/>
      </defs>
      <g transform="translate(91.074929 256.798437)scale(0.1 -0.1)">
       <use xlink:href="#DejaVuSans-2212"/>
       <use x="83.789062" xlink:href="#DejaVuSans-34"/>
      </g>
     </g>
    </g>
    <g id="xtick_2">
     <g id="line2d_2">
      <g>
       <use style="stroke:#000000;stroke-width:0.8;" x="152.307386" xlink:href="#m65b4d92b21" y="242.2"/>
      </g>
     </g>
     <g id="text_2">
      <!-- −2 -->
      <defs>
       <path d="M 19.1875 8.296875 
L 53.609375 8.296875 
L 53.609375 0 
L 7.328125 0 
L 7.328125 8.296875 
Q 12.9375 14.109375 22.625 23.890625 
Q 32.328125 33.6875 34.8125 36.53125 
Q 39.546875 41.84375 41.421875 45.53125 
Q 43.3125 49.21875 43.3125 52.78125 
Q 43.3125 58.59375 39.234375 62.25 
Q 35.15625 65.921875 28.609375 65.921875 
Q 23.96875 65.921875 18.8125 64.3125 
Q 13.671875 62.703125 7.8125 59.421875 
L 7.8125 69.390625 
Q 13.765625 71.78125 18.9375 73 
Q 24.125 74.21875 28.421875 74.21875 
Q 39.75 74.21875 46.484375 68.546875 
Q 53.21875 62.890625 53.21875 53.421875 
Q 53.21875 48.921875 51.53125 44.890625 
Q 49.859375 40.875 45.40625 35.40625 
Q 44.1875 33.984375 37.640625 27.21875 
Q 31.109375 20.453125 19.1875 8.296875 
z
" id="DejaVuSans-32"/>
      </defs>
      <g transform="translate(144.936293 256.798437)scale(0.1 -0.1)">
       <use xlink:href="#DejaVuSans-2212"/>
       <use x="83.789062" xlink:href="#DejaVuSans-32"/>
      </g>
     </g>
    </g>
    <g id="xtick_3">
     <g id="line2d_3">
      <g>
       <use style="stroke:#000000;stroke-width:0.8;" x="206.16875" xlink:href="#m65b4d92b21" y="242.2"/>
      </g>
     </g>
     <g id="text_3">
      <!-- 0 -->
      <defs>
       <path d="M 31.78125 66.40625 
Q 24.171875 66.40625 20.328125 58.90625 
Q 16.5 51.421875 16.5 36.375 
Q 16.5 21.390625 20.328125 13.890625 
Q 24.171875 6.390625 31.78125 6.390625 
Q 39.453125 6.390625 43.28125 13.890625 
Q 47.125 21.390625 47.125 36.375 
Q 47.125 51.421875 43.28125 58.90625 
Q 39.453125 66.40625 31.78125 66.40625 
z
M 31.78125 74.21875 
Q 44.046875 74.21875 50.515625 64.515625 
Q 56.984375 54.828125 56.984375 36.375 
Q 56.984375 17.96875 50.515625 8.265625 
Q 44.046875 -1.421875 31.78125 -1.421875 
Q 19.53125 -1.421875 13.0625 8.265625 
Q 6.59375 17.96875 6.59375 36.375 
Q 6.59375 54.828125 13.0625 64.515625 
Q 19.53125 74.21875 31.78125 74.21875 
z
" id="DejaVuSans-30"/>
      </defs>
      <g transform="translate(202.9875 256.798437)scale(0.1 -0.1)">
       <use xlink:href="#DejaVuSans-30"/>
      </g>
     </g>
    </g>
    <g id="xtick_4">
     <g id="line2d_4">
      <g>
       <use style="stroke:#000000;stroke-width:0.8;" x="260.030114" xlink:href="#m65b4d92b21" y="242.2"/>
      </g>
     </g>
     <g id="text_4">
      <!-- 2 -->
      <g transform="translate(256.848864 256.798437)scale(0.1 -0.1)">
       <use xlink:href="#DejaVuSans-32"/>
      </g>
     </g>
    </g>
    <g id="xtick_5">
     <g id="line2d_5">
      <g>
       <use style="stroke:#000000;stroke-width:0.8;" x="313.891477" xlink:href="#m65b4d92b21" y="242.2"/>
      </g>
     </g>
     <g id="text_5">
      <!-- 4 -->
      <g transform="translate(310.710227 256.798437)scale(0.1 -0.1)">
       <use xlink:href="#DejaVuSans-34"/>
      </g>
     </g>
    </g>
    <g id="text_6">
     <!-- Statistic of interest -->
     <defs>
      <path d="M 53.515625 70.515625 
L 53.515625 60.890625 
Q 47.90625 63.578125 42.921875 64.890625 
Q 37.9375 66.21875 33.296875 66.21875 
Q 25.25 66.21875 20.875 63.09375 
Q 16.5 59.96875 16.5 54.203125 
Q 16.5 49.359375 19.40625 46.890625 
Q 22.3125 44.4375 30.421875 42.921875 
L 36.375 41.703125 
Q 47.40625 39.59375 52.65625 34.296875 
Q 57.90625 29 57.90625 20.125 
Q 57.90625 9.515625 50.796875 4.046875 
Q 43.703125 -1.421875 29.984375 -1.421875 
Q 24.8125 -1.421875 18.96875 -0.25 
Q 13.140625 0.921875 6.890625 3.21875 
L 6.890625 13.375 
Q 12.890625 10.015625 18.65625 8.296875 
Q 24.421875 6.59375 29.984375 6.59375 
Q 38.421875 6.59375 43.015625 9.90625 
Q 47.609375 13.234375 47.609375 19.390625 
Q 47.609375 24.75 44.3125 27.78125 
Q 41.015625 30.8125 33.5 32.328125 
L 27.484375 33.5 
Q 16.453125 35.6875 11.515625 40.375 
Q 6.59375 45.0625 6.59375 53.421875 
Q 6.59375 63.09375 13.40625 68.65625 
Q 20.21875 74.21875 32.171875 74.21875 
Q 37.3125 74.21875 42.625 73.28125 
Q 47.953125 72.359375 53.515625 70.515625 
z
" id="DejaVuSans-53"/>
      <path d="M 18.3125 70.21875 
L 18.3125 54.6875 
L 36.8125 54.6875 
L 36.8125 47.703125 
L 18.3125 47.703125 
L 18.3125 18.015625 
Q 18.3125 11.328125 20.140625 9.421875 
Q 21.96875 7.515625 27.59375 7.515625 
L 36.8125 7.515625 
L 36.8125 0 
L 27.59375 0 
Q 17.1875 0 13.234375 3.875 
Q 9.28125 7.765625 9.28125 18.015625 
L 9.28125 47.703125 
L 2.6875 47.703125 
L 2.6875 54.6875 
L 9.28125 54.6875 
L 9.28125 70.21875 
z
" id="DejaVuSans-74"/>
      <path d="M 34.28125 27.484375 
Q 23.390625 27.484375 19.1875 25 
Q 14.984375 22.515625 14.984375 16.5 
Q 14.984375 11.71875 18.140625 8.90625 
Q 21.296875 6.109375 26.703125 6.109375 
Q 34.1875 6.109375 38.703125 11.40625 
Q 43.21875 16.703125 43.21875 25.484375 
L 43.21875 27.484375 
z
M 52.203125 31.203125 
L 52.203125 0 
L 43.21875 0 
L 43.21875 8.296875 
Q 40.140625 3.328125 35.546875 0.953125 
Q 30.953125 -1.421875 24.3125 -1.421875 
Q 15.921875 -1.421875 10.953125 3.296875 
Q 6 8.015625 6 15.921875 
Q 6 25.140625 12.171875 29.828125 
Q 18.359375 34.515625 30.609375 34.515625 
L 43.21875 34.515625 
L 43.21875 35.40625 
Q 43.21875 41.609375 39.140625 45 
Q 35.0625 48.390625 27.6875 48.390625 
Q 23 48.390625 18.546875 47.265625 
Q 14.109375 46.140625 10.015625 43.890625 
L 10.015625 52.203125 
Q 14.9375 54.109375 19.578125 55.046875 
Q 24.21875 56 28.609375 56 
Q 40.484375 56 46.34375 49.84375 
Q 52.203125 43.703125 52.203125 31.203125 
z
" id="DejaVuSans-61"/>
      <path d="M 9.421875 54.6875 
L 18.40625 54.6875 
L 18.40625 0 
L 9.421875 0 
z
M 9.421875 75.984375 
L 18.40625 75.984375 
L 18.40625 64.59375 
L 9.421875 64.59375 
z
" id="DejaVuSans-69"/>
      <path d="M 44.28125 53.078125 
L 44.28125 44.578125 
Q 40.484375 46.53125 36.375 47.5 
Q 32.28125 48.484375 27.875 48.484375 
Q 21.1875 48.484375 17.84375 46.4375 
Q 14.5 44.390625 14.5 40.28125 
Q 14.5 37.15625 16.890625 35.375 
Q 19.28125 33.59375 26.515625 31.984375 
L 29.59375 31.296875 
Q 39.15625 29.25 43.1875 25.515625 
Q 47.21875 21.78125 47.21875 15.09375 
Q 47.21875 7.46875 41.1875 3.015625 
Q 35.15625 -1.421875 24.609375 -1.421875 
Q 20.21875 -1.421875 15.453125 -0.5625 
Q 10.6875 0.296875 5.421875 2 
L 5.421875 11.28125 
Q 10.40625 8.6875 15.234375 7.390625 
Q 20.0625 6.109375 24.8125 6.109375 
Q 31.15625 6.109375 34.5625 8.28125 
Q 37.984375 10.453125 37.984375 14.40625 
Q 37.984375 18.0625 35.515625 20.015625 
Q 33.0625 21.96875 24.703125 23.78125 
L 21.578125 24.515625 
Q 13.234375 26.265625 9.515625 29.90625 
Q 5.8125 33.546875 5.8125 39.890625 
Q 5.8125 47.609375 11.28125 51.796875 
Q 16.75 56 26.8125 56 
Q 31.78125 56 36.171875 55.265625 
Q 40.578125 54.546875 44.28125 53.078125 
z
" id="DejaVuSans-73"/>
      <path d="M 48.78125 52.59375 
L 48.78125 44.1875 
Q 44.96875 46.296875 41.140625 47.34375 
Q 37.3125 48.390625 33.40625 48.390625 
Q 24.65625 48.390625 19.8125 42.84375 
Q 14.984375 37.3125 14.984375 27.296875 
Q 14.984375 17.28125 19.8125 11.734375 
Q 24.65625 6.203125 33.40625 6.203125 
Q 37.3125 6.203125 41.140625 7.25 
Q 44.96875 8.296875 48.78125 10.40625 
L 48.78125 2.09375 
Q 45.015625 0.34375 40.984375 -0.53125 
Q 36.96875 -1.421875 32.421875 -1.421875 
Q 20.0625 -1.421875 12.78125 6.34375 
Q 5.515625 14.109375 5.515625 27.296875 
Q 5.515625 40.671875 12.859375 48.328125 
Q 20.21875 56 33.015625 56 
Q 37.15625 56 41.109375 55.140625 
Q 45.0625 54.296875 48.78125 52.59375 
z
" id="DejaVuSans-63"/>
      <path id="DejaVuSans-20"/>
      <path d="M 30.609375 48.390625 
Q 23.390625 48.390625 19.1875 42.75 
Q 14.984375 37.109375 14.984375 27.296875 
Q 14.984375 17.484375 19.15625 11.84375 
Q 23.34375 6.203125 30.609375 6.203125 
Q 37.796875 6.203125 41.984375 11.859375 
Q 46.1875 17.53125 46.1875 27.296875 
Q 46.1875 37.015625 41.984375 42.703125 
Q 37.796875 48.390625 30.609375 48.390625 
z
M 30.609375 56 
Q 42.328125 56 49.015625 48.375 
Q 55.71875 40.765625 55.71875 27.296875 
Q 55.71875 13.875 49.015625 6.21875 
Q 42.328125 -1.421875 30.609375 -1.421875 
Q 18.84375 -1.421875 12.171875 6.21875 
Q 5.515625 13.875 5.515625 27.296875 
Q 5.515625 40.765625 12.171875 48.375 
Q 18.84375 56 30.609375 56 
z
" id="DejaVuSans-6f"/>
      <path d="M 37.109375 75.984375 
L 37.109375 68.5 
L 28.515625 68.5 
Q 23.6875 68.5 21.796875 66.546875 
Q 19.921875 64.59375 19.921875 59.515625 
L 19.921875 54.6875 
L 34.71875 54.6875 
L 34.71875 47.703125 
L 19.921875 47.703125 
L 19.921875 0 
L 10.890625 0 
L 10.890625 47.703125 
L 2.296875 47.703125 
L 2.296875 54.6875 
L 10.890625 54.6875 
L 10.890625 58.5 
Q 10.890625 67.625 15.140625 71.796875 
Q 19.390625 75.984375 28.609375 75.984375 
z
" id="DejaVuSans-66"/>
      <path d="M 54.890625 33.015625 
L 54.890625 0 
L 45.90625 0 
L 45.90625 32.71875 
Q 45.90625 40.484375 42.875 44.328125 
Q 39.84375 48.1875 33.796875 48.1875 
Q 26.515625 48.1875 22.3125 43.546875 
Q 18.109375 38.921875 18.109375 30.90625 
L 18.109375 0 
L 9.078125 0 
L 9.078125 54.6875 
L 18.109375 54.6875 
L 18.109375 46.1875 
Q 21.34375 51.125 25.703125 53.5625 
Q 30.078125 56 35.796875 56 
Q 45.21875 56 50.046875 50.171875 
Q 54.890625 44.34375 54.890625 33.015625 
z
" id="DejaVuSans-6e"/>
      <path d="M 56.203125 29.59375 
L 56.203125 25.203125 
L 14.890625 25.203125 
Q 15.484375 15.921875 20.484375 11.0625 
Q 25.484375 6.203125 34.421875 6.203125 
Q 39.59375 6.203125 44.453125 7.46875 
Q 49.3125 8.734375 54.109375 11.28125 
L 54.109375 2.78125 
Q 49.265625 0.734375 44.1875 -0.34375 
Q 39.109375 -1.421875 33.890625 -1.421875 
Q 20.796875 -1.421875 13.15625 6.1875 
Q 5.515625 13.8125 5.515625 26.8125 
Q 5.515625 40.234375 12.765625 48.109375 
Q 20.015625 56 32.328125 56 
Q 43.359375 56 49.78125 48.890625 
Q 56.203125 41.796875 56.203125 29.59375 
z
M 47.21875 32.234375 
Q 47.125 39.59375 43.09375 43.984375 
Q 39.0625 48.390625 32.421875 48.390625 
Q 24.90625 48.390625 20.390625 44.140625 
Q 15.875 39.890625 15.1875 32.171875 
z
" id="DejaVuSans-65"/>
      <path d="M 41.109375 46.296875 
Q 39.59375 47.171875 37.8125 47.578125 
Q 36.03125 48 33.890625 48 
Q 26.265625 48 22.1875 43.046875 
Q 18.109375 38.09375 18.109375 28.8125 
L 18.109375 0 
L 9.078125 0 
L 9.078125 54.6875 
L 18.109375 54.6875 
L 18.109375 46.1875 
Q 20.953125 51.171875 25.484375 53.578125 
Q 30.03125 56 36.53125 56 
Q 37.453125 56 38.578125 55.875 
Q 39.703125 55.765625 41.0625 55.515625 
z
" id="DejaVuSans-72"/>
     </defs>
     <g transform="translate(139.615156 273.515938)scale(0.14 -0.14)">
      <use xlink:href="#DejaVuSans-53"/>
      <use x="63.476562" xlink:href="#DejaVuSans-74"/>
      <use x="102.685547" xlink:href="#DejaVuSans-61"/>
      <use x="163.964844" xlink:href="#DejaVuSans-74"/>
      <use x="203.173828" xlink:href="#DejaVuSans-69"/>
      <use x="230.957031" xlink:href="#DejaVuSans-73"/>
      <use x="283.056641" xlink:href="#DejaVuSans-74"/>
      <use x="322.265625" xlink:href="#DejaVuSans-69"/>
      <use x="350.048828" xlink:href="#DejaVuSans-63"/>
      <use x="405.029297" xlink:href="#DejaVuSans-20"/>
      <use x="436.816406" xlink:href="#DejaVuSans-6f"/>
      <use x="497.998047" xlink:href="#DejaVuSans-66"/>
      <use x="533.203125" xlink:href="#DejaVuSans-20"/>
      <use x="564.990234" xlink:href="#DejaVuSans-69"/>
      <use x="592.773438" xlink:href="#DejaVuSans-6e"/>
      <use x="656.152344" xlink:href="#DejaVuSans-74"/>
      <use x="695.361328" xlink:href="#DejaVuSans-65"/>
      <use x="756.884766" xlink:href="#DejaVuSans-72"/>
      <use x="797.966797" xlink:href="#DejaVuSans-65"/>
      <use x="859.490234" xlink:href="#DejaVuSans-73"/>
      <use x="911.589844" xlink:href="#DejaVuSans-74"/>
     </g>
    </g>
   </g>
   <g id="matplotlib.axis_2">
    <g id="ytick_1">
     <g id="line2d_6">
      <defs>
       <path d="M 0 0 
L -3.5 0 
" id="m3e4a325ec9" style="stroke:#000000;stroke-width:0.8;"/>
      </defs>
      <g>
       <use style="stroke:#000000;stroke-width:0.8;" x="58.05" xlink:href="#m3e4a325ec9" y="232.506281"/>
      </g>
     </g>
     <g id="text_7">
      <!-- 0.00 -->
      <defs>
       <path d="M 10.6875 12.40625 
L 21 12.40625 
L 21 0 
L 10.6875 0 
z
" id="DejaVuSans-2e"/>
      </defs>
      <g transform="translate(28.784375 236.3055)scale(0.1 -0.1)">
       <use xlink:href="#DejaVuSans-30"/>
       <use x="63.623047" xlink:href="#DejaVuSans-2e"/>
       <use x="95.410156" xlink:href="#DejaVuSans-30"/>
       <use x="159.033203" xlink:href="#DejaVuSans-30"/>
      </g>
     </g>
    </g>
    <g id="ytick_2">
     <g id="line2d_7">
      <g>
       <use style="stroke:#000000;stroke-width:0.8;" x="58.05" xlink:href="#m3e4a325ec9" y="208.037519"/>
      </g>
     </g>
     <g id="text_8">
      <!-- 0.05 -->
      <defs>
       <path d="M 10.796875 72.90625 
L 49.515625 72.90625 
L 49.515625 64.59375 
L 19.828125 64.59375 
L 19.828125 46.734375 
Q 21.96875 47.46875 24.109375 47.828125 
Q 26.265625 48.1875 28.421875 48.1875 
Q 40.625 48.1875 47.75 41.5 
Q 54.890625 34.8125 54.890625 23.390625 
Q 54.890625 11.625 47.5625 5.09375 
Q 40.234375 -1.421875 26.90625 -1.421875 
Q 22.3125 -1.421875 17.546875 -0.640625 
Q 12.796875 0.140625 7.71875 1.703125 
L 7.71875 11.625 
Q 12.109375 9.234375 16.796875 8.0625 
Q 21.484375 6.890625 26.703125 6.890625 
Q 35.15625 6.890625 40.078125 11.328125 
Q 45.015625 15.765625 45.015625 23.390625 
Q 45.015625 31 40.078125 35.4375 
Q 35.15625 39.890625 26.703125 39.890625 
Q 22.75 39.890625 18.8125 39.015625 
Q 14.890625 38.140625 10.796875 36.28125 
z
" id="DejaVuSans-35"/>
      </defs>
      <g transform="translate(28.784375 211.836737)scale(0.1 -0.1)">
       <use xlink:href="#DejaVuSans-30"/>
       <use x="63.623047" xlink:href="#DejaVuSans-2e"/>
       <use x="95.410156" xlink:href="#DejaVuSans-30"/>
       <use x="159.033203" xlink:href="#DejaVuSans-35"/>
      </g>
     </g>
    </g>
    <g id="ytick_3">
     <g id="line2d_8">
      <g>
       <use style="stroke:#000000;stroke-width:0.8;" x="58.05" xlink:href="#m3e4a325ec9" y="183.568756"/>
      </g>
     </g>
     <g id="text_9">
      <!-- 0.10 -->
      <defs>
       <path d="M 12.40625 8.296875 
L 28.515625 8.296875 
L 28.515625 63.921875 
L 10.984375 60.40625 
L 10.984375 69.390625 
L 28.421875 72.90625 
L 38.28125 72.90625 
L 38.28125 8.296875 
L 54.390625 8.296875 
L 54.390625 0 
L 12.40625 0 
z
" id="DejaVuSans-31"/>
      </defs>
      <g transform="translate(28.784375 187.367974)scale(0.1 -0.1)">
       <use xlink:href="#DejaVuSans-30"/>
       <use x="63.623047" xlink:href="#DejaVuSans-2e"/>
       <use x="95.410156" xlink:href="#DejaVuSans-31"/>
       <use x="159.033203" xlink:href="#DejaVuSans-30"/>
      </g>
     </g>
    </g>
    <g id="ytick_4">
     <g id="line2d_9">
      <g>
       <use style="stroke:#000000;stroke-width:0.8;" x="58.05" xlink:href="#m3e4a325ec9" y="159.099993"/>
      </g>
     </g>
     <g id="text_10">
      <!-- 0.15 -->
      <g transform="translate(28.784375 162.899212)scale(0.1 -0.1)">
       <use xlink:href="#DejaVuSans-30"/>
       <use x="63.623047" xlink:href="#DejaVuSans-2e"/>
       <use x="95.410156" xlink:href="#DejaVuSans-31"/>
       <use x="159.033203" xlink:href="#DejaVuSans-35"/>
      </g>
     </g>
    </g>
    <g id="ytick_5">
     <g id="line2d_10">
      <g>
       <use style="stroke:#000000;stroke-width:0.8;" x="58.05" xlink:href="#m3e4a325ec9" y="134.63123"/>
      </g>
     </g>
     <g id="text_11">
      <!-- 0.20 -->
      <g transform="translate(28.784375 138.430449)scale(0.1 -0.1)">
       <use xlink:href="#DejaVuSans-30"/>
       <use x="63.623047" xlink:href="#DejaVuSans-2e"/>
       <use x="95.410156" xlink:href="#DejaVuSans-32"/>
       <use x="159.033203" xlink:href="#DejaVuSans-30"/>
      </g>
     </g>
    </g>
    <g id="ytick_6">
     <g id="line2d_11">
      <g>
       <use style="stroke:#000000;stroke-width:0.8;" x="58.05" xlink:href="#m3e4a325ec9" y="110.162467"/>
      </g>
     </g>
     <g id="text_12">
      <!-- 0.25 -->
      <g transform="translate(28.784375 113.961686)scale(0.1 -0.1)">
       <use xlink:href="#DejaVuSans-30"/>
       <use x="63.623047" xlink:href="#DejaVuSans-2e"/>
       <use x="95.410156" xlink:href="#DejaVuSans-32"/>
       <use x="159.033203" xlink:href="#DejaVuSans-35"/>
      </g>
     </g>
    </g>
    <g id="ytick_7">
     <g id="line2d_12">
      <g>
       <use style="stroke:#000000;stroke-width:0.8;" x="58.05" xlink:href="#m3e4a325ec9" y="85.693704"/>
      </g>
     </g>
     <g id="text_13">
      <!-- 0.30 -->
      <defs>
       <path d="M 40.578125 39.3125 
Q 47.65625 37.796875 51.625 33 
Q 55.609375 28.21875 55.609375 21.1875 
Q 55.609375 10.40625 48.1875 4.484375 
Q 40.765625 -1.421875 27.09375 -1.421875 
Q 22.515625 -1.421875 17.65625 -0.515625 
Q 12.796875 0.390625 7.625 2.203125 
L 7.625 11.71875 
Q 11.71875 9.328125 16.59375 8.109375 
Q 21.484375 6.890625 26.8125 6.890625 
Q 36.078125 6.890625 40.9375 10.546875 
Q 45.796875 14.203125 45.796875 21.1875 
Q 45.796875 27.640625 41.28125 31.265625 
Q 36.765625 34.90625 28.71875 34.90625 
L 20.21875 34.90625 
L 20.21875 43.015625 
L 29.109375 43.015625 
Q 36.375 43.015625 40.234375 45.921875 
Q 44.09375 48.828125 44.09375 54.296875 
Q 44.09375 59.90625 40.109375 62.90625 
Q 36.140625 65.921875 28.71875 65.921875 
Q 24.65625 65.921875 20.015625 65.03125 
Q 15.375 64.15625 9.8125 62.3125 
L 9.8125 71.09375 
Q 15.4375 72.65625 20.34375 73.4375 
Q 25.25 74.21875 29.59375 74.21875 
Q 40.828125 74.21875 47.359375 69.109375 
Q 53.90625 64.015625 53.90625 55.328125 
Q 53.90625 49.265625 50.4375 45.09375 
Q 46.96875 40.921875 40.578125 39.3125 
z
" id="DejaVuSans-33"/>
      </defs>
      <g transform="translate(28.784375 89.492923)scale(0.1 -0.1)">
       <use xlink:href="#DejaVuSans-30"/>
       <use x="63.623047" xlink:href="#DejaVuSans-2e"/>
       <use x="95.410156" xlink:href="#DejaVuSans-33"/>
       <use x="159.033203" xlink:href="#DejaVuSans-30"/>
      </g>
     </g>
    </g>
    <g id="ytick_8">
     <g id="line2d_13">
      <g>
       <use style="stroke:#000000;stroke-width:0.8;" x="58.05" xlink:href="#m3e4a325ec9" y="61.224942"/>
      </g>
     </g>
     <g id="text_14">
      <!-- 0.35 -->
      <g transform="translate(28.784375 65.02416)scale(0.1 -0.1)">
       <use xlink:href="#DejaVuSans-30"/>
       <use x="63.623047" xlink:href="#DejaVuSans-2e"/>
       <use x="95.410156" xlink:href="#DejaVuSans-33"/>
       <use x="159.033203" xlink:href="#DejaVuSans-35"/>
      </g>
     </g>
    </g>
    <g id="ytick_9">
     <g id="line2d_14">
      <g>
       <use style="stroke:#000000;stroke-width:0.8;" x="58.05" xlink:href="#m3e4a325ec9" y="36.756179"/>
      </g>
     </g>
     <g id="text_15">
      <!-- 0.40 -->
      <g transform="translate(28.784375 40.555397)scale(0.1 -0.1)">
       <use xlink:href="#DejaVuSans-30"/>
       <use x="63.623047" xlink:href="#DejaVuSans-2e"/>
       <use x="95.410156" xlink:href="#DejaVuSans-34"/>
       <use x="159.033203" xlink:href="#DejaVuSans-30"/>
      </g>
     </g>
    </g>
    <g id="text_16">
     <!-- Relative frequency -->
     <defs>
      <path d="M 44.390625 34.1875 
Q 47.5625 33.109375 50.5625 29.59375 
Q 53.5625 26.078125 56.59375 19.921875 
L 66.609375 0 
L 56 0 
L 46.6875 18.703125 
Q 43.0625 26.03125 39.671875 28.421875 
Q 36.28125 30.8125 30.421875 30.8125 
L 19.671875 30.8125 
L 19.671875 0 
L 9.8125 0 
L 9.8125 72.90625 
L 32.078125 72.90625 
Q 44.578125 72.90625 50.734375 67.671875 
Q 56.890625 62.453125 56.890625 51.90625 
Q 56.890625 45.015625 53.6875 40.46875 
Q 50.484375 35.9375 44.390625 34.1875 
z
M 19.671875 64.796875 
L 19.671875 38.921875 
L 32.078125 38.921875 
Q 39.203125 38.921875 42.84375 42.21875 
Q 46.484375 45.515625 46.484375 51.90625 
Q 46.484375 58.296875 42.84375 61.546875 
Q 39.203125 64.796875 32.078125 64.796875 
z
" id="DejaVuSans-52"/>
      <path d="M 9.421875 75.984375 
L 18.40625 75.984375 
L 18.40625 0 
L 9.421875 0 
z
" id="DejaVuSans-6c"/>
      <path d="M 2.984375 54.6875 
L 12.5 54.6875 
L 29.59375 8.796875 
L 46.6875 54.6875 
L 56.203125 54.6875 
L 35.6875 0 
L 23.484375 0 
z
" id="DejaVuSans-76"/>
      <path d="M 14.796875 27.296875 
Q 14.796875 17.390625 18.875 11.75 
Q 22.953125 6.109375 30.078125 6.109375 
Q 37.203125 6.109375 41.296875 11.75 
Q 45.40625 17.390625 45.40625 27.296875 
Q 45.40625 37.203125 41.296875 42.84375 
Q 37.203125 48.484375 30.078125 48.484375 
Q 22.953125 48.484375 18.875 42.84375 
Q 14.796875 37.203125 14.796875 27.296875 
z
M 45.40625 8.203125 
Q 42.578125 3.328125 38.25 0.953125 
Q 33.9375 -1.421875 27.875 -1.421875 
Q 17.96875 -1.421875 11.734375 6.484375 
Q 5.515625 14.40625 5.515625 27.296875 
Q 5.515625 40.1875 11.734375 48.09375 
Q 17.96875 56 27.875 56 
Q 33.9375 56 38.25 53.625 
Q 42.578125 51.265625 45.40625 46.390625 
L 45.40625 54.6875 
L 54.390625 54.6875 
L 54.390625 -20.796875 
L 45.40625 -20.796875 
z
" id="DejaVuSans-71"/>
      <path d="M 8.5 21.578125 
L 8.5 54.6875 
L 17.484375 54.6875 
L 17.484375 21.921875 
Q 17.484375 14.15625 20.5 10.265625 
Q 23.53125 6.390625 29.59375 6.390625 
Q 36.859375 6.390625 41.078125 11.03125 
Q 45.3125 15.671875 45.3125 23.6875 
L 45.3125 54.6875 
L 54.296875 54.6875 
L 54.296875 0 
L 45.3125 0 
L 45.3125 8.40625 
Q 42.046875 3.421875 37.71875 1 
Q 33.40625 -1.421875 27.6875 -1.421875 
Q 18.265625 -1.421875 13.375 4.4375 
Q 8.5 10.296875 8.5 21.578125 
z
M 31.109375 56 
z
" id="DejaVuSans-75"/>
      <path d="M 32.171875 -5.078125 
Q 28.375 -14.84375 24.75 -17.8125 
Q 21.140625 -20.796875 15.09375 -20.796875 
L 7.90625 -20.796875 
L 7.90625 -13.28125 
L 13.1875 -13.28125 
Q 16.890625 -13.28125 18.9375 -11.515625 
Q 21 -9.765625 23.484375 -3.21875 
L 25.09375 0.875 
L 2.984375 54.6875 
L 12.5 54.6875 
L 29.59375 11.921875 
L 46.6875 54.6875 
L 56.203125 54.6875 
z
" id="DejaVuSans-79"/>
     </defs>
     <g transform="translate(21.872812 201.5275)rotate(-90)scale(0.14 -0.14)">
      <use xlink:href="#DejaVuSans-52"/>
      <use x="69.419922" xlink:href="#DejaVuSans-65"/>
      <use x="130.943359" xlink:href="#DejaVuSans-6c"/>
      <use x="158.726562" xlink:href="#DejaVuSans-61"/>
      <use x="220.005859" xlink:href="#DejaVuSans-74"/>
      <use x="259.214844" xlink:href="#DejaVuSans-69"/>
      <use x="286.998047" xlink:href="#DejaVuSans-76"/>
      <use x="346.177734" xlink:href="#DejaVuSans-65"/>
      <use x="407.701172" xlink:href="#DejaVuSans-20"/>
      <use x="439.488281" xlink:href="#DejaVuSans-66"/>
      <use x="474.693359" xlink:href="#DejaVuSans-72"/>
      <use x="515.775391" xlink:href="#DejaVuSans-65"/>
      <use x="577.298828" xlink:href="#DejaVuSans-71"/>
      <use x="640.775391" xlink:href="#DejaVuSans-75"/>
      <use x="704.154297" xlink:href="#DejaVuSans-65"/>
      <use x="765.677734" xlink:href="#DejaVuSans-6e"/>
      <use x="829.056641" xlink:href="#DejaVuSans-63"/>
      <use x="884.037109" xlink:href="#DejaVuSans-79"/>
     </g>
    </g>
   </g>
   <g id="line2d_15">
    <path clip-path="url(#p6e9372df7c)" d="M 71.515341 226.515013 
L 74.235612 226.275387 
L 76.955883 226.021309 
L 79.676154 225.751612 
L 82.396424 225.465009 
L 85.116695 225.160083 
L 87.836966 224.835269 
L 90.557237 224.488831 
L 93.277508 224.118848 
L 95.997779 223.723182 
L 98.71805 223.299456 
L 101.438321 222.845017 
L 104.158592 222.356899 
L 106.878862 221.831782 
L 109.599133 221.265937 
L 112.319404 220.655172 
L 115.039675 219.994759 
L 117.759946 219.279357 
L 120.480217 218.502915 
L 123.200488 217.658568 
L 125.920759 216.738502 
L 128.64103 215.73381 
L 131.361301 214.63431 
L 134.081571 213.428344 
L 136.801842 212.102531 
L 139.522113 210.641489 
L 142.242384 209.027504 
L 144.962655 207.240154 
L 147.682926 205.25588 
L 150.403197 203.047496 
L 153.123468 200.583666 
L 155.843739 197.828341 
L 158.564009 194.740215 
L 161.28428 191.272257 
L 164.004551 187.371444 
L 166.724822 182.978902 
L 169.445093 178.030759 
L 172.165364 172.460226 
L 174.885635 166.201626 
L 177.605906 159.197389 
L 180.326177 151.409341 
L 183.046447 142.835719 
L 185.766718 133.534999 
L 188.486989 123.656217 
L 191.20726 113.47221 
L 193.927531 103.406755 
L 196.647802 94.039838 
L 199.368073 86.071311 
L 202.088344 80.229102 
L 204.808615 77.129628 
L 207.528885 77.129628 
L 210.249156 80.229102 
L 212.969427 86.071311 
L 215.689698 94.039838 
L 218.409969 103.406755 
L 221.13024 113.47221 
L 223.850511 123.656217 
L 226.570782 133.534999 
L 229.291053 142.835719 
L 232.011323 151.409341 
L 234.731594 159.197389 
L 237.451865 166.201626 
L 240.172136 172.460226 
L 242.892407 178.030759 
L 245.612678 182.978902 
L 248.332949 187.371444 
L 251.05322 191.272257 
L 253.773491 194.740215 
L 256.493761 197.828341 
L 259.214032 200.583666 
L 261.934303 203.047496 
L 264.654574 205.25588 
L 267.374845 207.240154 
L 270.095116 209.027504 
L 272.815387 210.641489 
L 275.535658 212.102531 
L 278.255929 213.428344 
L 280.976199 214.63431 
L 283.69647 215.73381 
L 286.416741 216.738502 
L 289.137012 217.658568 
L 291.857283 218.502915 
L 294.577554 219.279357 
L 297.297825 219.994759 
L 300.018096 220.655172 
L 302.738367 221.265937 
L 305.458638 221.831782 
L 308.178908 222.356899 
L 310.899179 222.845017 
L 313.61945 223.299456 
L 316.339721 223.723182 
L 319.059992 224.118848 
L 321.780263 224.488831 
L 324.500534 224.835269 
L 327.220805 225.160083 
L 329.941076 225.465009 
L 332.661346 225.751612 
L 335.381617 226.021309 
L 338.101888 226.275387 
L 340.822159 226.515013 
" style="fill:none;stroke:#00bfff;stroke-linecap:square;stroke-width:1.5;"/>
   </g>
   <g id="line2d_16">
    <path clip-path="url(#p6e9372df7c)" d="M 71.515341 230.441434 
L 74.235612 230.285667 
L 76.955883 230.115339 
L 79.676154 229.928838 
L 82.396424 229.724346 
L 85.116695 229.499811 
L 87.836966 229.252913 
L 90.557237 228.981027 
L 93.277508 228.681179 
L 95.997779 228.349989 
L 98.71805 227.983619 
L 101.438321 227.5777 
L 104.158592 227.127252 
L 106.878862 226.626595 
L 109.599133 226.06924 
L 112.319404 225.44777 
L 115.039675 224.753696 
L 117.759946 223.977301 
L 120.480217 223.107452 
L 123.200488 222.131397 
L 125.920759 221.034525 
L 128.64103 219.800111 
L 131.361301 218.409025 
L 134.081571 216.839421 
L 136.801842 215.066413 
L 139.522113 213.061738 
L 142.242384 210.793441 
L 144.962655 208.2256 
L 147.682926 205.318137 
L 150.403197 202.026783 
L 153.123468 198.303279 
L 155.843739 194.095933 
L 158.564009 189.350693 
L 161.28428 184.012914 
L 164.004551 178.030062 
L 166.724822 171.3556 
L 169.445093 163.954286 
L 172.165364 155.809087 
L 174.885635 146.929711 
L 177.605906 137.362529 
L 180.326177 127.201225 
L 183.046447 116.596956 
L 185.766718 105.766163 
L 188.486989 94.993612 
L 191.20726 84.627977 
L 193.927531 75.067651 
L 196.647802 66.73568 
L 199.368073 60.044854 
L 202.088344 55.356705 
L 204.808615 52.940617 
L 207.528885 52.940617 
L 210.249156 55.356705 
L 212.969427 60.044854 
L 215.689698 66.73568 
L 218.409969 75.067651 
L 221.13024 84.627977 
L 223.850511 94.993612 
L 226.570782 105.766163 
L 229.291053 116.596956 
L 232.011323 127.201225 
L 234.731594 137.362529 
L 237.451865 146.929711 
L 240.172136 155.809087 
L 242.892407 163.954286 
L 245.612678 171.3556 
L 248.332949 178.030062 
L 251.05322 184.012914 
L 253.773491 189.350693 
L 256.493761 194.095933 
L 259.214032 198.303279 
L 261.934303 202.026783 
L 264.654574 205.318137 
L 267.374845 208.2256 
L 270.095116 210.793441 
L 272.815387 213.061738 
L 275.535658 215.066413 
L 278.255929 216.839421 
L 280.976199 218.409025 
L 283.69647 219.800111 
L 286.416741 221.034525 
L 289.137012 222.131397 
L 291.857283 223.107452 
L 294.577554 223.977301 
L 297.297825 224.753696 
L 300.018096 225.44777 
L 302.738367 226.06924 
L 305.458638 226.626595 
L 308.178908 227.127252 
L 310.899179 227.5777 
L 313.61945 227.983619 
L 316.339721 228.349989 
L 319.059992 228.681179 
L 321.780263 228.981027 
L 324.500534 229.252913 
L 327.220805 229.499811 
L 329.941076 229.724346 
L 332.661346 229.928838 
L 335.381617 230.115339 
L 338.101888 230.285667 
L 340.822159 230.441434 
" style="fill:none;stroke:#fbc15e;stroke-linecap:square;stroke-width:1.5;"/>
   </g>
   <g id="line2d_17">
    <path clip-path="url(#p6e9372df7c)" d="M 71.515341 232.312488 
L 74.235612 232.278996 
L 76.955883 232.239353 
L 79.676154 232.192375 
L 82.396424 232.136643 
L 85.116695 232.070456 
L 87.836966 231.991771 
L 90.557237 231.898141 
L 93.277508 231.786632 
L 95.997779 231.653724 
L 98.71805 231.495202 
L 101.438321 231.30602 
L 104.158592 231.080142 
L 106.878862 230.810362 
L 109.599133 230.48809 
L 112.319404 230.103103 
L 115.039675 229.643276 
L 117.759946 229.094263 
L 120.480217 228.439154 
L 123.200488 227.658103 
L 125.920759 226.727938 
L 128.64103 225.621752 
L 131.361301 224.30853 
L 134.081571 222.752797 
L 136.801842 220.914369 
L 139.522113 218.748237 
L 142.242384 216.204657 
L 144.962655 213.229534 
L 147.682926 209.7652 
L 150.403197 205.751682 
L 153.123468 201.128582 
L 155.843739 195.837673 
L 158.564009 189.826282 
L 161.28428 183.051501 
L 164.004551 175.485193 
L 166.724822 167.119642 
L 169.445093 157.973612 
L 172.165364 148.098381 
L 174.885635 137.583226 
L 177.605906 126.559655 
L 180.326177 115.203648 
L 183.046447 103.735122 
L 185.766718 92.413986 
L 188.486989 81.532362 
L 191.20726 71.402927 
L 193.927531 62.343778 
L 196.647802 54.660762 
L 199.368073 48.628622 
L 202.088344 44.472723 
L 204.808615 42.353188 
L 207.528885 42.353188 
L 210.249156 44.472723 
L 212.969427 48.628622 
L 215.689698 54.660762 
L 218.409969 62.343778 
L 221.13024 71.402927 
L 223.850511 81.532362 
L 226.570782 92.413986 
L 229.291053 103.735122 
L 232.011323 115.203648 
L 234.731594 126.559655 
L 237.451865 137.583226 
L 240.172136 148.098381 
L 242.892407 157.973612 
L 245.612678 167.119642 
L 248.332949 175.485193 
L 251.05322 183.051501 
L 253.773491 189.826282 
L 256.493761 195.837673 
L 259.214032 201.128582 
L 261.934303 205.751682 
L 264.654574 209.7652 
L 267.374845 213.229534 
L 270.095116 216.204657 
L 272.815387 218.748237 
L 275.535658 220.914369 
L 278.255929 222.752797 
L 280.976199 224.30853 
L 283.69647 225.621752 
L 286.416741 226.727938 
L 289.137012 227.658103 
L 291.857283 228.439154 
L 294.577554 229.094263 
L 297.297825 229.643276 
L 300.018096 230.103103 
L 302.738367 230.48809 
L 305.458638 230.810362 
L 308.178908 231.080142 
L 310.899179 231.30602 
L 313.61945 231.495202 
L 316.339721 231.653724 
L 319.059992 231.786632 
L 321.780263 231.898141 
L 324.500534 231.991771 
L 327.220805 232.070456 
L 329.941076 232.136643 
L 332.661346 232.192375 
L 335.381617 232.239353 
L 338.101888 232.278996 
L 340.822159 232.312488 
" style="fill:none;stroke:#fb4c52;stroke-linecap:square;stroke-width:1.5;"/>
   </g>
   <g id="line2d_18">
    <path clip-path="url(#p6e9372df7c)" d="M 71.515341 232.5 
L 74.235612 232.497436 
L 76.955883 232.493857 
L 79.676154 232.488876 
L 82.396424 232.481966 
L 85.116695 232.472413 
L 87.836966 232.459254 
L 90.557237 232.441201 
L 93.277508 232.416532 
L 95.997779 232.382969 
L 98.71805 232.337511 
L 101.438321 232.276237 
L 104.158592 232.194056 
L 106.878862 232.084412 
L 109.599133 231.938927 
L 112.319404 231.746994 
L 115.039675 231.495302 
L 117.759946 231.167309 
L 120.480217 230.742676 
L 123.200488 230.196675 
L 125.920759 229.499595 
L 128.64103 228.616209 
L 131.361301 227.50533 
L 134.081571 226.119544 
L 136.801842 224.405195 
L 139.522113 222.302712 
L 142.242384 219.747379 
L 144.962655 216.670649 
L 147.682926 213.002078 
L 150.403197 208.671948 
L 153.123468 203.614602 
L 155.843739 197.772467 
L 158.564009 191.100663 
L 161.28428 183.572047 
L 164.004551 175.18242 
L 166.724822 165.955597 
L 169.445093 155.947911 
L 172.165364 145.251756 
L 174.885635 133.997678 
L 177.605906 122.354624 
L 180.326177 110.528007 
L 183.046447 98.75535 
L 185.766718 87.299503 
L 188.486989 76.439549 
L 191.20726 66.45979 
L 193.927531 57.637372 
L 196.647802 50.229295 
L 199.368073 44.459659 
L 202.088344 40.508064 
L 204.808615 38.5 
L 207.528885 38.5 
L 210.249156 40.508064 
L 212.969427 44.459659 
L 215.689698 50.229295 
L 218.409969 57.637372 
L 221.13024 66.45979 
L 223.850511 76.439549 
L 226.570782 87.299503 
L 229.291053 98.75535 
L 232.011323 110.528007 
L 234.731594 122.354624 
L 237.451865 133.997678 
L 240.172136 145.251756 
L 242.892407 155.947911 
L 245.612678 165.955597 
L 248.332949 175.18242 
L 251.05322 183.572047 
L 253.773491 191.100663 
L 256.493761 197.772467 
L 259.214032 203.614602 
L 261.934303 208.671948 
L 264.654574 213.002078 
L 267.374845 216.670649 
L 270.095116 219.747379 
L 272.815387 222.302712 
L 275.535658 224.405195 
L 278.255929 226.119544 
L 280.976199 227.50533 
L 283.69647 228.616209 
L 286.416741 229.499595 
L 289.137012 230.196675 
L 291.857283 230.742676 
L 294.577554 231.167309 
L 297.297825 231.495302 
L 300.018096 231.746994 
L 302.738367 231.938927 
L 305.458638 232.084412 
L 308.178908 232.194056 
L 310.899179 232.276237 
L 313.61945 232.337511 
L 316.339721 232.382969 
L 319.059992 232.416532 
L 321.780263 232.441201 
L 324.500534 232.459254 
L 327.220805 232.472413 
L 329.941076 232.481966 
L 332.661346 232.488876 
L 335.381617 232.493857 
L 338.101888 232.497436 
L 340.822159 232.5 
" style="fill:none;stroke:#9fc857;stroke-linecap:square;stroke-width:1.5;"/>
   </g>
   <g id="patch_3">
    <path d="M 58.05 242.2 
L 58.05 28.8 
" style="fill:none;stroke:#000000;stroke-linecap:square;stroke-linejoin:miter;stroke-width:0.8;"/>
   </g>
   <g id="patch_4">
    <path d="M 58.05 242.2 
L 354.2875 242.2 
" style="fill:none;stroke:#000000;stroke-linecap:square;stroke-linejoin:miter;stroke-width:0.8;"/>
   </g>
   <g id="text_17">
    <!-- t-distribution -->
    <defs>
     <path d="M 4.890625 31.390625 
L 31.203125 31.390625 
L 31.203125 23.390625 
L 4.890625 23.390625 
z
" id="DejaVuSans-2d"/>
     <path d="M 45.40625 46.390625 
L 45.40625 75.984375 
L 54.390625 75.984375 
L 54.390625 0 
L 45.40625 0 
L 45.40625 8.203125 
Q 42.578125 3.328125 38.25 0.953125 
Q 33.9375 -1.421875 27.875 -1.421875 
Q 17.96875 -1.421875 11.734375 6.484375 
Q 5.515625 14.40625 5.515625 27.296875 
Q 5.515625 40.1875 11.734375 48.09375 
Q 17.96875 56 27.875 56 
Q 33.9375 56 38.25 53.625 
Q 42.578125 51.265625 45.40625 46.390625 
z
M 14.796875 27.296875 
Q 14.796875 17.390625 18.875 11.75 
Q 22.953125 6.109375 30.078125 6.109375 
Q 37.203125 6.109375 41.296875 11.75 
Q 45.40625 17.390625 45.40625 27.296875 
Q 45.40625 37.203125 41.296875 42.84375 
Q 37.203125 48.484375 30.078125 48.484375 
Q 22.953125 48.484375 18.875 42.84375 
Q 14.796875 37.203125 14.796875 27.296875 
z
" id="DejaVuSans-64"/>
     <path d="M 48.6875 27.296875 
Q 48.6875 37.203125 44.609375 42.84375 
Q 40.53125 48.484375 33.40625 48.484375 
Q 26.265625 48.484375 22.1875 42.84375 
Q 18.109375 37.203125 18.109375 27.296875 
Q 18.109375 17.390625 22.1875 11.75 
Q 26.265625 6.109375 33.40625 6.109375 
Q 40.53125 6.109375 44.609375 11.75 
Q 48.6875 17.390625 48.6875 27.296875 
z
M 18.109375 46.390625 
Q 20.953125 51.265625 25.265625 53.625 
Q 29.59375 56 35.59375 56 
Q 45.5625 56 51.78125 48.09375 
Q 58.015625 40.1875 58.015625 27.296875 
Q 58.015625 14.40625 51.78125 6.484375 
Q 45.5625 -1.421875 35.59375 -1.421875 
Q 29.59375 -1.421875 25.265625 0.953125 
Q 20.953125 3.328125 18.109375 8.203125 
L 18.109375 0 
L 9.078125 0 
L 9.078125 75.984375 
L 18.109375 75.984375 
z
" id="DejaVuSans-62"/>
    </defs>
    <g transform="translate(154.5575 22.8)scale(0.16 -0.16)">
     <use xlink:href="#DejaVuSans-74"/>
     <use x="39.208984" xlink:href="#DejaVuSans-2d"/>
     <use x="75.292969" xlink:href="#DejaVuSans-64"/>
     <use x="138.769531" xlink:href="#DejaVuSans-69"/>
     <use x="166.552734" xlink:href="#DejaVuSans-73"/>
     <use x="218.652344" xlink:href="#DejaVuSans-74"/>
     <use x="257.861328" xlink:href="#DejaVuSans-72"/>
     <use x="298.974609" xlink:href="#DejaVuSans-69"/>
     <use x="326.757812" xlink:href="#DejaVuSans-62"/>
     <use x="390.234375" xlink:href="#DejaVuSans-75"/>
     <use x="453.613281" xlink:href="#DejaVuSans-74"/>
     <use x="492.822266" xlink:href="#DejaVuSans-69"/>
     <use x="520.605469" xlink:href="#DejaVuSans-6f"/>
     <use x="581.787109" xlink:href="#DejaVuSans-6e"/>
    </g>
   </g>
   <g id="legend_1">
    <g id="patch_5">
     <path d="M 284.314063 95.5125 
L 347.2875 95.5125 
Q 349.2875 95.5125 349.2875 93.5125 
L 349.2875 35.8 
Q 349.2875 33.8 347.2875 33.8 
L 284.314063 33.8 
Q 282.314063 33.8 282.314063 35.8 
L 282.314063 93.5125 
Q 282.314063 95.5125 284.314063 95.5125 
z
" style="fill:#ffffff;opacity:0.8;stroke:#cccccc;stroke-linejoin:miter;"/>
    </g>
    <g id="line2d_19">
     <path d="M 286.314063 41.898438 
L 306.314063 41.898438 
" style="fill:none;stroke:#00bfff;stroke-linecap:square;stroke-width:1.5;"/>
    </g>
    <g id="line2d_20"/>
    <g id="text_18">
     <!-- df=1 -->
     <defs>
      <path d="M 10.59375 45.40625 
L 73.1875 45.40625 
L 73.1875 37.203125 
L 10.59375 37.203125 
z
M 10.59375 25.484375 
L 73.1875 25.484375 
L 73.1875 17.1875 
L 10.59375 17.1875 
z
" id="DejaVuSans-3d"/>
     </defs>
     <g transform="translate(314.314063 45.398438)scale(0.1 -0.1)">
      <use xlink:href="#DejaVuSans-64"/>
      <use x="63.476562" xlink:href="#DejaVuSans-66"/>
      <use x="98.681641" xlink:href="#DejaVuSans-3d"/>
      <use x="182.470703" xlink:href="#DejaVuSans-31"/>
     </g>
    </g>
    <g id="line2d_21">
     <path d="M 286.314063 56.576562 
L 306.314063 56.576562 
" style="fill:none;stroke:#fbc15e;stroke-linecap:square;stroke-width:1.5;"/>
    </g>
    <g id="line2d_22"/>
    <g id="text_19">
     <!-- df=3 -->
     <g transform="translate(314.314063 60.076562)scale(0.1 -0.1)">
      <use xlink:href="#DejaVuSans-64"/>
      <use x="63.476562" xlink:href="#DejaVuSans-66"/>
      <use x="98.681641" xlink:href="#DejaVuSans-3d"/>
      <use x="182.470703" xlink:href="#DejaVuSans-33"/>
     </g>
    </g>
    <g id="line2d_23">
     <path d="M 286.314063 71.254687 
L 306.314063 71.254687 
" style="fill:none;stroke:#fb4c52;stroke-linecap:square;stroke-width:1.5;"/>
    </g>
    <g id="line2d_24"/>
    <g id="text_20">
     <!-- df=10 -->
     <g transform="translate(314.314063 74.754687)scale(0.1 -0.1)">
      <use xlink:href="#DejaVuSans-64"/>
      <use x="63.476562" xlink:href="#DejaVuSans-66"/>
      <use x="98.681641" xlink:href="#DejaVuSans-3d"/>
      <use x="182.470703" xlink:href="#DejaVuSans-31"/>
      <use x="246.09375" xlink:href="#DejaVuSans-30"/>
     </g>
    </g>
    <g id="line2d_25">
     <path d="M 286.314063 85.932813 
L 306.314063 85.932813 
" style="fill:none;stroke:#9fc857;stroke-linecap:square;stroke-width:1.5;"/>
    </g>
    <g id="line2d_26"/>
    <g id="text_21">
     <!-- df=50 -->
     <g transform="translate(314.314063 89.432813)scale(0.1 -0.1)">
      <use xlink:href="#DejaVuSans-64"/>
      <use x="63.476562" xlink:href="#DejaVuSans-66"/>
      <use x="98.681641" xlink:href="#DejaVuSans-3d"/>
      <use x="182.470703" xlink:href="#DejaVuSans-35"/>
      <use x="246.09375" xlink:href="#DejaVuSans-30"/>
     </g>
    </g>
   </g>
  </g>
  <g id="axes_2">
   <g id="patch_6">
    <path d="M 409.4625 242.2 
L 705.7 242.2 
L 705.7 28.8 
L 409.4625 28.8 
z
" style="fill:none;"/>
   </g>
   <g id="matplotlib.axis_3">
    <g id="xtick_6">
     <g id="line2d_27">
      <g>
       <use style="stroke:#000000;stroke-width:0.8;" x="422.927841" xlink:href="#m65b4d92b21" y="242.2"/>
      </g>
     </g>
     <g id="text_22">
      <!-- 0 -->
      <g transform="translate(419.746591 256.798437)scale(0.1 -0.1)">
       <use xlink:href="#DejaVuSans-30"/>
      </g>
     </g>
    </g>
    <g id="xtick_7">
     <g id="line2d_28">
      <g>
       <use style="stroke:#000000;stroke-width:0.8;" x="476.789205" xlink:href="#m65b4d92b21" y="242.2"/>
      </g>
     </g>
     <g id="text_23">
      <!-- 1 -->
      <g transform="translate(473.607955 256.798437)scale(0.1 -0.1)">
       <use xlink:href="#DejaVuSans-31"/>
      </g>
     </g>
    </g>
    <g id="xtick_8">
     <g id="line2d_29">
      <g>
       <use style="stroke:#000000;stroke-width:0.8;" x="530.650568" xlink:href="#m65b4d92b21" y="242.2"/>
      </g>
     </g>
     <g id="text_24">
      <!-- 2 -->
      <g transform="translate(527.469318 256.798437)scale(0.1 -0.1)">
       <use xlink:href="#DejaVuSans-32"/>
      </g>
     </g>
    </g>
    <g id="xtick_9">
     <g id="line2d_30">
      <g>
       <use style="stroke:#000000;stroke-width:0.8;" x="584.511932" xlink:href="#m65b4d92b21" y="242.2"/>
      </g>
     </g>
     <g id="text_25">
      <!-- 3 -->
      <g transform="translate(581.330682 256.798437)scale(0.1 -0.1)">
       <use xlink:href="#DejaVuSans-33"/>
      </g>
     </g>
    </g>
    <g id="xtick_10">
     <g id="line2d_31">
      <g>
       <use style="stroke:#000000;stroke-width:0.8;" x="638.373295" xlink:href="#m65b4d92b21" y="242.2"/>
      </g>
     </g>
     <g id="text_26">
      <!-- 4 -->
      <g transform="translate(635.192045 256.798437)scale(0.1 -0.1)">
       <use xlink:href="#DejaVuSans-34"/>
      </g>
     </g>
    </g>
    <g id="xtick_11">
     <g id="line2d_32">
      <g>
       <use style="stroke:#000000;stroke-width:0.8;" x="692.234659" xlink:href="#m65b4d92b21" y="242.2"/>
      </g>
     </g>
     <g id="text_27">
      <!-- 5 -->
      <g transform="translate(689.053409 256.798437)scale(0.1 -0.1)">
       <use xlink:href="#DejaVuSans-35"/>
      </g>
     </g>
    </g>
    <g id="text_28">
     <!-- Statistic of interest -->
     <g transform="translate(491.027656 273.515938)scale(0.14 -0.14)">
      <use xlink:href="#DejaVuSans-53"/>
      <use x="63.476562" xlink:href="#DejaVuSans-74"/>
      <use x="102.685547" xlink:href="#DejaVuSans-61"/>
      <use x="163.964844" xlink:href="#DejaVuSans-74"/>
      <use x="203.173828" xlink:href="#DejaVuSans-69"/>
      <use x="230.957031" xlink:href="#DejaVuSans-73"/>
      <use x="283.056641" xlink:href="#DejaVuSans-74"/>
      <use x="322.265625" xlink:href="#DejaVuSans-69"/>
      <use x="350.048828" xlink:href="#DejaVuSans-63"/>
      <use x="405.029297" xlink:href="#DejaVuSans-20"/>
      <use x="436.816406" xlink:href="#DejaVuSans-6f"/>
      <use x="497.998047" xlink:href="#DejaVuSans-66"/>
      <use x="533.203125" xlink:href="#DejaVuSans-20"/>
      <use x="564.990234" xlink:href="#DejaVuSans-69"/>
      <use x="592.773438" xlink:href="#DejaVuSans-6e"/>
      <use x="656.152344" xlink:href="#DejaVuSans-74"/>
      <use x="695.361328" xlink:href="#DejaVuSans-65"/>
      <use x="756.884766" xlink:href="#DejaVuSans-72"/>
      <use x="797.966797" xlink:href="#DejaVuSans-65"/>
      <use x="859.490234" xlink:href="#DejaVuSans-73"/>
      <use x="911.589844" xlink:href="#DejaVuSans-74"/>
     </g>
    </g>
   </g>
   <g id="matplotlib.axis_4">
    <g id="ytick_10">
     <g id="line2d_33">
      <g>
       <use style="stroke:#000000;stroke-width:0.8;" x="409.4625" xlink:href="#m3e4a325ec9" y="232.5"/>
      </g>
     </g>
     <g id="text_29">
      <!-- 0.0 -->
      <g transform="translate(386.559375 236.299219)scale(0.1 -0.1)">
       <use xlink:href="#DejaVuSans-30"/>
       <use x="63.623047" xlink:href="#DejaVuSans-2e"/>
       <use x="95.410156" xlink:href="#DejaVuSans-30"/>
      </g>
     </g>
    </g>
    <g id="ytick_11">
     <g id="line2d_34">
      <g>
       <use style="stroke:#000000;stroke-width:0.8;" x="409.4625" xlink:href="#m3e4a325ec9" y="198.297492"/>
      </g>
     </g>
     <g id="text_30">
      <!-- 0.2 -->
      <g transform="translate(386.559375 202.096711)scale(0.1 -0.1)">
       <use xlink:href="#DejaVuSans-30"/>
       <use x="63.623047" xlink:href="#DejaVuSans-2e"/>
       <use x="95.410156" xlink:href="#DejaVuSans-32"/>
      </g>
     </g>
    </g>
    <g id="ytick_12">
     <g id="line2d_35">
      <g>
       <use style="stroke:#000000;stroke-width:0.8;" x="409.4625" xlink:href="#m3e4a325ec9" y="164.094984"/>
      </g>
     </g>
     <g id="text_31">
      <!-- 0.4 -->
      <g transform="translate(386.559375 167.894203)scale(0.1 -0.1)">
       <use xlink:href="#DejaVuSans-30"/>
       <use x="63.623047" xlink:href="#DejaVuSans-2e"/>
       <use x="95.410156" xlink:href="#DejaVuSans-34"/>
      </g>
     </g>
    </g>
    <g id="ytick_13">
     <g id="line2d_36">
      <g>
       <use style="stroke:#000000;stroke-width:0.8;" x="409.4625" xlink:href="#m3e4a325ec9" y="129.892476"/>
      </g>
     </g>
     <g id="text_32">
      <!-- 0.6 -->
      <defs>
       <path d="M 33.015625 40.375 
Q 26.375 40.375 22.484375 35.828125 
Q 18.609375 31.296875 18.609375 23.390625 
Q 18.609375 15.53125 22.484375 10.953125 
Q 26.375 6.390625 33.015625 6.390625 
Q 39.65625 6.390625 43.53125 10.953125 
Q 47.40625 15.53125 47.40625 23.390625 
Q 47.40625 31.296875 43.53125 35.828125 
Q 39.65625 40.375 33.015625 40.375 
z
M 52.59375 71.296875 
L 52.59375 62.3125 
Q 48.875 64.0625 45.09375 64.984375 
Q 41.3125 65.921875 37.59375 65.921875 
Q 27.828125 65.921875 22.671875 59.328125 
Q 17.53125 52.734375 16.796875 39.40625 
Q 19.671875 43.65625 24.015625 45.921875 
Q 28.375 48.1875 33.59375 48.1875 
Q 44.578125 48.1875 50.953125 41.515625 
Q 57.328125 34.859375 57.328125 23.390625 
Q 57.328125 12.15625 50.6875 5.359375 
Q 44.046875 -1.421875 33.015625 -1.421875 
Q 20.359375 -1.421875 13.671875 8.265625 
Q 6.984375 17.96875 6.984375 36.375 
Q 6.984375 53.65625 15.1875 63.9375 
Q 23.390625 74.21875 37.203125 74.21875 
Q 40.921875 74.21875 44.703125 73.484375 
Q 48.484375 72.75 52.59375 71.296875 
z
" id="DejaVuSans-36"/>
      </defs>
      <g transform="translate(386.559375 133.691694)scale(0.1 -0.1)">
       <use xlink:href="#DejaVuSans-30"/>
       <use x="63.623047" xlink:href="#DejaVuSans-2e"/>
       <use x="95.410156" xlink:href="#DejaVuSans-36"/>
      </g>
     </g>
    </g>
    <g id="ytick_14">
     <g id="line2d_37">
      <g>
       <use style="stroke:#000000;stroke-width:0.8;" x="409.4625" xlink:href="#m3e4a325ec9" y="95.689968"/>
      </g>
     </g>
     <g id="text_33">
      <!-- 0.8 -->
      <defs>
       <path d="M 31.78125 34.625 
Q 24.75 34.625 20.71875 30.859375 
Q 16.703125 27.09375 16.703125 20.515625 
Q 16.703125 13.921875 20.71875 10.15625 
Q 24.75 6.390625 31.78125 6.390625 
Q 38.8125 6.390625 42.859375 10.171875 
Q 46.921875 13.96875 46.921875 20.515625 
Q 46.921875 27.09375 42.890625 30.859375 
Q 38.875 34.625 31.78125 34.625 
z
M 21.921875 38.8125 
Q 15.578125 40.375 12.03125 44.71875 
Q 8.5 49.078125 8.5 55.328125 
Q 8.5 64.0625 14.71875 69.140625 
Q 20.953125 74.21875 31.78125 74.21875 
Q 42.671875 74.21875 48.875 69.140625 
Q 55.078125 64.0625 55.078125 55.328125 
Q 55.078125 49.078125 51.53125 44.71875 
Q 48 40.375 41.703125 38.8125 
Q 48.828125 37.15625 52.796875 32.3125 
Q 56.78125 27.484375 56.78125 20.515625 
Q 56.78125 9.90625 50.3125 4.234375 
Q 43.84375 -1.421875 31.78125 -1.421875 
Q 19.734375 -1.421875 13.25 4.234375 
Q 6.78125 9.90625 6.78125 20.515625 
Q 6.78125 27.484375 10.78125 32.3125 
Q 14.796875 37.15625 21.921875 38.8125 
z
M 18.3125 54.390625 
Q 18.3125 48.734375 21.84375 45.5625 
Q 25.390625 42.390625 31.78125 42.390625 
Q 38.140625 42.390625 41.71875 45.5625 
Q 45.3125 48.734375 45.3125 54.390625 
Q 45.3125 60.0625 41.71875 63.234375 
Q 38.140625 66.40625 31.78125 66.40625 
Q 25.390625 66.40625 21.84375 63.234375 
Q 18.3125 60.0625 18.3125 54.390625 
z
" id="DejaVuSans-38"/>
      </defs>
      <g transform="translate(386.559375 99.489186)scale(0.1 -0.1)">
       <use xlink:href="#DejaVuSans-30"/>
       <use x="63.623047" xlink:href="#DejaVuSans-2e"/>
       <use x="95.410156" xlink:href="#DejaVuSans-38"/>
      </g>
     </g>
    </g>
    <g id="ytick_15">
     <g id="line2d_38">
      <g>
       <use style="stroke:#000000;stroke-width:0.8;" x="409.4625" xlink:href="#m3e4a325ec9" y="61.48746"/>
      </g>
     </g>
     <g id="text_34">
      <!-- 1.0 -->
      <g transform="translate(386.559375 65.286678)scale(0.1 -0.1)">
       <use xlink:href="#DejaVuSans-31"/>
       <use x="63.623047" xlink:href="#DejaVuSans-2e"/>
       <use x="95.410156" xlink:href="#DejaVuSans-30"/>
      </g>
     </g>
    </g>
    <g id="text_35">
     <!-- Relative frequency -->
     <g transform="translate(379.647813 201.5275)rotate(-90)scale(0.14 -0.14)">
      <use xlink:href="#DejaVuSans-52"/>
      <use x="69.419922" xlink:href="#DejaVuSans-65"/>
      <use x="130.943359" xlink:href="#DejaVuSans-6c"/>
      <use x="158.726562" xlink:href="#DejaVuSans-61"/>
      <use x="220.005859" xlink:href="#DejaVuSans-74"/>
      <use x="259.214844" xlink:href="#DejaVuSans-69"/>
      <use x="286.998047" xlink:href="#DejaVuSans-76"/>
      <use x="346.177734" xlink:href="#DejaVuSans-65"/>
      <use x="407.701172" xlink:href="#DejaVuSans-20"/>
      <use x="439.488281" xlink:href="#DejaVuSans-66"/>
      <use x="474.693359" xlink:href="#DejaVuSans-72"/>
      <use x="515.775391" xlink:href="#DejaVuSans-65"/>
      <use x="577.298828" xlink:href="#DejaVuSans-71"/>
      <use x="640.775391" xlink:href="#DejaVuSans-75"/>
      <use x="704.154297" xlink:href="#DejaVuSans-65"/>
      <use x="765.677734" xlink:href="#DejaVuSans-6e"/>
      <use x="829.056641" xlink:href="#DejaVuSans-63"/>
      <use x="884.037109" xlink:href="#DejaVuSans-79"/>
     </g>
    </g>
   </g>
   <g id="line2d_39">
    <path clip-path="url(#pde33c5ba36)" d="M 425.648112 73.815168 
L 428.368383 84.985903 
L 431.088654 95.132271 
L 433.808924 104.369049 
L 436.529195 112.795924 
L 439.249466 120.499751 
L 441.969737 127.556446 
L 444.690008 134.032557 
L 447.410279 139.986586 
L 450.13055 145.4701 
L 452.850821 150.528673 
L 455.571092 155.202684 
L 458.291362 159.527994 
L 461.011633 163.536523 
L 463.731904 167.25675 
L 466.452175 170.714134 
L 469.172446 173.931484 
L 471.892717 176.929275 
L 474.612988 179.72592 
L 477.333259 182.338012 
L 480.05353 184.780526 
L 482.773801 187.067004 
L 485.494071 189.209708 
L 488.214342 191.219764 
L 490.934613 193.107281 
L 493.654884 194.881455 
L 496.375155 196.550668 
L 499.095426 198.122568 
L 501.815697 199.604146 
L 504.535968 201.001796 
L 507.256239 202.321377 
L 509.976509 203.568267 
L 512.69678 204.747401 
L 515.417051 205.863321 
L 518.137322 206.920207 
L 520.857593 207.92191 
L 523.577864 208.871987 
L 526.298135 209.77372 
L 529.018406 210.630146 
L 531.738677 211.444076 
L 534.458947 212.218111 
L 537.179218 212.954669 
L 539.899489 213.655988 
L 542.61976 214.324152 
L 545.340031 214.961097 
L 548.060302 215.568625 
L 550.780573 216.148416 
L 553.500844 216.702033 
L 556.221115 217.230938 
L 558.941385 217.736495 
L 561.661656 218.219976 
L 564.381927 218.682576 
L 567.102198 219.125408 
L 569.822469 219.549517 
L 572.54274 219.955883 
L 575.263011 220.345423 
L 577.983282 220.719001 
L 580.703553 221.077424 
L 583.423823 221.421454 
L 586.144094 221.751806 
L 588.864365 222.069153 
L 591.584636 222.374129 
L 594.304907 222.667331 
L 597.025178 222.949321 
L 599.745449 223.220631 
L 602.46572 223.481761 
L 605.185991 223.733184 
L 607.906261 223.975347 
L 610.626532 224.208673 
L 613.346803 224.433561 
L 616.067074 224.650389 
L 618.787345 224.859515 
L 621.507616 225.061278 
L 624.227887 225.255999 
L 626.948158 225.443982 
L 629.668429 225.625517 
L 632.388699 225.800878 
L 635.10897 225.970325 
L 637.829241 226.134105 
L 640.549512 226.292454 
L 643.269783 226.445593 
L 645.990054 226.593737 
L 648.710325 226.737086 
L 651.430596 226.875834 
L 654.150867 227.010164 
L 656.871138 227.140249 
L 659.591408 227.266257 
L 662.311679 227.388345 
L 665.03195 227.506666 
L 667.752221 227.621363 
L 670.472492 227.732574 
L 673.192763 227.84043 
L 675.913034 227.945057 
L 678.633305 228.046575 
L 681.353576 228.145098 
L 684.073846 228.240737 
L 686.794117 228.333596 
L 689.514388 228.423774 
L 692.234659 228.511369 
" style="fill:none;stroke:#00bfff;stroke-linecap:square;stroke-width:1.5;"/>
   </g>
   <g id="line2d_40">
    <path clip-path="url(#pde33c5ba36)" d="M 422.927841 232.5 
L 425.648112 150.312589 
L 428.368383 129.974221 
L 431.088654 121.255835 
L 433.808924 118.237237 
L 436.529195 118.432085 
L 439.249466 120.53034 
L 441.969737 123.765176 
L 444.690008 127.661037 
L 447.410279 131.912942 
L 450.13055 136.321627 
L 452.850821 140.755929 
L 455.571092 145.129744 
L 458.291362 149.387342 
L 461.011633 153.493739 
L 463.731904 157.428221 
L 466.452175 161.17993 
L 469.172446 164.744793 
L 471.892717 168.123386 
L 474.612988 171.319421 
L 477.333259 174.338669 
L 480.05353 177.188209 
L 482.773801 179.87588 
L 485.494071 182.409904 
L 488.214342 184.798612 
L 490.934613 187.050265 
L 493.654884 189.172918 
L 496.375155 191.174344 
L 499.095426 193.061977 
L 501.815697 194.842881 
L 504.535968 196.523738 
L 507.256239 198.110846 
L 509.976509 199.61012 
L 512.69678 201.027106 
L 515.417051 202.366995 
L 518.137322 203.634639 
L 520.857593 204.834568 
L 523.577864 205.971009 
L 526.298135 207.047905 
L 529.018406 208.068932 
L 531.738677 209.037516 
L 534.458947 209.956852 
L 537.179218 210.829918 
L 539.899489 211.65949 
L 542.61976 212.448157 
L 545.340031 213.198334 
L 548.060302 213.912276 
L 550.780573 214.592086 
L 553.500844 215.239729 
L 556.221115 215.857039 
L 558.941385 216.445732 
L 561.661656 217.007411 
L 564.381927 217.543578 
L 567.102198 218.055635 
L 569.822469 218.544899 
L 572.54274 219.012601 
L 575.263011 219.459896 
L 577.983282 219.887868 
L 580.703553 220.297531 
L 583.423823 220.689841 
L 586.144094 221.065694 
L 588.864365 221.425932 
L 591.584636 221.771347 
L 594.304907 222.102684 
L 597.025178 222.420645 
L 599.745449 222.725889 
L 602.46572 223.019039 
L 605.185991 223.300683 
L 607.906261 223.571372 
L 610.626532 223.831629 
L 613.346803 224.081947 
L 616.067074 224.322791 
L 618.787345 224.554602 
L 621.507616 224.777794 
L 624.227887 224.992763 
L 626.948158 225.199879 
L 629.668429 225.399495 
L 632.388699 225.591946 
L 635.10897 225.777546 
L 637.829241 225.956597 
L 640.549512 226.129382 
L 643.269783 226.296171 
L 645.990054 226.457221 
L 648.710325 226.612774 
L 651.430596 226.763062 
L 654.150867 226.908304 
L 656.871138 227.048708 
L 659.591408 227.184475 
L 662.311679 227.315791 
L 665.03195 227.442837 
L 667.752221 227.565785 
L 670.472492 227.684797 
L 673.192763 227.800028 
L 675.913034 227.911628 
L 678.633305 228.019737 
L 681.353576 228.12449 
L 684.073846 228.226016 
L 686.794117 228.324437 
L 689.514388 228.41987 
L 692.234659 228.512428 
" style="fill:none;stroke:#fbc15e;stroke-linecap:square;stroke-width:1.5;"/>
   </g>
   <g id="line2d_41">
    <path clip-path="url(#pde33c5ba36)" d="M 422.927841 232.5 
L 425.648112 230.730983 
L 428.368383 222.456083 
L 431.088654 208.137375 
L 433.808924 190.508003 
L 436.529195 172.208723 
L 439.249466 155.129596 
L 441.969737 140.385553 
L 444.690008 128.485133 
L 447.410279 119.52282 
L 450.13055 113.339061 
L 452.850821 109.637079 
L 455.571092 108.061478 
L 458.291362 108.247639 
L 461.011633 109.850455 
L 463.731904 112.559245 
L 466.452175 116.103847 
L 469.172446 120.255352 
L 471.892717 124.82382 
L 474.612988 129.654455 
L 477.333259 134.623185 
L 480.05353 139.632192 
L 482.773801 144.605702 
L 485.494071 149.486195 
L 488.214342 154.23108 
L 490.934613 158.809847 
L 493.654884 163.201662 
L 496.375155 167.393357 
L 499.095426 171.377781 
L 501.815697 175.152436 
L 504.535968 178.718384 
L 507.256239 182.079351 
L 509.976509 185.241021 
L 512.69678 188.210465 
L 515.417051 190.995699 
L 518.137322 193.605325 
L 520.857593 196.048269 
L 523.577864 198.333561 
L 526.298135 200.470186 
L 529.018406 202.466959 
L 531.738677 204.332441 
L 534.458947 206.074881 
L 537.179218 207.702172 
L 539.899489 209.221828 
L 542.61976 210.640969 
L 545.340031 211.966318 
L 548.060302 213.204204 
L 550.780573 214.360571 
L 553.500844 215.440986 
L 556.221115 216.450659 
L 558.941385 217.394454 
L 561.661656 218.276909 
L 564.381927 219.102253 
L 567.102198 219.874423 
L 569.822469 220.597083 
L 572.54274 221.273638 
L 575.263011 221.907255 
L 577.983282 222.500877 
L 580.703553 223.057236 
L 583.423823 223.57887 
L 586.144094 224.068136 
L 588.864365 224.527224 
L 591.584636 224.958167 
L 594.304907 225.362852 
L 597.025178 225.743032 
L 599.745449 226.100336 
L 602.46572 226.436278 
L 605.185991 226.752262 
L 607.906261 227.049596 
L 610.626532 227.329495 
L 613.346803 227.593087 
L 616.067074 227.841424 
L 618.787345 228.075482 
L 621.507616 228.296173 
L 624.227887 228.504341 
L 626.948158 228.700776 
L 629.668429 228.886214 
L 632.388699 229.061337 
L 635.10897 229.226785 
L 637.829241 229.383153 
L 640.549512 229.530995 
L 643.269783 229.670831 
L 645.990054 229.803144 
L 648.710325 229.928385 
L 651.430596 230.046977 
L 654.150867 230.159314 
L 656.871138 230.265765 
L 659.591408 230.366674 
L 662.311679 230.462366 
L 665.03195 230.553141 
L 667.752221 230.639282 
L 670.472492 230.721056 
L 673.192763 230.798709 
L 675.913034 230.872475 
L 678.633305 230.942571 
L 681.353576 231.009204 
L 684.073846 231.072564 
L 686.794117 231.132833 
L 689.514388 231.190179 
L 692.234659 231.244762 
" style="fill:none;stroke:#fb4c52;stroke-linecap:square;stroke-width:1.5;"/>
   </g>
   <g id="line2d_42">
    <path clip-path="url(#pde33c5ba36)" d="M 422.927841 232.5 
L 425.648112 232.499975 
L 428.368383 232.493565 
L 431.088654 232.373807 
L 433.808924 231.631686 
L 436.529195 229.116459 
L 439.249466 223.260981 
L 441.969737 212.698153 
L 444.690008 196.858634 
L 447.410279 176.233967 
L 450.13055 152.253662 
L 452.850821 126.911875 
L 455.571092 102.326919 
L 458.291362 80.372199 
L 461.011633 62.444392 
L 463.731904 49.37386 
L 466.452175 41.447217 
L 469.172446 38.5 
L 471.892717 40.040426 
L 474.612988 45.375165 
L 477.333259 53.719222 
L 480.05353 64.281568 
L 482.773801 76.324938 
L 485.494071 89.202268 
L 488.214342 102.374225 
L 490.934613 115.412764 
L 493.654884 127.995294 
L 496.375155 139.893244 
L 499.095426 150.957933 
L 501.815697 161.105786 
L 504.535968 170.304235 
L 507.256239 178.559067 
L 509.976509 185.903583 
L 512.69678 192.389666 
L 515.417051 198.080652 
L 518.137322 203.045842 
L 520.857593 207.356397 
L 523.577864 211.082401 
L 526.298135 214.290856 
L 529.018406 217.044395 
L 531.738677 219.400561 
L 534.458947 221.411483 
L 537.179218 223.123854 
L 539.899489 224.579101 
L 542.61976 225.813687 
L 545.340031 226.85949 
L 548.060302 227.744223 
L 550.780573 228.491852 
L 553.500844 229.123019 
L 556.221115 229.655436 
L 558.941385 230.104251 
L 561.661656 230.482384 
L 564.381927 230.800827 
L 567.102198 231.068911 
L 569.822469 231.294546 
L 572.54274 231.484423 
L 575.263011 231.644194 
L 577.983282 231.778633 
L 580.703553 231.89176 
L 583.423823 231.986966 
L 586.144094 232.067101 
L 588.864365 232.134567 
L 591.584636 232.19138 
L 594.304907 232.239237 
L 597.025178 232.279563 
L 599.745449 232.313557 
L 602.46572 232.342223 
L 605.185991 232.366407 
L 607.906261 232.386819 
L 610.626532 232.404056 
L 613.346803 232.418619 
L 616.067074 232.430929 
L 618.787345 232.44134 
L 621.507616 232.45015 
L 624.227887 232.45761 
L 626.948158 232.46393 
L 629.668429 232.469288 
L 632.388699 232.473832 
L 635.10897 232.477689 
L 637.829241 232.480965 
L 640.549512 232.483749 
L 643.269783 232.486116 
L 645.990054 232.48813 
L 648.710325 232.489845 
L 651.430596 232.491307 
L 654.150867 232.492553 
L 656.871138 232.493615 
L 659.591408 232.494523 
L 662.311679 232.495298 
L 665.03195 232.495961 
L 667.752221 232.496528 
L 670.472492 232.497013 
L 673.192763 232.497429 
L 675.913034 232.497785 
L 678.633305 232.498091 
L 681.353576 232.498353 
L 684.073846 232.498578 
L 686.794117 232.498772 
L 689.514388 232.498939 
L 692.234659 232.499082 
" style="fill:none;stroke:#9fc857;stroke-linecap:square;stroke-width:1.5;"/>
   </g>
   <g id="patch_7">
    <path d="M 409.4625 242.2 
L 409.4625 28.8 
" style="fill:none;stroke:#000000;stroke-linecap:square;stroke-linejoin:miter;stroke-width:0.8;"/>
   </g>
   <g id="patch_8">
    <path d="M 409.4625 242.2 
L 705.7 242.2 
" style="fill:none;stroke:#000000;stroke-linecap:square;stroke-linejoin:miter;stroke-width:0.8;"/>
   </g>
   <g id="text_36">
    <!-- f-distribution -->
    <g transform="translate(506.29625 22.8)scale(0.16 -0.16)">
     <use xlink:href="#DejaVuSans-66"/>
     <use x="35.126953" xlink:href="#DejaVuSans-2d"/>
     <use x="71.210938" xlink:href="#DejaVuSans-64"/>
     <use x="134.6875" xlink:href="#DejaVuSans-69"/>
     <use x="162.470703" xlink:href="#DejaVuSans-73"/>
     <use x="214.570312" xlink:href="#DejaVuSans-74"/>
     <use x="253.779297" xlink:href="#DejaVuSans-72"/>
     <use x="294.892578" xlink:href="#DejaVuSans-69"/>
     <use x="322.675781" xlink:href="#DejaVuSans-62"/>
     <use x="386.152344" xlink:href="#DejaVuSans-75"/>
     <use x="449.53125" xlink:href="#DejaVuSans-74"/>
     <use x="488.740234" xlink:href="#DejaVuSans-69"/>
     <use x="516.523438" xlink:href="#DejaVuSans-6f"/>
     <use x="577.705078" xlink:href="#DejaVuSans-6e"/>
    </g>
   </g>
   <g id="legend_2">
    <g id="patch_9">
     <path d="M 608.842188 95.5125 
L 698.7 95.5125 
Q 700.7 95.5125 700.7 93.5125 
L 700.7 35.8 
Q 700.7 33.8 698.7 33.8 
L 608.842188 33.8 
Q 606.842188 33.8 606.842188 35.8 
L 606.842188 93.5125 
Q 606.842188 95.5125 608.842188 95.5125 
z
" style="fill:#ffffff;opacity:0.8;stroke:#cccccc;stroke-linejoin:miter;"/>
    </g>
    <g id="line2d_43">
     <path d="M 610.842188 41.898438 
L 630.842188 41.898438 
" style="fill:none;stroke:#00bfff;stroke-linecap:square;stroke-width:1.5;"/>
    </g>
    <g id="line2d_44"/>
    <g id="text_37">
     <!-- df=(2, 4) -->
     <defs>
      <path d="M 31 75.875 
Q 24.46875 64.65625 21.28125 53.65625 
Q 18.109375 42.671875 18.109375 31.390625 
Q 18.109375 20.125 21.3125 9.0625 
Q 24.515625 -2 31 -13.1875 
L 23.1875 -13.1875 
Q 15.875 -1.703125 12.234375 9.375 
Q 8.59375 20.453125 8.59375 31.390625 
Q 8.59375 42.28125 12.203125 53.3125 
Q 15.828125 64.359375 23.1875 75.875 
z
" id="DejaVuSans-28"/>
      <path d="M 11.71875 12.40625 
L 22.015625 12.40625 
L 22.015625 4 
L 14.015625 -11.625 
L 7.71875 -11.625 
L 11.71875 4 
z
" id="DejaVuSans-2c"/>
      <path d="M 8.015625 75.875 
L 15.828125 75.875 
Q 23.140625 64.359375 26.78125 53.3125 
Q 30.421875 42.28125 30.421875 31.390625 
Q 30.421875 20.453125 26.78125 9.375 
Q 23.140625 -1.703125 15.828125 -13.1875 
L 8.015625 -13.1875 
Q 14.5 -2 17.703125 9.0625 
Q 20.90625 20.125 20.90625 31.390625 
Q 20.90625 42.671875 17.703125 53.65625 
Q 14.5 64.65625 8.015625 75.875 
z
" id="DejaVuSans-29"/>
     </defs>
     <g transform="translate(638.842188 45.398438)scale(0.1 -0.1)">
      <use xlink:href="#DejaVuSans-64"/>
      <use x="63.476562" xlink:href="#DejaVuSans-66"/>
      <use x="98.681641" xlink:href="#DejaVuSans-3d"/>
      <use x="182.470703" xlink:href="#DejaVuSans-28"/>
      <use x="221.484375" xlink:href="#DejaVuSans-32"/>
      <use x="285.107422" xlink:href="#DejaVuSans-2c"/>
      <use x="316.894531" xlink:href="#DejaVuSans-20"/>
      <use x="348.681641" xlink:href="#DejaVuSans-34"/>
      <use x="412.304688" xlink:href="#DejaVuSans-29"/>
     </g>
    </g>
    <g id="line2d_45">
     <path d="M 610.842188 56.576562 
L 630.842188 56.576562 
" style="fill:none;stroke:#fbc15e;stroke-linecap:square;stroke-width:1.5;"/>
    </g>
    <g id="line2d_46"/>
    <g id="text_38">
     <!-- df=(3, 4) -->
     <g transform="translate(638.842188 60.076562)scale(0.1 -0.1)">
      <use xlink:href="#DejaVuSans-64"/>
      <use x="63.476562" xlink:href="#DejaVuSans-66"/>
      <use x="98.681641" xlink:href="#DejaVuSans-3d"/>
      <use x="182.470703" xlink:href="#DejaVuSans-28"/>
      <use x="221.484375" xlink:href="#DejaVuSans-33"/>
      <use x="285.107422" xlink:href="#DejaVuSans-2c"/>
      <use x="316.894531" xlink:href="#DejaVuSans-20"/>
      <use x="348.681641" xlink:href="#DejaVuSans-34"/>
      <use x="412.304688" xlink:href="#DejaVuSans-29"/>
     </g>
    </g>
    <g id="line2d_47">
     <path d="M 610.842188 71.254687 
L 630.842188 71.254687 
" style="fill:none;stroke:#fb4c52;stroke-linecap:square;stroke-width:1.5;"/>
    </g>
    <g id="line2d_48"/>
    <g id="text_39">
     <!-- df=(8, 10) -->
     <g transform="translate(638.842188 74.754687)scale(0.1 -0.1)">
      <use xlink:href="#DejaVuSans-64"/>
      <use x="63.476562" xlink:href="#DejaVuSans-66"/>
      <use x="98.681641" xlink:href="#DejaVuSans-3d"/>
      <use x="182.470703" xlink:href="#DejaVuSans-28"/>
      <use x="221.484375" xlink:href="#DejaVuSans-38"/>
      <use x="285.107422" xlink:href="#DejaVuSans-2c"/>
      <use x="316.894531" xlink:href="#DejaVuSans-20"/>
      <use x="348.681641" xlink:href="#DejaVuSans-31"/>
      <use x="412.304688" xlink:href="#DejaVuSans-30"/>
      <use x="475.927734" xlink:href="#DejaVuSans-29"/>
     </g>
    </g>
    <g id="line2d_49">
     <path d="M 610.842188 85.932813 
L 630.842188 85.932813 
" style="fill:none;stroke:#9fc857;stroke-linecap:square;stroke-width:1.5;"/>
    </g>
    <g id="line2d_50"/>
    <g id="text_40">
     <!-- df=(20, 50) -->
     <g transform="translate(638.842188 89.432813)scale(0.1 -0.1)">
      <use xlink:href="#DejaVuSans-64"/>
      <use x="63.476562" xlink:href="#DejaVuSans-66"/>
      <use x="98.681641" xlink:href="#DejaVuSans-3d"/>
      <use x="182.470703" xlink:href="#DejaVuSans-28"/>
      <use x="221.484375" xlink:href="#DejaVuSans-32"/>
      <use x="285.107422" xlink:href="#DejaVuSans-30"/>
      <use x="348.730469" xlink:href="#DejaVuSans-2c"/>
      <use x="380.517578" xlink:href="#DejaVuSans-20"/>
      <use x="412.304688" xlink:href="#DejaVuSans-35"/>
      <use x="475.927734" xlink:href="#DejaVuSans-30"/>
      <use x="539.550781" xlink:href="#DejaVuSans-29"/>
     </g>
    </g>
   </g>
  </g>
 </g>
 <defs>
  <clipPath id="p6e9372df7c">
   <rect height="213.4" width="296.2375" x="58.05" y="28.8"/>
  </clipPath>
  <clipPath id="pde33c5ba36">
   <rect height="213.4" width="296.2375" x="409.4625" y="28.8"/>
  </clipPath>
 </defs>
</svg>
