<?xml version="1.0" encoding="utf-8"?>
<!-- Generator: Adobe Illustrator 16.0.4, SVG Export Plug-In . SVG Version: 6.00 Build 0)  -->
<!DOCTYPE svg PUBLIC "-//W3C//DTD SVG 1.1//EN" "http://www.w3.org/Graphics/SVG/1.1/DTD/svg11.dtd">
<svg version="1.1" id="Layer_1" xmlns="http://www.w3.org/2000/svg" xmlns:xlink="http://www.w3.org/1999/xlink" x="0px" y="0px"
	 width="510.236px" height="311.811px" viewBox="0 0 510.236 311.811" enable-background="new 0 0 510.236 311.811"
	 xml:space="preserve">
<g id="independent">
	<g>
		<g>
			<text transform="matrix(1 0 0 1 58.8711 147.6067)" font-family="'Helvetica-Bold'" font-size="20">SS</text>
			<text transform="matrix(1 0 0 1 85.5508 154.2668)" font-family="'Helvetica-Bold'" font-size="11.66">Groups</text>
			<text transform="matrix(1 0 0 1 49.5781 169.6067)" font-family="'Helvetica'" font-size="12">Between groups</text>
			<text transform="matrix(1 0 0 1 67.9326 183.6067)" font-family="'Helvetica'" font-size="12">variability</text>
			<path fill="none" stroke="#FB4C52" stroke-width="3" stroke-miterlimit="10" d="M166.94,163.461
				c0,15.655-12.691,28.347-28.347,28.347H47.287c-15.656,0-28.347-12.688-28.347-28.347v-7.136c0-15.655,12.691-28.35,28.347-28.35
				h91.307c15.655,0,28.347,12.69,28.347,28.35L166.94,163.461L166.94,163.461z"/>
		</g>
		<g>
			<text transform="matrix(1 0 0 1 244.1104 147.6067)" font-family="'Helvetica-Bold'" font-size="20">SS</text>
			<text transform="matrix(1 0 0 1 270.79 154.2668)" font-family="'Helvetica-Bold'" font-size="11.66">Within</text>
			<text transform="matrix(1 0 0 1 235.0234 169.6067)" font-family="'Helvetica'" font-size="12">Within groups</text>
			<text transform="matrix(1 0 0 1 246.6992 183.6067)" font-family="'Helvetica'" font-size="12">variability</text>
			<path fill="none" stroke="#00BFFF" stroke-width="3" stroke-miterlimit="10" d="M345.706,163.46
				c0,15.656-12.691,28.348-28.347,28.348h-91.306c-15.656,0-28.347-12.688-28.347-28.348v-7.135
				c0-15.656,12.691-28.35,28.347-28.35h91.306c15.651,0,28.347,12.689,28.347,28.35V163.46z"/>
		</g>
	</g>
	<g>
		<text transform="matrix(1 0 0 1 155.0576 37.8997)" font-family="'Helvetica-Bold'" font-size="20">SS</text>
		<text transform="matrix(1 0 0 1 181.7373 44.5598)" font-family="'Helvetica-Bold'" font-size="11.66">Total</text>
		<text transform="matrix(1 0 0 1 142.3096 59.8997)" font-family="'Helvetica'" font-size="12">Total variability</text>
		<path fill="none" stroke="#FBC15E" stroke-width="3" stroke-miterlimit="10" d="M256.323,46.754
			c0,15.655-12.691,28.347-28.347,28.347H136.67c-15.656,0-28.347-12.688-28.347-28.347v-7.135
			c0-15.656,12.691-28.351,28.347-28.351h91.307c15.655,0,28.347,12.691,28.347,28.351L256.323,46.754L256.323,46.754z"/>
	</g>
	<g>
		<g>
			<g>
				<path d="M164.169,82.579c0,0-1.015,1.874-2.539,4.686c-1.527,2.812-3.585,6.542-5.688,10.246
					c-1.042,1.857-2.085,3.716-3.062,5.457c-0.962,1.751-1.86,3.386-2.63,4.786c-0.79,1.389-1.493,2.519-2.016,3.29
					c-0.51,0.779-0.824,1.211-0.824,1.211l-2.494-1.538c0,0,0.245-0.475,0.713-1.279c0.455-0.812,1.149-1.945,2.035-3.274
					c0.907-1.316,1.964-2.854,3.097-4.498c1.118-1.655,2.31-3.421,3.502-5.188c2.366-3.542,4.777-7.056,6.603-9.682
					c1.829-2.623,3.048-4.372,3.048-4.372L164.169,82.579z"/>
				<g>
					<polygon points="140.604,120.5 143.249,104.597 146.58,110.812 153.628,110.998 					"/>
				</g>
			</g>
		</g>
		<g>
			<g>
				<path d="M200.732,82.421c0,0,1.219,1.749,3.048,4.372c1.826,2.626,4.237,6.14,6.603,9.682c1.192,1.77,2.384,3.531,3.502,5.188
					c1.133,1.646,2.19,3.182,3.098,4.498c0.885,1.329,1.58,2.464,2.034,3.274c0.468,0.809,0.713,1.279,0.713,1.279l-2.494,1.538
					c0,0-0.313-0.433-0.823-1.211c-0.523-0.771-1.226-1.901-2.016-3.29c-0.77-1.4-1.667-3.035-2.63-4.786
					c-0.977-1.741-2.02-3.6-3.062-5.457c-2.103-3.704-4.161-7.437-5.688-10.246c-1.523-2.812-2.539-4.686-2.539-4.686
					L200.732,82.421z"/>
				<g>
					<polygon points="224.042,120.5 211.017,110.999 218.066,110.812 221.396,104.598 					"/>
				</g>
			</g>
		</g>
	</g>
	<g>
		<text transform="matrix(1 0 0 1 301.4258 99.6487)" font-family="'Helvetica'" font-size="14.575">Independent samples</text>
		<text transform="matrix(1 0 0 1 345.5986 115.6487)" font-family="'Helvetica'" font-size="14.575">ANOVA</text>
		<g>
			<g>
				
					<line fill="none" stroke="#000000" stroke-width="3" stroke-linecap="round" stroke-linejoin="round" x1="355.169" y1="7.095" x2="358.169" y2="7.095"/>
				
					<line fill="none" stroke="#000000" stroke-width="3" stroke-linecap="round" stroke-linejoin="round" stroke-dasharray="5.335,4.4458" x1="362.614" y1="7.095" x2="370.173" y2="7.095"/>
				<polyline fill="none" stroke="#000000" stroke-width="3" stroke-linecap="round" stroke-linejoin="round" points="
					372.396,7.095 375.396,7.095 375.396,10.095 				"/>
				
					<line fill="none" stroke="#000000" stroke-width="3" stroke-linecap="round" stroke-linejoin="round" stroke-dasharray="6.2228,5.1857" x1="375.396" y1="15.281" x2="375.396" y2="69.73"/>
				
					<line fill="none" stroke="#000000" stroke-width="3" stroke-linecap="round" stroke-linejoin="round" x1="375.396" y1="72.323" x2="375.396" y2="75.323"/>
			</g>
		</g>
		<g>
			<g>
				
					<line fill="none" stroke="#000000" stroke-width="3" stroke-linecap="round" stroke-linejoin="round" x1="355.169" y1="195.323" x2="358.169" y2="195.323"/>
				
					<line fill="none" stroke="#000000" stroke-width="3" stroke-linecap="round" stroke-linejoin="round" stroke-dasharray="5.335,4.4458" x1="362.614" y1="195.323" x2="370.173" y2="195.323"/>
				<polyline fill="none" stroke="#000000" stroke-width="3" stroke-linecap="round" stroke-linejoin="round" points="
					372.396,195.323 375.396,195.323 375.396,192.323 				"/>
				
					<line fill="none" stroke="#000000" stroke-width="3" stroke-linecap="round" stroke-linejoin="round" stroke-dasharray="6.2229,5.1857" x1="375.396" y1="187.138" x2="375.396" y2="132.687"/>
				
					<line fill="none" stroke="#000000" stroke-width="3" stroke-linecap="round" stroke-linejoin="round" x1="375.396" y1="130.095" x2="375.396" y2="127.095"/>
			</g>
		</g>
	</g>
</g>
<g id="dependent">
	<g>
		<g>
			<text transform="matrix(1 0 0 1 153.0991 264.3137)" font-family="'Helvetica-Bold'" font-size="20">SS</text>
			<text transform="matrix(1 0 0 1 179.7788 270.9739)" font-family="'Helvetica-Bold'" font-size="11.66">Subjects</text>
			<text transform="matrix(1 0 0 1 150.3906 286.3137)" font-family="'Helvetica'" font-size="12">Within subjects</text>
			<text transform="matrix(1 0 0 1 165.7305 300.3137)" font-family="'Helvetica'" font-size="12">variability</text>
			<path fill="none" stroke="#CE4AD0" stroke-width="3" stroke-miterlimit="10" d="M264.739,280.168
				c0,15.655-12.692,28.347-28.348,28.347h-91.307c-15.656,0-28.347-12.688-28.347-28.347v-7.136c0-15.655,12.69-28.35,28.347-28.35
				h91.307c15.655,0,28.348,12.69,28.348,28.35V280.168z"/>
		</g>
		<g>
			<text transform="matrix(1 0 0 1 327.7422 264.3137)" font-family="'Helvetica-Bold'" font-size="20">SS</text>
			<text transform="matrix(1 0 0 1 354.4219 270.9739)" font-family="'Helvetica-Bold'" font-size="11.66">Error</text>
			<text transform="matrix(1 0 0 1 318.6562 286.3137)" font-family="'Helvetica'" font-size="12">Within groups</text>
			<text transform="matrix(1 0 0 1 330.3301 300.3137)" font-family="'Helvetica'" font-size="12">variability</text>
			<path fill="none" stroke="#00BFFF" stroke-width="3" stroke-miterlimit="10" d="M429.339,280.168
				c0,15.655-12.688,28.347-28.347,28.347h-91.311c-15.651,0-28.347-12.688-28.347-28.347v-7.136
				c0-15.655,12.688-28.35,28.347-28.35h91.311c15.654,0,28.347,12.69,28.347,28.35V280.168z"/>
		</g>
	</g>
	<g>
		<g>
			<g>
				<path d="M254.885,199.579c0,0-1.016,1.874-2.539,4.686c-1.526,2.812-3.585,6.542-5.688,10.246
					c-1.042,1.857-2.085,3.716-3.062,5.457c-0.962,1.751-1.859,3.386-2.629,4.786c-0.791,1.389-1.493,2.519-2.016,3.29
					c-0.511,0.779-0.824,1.211-0.824,1.211l-2.494-1.538c0,0,0.245-0.475,0.713-1.279c0.455-0.812,1.148-1.949,2.035-3.274
					c0.906-1.316,1.964-2.854,3.097-4.498c1.117-1.655,2.31-3.421,3.502-5.188c2.366-3.542,4.777-7.056,6.603-9.682
					c1.829-2.623,3.048-4.372,3.048-4.372L254.885,199.579z"/>
				<g>
					<polygon points="231.319,237.5 233.964,221.597 237.295,227.812 244.343,227.998 					"/>
				</g>
			</g>
		</g>
		<g>
			<g>
				<path d="M291.446,199.421c0,0,1.22,1.749,3.049,4.372c1.824,2.626,4.236,6.14,6.604,9.682c1.191,1.77,2.385,3.531,3.502,5.188
					c1.133,1.646,2.189,3.182,3.1,4.498c0.887,1.329,1.58,2.464,2.035,3.274c0.468,0.809,0.713,1.279,0.713,1.279l-2.494,1.538
					c0,0-0.313-0.433-0.824-1.211c-0.521-0.771-1.229-1.901-2.02-3.29c-0.77-1.4-1.663-3.035-2.629-4.786
					c-0.978-1.741-2.021-3.6-3.062-5.457c-2.104-3.704-4.162-7.437-5.688-10.246c-1.521-2.812-2.539-4.686-2.539-4.686
					L291.446,199.421z"/>
				<g>
					<polygon points="314.757,237.5 301.731,227.999 308.781,227.812 312.111,221.598 					"/>
				</g>
			</g>
		</g>
	</g>
	<g>
		<path fill="none" stroke="#B4B4B4" stroke-width="3" stroke-miterlimit="10" d="M345.706,163.46
			c0,15.656-12.691,28.348-28.347,28.348h-91.306c-15.656,0-28.347-12.688-28.347-28.348v-7.135c0-15.656,12.691-28.35,28.347-28.35
			h91.306c15.651,0,28.347,12.689,28.347,28.35V163.46z"/>
	</g>
</g>
<g id="labels">
	<g>
		<text transform="matrix(1 0 0 1 392.4854 156.6409)" font-family="'Helvetica'" font-size="14.575">Repeated measures</text>
		<text transform="matrix(1 0 0 1 432.5986 172.6409)" font-family="'Helvetica'" font-size="14.575">ANOVA</text>
		<g>
			<g>
				
					<line fill="none" stroke="#000000" stroke-width="3" stroke-linecap="round" stroke-linejoin="round" x1="437.426" y1="7.095" x2="440.426" y2="7.095"/>
				
					<line fill="none" stroke="#000000" stroke-width="3" stroke-linecap="round" stroke-linejoin="round" stroke-dasharray="5.335,4.4458" x1="444.871" y1="7.095" x2="452.43" y2="7.095"/>
				<polyline fill="none" stroke="#000000" stroke-width="3" stroke-linecap="round" stroke-linejoin="round" points="
					454.652,7.095 457.652,7.095 457.652,10.095 				"/>
				
					<line fill="none" stroke="#000000" stroke-width="3" stroke-linecap="round" stroke-linejoin="round" stroke-dasharray="5.8554,4.8795" x1="457.652" y1="14.974" x2="457.652" y2="119.883"/>
				
					<line fill="none" stroke="#000000" stroke-width="3" stroke-linecap="round" stroke-linejoin="round" x1="457.652" y1="122.323" x2="457.652" y2="125.323"/>
			</g>
		</g>
		<g>
			<g>
				
					<line fill="none" stroke="#000000" stroke-width="3" stroke-linecap="round" stroke-linejoin="round" x1="437.426" y1="308.322" x2="440.426" y2="308.322"/>
				
					<line fill="none" stroke="#000000" stroke-width="3" stroke-linecap="round" stroke-linejoin="round" stroke-dasharray="5.335,4.4458" x1="444.871" y1="308.322" x2="452.43" y2="308.322"/>
				<polyline fill="none" stroke="#000000" stroke-width="3" stroke-linecap="round" stroke-linejoin="round" points="
					454.652,308.322 457.652,308.322 457.652,305.322 				"/>
				
					<line fill="none" stroke="#000000" stroke-width="3" stroke-linecap="round" stroke-linejoin="round" stroke-dasharray="5.8554,4.8795" x1="457.652" y1="300.442" x2="457.652" y2="195.533"/>
				
					<line fill="none" stroke="#000000" stroke-width="3" stroke-linecap="round" stroke-linejoin="round" x1="457.652" y1="193.094" x2="457.652" y2="190.094"/>
			</g>
		</g>
	</g>
</g>
<g id="cross">
	
		<line fill="none" stroke="#000000" stroke-width="7" stroke-linecap="round" stroke-miterlimit="10" x1="108.323" y1="252.683" x2="271.706" y2="302.238"/>
	
		<line fill="none" stroke="#000000" stroke-width="7" stroke-linecap="round" stroke-miterlimit="10" x1="271.706" y1="252.683" x2="108.323" y2="302.238"/>
</g>
</svg>
