<?xml version="1.0" encoding="utf-8" standalone="no"?>
<!DOCTYPE svg PUBLIC "-//W3C//DTD SVG 1.1//EN"
  "http://www.w3.org/Graphics/SVG/1.1/DTD/svg11.dtd">
<!-- Created with matplotlib (http://matplotlib.org/) -->
<svg height="288pt" version="1.1" viewBox="0 0 576 288" width="576pt" xmlns="http://www.w3.org/2000/svg" xmlns:xlink="http://www.w3.org/1999/xlink">
 <defs>
  <style type="text/css">
*{stroke-linecap:butt;stroke-linejoin:round;}
  </style>
 </defs>
 <g id="figure_1">
  <g id="patch_1">
   <path d="M 0 288 
L 576 288 
L 576 0 
L 0 0 
z
" style="fill:none;"/>
  </g>
  <g id="axes_1">
   <g id="patch_2">
    <path d="M 57.6 247.68 
L 403.2 247.68 
L 403.2 8.64 
L 57.6 8.64 
z
" style="fill:none;"/>
   </g>
   <g id="matplotlib.axis_1">
    <g id="xtick_1">
     <g id="line2d_1">
      <defs>
       <path d="M 0 0 
L 0 4 
" id="m2150333b0b" style="stroke:#222222;"/>
      </defs>
      <g>
       <use style="fill:#222222;stroke:#222222;" x="82.116683" xlink:href="#m2150333b0b" y="247.68"/>
      </g>
     </g>
     <g id="text_1">
      <!-- NONE -->
      <defs>
       <path d="M 9.8125 72.90625 
L 23.09375 72.90625 
L 55.421875 11.921875 
L 55.421875 72.90625 
L 64.984375 72.90625 
L 64.984375 0 
L 51.703125 0 
L 19.390625 60.984375 
L 19.390625 0 
L 9.8125 0 
z
" id="DejaVuSans-4e"/>
       <path d="M 39.40625 66.21875 
Q 28.65625 66.21875 22.328125 58.203125 
Q 16.015625 50.203125 16.015625 36.375 
Q 16.015625 22.609375 22.328125 14.59375 
Q 28.65625 6.59375 39.40625 6.59375 
Q 50.140625 6.59375 56.421875 14.59375 
Q 62.703125 22.609375 62.703125 36.375 
Q 62.703125 50.203125 56.421875 58.203125 
Q 50.140625 66.21875 39.40625 66.21875 
z
M 39.40625 74.21875 
Q 54.734375 74.21875 63.90625 63.9375 
Q 73.09375 53.65625 73.09375 36.375 
Q 73.09375 19.140625 63.90625 8.859375 
Q 54.734375 -1.421875 39.40625 -1.421875 
Q 24.03125 -1.421875 14.8125 8.828125 
Q 5.609375 19.09375 5.609375 36.375 
Q 5.609375 53.65625 14.8125 63.9375 
Q 24.03125 74.21875 39.40625 74.21875 
z
" id="DejaVuSans-4f"/>
       <path d="M 9.8125 72.90625 
L 55.90625 72.90625 
L 55.90625 64.59375 
L 19.671875 64.59375 
L 19.671875 43.015625 
L 54.390625 43.015625 
L 54.390625 34.71875 
L 19.671875 34.71875 
L 19.671875 8.296875 
L 56.78125 8.296875 
L 56.78125 0 
L 9.8125 0 
z
" id="DejaVuSans-45"/>
      </defs>
      <g style="fill:#222222;" transform="translate(63.167152 265.557969)scale(0.13 -0.13)">
       <use xlink:href="#DejaVuSans-4e"/>
       <use x="74.804688" xlink:href="#DejaVuSans-4f"/>
       <use x="153.515625" xlink:href="#DejaVuSans-4e"/>
       <use x="228.320312" xlink:href="#DejaVuSans-45"/>
      </g>
     </g>
    </g>
    <g id="xtick_2">
     <g id="line2d_2">
      <g>
       <use style="fill:#222222;stroke:#222222;" x="180.656799" xlink:href="#m2150333b0b" y="247.68"/>
      </g>
     </g>
     <g id="text_2">
      <!-- LOW -->
      <defs>
       <path d="M 9.8125 72.90625 
L 19.671875 72.90625 
L 19.671875 8.296875 
L 55.171875 8.296875 
L 55.171875 0 
L 9.8125 0 
z
" id="DejaVuSans-4c"/>
       <path d="M 3.328125 72.90625 
L 13.28125 72.90625 
L 28.609375 11.28125 
L 43.890625 72.90625 
L 54.984375 72.90625 
L 70.3125 11.28125 
L 85.59375 72.90625 
L 95.609375 72.90625 
L 77.296875 0 
L 64.890625 0 
L 49.515625 63.28125 
L 33.984375 0 
L 21.578125 0 
z
" id="DejaVuSans-57"/>
      </defs>
      <g style="fill:#222222;" transform="translate(165.494534 265.557969)scale(0.13 -0.13)">
       <use xlink:href="#DejaVuSans-4c"/>
       <use x="55.666016" xlink:href="#DejaVuSans-4f"/>
       <use x="134.376953" xlink:href="#DejaVuSans-57"/>
      </g>
     </g>
    </g>
    <g id="xtick_3">
     <g id="line2d_3">
      <g>
       <use style="fill:#222222;stroke:#222222;" x="279.196916" xlink:href="#m2150333b0b" y="247.68"/>
      </g>
     </g>
     <g id="text_3">
      <!-- MEDIUM -->
      <defs>
       <path d="M 9.8125 72.90625 
L 24.515625 72.90625 
L 43.109375 23.296875 
L 61.8125 72.90625 
L 76.515625 72.90625 
L 76.515625 0 
L 66.890625 0 
L 66.890625 64.015625 
L 48.09375 14.015625 
L 38.1875 14.015625 
L 19.390625 64.015625 
L 19.390625 0 
L 9.8125 0 
z
" id="DejaVuSans-4d"/>
       <path d="M 19.671875 64.796875 
L 19.671875 8.109375 
L 31.59375 8.109375 
Q 46.6875 8.109375 53.6875 14.9375 
Q 60.6875 21.78125 60.6875 36.53125 
Q 60.6875 51.171875 53.6875 57.984375 
Q 46.6875 64.796875 31.59375 64.796875 
z
M 9.8125 72.90625 
L 30.078125 72.90625 
Q 51.265625 72.90625 61.171875 64.09375 
Q 71.09375 55.28125 71.09375 36.53125 
Q 71.09375 17.671875 61.125 8.828125 
Q 51.171875 0 30.078125 0 
L 9.8125 0 
z
" id="DejaVuSans-44"/>
       <path d="M 9.8125 72.90625 
L 19.671875 72.90625 
L 19.671875 0 
L 9.8125 0 
z
" id="DejaVuSans-49"/>
       <path d="M 8.6875 72.90625 
L 18.609375 72.90625 
L 18.609375 28.609375 
Q 18.609375 16.890625 22.84375 11.734375 
Q 27.09375 6.59375 36.625 6.59375 
Q 46.09375 6.59375 50.34375 11.734375 
Q 54.59375 16.890625 54.59375 28.609375 
L 54.59375 72.90625 
L 64.5 72.90625 
L 64.5 27.390625 
Q 64.5 13.140625 57.4375 5.859375 
Q 50.390625 -1.421875 36.625 -1.421875 
Q 22.796875 -1.421875 15.734375 5.859375 
Q 8.6875 13.140625 8.6875 27.390625 
z
" id="DejaVuSans-55"/>
      </defs>
      <g style="fill:#222222;" transform="translate(252.193478 265.557969)scale(0.13 -0.13)">
       <use xlink:href="#DejaVuSans-4d"/>
       <use x="86.279297" xlink:href="#DejaVuSans-45"/>
       <use x="149.462891" xlink:href="#DejaVuSans-44"/>
       <use x="226.464844" xlink:href="#DejaVuSans-49"/>
       <use x="255.957031" xlink:href="#DejaVuSans-55"/>
       <use x="329.150391" xlink:href="#DejaVuSans-4d"/>
      </g>
     </g>
    </g>
    <g id="xtick_4">
     <g id="line2d_4">
      <g>
       <use style="fill:#222222;stroke:#222222;" x="377.737032" xlink:href="#m2150333b0b" y="247.68"/>
      </g>
     </g>
     <g id="text_4">
      <!-- HIGH -->
      <defs>
       <path d="M 9.8125 72.90625 
L 19.671875 72.90625 
L 19.671875 43.015625 
L 55.515625 43.015625 
L 55.515625 72.90625 
L 65.375 72.90625 
L 65.375 0 
L 55.515625 0 
L 55.515625 34.71875 
L 19.671875 34.71875 
L 19.671875 0 
L 9.8125 0 
z
" id="DejaVuSans-48"/>
       <path d="M 59.515625 10.40625 
L 59.515625 29.984375 
L 43.40625 29.984375 
L 43.40625 38.09375 
L 69.28125 38.09375 
L 69.28125 6.78125 
Q 63.578125 2.734375 56.6875 0.65625 
Q 49.8125 -1.421875 42 -1.421875 
Q 24.90625 -1.421875 15.25 8.5625 
Q 5.609375 18.5625 5.609375 36.375 
Q 5.609375 54.25 15.25 64.234375 
Q 24.90625 74.21875 42 74.21875 
Q 49.125 74.21875 55.546875 72.453125 
Q 61.96875 70.703125 67.390625 67.28125 
L 67.390625 56.78125 
Q 61.921875 61.421875 55.765625 63.765625 
Q 49.609375 66.109375 42.828125 66.109375 
Q 29.4375 66.109375 22.71875 58.640625 
Q 16.015625 51.171875 16.015625 36.375 
Q 16.015625 21.625 22.71875 14.15625 
Q 29.4375 6.6875 42.828125 6.6875 
Q 48.046875 6.6875 52.140625 7.59375 
Q 56.25 8.5 59.515625 10.40625 
z
" id="DejaVuSans-47"/>
      </defs>
      <g style="fill:#222222;" transform="translate(361.006641 265.557969)scale(0.13 -0.13)">
       <use xlink:href="#DejaVuSans-48"/>
       <use x="75.195312" xlink:href="#DejaVuSans-49"/>
       <use x="104.6875" xlink:href="#DejaVuSans-47"/>
       <use x="182.177734" xlink:href="#DejaVuSans-48"/>
      </g>
     </g>
    </g>
    <g id="text_5">
     <!-- Noise Level -->
     <defs>
      <path d="M 30.609375 48.390625 
Q 23.390625 48.390625 19.1875 42.75 
Q 14.984375 37.109375 14.984375 27.296875 
Q 14.984375 17.484375 19.15625 11.84375 
Q 23.34375 6.203125 30.609375 6.203125 
Q 37.796875 6.203125 41.984375 11.859375 
Q 46.1875 17.53125 46.1875 27.296875 
Q 46.1875 37.015625 41.984375 42.703125 
Q 37.796875 48.390625 30.609375 48.390625 
z
M 30.609375 56 
Q 42.328125 56 49.015625 48.375 
Q 55.71875 40.765625 55.71875 27.296875 
Q 55.71875 13.875 49.015625 6.21875 
Q 42.328125 -1.421875 30.609375 -1.421875 
Q 18.84375 -1.421875 12.171875 6.21875 
Q 5.515625 13.875 5.515625 27.296875 
Q 5.515625 40.765625 12.171875 48.375 
Q 18.84375 56 30.609375 56 
z
" id="DejaVuSans-6f"/>
      <path d="M 9.421875 54.6875 
L 18.40625 54.6875 
L 18.40625 0 
L 9.421875 0 
z
M 9.421875 75.984375 
L 18.40625 75.984375 
L 18.40625 64.59375 
L 9.421875 64.59375 
z
" id="DejaVuSans-69"/>
      <path d="M 44.28125 53.078125 
L 44.28125 44.578125 
Q 40.484375 46.53125 36.375 47.5 
Q 32.28125 48.484375 27.875 48.484375 
Q 21.1875 48.484375 17.84375 46.4375 
Q 14.5 44.390625 14.5 40.28125 
Q 14.5 37.15625 16.890625 35.375 
Q 19.28125 33.59375 26.515625 31.984375 
L 29.59375 31.296875 
Q 39.15625 29.25 43.1875 25.515625 
Q 47.21875 21.78125 47.21875 15.09375 
Q 47.21875 7.46875 41.1875 3.015625 
Q 35.15625 -1.421875 24.609375 -1.421875 
Q 20.21875 -1.421875 15.453125 -0.5625 
Q 10.6875 0.296875 5.421875 2 
L 5.421875 11.28125 
Q 10.40625 8.6875 15.234375 7.390625 
Q 20.0625 6.109375 24.8125 6.109375 
Q 31.15625 6.109375 34.5625 8.28125 
Q 37.984375 10.453125 37.984375 14.40625 
Q 37.984375 18.0625 35.515625 20.015625 
Q 33.0625 21.96875 24.703125 23.78125 
L 21.578125 24.515625 
Q 13.234375 26.265625 9.515625 29.90625 
Q 5.8125 33.546875 5.8125 39.890625 
Q 5.8125 47.609375 11.28125 51.796875 
Q 16.75 56 26.8125 56 
Q 31.78125 56 36.171875 55.265625 
Q 40.578125 54.546875 44.28125 53.078125 
z
" id="DejaVuSans-73"/>
      <path d="M 56.203125 29.59375 
L 56.203125 25.203125 
L 14.890625 25.203125 
Q 15.484375 15.921875 20.484375 11.0625 
Q 25.484375 6.203125 34.421875 6.203125 
Q 39.59375 6.203125 44.453125 7.46875 
Q 49.3125 8.734375 54.109375 11.28125 
L 54.109375 2.78125 
Q 49.265625 0.734375 44.1875 -0.34375 
Q 39.109375 -1.421875 33.890625 -1.421875 
Q 20.796875 -1.421875 13.15625 6.1875 
Q 5.515625 13.8125 5.515625 26.8125 
Q 5.515625 40.234375 12.765625 48.109375 
Q 20.015625 56 32.328125 56 
Q 43.359375 56 49.78125 48.890625 
Q 56.203125 41.796875 56.203125 29.59375 
z
M 47.21875 32.234375 
Q 47.125 39.59375 43.09375 43.984375 
Q 39.0625 48.390625 32.421875 48.390625 
Q 24.90625 48.390625 20.390625 44.140625 
Q 15.875 39.890625 15.1875 32.171875 
z
" id="DejaVuSans-65"/>
      <path id="DejaVuSans-20"/>
      <path d="M 2.984375 54.6875 
L 12.5 54.6875 
L 29.59375 8.796875 
L 46.6875 54.6875 
L 56.203125 54.6875 
L 35.6875 0 
L 23.484375 0 
z
" id="DejaVuSans-76"/>
      <path d="M 9.421875 75.984375 
L 18.40625 75.984375 
L 18.40625 0 
L 9.421875 0 
z
" id="DejaVuSans-6c"/>
     </defs>
     <g style="fill:#222222;" transform="translate(184.40625 284.419062)scale(0.16 -0.16)">
      <use xlink:href="#DejaVuSans-4e"/>
      <use x="74.804688" xlink:href="#DejaVuSans-6f"/>
      <use x="135.986328" xlink:href="#DejaVuSans-69"/>
      <use x="163.769531" xlink:href="#DejaVuSans-73"/>
      <use x="215.869141" xlink:href="#DejaVuSans-65"/>
      <use x="277.392578" xlink:href="#DejaVuSans-20"/>
      <use x="309.179688" xlink:href="#DejaVuSans-4c"/>
      <use x="364.876953" xlink:href="#DejaVuSans-65"/>
      <use x="426.400391" xlink:href="#DejaVuSans-76"/>
      <use x="485.580078" xlink:href="#DejaVuSans-65"/>
      <use x="547.103516" xlink:href="#DejaVuSans-6c"/>
     </g>
    </g>
   </g>
   <g id="matplotlib.axis_2">
    <g id="ytick_1">
     <g id="line2d_5">
      <defs>
       <path d="M 0 0 
L -4 0 
" id="mb0616bd3a2" style="stroke:#222222;"/>
      </defs>
      <g>
       <use style="fill:#222222;stroke:#222222;" x="57.6" xlink:href="#mb0616bd3a2" y="247.68"/>
      </g>
     </g>
     <g id="text_6">
      <!-- 0 -->
      <defs>
       <path d="M 31.78125 66.40625 
Q 24.171875 66.40625 20.328125 58.90625 
Q 16.5 51.421875 16.5 36.375 
Q 16.5 21.390625 20.328125 13.890625 
Q 24.171875 6.390625 31.78125 6.390625 
Q 39.453125 6.390625 43.28125 13.890625 
Q 47.125 21.390625 47.125 36.375 
Q 47.125 51.421875 43.28125 58.90625 
Q 39.453125 66.40625 31.78125 66.40625 
z
M 31.78125 74.21875 
Q 44.046875 74.21875 50.515625 64.515625 
Q 56.984375 54.828125 56.984375 36.375 
Q 56.984375 17.96875 50.515625 8.265625 
Q 44.046875 -1.421875 31.78125 -1.421875 
Q 19.53125 -1.421875 13.0625 8.265625 
Q 6.59375 17.96875 6.59375 36.375 
Q 6.59375 54.828125 13.0625 64.515625 
Q 19.53125 74.21875 31.78125 74.21875 
z
" id="DejaVuSans-30"/>
      </defs>
      <g style="fill:#222222;" transform="translate(41.32875 252.618984)scale(0.13 -0.13)">
       <use xlink:href="#DejaVuSans-30"/>
      </g>
     </g>
    </g>
    <g id="ytick_2">
     <g id="line2d_6">
      <g>
       <use style="fill:#222222;stroke:#222222;" x="57.6" xlink:href="#mb0616bd3a2" y="220.204138"/>
      </g>
     </g>
     <g id="text_7">
      <!-- 10 -->
      <defs>
       <path d="M 12.40625 8.296875 
L 28.515625 8.296875 
L 28.515625 63.921875 
L 10.984375 60.40625 
L 10.984375 69.390625 
L 28.421875 72.90625 
L 38.28125 72.90625 
L 38.28125 8.296875 
L 54.390625 8.296875 
L 54.390625 0 
L 12.40625 0 
z
" id="DejaVuSans-31"/>
      </defs>
      <g style="fill:#222222;" transform="translate(33.0575 225.143122)scale(0.13 -0.13)">
       <use xlink:href="#DejaVuSans-31"/>
       <use x="63.623047" xlink:href="#DejaVuSans-30"/>
      </g>
     </g>
    </g>
    <g id="ytick_3">
     <g id="line2d_7">
      <g>
       <use style="fill:#222222;stroke:#222222;" x="57.6" xlink:href="#mb0616bd3a2" y="192.728276"/>
      </g>
     </g>
     <g id="text_8">
      <!-- 20 -->
      <defs>
       <path d="M 19.1875 8.296875 
L 53.609375 8.296875 
L 53.609375 0 
L 7.328125 0 
L 7.328125 8.296875 
Q 12.9375 14.109375 22.625 23.890625 
Q 32.328125 33.6875 34.8125 36.53125 
Q 39.546875 41.84375 41.421875 45.53125 
Q 43.3125 49.21875 43.3125 52.78125 
Q 43.3125 58.59375 39.234375 62.25 
Q 35.15625 65.921875 28.609375 65.921875 
Q 23.96875 65.921875 18.8125 64.3125 
Q 13.671875 62.703125 7.8125 59.421875 
L 7.8125 69.390625 
Q 13.765625 71.78125 18.9375 73 
Q 24.125 74.21875 28.421875 74.21875 
Q 39.75 74.21875 46.484375 68.546875 
Q 53.21875 62.890625 53.21875 53.421875 
Q 53.21875 48.921875 51.53125 44.890625 
Q 49.859375 40.875 45.40625 35.40625 
Q 44.1875 33.984375 37.640625 27.21875 
Q 31.109375 20.453125 19.1875 8.296875 
z
" id="DejaVuSans-32"/>
      </defs>
      <g style="fill:#222222;" transform="translate(33.0575 197.66726)scale(0.13 -0.13)">
       <use xlink:href="#DejaVuSans-32"/>
       <use x="63.623047" xlink:href="#DejaVuSans-30"/>
      </g>
     </g>
    </g>
    <g id="ytick_4">
     <g id="line2d_8">
      <g>
       <use style="fill:#222222;stroke:#222222;" x="57.6" xlink:href="#mb0616bd3a2" y="165.252414"/>
      </g>
     </g>
     <g id="text_9">
      <!-- 30 -->
      <defs>
       <path d="M 40.578125 39.3125 
Q 47.65625 37.796875 51.625 33 
Q 55.609375 28.21875 55.609375 21.1875 
Q 55.609375 10.40625 48.1875 4.484375 
Q 40.765625 -1.421875 27.09375 -1.421875 
Q 22.515625 -1.421875 17.65625 -0.515625 
Q 12.796875 0.390625 7.625 2.203125 
L 7.625 11.71875 
Q 11.71875 9.328125 16.59375 8.109375 
Q 21.484375 6.890625 26.8125 6.890625 
Q 36.078125 6.890625 40.9375 10.546875 
Q 45.796875 14.203125 45.796875 21.1875 
Q 45.796875 27.640625 41.28125 31.265625 
Q 36.765625 34.90625 28.71875 34.90625 
L 20.21875 34.90625 
L 20.21875 43.015625 
L 29.109375 43.015625 
Q 36.375 43.015625 40.234375 45.921875 
Q 44.09375 48.828125 44.09375 54.296875 
Q 44.09375 59.90625 40.109375 62.90625 
Q 36.140625 65.921875 28.71875 65.921875 
Q 24.65625 65.921875 20.015625 65.03125 
Q 15.375 64.15625 9.8125 62.3125 
L 9.8125 71.09375 
Q 15.4375 72.65625 20.34375 73.4375 
Q 25.25 74.21875 29.59375 74.21875 
Q 40.828125 74.21875 47.359375 69.109375 
Q 53.90625 64.015625 53.90625 55.328125 
Q 53.90625 49.265625 50.4375 45.09375 
Q 46.96875 40.921875 40.578125 39.3125 
z
" id="DejaVuSans-33"/>
      </defs>
      <g style="fill:#222222;" transform="translate(33.0575 170.191398)scale(0.13 -0.13)">
       <use xlink:href="#DejaVuSans-33"/>
       <use x="63.623047" xlink:href="#DejaVuSans-30"/>
      </g>
     </g>
    </g>
    <g id="ytick_5">
     <g id="line2d_9">
      <g>
       <use style="fill:#222222;stroke:#222222;" x="57.6" xlink:href="#mb0616bd3a2" y="137.776552"/>
      </g>
     </g>
     <g id="text_10">
      <!-- 40 -->
      <defs>
       <path d="M 37.796875 64.3125 
L 12.890625 25.390625 
L 37.796875 25.390625 
z
M 35.203125 72.90625 
L 47.609375 72.90625 
L 47.609375 25.390625 
L 58.015625 25.390625 
L 58.015625 17.1875 
L 47.609375 17.1875 
L 47.609375 0 
L 37.796875 0 
L 37.796875 17.1875 
L 4.890625 17.1875 
L 4.890625 26.703125 
z
" id="DejaVuSans-34"/>
      </defs>
      <g style="fill:#222222;" transform="translate(33.0575 142.715536)scale(0.13 -0.13)">
       <use xlink:href="#DejaVuSans-34"/>
       <use x="63.623047" xlink:href="#DejaVuSans-30"/>
      </g>
     </g>
    </g>
    <g id="ytick_6">
     <g id="line2d_10">
      <g>
       <use style="fill:#222222;stroke:#222222;" x="57.6" xlink:href="#mb0616bd3a2" y="110.30069"/>
      </g>
     </g>
     <g id="text_11">
      <!-- 50 -->
      <defs>
       <path d="M 10.796875 72.90625 
L 49.515625 72.90625 
L 49.515625 64.59375 
L 19.828125 64.59375 
L 19.828125 46.734375 
Q 21.96875 47.46875 24.109375 47.828125 
Q 26.265625 48.1875 28.421875 48.1875 
Q 40.625 48.1875 47.75 41.5 
Q 54.890625 34.8125 54.890625 23.390625 
Q 54.890625 11.625 47.5625 5.09375 
Q 40.234375 -1.421875 26.90625 -1.421875 
Q 22.3125 -1.421875 17.546875 -0.640625 
Q 12.796875 0.140625 7.71875 1.703125 
L 7.71875 11.625 
Q 12.109375 9.234375 16.796875 8.0625 
Q 21.484375 6.890625 26.703125 6.890625 
Q 35.15625 6.890625 40.078125 11.328125 
Q 45.015625 15.765625 45.015625 23.390625 
Q 45.015625 31 40.078125 35.4375 
Q 35.15625 39.890625 26.703125 39.890625 
Q 22.75 39.890625 18.8125 39.015625 
Q 14.890625 38.140625 10.796875 36.28125 
z
" id="DejaVuSans-35"/>
      </defs>
      <g style="fill:#222222;" transform="translate(33.0575 115.239674)scale(0.13 -0.13)">
       <use xlink:href="#DejaVuSans-35"/>
       <use x="63.623047" xlink:href="#DejaVuSans-30"/>
      </g>
     </g>
    </g>
    <g id="ytick_7">
     <g id="line2d_11">
      <g>
       <use style="fill:#222222;stroke:#222222;" x="57.6" xlink:href="#mb0616bd3a2" y="82.824828"/>
      </g>
     </g>
     <g id="text_12">
      <!-- 60 -->
      <defs>
       <path d="M 33.015625 40.375 
Q 26.375 40.375 22.484375 35.828125 
Q 18.609375 31.296875 18.609375 23.390625 
Q 18.609375 15.53125 22.484375 10.953125 
Q 26.375 6.390625 33.015625 6.390625 
Q 39.65625 6.390625 43.53125 10.953125 
Q 47.40625 15.53125 47.40625 23.390625 
Q 47.40625 31.296875 43.53125 35.828125 
Q 39.65625 40.375 33.015625 40.375 
z
M 52.59375 71.296875 
L 52.59375 62.3125 
Q 48.875 64.0625 45.09375 64.984375 
Q 41.3125 65.921875 37.59375 65.921875 
Q 27.828125 65.921875 22.671875 59.328125 
Q 17.53125 52.734375 16.796875 39.40625 
Q 19.671875 43.65625 24.015625 45.921875 
Q 28.375 48.1875 33.59375 48.1875 
Q 44.578125 48.1875 50.953125 41.515625 
Q 57.328125 34.859375 57.328125 23.390625 
Q 57.328125 12.15625 50.6875 5.359375 
Q 44.046875 -1.421875 33.015625 -1.421875 
Q 20.359375 -1.421875 13.671875 8.265625 
Q 6.984375 17.96875 6.984375 36.375 
Q 6.984375 53.65625 15.1875 63.9375 
Q 23.390625 74.21875 37.203125 74.21875 
Q 40.921875 74.21875 44.703125 73.484375 
Q 48.484375 72.75 52.59375 71.296875 
z
" id="DejaVuSans-36"/>
      </defs>
      <g style="fill:#222222;" transform="translate(33.0575 87.763812)scale(0.13 -0.13)">
       <use xlink:href="#DejaVuSans-36"/>
       <use x="63.623047" xlink:href="#DejaVuSans-30"/>
      </g>
     </g>
    </g>
    <g id="ytick_8">
     <g id="line2d_12">
      <g>
       <use style="fill:#222222;stroke:#222222;" x="57.6" xlink:href="#mb0616bd3a2" y="55.348966"/>
      </g>
     </g>
     <g id="text_13">
      <!-- 70 -->
      <defs>
       <path d="M 8.203125 72.90625 
L 55.078125 72.90625 
L 55.078125 68.703125 
L 28.609375 0 
L 18.3125 0 
L 43.21875 64.59375 
L 8.203125 64.59375 
z
" id="DejaVuSans-37"/>
      </defs>
      <g style="fill:#222222;" transform="translate(33.0575 60.28795)scale(0.13 -0.13)">
       <use xlink:href="#DejaVuSans-37"/>
       <use x="63.623047" xlink:href="#DejaVuSans-30"/>
      </g>
     </g>
    </g>
    <g id="ytick_9">
     <g id="line2d_13">
      <g>
       <use style="fill:#222222;stroke:#222222;" x="57.6" xlink:href="#mb0616bd3a2" y="27.873103"/>
      </g>
     </g>
     <g id="text_14">
      <!-- 80 -->
      <defs>
       <path d="M 31.78125 34.625 
Q 24.75 34.625 20.71875 30.859375 
Q 16.703125 27.09375 16.703125 20.515625 
Q 16.703125 13.921875 20.71875 10.15625 
Q 24.75 6.390625 31.78125 6.390625 
Q 38.8125 6.390625 42.859375 10.171875 
Q 46.921875 13.96875 46.921875 20.515625 
Q 46.921875 27.09375 42.890625 30.859375 
Q 38.875 34.625 31.78125 34.625 
z
M 21.921875 38.8125 
Q 15.578125 40.375 12.03125 44.71875 
Q 8.5 49.078125 8.5 55.328125 
Q 8.5 64.0625 14.71875 69.140625 
Q 20.953125 74.21875 31.78125 74.21875 
Q 42.671875 74.21875 48.875 69.140625 
Q 55.078125 64.0625 55.078125 55.328125 
Q 55.078125 49.078125 51.53125 44.71875 
Q 48 40.375 41.703125 38.8125 
Q 48.828125 37.15625 52.796875 32.3125 
Q 56.78125 27.484375 56.78125 20.515625 
Q 56.78125 9.90625 50.3125 4.234375 
Q 43.84375 -1.421875 31.78125 -1.421875 
Q 19.734375 -1.421875 13.25 4.234375 
Q 6.78125 9.90625 6.78125 20.515625 
Q 6.78125 27.484375 10.78125 32.3125 
Q 14.796875 37.15625 21.921875 38.8125 
z
M 18.3125 54.390625 
Q 18.3125 48.734375 21.84375 45.5625 
Q 25.390625 42.390625 31.78125 42.390625 
Q 38.140625 42.390625 41.71875 45.5625 
Q 45.3125 48.734375 45.3125 54.390625 
Q 45.3125 60.0625 41.71875 63.234375 
Q 38.140625 66.40625 31.78125 66.40625 
Q 25.390625 66.40625 21.84375 63.234375 
Q 18.3125 60.0625 18.3125 54.390625 
z
" id="DejaVuSans-38"/>
      </defs>
      <g style="fill:#222222;" transform="translate(33.0575 32.812088)scale(0.13 -0.13)">
       <use xlink:href="#DejaVuSans-38"/>
       <use x="63.623047" xlink:href="#DejaVuSans-30"/>
      </g>
     </g>
    </g>
    <g id="text_15">
     <!-- Performance score -->
     <defs>
      <path d="M 19.671875 64.796875 
L 19.671875 37.40625 
L 32.078125 37.40625 
Q 38.96875 37.40625 42.71875 40.96875 
Q 46.484375 44.53125 46.484375 51.125 
Q 46.484375 57.671875 42.71875 61.234375 
Q 38.96875 64.796875 32.078125 64.796875 
z
M 9.8125 72.90625 
L 32.078125 72.90625 
Q 44.34375 72.90625 50.609375 67.359375 
Q 56.890625 61.8125 56.890625 51.125 
Q 56.890625 40.328125 50.609375 34.8125 
Q 44.34375 29.296875 32.078125 29.296875 
L 19.671875 29.296875 
L 19.671875 0 
L 9.8125 0 
z
" id="DejaVuSans-50"/>
      <path d="M 41.109375 46.296875 
Q 39.59375 47.171875 37.8125 47.578125 
Q 36.03125 48 33.890625 48 
Q 26.265625 48 22.1875 43.046875 
Q 18.109375 38.09375 18.109375 28.8125 
L 18.109375 0 
L 9.078125 0 
L 9.078125 54.6875 
L 18.109375 54.6875 
L 18.109375 46.1875 
Q 20.953125 51.171875 25.484375 53.578125 
Q 30.03125 56 36.53125 56 
Q 37.453125 56 38.578125 55.875 
Q 39.703125 55.765625 41.0625 55.515625 
z
" id="DejaVuSans-72"/>
      <path d="M 37.109375 75.984375 
L 37.109375 68.5 
L 28.515625 68.5 
Q 23.6875 68.5 21.796875 66.546875 
Q 19.921875 64.59375 19.921875 59.515625 
L 19.921875 54.6875 
L 34.71875 54.6875 
L 34.71875 47.703125 
L 19.921875 47.703125 
L 19.921875 0 
L 10.890625 0 
L 10.890625 47.703125 
L 2.296875 47.703125 
L 2.296875 54.6875 
L 10.890625 54.6875 
L 10.890625 58.5 
Q 10.890625 67.625 15.140625 71.796875 
Q 19.390625 75.984375 28.609375 75.984375 
z
" id="DejaVuSans-66"/>
      <path d="M 52 44.1875 
Q 55.375 50.25 60.0625 53.125 
Q 64.75 56 71.09375 56 
Q 79.640625 56 84.28125 50.015625 
Q 88.921875 44.046875 88.921875 33.015625 
L 88.921875 0 
L 79.890625 0 
L 79.890625 32.71875 
Q 79.890625 40.578125 77.09375 44.375 
Q 74.3125 48.1875 68.609375 48.1875 
Q 61.625 48.1875 57.5625 43.546875 
Q 53.515625 38.921875 53.515625 30.90625 
L 53.515625 0 
L 44.484375 0 
L 44.484375 32.71875 
Q 44.484375 40.625 41.703125 44.40625 
Q 38.921875 48.1875 33.109375 48.1875 
Q 26.21875 48.1875 22.15625 43.53125 
Q 18.109375 38.875 18.109375 30.90625 
L 18.109375 0 
L 9.078125 0 
L 9.078125 54.6875 
L 18.109375 54.6875 
L 18.109375 46.1875 
Q 21.1875 51.21875 25.484375 53.609375 
Q 29.78125 56 35.6875 56 
Q 41.65625 56 45.828125 52.96875 
Q 50 49.953125 52 44.1875 
z
" id="DejaVuSans-6d"/>
      <path d="M 34.28125 27.484375 
Q 23.390625 27.484375 19.1875 25 
Q 14.984375 22.515625 14.984375 16.5 
Q 14.984375 11.71875 18.140625 8.90625 
Q 21.296875 6.109375 26.703125 6.109375 
Q 34.1875 6.109375 38.703125 11.40625 
Q 43.21875 16.703125 43.21875 25.484375 
L 43.21875 27.484375 
z
M 52.203125 31.203125 
L 52.203125 0 
L 43.21875 0 
L 43.21875 8.296875 
Q 40.140625 3.328125 35.546875 0.953125 
Q 30.953125 -1.421875 24.3125 -1.421875 
Q 15.921875 -1.421875 10.953125 3.296875 
Q 6 8.015625 6 15.921875 
Q 6 25.140625 12.171875 29.828125 
Q 18.359375 34.515625 30.609375 34.515625 
L 43.21875 34.515625 
L 43.21875 35.40625 
Q 43.21875 41.609375 39.140625 45 
Q 35.0625 48.390625 27.6875 48.390625 
Q 23 48.390625 18.546875 47.265625 
Q 14.109375 46.140625 10.015625 43.890625 
L 10.015625 52.203125 
Q 14.9375 54.109375 19.578125 55.046875 
Q 24.21875 56 28.609375 56 
Q 40.484375 56 46.34375 49.84375 
Q 52.203125 43.703125 52.203125 31.203125 
z
" id="DejaVuSans-61"/>
      <path d="M 54.890625 33.015625 
L 54.890625 0 
L 45.90625 0 
L 45.90625 32.71875 
Q 45.90625 40.484375 42.875 44.328125 
Q 39.84375 48.1875 33.796875 48.1875 
Q 26.515625 48.1875 22.3125 43.546875 
Q 18.109375 38.921875 18.109375 30.90625 
L 18.109375 0 
L 9.078125 0 
L 9.078125 54.6875 
L 18.109375 54.6875 
L 18.109375 46.1875 
Q 21.34375 51.125 25.703125 53.5625 
Q 30.078125 56 35.796875 56 
Q 45.21875 56 50.046875 50.171875 
Q 54.890625 44.34375 54.890625 33.015625 
z
" id="DejaVuSans-6e"/>
      <path d="M 48.78125 52.59375 
L 48.78125 44.1875 
Q 44.96875 46.296875 41.140625 47.34375 
Q 37.3125 48.390625 33.40625 48.390625 
Q 24.65625 48.390625 19.8125 42.84375 
Q 14.984375 37.3125 14.984375 27.296875 
Q 14.984375 17.28125 19.8125 11.734375 
Q 24.65625 6.203125 33.40625 6.203125 
Q 37.3125 6.203125 41.140625 7.25 
Q 44.96875 8.296875 48.78125 10.40625 
L 48.78125 2.09375 
Q 45.015625 0.34375 40.984375 -0.53125 
Q 36.96875 -1.421875 32.421875 -1.421875 
Q 20.0625 -1.421875 12.78125 6.34375 
Q 5.515625 14.109375 5.515625 27.296875 
Q 5.515625 40.671875 12.859375 48.328125 
Q 20.21875 56 33.015625 56 
Q 37.15625 56 41.109375 55.140625 
Q 45.0625 54.296875 48.78125 52.59375 
z
" id="DejaVuSans-63"/>
     </defs>
     <g style="fill:#222222;" transform="translate(25.73 203.48875)rotate(-90)scale(0.16 -0.16)">
      <use xlink:href="#DejaVuSans-50"/>
      <use x="60.255859" xlink:href="#DejaVuSans-65"/>
      <use x="121.779297" xlink:href="#DejaVuSans-72"/>
      <use x="162.892578" xlink:href="#DejaVuSans-66"/>
      <use x="198.097656" xlink:href="#DejaVuSans-6f"/>
      <use x="259.279297" xlink:href="#DejaVuSans-72"/>
      <use x="300.376953" xlink:href="#DejaVuSans-6d"/>
      <use x="397.789062" xlink:href="#DejaVuSans-61"/>
      <use x="459.068359" xlink:href="#DejaVuSans-6e"/>
      <use x="522.447266" xlink:href="#DejaVuSans-63"/>
      <use x="577.427734" xlink:href="#DejaVuSans-65"/>
      <use x="638.951172" xlink:href="#DejaVuSans-20"/>
      <use x="670.738281" xlink:href="#DejaVuSans-73"/>
      <use x="722.837891" xlink:href="#DejaVuSans-63"/>
      <use x="777.818359" xlink:href="#DejaVuSans-6f"/>
      <use x="839" xlink:href="#DejaVuSans-72"/>
      <use x="880.082031" xlink:href="#DejaVuSans-65"/>
     </g>
    </g>
   </g>
   <g id="patch_3">
    <path d="M 57.6 247.68 
L 57.6 8.64 
" style="fill:none;stroke:#222222;stroke-linecap:square;stroke-linejoin:miter;"/>
   </g>
   <g id="patch_4">
    <path d="M 57.6 247.68 
L 403.2 247.68 
" style="fill:none;stroke:#222222;stroke-linecap:square;stroke-linejoin:miter;"/>
   </g>
  </g>
  <g id="axes_2">
   <g id="line2d_14">
    <defs>
     <path d="M 0 5 
C 1.326016 5 2.597899 4.473168 3.535534 3.535534 
C 4.473168 2.597899 5 1.326016 5 0 
C 5 -1.326016 4.473168 -2.597899 3.535534 -3.535534 
C 2.597899 -4.473168 1.326016 -5 0 -5 
C -1.326016 -5 -2.597899 -4.473168 -3.535534 -3.535534 
C -4.473168 -2.597899 -5 -1.326016 -5 0 
C -5 1.326016 -4.473168 2.597899 -3.535534 3.535534 
C -2.597899 4.473168 -1.326016 5 0 5 
z
" id="mc5a5c3b5dc" style="stroke:#b4b4b4;"/>
    </defs>
    <g clip-path="url(#p6ff0c20b55)">
     <use style="fill-opacity:0;stroke:#b4b4b4;" x="479.676106" xlink:href="#mc5a5c3b5dc" y="101.371034"/>
     <use style="fill-opacity:0;stroke:#b4b4b4;" x="484.58098" xlink:href="#mc5a5c3b5dc" y="91.067586"/>
     <use style="fill-opacity:0;stroke:#b4b4b4;" x="452.125342" xlink:href="#mc5a5c3b5dc" y="91.754483"/>
     <use style="fill-opacity:0;stroke:#b4b4b4;" x="483.596625" xlink:href="#mc5a5c3b5dc" y="132.968276"/>
     <use style="fill-opacity:0;stroke:#b4b4b4;" x="458.466651" xlink:href="#mc5a5c3b5dc" y="108.24"/>
     <use style="fill-opacity:0;stroke:#b4b4b4;" x="454.314556" xlink:href="#mc5a5c3b5dc" y="106.17931"/>
     <use style="fill-opacity:0;stroke:#b4b4b4;" x="473.360579" xlink:href="#mc5a5c3b5dc" y="97.249655"/>
     <use style="fill-opacity:0;stroke:#b4b4b4;" x="485.637929" xlink:href="#mc5a5c3b5dc" y="97.936552"/>
     <use style="fill-opacity:0;stroke:#b4b4b4;" x="460.640404" xlink:href="#mc5a5c3b5dc" y="103.431724"/>
     <use style="fill-opacity:0;stroke:#b4b4b4;" x="492.409844" xlink:href="#mc5a5c3b5dc" y="95.188966"/>
     <use style="fill-opacity:0;stroke:#b4b4b4;" x="480.360185" xlink:href="#mc5a5c3b5dc" y="94.502069"/>
     <use style="fill-opacity:0;stroke:#b4b4b4;" x="485.415387" xlink:href="#mc5a5c3b5dc" y="89.006897"/>
     <use style="fill-opacity:0;stroke:#b4b4b4;" x="486.845595" xlink:href="#mc5a5c3b5dc" y="111.674483"/>
     <use style="fill-opacity:0;stroke:#b4b4b4;" x="442.978457" xlink:href="#mc5a5c3b5dc" y="110.987586"/>
     <use style="fill-opacity:0;stroke:#b4b4b4;" x="465.027152" xlink:href="#mc5a5c3b5dc" y="124.725517"/>
     <use style="fill-opacity:0;stroke:#b4b4b4;" x="456.326326" xlink:href="#mc5a5c3b5dc" y="101.371034"/>
     <use style="fill-opacity:0;stroke:#b4b4b4;" x="482.831602" xlink:href="#mc5a5c3b5dc" y="95.188966"/>
     <use style="fill-opacity:0;stroke:#b4b4b4;" x="492.018395" xlink:href="#mc5a5c3b5dc" y="106.17931"/>
     <use style="fill-opacity:0;stroke:#b4b4b4;" x="451.312474" xlink:href="#mc5a5c3b5dc" y="105.492414"/>
     <use style="fill-opacity:0;stroke:#b4b4b4;" x="466.727818" xlink:href="#mc5a5c3b5dc" y="106.866207"/>
    </g>
   </g>
   <g id="line2d_15">
    <path clip-path="url(#p6ff0c20b55)" d="M 408.96 103.569103 
L 524.16 103.569103 
" style="fill:none;stroke:#ff8b22;stroke-dasharray:5.55,2.4;stroke-dashoffset:0;stroke-width:1.5;"/>
   </g>
   <g id="text_16">
    <!-- Mean for each subject -->
    <defs>
     <path d="M 54.890625 33.015625 
L 54.890625 0 
L 45.90625 0 
L 45.90625 32.71875 
Q 45.90625 40.484375 42.875 44.328125 
Q 39.84375 48.1875 33.796875 48.1875 
Q 26.515625 48.1875 22.3125 43.546875 
Q 18.109375 38.921875 18.109375 30.90625 
L 18.109375 0 
L 9.078125 0 
L 9.078125 75.984375 
L 18.109375 75.984375 
L 18.109375 46.1875 
Q 21.34375 51.125 25.703125 53.5625 
Q 30.078125 56 35.796875 56 
Q 45.21875 56 50.046875 50.171875 
Q 54.890625 44.34375 54.890625 33.015625 
z
" id="DejaVuSans-68"/>
     <path d="M 8.5 21.578125 
L 8.5 54.6875 
L 17.484375 54.6875 
L 17.484375 21.921875 
Q 17.484375 14.15625 20.5 10.265625 
Q 23.53125 6.390625 29.59375 6.390625 
Q 36.859375 6.390625 41.078125 11.03125 
Q 45.3125 15.671875 45.3125 23.6875 
L 45.3125 54.6875 
L 54.296875 54.6875 
L 54.296875 0 
L 45.3125 0 
L 45.3125 8.40625 
Q 42.046875 3.421875 37.71875 1 
Q 33.40625 -1.421875 27.6875 -1.421875 
Q 18.265625 -1.421875 13.375 4.4375 
Q 8.5 10.296875 8.5 21.578125 
z
M 31.109375 56 
z
" id="DejaVuSans-75"/>
     <path d="M 48.6875 27.296875 
Q 48.6875 37.203125 44.609375 42.84375 
Q 40.53125 48.484375 33.40625 48.484375 
Q 26.265625 48.484375 22.1875 42.84375 
Q 18.109375 37.203125 18.109375 27.296875 
Q 18.109375 17.390625 22.1875 11.75 
Q 26.265625 6.109375 33.40625 6.109375 
Q 40.53125 6.109375 44.609375 11.75 
Q 48.6875 17.390625 48.6875 27.296875 
z
M 18.109375 46.390625 
Q 20.953125 51.265625 25.265625 53.625 
Q 29.59375 56 35.59375 56 
Q 45.5625 56 51.78125 48.09375 
Q 58.015625 40.1875 58.015625 27.296875 
Q 58.015625 14.40625 51.78125 6.484375 
Q 45.5625 -1.421875 35.59375 -1.421875 
Q 29.59375 -1.421875 25.265625 0.953125 
Q 20.953125 3.328125 18.109375 8.203125 
L 18.109375 0 
L 9.078125 0 
L 9.078125 75.984375 
L 18.109375 75.984375 
z
" id="DejaVuSans-62"/>
     <path d="M 9.421875 54.6875 
L 18.40625 54.6875 
L 18.40625 -0.984375 
Q 18.40625 -11.421875 14.421875 -16.109375 
Q 10.453125 -20.796875 1.609375 -20.796875 
L -1.8125 -20.796875 
L -1.8125 -13.1875 
L 0.59375 -13.1875 
Q 5.71875 -13.1875 7.5625 -10.8125 
Q 9.421875 -8.453125 9.421875 -0.984375 
z
M 9.421875 75.984375 
L 18.40625 75.984375 
L 18.40625 64.59375 
L 9.421875 64.59375 
z
" id="DejaVuSans-6a"/>
     <path d="M 18.3125 70.21875 
L 18.3125 54.6875 
L 36.8125 54.6875 
L 36.8125 47.703125 
L 18.3125 47.703125 
L 18.3125 18.015625 
Q 18.3125 11.328125 20.140625 9.421875 
Q 21.96875 7.515625 27.59375 7.515625 
L 36.8125 7.515625 
L 36.8125 0 
L 27.59375 0 
Q 17.1875 0 13.234375 3.875 
Q 9.28125 7.765625 9.28125 18.015625 
L 9.28125 47.703125 
L 2.6875 47.703125 
L 2.6875 54.6875 
L 9.28125 54.6875 
L 9.28125 70.21875 
z
" id="DejaVuSans-74"/>
    </defs>
    <g transform="translate(383.389687 37.351738)scale(0.15 -0.15)">
     <use xlink:href="#DejaVuSans-4d"/>
     <use x="86.279297" xlink:href="#DejaVuSans-65"/>
     <use x="147.802734" xlink:href="#DejaVuSans-61"/>
     <use x="209.082031" xlink:href="#DejaVuSans-6e"/>
     <use x="272.460938" xlink:href="#DejaVuSans-20"/>
     <use x="304.248047" xlink:href="#DejaVuSans-66"/>
     <use x="339.453125" xlink:href="#DejaVuSans-6f"/>
     <use x="400.634766" xlink:href="#DejaVuSans-72"/>
     <use x="441.748047" xlink:href="#DejaVuSans-20"/>
     <use x="473.535156" xlink:href="#DejaVuSans-65"/>
     <use x="535.058594" xlink:href="#DejaVuSans-61"/>
     <use x="596.337891" xlink:href="#DejaVuSans-63"/>
     <use x="651.318359" xlink:href="#DejaVuSans-68"/>
     <use x="714.697266" xlink:href="#DejaVuSans-20"/>
     <use x="746.484375" xlink:href="#DejaVuSans-73"/>
     <use x="798.583984" xlink:href="#DejaVuSans-75"/>
     <use x="861.962891" xlink:href="#DejaVuSans-62"/>
     <use x="925.439453" xlink:href="#DejaVuSans-6a"/>
     <use x="953.222656" xlink:href="#DejaVuSans-65"/>
     <use x="1014.746094" xlink:href="#DejaVuSans-63"/>
     <use x="1069.726562" xlink:href="#DejaVuSans-74"/>
    </g>
    <!-- over all the levels -->
    <g transform="translate(399.868594 54.148456)scale(0.15 -0.15)">
     <use xlink:href="#DejaVuSans-6f"/>
     <use x="61.181641" xlink:href="#DejaVuSans-76"/>
     <use x="120.361328" xlink:href="#DejaVuSans-65"/>
     <use x="181.884766" xlink:href="#DejaVuSans-72"/>
     <use x="222.998047" xlink:href="#DejaVuSans-20"/>
     <use x="254.785156" xlink:href="#DejaVuSans-61"/>
     <use x="316.064453" xlink:href="#DejaVuSans-6c"/>
     <use x="343.847656" xlink:href="#DejaVuSans-6c"/>
     <use x="371.630859" xlink:href="#DejaVuSans-20"/>
     <use x="403.417969" xlink:href="#DejaVuSans-74"/>
     <use x="442.626953" xlink:href="#DejaVuSans-68"/>
     <use x="506.005859" xlink:href="#DejaVuSans-65"/>
     <use x="567.529297" xlink:href="#DejaVuSans-20"/>
     <use x="599.316406" xlink:href="#DejaVuSans-6c"/>
     <use x="627.099609" xlink:href="#DejaVuSans-65"/>
     <use x="688.623047" xlink:href="#DejaVuSans-76"/>
     <use x="747.802734" xlink:href="#DejaVuSans-65"/>
     <use x="809.326172" xlink:href="#DejaVuSans-6c"/>
     <use x="837.109375" xlink:href="#DejaVuSans-73"/>
    </g>
   </g>
   <g id="patch_5">
    <path d="M 452.125342 95.992143 
Q 452.125342 99.035152 452.125342 102.07816 
" style="fill:none;stroke:#ce4ad0;stroke-linecap:round;stroke-width:2;"/>
    <path d="M 450.125342 99.992143 
L 452.125342 95.992143 
L 454.125342 99.992143 
" style="fill:none;stroke:#ce4ad0;stroke-linecap:round;stroke-width:2;"/>
    <path d="M 454.125342 98.07816 
L 452.125342 102.07816 
L 450.125342 98.07816 
" style="fill:none;stroke:#ce4ad0;stroke-linecap:round;stroke-width:2;"/>
   </g>
   <g id="patch_6">
    <path d="M 492.409844 99.427263 
Q 492.409844 100.753614 492.409844 102.079964 
" style="fill:none;stroke:#ce4ad0;stroke-linecap:round;stroke-width:2;"/>
    <path d="M 490.409844 103.427263 
L 492.409844 99.427263 
L 494.409844 103.427263 
" style="fill:none;stroke:#ce4ad0;stroke-linecap:round;stroke-width:2;"/>
    <path d="M 494.409844 98.079964 
L 492.409844 102.079964 
L 490.409844 98.079964 
" style="fill:none;stroke:#ce4ad0;stroke-linecap:round;stroke-width:2;"/>
   </g>
   <g id="patch_7">
    <path d="M 483.596625 128.734808 
Q 483.596625 116.895409 483.596625 105.056011 
" style="fill:none;stroke:#ce4ad0;stroke-linecap:round;stroke-width:2;"/>
    <path d="M 485.596625 124.734808 
L 483.596625 128.734808 
L 481.596625 124.734808 
" style="fill:none;stroke:#ce4ad0;stroke-linecap:round;stroke-width:2;"/>
    <path d="M 481.596625 109.056011 
L 483.596625 105.056011 
L 485.596625 109.056011 
" style="fill:none;stroke:#ce4ad0;stroke-linecap:round;stroke-width:2;"/>
   </g>
   <g id="text_17">
    <!-- Grand -->
    <defs>
     <path d="M 45.40625 46.390625 
L 45.40625 75.984375 
L 54.390625 75.984375 
L 54.390625 0 
L 45.40625 0 
L 45.40625 8.203125 
Q 42.578125 3.328125 38.25 0.953125 
Q 33.9375 -1.421875 27.875 -1.421875 
Q 17.96875 -1.421875 11.734375 6.484375 
Q 5.515625 14.40625 5.515625 27.296875 
Q 5.515625 40.1875 11.734375 48.09375 
Q 17.96875 56 27.875 56 
Q 33.9375 56 38.25 53.625 
Q 42.578125 51.265625 45.40625 46.390625 
z
M 14.796875 27.296875 
Q 14.796875 17.390625 18.875 11.75 
Q 22.953125 6.109375 30.078125 6.109375 
Q 37.203125 6.109375 41.296875 11.75 
Q 45.40625 17.390625 45.40625 27.296875 
Q 45.40625 37.203125 41.296875 42.84375 
Q 37.203125 48.484375 30.078125 48.484375 
Q 22.953125 48.484375 18.875 42.84375 
Q 14.796875 37.203125 14.796875 27.296875 
z
" id="DejaVuSans-64"/>
    </defs>
    <g style="fill:#ff8b22;" transform="translate(521.28 99.59376)scale(0.14 -0.14)">
     <use xlink:href="#DejaVuSans-47"/>
     <use x="77.490234" xlink:href="#DejaVuSans-72"/>
     <use x="118.603516" xlink:href="#DejaVuSans-61"/>
     <use x="179.882812" xlink:href="#DejaVuSans-6e"/>
     <use x="243.261719" xlink:href="#DejaVuSans-64"/>
    </g>
    <!-- mean -->
    <g style="fill:#ff8b22;" transform="translate(521.28 115.270697)scale(0.14 -0.14)">
     <use xlink:href="#DejaVuSans-6d"/>
     <use x="97.412109" xlink:href="#DejaVuSans-65"/>
     <use x="158.935547" xlink:href="#DejaVuSans-61"/>
     <use x="220.214844" xlink:href="#DejaVuSans-6e"/>
    </g>
   </g>
   <g id="PathCollection_1">
    <defs>
     <path d="M 0 4.1833 
C 1.109424 4.1833 2.173559 3.742521 2.95804 2.95804 
C 3.742521 2.173559 4.1833 1.109424 4.1833 0 
C 4.1833 -1.109424 3.742521 -2.173559 2.95804 -2.95804 
C 2.173559 -3.742521 1.109424 -4.1833 0 -4.1833 
C -1.109424 -4.1833 -2.173559 -3.742521 -2.95804 -2.95804 
C -3.742521 -2.173559 -4.1833 -1.109424 -4.1833 0 
C -4.1833 1.109424 -3.742521 2.173559 -2.95804 2.95804 
C -2.173559 3.742521 -1.109424 4.1833 0 4.1833 
z
" id="C0_0_bc5fc45d75"/>
    </defs>
    <g clip-path="url(#p6ff0c20b55)">
     <use style="fill:#fb4c52;stroke:#fb4c52;" x="452.125342" xlink:href="#C0_0_bc5fc45d75" y="91.754483"/>
    </g>
    <g clip-path="url(#p6ff0c20b55)">
     <use style="fill:#222222;stroke:#222222;" x="492.409844" xlink:href="#C0_0_bc5fc45d75" y="95.188966"/>
    </g>
    <g clip-path="url(#p6ff0c20b55)">
     <use style="fill:#fbc15e;stroke:#fbc15e;" x="483.596625" xlink:href="#C0_0_bc5fc45d75" y="132.968276"/>
    </g>
   </g>
  </g>
  <g id="axes_3">
   <g id="line2d_16">
    <defs>
     <path d="M 0 5 
C 1.326016 5 2.597899 4.473168 3.535534 3.535534 
C 4.473168 2.597899 5 1.326016 5 0 
C 5 -1.326016 4.473168 -2.597899 3.535534 -3.535534 
C 2.597899 -4.473168 1.326016 -5 0 -5 
C -1.326016 -5 -2.597899 -4.473168 -3.535534 -3.535534 
C -4.473168 -2.597899 -5 -1.326016 -5 0 
C -5 1.326016 -4.473168 2.597899 -3.535534 3.535534 
C -2.597899 4.473168 -1.326016 5 0 5 
z
" id="mb879f4e143" style="stroke:#222222;"/>
    </defs>
    <g clip-path="url(#pa2417f57bb)">
     <use style="fill-opacity:0;stroke:#222222;" x="87.627295" xlink:href="#mb879f4e143" y="121.291034"/>
     <use style="fill-opacity:0;stroke:#222222;" x="175.9043" xlink:href="#mb879f4e143" y="96.562759"/>
     <use style="fill-opacity:0;stroke:#222222;" x="281.088396" xlink:href="#mb879f4e143" y="60.844138"/>
     <use style="fill-opacity:0;stroke:#222222;" x="368.959669" xlink:href="#mb879f4e143" y="126.786207"/>
    </g>
   </g>
   <g id="line2d_17">
    <g clip-path="url(#pa2417f57bb)">
     <use style="fill-opacity:0;stroke:#222222;" x="86.930665" xlink:href="#mb879f4e143" y="126.786207"/>
     <use style="fill-opacity:0;stroke:#222222;" x="182.173254" xlink:href="#mb879f4e143" y="80.077241"/>
     <use style="fill-opacity:0;stroke:#222222;" x="284.920768" xlink:href="#mb879f4e143" y="49.853793"/>
     <use style="fill-opacity:0;stroke:#222222;" x="375.600634" xlink:href="#mb879f4e143" y="107.553103"/>
    </g>
   </g>
   <g id="line2d_18">
    <g clip-path="url(#pa2417f57bb)">
     <use style="fill-opacity:0;stroke:#222222;" x="76.487526" xlink:href="#mb879f4e143" y="107.553103"/>
     <use style="fill-opacity:0;stroke:#222222;" x="185.179682" xlink:href="#mb879f4e143" y="85.572414"/>
     <use style="fill-opacity:0;stroke:#222222;" x="281.468618" xlink:href="#mb879f4e143" y="30.62069"/>
     <use style="fill-opacity:0;stroke:#222222;" x="378.35327" xlink:href="#mb879f4e143" y="143.271724"/>
    </g>
   </g>
   <g id="line2d_19">
    <g clip-path="url(#pa2417f57bb)">
     <use style="fill-opacity:0;stroke:#222222;" x="76.121392" xlink:href="#mb879f4e143" y="154.262069"/>
     <use style="fill-opacity:0;stroke:#222222;" x="188.86789" xlink:href="#mb879f4e143" y="124.038621"/>
     <use style="fill-opacity:0;stroke:#222222;" x="288.179378" xlink:href="#mb879f4e143" y="107.553103"/>
     <use style="fill-opacity:0;stroke:#222222;" x="387.48254" xlink:href="#mb879f4e143" y="146.01931"/>
    </g>
   </g>
   <g id="line2d_20">
    <g clip-path="url(#pa2417f57bb)">
     <use style="fill-opacity:0;stroke:#222222;" x="73.653704" xlink:href="#mb879f4e143" y="96.562759"/>
     <use style="fill-opacity:0;stroke:#222222;" x="174.001129" xlink:href="#mb879f4e143" y="88.32"/>
     <use style="fill-opacity:0;stroke:#222222;" x="285.557157" xlink:href="#mb879f4e143" y="124.038621"/>
     <use style="fill-opacity:0;stroke:#222222;" x="381.258663" xlink:href="#mb879f4e143" y="124.038621"/>
    </g>
   </g>
   <g id="line2d_21">
    <g clip-path="url(#pa2417f57bb)">
     <use style="fill-opacity:0;stroke:#222222;" x="81.201519" xlink:href="#mb879f4e143" y="168"/>
     <use style="fill-opacity:0;stroke:#222222;" x="186.54291" xlink:href="#mb879f4e143" y="71.834483"/>
     <use style="fill-opacity:0;stroke:#222222;" x="282.902521" xlink:href="#mb879f4e143" y="44.358621"/>
     <use style="fill-opacity:0;stroke:#222222;" x="373.115697" xlink:href="#mb879f4e143" y="140.524138"/>
    </g>
   </g>
   <g id="line2d_22">
    <g clip-path="url(#pa2417f57bb)">
     <use style="fill-opacity:0;stroke:#222222;" x="83.395043" xlink:href="#mb879f4e143" y="154.262069"/>
     <use style="fill-opacity:0;stroke:#222222;" x="173.664669" xlink:href="#mb879f4e143" y="82.824828"/>
     <use style="fill-opacity:0;stroke:#222222;" x="283.126383" xlink:href="#mb879f4e143" y="30.62069"/>
     <use style="fill-opacity:0;stroke:#222222;" x="374.824765" xlink:href="#mb879f4e143" y="121.291034"/>
    </g>
   </g>
   <g id="line2d_23">
    <g clip-path="url(#pa2417f57bb)">
     <use style="fill-opacity:0;stroke:#222222;" x="73.309091" xlink:href="#mb879f4e143" y="126.786207"/>
     <use style="fill-opacity:0;stroke:#222222;" x="189.245698" xlink:href="#mb879f4e143" y="91.067586"/>
     <use style="fill-opacity:0;stroke:#222222;" x="287.6522" xlink:href="#mb879f4e143" y="66.33931"/>
     <use style="fill-opacity:0;stroke:#222222;" x="373.70342" xlink:href="#mb879f4e143" y="107.553103"/>
    </g>
   </g>
   <g id="line2d_24">
    <g clip-path="url(#pa2417f57bb)">
     <use style="fill-opacity:0;stroke:#222222;" x="90.119211" xlink:href="#mb879f4e143" y="110.30069"/>
     <use style="fill-opacity:0;stroke:#222222;" x="182.512998" xlink:href="#mb879f4e143" y="80.077241"/>
     <use style="fill-opacity:0;stroke:#222222;" x="283.572435" xlink:href="#mb879f4e143" y="85.572414"/>
     <use style="fill-opacity:0;stroke:#222222;" x="383.926746" xlink:href="#mb879f4e143" y="137.776552"/>
    </g>
   </g>
   <g id="line2d_25">
    <g clip-path="url(#pa2417f57bb)">
     <use style="fill-opacity:0;stroke:#222222;" x="89.485964" xlink:href="#mb879f4e143" y="135.028966"/>
     <use style="fill-opacity:0;stroke:#222222;" x="188.304053" xlink:href="#mb879f4e143" y="74.582069"/>
     <use style="fill-opacity:0;stroke:#222222;" x="282.137475" xlink:href="#mb879f4e143" y="60.844138"/>
     <use style="fill-opacity:0;stroke:#222222;" x="372.814075" xlink:href="#mb879f4e143" y="110.30069"/>
    </g>
   </g>
   <g id="line2d_26">
    <g clip-path="url(#pa2417f57bb)">
     <use style="fill-opacity:0;stroke:#222222;" x="89.930298" xlink:href="#mb879f4e143" y="121.291034"/>
     <use style="fill-opacity:0;stroke:#222222;" x="177.551811" xlink:href="#mb879f4e143" y="88.32"/>
     <use style="fill-opacity:0;stroke:#222222;" x="277.348264" xlink:href="#mb879f4e143" y="49.853793"/>
     <use style="fill-opacity:0;stroke:#222222;" x="376.129104" xlink:href="#mb879f4e143" y="118.543448"/>
    </g>
   </g>
   <g id="line2d_27">
    <g clip-path="url(#pa2417f57bb)">
     <use style="fill-opacity:0;stroke:#222222;" x="77.953723" xlink:href="#mb879f4e143" y="118.543448"/>
     <use style="fill-opacity:0;stroke:#222222;" x="178.991299" xlink:href="#mb879f4e143" y="96.562759"/>
     <use style="fill-opacity:0;stroke:#222222;" x="282.471298" xlink:href="#mb879f4e143" y="44.358621"/>
     <use style="fill-opacity:0;stroke:#222222;" x="372.295783" xlink:href="#mb879f4e143" y="96.562759"/>
    </g>
   </g>
   <g id="line2d_28">
    <g clip-path="url(#pa2417f57bb)">
     <use style="fill-opacity:0;stroke:#222222;" x="83.108164" xlink:href="#mb879f4e143" y="143.271724"/>
     <use style="fill-opacity:0;stroke:#222222;" x="172.461415" xlink:href="#mb879f4e143" y="126.786207"/>
     <use style="fill-opacity:0;stroke:#222222;" x="270.197467" xlink:href="#mb879f4e143" y="55.348966"/>
     <use style="fill-opacity:0;stroke:#222222;" x="387.490909" xlink:href="#mb879f4e143" y="121.291034"/>
    </g>
   </g>
   <g id="line2d_29">
    <g clip-path="url(#pa2417f57bb)">
     <use style="fill-opacity:0;stroke:#222222;" x="73.606317" xlink:href="#mb879f4e143" y="143.271724"/>
     <use style="fill-opacity:0;stroke:#222222;" x="180.149846" xlink:href="#mb879f4e143" y="118.543448"/>
     <use style="fill-opacity:0;stroke:#222222;" x="286.355614" xlink:href="#mb879f4e143" y="80.077241"/>
     <use style="fill-opacity:0;stroke:#222222;" x="384.26543" xlink:href="#mb879f4e143" y="102.057931"/>
    </g>
   </g>
   <g id="line2d_30">
    <g clip-path="url(#pa2417f57bb)">
     <use style="fill-opacity:0;stroke:#222222;" x="80.586027" xlink:href="#mb879f4e143" y="110.30069"/>
     <use style="fill-opacity:0;stroke:#222222;" x="172.784763" xlink:href="#mb879f4e143" y="192.728276"/>
     <use style="fill-opacity:0;stroke:#222222;" x="280.737816" xlink:href="#mb879f4e143" y="88.32"/>
     <use style="fill-opacity:0;stroke:#222222;" x="381.923165" xlink:href="#mb879f4e143" y="107.553103"/>
    </g>
   </g>
   <g id="line2d_31">
    <g clip-path="url(#pa2417f57bb)">
     <use style="fill-opacity:0;stroke:#222222;" x="74.579994" xlink:href="#mb879f4e143" y="121.291034"/>
     <use style="fill-opacity:0;stroke:#222222;" x="173.635533" xlink:href="#mb879f4e143" y="107.553103"/>
     <use style="fill-opacity:0;stroke:#222222;" x="270.622621" xlink:href="#mb879f4e143" y="44.358621"/>
     <use style="fill-opacity:0;stroke:#222222;" x="377.526441" xlink:href="#mb879f4e143" y="132.281379"/>
    </g>
   </g>
   <g id="line2d_32">
    <g clip-path="url(#pa2417f57bb)">
     <use style="fill-opacity:0;stroke:#222222;" x="90.738048" xlink:href="#mb879f4e143" y="126.786207"/>
     <use style="fill-opacity:0;stroke:#222222;" x="176.767897" xlink:href="#mb879f4e143" y="99.310345"/>
     <use style="fill-opacity:0;stroke:#222222;" x="289.025145" xlink:href="#mb879f4e143" y="33.368276"/>
     <use style="fill-opacity:0;stroke:#222222;" x="379.667383" xlink:href="#mb879f4e143" y="121.291034"/>
    </g>
   </g>
   <g id="line2d_33">
    <g clip-path="url(#pa2417f57bb)">
     <use style="fill-opacity:0;stroke:#222222;" x="78.657039" xlink:href="#mb879f4e143" y="143.271724"/>
     <use style="fill-opacity:0;stroke:#222222;" x="185.609115" xlink:href="#mb879f4e143" y="115.795862"/>
     <use style="fill-opacity:0;stroke:#222222;" x="287.791414" xlink:href="#mb879f4e143" y="58.096552"/>
     <use style="fill-opacity:0;stroke:#222222;" x="377.243783" xlink:href="#mb879f4e143" y="107.553103"/>
    </g>
   </g>
   <g id="line2d_34">
    <g clip-path="url(#pa2417f57bb)">
     <use style="fill-opacity:0;stroke:#222222;" x="84.756053" xlink:href="#mb879f4e143" y="137.776552"/>
     <use style="fill-opacity:0;stroke:#222222;" x="184.243429" xlink:href="#mb879f4e143" y="110.30069"/>
     <use style="fill-opacity:0;stroke:#222222;" x="273.154752" xlink:href="#mb879f4e143" y="55.348966"/>
     <use style="fill-opacity:0;stroke:#222222;" x="370.299745" xlink:href="#mb879f4e143" y="118.543448"/>
    </g>
   </g>
   <g id="line2d_35">
    <g clip-path="url(#pa2417f57bb)">
     <use style="fill-opacity:0;stroke:#222222;" x="80.07426" xlink:href="#mb879f4e143" y="121.291034"/>
     <use style="fill-opacity:0;stroke:#222222;" x="180.390323" xlink:href="#mb879f4e143" y="104.805517"/>
     <use style="fill-opacity:0;stroke:#222222;" x="275.404455" xlink:href="#mb879f4e143" y="66.33931"/>
     <use style="fill-opacity:0;stroke:#222222;" x="386.050303" xlink:href="#mb879f4e143" y="135.028966"/>
    </g>
   </g>
  </g>
  <g id="axes_4">
   <g id="line2d_36">
    <path clip-path="url(#pa2417f57bb)" d="M 87.627295 121.291034 
L 175.9043 96.562759 
L 281.088396 60.844138 
L 368.959669 126.786207 
" style="fill:none;stroke:#b4b4b4;stroke-linecap:square;stroke-width:1.5;"/>
   </g>
   <g id="line2d_37">
    <path clip-path="url(#pa2417f57bb)" d="M 86.930665 126.786207 
L 182.173254 80.077241 
L 284.920768 49.853793 
L 375.600634 107.553103 
" style="fill:none;stroke:#b4b4b4;stroke-linecap:square;stroke-width:1.5;"/>
   </g>
   <g id="line2d_38">
    <path clip-path="url(#pa2417f57bb)" d="M 76.487526 107.553103 
L 185.179682 85.572414 
L 281.468618 30.62069 
L 378.35327 143.271724 
" style="fill:none;stroke:#b4b4b4;stroke-linecap:square;stroke-width:1.5;"/>
   </g>
   <g id="line2d_39">
    <path clip-path="url(#pa2417f57bb)" d="M 76.121392 154.262069 
L 188.86789 124.038621 
L 288.179378 107.553103 
L 387.48254 146.01931 
" style="fill:none;stroke:#b4b4b4;stroke-linecap:square;stroke-width:1.5;"/>
   </g>
   <g id="line2d_40">
    <path clip-path="url(#pa2417f57bb)" d="M 73.653704 96.562759 
L 174.001129 88.32 
L 285.557157 124.038621 
L 381.258663 124.038621 
" style="fill:none;stroke:#b4b4b4;stroke-linecap:square;stroke-width:1.5;"/>
   </g>
   <g id="line2d_41">
    <path clip-path="url(#pa2417f57bb)" d="M 81.201519 168 
L 186.54291 71.834483 
L 282.902521 44.358621 
L 373.115697 140.524138 
" style="fill:none;stroke:#b4b4b4;stroke-linecap:square;stroke-width:1.5;"/>
   </g>
   <g id="line2d_42">
    <path clip-path="url(#pa2417f57bb)" d="M 83.395043 154.262069 
L 173.664669 82.824828 
L 283.126383 30.62069 
L 374.824765 121.291034 
" style="fill:none;stroke:#b4b4b4;stroke-linecap:square;stroke-width:1.5;"/>
   </g>
   <g id="line2d_43">
    <path clip-path="url(#pa2417f57bb)" d="M 73.309091 126.786207 
L 189.245698 91.067586 
L 287.6522 66.33931 
L 373.70342 107.553103 
" style="fill:none;stroke:#b4b4b4;stroke-linecap:square;stroke-width:1.5;"/>
   </g>
   <g id="line2d_44">
    <path clip-path="url(#pa2417f57bb)" d="M 90.119211 110.30069 
L 182.512998 80.077241 
L 283.572435 85.572414 
L 383.926746 137.776552 
" style="fill:none;stroke:#b4b4b4;stroke-linecap:square;stroke-width:1.5;"/>
   </g>
   <g id="line2d_45">
    <path clip-path="url(#pa2417f57bb)" d="M 89.485964 135.028966 
L 188.304053 74.582069 
L 282.137475 60.844138 
L 372.814075 110.30069 
" style="fill:none;stroke:#b4b4b4;stroke-linecap:square;stroke-width:1.5;"/>
   </g>
   <g id="line2d_46">
    <path clip-path="url(#pa2417f57bb)" d="M 89.930298 121.291034 
L 177.551811 88.32 
L 277.348264 49.853793 
L 376.129104 118.543448 
" style="fill:none;stroke:#b4b4b4;stroke-linecap:square;stroke-width:1.5;"/>
   </g>
   <g id="line2d_47">
    <path clip-path="url(#pa2417f57bb)" d="M 77.953723 118.543448 
L 178.991299 96.562759 
L 282.471298 44.358621 
L 372.295783 96.562759 
" style="fill:none;stroke:#b4b4b4;stroke-linecap:square;stroke-width:1.5;"/>
   </g>
   <g id="line2d_48">
    <path clip-path="url(#pa2417f57bb)" d="M 83.108164 143.271724 
L 172.461415 126.786207 
L 270.197467 55.348966 
L 387.490909 121.291034 
" style="fill:none;stroke:#b4b4b4;stroke-linecap:square;stroke-width:1.5;"/>
   </g>
   <g id="line2d_49">
    <path clip-path="url(#pa2417f57bb)" d="M 73.606317 143.271724 
L 180.149846 118.543448 
L 286.355614 80.077241 
L 384.26543 102.057931 
" style="fill:none;stroke:#b4b4b4;stroke-linecap:square;stroke-width:1.5;"/>
   </g>
   <g id="line2d_50">
    <path clip-path="url(#pa2417f57bb)" d="M 80.586027 110.30069 
L 172.784763 192.728276 
L 280.737816 88.32 
L 381.923165 107.553103 
" style="fill:none;stroke:#b4b4b4;stroke-linecap:square;stroke-width:1.5;"/>
   </g>
   <g id="line2d_51">
    <path clip-path="url(#pa2417f57bb)" d="M 74.579994 121.291034 
L 173.635533 107.553103 
L 270.622621 44.358621 
L 377.526441 132.281379 
" style="fill:none;stroke:#b4b4b4;stroke-linecap:square;stroke-width:1.5;"/>
   </g>
   <g id="line2d_52">
    <path clip-path="url(#pa2417f57bb)" d="M 90.738048 126.786207 
L 176.767897 99.310345 
L 289.025145 33.368276 
L 379.667383 121.291034 
" style="fill:none;stroke:#b4b4b4;stroke-linecap:square;stroke-width:1.5;"/>
   </g>
   <g id="line2d_53">
    <path clip-path="url(#pa2417f57bb)" d="M 78.657039 143.271724 
L 185.609115 115.795862 
L 287.791414 58.096552 
L 377.243783 107.553103 
" style="fill:none;stroke:#b4b4b4;stroke-linecap:square;stroke-width:1.5;"/>
   </g>
   <g id="line2d_54">
    <path clip-path="url(#pa2417f57bb)" d="M 84.756053 137.776552 
L 184.243429 110.30069 
L 273.154752 55.348966 
L 370.299745 118.543448 
" style="fill:none;stroke:#b4b4b4;stroke-linecap:square;stroke-width:1.5;"/>
   </g>
   <g id="line2d_55">
    <path clip-path="url(#pa2417f57bb)" d="M 80.07426 121.291034 
L 180.390323 104.805517 
L 275.404455 66.33931 
L 386.050303 135.028966 
" style="fill:none;stroke:#b4b4b4;stroke-linecap:square;stroke-width:1.5;"/>
   </g>
  </g>
  <g id="axes_5">
   <g id="line2d_56">
    <path clip-path="url(#pa2417f57bb)" d="M 76.487526 107.553103 
L 185.179682 85.572414 
L 281.468618 30.62069 
L 378.35327 143.271724 
" style="fill:none;stroke:#fb4c52;stroke-linecap:square;stroke-width:2;"/>
   </g>
   <g id="line2d_57">
    <path clip-path="url(#pa2417f57bb)" d="M 89.485964 135.028966 
L 188.304053 74.582069 
L 282.137475 60.844138 
L 372.814075 110.30069 
" style="fill:none;stroke:#222222;stroke-linecap:square;stroke-width:2;"/>
   </g>
   <g id="line2d_58">
    <path clip-path="url(#pa2417f57bb)" d="M 76.121392 154.262069 
L 188.86789 124.038621 
L 288.179378 107.553103 
L 387.48254 146.01931 
" style="fill:none;stroke:#fbc15e;stroke-linecap:square;stroke-width:2;"/>
   </g>
  </g>
 </g>
 <defs>
  <clipPath id="p6ff0c20b55">
   <rect height="239.04" width="115.2" x="408.96" y="8.64"/>
  </clipPath>
  <clipPath id="pa2417f57bb">
   <rect height="239.04" width="345.6" x="57.6" y="8.64"/>
  </clipPath>
 </defs>
</svg>
