<?xml version="1.0" encoding="utf-8" standalone="no"?>
<!DOCTYPE svg PUBLIC "-//W3C//DTD SVG 1.1//EN"
  "http://www.w3.org/Graphics/SVG/1.1/DTD/svg11.dtd">
<!-- Created with matplotlib (http://matplotlib.org/) -->
<svg height="288pt" version="1.1" viewBox="0 0 432 288" width="432pt" xmlns="http://www.w3.org/2000/svg" xmlns:xlink="http://www.w3.org/1999/xlink">
 <defs>
  <style type="text/css">
*{stroke-linecap:butt;stroke-linejoin:round;}
  </style>
 </defs>
 <g id="figure_1">
  <g id="patch_1">
   <path d="M 0 288 
L 432 288 
L 432 0 
L 0 0 
z
" style="fill:none;"/>
  </g>
  <g id="axes_1">
   <g id="patch_2">
    <path d="M 54.3 237.2 
L 396.575 237.2 
L 396.575 14.8 
L 54.3 14.8 
z
" style="fill:none;"/>
   </g>
   <g id="matplotlib.axis_1">
    <g id="xtick_1">
     <g id="line2d_1">
      <defs>
       <path d="M 0 0 
L 0 4 
" id="m6b074795f4" style="stroke:#222222;"/>
      </defs>
      <g>
       <use style="fill:#222222;stroke:#222222;" x="91.904742" xlink:href="#m6b074795f4" y="237.2"/>
      </g>
     </g>
     <g id="text_1">
      <!-- NONE -->
      <defs>
       <path d="M 9.8125 72.90625 
L 23.09375 72.90625 
L 55.421875 11.921875 
L 55.421875 72.90625 
L 64.984375 72.90625 
L 64.984375 0 
L 51.703125 0 
L 19.390625 60.984375 
L 19.390625 0 
L 9.8125 0 
z
" id="DejaVuSans-4e"/>
       <path d="M 39.40625 66.21875 
Q 28.65625 66.21875 22.328125 58.203125 
Q 16.015625 50.203125 16.015625 36.375 
Q 16.015625 22.609375 22.328125 14.59375 
Q 28.65625 6.59375 39.40625 6.59375 
Q 50.140625 6.59375 56.421875 14.59375 
Q 62.703125 22.609375 62.703125 36.375 
Q 62.703125 50.203125 56.421875 58.203125 
Q 50.140625 66.21875 39.40625 66.21875 
z
M 39.40625 74.21875 
Q 54.734375 74.21875 63.90625 63.9375 
Q 73.09375 53.65625 73.09375 36.375 
Q 73.09375 19.140625 63.90625 8.859375 
Q 54.734375 -1.421875 39.40625 -1.421875 
Q 24.03125 -1.421875 14.8125 8.828125 
Q 5.609375 19.09375 5.609375 36.375 
Q 5.609375 53.65625 14.8125 63.9375 
Q 24.03125 74.21875 39.40625 74.21875 
z
" id="DejaVuSans-4f"/>
       <path d="M 9.8125 72.90625 
L 55.90625 72.90625 
L 55.90625 64.59375 
L 19.671875 64.59375 
L 19.671875 43.015625 
L 54.390625 43.015625 
L 54.390625 34.71875 
L 19.671875 34.71875 
L 19.671875 8.296875 
L 56.78125 8.296875 
L 56.78125 0 
L 9.8125 0 
z
" id="DejaVuSans-45"/>
      </defs>
      <g style="fill:#222222;" transform="translate(72.95521 255.077969)scale(0.13 -0.13)">
       <use xlink:href="#DejaVuSans-4e"/>
       <use x="74.804688" xlink:href="#DejaVuSans-4f"/>
       <use x="153.515625" xlink:href="#DejaVuSans-4e"/>
       <use x="228.320312" xlink:href="#DejaVuSans-45"/>
      </g>
     </g>
    </g>
    <g id="xtick_2">
     <g id="line2d_2">
      <g>
       <use style="fill:#222222;stroke:#222222;" x="181.496423" xlink:href="#m6b074795f4" y="237.2"/>
      </g>
     </g>
     <g id="text_2">
      <!-- LOW -->
      <defs>
       <path d="M 9.8125 72.90625 
L 19.671875 72.90625 
L 19.671875 8.296875 
L 55.171875 8.296875 
L 55.171875 0 
L 9.8125 0 
z
" id="DejaVuSans-4c"/>
       <path d="M 3.328125 72.90625 
L 13.28125 72.90625 
L 28.609375 11.28125 
L 43.890625 72.90625 
L 54.984375 72.90625 
L 70.3125 11.28125 
L 85.59375 72.90625 
L 95.609375 72.90625 
L 77.296875 0 
L 64.890625 0 
L 49.515625 63.28125 
L 33.984375 0 
L 21.578125 0 
z
" id="DejaVuSans-57"/>
      </defs>
      <g style="fill:#222222;" transform="translate(166.334157 255.077969)scale(0.13 -0.13)">
       <use xlink:href="#DejaVuSans-4c"/>
       <use x="55.666016" xlink:href="#DejaVuSans-4f"/>
       <use x="134.376953" xlink:href="#DejaVuSans-57"/>
      </g>
     </g>
    </g>
    <g id="xtick_3">
     <g id="line2d_3">
      <g>
       <use style="fill:#222222;stroke:#222222;" x="271.088103" xlink:href="#m6b074795f4" y="237.2"/>
      </g>
     </g>
     <g id="text_3">
      <!-- MEDIUM -->
      <defs>
       <path d="M 9.8125 72.90625 
L 24.515625 72.90625 
L 43.109375 23.296875 
L 61.8125 72.90625 
L 76.515625 72.90625 
L 76.515625 0 
L 66.890625 0 
L 66.890625 64.015625 
L 48.09375 14.015625 
L 38.1875 14.015625 
L 19.390625 64.015625 
L 19.390625 0 
L 9.8125 0 
z
" id="DejaVuSans-4d"/>
       <path d="M 19.671875 64.796875 
L 19.671875 8.109375 
L 31.59375 8.109375 
Q 46.6875 8.109375 53.6875 14.9375 
Q 60.6875 21.78125 60.6875 36.53125 
Q 60.6875 51.171875 53.6875 57.984375 
Q 46.6875 64.796875 31.59375 64.796875 
z
M 9.8125 72.90625 
L 30.078125 72.90625 
Q 51.265625 72.90625 61.171875 64.09375 
Q 71.09375 55.28125 71.09375 36.53125 
Q 71.09375 17.671875 61.125 8.828125 
Q 51.171875 0 30.078125 0 
L 9.8125 0 
z
" id="DejaVuSans-44"/>
       <path d="M 9.8125 72.90625 
L 19.671875 72.90625 
L 19.671875 0 
L 9.8125 0 
z
" id="DejaVuSans-49"/>
       <path d="M 8.6875 72.90625 
L 18.609375 72.90625 
L 18.609375 28.609375 
Q 18.609375 16.890625 22.84375 11.734375 
Q 27.09375 6.59375 36.625 6.59375 
Q 46.09375 6.59375 50.34375 11.734375 
Q 54.59375 16.890625 54.59375 28.609375 
L 54.59375 72.90625 
L 64.5 72.90625 
L 64.5 27.390625 
Q 64.5 13.140625 57.4375 5.859375 
Q 50.390625 -1.421875 36.625 -1.421875 
Q 22.796875 -1.421875 15.734375 5.859375 
Q 8.6875 13.140625 8.6875 27.390625 
z
" id="DejaVuSans-55"/>
      </defs>
      <g style="fill:#222222;" transform="translate(244.084666 255.077969)scale(0.13 -0.13)">
       <use xlink:href="#DejaVuSans-4d"/>
       <use x="86.279297" xlink:href="#DejaVuSans-45"/>
       <use x="149.462891" xlink:href="#DejaVuSans-44"/>
       <use x="226.464844" xlink:href="#DejaVuSans-49"/>
       <use x="255.957031" xlink:href="#DejaVuSans-55"/>
       <use x="329.150391" xlink:href="#DejaVuSans-4d"/>
      </g>
     </g>
    </g>
    <g id="xtick_4">
     <g id="line2d_4">
      <g>
       <use style="fill:#222222;stroke:#222222;" x="360.679784" xlink:href="#m6b074795f4" y="237.2"/>
      </g>
     </g>
     <g id="text_4">
      <!-- HIGH -->
      <defs>
       <path d="M 9.8125 72.90625 
L 19.671875 72.90625 
L 19.671875 43.015625 
L 55.515625 43.015625 
L 55.515625 72.90625 
L 65.375 72.90625 
L 65.375 0 
L 55.515625 0 
L 55.515625 34.71875 
L 19.671875 34.71875 
L 19.671875 0 
L 9.8125 0 
z
" id="DejaVuSans-48"/>
       <path d="M 59.515625 10.40625 
L 59.515625 29.984375 
L 43.40625 29.984375 
L 43.40625 38.09375 
L 69.28125 38.09375 
L 69.28125 6.78125 
Q 63.578125 2.734375 56.6875 0.65625 
Q 49.8125 -1.421875 42 -1.421875 
Q 24.90625 -1.421875 15.25 8.5625 
Q 5.609375 18.5625 5.609375 36.375 
Q 5.609375 54.25 15.25 64.234375 
Q 24.90625 74.21875 42 74.21875 
Q 49.125 74.21875 55.546875 72.453125 
Q 61.96875 70.703125 67.390625 67.28125 
L 67.390625 56.78125 
Q 61.921875 61.421875 55.765625 63.765625 
Q 49.609375 66.109375 42.828125 66.109375 
Q 29.4375 66.109375 22.71875 58.640625 
Q 16.015625 51.171875 16.015625 36.375 
Q 16.015625 21.625 22.71875 14.15625 
Q 29.4375 6.6875 42.828125 6.6875 
Q 48.046875 6.6875 52.140625 7.59375 
Q 56.25 8.5 59.515625 10.40625 
z
" id="DejaVuSans-47"/>
      </defs>
      <g style="fill:#222222;" transform="translate(343.949394 255.077969)scale(0.13 -0.13)">
       <use xlink:href="#DejaVuSans-48"/>
       <use x="75.195312" xlink:href="#DejaVuSans-49"/>
       <use x="104.6875" xlink:href="#DejaVuSans-47"/>
       <use x="182.177734" xlink:href="#DejaVuSans-48"/>
      </g>
     </g>
    </g>
    <g id="text_5">
     <!-- Noise Level -->
     <defs>
      <path d="M 30.609375 48.390625 
Q 23.390625 48.390625 19.1875 42.75 
Q 14.984375 37.109375 14.984375 27.296875 
Q 14.984375 17.484375 19.15625 11.84375 
Q 23.34375 6.203125 30.609375 6.203125 
Q 37.796875 6.203125 41.984375 11.859375 
Q 46.1875 17.53125 46.1875 27.296875 
Q 46.1875 37.015625 41.984375 42.703125 
Q 37.796875 48.390625 30.609375 48.390625 
z
M 30.609375 56 
Q 42.328125 56 49.015625 48.375 
Q 55.71875 40.765625 55.71875 27.296875 
Q 55.71875 13.875 49.015625 6.21875 
Q 42.328125 -1.421875 30.609375 -1.421875 
Q 18.84375 -1.421875 12.171875 6.21875 
Q 5.515625 13.875 5.515625 27.296875 
Q 5.515625 40.765625 12.171875 48.375 
Q 18.84375 56 30.609375 56 
z
" id="DejaVuSans-6f"/>
      <path d="M 9.421875 54.6875 
L 18.40625 54.6875 
L 18.40625 0 
L 9.421875 0 
z
M 9.421875 75.984375 
L 18.40625 75.984375 
L 18.40625 64.59375 
L 9.421875 64.59375 
z
" id="DejaVuSans-69"/>
      <path d="M 44.28125 53.078125 
L 44.28125 44.578125 
Q 40.484375 46.53125 36.375 47.5 
Q 32.28125 48.484375 27.875 48.484375 
Q 21.1875 48.484375 17.84375 46.4375 
Q 14.5 44.390625 14.5 40.28125 
Q 14.5 37.15625 16.890625 35.375 
Q 19.28125 33.59375 26.515625 31.984375 
L 29.59375 31.296875 
Q 39.15625 29.25 43.1875 25.515625 
Q 47.21875 21.78125 47.21875 15.09375 
Q 47.21875 7.46875 41.1875 3.015625 
Q 35.15625 -1.421875 24.609375 -1.421875 
Q 20.21875 -1.421875 15.453125 -0.5625 
Q 10.6875 0.296875 5.421875 2 
L 5.421875 11.28125 
Q 10.40625 8.6875 15.234375 7.390625 
Q 20.0625 6.109375 24.8125 6.109375 
Q 31.15625 6.109375 34.5625 8.28125 
Q 37.984375 10.453125 37.984375 14.40625 
Q 37.984375 18.0625 35.515625 20.015625 
Q 33.0625 21.96875 24.703125 23.78125 
L 21.578125 24.515625 
Q 13.234375 26.265625 9.515625 29.90625 
Q 5.8125 33.546875 5.8125 39.890625 
Q 5.8125 47.609375 11.28125 51.796875 
Q 16.75 56 26.8125 56 
Q 31.78125 56 36.171875 55.265625 
Q 40.578125 54.546875 44.28125 53.078125 
z
" id="DejaVuSans-73"/>
      <path d="M 56.203125 29.59375 
L 56.203125 25.203125 
L 14.890625 25.203125 
Q 15.484375 15.921875 20.484375 11.0625 
Q 25.484375 6.203125 34.421875 6.203125 
Q 39.59375 6.203125 44.453125 7.46875 
Q 49.3125 8.734375 54.109375 11.28125 
L 54.109375 2.78125 
Q 49.265625 0.734375 44.1875 -0.34375 
Q 39.109375 -1.421875 33.890625 -1.421875 
Q 20.796875 -1.421875 13.15625 6.1875 
Q 5.515625 13.8125 5.515625 26.8125 
Q 5.515625 40.234375 12.765625 48.109375 
Q 20.015625 56 32.328125 56 
Q 43.359375 56 49.78125 48.890625 
Q 56.203125 41.796875 56.203125 29.59375 
z
M 47.21875 32.234375 
Q 47.125 39.59375 43.09375 43.984375 
Q 39.0625 48.390625 32.421875 48.390625 
Q 24.90625 48.390625 20.390625 44.140625 
Q 15.875 39.890625 15.1875 32.171875 
z
" id="DejaVuSans-65"/>
      <path id="DejaVuSans-20"/>
      <path d="M 2.984375 54.6875 
L 12.5 54.6875 
L 29.59375 8.796875 
L 46.6875 54.6875 
L 56.203125 54.6875 
L 35.6875 0 
L 23.484375 0 
z
" id="DejaVuSans-76"/>
      <path d="M 9.421875 75.984375 
L 18.40625 75.984375 
L 18.40625 0 
L 9.421875 0 
z
" id="DejaVuSans-6c"/>
     </defs>
     <g style="fill:#222222;" transform="translate(179.44375 273.939062)scale(0.16 -0.16)">
      <use xlink:href="#DejaVuSans-4e"/>
      <use x="74.804688" xlink:href="#DejaVuSans-6f"/>
      <use x="135.986328" xlink:href="#DejaVuSans-69"/>
      <use x="163.769531" xlink:href="#DejaVuSans-73"/>
      <use x="215.869141" xlink:href="#DejaVuSans-65"/>
      <use x="277.392578" xlink:href="#DejaVuSans-20"/>
      <use x="309.179688" xlink:href="#DejaVuSans-4c"/>
      <use x="364.876953" xlink:href="#DejaVuSans-65"/>
      <use x="426.400391" xlink:href="#DejaVuSans-76"/>
      <use x="485.580078" xlink:href="#DejaVuSans-65"/>
      <use x="547.103516" xlink:href="#DejaVuSans-6c"/>
     </g>
    </g>
   </g>
   <g id="matplotlib.axis_2">
    <g id="ytick_1">
     <g id="line2d_5">
      <defs>
       <path d="M 0 0 
L -4 0 
" id="m5a09fef806" style="stroke:#222222;"/>
      </defs>
      <g>
       <use style="fill:#222222;stroke:#222222;" x="54.3" xlink:href="#m5a09fef806" y="237.2"/>
      </g>
     </g>
     <g id="text_6">
      <!-- 0 -->
      <defs>
       <path d="M 31.78125 66.40625 
Q 24.171875 66.40625 20.328125 58.90625 
Q 16.5 51.421875 16.5 36.375 
Q 16.5 21.390625 20.328125 13.890625 
Q 24.171875 6.390625 31.78125 6.390625 
Q 39.453125 6.390625 43.28125 13.890625 
Q 47.125 21.390625 47.125 36.375 
Q 47.125 51.421875 43.28125 58.90625 
Q 39.453125 66.40625 31.78125 66.40625 
z
M 31.78125 74.21875 
Q 44.046875 74.21875 50.515625 64.515625 
Q 56.984375 54.828125 56.984375 36.375 
Q 56.984375 17.96875 50.515625 8.265625 
Q 44.046875 -1.421875 31.78125 -1.421875 
Q 19.53125 -1.421875 13.0625 8.265625 
Q 6.59375 17.96875 6.59375 36.375 
Q 6.59375 54.828125 13.0625 64.515625 
Q 19.53125 74.21875 31.78125 74.21875 
z
" id="DejaVuSans-30"/>
      </defs>
      <g style="fill:#222222;" transform="translate(38.02875 242.138984)scale(0.13 -0.13)">
       <use xlink:href="#DejaVuSans-30"/>
      </g>
     </g>
    </g>
    <g id="ytick_2">
     <g id="line2d_6">
      <g>
       <use style="fill:#222222;stroke:#222222;" x="54.3" xlink:href="#m5a09fef806" y="187.777778"/>
      </g>
     </g>
     <g id="text_7">
      <!-- 20 -->
      <defs>
       <path d="M 19.1875 8.296875 
L 53.609375 8.296875 
L 53.609375 0 
L 7.328125 0 
L 7.328125 8.296875 
Q 12.9375 14.109375 22.625 23.890625 
Q 32.328125 33.6875 34.8125 36.53125 
Q 39.546875 41.84375 41.421875 45.53125 
Q 43.3125 49.21875 43.3125 52.78125 
Q 43.3125 58.59375 39.234375 62.25 
Q 35.15625 65.921875 28.609375 65.921875 
Q 23.96875 65.921875 18.8125 64.3125 
Q 13.671875 62.703125 7.8125 59.421875 
L 7.8125 69.390625 
Q 13.765625 71.78125 18.9375 73 
Q 24.125 74.21875 28.421875 74.21875 
Q 39.75 74.21875 46.484375 68.546875 
Q 53.21875 62.890625 53.21875 53.421875 
Q 53.21875 48.921875 51.53125 44.890625 
Q 49.859375 40.875 45.40625 35.40625 
Q 44.1875 33.984375 37.640625 27.21875 
Q 31.109375 20.453125 19.1875 8.296875 
z
" id="DejaVuSans-32"/>
      </defs>
      <g style="fill:#222222;" transform="translate(29.7575 192.716762)scale(0.13 -0.13)">
       <use xlink:href="#DejaVuSans-32"/>
       <use x="63.623047" xlink:href="#DejaVuSans-30"/>
      </g>
     </g>
    </g>
    <g id="ytick_3">
     <g id="line2d_7">
      <g>
       <use style="fill:#222222;stroke:#222222;" x="54.3" xlink:href="#m5a09fef806" y="138.355556"/>
      </g>
     </g>
     <g id="text_8">
      <!-- 40 -->
      <defs>
       <path d="M 37.796875 64.3125 
L 12.890625 25.390625 
L 37.796875 25.390625 
z
M 35.203125 72.90625 
L 47.609375 72.90625 
L 47.609375 25.390625 
L 58.015625 25.390625 
L 58.015625 17.1875 
L 47.609375 17.1875 
L 47.609375 0 
L 37.796875 0 
L 37.796875 17.1875 
L 4.890625 17.1875 
L 4.890625 26.703125 
z
" id="DejaVuSans-34"/>
      </defs>
      <g style="fill:#222222;" transform="translate(29.7575 143.29454)scale(0.13 -0.13)">
       <use xlink:href="#DejaVuSans-34"/>
       <use x="63.623047" xlink:href="#DejaVuSans-30"/>
      </g>
     </g>
    </g>
    <g id="ytick_4">
     <g id="line2d_8">
      <g>
       <use style="fill:#222222;stroke:#222222;" x="54.3" xlink:href="#m5a09fef806" y="88.933333"/>
      </g>
     </g>
     <g id="text_9">
      <!-- 60 -->
      <defs>
       <path d="M 33.015625 40.375 
Q 26.375 40.375 22.484375 35.828125 
Q 18.609375 31.296875 18.609375 23.390625 
Q 18.609375 15.53125 22.484375 10.953125 
Q 26.375 6.390625 33.015625 6.390625 
Q 39.65625 6.390625 43.53125 10.953125 
Q 47.40625 15.53125 47.40625 23.390625 
Q 47.40625 31.296875 43.53125 35.828125 
Q 39.65625 40.375 33.015625 40.375 
z
M 52.59375 71.296875 
L 52.59375 62.3125 
Q 48.875 64.0625 45.09375 64.984375 
Q 41.3125 65.921875 37.59375 65.921875 
Q 27.828125 65.921875 22.671875 59.328125 
Q 17.53125 52.734375 16.796875 39.40625 
Q 19.671875 43.65625 24.015625 45.921875 
Q 28.375 48.1875 33.59375 48.1875 
Q 44.578125 48.1875 50.953125 41.515625 
Q 57.328125 34.859375 57.328125 23.390625 
Q 57.328125 12.15625 50.6875 5.359375 
Q 44.046875 -1.421875 33.015625 -1.421875 
Q 20.359375 -1.421875 13.671875 8.265625 
Q 6.984375 17.96875 6.984375 36.375 
Q 6.984375 53.65625 15.1875 63.9375 
Q 23.390625 74.21875 37.203125 74.21875 
Q 40.921875 74.21875 44.703125 73.484375 
Q 48.484375 72.75 52.59375 71.296875 
z
" id="DejaVuSans-36"/>
      </defs>
      <g style="fill:#222222;" transform="translate(29.7575 93.872318)scale(0.13 -0.13)">
       <use xlink:href="#DejaVuSans-36"/>
       <use x="63.623047" xlink:href="#DejaVuSans-30"/>
      </g>
     </g>
    </g>
    <g id="ytick_5">
     <g id="line2d_9">
      <g>
       <use style="fill:#222222;stroke:#222222;" x="54.3" xlink:href="#m5a09fef806" y="39.511111"/>
      </g>
     </g>
     <g id="text_10">
      <!-- 80 -->
      <defs>
       <path d="M 31.78125 34.625 
Q 24.75 34.625 20.71875 30.859375 
Q 16.703125 27.09375 16.703125 20.515625 
Q 16.703125 13.921875 20.71875 10.15625 
Q 24.75 6.390625 31.78125 6.390625 
Q 38.8125 6.390625 42.859375 10.171875 
Q 46.921875 13.96875 46.921875 20.515625 
Q 46.921875 27.09375 42.890625 30.859375 
Q 38.875 34.625 31.78125 34.625 
z
M 21.921875 38.8125 
Q 15.578125 40.375 12.03125 44.71875 
Q 8.5 49.078125 8.5 55.328125 
Q 8.5 64.0625 14.71875 69.140625 
Q 20.953125 74.21875 31.78125 74.21875 
Q 42.671875 74.21875 48.875 69.140625 
Q 55.078125 64.0625 55.078125 55.328125 
Q 55.078125 49.078125 51.53125 44.71875 
Q 48 40.375 41.703125 38.8125 
Q 48.828125 37.15625 52.796875 32.3125 
Q 56.78125 27.484375 56.78125 20.515625 
Q 56.78125 9.90625 50.3125 4.234375 
Q 43.84375 -1.421875 31.78125 -1.421875 
Q 19.734375 -1.421875 13.25 4.234375 
Q 6.78125 9.90625 6.78125 20.515625 
Q 6.78125 27.484375 10.78125 32.3125 
Q 14.796875 37.15625 21.921875 38.8125 
z
M 18.3125 54.390625 
Q 18.3125 48.734375 21.84375 45.5625 
Q 25.390625 42.390625 31.78125 42.390625 
Q 38.140625 42.390625 41.71875 45.5625 
Q 45.3125 48.734375 45.3125 54.390625 
Q 45.3125 60.0625 41.71875 63.234375 
Q 38.140625 66.40625 31.78125 66.40625 
Q 25.390625 66.40625 21.84375 63.234375 
Q 18.3125 60.0625 18.3125 54.390625 
z
" id="DejaVuSans-38"/>
      </defs>
      <g style="fill:#222222;" transform="translate(29.7575 44.450095)scale(0.13 -0.13)">
       <use xlink:href="#DejaVuSans-38"/>
       <use x="63.623047" xlink:href="#DejaVuSans-30"/>
      </g>
     </g>
    </g>
    <g id="text_11">
     <!-- Performance score -->
     <defs>
      <path d="M 19.671875 64.796875 
L 19.671875 37.40625 
L 32.078125 37.40625 
Q 38.96875 37.40625 42.71875 40.96875 
Q 46.484375 44.53125 46.484375 51.125 
Q 46.484375 57.671875 42.71875 61.234375 
Q 38.96875 64.796875 32.078125 64.796875 
z
M 9.8125 72.90625 
L 32.078125 72.90625 
Q 44.34375 72.90625 50.609375 67.359375 
Q 56.890625 61.8125 56.890625 51.125 
Q 56.890625 40.328125 50.609375 34.8125 
Q 44.34375 29.296875 32.078125 29.296875 
L 19.671875 29.296875 
L 19.671875 0 
L 9.8125 0 
z
" id="DejaVuSans-50"/>
      <path d="M 41.109375 46.296875 
Q 39.59375 47.171875 37.8125 47.578125 
Q 36.03125 48 33.890625 48 
Q 26.265625 48 22.1875 43.046875 
Q 18.109375 38.09375 18.109375 28.8125 
L 18.109375 0 
L 9.078125 0 
L 9.078125 54.6875 
L 18.109375 54.6875 
L 18.109375 46.1875 
Q 20.953125 51.171875 25.484375 53.578125 
Q 30.03125 56 36.53125 56 
Q 37.453125 56 38.578125 55.875 
Q 39.703125 55.765625 41.0625 55.515625 
z
" id="DejaVuSans-72"/>
      <path d="M 37.109375 75.984375 
L 37.109375 68.5 
L 28.515625 68.5 
Q 23.6875 68.5 21.796875 66.546875 
Q 19.921875 64.59375 19.921875 59.515625 
L 19.921875 54.6875 
L 34.71875 54.6875 
L 34.71875 47.703125 
L 19.921875 47.703125 
L 19.921875 0 
L 10.890625 0 
L 10.890625 47.703125 
L 2.296875 47.703125 
L 2.296875 54.6875 
L 10.890625 54.6875 
L 10.890625 58.5 
Q 10.890625 67.625 15.140625 71.796875 
Q 19.390625 75.984375 28.609375 75.984375 
z
" id="DejaVuSans-66"/>
      <path d="M 52 44.1875 
Q 55.375 50.25 60.0625 53.125 
Q 64.75 56 71.09375 56 
Q 79.640625 56 84.28125 50.015625 
Q 88.921875 44.046875 88.921875 33.015625 
L 88.921875 0 
L 79.890625 0 
L 79.890625 32.71875 
Q 79.890625 40.578125 77.09375 44.375 
Q 74.3125 48.1875 68.609375 48.1875 
Q 61.625 48.1875 57.5625 43.546875 
Q 53.515625 38.921875 53.515625 30.90625 
L 53.515625 0 
L 44.484375 0 
L 44.484375 32.71875 
Q 44.484375 40.625 41.703125 44.40625 
Q 38.921875 48.1875 33.109375 48.1875 
Q 26.21875 48.1875 22.15625 43.53125 
Q 18.109375 38.875 18.109375 30.90625 
L 18.109375 0 
L 9.078125 0 
L 9.078125 54.6875 
L 18.109375 54.6875 
L 18.109375 46.1875 
Q 21.1875 51.21875 25.484375 53.609375 
Q 29.78125 56 35.6875 56 
Q 41.65625 56 45.828125 52.96875 
Q 50 49.953125 52 44.1875 
z
" id="DejaVuSans-6d"/>
      <path d="M 34.28125 27.484375 
Q 23.390625 27.484375 19.1875 25 
Q 14.984375 22.515625 14.984375 16.5 
Q 14.984375 11.71875 18.140625 8.90625 
Q 21.296875 6.109375 26.703125 6.109375 
Q 34.1875 6.109375 38.703125 11.40625 
Q 43.21875 16.703125 43.21875 25.484375 
L 43.21875 27.484375 
z
M 52.203125 31.203125 
L 52.203125 0 
L 43.21875 0 
L 43.21875 8.296875 
Q 40.140625 3.328125 35.546875 0.953125 
Q 30.953125 -1.421875 24.3125 -1.421875 
Q 15.921875 -1.421875 10.953125 3.296875 
Q 6 8.015625 6 15.921875 
Q 6 25.140625 12.171875 29.828125 
Q 18.359375 34.515625 30.609375 34.515625 
L 43.21875 34.515625 
L 43.21875 35.40625 
Q 43.21875 41.609375 39.140625 45 
Q 35.0625 48.390625 27.6875 48.390625 
Q 23 48.390625 18.546875 47.265625 
Q 14.109375 46.140625 10.015625 43.890625 
L 10.015625 52.203125 
Q 14.9375 54.109375 19.578125 55.046875 
Q 24.21875 56 28.609375 56 
Q 40.484375 56 46.34375 49.84375 
Q 52.203125 43.703125 52.203125 31.203125 
z
" id="DejaVuSans-61"/>
      <path d="M 54.890625 33.015625 
L 54.890625 0 
L 45.90625 0 
L 45.90625 32.71875 
Q 45.90625 40.484375 42.875 44.328125 
Q 39.84375 48.1875 33.796875 48.1875 
Q 26.515625 48.1875 22.3125 43.546875 
Q 18.109375 38.921875 18.109375 30.90625 
L 18.109375 0 
L 9.078125 0 
L 9.078125 54.6875 
L 18.109375 54.6875 
L 18.109375 46.1875 
Q 21.34375 51.125 25.703125 53.5625 
Q 30.078125 56 35.796875 56 
Q 45.21875 56 50.046875 50.171875 
Q 54.890625 44.34375 54.890625 33.015625 
z
" id="DejaVuSans-6e"/>
      <path d="M 48.78125 52.59375 
L 48.78125 44.1875 
Q 44.96875 46.296875 41.140625 47.34375 
Q 37.3125 48.390625 33.40625 48.390625 
Q 24.65625 48.390625 19.8125 42.84375 
Q 14.984375 37.3125 14.984375 27.296875 
Q 14.984375 17.28125 19.8125 11.734375 
Q 24.65625 6.203125 33.40625 6.203125 
Q 37.3125 6.203125 41.140625 7.25 
Q 44.96875 8.296875 48.78125 10.40625 
L 48.78125 2.09375 
Q 45.015625 0.34375 40.984375 -0.53125 
Q 36.96875 -1.421875 32.421875 -1.421875 
Q 20.0625 -1.421875 12.78125 6.34375 
Q 5.515625 14.109375 5.515625 27.296875 
Q 5.515625 40.671875 12.859375 48.328125 
Q 20.21875 56 33.015625 56 
Q 37.15625 56 41.109375 55.140625 
Q 45.0625 54.296875 48.78125 52.59375 
z
" id="DejaVuSans-63"/>
     </defs>
     <g style="fill:#222222;" transform="translate(22.43 201.32875)rotate(-90)scale(0.16 -0.16)">
      <use xlink:href="#DejaVuSans-50"/>
      <use x="60.255859" xlink:href="#DejaVuSans-65"/>
      <use x="121.779297" xlink:href="#DejaVuSans-72"/>
      <use x="162.892578" xlink:href="#DejaVuSans-66"/>
      <use x="198.097656" xlink:href="#DejaVuSans-6f"/>
      <use x="259.279297" xlink:href="#DejaVuSans-72"/>
      <use x="300.376953" xlink:href="#DejaVuSans-6d"/>
      <use x="397.789062" xlink:href="#DejaVuSans-61"/>
      <use x="459.068359" xlink:href="#DejaVuSans-6e"/>
      <use x="522.447266" xlink:href="#DejaVuSans-63"/>
      <use x="577.427734" xlink:href="#DejaVuSans-65"/>
      <use x="638.951172" xlink:href="#DejaVuSans-20"/>
      <use x="670.738281" xlink:href="#DejaVuSans-73"/>
      <use x="722.837891" xlink:href="#DejaVuSans-63"/>
      <use x="777.818359" xlink:href="#DejaVuSans-6f"/>
      <use x="839" xlink:href="#DejaVuSans-72"/>
      <use x="880.082031" xlink:href="#DejaVuSans-65"/>
     </g>
    </g>
   </g>
   <g id="patch_3">
    <path d="M 54.3 237.2 
L 54.3 14.8 
" style="fill:none;stroke:#222222;stroke-linecap:square;stroke-linejoin:miter;"/>
   </g>
   <g id="patch_4">
    <path d="M 54.3 237.2 
L 396.575 237.2 
" style="fill:none;stroke:#222222;stroke-linecap:square;stroke-linejoin:miter;"/>
   </g>
  </g>
  <g id="axes_2">
   <g id="line2d_10">
    <defs>
     <path d="M 0 5 
C 1.326016 5 2.597899 4.473168 3.535534 3.535534 
C 4.473168 2.597899 5 1.326016 5 0 
C 5 -1.326016 4.473168 -2.597899 3.535534 -3.535534 
C 2.597899 -4.473168 1.326016 -5 0 -5 
C -1.326016 -5 -2.597899 -4.473168 -3.535534 -3.535534 
C -4.473168 -2.597899 -5 -1.326016 -5 0 
C -5 1.326016 -4.473168 2.597899 -3.535534 3.535534 
C -2.597899 4.473168 -1.326016 5 0 5 
z
" id="m23968df5eb" style="stroke:#222222;"/>
    </defs>
    <g clip-path="url(#pe8ebf7a98e)">
     <use style="fill-opacity:0;stroke:#222222;" x="89.953298" xlink:href="#m23968df5eb" y="123.528889"/>
     <use style="fill-opacity:0;stroke:#222222;" x="186.659673" xlink:href="#m23968df5eb" y="101.288889"/>
     <use style="fill-opacity:0;stroke:#222222;" x="273.768389" xlink:href="#m23968df5eb" y="69.164444"/>
     <use style="fill-opacity:0;stroke:#222222;" x="363.446336" xlink:href="#m23968df5eb" y="128.471111"/>
    </g>
   </g>
   <g id="line2d_11">
    <g clip-path="url(#pe8ebf7a98e)">
     <use style="fill-opacity:0;stroke:#222222;" x="89.113274" xlink:href="#m23968df5eb" y="128.471111"/>
     <use style="fill-opacity:0;stroke:#222222;" x="172.787511" xlink:href="#m23968df5eb" y="86.462222"/>
     <use style="fill-opacity:0;stroke:#222222;" x="273.143026" xlink:href="#m23968df5eb" y="59.28"/>
     <use style="fill-opacity:0;stroke:#222222;" x="353.598685" xlink:href="#m23968df5eb" y="111.173333"/>
    </g>
   </g>
   <g id="line2d_12">
    <g clip-path="url(#pe8ebf7a98e)">
     <use style="fill-opacity:0;stroke:#222222;" x="84.459843" xlink:href="#m23968df5eb" y="111.173333"/>
     <use style="fill-opacity:0;stroke:#222222;" x="189.522969" xlink:href="#m23968df5eb" y="91.404444"/>
     <use style="fill-opacity:0;stroke:#222222;" x="270.818102" xlink:href="#m23968df5eb" y="41.982222"/>
     <use style="fill-opacity:0;stroke:#222222;" x="361.155649" xlink:href="#m23968df5eb" y="143.297778"/>
    </g>
   </g>
   <g id="line2d_13">
    <g clip-path="url(#pe8ebf7a98e)">
     <use style="fill-opacity:0;stroke:#222222;" x="83.58048" xlink:href="#m23968df5eb" y="153.182222"/>
     <use style="fill-opacity:0;stroke:#222222;" x="187.268808" xlink:href="#m23968df5eb" y="126"/>
     <use style="fill-opacity:0;stroke:#222222;" x="275.390047" xlink:href="#m23968df5eb" y="111.173333"/>
     <use style="fill-opacity:0;stroke:#222222;" x="360.098281" xlink:href="#m23968df5eb" y="145.768889"/>
    </g>
   </g>
   <g id="line2d_14">
    <g clip-path="url(#pe8ebf7a98e)">
     <use style="fill-opacity:0;stroke:#222222;" x="83.296707" xlink:href="#m23968df5eb" y="101.288889"/>
     <use style="fill-opacity:0;stroke:#222222;" x="186.972158" xlink:href="#m23968df5eb" y="93.875556"/>
     <use style="fill-opacity:0;stroke:#222222;" x="279.285852" xlink:href="#m23968df5eb" y="126"/>
     <use style="fill-opacity:0;stroke:#222222;" x="355.309332" xlink:href="#m23968df5eb" y="126"/>
    </g>
   </g>
   <g id="line2d_15">
    <g clip-path="url(#pe8ebf7a98e)">
     <use style="fill-opacity:0;stroke:#222222;" x="85.979214" xlink:href="#m23968df5eb" y="165.537778"/>
     <use style="fill-opacity:0;stroke:#222222;" x="188.348451" xlink:href="#m23968df5eb" y="79.048889"/>
     <use style="fill-opacity:0;stroke:#222222;" x="273.83062" xlink:href="#m23968df5eb" y="54.337778"/>
     <use style="fill-opacity:0;stroke:#222222;" x="360.163122" xlink:href="#m23968df5eb" y="140.826667"/>
    </g>
   </g>
   <g id="line2d_16">
    <g clip-path="url(#pe8ebf7a98e)">
     <use style="fill-opacity:0;stroke:#222222;" x="93.489289" xlink:href="#m23968df5eb" y="153.182222"/>
     <use style="fill-opacity:0;stroke:#222222;" x="187.112437" xlink:href="#m23968df5eb" y="88.933333"/>
     <use style="fill-opacity:0;stroke:#222222;" x="273.674844" xlink:href="#m23968df5eb" y="41.982222"/>
     <use style="fill-opacity:0;stroke:#222222;" x="367.049362" xlink:href="#m23968df5eb" y="123.528889"/>
    </g>
   </g>
   <g id="line2d_17">
    <g clip-path="url(#pe8ebf7a98e)">
     <use style="fill-opacity:0;stroke:#222222;" x="96.894378" xlink:href="#m23968df5eb" y="128.471111"/>
     <use style="fill-opacity:0;stroke:#222222;" x="187.070516" xlink:href="#m23968df5eb" y="96.346667"/>
     <use style="fill-opacity:0;stroke:#222222;" x="269.866631" xlink:href="#m23968df5eb" y="74.106667"/>
     <use style="fill-opacity:0;stroke:#222222;" x="365.735917" xlink:href="#m23968df5eb" y="111.173333"/>
    </g>
   </g>
   <g id="line2d_18">
    <g clip-path="url(#pe8ebf7a98e)">
     <use style="fill-opacity:0;stroke:#222222;" x="95.952734" xlink:href="#m23968df5eb" y="113.644444"/>
     <use style="fill-opacity:0;stroke:#222222;" x="183.451511" xlink:href="#m23968df5eb" y="86.462222"/>
     <use style="fill-opacity:0;stroke:#222222;" x="269.384831" xlink:href="#m23968df5eb" y="91.404444"/>
     <use style="fill-opacity:0;stroke:#222222;" x="358.657049" xlink:href="#m23968df5eb" y="138.355556"/>
    </g>
   </g>
   <g id="line2d_19">
    <g clip-path="url(#pe8ebf7a98e)">
     <use style="fill-opacity:0;stroke:#222222;" x="86.69339" xlink:href="#m23968df5eb" y="135.884444"/>
     <use style="fill-opacity:0;stroke:#222222;" x="177.895143" xlink:href="#m23968df5eb" y="81.52"/>
     <use style="fill-opacity:0;stroke:#222222;" x="264.416811" xlink:href="#m23968df5eb" y="69.164444"/>
     <use style="fill-opacity:0;stroke:#222222;" x="359.016389" xlink:href="#m23968df5eb" y="113.644444"/>
    </g>
   </g>
   <g id="line2d_20">
    <g clip-path="url(#pe8ebf7a98e)">
     <use style="fill-opacity:0;stroke:#222222;" x="85.45857" xlink:href="#m23968df5eb" y="123.528889"/>
     <use style="fill-opacity:0;stroke:#222222;" x="187.391116" xlink:href="#m23968df5eb" y="93.875556"/>
     <use style="fill-opacity:0;stroke:#222222;" x="275.709348" xlink:href="#m23968df5eb" y="59.28"/>
     <use style="fill-opacity:0;stroke:#222222;" x="355.246919" xlink:href="#m23968df5eb" y="121.057778"/>
    </g>
   </g>
   <g id="line2d_21">
    <g clip-path="url(#pe8ebf7a98e)">
     <use style="fill-opacity:0;stroke:#222222;" x="84.165109" xlink:href="#m23968df5eb" y="121.057778"/>
     <use style="fill-opacity:0;stroke:#222222;" x="190.40112" xlink:href="#m23968df5eb" y="101.288889"/>
     <use style="fill-opacity:0;stroke:#222222;" x="264.879147" xlink:href="#m23968df5eb" y="54.337778"/>
     <use style="fill-opacity:0;stroke:#222222;" x="360.358854" xlink:href="#m23968df5eb" y="101.288889"/>
    </g>
   </g>
   <g id="line2d_22">
    <g clip-path="url(#pe8ebf7a98e)">
     <use style="fill-opacity:0;stroke:#222222;" x="90.157151" xlink:href="#m23968df5eb" y="143.297778"/>
     <use style="fill-opacity:0;stroke:#222222;" x="173.327641" xlink:href="#m23968df5eb" y="128.471111"/>
     <use style="fill-opacity:0;stroke:#222222;" x="264.6899" xlink:href="#m23968df5eb" y="64.222222"/>
     <use style="fill-opacity:0;stroke:#222222;" x="353.121234" xlink:href="#m23968df5eb" y="123.528889"/>
    </g>
   </g>
   <g id="line2d_23">
    <g clip-path="url(#pe8ebf7a98e)">
     <use style="fill-opacity:0;stroke:#222222;" x="94.90008" xlink:href="#m23968df5eb" y="143.297778"/>
     <use style="fill-opacity:0;stroke:#222222;" x="178.170203" xlink:href="#m23968df5eb" y="121.057778"/>
     <use style="fill-opacity:0;stroke:#222222;" x="266.005635" xlink:href="#m23968df5eb" y="86.462222"/>
     <use style="fill-opacity:0;stroke:#222222;" x="357.891902" xlink:href="#m23968df5eb" y="106.231111"/>
    </g>
   </g>
   <g id="line2d_24">
    <g clip-path="url(#pe8ebf7a98e)">
     <use style="fill-opacity:0;stroke:#222222;" x="87.208315" xlink:href="#m23968df5eb" y="113.644444"/>
     <use style="fill-opacity:0;stroke:#222222;" x="180.691814" xlink:href="#m23968df5eb" y="187.777778"/>
     <use style="fill-opacity:0;stroke:#222222;" x="273.771454" xlink:href="#m23968df5eb" y="93.875556"/>
     <use style="fill-opacity:0;stroke:#222222;" x="364.523956" xlink:href="#m23968df5eb" y="111.173333"/>
    </g>
   </g>
   <g id="line2d_25">
    <g clip-path="url(#pe8ebf7a98e)">
     <use style="fill-opacity:0;stroke:#222222;" x="90.444917" xlink:href="#m23968df5eb" y="123.528889"/>
     <use style="fill-opacity:0;stroke:#222222;" x="181.684923" xlink:href="#m23968df5eb" y="111.173333"/>
     <use style="fill-opacity:0;stroke:#222222;" x="272.148037" xlink:href="#m23968df5eb" y="54.337778"/>
     <use style="fill-opacity:0;stroke:#222222;" x="364.449527" xlink:href="#m23968df5eb" y="133.413333"/>
    </g>
   </g>
   <g id="line2d_26">
    <g clip-path="url(#pe8ebf7a98e)">
     <use style="fill-opacity:0;stroke:#222222;" x="94.451778" xlink:href="#m23968df5eb" y="128.471111"/>
     <use style="fill-opacity:0;stroke:#222222;" x="181.669963" xlink:href="#m23968df5eb" y="103.76"/>
     <use style="fill-opacity:0;stroke:#222222;" x="279.288725" xlink:href="#m23968df5eb" y="44.453333"/>
     <use style="fill-opacity:0;stroke:#222222;" x="355.997865" xlink:href="#m23968df5eb" y="123.528889"/>
    </g>
   </g>
   <g id="line2d_27">
    <g clip-path="url(#pe8ebf7a98e)">
     <use style="fill-opacity:0;stroke:#222222;" x="83.572378" xlink:href="#m23968df5eb" y="143.297778"/>
     <use style="fill-opacity:0;stroke:#222222;" x="176.390777" xlink:href="#m23968df5eb" y="118.586667"/>
     <use style="fill-opacity:0;stroke:#222222;" x="274.890674" xlink:href="#m23968df5eb" y="66.693333"/>
     <use style="fill-opacity:0;stroke:#222222;" x="356.482592" xlink:href="#m23968df5eb" y="111.173333"/>
    </g>
   </g>
   <g id="line2d_28">
    <g clip-path="url(#pe8ebf7a98e)">
     <use style="fill-opacity:0;stroke:#222222;" x="92.66412" xlink:href="#m23968df5eb" y="138.355556"/>
     <use style="fill-opacity:0;stroke:#222222;" x="189.806674" xlink:href="#m23968df5eb" y="113.644444"/>
     <use style="fill-opacity:0;stroke:#222222;" x="278.02783" xlink:href="#m23968df5eb" y="64.222222"/>
     <use style="fill-opacity:0;stroke:#222222;" x="358.182781" xlink:href="#m23968df5eb" y="121.057778"/>
    </g>
   </g>
   <g id="line2d_29">
    <g clip-path="url(#pe8ebf7a98e)">
     <use style="fill-opacity:0;stroke:#222222;" x="90.51113" xlink:href="#m23968df5eb" y="123.528889"/>
     <use style="fill-opacity:0;stroke:#222222;" x="174.813424" xlink:href="#m23968df5eb" y="108.702222"/>
     <use style="fill-opacity:0;stroke:#222222;" x="279.466798" xlink:href="#m23968df5eb" y="74.106667"/>
     <use style="fill-opacity:0;stroke:#222222;" x="367.578293" xlink:href="#m23968df5eb" y="135.884444"/>
    </g>
   </g>
   <g id="line2d_30">
    <defs>
     <path d="M 20 0 
L -20 -0 
" id="m3092969fa7" style="stroke:#ce4ad0;stroke-width:2;"/>
    </defs>
    <g clip-path="url(#pe8ebf7a98e)">
     <use style="fill:#ce4ad0;stroke:#ce4ad0;stroke-width:2;" x="91.904742" xlink:href="#m3092969fa7" y="130.818667"/>
     <use style="fill:#ce4ad0;stroke:#ce4ad0;stroke-width:2;" x="181.496423" xlink:href="#m3092969fa7" y="105.984"/>
     <use style="fill:#ce4ad0;stroke:#ce4ad0;stroke-width:2;" x="271.088103" xlink:href="#m3092969fa7" y="70.029333"/>
     <use style="fill:#ce4ad0;stroke:#ce4ad0;stroke-width:2;" x="360.679784" xlink:href="#m3092969fa7" y="123.528889"/>
    </g>
   </g>
  </g>
  <g id="axes_3">
   <g id="line2d_31">
    <path clip-path="url(#pe8ebf7a98e)" d="M 89.953298 123.528889 
L 186.659673 101.288889 
L 273.768389 69.164444 
L 363.446336 128.471111 
" style="fill:none;stroke:#b4b4b4;stroke-linecap:square;stroke-width:1.5;"/>
   </g>
   <g id="line2d_32">
    <path clip-path="url(#pe8ebf7a98e)" d="M 89.113274 128.471111 
L 172.787511 86.462222 
L 273.143026 59.28 
L 353.598685 111.173333 
" style="fill:none;stroke:#b4b4b4;stroke-linecap:square;stroke-width:1.5;"/>
   </g>
   <g id="line2d_33">
    <path clip-path="url(#pe8ebf7a98e)" d="M 84.459843 111.173333 
L 189.522969 91.404444 
L 270.818102 41.982222 
L 361.155649 143.297778 
" style="fill:none;stroke:#b4b4b4;stroke-linecap:square;stroke-width:1.5;"/>
   </g>
   <g id="line2d_34">
    <path clip-path="url(#pe8ebf7a98e)" d="M 83.58048 153.182222 
L 187.268808 126 
L 275.390047 111.173333 
L 360.098281 145.768889 
" style="fill:none;stroke:#b4b4b4;stroke-linecap:square;stroke-width:1.5;"/>
   </g>
   <g id="line2d_35">
    <path clip-path="url(#pe8ebf7a98e)" d="M 83.296707 101.288889 
L 186.972158 93.875556 
L 279.285852 126 
L 355.309332 126 
" style="fill:none;stroke:#b4b4b4;stroke-linecap:square;stroke-width:1.5;"/>
   </g>
   <g id="line2d_36">
    <path clip-path="url(#pe8ebf7a98e)" d="M 85.979214 165.537778 
L 188.348451 79.048889 
L 273.83062 54.337778 
L 360.163122 140.826667 
" style="fill:none;stroke:#b4b4b4;stroke-linecap:square;stroke-width:1.5;"/>
   </g>
   <g id="line2d_37">
    <path clip-path="url(#pe8ebf7a98e)" d="M 93.489289 153.182222 
L 187.112437 88.933333 
L 273.674844 41.982222 
L 367.049362 123.528889 
" style="fill:none;stroke:#b4b4b4;stroke-linecap:square;stroke-width:1.5;"/>
   </g>
   <g id="line2d_38">
    <path clip-path="url(#pe8ebf7a98e)" d="M 96.894378 128.471111 
L 187.070516 96.346667 
L 269.866631 74.106667 
L 365.735917 111.173333 
" style="fill:none;stroke:#b4b4b4;stroke-linecap:square;stroke-width:1.5;"/>
   </g>
   <g id="line2d_39">
    <path clip-path="url(#pe8ebf7a98e)" d="M 95.952734 113.644444 
L 183.451511 86.462222 
L 269.384831 91.404444 
L 358.657049 138.355556 
" style="fill:none;stroke:#b4b4b4;stroke-linecap:square;stroke-width:1.5;"/>
   </g>
   <g id="line2d_40">
    <path clip-path="url(#pe8ebf7a98e)" d="M 86.69339 135.884444 
L 177.895143 81.52 
L 264.416811 69.164444 
L 359.016389 113.644444 
" style="fill:none;stroke:#b4b4b4;stroke-linecap:square;stroke-width:1.5;"/>
   </g>
   <g id="line2d_41">
    <path clip-path="url(#pe8ebf7a98e)" d="M 85.45857 123.528889 
L 187.391116 93.875556 
L 275.709348 59.28 
L 355.246919 121.057778 
" style="fill:none;stroke:#b4b4b4;stroke-linecap:square;stroke-width:1.5;"/>
   </g>
   <g id="line2d_42">
    <path clip-path="url(#pe8ebf7a98e)" d="M 84.165109 121.057778 
L 190.40112 101.288889 
L 264.879147 54.337778 
L 360.358854 101.288889 
" style="fill:none;stroke:#b4b4b4;stroke-linecap:square;stroke-width:1.5;"/>
   </g>
   <g id="line2d_43">
    <path clip-path="url(#pe8ebf7a98e)" d="M 90.157151 143.297778 
L 173.327641 128.471111 
L 264.6899 64.222222 
L 353.121234 123.528889 
" style="fill:none;stroke:#b4b4b4;stroke-linecap:square;stroke-width:1.5;"/>
   </g>
   <g id="line2d_44">
    <path clip-path="url(#pe8ebf7a98e)" d="M 94.90008 143.297778 
L 178.170203 121.057778 
L 266.005635 86.462222 
L 357.891902 106.231111 
" style="fill:none;stroke:#b4b4b4;stroke-linecap:square;stroke-width:1.5;"/>
   </g>
   <g id="line2d_45">
    <path clip-path="url(#pe8ebf7a98e)" d="M 87.208315 113.644444 
L 180.691814 187.777778 
L 273.771454 93.875556 
L 364.523956 111.173333 
" style="fill:none;stroke:#b4b4b4;stroke-linecap:square;stroke-width:1.5;"/>
   </g>
   <g id="line2d_46">
    <path clip-path="url(#pe8ebf7a98e)" d="M 90.444917 123.528889 
L 181.684923 111.173333 
L 272.148037 54.337778 
L 364.449527 133.413333 
" style="fill:none;stroke:#b4b4b4;stroke-linecap:square;stroke-width:1.5;"/>
   </g>
   <g id="line2d_47">
    <path clip-path="url(#pe8ebf7a98e)" d="M 94.451778 128.471111 
L 181.669963 103.76 
L 279.288725 44.453333 
L 355.997865 123.528889 
" style="fill:none;stroke:#b4b4b4;stroke-linecap:square;stroke-width:1.5;"/>
   </g>
   <g id="line2d_48">
    <path clip-path="url(#pe8ebf7a98e)" d="M 83.572378 143.297778 
L 176.390777 118.586667 
L 274.890674 66.693333 
L 356.482592 111.173333 
" style="fill:none;stroke:#b4b4b4;stroke-linecap:square;stroke-width:1.5;"/>
   </g>
   <g id="line2d_49">
    <path clip-path="url(#pe8ebf7a98e)" d="M 92.66412 138.355556 
L 189.806674 113.644444 
L 278.02783 64.222222 
L 358.182781 121.057778 
" style="fill:none;stroke:#b4b4b4;stroke-linecap:square;stroke-width:1.5;"/>
   </g>
   <g id="line2d_50">
    <path clip-path="url(#pe8ebf7a98e)" d="M 90.51113 123.528889 
L 174.813424 108.702222 
L 279.466798 74.106667 
L 367.578293 135.884444 
" style="fill:none;stroke:#b4b4b4;stroke-linecap:square;stroke-width:1.5;"/>
   </g>
  </g>
  <g id="axes_4">
   <g id="line2d_51">
    <path clip-path="url(#pe8ebf7a98e)" d="M 84.459843 111.173333 
L 189.522969 91.404444 
L 270.818102 41.982222 
L 361.155649 143.297778 
" style="fill:none;stroke:#fb4c52;stroke-linecap:square;stroke-width:2;"/>
   </g>
   <g id="line2d_52">
    <path clip-path="url(#pe8ebf7a98e)" d="M 96.894378 128.471111 
L 187.070516 96.346667 
L 269.866631 74.106667 
L 365.735917 111.173333 
" style="fill:none;stroke:#222222;stroke-linecap:square;stroke-width:2;"/>
   </g>
  </g>
  <g id="axes_5">
   <g id="line2d_53">
    <defs>
     <path d="M 0 5 
C 1.326016 5 2.597899 4.473168 3.535534 3.535534 
C 4.473168 2.597899 5 1.326016 5 0 
C 5 -1.326016 4.473168 -2.597899 3.535534 -3.535534 
C 2.597899 -4.473168 1.326016 -5 0 -5 
C -1.326016 -5 -2.597899 -4.473168 -3.535534 -3.535534 
C -4.473168 -2.597899 -5 -1.326016 -5 0 
C -5 1.326016 -4.473168 2.597899 -3.535534 3.535534 
C -2.597899 4.473168 -1.326016 5 0 5 
z
" id="m9177c7b685" style="stroke:#00bfff;"/>
    </defs>
    <g clip-path="url(#pe8ebf7a98e)">
     <use style="fill-opacity:0;stroke:#00bfff;" x="76.514546" xlink:href="#m9177c7b685" y="123.528889"/>
     <use style="fill-opacity:0;stroke:#00bfff;" x="173.22092" xlink:href="#m9177c7b685" y="101.288889"/>
     <use style="fill-opacity:0;stroke:#00bfff;" x="260.329637" xlink:href="#m9177c7b685" y="69.164444"/>
     <use style="fill-opacity:0;stroke:#00bfff;" x="350.007583" xlink:href="#m9177c7b685" y="128.471111"/>
    </g>
   </g>
   <g id="line2d_54">
    <g clip-path="url(#pe8ebf7a98e)">
     <use style="fill-opacity:0;stroke:#00bfff;" x="75.674522" xlink:href="#m9177c7b685" y="128.471111"/>
     <use style="fill-opacity:0;stroke:#00bfff;" x="159.348758" xlink:href="#m9177c7b685" y="86.462222"/>
     <use style="fill-opacity:0;stroke:#00bfff;" x="259.704273" xlink:href="#m9177c7b685" y="59.28"/>
     <use style="fill-opacity:0;stroke:#00bfff;" x="340.159933" xlink:href="#m9177c7b685" y="111.173333"/>
    </g>
   </g>
   <g id="line2d_55">
    <g clip-path="url(#pe8ebf7a98e)">
     <use style="fill-opacity:0;stroke:#00bfff;" x="71.021091" xlink:href="#m9177c7b685" y="111.173333"/>
     <use style="fill-opacity:0;stroke:#00bfff;" x="176.084216" xlink:href="#m9177c7b685" y="91.404444"/>
     <use style="fill-opacity:0;stroke:#00bfff;" x="257.37935" xlink:href="#m9177c7b685" y="41.982222"/>
     <use style="fill-opacity:0;stroke:#00bfff;" x="347.716897" xlink:href="#m9177c7b685" y="143.297778"/>
    </g>
   </g>
   <g id="line2d_56">
    <g clip-path="url(#pe8ebf7a98e)">
     <use style="fill-opacity:0;stroke:#00bfff;" x="70.141728" xlink:href="#m9177c7b685" y="153.182222"/>
     <use style="fill-opacity:0;stroke:#00bfff;" x="173.830056" xlink:href="#m9177c7b685" y="126"/>
     <use style="fill-opacity:0;stroke:#00bfff;" x="261.951295" xlink:href="#m9177c7b685" y="111.173333"/>
     <use style="fill-opacity:0;stroke:#00bfff;" x="346.659529" xlink:href="#m9177c7b685" y="145.768889"/>
    </g>
   </g>
   <g id="line2d_57">
    <g clip-path="url(#pe8ebf7a98e)">
     <use style="fill-opacity:0;stroke:#00bfff;" x="69.857955" xlink:href="#m9177c7b685" y="101.288889"/>
     <use style="fill-opacity:0;stroke:#00bfff;" x="173.533406" xlink:href="#m9177c7b685" y="93.875556"/>
     <use style="fill-opacity:0;stroke:#00bfff;" x="265.8471" xlink:href="#m9177c7b685" y="126"/>
     <use style="fill-opacity:0;stroke:#00bfff;" x="341.87058" xlink:href="#m9177c7b685" y="126"/>
    </g>
   </g>
   <g id="line2d_58">
    <g clip-path="url(#pe8ebf7a98e)">
     <use style="fill-opacity:0;stroke:#00bfff;" x="72.540462" xlink:href="#m9177c7b685" y="165.537778"/>
     <use style="fill-opacity:0;stroke:#00bfff;" x="174.909698" xlink:href="#m9177c7b685" y="79.048889"/>
     <use style="fill-opacity:0;stroke:#00bfff;" x="260.391868" xlink:href="#m9177c7b685" y="54.337778"/>
     <use style="fill-opacity:0;stroke:#00bfff;" x="346.72437" xlink:href="#m9177c7b685" y="140.826667"/>
    </g>
   </g>
   <g id="line2d_59">
    <g clip-path="url(#pe8ebf7a98e)">
     <use style="fill-opacity:0;stroke:#00bfff;" x="80.050537" xlink:href="#m9177c7b685" y="153.182222"/>
     <use style="fill-opacity:0;stroke:#00bfff;" x="173.673685" xlink:href="#m9177c7b685" y="88.933333"/>
     <use style="fill-opacity:0;stroke:#00bfff;" x="260.236092" xlink:href="#m9177c7b685" y="41.982222"/>
     <use style="fill-opacity:0;stroke:#00bfff;" x="353.61061" xlink:href="#m9177c7b685" y="123.528889"/>
    </g>
   </g>
   <g id="line2d_60">
    <g clip-path="url(#pe8ebf7a98e)">
     <use style="fill-opacity:0;stroke:#00bfff;" x="83.455626" xlink:href="#m9177c7b685" y="128.471111"/>
     <use style="fill-opacity:0;stroke:#00bfff;" x="173.631764" xlink:href="#m9177c7b685" y="96.346667"/>
     <use style="fill-opacity:0;stroke:#00bfff;" x="256.427879" xlink:href="#m9177c7b685" y="74.106667"/>
     <use style="fill-opacity:0;stroke:#00bfff;" x="352.297165" xlink:href="#m9177c7b685" y="111.173333"/>
    </g>
   </g>
   <g id="line2d_61">
    <g clip-path="url(#pe8ebf7a98e)">
     <use style="fill-opacity:0;stroke:#00bfff;" x="82.513981" xlink:href="#m9177c7b685" y="113.644444"/>
     <use style="fill-opacity:0;stroke:#00bfff;" x="170.012759" xlink:href="#m9177c7b685" y="86.462222"/>
     <use style="fill-opacity:0;stroke:#00bfff;" x="255.946079" xlink:href="#m9177c7b685" y="91.404444"/>
     <use style="fill-opacity:0;stroke:#00bfff;" x="345.218297" xlink:href="#m9177c7b685" y="138.355556"/>
    </g>
   </g>
   <g id="line2d_62">
    <g clip-path="url(#pe8ebf7a98e)">
     <use style="fill-opacity:0;stroke:#00bfff;" x="73.254638" xlink:href="#m9177c7b685" y="135.884444"/>
     <use style="fill-opacity:0;stroke:#00bfff;" x="164.456391" xlink:href="#m9177c7b685" y="81.52"/>
     <use style="fill-opacity:0;stroke:#00bfff;" x="250.978059" xlink:href="#m9177c7b685" y="69.164444"/>
     <use style="fill-opacity:0;stroke:#00bfff;" x="345.577637" xlink:href="#m9177c7b685" y="113.644444"/>
    </g>
   </g>
   <g id="line2d_63">
    <defs>
     <path d="M 0 5 
C 1.326016 5 2.597899 4.473168 3.535534 3.535534 
C 4.473168 2.597899 5 1.326016 5 0 
C 5 -1.326016 4.473168 -2.597899 3.535534 -3.535534 
C 2.597899 -4.473168 1.326016 -5 0 -5 
C -1.326016 -5 -2.597899 -4.473168 -3.535534 -3.535534 
C -4.473168 -2.597899 -5 -1.326016 -5 0 
C -5 1.326016 -4.473168 2.597899 -3.535534 3.535534 
C -2.597899 4.473168 -1.326016 5 0 5 
z
" id="mf28aacec1d" style="stroke:#fb7fc0;"/>
    </defs>
    <g clip-path="url(#pe8ebf7a98e)">
     <use style="fill-opacity:0;stroke:#fb7fc0;" x="98.897322" xlink:href="#mf28aacec1d" y="123.528889"/>
     <use style="fill-opacity:0;stroke:#fb7fc0;" x="200.829868" xlink:href="#mf28aacec1d" y="93.875556"/>
     <use style="fill-opacity:0;stroke:#fb7fc0;" x="289.148101" xlink:href="#mf28aacec1d" y="59.28"/>
     <use style="fill-opacity:0;stroke:#fb7fc0;" x="368.685671" xlink:href="#mf28aacec1d" y="121.057778"/>
    </g>
   </g>
   <g id="line2d_64">
    <g clip-path="url(#pe8ebf7a98e)">
     <use style="fill-opacity:0;stroke:#fb7fc0;" x="97.603861" xlink:href="#mf28aacec1d" y="121.057778"/>
     <use style="fill-opacity:0;stroke:#fb7fc0;" x="203.839872" xlink:href="#mf28aacec1d" y="101.288889"/>
     <use style="fill-opacity:0;stroke:#fb7fc0;" x="278.317899" xlink:href="#mf28aacec1d" y="54.337778"/>
     <use style="fill-opacity:0;stroke:#fb7fc0;" x="373.797606" xlink:href="#mf28aacec1d" y="101.288889"/>
    </g>
   </g>
   <g id="line2d_65">
    <g clip-path="url(#pe8ebf7a98e)">
     <use style="fill-opacity:0;stroke:#fb7fc0;" x="103.595903" xlink:href="#mf28aacec1d" y="143.297778"/>
     <use style="fill-opacity:0;stroke:#fb7fc0;" x="186.766394" xlink:href="#mf28aacec1d" y="128.471111"/>
     <use style="fill-opacity:0;stroke:#fb7fc0;" x="278.128652" xlink:href="#mf28aacec1d" y="64.222222"/>
     <use style="fill-opacity:0;stroke:#fb7fc0;" x="366.559986" xlink:href="#mf28aacec1d" y="123.528889"/>
    </g>
   </g>
   <g id="line2d_66">
    <g clip-path="url(#pe8ebf7a98e)">
     <use style="fill-opacity:0;stroke:#fb7fc0;" x="108.338833" xlink:href="#mf28aacec1d" y="143.297778"/>
     <use style="fill-opacity:0;stroke:#fb7fc0;" x="191.608955" xlink:href="#mf28aacec1d" y="121.057778"/>
     <use style="fill-opacity:0;stroke:#fb7fc0;" x="279.444387" xlink:href="#mf28aacec1d" y="86.462222"/>
     <use style="fill-opacity:0;stroke:#fb7fc0;" x="371.330654" xlink:href="#mf28aacec1d" y="106.231111"/>
    </g>
   </g>
   <g id="line2d_67">
    <g clip-path="url(#pe8ebf7a98e)">
     <use style="fill-opacity:0;stroke:#fb7fc0;" x="100.647067" xlink:href="#mf28aacec1d" y="113.644444"/>
     <use style="fill-opacity:0;stroke:#fb7fc0;" x="194.130566" xlink:href="#mf28aacec1d" y="187.777778"/>
     <use style="fill-opacity:0;stroke:#fb7fc0;" x="287.210206" xlink:href="#mf28aacec1d" y="93.875556"/>
     <use style="fill-opacity:0;stroke:#fb7fc0;" x="377.962708" xlink:href="#mf28aacec1d" y="111.173333"/>
    </g>
   </g>
   <g id="line2d_68">
    <g clip-path="url(#pe8ebf7a98e)">
     <use style="fill-opacity:0;stroke:#fb7fc0;" x="103.883669" xlink:href="#mf28aacec1d" y="123.528889"/>
     <use style="fill-opacity:0;stroke:#fb7fc0;" x="195.123675" xlink:href="#mf28aacec1d" y="111.173333"/>
     <use style="fill-opacity:0;stroke:#fb7fc0;" x="285.586789" xlink:href="#mf28aacec1d" y="54.337778"/>
     <use style="fill-opacity:0;stroke:#fb7fc0;" x="377.88828" xlink:href="#mf28aacec1d" y="133.413333"/>
    </g>
   </g>
   <g id="line2d_69">
    <g clip-path="url(#pe8ebf7a98e)">
     <use style="fill-opacity:0;stroke:#fb7fc0;" x="107.89053" xlink:href="#mf28aacec1d" y="128.471111"/>
     <use style="fill-opacity:0;stroke:#fb7fc0;" x="195.108715" xlink:href="#mf28aacec1d" y="103.76"/>
     <use style="fill-opacity:0;stroke:#fb7fc0;" x="292.727477" xlink:href="#mf28aacec1d" y="44.453333"/>
     <use style="fill-opacity:0;stroke:#fb7fc0;" x="369.436617" xlink:href="#mf28aacec1d" y="123.528889"/>
    </g>
   </g>
   <g id="line2d_70">
    <g clip-path="url(#pe8ebf7a98e)">
     <use style="fill-opacity:0;stroke:#fb7fc0;" x="97.011131" xlink:href="#mf28aacec1d" y="143.297778"/>
     <use style="fill-opacity:0;stroke:#fb7fc0;" x="189.829529" xlink:href="#mf28aacec1d" y="118.586667"/>
     <use style="fill-opacity:0;stroke:#fb7fc0;" x="288.329427" xlink:href="#mf28aacec1d" y="66.693333"/>
     <use style="fill-opacity:0;stroke:#fb7fc0;" x="369.921345" xlink:href="#mf28aacec1d" y="111.173333"/>
    </g>
   </g>
   <g id="line2d_71">
    <g clip-path="url(#pe8ebf7a98e)">
     <use style="fill-opacity:0;stroke:#fb7fc0;" x="106.102873" xlink:href="#mf28aacec1d" y="138.355556"/>
     <use style="fill-opacity:0;stroke:#fb7fc0;" x="203.245426" xlink:href="#mf28aacec1d" y="113.644444"/>
     <use style="fill-opacity:0;stroke:#fb7fc0;" x="291.466582" xlink:href="#mf28aacec1d" y="64.222222"/>
     <use style="fill-opacity:0;stroke:#fb7fc0;" x="371.621533" xlink:href="#mf28aacec1d" y="121.057778"/>
    </g>
   </g>
   <g id="line2d_72">
    <g clip-path="url(#pe8ebf7a98e)">
     <use style="fill-opacity:0;stroke:#fb7fc0;" x="103.949883" xlink:href="#mf28aacec1d" y="123.528889"/>
     <use style="fill-opacity:0;stroke:#fb7fc0;" x="188.252176" xlink:href="#mf28aacec1d" y="108.702222"/>
     <use style="fill-opacity:0;stroke:#fb7fc0;" x="292.90555" xlink:href="#mf28aacec1d" y="74.106667"/>
     <use style="fill-opacity:0;stroke:#fb7fc0;" x="381.017045" xlink:href="#mf28aacec1d" y="135.884444"/>
    </g>
   </g>
   <g id="line2d_73">
    <defs>
     <path d="M 15 0 
L -15 -0 
" id="m6b04545bdc" style="stroke:#00bfff;stroke-width:2;"/>
    </defs>
    <g clip-path="url(#pe8ebf7a98e)">
     <use style="fill:#00bfff;stroke:#00bfff;stroke-width:2;" x="78.465989" xlink:href="#m6b04545bdc" y="131.436444"/>
     <use style="fill:#00bfff;stroke:#00bfff;stroke-width:2;" x="168.05767" xlink:href="#m6b04545bdc" y="93.134222"/>
     <use style="fill:#00bfff;stroke:#00bfff;stroke-width:2;" x="257.649351" xlink:href="#m6b04545bdc" y="73.859556"/>
     <use style="fill:#00bfff;stroke:#00bfff;stroke-width:2;" x="347.241032" xlink:href="#m6b04545bdc" y="128.224"/>
    </g>
   </g>
   <g id="line2d_74">
    <defs>
     <path d="M 15 0 
L -15 -0 
" id="ma81512c89a" style="stroke:#fb7fc0;stroke-width:2;"/>
    </defs>
    <g clip-path="url(#pe8ebf7a98e)">
     <use style="fill:#fb7fc0;stroke:#fb7fc0;stroke-width:2;" x="105.343494" xlink:href="#ma81512c89a" y="130.200889"/>
     <use style="fill:#fb7fc0;stroke:#fb7fc0;stroke-width:2;" x="194.935175" xlink:href="#ma81512c89a" y="118.833778"/>
     <use style="fill:#fb7fc0;stroke:#fb7fc0;stroke-width:2;" x="284.526856" xlink:href="#ma81512c89a" y="66.199111"/>
     <use style="fill:#fb7fc0;stroke:#fb7fc0;stroke-width:2;" x="374.118536" xlink:href="#ma81512c89a" y="118.833778"/>
    </g>
   </g>
   <g id="line2d_75"/>
   <g id="line2d_76"/>
   <g id="legend_1">
    <g id="patch_5">
     <path d="M 61.3 52.15625 
L 129.996875 52.15625 
Q 131.996875 52.15625 131.996875 50.15625 
L 131.996875 21.8 
Q 131.996875 19.8 129.996875 19.8 
L 61.3 19.8 
Q 59.3 19.8 59.3 21.8 
L 59.3 50.15625 
Q 59.3 52.15625 61.3 52.15625 
z
" style="fill:none;opacity:0.8;stroke:#cccccc;stroke-linejoin:miter;"/>
    </g>
    <g id="line2d_77"/>
    <g id="line2d_78">
     <g>
      <use style="fill-opacity:0;stroke:#00bfff;" x="73.3" xlink:href="#m9177c7b685" y="27.898437"/>
     </g>
    </g>
    <g id="text_12">
     <!-- Male -->
     <g transform="translate(91.3 31.398437)scale(0.1 -0.1)">
      <use xlink:href="#DejaVuSans-4d"/>
      <use x="86.279297" xlink:href="#DejaVuSans-61"/>
      <use x="147.558594" xlink:href="#DejaVuSans-6c"/>
      <use x="175.341797" xlink:href="#DejaVuSans-65"/>
     </g>
    </g>
    <g id="line2d_79"/>
    <g id="line2d_80">
     <g>
      <use style="fill-opacity:0;stroke:#fb7fc0;" x="73.3" xlink:href="#mf28aacec1d" y="42.576562"/>
     </g>
    </g>
    <g id="text_13">
     <!-- Female -->
     <defs>
      <path d="M 9.8125 72.90625 
L 51.703125 72.90625 
L 51.703125 64.59375 
L 19.671875 64.59375 
L 19.671875 43.109375 
L 48.578125 43.109375 
L 48.578125 34.8125 
L 19.671875 34.8125 
L 19.671875 0 
L 9.8125 0 
z
" id="DejaVuSans-46"/>
     </defs>
     <g transform="translate(91.3 46.076562)scale(0.1 -0.1)">
      <use xlink:href="#DejaVuSans-46"/>
      <use x="57.441406" xlink:href="#DejaVuSans-65"/>
      <use x="118.964844" xlink:href="#DejaVuSans-6d"/>
      <use x="216.376953" xlink:href="#DejaVuSans-61"/>
      <use x="277.65625" xlink:href="#DejaVuSans-6c"/>
      <use x="305.439453" xlink:href="#DejaVuSans-65"/>
     </g>
    </g>
   </g>
  </g>
  <g id="axes_6">
   <g id="line2d_81">
    <path clip-path="url(#pe8ebf7a98e)" d="M 54.3 126 
L 396.575 126 
" style="fill:none;stroke:#ff8b22;stroke-dasharray:5.55,2.4;stroke-dashoffset:0;stroke-width:1.5;"/>
   </g>
   <g id="text_14">
    <!-- Grand -->
    <defs>
     <path d="M 45.40625 46.390625 
L 45.40625 75.984375 
L 54.390625 75.984375 
L 54.390625 0 
L 45.40625 0 
L 45.40625 8.203125 
Q 42.578125 3.328125 38.25 0.953125 
Q 33.9375 -1.421875 27.875 -1.421875 
Q 17.96875 -1.421875 11.734375 6.484375 
Q 5.515625 14.40625 5.515625 27.296875 
Q 5.515625 40.1875 11.734375 48.09375 
Q 17.96875 56 27.875 56 
Q 33.9375 56 38.25 53.625 
Q 42.578125 51.265625 45.40625 46.390625 
z
M 14.796875 27.296875 
Q 14.796875 17.390625 18.875 11.75 
Q 22.953125 6.109375 30.078125 6.109375 
Q 37.203125 6.109375 41.296875 11.75 
Q 45.40625 17.390625 45.40625 27.296875 
Q 45.40625 37.203125 41.296875 42.84375 
Q 37.203125 48.484375 30.078125 48.484375 
Q 22.953125 48.484375 18.875 42.84375 
Q 14.796875 37.203125 14.796875 27.296875 
z
" id="DejaVuSans-64"/>
    </defs>
    <g style="fill:#ff8b22;" transform="translate(381.341487 122.024656)scale(0.14 -0.14)">
     <use xlink:href="#DejaVuSans-47"/>
     <use x="77.490234" xlink:href="#DejaVuSans-72"/>
     <use x="118.603516" xlink:href="#DejaVuSans-61"/>
     <use x="179.882812" xlink:href="#DejaVuSans-6e"/>
     <use x="243.261719" xlink:href="#DejaVuSans-64"/>
    </g>
    <!-- mean -->
    <g style="fill:#ff8b22;" transform="translate(381.341487 137.701594)scale(0.14 -0.14)">
     <use xlink:href="#DejaVuSans-6d"/>
     <use x="97.412109" xlink:href="#DejaVuSans-65"/>
     <use x="158.935547" xlink:href="#DejaVuSans-61"/>
     <use x="220.214844" xlink:href="#DejaVuSans-6e"/>
    </g>
   </g>
  </g>
 </g>
 <defs>
  <clipPath id="pe8ebf7a98e">
   <rect height="222.4" width="342.275" x="54.3" y="14.8"/>
  </clipPath>
 </defs>
</svg>
