<?xml version="1.0" encoding="utf-8" standalone="no"?>
<!DOCTYPE svg PUBLIC "-//W3C//DTD SVG 1.1//EN"
  "http://www.w3.org/Graphics/SVG/1.1/DTD/svg11.dtd">
<!-- Created with matplotlib (http://matplotlib.org/) -->
<svg height="324pt" version="1.1" viewBox="0 0 432 324" width="432pt" xmlns="http://www.w3.org/2000/svg" xmlns:xlink="http://www.w3.org/1999/xlink">
 <defs>
  <style type="text/css">
*{stroke-linecap:butt;stroke-linejoin:round;}
  </style>
 </defs>
 <g id="figure_1">
  <g id="patch_1">
   <path d="M 0 324 
L 432 324 
L 432 0 
L 0 0 
z
" style="fill:none;"/>
  </g>
  <g id="axes_1">
   <g id="patch_2">
    <path d="M 43.925 124.6 
L 185.975 124.6 
L 185.975 16.8 
L 43.925 16.8 
z
" style="fill:none;"/>
   </g>
   <g id="matplotlib.axis_1">
    <g id="xtick_1">
     <g id="line2d_1">
      <defs>
       <path d="M 0 0 
L 0 6 
" id="md8f215a36f" style="stroke:#222222;"/>
      </defs>
      <g>
       <use style="fill:#222222;stroke:#222222;" x="43.925" xlink:href="#md8f215a36f" y="124.6"/>
      </g>
     </g>
     <g id="text_1">
      <!-- 0 -->
      <defs>
       <path d="M 31.78125 66.40625 
Q 24.171875 66.40625 20.328125 58.90625 
Q 16.5 51.421875 16.5 36.375 
Q 16.5 21.390625 20.328125 13.890625 
Q 24.171875 6.390625 31.78125 6.390625 
Q 39.453125 6.390625 43.28125 13.890625 
Q 47.125 21.390625 47.125 36.375 
Q 47.125 51.421875 43.28125 58.90625 
Q 39.453125 66.40625 31.78125 66.40625 
z
M 31.78125 74.21875 
Q 44.046875 74.21875 50.515625 64.515625 
Q 56.984375 54.828125 56.984375 36.375 
Q 56.984375 17.96875 50.515625 8.265625 
Q 44.046875 -1.421875 31.78125 -1.421875 
Q 19.53125 -1.421875 13.0625 8.265625 
Q 6.59375 17.96875 6.59375 36.375 
Q 6.59375 54.828125 13.0625 64.515625 
Q 19.53125 74.21875 31.78125 74.21875 
z
" id="DejaVuSans-30"/>
      </defs>
      <g style="fill:#222222;" transform="translate(41.38 140.67875)scale(0.08 -0.08)">
       <use xlink:href="#DejaVuSans-30"/>
      </g>
     </g>
    </g>
    <g id="xtick_2">
     <g id="line2d_2">
      <g>
       <use style="fill:#222222;stroke:#222222;" x="65.2325" xlink:href="#md8f215a36f" y="124.6"/>
      </g>
     </g>
     <g id="text_2">
      <!-- 3 -->
      <defs>
       <path d="M 40.578125 39.3125 
Q 47.65625 37.796875 51.625 33 
Q 55.609375 28.21875 55.609375 21.1875 
Q 55.609375 10.40625 48.1875 4.484375 
Q 40.765625 -1.421875 27.09375 -1.421875 
Q 22.515625 -1.421875 17.65625 -0.515625 
Q 12.796875 0.390625 7.625 2.203125 
L 7.625 11.71875 
Q 11.71875 9.328125 16.59375 8.109375 
Q 21.484375 6.890625 26.8125 6.890625 
Q 36.078125 6.890625 40.9375 10.546875 
Q 45.796875 14.203125 45.796875 21.1875 
Q 45.796875 27.640625 41.28125 31.265625 
Q 36.765625 34.90625 28.71875 34.90625 
L 20.21875 34.90625 
L 20.21875 43.015625 
L 29.109375 43.015625 
Q 36.375 43.015625 40.234375 45.921875 
Q 44.09375 48.828125 44.09375 54.296875 
Q 44.09375 59.90625 40.109375 62.90625 
Q 36.140625 65.921875 28.71875 65.921875 
Q 24.65625 65.921875 20.015625 65.03125 
Q 15.375 64.15625 9.8125 62.3125 
L 9.8125 71.09375 
Q 15.4375 72.65625 20.34375 73.4375 
Q 25.25 74.21875 29.59375 74.21875 
Q 40.828125 74.21875 47.359375 69.109375 
Q 53.90625 64.015625 53.90625 55.328125 
Q 53.90625 49.265625 50.4375 45.09375 
Q 46.96875 40.921875 40.578125 39.3125 
z
" id="DejaVuSans-33"/>
      </defs>
      <g style="fill:#222222;" transform="translate(62.6875 140.67875)scale(0.08 -0.08)">
       <use xlink:href="#DejaVuSans-33"/>
      </g>
     </g>
    </g>
    <g id="xtick_3">
     <g id="line2d_3">
      <g>
       <use style="fill:#222222;stroke:#222222;" x="86.54" xlink:href="#md8f215a36f" y="124.6"/>
      </g>
     </g>
     <g id="text_3">
      <!-- 6 -->
      <defs>
       <path d="M 33.015625 40.375 
Q 26.375 40.375 22.484375 35.828125 
Q 18.609375 31.296875 18.609375 23.390625 
Q 18.609375 15.53125 22.484375 10.953125 
Q 26.375 6.390625 33.015625 6.390625 
Q 39.65625 6.390625 43.53125 10.953125 
Q 47.40625 15.53125 47.40625 23.390625 
Q 47.40625 31.296875 43.53125 35.828125 
Q 39.65625 40.375 33.015625 40.375 
z
M 52.59375 71.296875 
L 52.59375 62.3125 
Q 48.875 64.0625 45.09375 64.984375 
Q 41.3125 65.921875 37.59375 65.921875 
Q 27.828125 65.921875 22.671875 59.328125 
Q 17.53125 52.734375 16.796875 39.40625 
Q 19.671875 43.65625 24.015625 45.921875 
Q 28.375 48.1875 33.59375 48.1875 
Q 44.578125 48.1875 50.953125 41.515625 
Q 57.328125 34.859375 57.328125 23.390625 
Q 57.328125 12.15625 50.6875 5.359375 
Q 44.046875 -1.421875 33.015625 -1.421875 
Q 20.359375 -1.421875 13.671875 8.265625 
Q 6.984375 17.96875 6.984375 36.375 
Q 6.984375 53.65625 15.1875 63.9375 
Q 23.390625 74.21875 37.203125 74.21875 
Q 40.921875 74.21875 44.703125 73.484375 
Q 48.484375 72.75 52.59375 71.296875 
z
" id="DejaVuSans-36"/>
      </defs>
      <g style="fill:#222222;" transform="translate(83.995 140.67875)scale(0.08 -0.08)">
       <use xlink:href="#DejaVuSans-36"/>
      </g>
     </g>
    </g>
    <g id="xtick_4">
     <g id="line2d_4">
      <g>
       <use style="fill:#222222;stroke:#222222;" x="107.8475" xlink:href="#md8f215a36f" y="124.6"/>
      </g>
     </g>
     <g id="text_4">
      <!-- 9 -->
      <defs>
       <path d="M 10.984375 1.515625 
L 10.984375 10.5 
Q 14.703125 8.734375 18.5 7.8125 
Q 22.3125 6.890625 25.984375 6.890625 
Q 35.75 6.890625 40.890625 13.453125 
Q 46.046875 20.015625 46.78125 33.40625 
Q 43.953125 29.203125 39.59375 26.953125 
Q 35.25 24.703125 29.984375 24.703125 
Q 19.046875 24.703125 12.671875 31.3125 
Q 6.296875 37.9375 6.296875 49.421875 
Q 6.296875 60.640625 12.9375 67.421875 
Q 19.578125 74.21875 30.609375 74.21875 
Q 43.265625 74.21875 49.921875 64.515625 
Q 56.59375 54.828125 56.59375 36.375 
Q 56.59375 19.140625 48.40625 8.859375 
Q 40.234375 -1.421875 26.421875 -1.421875 
Q 22.703125 -1.421875 18.890625 -0.6875 
Q 15.09375 0.046875 10.984375 1.515625 
z
M 30.609375 32.421875 
Q 37.25 32.421875 41.125 36.953125 
Q 45.015625 41.5 45.015625 49.421875 
Q 45.015625 57.28125 41.125 61.84375 
Q 37.25 66.40625 30.609375 66.40625 
Q 23.96875 66.40625 20.09375 61.84375 
Q 16.21875 57.28125 16.21875 49.421875 
Q 16.21875 41.5 20.09375 36.953125 
Q 23.96875 32.421875 30.609375 32.421875 
z
" id="DejaVuSans-39"/>
      </defs>
      <g style="fill:#222222;" transform="translate(105.3025 140.67875)scale(0.08 -0.08)">
       <use xlink:href="#DejaVuSans-39"/>
      </g>
     </g>
    </g>
    <g id="xtick_5">
     <g id="line2d_5">
      <g>
       <use style="fill:#222222;stroke:#222222;" x="129.155" xlink:href="#md8f215a36f" y="124.6"/>
      </g>
     </g>
     <g id="text_5">
      <!-- 12 -->
      <defs>
       <path d="M 12.40625 8.296875 
L 28.515625 8.296875 
L 28.515625 63.921875 
L 10.984375 60.40625 
L 10.984375 69.390625 
L 28.421875 72.90625 
L 38.28125 72.90625 
L 38.28125 8.296875 
L 54.390625 8.296875 
L 54.390625 0 
L 12.40625 0 
z
" id="DejaVuSans-31"/>
       <path d="M 19.1875 8.296875 
L 53.609375 8.296875 
L 53.609375 0 
L 7.328125 0 
L 7.328125 8.296875 
Q 12.9375 14.109375 22.625 23.890625 
Q 32.328125 33.6875 34.8125 36.53125 
Q 39.546875 41.84375 41.421875 45.53125 
Q 43.3125 49.21875 43.3125 52.78125 
Q 43.3125 58.59375 39.234375 62.25 
Q 35.15625 65.921875 28.609375 65.921875 
Q 23.96875 65.921875 18.8125 64.3125 
Q 13.671875 62.703125 7.8125 59.421875 
L 7.8125 69.390625 
Q 13.765625 71.78125 18.9375 73 
Q 24.125 74.21875 28.421875 74.21875 
Q 39.75 74.21875 46.484375 68.546875 
Q 53.21875 62.890625 53.21875 53.421875 
Q 53.21875 48.921875 51.53125 44.890625 
Q 49.859375 40.875 45.40625 35.40625 
Q 44.1875 33.984375 37.640625 27.21875 
Q 31.109375 20.453125 19.1875 8.296875 
z
" id="DejaVuSans-32"/>
      </defs>
      <g style="fill:#222222;" transform="translate(124.065 140.67875)scale(0.08 -0.08)">
       <use xlink:href="#DejaVuSans-31"/>
       <use x="63.623047" xlink:href="#DejaVuSans-32"/>
      </g>
     </g>
    </g>
    <g id="xtick_6">
     <g id="line2d_6">
      <g>
       <use style="fill:#222222;stroke:#222222;" x="150.4625" xlink:href="#md8f215a36f" y="124.6"/>
      </g>
     </g>
     <g id="text_6">
      <!-- 15 -->
      <defs>
       <path d="M 10.796875 72.90625 
L 49.515625 72.90625 
L 49.515625 64.59375 
L 19.828125 64.59375 
L 19.828125 46.734375 
Q 21.96875 47.46875 24.109375 47.828125 
Q 26.265625 48.1875 28.421875 48.1875 
Q 40.625 48.1875 47.75 41.5 
Q 54.890625 34.8125 54.890625 23.390625 
Q 54.890625 11.625 47.5625 5.09375 
Q 40.234375 -1.421875 26.90625 -1.421875 
Q 22.3125 -1.421875 17.546875 -0.640625 
Q 12.796875 0.140625 7.71875 1.703125 
L 7.71875 11.625 
Q 12.109375 9.234375 16.796875 8.0625 
Q 21.484375 6.890625 26.703125 6.890625 
Q 35.15625 6.890625 40.078125 11.328125 
Q 45.015625 15.765625 45.015625 23.390625 
Q 45.015625 31 40.078125 35.4375 
Q 35.15625 39.890625 26.703125 39.890625 
Q 22.75 39.890625 18.8125 39.015625 
Q 14.890625 38.140625 10.796875 36.28125 
z
" id="DejaVuSans-35"/>
      </defs>
      <g style="fill:#222222;" transform="translate(145.3725 140.67875)scale(0.08 -0.08)">
       <use xlink:href="#DejaVuSans-31"/>
       <use x="63.623047" xlink:href="#DejaVuSans-35"/>
      </g>
     </g>
    </g>
    <g id="xtick_7">
     <g id="line2d_7">
      <g>
       <use style="fill:#222222;stroke:#222222;" x="171.77" xlink:href="#md8f215a36f" y="124.6"/>
      </g>
     </g>
     <g id="text_7">
      <!-- 18 -->
      <defs>
       <path d="M 31.78125 34.625 
Q 24.75 34.625 20.71875 30.859375 
Q 16.703125 27.09375 16.703125 20.515625 
Q 16.703125 13.921875 20.71875 10.15625 
Q 24.75 6.390625 31.78125 6.390625 
Q 38.8125 6.390625 42.859375 10.171875 
Q 46.921875 13.96875 46.921875 20.515625 
Q 46.921875 27.09375 42.890625 30.859375 
Q 38.875 34.625 31.78125 34.625 
z
M 21.921875 38.8125 
Q 15.578125 40.375 12.03125 44.71875 
Q 8.5 49.078125 8.5 55.328125 
Q 8.5 64.0625 14.71875 69.140625 
Q 20.953125 74.21875 31.78125 74.21875 
Q 42.671875 74.21875 48.875 69.140625 
Q 55.078125 64.0625 55.078125 55.328125 
Q 55.078125 49.078125 51.53125 44.71875 
Q 48 40.375 41.703125 38.8125 
Q 48.828125 37.15625 52.796875 32.3125 
Q 56.78125 27.484375 56.78125 20.515625 
Q 56.78125 9.90625 50.3125 4.234375 
Q 43.84375 -1.421875 31.78125 -1.421875 
Q 19.734375 -1.421875 13.25 4.234375 
Q 6.78125 9.90625 6.78125 20.515625 
Q 6.78125 27.484375 10.78125 32.3125 
Q 14.796875 37.15625 21.921875 38.8125 
z
M 18.3125 54.390625 
Q 18.3125 48.734375 21.84375 45.5625 
Q 25.390625 42.390625 31.78125 42.390625 
Q 38.140625 42.390625 41.71875 45.5625 
Q 45.3125 48.734375 45.3125 54.390625 
Q 45.3125 60.0625 41.71875 63.234375 
Q 38.140625 66.40625 31.78125 66.40625 
Q 25.390625 66.40625 21.84375 63.234375 
Q 18.3125 60.0625 18.3125 54.390625 
z
" id="DejaVuSans-38"/>
      </defs>
      <g style="fill:#222222;" transform="translate(166.68 140.67875)scale(0.08 -0.08)">
       <use xlink:href="#DejaVuSans-31"/>
       <use x="63.623047" xlink:href="#DejaVuSans-38"/>
      </g>
     </g>
    </g>
    <g id="text_8">
     <!-- x -->
     <defs>
      <path d="M 54.890625 54.6875 
L 35.109375 28.078125 
L 55.90625 0 
L 45.3125 0 
L 29.390625 21.484375 
L 13.484375 0 
L 2.875 0 
L 24.125 28.609375 
L 4.6875 54.6875 
L 15.28125 54.6875 
L 29.78125 35.203125 
L 44.28125 54.6875 
z
" id="DejaVuSans-78"/>
     </defs>
     <g style="fill:#222222;" transform="translate(111.39875 151.460625)scale(0.12 -0.12)">
      <use xlink:href="#DejaVuSans-78"/>
     </g>
    </g>
   </g>
   <g id="matplotlib.axis_2">
    <g id="ytick_1">
     <g id="line2d_8">
      <defs>
       <path d="M 0 0 
L -6 0 
" id="m1a6e4f44d8" style="stroke:#222222;"/>
      </defs>
      <g>
       <use style="fill:#222222;stroke:#222222;" x="43.925" xlink:href="#m1a6e4f44d8" y="124.6"/>
      </g>
     </g>
     <g id="text_9">
      <!-- 0 -->
      <g style="fill:#222222;" transform="translate(28.835 127.639375)scale(0.08 -0.08)">
       <use xlink:href="#DejaVuSans-30"/>
      </g>
     </g>
    </g>
    <g id="ytick_2">
     <g id="line2d_9">
      <g>
       <use style="fill:#222222;stroke:#222222;" x="43.925" xlink:href="#m1a6e4f44d8" y="101.5"/>
      </g>
     </g>
     <g id="text_10">
      <!-- 3 -->
      <g style="fill:#222222;" transform="translate(28.835 104.539375)scale(0.08 -0.08)">
       <use xlink:href="#DejaVuSans-33"/>
      </g>
     </g>
    </g>
    <g id="ytick_3">
     <g id="line2d_10">
      <g>
       <use style="fill:#222222;stroke:#222222;" x="43.925" xlink:href="#m1a6e4f44d8" y="78.4"/>
      </g>
     </g>
     <g id="text_11">
      <!-- 6 -->
      <g style="fill:#222222;" transform="translate(28.835 81.439375)scale(0.08 -0.08)">
       <use xlink:href="#DejaVuSans-36"/>
      </g>
     </g>
    </g>
    <g id="ytick_4">
     <g id="line2d_11">
      <g>
       <use style="fill:#222222;stroke:#222222;" x="43.925" xlink:href="#m1a6e4f44d8" y="55.3"/>
      </g>
     </g>
     <g id="text_12">
      <!-- 9 -->
      <g style="fill:#222222;" transform="translate(28.835 58.339375)scale(0.08 -0.08)">
       <use xlink:href="#DejaVuSans-39"/>
      </g>
     </g>
    </g>
    <g id="ytick_5">
     <g id="line2d_12">
      <g>
       <use style="fill:#222222;stroke:#222222;" x="43.925" xlink:href="#m1a6e4f44d8" y="32.2"/>
      </g>
     </g>
     <g id="text_13">
      <!-- 12 -->
      <g style="fill:#222222;" transform="translate(23.745 35.239375)scale(0.08 -0.08)">
       <use xlink:href="#DejaVuSans-31"/>
       <use x="63.623047" xlink:href="#DejaVuSans-32"/>
      </g>
     </g>
    </g>
    <g id="text_14">
     <!-- y -->
     <defs>
      <path d="M 32.171875 -5.078125 
Q 28.375 -14.84375 24.75 -17.8125 
Q 21.140625 -20.796875 15.09375 -20.796875 
L 7.90625 -20.796875 
L 7.90625 -13.28125 
L 13.1875 -13.28125 
Q 16.890625 -13.28125 18.9375 -11.515625 
Q 21 -9.765625 23.484375 -3.21875 
L 25.09375 0.875 
L 2.984375 54.6875 
L 12.5 54.6875 
L 29.59375 11.921875 
L 46.6875 54.6875 
L 56.203125 54.6875 
z
" id="DejaVuSans-79"/>
     </defs>
     <g style="fill:#222222;" transform="translate(21.249375 74.25125)rotate(-90)scale(0.12 -0.12)">
      <use xlink:href="#DejaVuSans-79"/>
     </g>
    </g>
   </g>
   <g id="line2d_13">
    <path clip-path="url(#p7ca5056201)" d="M 43.925 101.4993 
L 51.0275 97.6486 
L 58.13 93.7979 
L 65.2325 89.9472 
L 72.335 86.0965 
L 79.4375 82.2458 
L 86.54 78.3951 
L 93.6425 74.5444 
L 100.745 70.6937 
L 107.8475 66.843 
L 114.95 62.9923 
L 122.0525 59.1416 
L 129.155 55.2909 
L 136.2575 51.4402 
L 143.36 47.5895 
L 150.4625 43.7388 
L 157.565 39.8881 
L 164.6675 36.0374 
L 171.77 32.1867 
L 178.8725 28.336 
" style="fill:none;stroke:#00bfff;stroke-linecap:square;stroke-width:1.5;"/>
   </g>
   <g id="patch_3">
    <path d="M 43.925 124.6 
L 43.925 16.8 
" style="fill:none;stroke:#222222;stroke-linecap:square;stroke-linejoin:miter;"/>
   </g>
   <g id="patch_4">
    <path d="M 43.925 124.6 
L 185.975 124.6 
" style="fill:none;stroke:#222222;stroke-linecap:square;stroke-linejoin:miter;"/>
   </g>
   <g id="text_15">
    <!-- Dataset #1 -->
    <defs>
     <path d="M 19.671875 64.796875 
L 19.671875 8.109375 
L 31.59375 8.109375 
Q 46.6875 8.109375 53.6875 14.9375 
Q 60.6875 21.78125 60.6875 36.53125 
Q 60.6875 51.171875 53.6875 57.984375 
Q 46.6875 64.796875 31.59375 64.796875 
z
M 9.8125 72.90625 
L 30.078125 72.90625 
Q 51.265625 72.90625 61.171875 64.09375 
Q 71.09375 55.28125 71.09375 36.53125 
Q 71.09375 17.671875 61.125 8.828125 
Q 51.171875 0 30.078125 0 
L 9.8125 0 
z
" id="DejaVuSans-44"/>
     <path d="M 34.28125 27.484375 
Q 23.390625 27.484375 19.1875 25 
Q 14.984375 22.515625 14.984375 16.5 
Q 14.984375 11.71875 18.140625 8.90625 
Q 21.296875 6.109375 26.703125 6.109375 
Q 34.1875 6.109375 38.703125 11.40625 
Q 43.21875 16.703125 43.21875 25.484375 
L 43.21875 27.484375 
z
M 52.203125 31.203125 
L 52.203125 0 
L 43.21875 0 
L 43.21875 8.296875 
Q 40.140625 3.328125 35.546875 0.953125 
Q 30.953125 -1.421875 24.3125 -1.421875 
Q 15.921875 -1.421875 10.953125 3.296875 
Q 6 8.015625 6 15.921875 
Q 6 25.140625 12.171875 29.828125 
Q 18.359375 34.515625 30.609375 34.515625 
L 43.21875 34.515625 
L 43.21875 35.40625 
Q 43.21875 41.609375 39.140625 45 
Q 35.0625 48.390625 27.6875 48.390625 
Q 23 48.390625 18.546875 47.265625 
Q 14.109375 46.140625 10.015625 43.890625 
L 10.015625 52.203125 
Q 14.9375 54.109375 19.578125 55.046875 
Q 24.21875 56 28.609375 56 
Q 40.484375 56 46.34375 49.84375 
Q 52.203125 43.703125 52.203125 31.203125 
z
" id="DejaVuSans-61"/>
     <path d="M 18.3125 70.21875 
L 18.3125 54.6875 
L 36.8125 54.6875 
L 36.8125 47.703125 
L 18.3125 47.703125 
L 18.3125 18.015625 
Q 18.3125 11.328125 20.140625 9.421875 
Q 21.96875 7.515625 27.59375 7.515625 
L 36.8125 7.515625 
L 36.8125 0 
L 27.59375 0 
Q 17.1875 0 13.234375 3.875 
Q 9.28125 7.765625 9.28125 18.015625 
L 9.28125 47.703125 
L 2.6875 47.703125 
L 2.6875 54.6875 
L 9.28125 54.6875 
L 9.28125 70.21875 
z
" id="DejaVuSans-74"/>
     <path d="M 44.28125 53.078125 
L 44.28125 44.578125 
Q 40.484375 46.53125 36.375 47.5 
Q 32.28125 48.484375 27.875 48.484375 
Q 21.1875 48.484375 17.84375 46.4375 
Q 14.5 44.390625 14.5 40.28125 
Q 14.5 37.15625 16.890625 35.375 
Q 19.28125 33.59375 26.515625 31.984375 
L 29.59375 31.296875 
Q 39.15625 29.25 43.1875 25.515625 
Q 47.21875 21.78125 47.21875 15.09375 
Q 47.21875 7.46875 41.1875 3.015625 
Q 35.15625 -1.421875 24.609375 -1.421875 
Q 20.21875 -1.421875 15.453125 -0.5625 
Q 10.6875 0.296875 5.421875 2 
L 5.421875 11.28125 
Q 10.40625 8.6875 15.234375 7.390625 
Q 20.0625 6.109375 24.8125 6.109375 
Q 31.15625 6.109375 34.5625 8.28125 
Q 37.984375 10.453125 37.984375 14.40625 
Q 37.984375 18.0625 35.515625 20.015625 
Q 33.0625 21.96875 24.703125 23.78125 
L 21.578125 24.515625 
Q 13.234375 26.265625 9.515625 29.90625 
Q 5.8125 33.546875 5.8125 39.890625 
Q 5.8125 47.609375 11.28125 51.796875 
Q 16.75 56 26.8125 56 
Q 31.78125 56 36.171875 55.265625 
Q 40.578125 54.546875 44.28125 53.078125 
z
" id="DejaVuSans-73"/>
     <path d="M 56.203125 29.59375 
L 56.203125 25.203125 
L 14.890625 25.203125 
Q 15.484375 15.921875 20.484375 11.0625 
Q 25.484375 6.203125 34.421875 6.203125 
Q 39.59375 6.203125 44.453125 7.46875 
Q 49.3125 8.734375 54.109375 11.28125 
L 54.109375 2.78125 
Q 49.265625 0.734375 44.1875 -0.34375 
Q 39.109375 -1.421875 33.890625 -1.421875 
Q 20.796875 -1.421875 13.15625 6.1875 
Q 5.515625 13.8125 5.515625 26.8125 
Q 5.515625 40.234375 12.765625 48.109375 
Q 20.015625 56 32.328125 56 
Q 43.359375 56 49.78125 48.890625 
Q 56.203125 41.796875 56.203125 29.59375 
z
M 47.21875 32.234375 
Q 47.125 39.59375 43.09375 43.984375 
Q 39.0625 48.390625 32.421875 48.390625 
Q 24.90625 48.390625 20.390625 44.140625 
Q 15.875 39.890625 15.1875 32.171875 
z
" id="DejaVuSans-65"/>
     <path id="DejaVuSans-20"/>
     <path d="M 51.125 44 
L 36.921875 44 
L 32.8125 27.6875 
L 47.125 27.6875 
z
M 43.796875 71.78125 
L 38.71875 51.515625 
L 52.984375 51.515625 
L 58.109375 71.78125 
L 65.921875 71.78125 
L 60.890625 51.515625 
L 76.125 51.515625 
L 76.125 44 
L 58.984375 44 
L 54.984375 27.6875 
L 70.515625 27.6875 
L 70.515625 20.21875 
L 53.078125 20.21875 
L 48 0 
L 40.1875 0 
L 45.21875 20.21875 
L 30.90625 20.21875 
L 25.875 0 
L 18.015625 0 
L 23.09375 20.21875 
L 7.71875 20.21875 
L 7.71875 27.6875 
L 24.90625 27.6875 
L 29 44 
L 13.28125 44 
L 13.28125 51.515625 
L 30.90625 51.515625 
L 35.890625 71.78125 
z
" id="DejaVuSans-23"/>
    </defs>
    <g transform="translate(47.47625 28.35)scale(0.1 -0.1)">
     <use xlink:href="#DejaVuSans-44"/>
     <use x="77.001953" xlink:href="#DejaVuSans-61"/>
     <use x="138.28125" xlink:href="#DejaVuSans-74"/>
     <use x="177.490234" xlink:href="#DejaVuSans-61"/>
     <use x="238.769531" xlink:href="#DejaVuSans-73"/>
     <use x="290.869141" xlink:href="#DejaVuSans-65"/>
     <use x="352.392578" xlink:href="#DejaVuSans-74"/>
     <use x="391.601562" xlink:href="#DejaVuSans-20"/>
     <use x="423.388672" xlink:href="#DejaVuSans-23"/>
     <use x="507.177734" xlink:href="#DejaVuSans-31"/>
    </g>
   </g>
  </g>
  <g id="axes_2">
   <g id="patch_5">
    <path d="M 254.525 124.6 
L 396.575 124.6 
L 396.575 16.8 
L 254.525 16.8 
z
" style="fill:none;"/>
   </g>
   <g id="matplotlib.axis_3">
    <g id="xtick_8">
     <g id="line2d_14">
      <g>
       <use style="fill:#222222;stroke:#222222;" x="254.525" xlink:href="#md8f215a36f" y="124.6"/>
      </g>
     </g>
     <g id="text_16">
      <!-- 0 -->
      <g style="fill:#222222;" transform="translate(251.98 140.67875)scale(0.08 -0.08)">
       <use xlink:href="#DejaVuSans-30"/>
      </g>
     </g>
    </g>
    <g id="xtick_9">
     <g id="line2d_15">
      <g>
       <use style="fill:#222222;stroke:#222222;" x="275.8325" xlink:href="#md8f215a36f" y="124.6"/>
      </g>
     </g>
     <g id="text_17">
      <!-- 3 -->
      <g style="fill:#222222;" transform="translate(273.2875 140.67875)scale(0.08 -0.08)">
       <use xlink:href="#DejaVuSans-33"/>
      </g>
     </g>
    </g>
    <g id="xtick_10">
     <g id="line2d_16">
      <g>
       <use style="fill:#222222;stroke:#222222;" x="297.14" xlink:href="#md8f215a36f" y="124.6"/>
      </g>
     </g>
     <g id="text_18">
      <!-- 6 -->
      <g style="fill:#222222;" transform="translate(294.595 140.67875)scale(0.08 -0.08)">
       <use xlink:href="#DejaVuSans-36"/>
      </g>
     </g>
    </g>
    <g id="xtick_11">
     <g id="line2d_17">
      <g>
       <use style="fill:#222222;stroke:#222222;" x="318.4475" xlink:href="#md8f215a36f" y="124.6"/>
      </g>
     </g>
     <g id="text_19">
      <!-- 9 -->
      <g style="fill:#222222;" transform="translate(315.9025 140.67875)scale(0.08 -0.08)">
       <use xlink:href="#DejaVuSans-39"/>
      </g>
     </g>
    </g>
    <g id="xtick_12">
     <g id="line2d_18">
      <g>
       <use style="fill:#222222;stroke:#222222;" x="339.755" xlink:href="#md8f215a36f" y="124.6"/>
      </g>
     </g>
     <g id="text_20">
      <!-- 12 -->
      <g style="fill:#222222;" transform="translate(334.665 140.67875)scale(0.08 -0.08)">
       <use xlink:href="#DejaVuSans-31"/>
       <use x="63.623047" xlink:href="#DejaVuSans-32"/>
      </g>
     </g>
    </g>
    <g id="xtick_13">
     <g id="line2d_19">
      <g>
       <use style="fill:#222222;stroke:#222222;" x="361.0625" xlink:href="#md8f215a36f" y="124.6"/>
      </g>
     </g>
     <g id="text_21">
      <!-- 15 -->
      <g style="fill:#222222;" transform="translate(355.9725 140.67875)scale(0.08 -0.08)">
       <use xlink:href="#DejaVuSans-31"/>
       <use x="63.623047" xlink:href="#DejaVuSans-35"/>
      </g>
     </g>
    </g>
    <g id="xtick_14">
     <g id="line2d_20">
      <g>
       <use style="fill:#222222;stroke:#222222;" x="382.37" xlink:href="#md8f215a36f" y="124.6"/>
      </g>
     </g>
     <g id="text_22">
      <!-- 18 -->
      <g style="fill:#222222;" transform="translate(377.28 140.67875)scale(0.08 -0.08)">
       <use xlink:href="#DejaVuSans-31"/>
       <use x="63.623047" xlink:href="#DejaVuSans-38"/>
      </g>
     </g>
    </g>
    <g id="text_23">
     <!-- x -->
     <g style="fill:#222222;" transform="translate(321.99875 151.460625)scale(0.12 -0.12)">
      <use xlink:href="#DejaVuSans-78"/>
     </g>
    </g>
   </g>
   <g id="matplotlib.axis_4">
    <g id="ytick_6">
     <g id="line2d_21">
      <g>
       <use style="fill:#222222;stroke:#222222;" x="254.525" xlink:href="#m1a6e4f44d8" y="124.6"/>
      </g>
     </g>
     <g id="text_24">
      <!-- 0 -->
      <g style="fill:#222222;" transform="translate(239.435 127.639375)scale(0.08 -0.08)">
       <use xlink:href="#DejaVuSans-30"/>
      </g>
     </g>
    </g>
    <g id="ytick_7">
     <g id="line2d_22">
      <g>
       <use style="fill:#222222;stroke:#222222;" x="254.525" xlink:href="#m1a6e4f44d8" y="101.5"/>
      </g>
     </g>
     <g id="text_25">
      <!-- 3 -->
      <g style="fill:#222222;" transform="translate(239.435 104.539375)scale(0.08 -0.08)">
       <use xlink:href="#DejaVuSans-33"/>
      </g>
     </g>
    </g>
    <g id="ytick_8">
     <g id="line2d_23">
      <g>
       <use style="fill:#222222;stroke:#222222;" x="254.525" xlink:href="#m1a6e4f44d8" y="78.4"/>
      </g>
     </g>
     <g id="text_26">
      <!-- 6 -->
      <g style="fill:#222222;" transform="translate(239.435 81.439375)scale(0.08 -0.08)">
       <use xlink:href="#DejaVuSans-36"/>
      </g>
     </g>
    </g>
    <g id="ytick_9">
     <g id="line2d_24">
      <g>
       <use style="fill:#222222;stroke:#222222;" x="254.525" xlink:href="#m1a6e4f44d8" y="55.3"/>
      </g>
     </g>
     <g id="text_27">
      <!-- 9 -->
      <g style="fill:#222222;" transform="translate(239.435 58.339375)scale(0.08 -0.08)">
       <use xlink:href="#DejaVuSans-39"/>
      </g>
     </g>
    </g>
    <g id="ytick_10">
     <g id="line2d_25">
      <g>
       <use style="fill:#222222;stroke:#222222;" x="254.525" xlink:href="#m1a6e4f44d8" y="32.2"/>
      </g>
     </g>
     <g id="text_28">
      <!-- 12 -->
      <g style="fill:#222222;" transform="translate(234.345 35.239375)scale(0.08 -0.08)">
       <use xlink:href="#DejaVuSans-31"/>
       <use x="63.623047" xlink:href="#DejaVuSans-32"/>
      </g>
     </g>
    </g>
    <g id="text_29">
     <!-- y -->
     <g style="fill:#222222;" transform="translate(231.849375 74.25125)rotate(-90)scale(0.12 -0.12)">
      <use xlink:href="#DejaVuSans-79"/>
     </g>
    </g>
   </g>
   <g id="line2d_26">
    <path clip-path="url(#p6f384bd9df)" d="M 254.525 101.493 
L 261.6275 97.643 
L 268.73 93.793 
L 275.8325 89.943 
L 282.935 86.093 
L 290.0375 82.243 
L 297.14 78.393 
L 304.2425 74.543 
L 311.345 70.693 
L 318.4475 66.843 
L 325.55 62.993 
L 332.6525 59.143 
L 339.755 55.293 
L 346.8575 51.443 
L 353.96 47.593 
L 361.0625 43.743 
L 368.165 39.893 
L 375.2675 36.043 
L 382.37 32.193 
L 389.4725 28.343 
" style="fill:none;stroke:#00bfff;stroke-linecap:square;stroke-width:1.5;"/>
   </g>
   <g id="patch_6">
    <path d="M 254.525 124.6 
L 254.525 16.8 
" style="fill:none;stroke:#222222;stroke-linecap:square;stroke-linejoin:miter;"/>
   </g>
   <g id="patch_7">
    <path d="M 254.525 124.6 
L 396.575 124.6 
" style="fill:none;stroke:#222222;stroke-linecap:square;stroke-linejoin:miter;"/>
   </g>
   <g id="text_30">
    <!-- Dataset #2 -->
    <g transform="translate(258.07625 28.35)scale(0.1 -0.1)">
     <use xlink:href="#DejaVuSans-44"/>
     <use x="77.001953" xlink:href="#DejaVuSans-61"/>
     <use x="138.28125" xlink:href="#DejaVuSans-74"/>
     <use x="177.490234" xlink:href="#DejaVuSans-61"/>
     <use x="238.769531" xlink:href="#DejaVuSans-73"/>
     <use x="290.869141" xlink:href="#DejaVuSans-65"/>
     <use x="352.392578" xlink:href="#DejaVuSans-74"/>
     <use x="391.601562" xlink:href="#DejaVuSans-20"/>
     <use x="423.388672" xlink:href="#DejaVuSans-23"/>
     <use x="507.177734" xlink:href="#DejaVuSans-32"/>
    </g>
   </g>
  </g>
  <g id="axes_3">
   <g id="patch_8">
    <path d="M 43.925 281.2 
L 185.975 281.2 
L 185.975 173.4 
L 43.925 173.4 
z
" style="fill:none;"/>
   </g>
   <g id="matplotlib.axis_5">
    <g id="xtick_15">
     <g id="line2d_27">
      <g>
       <use style="fill:#222222;stroke:#222222;" x="43.925" xlink:href="#md8f215a36f" y="281.2"/>
      </g>
     </g>
     <g id="text_31">
      <!-- 0 -->
      <g style="fill:#222222;" transform="translate(41.38 297.27875)scale(0.08 -0.08)">
       <use xlink:href="#DejaVuSans-30"/>
      </g>
     </g>
    </g>
    <g id="xtick_16">
     <g id="line2d_28">
      <g>
       <use style="fill:#222222;stroke:#222222;" x="65.2325" xlink:href="#md8f215a36f" y="281.2"/>
      </g>
     </g>
     <g id="text_32">
      <!-- 3 -->
      <g style="fill:#222222;" transform="translate(62.6875 297.27875)scale(0.08 -0.08)">
       <use xlink:href="#DejaVuSans-33"/>
      </g>
     </g>
    </g>
    <g id="xtick_17">
     <g id="line2d_29">
      <g>
       <use style="fill:#222222;stroke:#222222;" x="86.54" xlink:href="#md8f215a36f" y="281.2"/>
      </g>
     </g>
     <g id="text_33">
      <!-- 6 -->
      <g style="fill:#222222;" transform="translate(83.995 297.27875)scale(0.08 -0.08)">
       <use xlink:href="#DejaVuSans-36"/>
      </g>
     </g>
    </g>
    <g id="xtick_18">
     <g id="line2d_30">
      <g>
       <use style="fill:#222222;stroke:#222222;" x="107.8475" xlink:href="#md8f215a36f" y="281.2"/>
      </g>
     </g>
     <g id="text_34">
      <!-- 9 -->
      <g style="fill:#222222;" transform="translate(105.3025 297.27875)scale(0.08 -0.08)">
       <use xlink:href="#DejaVuSans-39"/>
      </g>
     </g>
    </g>
    <g id="xtick_19">
     <g id="line2d_31">
      <g>
       <use style="fill:#222222;stroke:#222222;" x="129.155" xlink:href="#md8f215a36f" y="281.2"/>
      </g>
     </g>
     <g id="text_35">
      <!-- 12 -->
      <g style="fill:#222222;" transform="translate(124.065 297.27875)scale(0.08 -0.08)">
       <use xlink:href="#DejaVuSans-31"/>
       <use x="63.623047" xlink:href="#DejaVuSans-32"/>
      </g>
     </g>
    </g>
    <g id="xtick_20">
     <g id="line2d_32">
      <g>
       <use style="fill:#222222;stroke:#222222;" x="150.4625" xlink:href="#md8f215a36f" y="281.2"/>
      </g>
     </g>
     <g id="text_36">
      <!-- 15 -->
      <g style="fill:#222222;" transform="translate(145.3725 297.27875)scale(0.08 -0.08)">
       <use xlink:href="#DejaVuSans-31"/>
       <use x="63.623047" xlink:href="#DejaVuSans-35"/>
      </g>
     </g>
    </g>
    <g id="xtick_21">
     <g id="line2d_33">
      <g>
       <use style="fill:#222222;stroke:#222222;" x="171.77" xlink:href="#md8f215a36f" y="281.2"/>
      </g>
     </g>
     <g id="text_37">
      <!-- 18 -->
      <g style="fill:#222222;" transform="translate(166.68 297.27875)scale(0.08 -0.08)">
       <use xlink:href="#DejaVuSans-31"/>
       <use x="63.623047" xlink:href="#DejaVuSans-38"/>
      </g>
     </g>
    </g>
    <g id="text_38">
     <!-- x -->
     <g style="fill:#222222;" transform="translate(111.39875 308.060625)scale(0.12 -0.12)">
      <use xlink:href="#DejaVuSans-78"/>
     </g>
    </g>
   </g>
   <g id="matplotlib.axis_6">
    <g id="ytick_11">
     <g id="line2d_34">
      <g>
       <use style="fill:#222222;stroke:#222222;" x="43.925" xlink:href="#m1a6e4f44d8" y="281.2"/>
      </g>
     </g>
     <g id="text_39">
      <!-- 0 -->
      <g style="fill:#222222;" transform="translate(28.835 284.239375)scale(0.08 -0.08)">
       <use xlink:href="#DejaVuSans-30"/>
      </g>
     </g>
    </g>
    <g id="ytick_12">
     <g id="line2d_35">
      <g>
       <use style="fill:#222222;stroke:#222222;" x="43.925" xlink:href="#m1a6e4f44d8" y="258.1"/>
      </g>
     </g>
     <g id="text_40">
      <!-- 3 -->
      <g style="fill:#222222;" transform="translate(28.835 261.139375)scale(0.08 -0.08)">
       <use xlink:href="#DejaVuSans-33"/>
      </g>
     </g>
    </g>
    <g id="ytick_13">
     <g id="line2d_36">
      <g>
       <use style="fill:#222222;stroke:#222222;" x="43.925" xlink:href="#m1a6e4f44d8" y="235"/>
      </g>
     </g>
     <g id="text_41">
      <!-- 6 -->
      <g style="fill:#222222;" transform="translate(28.835 238.039375)scale(0.08 -0.08)">
       <use xlink:href="#DejaVuSans-36"/>
      </g>
     </g>
    </g>
    <g id="ytick_14">
     <g id="line2d_37">
      <g>
       <use style="fill:#222222;stroke:#222222;" x="43.925" xlink:href="#m1a6e4f44d8" y="211.9"/>
      </g>
     </g>
     <g id="text_42">
      <!-- 9 -->
      <g style="fill:#222222;" transform="translate(28.835 214.939375)scale(0.08 -0.08)">
       <use xlink:href="#DejaVuSans-39"/>
      </g>
     </g>
    </g>
    <g id="ytick_15">
     <g id="line2d_38">
      <g>
       <use style="fill:#222222;stroke:#222222;" x="43.925" xlink:href="#m1a6e4f44d8" y="188.8"/>
      </g>
     </g>
     <g id="text_43">
      <!-- 12 -->
      <g style="fill:#222222;" transform="translate(23.745 191.839375)scale(0.08 -0.08)">
       <use xlink:href="#DejaVuSans-31"/>
       <use x="63.623047" xlink:href="#DejaVuSans-32"/>
      </g>
     </g>
    </g>
    <g id="text_44">
     <!-- y -->
     <g style="fill:#222222;" transform="translate(21.249375 230.85125)rotate(-90)scale(0.12 -0.12)">
      <use xlink:href="#DejaVuSans-79"/>
     </g>
    </g>
   </g>
   <g id="line2d_39">
    <path clip-path="url(#p108666b7ba)" d="M 43.925 258.0811 
L 51.0275 254.2332 
L 58.13 250.3853 
L 65.2325 246.5374 
L 72.335 242.6895 
L 79.4375 238.8416 
L 86.54 234.9937 
L 93.6425 231.1458 
L 100.745 227.2979 
L 107.8475 223.45 
L 114.95 219.6021 
L 122.0525 215.7542 
L 129.155 211.9063 
L 136.2575 208.0584 
L 143.36 204.2105 
L 150.4625 200.3626 
L 157.565 196.5147 
L 164.6675 192.6668 
L 171.77 188.8189 
L 178.8725 184.971 
" style="fill:none;stroke:#00bfff;stroke-linecap:square;stroke-width:1.5;"/>
   </g>
   <g id="patch_9">
    <path d="M 43.925 281.2 
L 43.925 173.4 
" style="fill:none;stroke:#222222;stroke-linecap:square;stroke-linejoin:miter;"/>
   </g>
   <g id="patch_10">
    <path d="M 43.925 281.2 
L 185.975 281.2 
" style="fill:none;stroke:#222222;stroke-linecap:square;stroke-linejoin:miter;"/>
   </g>
   <g id="text_45">
    <!-- Dataset #3 -->
    <g transform="translate(47.47625 184.95)scale(0.1 -0.1)">
     <use xlink:href="#DejaVuSans-44"/>
     <use x="77.001953" xlink:href="#DejaVuSans-61"/>
     <use x="138.28125" xlink:href="#DejaVuSans-74"/>
     <use x="177.490234" xlink:href="#DejaVuSans-61"/>
     <use x="238.769531" xlink:href="#DejaVuSans-73"/>
     <use x="290.869141" xlink:href="#DejaVuSans-65"/>
     <use x="352.392578" xlink:href="#DejaVuSans-74"/>
     <use x="391.601562" xlink:href="#DejaVuSans-20"/>
     <use x="423.388672" xlink:href="#DejaVuSans-23"/>
     <use x="507.177734" xlink:href="#DejaVuSans-33"/>
    </g>
   </g>
  </g>
  <g id="axes_4">
   <g id="patch_11">
    <path d="M 254.525 281.2 
L 396.575 281.2 
L 396.575 173.4 
L 254.525 173.4 
z
" style="fill:none;"/>
   </g>
   <g id="matplotlib.axis_7">
    <g id="xtick_22">
     <g id="line2d_40">
      <g>
       <use style="fill:#222222;stroke:#222222;" x="254.525" xlink:href="#md8f215a36f" y="281.2"/>
      </g>
     </g>
     <g id="text_46">
      <!-- 0 -->
      <g style="fill:#222222;" transform="translate(251.98 297.27875)scale(0.08 -0.08)">
       <use xlink:href="#DejaVuSans-30"/>
      </g>
     </g>
    </g>
    <g id="xtick_23">
     <g id="line2d_41">
      <g>
       <use style="fill:#222222;stroke:#222222;" x="275.8325" xlink:href="#md8f215a36f" y="281.2"/>
      </g>
     </g>
     <g id="text_47">
      <!-- 3 -->
      <g style="fill:#222222;" transform="translate(273.2875 297.27875)scale(0.08 -0.08)">
       <use xlink:href="#DejaVuSans-33"/>
      </g>
     </g>
    </g>
    <g id="xtick_24">
     <g id="line2d_42">
      <g>
       <use style="fill:#222222;stroke:#222222;" x="297.14" xlink:href="#md8f215a36f" y="281.2"/>
      </g>
     </g>
     <g id="text_48">
      <!-- 6 -->
      <g style="fill:#222222;" transform="translate(294.595 297.27875)scale(0.08 -0.08)">
       <use xlink:href="#DejaVuSans-36"/>
      </g>
     </g>
    </g>
    <g id="xtick_25">
     <g id="line2d_43">
      <g>
       <use style="fill:#222222;stroke:#222222;" x="318.4475" xlink:href="#md8f215a36f" y="281.2"/>
      </g>
     </g>
     <g id="text_49">
      <!-- 9 -->
      <g style="fill:#222222;" transform="translate(315.9025 297.27875)scale(0.08 -0.08)">
       <use xlink:href="#DejaVuSans-39"/>
      </g>
     </g>
    </g>
    <g id="xtick_26">
     <g id="line2d_44">
      <g>
       <use style="fill:#222222;stroke:#222222;" x="339.755" xlink:href="#md8f215a36f" y="281.2"/>
      </g>
     </g>
     <g id="text_50">
      <!-- 12 -->
      <g style="fill:#222222;" transform="translate(334.665 297.27875)scale(0.08 -0.08)">
       <use xlink:href="#DejaVuSans-31"/>
       <use x="63.623047" xlink:href="#DejaVuSans-32"/>
      </g>
     </g>
    </g>
    <g id="xtick_27">
     <g id="line2d_45">
      <g>
       <use style="fill:#222222;stroke:#222222;" x="361.0625" xlink:href="#md8f215a36f" y="281.2"/>
      </g>
     </g>
     <g id="text_51">
      <!-- 15 -->
      <g style="fill:#222222;" transform="translate(355.9725 297.27875)scale(0.08 -0.08)">
       <use xlink:href="#DejaVuSans-31"/>
       <use x="63.623047" xlink:href="#DejaVuSans-35"/>
      </g>
     </g>
    </g>
    <g id="xtick_28">
     <g id="line2d_46">
      <g>
       <use style="fill:#222222;stroke:#222222;" x="382.37" xlink:href="#md8f215a36f" y="281.2"/>
      </g>
     </g>
     <g id="text_52">
      <!-- 18 -->
      <g style="fill:#222222;" transform="translate(377.28 297.27875)scale(0.08 -0.08)">
       <use xlink:href="#DejaVuSans-31"/>
       <use x="63.623047" xlink:href="#DejaVuSans-38"/>
      </g>
     </g>
    </g>
    <g id="text_53">
     <!-- x -->
     <g style="fill:#222222;" transform="translate(321.99875 308.060625)scale(0.12 -0.12)">
      <use xlink:href="#DejaVuSans-78"/>
     </g>
    </g>
   </g>
   <g id="matplotlib.axis_8">
    <g id="ytick_16">
     <g id="line2d_47">
      <g>
       <use style="fill:#222222;stroke:#222222;" x="254.525" xlink:href="#m1a6e4f44d8" y="281.2"/>
      </g>
     </g>
     <g id="text_54">
      <!-- 0 -->
      <g style="fill:#222222;" transform="translate(239.435 284.239375)scale(0.08 -0.08)">
       <use xlink:href="#DejaVuSans-30"/>
      </g>
     </g>
    </g>
    <g id="ytick_17">
     <g id="line2d_48">
      <g>
       <use style="fill:#222222;stroke:#222222;" x="254.525" xlink:href="#m1a6e4f44d8" y="258.1"/>
      </g>
     </g>
     <g id="text_55">
      <!-- 3 -->
      <g style="fill:#222222;" transform="translate(239.435 261.139375)scale(0.08 -0.08)">
       <use xlink:href="#DejaVuSans-33"/>
      </g>
     </g>
    </g>
    <g id="ytick_18">
     <g id="line2d_49">
      <g>
       <use style="fill:#222222;stroke:#222222;" x="254.525" xlink:href="#m1a6e4f44d8" y="235"/>
      </g>
     </g>
     <g id="text_56">
      <!-- 6 -->
      <g style="fill:#222222;" transform="translate(239.435 238.039375)scale(0.08 -0.08)">
       <use xlink:href="#DejaVuSans-36"/>
      </g>
     </g>
    </g>
    <g id="ytick_19">
     <g id="line2d_50">
      <g>
       <use style="fill:#222222;stroke:#222222;" x="254.525" xlink:href="#m1a6e4f44d8" y="211.9"/>
      </g>
     </g>
     <g id="text_57">
      <!-- 9 -->
      <g style="fill:#222222;" transform="translate(239.435 214.939375)scale(0.08 -0.08)">
       <use xlink:href="#DejaVuSans-39"/>
      </g>
     </g>
    </g>
    <g id="ytick_20">
     <g id="line2d_51">
      <g>
       <use style="fill:#222222;stroke:#222222;" x="254.525" xlink:href="#m1a6e4f44d8" y="188.8"/>
      </g>
     </g>
     <g id="text_58">
      <!-- 12 -->
      <g style="fill:#222222;" transform="translate(234.345 191.839375)scale(0.08 -0.08)">
       <use xlink:href="#DejaVuSans-31"/>
       <use x="63.623047" xlink:href="#DejaVuSans-32"/>
      </g>
     </g>
    </g>
    <g id="text_59">
     <!-- y -->
     <g style="fill:#222222;" transform="translate(231.849375 230.85125)rotate(-90)scale(0.12 -0.12)">
      <use xlink:href="#DejaVuSans-79"/>
     </g>
    </g>
   </g>
   <g id="line2d_52">
    <path clip-path="url(#p6a5d4fe3dc)" d="M 254.525 258.0867 
L 261.6275 254.2374 
L 268.73 250.3881 
L 275.8325 246.5388 
L 282.935 242.6895 
L 290.0375 238.8402 
L 297.14 234.9909 
L 304.2425 231.1416 
L 311.345 227.2923 
L 318.4475 223.443 
L 325.55 219.5937 
L 332.6525 215.7444 
L 339.755 211.8951 
L 346.8575 208.0458 
L 353.96 204.1965 
L 361.0625 200.3472 
L 368.165 196.4979 
L 375.2675 192.6486 
L 382.37 188.7993 
L 389.4725 184.95 
" style="fill:none;stroke:#00bfff;stroke-linecap:square;stroke-width:1.5;"/>
   </g>
   <g id="patch_12">
    <path d="M 254.525 281.2 
L 254.525 173.4 
" style="fill:none;stroke:#222222;stroke-linecap:square;stroke-linejoin:miter;"/>
   </g>
   <g id="patch_13">
    <path d="M 254.525 281.2 
L 396.575 281.2 
" style="fill:none;stroke:#222222;stroke-linecap:square;stroke-linejoin:miter;"/>
   </g>
   <g id="text_60">
    <!-- Dataset #4 -->
    <defs>
     <path d="M 37.796875 64.3125 
L 12.890625 25.390625 
L 37.796875 25.390625 
z
M 35.203125 72.90625 
L 47.609375 72.90625 
L 47.609375 25.390625 
L 58.015625 25.390625 
L 58.015625 17.1875 
L 47.609375 17.1875 
L 47.609375 0 
L 37.796875 0 
L 37.796875 17.1875 
L 4.890625 17.1875 
L 4.890625 26.703125 
z
" id="DejaVuSans-34"/>
    </defs>
    <g transform="translate(258.07625 184.95)scale(0.1 -0.1)">
     <use xlink:href="#DejaVuSans-44"/>
     <use x="77.001953" xlink:href="#DejaVuSans-61"/>
     <use x="138.28125" xlink:href="#DejaVuSans-74"/>
     <use x="177.490234" xlink:href="#DejaVuSans-61"/>
     <use x="238.769531" xlink:href="#DejaVuSans-73"/>
     <use x="290.869141" xlink:href="#DejaVuSans-65"/>
     <use x="352.392578" xlink:href="#DejaVuSans-74"/>
     <use x="391.601562" xlink:href="#DejaVuSans-20"/>
     <use x="423.388672" xlink:href="#DejaVuSans-23"/>
     <use x="507.177734" xlink:href="#DejaVuSans-34"/>
    </g>
   </g>
  </g>
  <g id="axes_5">
   <g id="PathCollection_1">
    <defs>
     <path d="M 0 3 
C 0.795609 3 1.55874 2.683901 2.12132 2.12132 
C 2.683901 1.55874 3 0.795609 3 0 
C 3 -0.795609 2.683901 -1.55874 2.12132 -2.12132 
C 1.55874 -2.683901 0.795609 -3 0 -3 
C -0.795609 -3 -1.55874 -2.683901 -2.12132 -2.12132 
C -2.683901 -1.55874 -3 -0.795609 -3 0 
C -3 0.795609 -2.683901 1.55874 -2.12132 2.12132 
C -1.55874 2.683901 -0.795609 3 0 3 
z
" id="m3ca4aa5ae9" style="stroke:#ff8b22;"/>
    </defs>
    <g clip-path="url(#p7ca5056201)">
     <use style="fill:#ff8b22;stroke:#ff8b22;" x="114.95" xlink:href="#m3ca4aa5ae9" y="62.692"/>
     <use style="fill:#ff8b22;stroke:#ff8b22;" x="100.745" xlink:href="#m3ca4aa5ae9" y="71.085"/>
     <use style="fill:#ff8b22;stroke:#ff8b22;" x="136.2575" xlink:href="#m3ca4aa5ae9" y="66.234"/>
     <use style="fill:#ff8b22;stroke:#ff8b22;" x="107.8475" xlink:href="#m3ca4aa5ae9" y="56.763"/>
     <use style="fill:#ff8b22;stroke:#ff8b22;" x="122.0525" xlink:href="#m3ca4aa5ae9" y="60.459"/>
     <use style="fill:#ff8b22;stroke:#ff8b22;" x="143.36" xlink:href="#m3ca4aa5ae9" y="47.908"/>
     <use style="fill:#ff8b22;stroke:#ff8b22;" x="86.54" xlink:href="#m3ca4aa5ae9" y="68.852"/>
     <use style="fill:#ff8b22;stroke:#ff8b22;" x="72.335" xlink:href="#m3ca4aa5ae9" y="91.798"/>
     <use style="fill:#ff8b22;stroke:#ff8b22;" x="129.155" xlink:href="#m3ca4aa5ae9" y="41.132"/>
     <use style="fill:#ff8b22;stroke:#ff8b22;" x="93.6425" xlink:href="#m3ca4aa5ae9" y="87.486"/>
     <use style="fill:#ff8b22;stroke:#ff8b22;" x="79.4375" xlink:href="#m3ca4aa5ae9" y="80.864"/>
    </g>
   </g>
  </g>
  <g id="axes_6">
   <g id="PathCollection_2">
    <g clip-path="url(#p6f384bd9df)">
     <use style="fill:#ff8b22;stroke:#ff8b22;" x="325.55" xlink:href="#m3ca4aa5ae9" y="54.222"/>
     <use style="fill:#ff8b22;stroke:#ff8b22;" x="311.345" xlink:href="#m3ca4aa5ae9" y="61.922"/>
     <use style="fill:#ff8b22;stroke:#ff8b22;" x="346.8575" xlink:href="#m3ca4aa5ae9" y="57.302"/>
     <use style="fill:#ff8b22;stroke:#ff8b22;" x="318.4475" xlink:href="#m3ca4aa5ae9" y="57.071"/>
     <use style="fill:#ff8b22;stroke:#ff8b22;" x="332.6525" xlink:href="#m3ca4aa5ae9" y="53.298"/>
     <use style="fill:#ff8b22;stroke:#ff8b22;" x="353.96" xlink:href="#m3ca4aa5ae9" y="62.23"/>
     <use style="fill:#ff8b22;stroke:#ff8b22;" x="297.14" xlink:href="#m3ca4aa5ae9" y="77.399"/>
     <use style="fill:#ff8b22;stroke:#ff8b22;" x="282.935" xlink:href="#m3ca4aa5ae9" y="100.73"/>
     <use style="fill:#ff8b22;stroke:#ff8b22;" x="339.755" xlink:href="#m3ca4aa5ae9" y="54.299"/>
     <use style="fill:#ff8b22;stroke:#ff8b22;" x="304.2425" xlink:href="#m3ca4aa5ae9" y="68.698"/>
     <use style="fill:#ff8b22;stroke:#ff8b22;" x="290.0375" xlink:href="#m3ca4aa5ae9" y="88.102"/>
    </g>
   </g>
  </g>
  <g id="axes_7">
   <g id="PathCollection_3">
    <g clip-path="url(#p108666b7ba)">
     <use style="fill:#ff8b22;stroke:#ff8b22;" x="114.95" xlink:href="#m3ca4aa5ae9" y="223.758"/>
     <use style="fill:#ff8b22;stroke:#ff8b22;" x="100.745" xlink:href="#m3ca4aa5ae9" y="229.071"/>
     <use style="fill:#ff8b22;stroke:#ff8b22;" x="136.2575" xlink:href="#m3ca4aa5ae9" y="183.102"/>
     <use style="fill:#ff8b22;stroke:#ff8b22;" x="107.8475" xlink:href="#m3ca4aa5ae9" y="226.453"/>
     <use style="fill:#ff8b22;stroke:#ff8b22;" x="122.0525" xlink:href="#m3ca4aa5ae9" y="221.063"/>
     <use style="fill:#ff8b22;stroke:#ff8b22;" x="143.36" xlink:href="#m3ca4aa5ae9" y="213.132"/>
     <use style="fill:#ff8b22;stroke:#ff8b22;" x="86.54" xlink:href="#m3ca4aa5ae9" y="234.384"/>
     <use style="fill:#ff8b22;stroke:#ff8b22;" x="72.335" xlink:href="#m3ca4aa5ae9" y="239.697"/>
     <use style="fill:#ff8b22;stroke:#ff8b22;" x="129.155" xlink:href="#m3ca4aa5ae9" y="218.445"/>
     <use style="fill:#ff8b22;stroke:#ff8b22;" x="93.6425" xlink:href="#m3ca4aa5ae9" y="231.766"/>
     <use style="fill:#ff8b22;stroke:#ff8b22;" x="79.4375" xlink:href="#m3ca4aa5ae9" y="237.079"/>
    </g>
   </g>
  </g>
  <g id="axes_8">
   <g id="PathCollection_4">
    <g clip-path="url(#p6a5d4fe3dc)">
     <use style="fill:#ff8b22;stroke:#ff8b22;" x="311.345" xlink:href="#m3ca4aa5ae9" y="230.534"/>
     <use style="fill:#ff8b22;stroke:#ff8b22;" x="311.345" xlink:href="#m3ca4aa5ae9" y="236.848"/>
     <use style="fill:#ff8b22;stroke:#ff8b22;" x="311.345" xlink:href="#m3ca4aa5ae9" y="221.833"/>
     <use style="fill:#ff8b22;stroke:#ff8b22;" x="311.345" xlink:href="#m3ca4aa5ae9" y="213.132"/>
     <use style="fill:#ff8b22;stroke:#ff8b22;" x="311.345" xlink:href="#m3ca4aa5ae9" y="215.981"/>
     <use style="fill:#ff8b22;stroke:#ff8b22;" x="311.345" xlink:href="#m3ca4aa5ae9" y="226.992"/>
     <use style="fill:#ff8b22;stroke:#ff8b22;" x="311.345" xlink:href="#m3ca4aa5ae9" y="240.775"/>
     <use style="fill:#ff8b22;stroke:#ff8b22;" x="389.4725" xlink:href="#m3ca4aa5ae9" y="184.95"/>
     <use style="fill:#ff8b22;stroke:#ff8b22;" x="311.345" xlink:href="#m3ca4aa5ae9" y="238.388"/>
     <use style="fill:#ff8b22;stroke:#ff8b22;" x="311.345" xlink:href="#m3ca4aa5ae9" y="220.293"/>
     <use style="fill:#ff8b22;stroke:#ff8b22;" x="311.345" xlink:href="#m3ca4aa5ae9" y="228.147"/>
    </g>
   </g>
  </g>
 </g>
 <defs>
  <clipPath id="p7ca5056201">
   <rect height="107.8" width="142.05" x="43.925" y="16.8"/>
  </clipPath>
  <clipPath id="p6f384bd9df">
   <rect height="107.8" width="142.05" x="254.525" y="16.8"/>
  </clipPath>
  <clipPath id="p108666b7ba">
   <rect height="107.8" width="142.05" x="43.925" y="173.4"/>
  </clipPath>
  <clipPath id="p6a5d4fe3dc">
   <rect height="107.8" width="142.05" x="254.525" y="173.4"/>
  </clipPath>
 </defs>
</svg>
