<?xml version="1.0" encoding="utf-8"?>
<!-- Generator: Adobe Illustrator 16.0.4, SVG Export Plug-In . SVG Version: 6.00 Build 0)  -->
<!DOCTYPE svg PUBLIC "-//W3C//DTD SVG 1.1//EN" "http://www.w3.org/Graphics/SVG/1.1/DTD/svg11.dtd">
<svg version="1.1" id="Layer_1" xmlns="http://www.w3.org/2000/svg" xmlns:xlink="http://www.w3.org/1999/xlink" x="0px" y="0px"
	 width="224px" height="192.5px" viewBox="0 0 224 192.5" enable-background="new 0 0 224 192.5" xml:space="preserve">
<g id="bootstrap">
	<circle fill="#FB4C52" cx="53.201" cy="110.019" r="8.333"/>
	<path fill="#00BFFF" d="M57.363,102.807l-0.062,0.107l-4.102,7.104l-4.101-7.104l-0.062-0.107c-2.49,1.441-4.17,4.127-4.17,7.211
		c0,4.604,3.73,8.334,8.333,8.334c4.603,0,8.333-3.729,8.333-8.334C61.533,106.934,59.854,104.248,57.363,102.807z"/>
	<circle fill="#FB4C52" cx="33.035" cy="131.621" r="8.334"/>
	<path fill="#00BFFF" d="M24.971,129.549l0.12,0.031l7.944,2.041l-5.74,5.859l-0.086,0.088c2.057,2.013,5.096,2.908,8.065,2.08
		c4.434-1.237,7.024-5.834,5.788-10.268c-1.236-4.433-5.834-7.023-10.267-5.787C27.825,124.424,25.689,126.764,24.971,129.549z"/>
	<circle fill="#FB4C52" cx="12.383" cy="88.39" r="8.333"/>
	<path fill="#00BFFF" d="M12.282,88.39l-6.01-5.653c-1.375,1.486-2.223,3.468-2.223,5.653c0,4.603,3.73,8.333,8.333,8.333
		s8.333-3.731,8.333-8.333c0-2.234-0.884-4.259-2.316-5.755L12.282,88.39z"/>
	<circle fill="#FB4C52" cx="33.036" cy="88.39" r="8.334"/>
	<path fill="#00BFFF" d="M27.872,81.851l4.228,5.741l-6.332-3.276c-1.91,3.399-1.222,7.784,1.856,10.412
		c3.5,2.989,8.761,2.574,11.749-0.925c2.988-3.5,2.574-8.76-0.926-11.749C35.369,79.424,30.931,79.431,27.872,81.851z"/>
	<circle fill="#FB4C52" cx="53.201" cy="131.682" r="8.334"/>
	<path fill="#00BFFF" d="M53.318,131.215l8.166-0.908c-0.418-2.729-2.172-5.188-4.887-6.379c-4.217-1.847-9.131,0.074-10.978,4.289
		c-0.561,1.281-0.77,2.625-0.677,3.93L53.318,131.215z"/>
	<circle fill="#FB4C52" cx="12.383" cy="131.62" r="8.333"/>
	<path fill="#00BFFF" d="M4.549,134.454l7.887-2.793l0.439-8.356c-2.701-0.156-5.428,0.998-7.169,3.33
		C3.965,128.965,3.631,131.908,4.549,134.454z"/>
	<circle fill="#FB4C52" cx="53.201" cy="88.39" r="8.334"/>
	<path fill="#00BFFF" d="M53.012,80.057c-0.959,0-1.877,0.171-2.736,0.47l0.205,0.529l2.748,7.104l2.746-7.104l0.152-0.392
		C55.164,80.275,54.113,80.057,53.012,80.057z"/>
	<circle fill="#FB4C52" cx="12.383" cy="110.018" r="8.334"/>
	<path fill="#00BFFF" d="M17.592,103.52c-1.426-1.146-3.236-1.834-5.209-1.834c-1.973,0-3.781,0.688-5.209,1.834l5.209,6.498
		L17.592,103.52z"/>
	<circle fill="#FB4C52" cx="33.036" cy="110.019" r="8.333"/>
	<path fill="#00BFFF" d="M36.873,102.622c-1.348-0.699-3.213-0.921-3.213-0.921c-4.924-0.018-8.689,2.689-9,8l8.376,0.318
		l6.911-4.418l0.105-0.067C39.291,104.34,38.221,103.32,36.873,102.622z"/>
	<circle fill="#FB4C52" cx="118.066" cy="108.282" r="8.333"/>
	<path fill="#00BFFF" d="M121.902,100.885c-1.348-0.699-3.213-0.921-3.213-0.921c-4.924-0.017-8.688,2.69-9,8l8.376,0.318
		l6.91-4.418l0.105-0.067C124.32,102.604,123.251,101.584,121.902,100.885z"/>
	<circle fill="#FB4C52" cx="155.84" cy="108.512" r="8.334"/>
	<path fill="#00BFFF" d="M163.812,106.096l-6.889,1.838l5.364-4.697c-2.466-3.021-6.8-3.981-10.37-2.077
		c-4.062,2.166-5.598,7.214-3.434,11.274c2.166,4.062,7.215,5.598,11.274,3.433C163.333,113.961,164.948,109.827,163.812,106.096z"
		/>
	<g>
		<path d="M14.654,59.138c-0.608,0-1.162-0.122-1.662-0.366s-0.93-0.568-1.29-0.972c-0.36-0.404-0.638-0.866-0.834-1.386
			c-0.196-0.52-0.294-1.052-0.294-1.596c0-0.568,0.104-1.112,0.312-1.632c0.208-0.52,0.494-0.98,0.858-1.38
			c0.364-0.4,0.796-0.718,1.296-0.954s1.045-0.354,1.638-0.354c0.608,0,1.162,0.126,1.662,0.378s0.928,0.582,1.284,0.99
			c0.355,0.408,0.632,0.87,0.828,1.386c0.196,0.516,0.294,1.042,0.294,1.578c0,0.568-0.102,1.112-0.306,1.632
			c-0.204,0.521-0.49,0.978-0.858,1.374s-0.802,0.712-1.302,0.948C15.78,59.02,15.238,59.138,14.654,59.138z M11.942,54.818
			c0,0.4,0.064,0.788,0.192,1.164c0.128,0.376,0.31,0.708,0.546,0.996c0.236,0.288,0.522,0.518,0.858,0.69s0.712,0.258,1.128,0.258
			c0.432,0,0.814-0.09,1.146-0.27c0.332-0.18,0.614-0.418,0.846-0.714c0.232-0.295,0.408-0.628,0.528-0.996
			c0.12-0.368,0.18-0.744,0.18-1.128c0-0.408-0.064-0.798-0.192-1.17s-0.31-0.7-0.546-0.984s-0.52-0.512-0.852-0.684
			s-0.702-0.258-1.11-0.258c-0.432,0-0.816,0.09-1.152,0.27c-0.336,0.18-0.62,0.414-0.852,0.702c-0.232,0.288-0.41,0.618-0.534,0.99
			S11.942,54.434,11.942,54.818z"/>
		<path d="M23.498,53.941c-0.512,0.016-0.966,0.134-1.362,0.354c-0.396,0.22-0.678,0.534-0.846,0.942v3.84h-1.32v-6.276h1.224v1.404
			c0.216-0.432,0.498-0.778,0.846-1.038s0.722-0.402,1.122-0.426c0.08,0,0.146,0,0.198,0c0.052,0,0.098,0.004,0.138,0.012V53.941z"
			/>
		<path d="M24.458,51.77v-1.452h1.319v1.452H24.458z M24.458,59.078v-6.276h1.319v6.276H24.458z"/>
		<path d="M29.846,59.138c-0.424,0-0.812-0.086-1.164-0.258s-0.654-0.406-0.906-0.702c-0.252-0.296-0.447-0.636-0.588-1.02
			c-0.14-0.384-0.209-0.788-0.209-1.212c0-0.448,0.071-0.87,0.215-1.266c0.145-0.396,0.344-0.74,0.601-1.032
			c0.256-0.292,0.562-0.524,0.918-0.696s0.75-0.258,1.183-0.258c0.504,0,0.945,0.12,1.325,0.36c0.38,0.24,0.694,0.552,0.942,0.936
			v-1.188h1.164v6.096c0,0.456-0.084,0.86-0.252,1.212s-0.402,0.649-0.703,0.894c-0.299,0.244-0.653,0.43-1.061,0.558
			s-0.849,0.192-1.32,0.192c-0.696,0-1.274-0.118-1.734-0.354s-0.846-0.566-1.158-0.99l0.744-0.696
			c0.24,0.336,0.55,0.592,0.93,0.768c0.381,0.176,0.786,0.264,1.219,0.264c0.271,0,0.529-0.036,0.773-0.108
			c0.244-0.072,0.458-0.184,0.643-0.336c0.184-0.152,0.33-0.344,0.438-0.576c0.108-0.232,0.162-0.508,0.162-0.828v-0.96
			c-0.225,0.384-0.532,0.68-0.924,0.888C30.689,59.034,30.277,59.138,29.846,59.138z M30.277,58.07c0.2,0,0.393-0.034,0.576-0.102
			c0.183-0.068,0.354-0.16,0.51-0.276c0.156-0.116,0.291-0.248,0.402-0.396c0.112-0.148,0.192-0.306,0.24-0.474v-1.645
			c-0.08-0.2-0.184-0.382-0.312-0.546c-0.127-0.164-0.273-0.306-0.438-0.426s-0.338-0.214-0.521-0.282
			c-0.185-0.068-0.369-0.102-0.553-0.102c-0.287,0-0.546,0.062-0.773,0.186c-0.229,0.124-0.422,0.288-0.582,0.492
			c-0.16,0.204-0.284,0.434-0.373,0.69c-0.088,0.256-0.131,0.521-0.131,0.792c0,0.288,0.049,0.558,0.149,0.81
			c0.1,0.252,0.238,0.472,0.414,0.66c0.176,0.188,0.382,0.338,0.618,0.45C29.74,58.014,29.998,58.07,30.277,58.07z"/>
		<path d="M34.91,51.77v-1.452h1.319v1.452H34.91z M34.91,59.078v-6.276h1.319v6.276H34.91z"/>
		<path d="M43.441,59.078h-1.32v-3.516c0-0.592-0.094-1.022-0.281-1.29c-0.188-0.268-0.467-0.402-0.834-0.402
			c-0.192,0-0.385,0.036-0.576,0.108c-0.192,0.072-0.372,0.174-0.54,0.306c-0.168,0.132-0.318,0.288-0.45,0.468
			c-0.132,0.18-0.234,0.378-0.307,0.594v3.732h-1.319v-6.276h1.2v1.26c0.24-0.424,0.588-0.758,1.044-1.002s0.96-0.366,1.512-0.366
			c0.376,0,0.685,0.068,0.925,0.204c0.239,0.136,0.43,0.322,0.569,0.558c0.14,0.236,0.237,0.508,0.294,0.816
			s0.084,0.634,0.084,0.978L43.441,59.078L43.441,59.078z"/>
		<path d="M46.646,59.198c-0.304,0-0.586-0.05-0.847-0.15c-0.26-0.1-0.483-0.238-0.672-0.414c-0.188-0.176-0.336-0.384-0.443-0.624
			c-0.107-0.24-0.162-0.5-0.162-0.78c0-0.296,0.064-0.564,0.191-0.804c0.129-0.24,0.311-0.448,0.547-0.624
			c0.236-0.176,0.516-0.312,0.84-0.408c0.324-0.096,0.682-0.144,1.074-0.144c0.295,0,0.588,0.026,0.875,0.078
			c0.289,0.052,0.549,0.122,0.781,0.21v-0.432c0-0.464-0.133-0.826-0.396-1.086c-0.264-0.26-0.645-0.39-1.141-0.39
			c-0.336,0-0.666,0.062-0.989,0.186c-0.324,0.125-0.658,0.302-1.002,0.534l-0.408-0.84c0.808-0.544,1.647-0.816,2.521-0.816
			c0.863,0,1.535,0.22,2.016,0.66s0.72,1.072,0.72,1.896v2.268c0,0.28,0.116,0.424,0.349,0.432v1.128
			c-0.129,0.024-0.238,0.04-0.33,0.048c-0.092,0.008-0.183,0.012-0.271,0.012c-0.256,0-0.454-0.064-0.594-0.192
			c-0.14-0.128-0.226-0.292-0.259-0.492l-0.035-0.396c-0.28,0.368-0.627,0.65-1.038,0.846C47.56,59.1,47.117,59.198,46.646,59.198z
			 M47.006,58.226c0.319,0,0.621-0.058,0.906-0.174c0.283-0.116,0.506-0.278,0.666-0.486c0.168-0.144,0.252-0.296,0.252-0.456
			v-0.828c-0.225-0.088-0.463-0.156-0.715-0.204c-0.252-0.048-0.498-0.072-0.738-0.072c-0.472,0-0.857,0.102-1.157,0.306
			c-0.3,0.204-0.45,0.474-0.45,0.81c0,0.312,0.115,0.574,0.348,0.786C46.351,58.12,46.646,58.226,47.006,58.226z"/>
		<path d="M51.758,50.318h1.32v6.948c0,0.232,0.06,0.414,0.18,0.546c0.119,0.132,0.287,0.198,0.504,0.198
			c0.088,0,0.189-0.016,0.306-0.048c0.116-0.032,0.226-0.068,0.33-0.108l0.192,1.032c-0.192,0.088-0.42,0.158-0.684,0.21
			c-0.265,0.052-0.5,0.078-0.709,0.078c-0.455,0-0.81-0.124-1.062-0.372c-0.252-0.248-0.378-0.6-0.378-1.056L51.758,50.318
			L51.758,50.318z"/>
		<path d="M14.18,73.598c-0.504,0-1.006-0.082-1.506-0.246s-0.93-0.398-1.29-0.702l0.528-0.84c0.376,0.272,0.748,0.478,1.116,0.618
			c0.368,0.14,0.744,0.21,1.128,0.21c0.392,0,0.702-0.076,0.93-0.228c0.228-0.152,0.342-0.368,0.342-0.648
			c0-0.264-0.128-0.456-0.384-0.576s-0.656-0.252-1.2-0.396c-0.392-0.104-0.728-0.204-1.008-0.3
			c-0.28-0.096-0.508-0.208-0.684-0.336c-0.176-0.127-0.304-0.276-0.384-0.444s-0.12-0.372-0.12-0.612
			c0-0.32,0.062-0.604,0.186-0.852s0.296-0.458,0.516-0.63c0.22-0.172,0.478-0.302,0.774-0.39s0.616-0.132,0.96-0.132
			c0.472,0,0.912,0.072,1.32,0.216c0.408,0.144,0.772,0.352,1.092,0.624l-0.564,0.792c-0.584-0.464-1.204-0.696-1.86-0.696
			c-0.336,0-0.618,0.07-0.846,0.21c-0.228,0.14-0.342,0.362-0.342,0.666c0,0.128,0.024,0.236,0.072,0.324s0.126,0.164,0.234,0.228
			s0.248,0.122,0.42,0.174c0.172,0.052,0.386,0.11,0.642,0.174c0.424,0.104,0.79,0.208,1.098,0.312s0.562,0.226,0.762,0.366
			c0.2,0.14,0.348,0.304,0.444,0.492c0.096,0.188,0.144,0.414,0.144,0.678c0,0.6-0.226,1.074-0.678,1.422
			C15.57,73.423,14.956,73.598,14.18,73.598z"/>
		<path d="M19.52,73.598c-0.304,0-0.586-0.05-0.846-0.15c-0.26-0.1-0.484-0.238-0.672-0.414c-0.188-0.176-0.336-0.384-0.444-0.624
			c-0.108-0.24-0.162-0.5-0.162-0.78c0-0.296,0.064-0.564,0.192-0.804c0.128-0.24,0.31-0.448,0.546-0.624
			c0.236-0.176,0.516-0.312,0.84-0.408c0.324-0.096,0.682-0.144,1.074-0.144c0.296,0,0.588,0.026,0.876,0.078
			c0.288,0.052,0.548,0.122,0.78,0.21v-0.432c0-0.464-0.132-0.826-0.396-1.086c-0.264-0.26-0.644-0.39-1.14-0.39
			c-0.336,0-0.666,0.062-0.99,0.186c-0.324,0.125-0.658,0.302-1.002,0.534l-0.408-0.84c0.808-0.544,1.648-0.816,2.52-0.816
			c0.864,0,1.536,0.22,2.016,0.66s0.719,1.072,0.719,1.896v2.268c0,0.28,0.117,0.424,0.349,0.432v1.128
			c-0.128,0.024-0.238,0.04-0.33,0.048c-0.092,0.008-0.182,0.012-0.27,0.012c-0.256,0-0.454-0.064-0.594-0.192
			c-0.14-0.128-0.226-0.292-0.258-0.492l-0.036-0.396c-0.28,0.368-0.626,0.65-1.038,0.846C20.434,73.5,19.992,73.598,19.52,73.598z
			 M19.88,72.625c0.32,0,0.622-0.058,0.906-0.174c0.284-0.116,0.506-0.278,0.666-0.486c0.168-0.144,0.252-0.296,0.252-0.456v-0.828
			c-0.224-0.088-0.462-0.156-0.714-0.204c-0.252-0.048-0.498-0.072-0.738-0.072c-0.472,0-0.858,0.102-1.158,0.306
			c-0.3,0.204-0.45,0.474-0.45,0.81c0,0.312,0.116,0.574,0.348,0.786C19.224,72.52,19.52,72.625,19.88,72.625z"/>
		<path d="M34.221,73.478H32.9v-3.516c0-0.584-0.096-1.012-0.288-1.284c-0.192-0.271-0.472-0.408-0.841-0.408
			c-0.375,0-0.717,0.138-1.025,0.414s-0.53,0.634-0.666,1.074v3.72h-1.32v-3.516c0-0.592-0.096-1.022-0.287-1.29
			c-0.192-0.268-0.469-0.402-0.828-0.402c-0.377,0-0.721,0.136-1.032,0.408c-0.311,0.272-0.536,0.628-0.673,1.068v3.732h-1.32
			v-6.276h1.2v1.26c0.248-0.44,0.574-0.778,0.979-1.014c0.403-0.236,0.865-0.354,1.385-0.354c0.521,0,0.931,0.136,1.23,0.408
			c0.301,0.272,0.486,0.612,0.559,1.02c0.264-0.464,0.596-0.818,0.996-1.062c0.399-0.244,0.855-0.366,1.367-0.366
			c0.368,0,0.674,0.07,0.918,0.21c0.244,0.14,0.438,0.326,0.582,0.558c0.145,0.232,0.244,0.502,0.301,0.81
			c0.055,0.308,0.084,0.634,0.084,0.978V73.478z"/>
		<path d="M39.309,73.598c-0.504,0-0.948-0.12-1.332-0.36c-0.385-0.24-0.688-0.552-0.912-0.936v3.732h-1.32v-8.832h1.164v1.128
			c0.24-0.376,0.55-0.676,0.93-0.9c0.381-0.224,0.811-0.336,1.29-0.336c0.433,0,0.828,0.088,1.188,0.264
			c0.359,0.176,0.672,0.412,0.936,0.708s0.471,0.64,0.618,1.032s0.222,0.804,0.222,1.236c0,0.456-0.068,0.882-0.203,1.278
			c-0.137,0.396-0.328,0.74-0.576,1.032s-0.543,0.524-0.883,0.696C40.09,73.512,39.717,73.598,39.309,73.598z M38.876,72.47
			c0.28,0,0.534-0.06,0.763-0.18c0.228-0.12,0.424-0.28,0.588-0.48c0.164-0.2,0.289-0.428,0.377-0.684s0.133-0.52,0.133-0.792
			c0-0.288-0.051-0.56-0.15-0.816c-0.099-0.256-0.236-0.48-0.408-0.672c-0.172-0.192-0.377-0.344-0.617-0.456
			c-0.24-0.112-0.5-0.168-0.78-0.168c-0.168,0-0.345,0.032-0.528,0.096c-0.184,0.064-0.355,0.152-0.516,0.264
			c-0.16,0.112-0.301,0.242-0.42,0.39c-0.12,0.148-0.204,0.31-0.252,0.486v1.644c0.08,0.192,0.184,0.372,0.312,0.54
			s0.271,0.312,0.427,0.432c0.155,0.12,0.325,0.216,0.51,0.288C38.496,72.434,38.684,72.47,38.876,72.47z"/>
		<path d="M43.293,64.718h1.319v6.948c0,0.232,0.06,0.414,0.181,0.546c0.119,0.132,0.287,0.198,0.504,0.198
			c0.088,0,0.189-0.016,0.305-0.048c0.117-0.032,0.227-0.068,0.33-0.108l0.193,1.032c-0.193,0.088-0.421,0.158-0.685,0.21
			c-0.265,0.052-0.5,0.078-0.708,0.078c-0.456,0-0.811-0.124-1.062-0.372s-0.377-0.6-0.377-1.056V64.718z"/>
		<path d="M49.736,73.598c-0.488,0-0.932-0.086-1.332-0.258c-0.4-0.172-0.742-0.406-1.026-0.702
			c-0.284-0.296-0.504-0.64-0.659-1.032c-0.156-0.392-0.234-0.808-0.234-1.248s0.078-0.858,0.234-1.254
			c0.155-0.396,0.375-0.744,0.659-1.044c0.284-0.3,0.626-0.536,1.026-0.708c0.4-0.172,0.848-0.258,1.344-0.258
			c0.488,0,0.93,0.088,1.326,0.264c0.396,0.176,0.734,0.41,1.014,0.702c0.28,0.292,0.494,0.632,0.643,1.02
			c0.147,0.388,0.222,0.794,0.222,1.218c0,0.096-0.005,0.186-0.013,0.27c-0.008,0.084-0.016,0.154-0.023,0.21H47.89
			c0.023,0.28,0.09,0.532,0.197,0.756c0.108,0.224,0.248,0.418,0.42,0.582c0.172,0.164,0.368,0.29,0.588,0.378
			c0.221,0.088,0.45,0.132,0.69,0.132c0.176,0,0.35-0.022,0.522-0.066c0.172-0.044,0.33-0.108,0.474-0.192
			c0.144-0.084,0.271-0.186,0.384-0.306c0.111-0.12,0.199-0.252,0.264-0.396l1.129,0.324c-0.217,0.472-0.574,0.858-1.074,1.158
			C50.982,73.448,50.4,73.598,49.736,73.598z M51.645,69.866c-0.024-0.264-0.09-0.508-0.198-0.732
			c-0.108-0.224-0.246-0.414-0.414-0.57s-0.364-0.278-0.588-0.366c-0.224-0.088-0.46-0.132-0.708-0.132s-0.482,0.044-0.702,0.132
			c-0.22,0.088-0.414,0.21-0.582,0.366s-0.304,0.346-0.408,0.57c-0.104,0.224-0.168,0.468-0.192,0.732H51.645z"/>
	</g>
	<circle fill="#FB4C52" cx="208.482" cy="26.069" r="8.333"/>
	<path fill="#00BFFF" d="M212.646,18.858l-0.062,0.107l-4.102,7.104l-4.102-7.104l-0.062-0.107c-2.489,1.441-4.17,4.127-4.17,7.211
		c0,4.604,3.73,8.334,8.334,8.334c4.603,0,8.332-3.73,8.332-8.334C216.814,22.985,215.137,20.3,212.646,18.858z"/>
	<circle fill="#FB4C52" cx="136.986" cy="66.872" r="8.334"/>
	<path fill="#00BFFF" d="M128.923,64.8l0.12,0.031l7.943,2.041l-5.739,5.859l-0.086,0.089c2.057,2.012,5.096,2.907,8.065,2.079
		c4.434-1.237,7.023-5.834,5.787-10.267c-1.236-4.433-5.834-7.024-10.267-5.787C131.777,59.675,129.643,62.015,128.923,64.8z"/>
	<circle fill="#FB4C52" cx="118.047" cy="26.07" r="8.334"/>
	<path fill="#00BFFF" d="M117.945,26.07l-6.01-5.653c-1.375,1.486-2.223,3.468-2.223,5.653c0,4.603,3.729,8.333,8.334,8.333
		c4.603,0,8.332-3.731,8.332-8.333c0-2.234-0.883-4.259-2.315-5.755L117.945,26.07z"/>
	<circle fill="#FB4C52" cx="155.84" cy="26.07" r="8.334"/>
	<path fill="#00BFFF" d="M155.738,26.07l-6.01-5.653c-1.375,1.486-2.224,3.468-2.224,5.653c0,4.603,3.729,8.333,8.334,8.333
		c4.603,0,8.332-3.731,8.332-8.333c0-2.234-0.883-4.259-2.315-5.755L155.738,26.07z"/>
	<circle fill="#FB4C52" cx="136.988" cy="26.07" r="8.334"/>
	<path fill="#00BFFF" d="M131.824,19.531l4.228,5.741l-6.331-3.276c-1.91,3.399-1.223,7.784,1.855,10.412
		c3.5,2.989,8.761,2.574,11.749-0.925c2.987-3.5,2.573-8.76-0.927-11.749C139.32,17.104,134.883,17.111,131.824,19.531z"/>
	<circle fill="#FB4C52" cx="155.84" cy="66.932" r="8.334"/>
	<path fill="#00BFFF" d="M155.957,66.466l8.166-0.908c-0.418-2.729-2.172-5.189-4.887-6.379c-4.217-1.847-9.131,0.074-10.979,4.289
		c-0.561,1.281-0.77,2.625-0.677,3.93L155.957,66.466z"/>
	<circle fill="#FB4C52" cx="118.047" cy="66.871" r="8.333"/>
	<path fill="#00BFFF" d="M110.213,69.705l7.887-2.793l0.439-8.356c-2.701-0.157-5.428,0.998-7.169,3.33
		C109.629,64.216,109.295,67.159,110.213,69.705z"/>
	<circle fill="#FB4C52" cx="189.523" cy="178.945" r="8.334"/>
	<path fill="#00BFFF" d="M181.46,176.873l0.12,0.031l7.943,2.041l-5.739,5.859l-0.086,0.088c2.057,2.012,5.096,2.907,8.065,2.08
		c4.434-1.238,7.023-5.834,5.787-10.268s-5.834-7.023-10.267-5.787C184.314,171.748,182.18,174.088,181.46,176.873z"/>
	<circle fill="#FB4C52" cx="208.482" cy="178.945" r="8.334"/>
	<path fill="#00BFFF" d="M200.418,176.873l0.12,0.031l7.944,2.041l-5.74,5.859l-0.086,0.088c2.057,2.012,5.096,2.907,8.064,2.08
		c4.434-1.238,7.024-5.834,5.788-10.268c-1.235-4.434-5.834-7.023-10.267-5.787C203.271,171.748,201.137,174.088,200.418,176.873z"
		/>
	<circle fill="#FB4C52" cx="189.525" cy="66.932" r="8.334"/>
	<path fill="#00BFFF" d="M189.643,66.466l8.166-0.908c-0.418-2.729-2.172-5.189-4.887-6.379c-4.217-1.847-9.131,0.074-10.979,4.289
		c-0.561,1.281-0.77,2.625-0.676,3.93L189.643,66.466z"/>
	<circle fill="#FB4C52" cx="118.047" cy="178.944" r="8.333"/>
	<path fill="#00BFFF" d="M110.213,181.777l7.887-2.793l0.439-8.355c-2.701-0.156-5.428,0.998-7.169,3.33
		C109.629,176.289,109.295,179.232,110.213,181.777z"/>
	<circle fill="#FB4C52" cx="136.986" cy="178.944" r="8.333"/>
	<path fill="#00BFFF" d="M129.152,181.779l7.888-2.793l0.438-8.357c-2.701-0.156-5.428,0.998-7.168,3.33
		C128.568,176.289,128.234,179.232,129.152,181.779z"/>
	<circle fill="#FB4C52" cx="155.84" cy="178.942" r="8.333"/>
	<path fill="#00BFFF" d="M148.006,181.777l7.887-2.793l0.439-8.356c-2.701-0.155-5.428,0.998-7.169,3.33
		C147.422,176.288,147.088,179.23,148.006,181.777z"/>
	<circle fill="#FB4C52" cx="208.482" cy="66.871" r="8.334"/>
	<path fill="#00BFFF" d="M208.294,58.538c-0.959,0-1.877,0.171-2.735,0.47l0.205,0.529l2.748,7.104l2.745-7.104l0.152-0.392
		C210.445,58.757,209.396,58.538,208.294,58.538z"/>
	<circle fill="#FB4C52" cx="136.986" cy="108.512" r="8.333"/>
	<path fill="#00BFFF" d="M129.152,111.346l7.888-2.793l0.438-8.355c-2.701-0.157-5.428,0.998-7.168,3.33
		C128.568,105.855,128.234,108.8,129.152,111.346z"/>
	<circle fill="#FB4C52" cx="189.525" cy="108.572" r="8.334"/>
	<path fill="#00BFFF" d="M189.643,108.105l8.166-0.907c-0.418-2.729-2.172-5.189-4.887-6.38c-4.217-1.846-9.131,0.074-10.979,4.289
		c-0.561,1.281-0.77,2.625-0.676,3.931L189.643,108.105z"/>
	<circle fill="#FB4C52" cx="208.482" cy="108.512" r="8.334"/>
	<path fill="#00BFFF" d="M208.294,100.18c-0.959,0-1.877,0.17-2.735,0.469l0.205,0.529l2.748,7.104l2.745-7.104l0.152-0.392
		C210.445,100.398,209.396,100.18,208.294,100.18z"/>
	<circle fill="#FB4C52" cx="189.525" cy="26.07" r="8.333"/>
	<path fill="#00BFFF" d="M193.361,18.673c-1.348-0.699-2.797-0.986-4.213-0.921l0.006,0.124l0.371,8.194l6.91-4.418l0.105-0.067
		C195.779,20.392,194.71,19.372,193.361,18.673z"/>
	<g>
		<path d="M114.1,3.949h3.912c0.239,0,0.449,0.05,0.629,0.15s0.33,0.23,0.45,0.39c0.12,0.16,0.21,0.344,0.271,0.552
			s0.091,0.424,0.091,0.648c0,0.256-0.04,0.506-0.12,0.75s-0.191,0.472-0.336,0.684s-0.316,0.402-0.521,0.57
			c-0.203,0.168-0.427,0.304-0.666,0.408c0.359,0.12,0.635,0.336,0.821,0.648s0.282,0.672,0.282,1.08c0,0.384-0.08,0.736-0.24,1.056
			c-0.16,0.32-0.37,0.598-0.63,0.834c-0.26,0.236-0.56,0.42-0.896,0.552s-0.684,0.198-1.043,0.198h-3.815L114.1,3.949z
			 M116.259,11.737c0.231,0,0.458-0.054,0.679-0.162c0.22-0.108,0.414-0.252,0.582-0.432s0.304-0.384,0.408-0.612
			c0.104-0.229,0.155-0.466,0.155-0.714c0-0.176-0.024-0.344-0.071-0.504c-0.049-0.16-0.119-0.3-0.211-0.42s-0.201-0.214-0.33-0.282
			c-0.128-0.068-0.275-0.102-0.443-0.102h-3.071l-0.685,3.228H116.259z M116.859,7.825c0.224,0,0.438-0.054,0.646-0.162
			s0.393-0.25,0.553-0.426c0.159-0.176,0.289-0.378,0.385-0.606s0.144-0.466,0.144-0.714c0-0.344-0.088-0.636-0.264-0.876
			c-0.177-0.24-0.421-0.36-0.732-0.36h-2.819L114.1,7.825H116.859z"/>
		<path d="M122.331,12.589c-0.368,0-0.698-0.07-0.99-0.21c-0.292-0.14-0.538-0.328-0.737-0.564
			c-0.201-0.236-0.354-0.512-0.463-0.828c-0.106-0.316-0.162-0.654-0.162-1.014c0-0.504,0.104-0.988,0.308-1.452
			c0.202-0.464,0.478-0.874,0.821-1.23c0.345-0.355,0.74-0.642,1.188-0.858c0.447-0.216,0.92-0.324,1.416-0.324
			c0.367,0,0.695,0.07,0.983,0.21c0.287,0.14,0.533,0.328,0.738,0.564c0.203,0.236,0.359,0.514,0.467,0.834
			c0.108,0.32,0.162,0.66,0.162,1.02c0,0.496-0.102,0.976-0.306,1.44c-0.204,0.464-0.476,0.874-0.815,1.23
			c-0.34,0.356-0.735,0.642-1.188,0.858C123.301,12.481,122.826,12.589,122.331,12.589z M122.486,11.869
			c0.336,0,0.668-0.082,0.996-0.246s0.621-0.384,0.877-0.66c0.256-0.276,0.463-0.596,0.623-0.96c0.16-0.364,0.24-0.75,0.24-1.158
			c0-0.28-0.041-0.544-0.119-0.792c-0.08-0.248-0.195-0.462-0.344-0.642c-0.146-0.18-0.322-0.322-0.527-0.426
			c-0.203-0.104-0.431-0.156-0.678-0.156c-0.337,0-0.666,0.082-0.99,0.246s-0.615,0.386-0.875,0.666
			c-0.262,0.28-0.472,0.604-0.631,0.972c-0.16,0.368-0.24,0.756-0.24,1.164c0,0.28,0.041,0.542,0.121,0.786
			c0.078,0.244,0.192,0.456,0.342,0.636c0.146,0.18,0.324,0.32,0.527,0.42C122.014,11.819,122.238,11.869,122.486,11.869z"/>
		<path d="M129.207,12.589c-0.368,0-0.698-0.07-0.99-0.21c-0.292-0.14-0.537-0.328-0.738-0.564
			c-0.199-0.236-0.354-0.512-0.461-0.828c-0.108-0.316-0.162-0.654-0.162-1.014c0-0.504,0.103-0.988,0.307-1.452
			s0.479-0.874,0.82-1.23c0.345-0.355,0.74-0.642,1.188-0.858c0.448-0.216,0.92-0.324,1.416-0.324c0.368,0,0.696,0.07,0.983,0.21
			c0.289,0.14,0.535,0.328,0.738,0.564c0.203,0.236,0.359,0.514,0.469,0.834c0.106,0.32,0.162,0.66,0.162,1.02
			c0,0.496-0.104,0.976-0.308,1.44c-0.204,0.464-0.478,0.874-0.815,1.23c-0.34,0.356-0.736,0.642-1.188,0.858
			C130.177,12.481,129.703,12.589,129.207,12.589z M129.363,11.869c0.336,0,0.668-0.082,0.996-0.246s0.619-0.384,0.875-0.66
			c0.256-0.276,0.465-0.596,0.625-0.96c0.16-0.364,0.24-0.75,0.24-1.158c0-0.28-0.041-0.544-0.121-0.792
			c-0.08-0.248-0.193-0.462-0.342-0.642c-0.148-0.18-0.324-0.322-0.527-0.426c-0.205-0.104-0.432-0.156-0.68-0.156
			c-0.336,0-0.664,0.082-0.988,0.246s-0.617,0.386-0.877,0.666c-0.26,0.28-0.471,0.604-0.629,0.972
			c-0.16,0.368-0.24,0.756-0.24,1.164c0,0.28,0.039,0.542,0.119,0.786s0.193,0.456,0.342,0.636c0.148,0.18,0.324,0.32,0.529,0.42
			C128.889,11.819,129.115,11.869,129.363,11.869z"/>
		<path d="M134.955,12.541c-0.305,0-0.555-0.074-0.75-0.222c-0.196-0.148-0.294-0.374-0.294-0.678c0-0.088,0.012-0.188,0.036-0.3
			l0.947-4.476h-0.828l0.145-0.648h0.816l0.455-2.112h0.815l-0.456,2.112h1.368l-0.146,0.648h-1.354l-0.862,4.068
			c-0.018,0.088-0.031,0.156-0.043,0.204c-0.013,0.048-0.019,0.092-0.019,0.132c0,0.184,0.056,0.316,0.168,0.396
			c0.11,0.08,0.248,0.12,0.407,0.12c0.217,0,0.416-0.038,0.601-0.114s0.306-0.13,0.358-0.162l0.072,0.66
			c-0.104,0.072-0.289,0.152-0.558,0.24C135.566,12.497,135.275,12.541,134.955,12.541z"/>
		<path d="M139.251,12.589c-0.464,0-0.899-0.08-1.308-0.24c-0.408-0.16-0.74-0.392-0.996-0.696l0.479-0.552
			c0.535,0.576,1.185,0.864,1.943,0.864c0.526,0,0.962-0.122,1.302-0.366c0.342-0.244,0.512-0.57,0.512-0.978
			c0-0.144-0.033-0.264-0.098-0.36c-0.064-0.096-0.16-0.182-0.288-0.258s-0.286-0.146-0.479-0.21
			c-0.191-0.064-0.412-0.128-0.659-0.192c-0.288-0.08-0.538-0.158-0.75-0.234c-0.212-0.076-0.388-0.162-0.528-0.258
			c-0.141-0.096-0.246-0.21-0.318-0.342c-0.07-0.132-0.106-0.29-0.106-0.474c0-0.344,0.074-0.652,0.224-0.924
			c0.146-0.272,0.344-0.502,0.588-0.69c0.242-0.188,0.526-0.33,0.852-0.426c0.324-0.096,0.662-0.144,1.014-0.144
			c0.456,0,0.852,0.078,1.188,0.234c0.336,0.156,0.597,0.362,0.78,0.618l-0.504,0.48c-0.168-0.24-0.397-0.42-0.69-0.54
			c-0.291-0.12-0.604-0.18-0.941-0.18c-0.225,0-0.438,0.028-0.647,0.084c-0.207,0.056-0.391,0.14-0.545,0.252
			c-0.156,0.112-0.281,0.252-0.373,0.42s-0.139,0.368-0.139,0.6c0,0.256,0.104,0.438,0.307,0.546
			c0.205,0.108,0.521,0.218,0.955,0.33c0.646,0.16,1.141,0.342,1.48,0.546s0.512,0.514,0.512,0.93c0,0.312-0.068,0.6-0.205,0.864
			s-0.326,0.492-0.57,0.684s-0.535,0.342-0.875,0.45C140.025,12.535,139.65,12.589,139.251,12.589z"/>
		<path d="M144.423,12.541c-0.304,0-0.554-0.074-0.75-0.222s-0.294-0.374-0.294-0.678c0-0.088,0.012-0.188,0.035-0.3l0.949-4.476
			h-0.828l0.145-0.648h0.814l0.457-2.112h0.814l-0.455,2.112h1.367l-0.144,0.648h-1.356l-0.863,4.068
			c-0.017,0.088-0.029,0.156-0.041,0.204c-0.014,0.048-0.02,0.092-0.02,0.132c0,0.184,0.057,0.316,0.168,0.396
			c0.112,0.08,0.247,0.12,0.407,0.12c0.217,0,0.416-0.038,0.601-0.114c0.186-0.076,0.305-0.13,0.36-0.162l0.071,0.66
			c-0.104,0.072-0.291,0.152-0.559,0.24C145.035,12.497,144.742,12.541,144.423,12.541z"/>
		<path d="M148.083,6.217h0.769l-0.324,1.5c0.312-0.456,0.666-0.818,1.062-1.086s0.799-0.41,1.206-0.426
			c0.063,0,0.117,0.002,0.162,0.006c0.043,0.004,0.086,0.01,0.126,0.018l-0.156,0.708c-0.521,0.016-1.004,0.168-1.451,0.456
			s-0.81,0.684-1.08,1.188l-0.816,3.888h-0.814L148.083,6.217z"/>
		<path d="M153.003,12.589c-0.353,0-0.664-0.07-0.937-0.21c-0.271-0.14-0.504-0.33-0.695-0.57c-0.191-0.24-0.338-0.518-0.438-0.834
			c-0.102-0.316-0.15-0.65-0.15-1.002c0-0.496,0.096-0.976,0.287-1.44c0.191-0.464,0.449-0.876,0.769-1.236
			c0.319-0.36,0.688-0.648,1.104-0.864c0.416-0.216,0.852-0.324,1.308-0.324c0.504,0,0.92,0.138,1.248,0.414
			c0.327,0.276,0.56,0.61,0.696,1.002l0.287-1.308h0.815l-1.104,5.184c-0.017,0.064-0.023,0.116-0.023,0.156
			c0,0.128,0.076,0.192,0.229,0.192l-0.156,0.72c-0.062,0.008-0.123,0.016-0.18,0.024c-0.057,0.008-0.104,0.012-0.145,0.012
			c-0.186-0.016-0.322-0.066-0.414-0.15s-0.138-0.194-0.138-0.33c0-0.064,0.01-0.148,0.028-0.252
			c0.021-0.104,0.056-0.276,0.104-0.516c-0.32,0.408-0.706,0.732-1.158,0.972C153.889,12.469,153.443,12.589,153.003,12.589z
			 M153.339,11.869c0.2,0,0.416-0.04,0.647-0.12s0.455-0.19,0.666-0.33c0.213-0.14,0.404-0.304,0.576-0.492
			c0.172-0.188,0.299-0.39,0.379-0.606l0.396-1.932c-0.024-0.216-0.089-0.418-0.192-0.606c-0.103-0.188-0.231-0.352-0.384-0.492
			c-0.151-0.14-0.323-0.252-0.516-0.336c-0.193-0.084-0.392-0.126-0.601-0.126c-0.359,0-0.701,0.09-1.025,0.27
			c-0.324,0.18-0.608,0.414-0.852,0.702c-0.244,0.288-0.438,0.612-0.582,0.972c-0.146,0.36-0.218,0.72-0.218,1.08
			c0,0.28,0.04,0.542,0.12,0.786c0.08,0.244,0.196,0.456,0.35,0.636c0.15,0.18,0.33,0.324,0.539,0.432
			S153.083,11.869,153.339,11.869z"/>
		<path d="M159.1,6.217h0.719l-0.252,1.212c0.32-0.392,0.701-0.71,1.142-0.954c0.438-0.244,0.888-0.366,1.344-0.366
			c0.345,0,0.654,0.072,0.931,0.216c0.275,0.144,0.51,0.336,0.701,0.576c0.192,0.24,0.338,0.52,0.438,0.84
			c0.101,0.32,0.149,0.652,0.149,0.996c0,0.488-0.092,0.964-0.276,1.428s-0.437,0.876-0.757,1.236
			c-0.319,0.36-0.688,0.648-1.108,0.864c-0.42,0.216-0.862,0.324-1.325,0.324c-0.505,0-0.918-0.134-1.242-0.402
			s-0.559-0.606-0.701-1.014l-0.816,3.852h-0.816L159.1,6.217z M160.73,11.869c0.359,0,0.703-0.09,1.031-0.27
			c0.328-0.18,0.614-0.412,0.858-0.696c0.243-0.284,0.438-0.604,0.582-0.96s0.215-0.714,0.215-1.074c0-0.28-0.039-0.544-0.119-0.792
			s-0.196-0.464-0.348-0.648c-0.152-0.184-0.332-0.33-0.541-0.438c-0.207-0.108-0.443-0.162-0.707-0.162
			c-0.192,0-0.402,0.042-0.632,0.126c-0.228,0.084-0.448,0.196-0.666,0.336c-0.215,0.14-0.409,0.304-0.582,0.492
			c-0.172,0.188-0.297,0.386-0.377,0.594l-0.407,1.92c0.039,0.224,0.108,0.432,0.209,0.624s0.226,0.358,0.373,0.498
			s0.315,0.25,0.504,0.33S160.516,11.869,160.73,11.869z"/>
		<path d="M169.826,12.589c-0.465,0-0.9-0.08-1.309-0.24c-0.408-0.16-0.74-0.392-0.996-0.696l0.479-0.552
			c0.536,0.576,1.185,0.864,1.944,0.864c0.527,0,0.962-0.122,1.302-0.366c0.34-0.244,0.51-0.57,0.51-0.978
			c0-0.144-0.03-0.264-0.096-0.36c-0.065-0.096-0.16-0.182-0.288-0.258s-0.288-0.146-0.479-0.21
			c-0.192-0.064-0.412-0.128-0.66-0.192c-0.289-0.08-0.539-0.158-0.75-0.234c-0.213-0.076-0.389-0.162-0.528-0.258
			c-0.14-0.096-0.245-0.21-0.317-0.342c-0.072-0.132-0.107-0.29-0.107-0.474c0-0.344,0.072-0.652,0.222-0.924
			s0.345-0.502,0.588-0.69c0.244-0.188,0.528-0.33,0.853-0.426c0.324-0.096,0.662-0.144,1.015-0.144
			c0.456,0,0.853,0.078,1.188,0.234c0.336,0.156,0.596,0.362,0.778,0.618l-0.504,0.48c-0.168-0.24-0.397-0.42-0.688-0.54
			c-0.293-0.12-0.606-0.18-0.942-0.18c-0.224,0-0.44,0.028-0.647,0.084c-0.209,0.056-0.391,0.14-0.547,0.252
			c-0.156,0.112-0.279,0.252-0.371,0.42s-0.139,0.368-0.139,0.6c0,0.256,0.102,0.438,0.307,0.546
			c0.203,0.108,0.521,0.218,0.953,0.33c0.648,0.16,1.144,0.342,1.482,0.546c0.34,0.204,0.51,0.514,0.51,0.93
			c0,0.312-0.068,0.6-0.203,0.864c-0.137,0.264-0.326,0.492-0.57,0.684s-0.535,0.342-0.877,0.45
			C170.596,12.535,170.227,12.589,169.826,12.589z"/>
		<path d="M175.898,12.589c-0.354,0-0.664-0.07-0.938-0.21c-0.271-0.14-0.504-0.33-0.695-0.57c-0.191-0.24-0.339-0.518-0.438-0.834
			c-0.101-0.316-0.15-0.65-0.15-1.002c0-0.496,0.097-0.976,0.288-1.44c0.192-0.464,0.448-0.876,0.77-1.236
			c0.318-0.36,0.688-0.648,1.104-0.864c0.416-0.216,0.852-0.324,1.309-0.324c0.504,0,0.92,0.138,1.248,0.414s0.56,0.61,0.695,1.002
			l0.288-1.308h0.815l-1.104,5.184c-0.016,0.064-0.022,0.116-0.022,0.156c0,0.128,0.076,0.192,0.228,0.192l-0.155,0.72
			c-0.063,0.008-0.125,0.016-0.181,0.024c-0.056,0.008-0.104,0.012-0.144,0.012c-0.186-0.016-0.322-0.066-0.414-0.15
			s-0.139-0.194-0.139-0.33c0-0.064,0.01-0.148,0.029-0.252s0.055-0.276,0.104-0.516c-0.32,0.408-0.707,0.732-1.158,0.972
			C176.783,12.469,176.338,12.589,175.898,12.589z M176.234,11.869c0.199,0,0.416-0.04,0.646-0.12s0.454-0.19,0.666-0.33
			s0.403-0.304,0.576-0.492c0.172-0.188,0.298-0.39,0.378-0.606l0.396-1.932c-0.023-0.216-0.088-0.418-0.191-0.606
			c-0.104-0.188-0.232-0.352-0.385-0.492c-0.151-0.14-0.323-0.252-0.516-0.336c-0.193-0.084-0.393-0.126-0.601-0.126
			c-0.36,0-0.702,0.09-1.026,0.27c-0.324,0.18-0.607,0.414-0.852,0.702c-0.245,0.288-0.438,0.612-0.582,0.972
			s-0.217,0.72-0.217,1.08c0,0.28,0.041,0.542,0.121,0.786c0.08,0.244,0.194,0.456,0.348,0.636c0.152,0.18,0.332,0.324,0.54,0.432
			C175.746,11.815,175.979,11.869,176.234,11.869z"/>
		<path d="M181.982,6.217h0.756l-0.312,1.416c0.336-0.472,0.73-0.844,1.182-1.116c0.453-0.271,0.914-0.408,1.388-0.408
			c0.479,0,0.838,0.142,1.073,0.426c0.236,0.284,0.354,0.686,0.354,1.206c0.353-0.536,0.759-0.942,1.218-1.218
			c0.461-0.276,0.932-0.414,1.41-0.414c0.504,0,0.862,0.136,1.073,0.408c0.213,0.272,0.317,0.648,0.317,1.128
			c0,0.344-0.047,0.732-0.144,1.164l-0.78,3.66h-0.815l0.731-3.492c0.041-0.184,0.07-0.358,0.09-0.522
			c0.021-0.164,0.031-0.313,0.031-0.45c0-0.768-0.316-1.152-0.949-1.152c-0.224,0-0.444,0.044-0.666,0.132
			c-0.219,0.088-0.43,0.212-0.629,0.372c-0.201,0.16-0.387,0.35-0.559,0.57c-0.172,0.22-0.322,0.462-0.45,0.726l-0.804,3.816h-0.816
			l0.732-3.492c0.039-0.2,0.072-0.382,0.096-0.546c0.023-0.164,0.036-0.314,0.036-0.45c0-0.752-0.315-1.128-0.948-1.128
			c-0.447,0-0.88,0.164-1.296,0.492c-0.416,0.328-0.756,0.76-1.021,1.296l-0.805,3.828h-0.814L181.982,6.217z"/>
		<path d="M192.529,6.217h0.721l-0.252,1.212c0.32-0.392,0.699-0.71,1.141-0.954c0.439-0.244,0.887-0.366,1.344-0.366
			c0.345,0,0.654,0.072,0.931,0.216c0.274,0.144,0.51,0.336,0.7,0.576c0.193,0.24,0.339,0.52,0.438,0.84
			c0.101,0.32,0.149,0.652,0.149,0.996c0,0.488-0.092,0.964-0.275,1.428s-0.436,0.876-0.756,1.236s-0.689,0.648-1.109,0.864
			c-0.42,0.216-0.862,0.324-1.326,0.324c-0.504,0-0.918-0.134-1.241-0.402c-0.324-0.268-0.56-0.606-0.702-1.014l-0.816,3.852h-0.814
			L192.529,6.217z M194.162,11.869c0.359,0,0.703-0.09,1.031-0.27c0.328-0.18,0.613-0.412,0.857-0.696
			c0.244-0.284,0.438-0.604,0.582-0.96c0.145-0.356,0.217-0.714,0.217-1.074c0-0.28-0.041-0.544-0.119-0.792
			c-0.08-0.248-0.197-0.464-0.35-0.648c-0.152-0.184-0.332-0.33-0.54-0.438c-0.208-0.108-0.442-0.162-0.708-0.162
			c-0.191,0-0.4,0.042-0.63,0.126s-0.45,0.196-0.666,0.336s-0.409,0.304-0.582,0.492c-0.172,0.188-0.299,0.386-0.378,0.594
			l-0.408,1.92c0.04,0.224,0.11,0.432,0.211,0.624c0.1,0.192,0.225,0.358,0.371,0.498c0.147,0.14,0.315,0.25,0.504,0.33
			C193.744,11.829,193.945,11.869,194.162,11.869z"/>
		<path d="M199.49,12.541c-0.297,0-0.529-0.076-0.697-0.228s-0.252-0.368-0.252-0.648c0-0.048,0.004-0.1,0.014-0.156
			c0.008-0.056,0.02-0.116,0.035-0.18l1.607-7.62h0.816l-1.562,7.344c-0.009,0.04-0.015,0.076-0.019,0.108
			c-0.004,0.032-0.006,0.068-0.006,0.108c0,0.353,0.188,0.528,0.564,0.528c0.088,0,0.191-0.012,0.312-0.036
			c0.12-0.024,0.234-0.056,0.348-0.096l-0.024,0.66c-0.16,0.064-0.351,0.116-0.569,0.156S199.648,12.541,199.49,12.541z"/>
		<path d="M204.025,12.589c-0.385,0-0.728-0.068-1.025-0.204c-0.301-0.136-0.553-0.324-0.756-0.564
			c-0.205-0.24-0.361-0.52-0.469-0.84s-0.162-0.664-0.162-1.032c0-0.496,0.096-0.974,0.287-1.434
			c0.192-0.46,0.457-0.868,0.793-1.224c0.336-0.355,0.733-0.642,1.193-0.858c0.461-0.216,0.959-0.324,1.493-0.324
			c0.272,0,0.53,0.036,0.774,0.108c0.244,0.072,0.455,0.178,0.636,0.318c0.181,0.14,0.321,0.316,0.426,0.528
			s0.156,0.454,0.156,0.726c0,0.616-0.271,1.08-0.815,1.392c-0.543,0.312-1.384,0.468-2.521,0.468c-0.224,0-0.466-0.004-0.726-0.012
			c-0.262-0.008-0.543-0.024-0.848-0.048c-0.008,0.064-0.014,0.124-0.018,0.18s-0.006,0.112-0.006,0.168
			c0,0.272,0.035,0.53,0.106,0.774c0.072,0.244,0.181,0.46,0.324,0.648c0.146,0.188,0.323,0.336,0.541,0.444
			c0.215,0.108,0.467,0.162,0.756,0.162c0.19,0,0.388-0.028,0.588-0.084c0.199-0.056,0.39-0.134,0.57-0.234
			c0.18-0.1,0.346-0.222,0.498-0.366c0.151-0.144,0.278-0.304,0.383-0.48l0.672,0.204c-0.144,0.232-0.319,0.446-0.526,0.642
			c-0.209,0.196-0.438,0.364-0.689,0.504s-0.518,0.248-0.793,0.324C204.596,12.551,204.312,12.589,204.025,12.589z M205.297,6.745
			c-0.359,0-0.688,0.064-0.982,0.192c-0.297,0.128-0.561,0.296-0.793,0.504c-0.231,0.208-0.428,0.448-0.588,0.72
			s-0.279,0.552-0.359,0.84c0.287,0.016,0.554,0.03,0.798,0.042c0.244,0.012,0.479,0.018,0.702,0.018
			c0.472,0,0.871-0.032,1.199-0.096s0.593-0.152,0.793-0.264c0.199-0.112,0.344-0.248,0.433-0.408
			c0.088-0.16,0.131-0.332,0.131-0.516c0-0.36-0.131-0.622-0.396-0.786C205.969,6.827,205.658,6.745,205.297,6.745z"/>
		<path d="M210.9,11.725h1.621l1.092-5.136c-0.088,0.096-0.217,0.2-0.385,0.312c-0.168,0.112-0.353,0.216-0.553,0.312
			c-0.199,0.096-0.4,0.176-0.605,0.24c-0.203,0.064-0.381,0.096-0.533,0.096l0.168-0.792c0.176,0,0.38-0.052,0.611-0.156
			s0.455-0.224,0.666-0.36c0.213-0.136,0.397-0.264,0.559-0.384c0.16-0.12,0.252-0.2,0.275-0.24h0.828l-1.295,6.108h1.45
			l-0.155,0.744h-3.899L210.9,11.725z"/>
	</g>
	<g>
		<path d="M114.1,44.891h3.912c0.239,0,0.449,0.05,0.629,0.15s0.33,0.23,0.45,0.39c0.12,0.16,0.21,0.344,0.271,0.552
			s0.091,0.424,0.091,0.648c0,0.256-0.04,0.506-0.12,0.75c-0.08,0.244-0.191,0.472-0.336,0.684s-0.316,0.402-0.521,0.57
			c-0.203,0.168-0.427,0.304-0.666,0.408c0.359,0.12,0.635,0.336,0.821,0.648s0.282,0.672,0.282,1.08c0,0.384-0.08,0.736-0.24,1.056
			c-0.16,0.32-0.37,0.598-0.63,0.834c-0.26,0.236-0.56,0.42-0.896,0.552s-0.684,0.198-1.043,0.198h-3.815L114.1,44.891z
			 M116.259,52.679c0.231,0,0.458-0.054,0.679-0.162c0.22-0.108,0.414-0.252,0.582-0.432c0.168-0.18,0.304-0.384,0.408-0.612
			s0.155-0.466,0.155-0.714c0-0.176-0.024-0.344-0.071-0.504c-0.049-0.16-0.119-0.3-0.211-0.42s-0.201-0.214-0.33-0.282
			c-0.128-0.068-0.275-0.102-0.443-0.102h-3.071l-0.685,3.228H116.259z M116.859,48.767c0.224,0,0.438-0.054,0.646-0.162
			s0.393-0.25,0.553-0.426c0.159-0.176,0.289-0.378,0.385-0.606c0.096-0.229,0.144-0.466,0.144-0.714
			c0-0.344-0.088-0.636-0.264-0.876c-0.177-0.24-0.421-0.36-0.732-0.36h-2.819l-0.672,3.144H116.859L116.859,48.767z"/>
		<path d="M122.331,53.531c-0.368,0-0.698-0.07-0.99-0.21c-0.292-0.14-0.538-0.328-0.737-0.564
			c-0.201-0.236-0.354-0.512-0.463-0.828c-0.106-0.316-0.162-0.654-0.162-1.014c0-0.504,0.104-0.988,0.308-1.452
			c0.202-0.464,0.478-0.874,0.821-1.23c0.345-0.355,0.74-0.642,1.188-0.858c0.447-0.216,0.92-0.324,1.416-0.324
			c0.367,0,0.695,0.07,0.983,0.21c0.287,0.14,0.533,0.328,0.738,0.564c0.203,0.236,0.359,0.514,0.467,0.834
			c0.108,0.32,0.162,0.66,0.162,1.02c0,0.496-0.102,0.976-0.306,1.44s-0.476,0.874-0.815,1.23s-0.735,0.642-1.188,0.858
			C123.301,53.423,122.826,53.531,122.331,53.531z M122.486,52.811c0.336,0,0.668-0.082,0.996-0.246s0.621-0.384,0.877-0.66
			c0.256-0.276,0.463-0.596,0.623-0.96c0.16-0.364,0.24-0.75,0.24-1.158c0-0.28-0.041-0.544-0.119-0.792
			c-0.08-0.248-0.195-0.462-0.344-0.642c-0.146-0.18-0.322-0.322-0.527-0.426c-0.203-0.104-0.431-0.156-0.678-0.156
			c-0.337,0-0.666,0.082-0.99,0.246s-0.615,0.386-0.875,0.666c-0.262,0.28-0.472,0.604-0.631,0.972
			c-0.16,0.368-0.24,0.756-0.24,1.164c0,0.28,0.041,0.542,0.121,0.786c0.078,0.244,0.192,0.456,0.342,0.636
			c0.146,0.18,0.324,0.32,0.527,0.42C122.014,52.761,122.238,52.811,122.486,52.811z"/>
		<path d="M129.207,53.531c-0.368,0-0.698-0.07-0.99-0.21c-0.292-0.14-0.537-0.328-0.738-0.564
			c-0.199-0.236-0.354-0.512-0.461-0.828c-0.108-0.316-0.162-0.654-0.162-1.014c0-0.504,0.103-0.988,0.307-1.452
			s0.479-0.874,0.82-1.23c0.345-0.355,0.74-0.642,1.188-0.858s0.92-0.324,1.416-0.324c0.368,0,0.696,0.07,0.983,0.21
			c0.289,0.14,0.535,0.328,0.738,0.564c0.203,0.236,0.359,0.514,0.469,0.834c0.106,0.32,0.162,0.66,0.162,1.02
			c0,0.496-0.104,0.976-0.308,1.44s-0.478,0.874-0.815,1.23c-0.34,0.356-0.736,0.642-1.188,0.858
			C130.177,53.423,129.703,53.531,129.207,53.531z M129.363,52.811c0.336,0,0.668-0.082,0.996-0.246s0.619-0.384,0.875-0.66
			c0.256-0.276,0.465-0.596,0.625-0.96c0.16-0.364,0.24-0.75,0.24-1.158c0-0.28-0.041-0.544-0.121-0.792s-0.193-0.462-0.342-0.642
			s-0.324-0.322-0.527-0.426c-0.205-0.104-0.432-0.156-0.68-0.156c-0.336,0-0.664,0.082-0.988,0.246s-0.617,0.386-0.877,0.666
			c-0.26,0.28-0.471,0.604-0.629,0.972c-0.16,0.368-0.24,0.756-0.24,1.164c0,0.28,0.039,0.542,0.119,0.786s0.193,0.456,0.342,0.636
			c0.148,0.18,0.324,0.32,0.529,0.42C128.889,52.761,129.115,52.811,129.363,52.811z"/>
		<path d="M134.955,53.483c-0.305,0-0.555-0.074-0.75-0.222c-0.196-0.148-0.294-0.374-0.294-0.678c0-0.088,0.012-0.188,0.036-0.3
			l0.947-4.476h-0.828l0.145-0.648h0.816l0.455-2.112h0.815l-0.456,2.112h1.368l-0.146,0.648h-1.354l-0.862,4.068
			c-0.018,0.088-0.031,0.156-0.043,0.204c-0.013,0.048-0.019,0.092-0.019,0.132c0,0.184,0.056,0.316,0.168,0.396
			c0.11,0.08,0.248,0.12,0.407,0.12c0.217,0,0.416-0.038,0.601-0.114c0.185-0.076,0.306-0.13,0.358-0.162l0.072,0.66
			c-0.104,0.072-0.289,0.152-0.558,0.24S135.275,53.483,134.955,53.483z"/>
		<path d="M139.251,53.531c-0.464,0-0.899-0.08-1.308-0.24s-0.74-0.392-0.996-0.696l0.479-0.552
			c0.535,0.576,1.185,0.864,1.943,0.864c0.526,0,0.962-0.122,1.302-0.366c0.342-0.244,0.512-0.57,0.512-0.978
			c0-0.144-0.033-0.264-0.098-0.36c-0.064-0.096-0.16-0.182-0.288-0.258c-0.128-0.076-0.286-0.146-0.479-0.21
			c-0.191-0.064-0.412-0.128-0.659-0.192c-0.288-0.08-0.538-0.158-0.75-0.234c-0.212-0.076-0.388-0.162-0.528-0.258
			c-0.141-0.096-0.246-0.21-0.318-0.342c-0.07-0.132-0.106-0.29-0.106-0.474c0-0.344,0.074-0.652,0.224-0.924
			c0.146-0.272,0.344-0.502,0.588-0.69c0.242-0.188,0.526-0.33,0.852-0.426c0.324-0.096,0.662-0.144,1.014-0.144
			c0.456,0,0.852,0.078,1.188,0.234c0.336,0.156,0.597,0.362,0.78,0.618l-0.504,0.48c-0.168-0.24-0.397-0.42-0.69-0.54
			c-0.291-0.12-0.604-0.18-0.941-0.18c-0.225,0-0.438,0.028-0.647,0.084c-0.207,0.056-0.391,0.14-0.545,0.252
			c-0.156,0.112-0.281,0.252-0.373,0.42s-0.139,0.368-0.139,0.6c0,0.256,0.104,0.438,0.307,0.546
			c0.205,0.108,0.521,0.218,0.955,0.33c0.646,0.16,1.141,0.342,1.48,0.546s0.512,0.514,0.512,0.93c0,0.312-0.068,0.6-0.205,0.864
			c-0.137,0.264-0.326,0.492-0.57,0.684s-0.535,0.342-0.875,0.45C140.025,53.477,139.65,53.531,139.251,53.531z"/>
		<path d="M144.423,53.483c-0.304,0-0.554-0.074-0.75-0.222c-0.196-0.148-0.294-0.374-0.294-0.678c0-0.088,0.012-0.188,0.035-0.3
			l0.949-4.476h-0.828l0.145-0.648h0.814l0.457-2.112h0.814l-0.455,2.112h1.367l-0.144,0.648h-1.356l-0.863,4.068
			c-0.017,0.088-0.029,0.156-0.041,0.204c-0.014,0.048-0.02,0.092-0.02,0.132c0,0.184,0.057,0.316,0.168,0.396
			c0.112,0.08,0.247,0.12,0.407,0.12c0.217,0,0.416-0.038,0.601-0.114c0.186-0.076,0.305-0.13,0.36-0.162l0.071,0.66
			c-0.104,0.072-0.291,0.152-0.559,0.24S144.742,53.483,144.423,53.483z"/>
		<path d="M148.083,47.159h0.769l-0.324,1.5c0.312-0.456,0.666-0.818,1.062-1.086c0.396-0.268,0.799-0.41,1.206-0.426
			c0.063,0,0.117,0.002,0.162,0.006c0.043,0.004,0.086,0.01,0.126,0.018l-0.156,0.708c-0.521,0.016-1.004,0.168-1.451,0.456
			s-0.81,0.684-1.08,1.188l-0.816,3.888h-0.814L148.083,47.159z"/>
		<path d="M153.003,53.531c-0.353,0-0.664-0.07-0.937-0.21c-0.271-0.14-0.504-0.33-0.695-0.57s-0.338-0.518-0.438-0.834
			c-0.102-0.316-0.15-0.65-0.15-1.002c0-0.496,0.096-0.976,0.287-1.44c0.191-0.464,0.449-0.876,0.769-1.236
			c0.319-0.36,0.688-0.648,1.104-0.864s0.852-0.324,1.308-0.324c0.504,0,0.92,0.138,1.248,0.414c0.327,0.276,0.56,0.61,0.696,1.002
			l0.287-1.308h0.815l-1.104,5.184c-0.017,0.064-0.023,0.116-0.023,0.156c0,0.128,0.076,0.192,0.229,0.192l-0.156,0.72
			c-0.062,0.008-0.123,0.016-0.18,0.024c-0.057,0.008-0.104,0.012-0.145,0.012c-0.186-0.016-0.322-0.066-0.414-0.15
			s-0.138-0.194-0.138-0.33c0-0.064,0.01-0.148,0.028-0.252c0.021-0.104,0.056-0.276,0.104-0.516
			c-0.32,0.408-0.706,0.732-1.158,0.972C153.889,53.411,153.443,53.531,153.003,53.531z M153.339,52.811
			c0.2,0,0.416-0.04,0.647-0.12s0.455-0.19,0.666-0.33c0.213-0.14,0.404-0.304,0.576-0.492s0.299-0.39,0.379-0.606l0.396-1.932
			c-0.024-0.216-0.089-0.418-0.192-0.606c-0.103-0.188-0.231-0.352-0.384-0.492c-0.151-0.14-0.323-0.252-0.516-0.336
			c-0.193-0.084-0.392-0.126-0.601-0.126c-0.359,0-0.701,0.09-1.025,0.27s-0.608,0.414-0.852,0.702
			c-0.244,0.288-0.438,0.612-0.582,0.972c-0.146,0.36-0.218,0.72-0.218,1.08c0,0.28,0.04,0.542,0.12,0.786s0.196,0.456,0.35,0.636
			c0.15,0.18,0.33,0.324,0.539,0.432S153.083,52.811,153.339,52.811z"/>
		<path d="M159.1,47.159h0.719l-0.252,1.212c0.32-0.392,0.701-0.71,1.142-0.954c0.438-0.244,0.888-0.366,1.344-0.366
			c0.345,0,0.654,0.072,0.931,0.216c0.275,0.144,0.51,0.336,0.701,0.576c0.192,0.24,0.338,0.52,0.438,0.84
			c0.101,0.32,0.149,0.652,0.149,0.996c0,0.488-0.092,0.964-0.276,1.428s-0.437,0.876-0.757,1.236
			c-0.319,0.36-0.688,0.648-1.108,0.864s-0.862,0.324-1.325,0.324c-0.505,0-0.918-0.134-1.242-0.402s-0.559-0.606-0.701-1.014
			l-0.816,3.852h-0.816L159.1,47.159z M160.73,52.811c0.359,0,0.703-0.09,1.031-0.27s0.614-0.412,0.858-0.696
			c0.243-0.284,0.438-0.604,0.582-0.96c0.144-0.356,0.215-0.714,0.215-1.074c0-0.28-0.039-0.544-0.119-0.792
			s-0.196-0.464-0.348-0.648c-0.152-0.184-0.332-0.33-0.541-0.438c-0.207-0.108-0.443-0.162-0.707-0.162
			c-0.192,0-0.402,0.042-0.632,0.126c-0.228,0.084-0.448,0.196-0.666,0.336c-0.215,0.14-0.409,0.304-0.582,0.492
			c-0.172,0.188-0.297,0.386-0.377,0.594l-0.407,1.92c0.039,0.224,0.108,0.432,0.209,0.624c0.101,0.192,0.226,0.358,0.373,0.498
			c0.147,0.14,0.315,0.25,0.504,0.33S160.516,52.811,160.73,52.811z"/>
		<path d="M169.826,53.531c-0.465,0-0.9-0.08-1.309-0.24s-0.74-0.392-0.996-0.696l0.479-0.552c0.536,0.576,1.185,0.864,1.944,0.864
			c0.527,0,0.962-0.122,1.302-0.366s0.51-0.57,0.51-0.978c0-0.144-0.03-0.264-0.096-0.36c-0.065-0.096-0.16-0.182-0.288-0.258
			c-0.128-0.076-0.288-0.146-0.479-0.21c-0.192-0.064-0.412-0.128-0.66-0.192c-0.289-0.08-0.539-0.158-0.75-0.234
			c-0.213-0.076-0.389-0.162-0.528-0.258c-0.14-0.096-0.245-0.21-0.317-0.342s-0.107-0.29-0.107-0.474
			c0-0.344,0.072-0.652,0.222-0.924s0.345-0.502,0.588-0.69c0.244-0.188,0.528-0.33,0.853-0.426
			c0.324-0.096,0.662-0.144,1.015-0.144c0.456,0,0.853,0.078,1.188,0.234c0.336,0.156,0.596,0.362,0.778,0.618l-0.504,0.48
			c-0.168-0.24-0.397-0.42-0.688-0.54c-0.293-0.12-0.606-0.18-0.942-0.18c-0.224,0-0.44,0.028-0.647,0.084
			c-0.209,0.056-0.391,0.14-0.547,0.252s-0.279,0.252-0.371,0.42s-0.139,0.368-0.139,0.6c0,0.256,0.102,0.438,0.307,0.546
			c0.203,0.108,0.521,0.218,0.953,0.33c0.648,0.16,1.144,0.342,1.482,0.546c0.34,0.204,0.51,0.514,0.51,0.93
			c0,0.312-0.068,0.6-0.203,0.864c-0.137,0.264-0.326,0.492-0.57,0.684s-0.535,0.342-0.877,0.45
			C170.596,53.477,170.227,53.531,169.826,53.531z"/>
		<path d="M175.898,53.531c-0.354,0-0.664-0.07-0.938-0.21c-0.271-0.14-0.504-0.33-0.695-0.57s-0.339-0.518-0.438-0.834
			c-0.101-0.316-0.15-0.65-0.15-1.002c0-0.496,0.097-0.976,0.288-1.44c0.192-0.464,0.448-0.876,0.77-1.236
			c0.318-0.36,0.688-0.648,1.104-0.864s0.852-0.324,1.309-0.324c0.504,0,0.92,0.138,1.248,0.414c0.328,0.276,0.56,0.61,0.695,1.002
			l0.288-1.308h0.815l-1.104,5.184c-0.016,0.064-0.022,0.116-0.022,0.156c0,0.128,0.076,0.192,0.228,0.192l-0.155,0.72
			c-0.063,0.008-0.125,0.016-0.181,0.024c-0.056,0.008-0.104,0.012-0.144,0.012c-0.186-0.016-0.322-0.066-0.414-0.15
			s-0.139-0.194-0.139-0.33c0-0.064,0.01-0.148,0.029-0.252s0.055-0.276,0.104-0.516c-0.32,0.408-0.707,0.732-1.158,0.972
			C176.783,53.411,176.338,53.531,175.898,53.531z M176.234,52.811c0.199,0,0.416-0.04,0.646-0.12s0.454-0.19,0.666-0.33
			c0.212-0.14,0.403-0.304,0.576-0.492c0.172-0.188,0.298-0.39,0.378-0.606l0.396-1.932c-0.023-0.216-0.088-0.418-0.191-0.606
			s-0.232-0.352-0.385-0.492c-0.151-0.14-0.323-0.252-0.516-0.336c-0.193-0.084-0.393-0.126-0.601-0.126
			c-0.36,0-0.702,0.09-1.026,0.27s-0.607,0.414-0.852,0.702c-0.245,0.288-0.438,0.612-0.582,0.972
			c-0.145,0.36-0.217,0.72-0.217,1.08c0,0.28,0.041,0.542,0.121,0.786s0.194,0.456,0.348,0.636c0.152,0.18,0.332,0.324,0.54,0.432
			C175.746,52.757,175.979,52.811,176.234,52.811z"/>
		<path d="M181.982,47.159h0.756l-0.312,1.416c0.336-0.472,0.73-0.844,1.182-1.116c0.453-0.271,0.914-0.408,1.388-0.408
			c0.479,0,0.838,0.142,1.073,0.426c0.236,0.284,0.354,0.686,0.354,1.206c0.353-0.536,0.759-0.942,1.218-1.218
			c0.461-0.276,0.932-0.414,1.41-0.414c0.504,0,0.862,0.136,1.073,0.408c0.213,0.272,0.317,0.648,0.317,1.128
			c0,0.344-0.047,0.732-0.144,1.164l-0.78,3.66h-0.815l0.731-3.492c0.041-0.184,0.07-0.358,0.09-0.522
			c0.021-0.164,0.031-0.313,0.031-0.45c0-0.768-0.316-1.152-0.949-1.152c-0.224,0-0.444,0.044-0.666,0.132
			c-0.219,0.088-0.43,0.212-0.629,0.372c-0.201,0.16-0.387,0.35-0.559,0.57c-0.172,0.22-0.322,0.462-0.45,0.726l-0.804,3.816h-0.816
			l0.732-3.492c0.039-0.2,0.072-0.382,0.096-0.546s0.036-0.314,0.036-0.45c0-0.752-0.315-1.128-0.948-1.128
			c-0.447,0-0.88,0.164-1.296,0.492s-0.756,0.76-1.021,1.296l-0.805,3.828h-0.814L181.982,47.159z"/>
		<path d="M192.529,47.159h0.721l-0.252,1.212c0.32-0.392,0.699-0.71,1.141-0.954c0.439-0.244,0.887-0.366,1.344-0.366
			c0.345,0,0.654,0.072,0.931,0.216c0.274,0.144,0.51,0.336,0.7,0.576c0.193,0.24,0.339,0.52,0.438,0.84
			c0.101,0.32,0.149,0.652,0.149,0.996c0,0.488-0.092,0.964-0.275,1.428s-0.436,0.876-0.756,1.236
			c-0.32,0.36-0.689,0.648-1.109,0.864s-0.862,0.324-1.326,0.324c-0.504,0-0.918-0.134-1.241-0.402
			c-0.324-0.268-0.56-0.606-0.702-1.014l-0.816,3.852h-0.814L192.529,47.159z M194.162,52.811c0.359,0,0.703-0.09,1.031-0.27
			s0.613-0.412,0.857-0.696c0.244-0.284,0.438-0.604,0.582-0.96c0.145-0.356,0.217-0.714,0.217-1.074
			c0-0.28-0.041-0.544-0.119-0.792c-0.08-0.248-0.197-0.464-0.35-0.648s-0.332-0.33-0.54-0.438s-0.442-0.162-0.708-0.162
			c-0.191,0-0.4,0.042-0.63,0.126s-0.45,0.196-0.666,0.336s-0.409,0.304-0.582,0.492c-0.172,0.188-0.299,0.386-0.378,0.594
			l-0.408,1.92c0.04,0.224,0.11,0.432,0.211,0.624c0.1,0.192,0.225,0.358,0.371,0.498c0.147,0.14,0.315,0.25,0.504,0.33
			C193.744,52.771,193.945,52.811,194.162,52.811z"/>
		<path d="M199.49,53.483c-0.297,0-0.529-0.076-0.697-0.228c-0.168-0.152-0.252-0.368-0.252-0.648c0-0.048,0.004-0.1,0.014-0.156
			c0.008-0.056,0.02-0.116,0.035-0.18l1.607-7.62h0.816l-1.562,7.344c-0.009,0.04-0.015,0.076-0.019,0.108
			c-0.004,0.032-0.006,0.068-0.006,0.108c0,0.353,0.188,0.528,0.564,0.528c0.088,0,0.191-0.012,0.312-0.036
			c0.12-0.024,0.234-0.056,0.348-0.096l-0.024,0.66c-0.16,0.064-0.351,0.116-0.569,0.156S199.648,53.483,199.49,53.483z"/>
		<path d="M204.025,53.531c-0.385,0-0.728-0.068-1.025-0.204c-0.301-0.136-0.553-0.324-0.756-0.564
			c-0.205-0.24-0.361-0.52-0.469-0.84c-0.107-0.32-0.162-0.664-0.162-1.032c0-0.496,0.096-0.974,0.287-1.434
			c0.192-0.46,0.457-0.868,0.793-1.224c0.336-0.355,0.733-0.642,1.193-0.858c0.461-0.216,0.959-0.324,1.493-0.324
			c0.272,0,0.53,0.036,0.774,0.108c0.244,0.072,0.455,0.178,0.636,0.318s0.321,0.316,0.426,0.528s0.156,0.454,0.156,0.726
			c0,0.616-0.271,1.08-0.815,1.392c-0.543,0.312-1.384,0.468-2.521,0.468c-0.224,0-0.466-0.004-0.726-0.012
			c-0.262-0.008-0.543-0.024-0.848-0.048c-0.008,0.063-0.014,0.124-0.018,0.18c-0.004,0.056-0.006,0.112-0.006,0.168
			c0,0.272,0.035,0.53,0.106,0.774c0.072,0.244,0.181,0.46,0.324,0.648c0.146,0.188,0.323,0.336,0.541,0.444
			c0.215,0.108,0.467,0.162,0.756,0.162c0.19,0,0.388-0.028,0.588-0.084c0.199-0.056,0.39-0.134,0.57-0.234
			c0.18-0.1,0.346-0.222,0.498-0.366c0.151-0.144,0.278-0.304,0.383-0.48l0.672,0.204c-0.144,0.232-0.319,0.446-0.526,0.642
			c-0.209,0.196-0.438,0.364-0.689,0.504c-0.251,0.14-0.518,0.248-0.793,0.324C204.596,53.493,204.312,53.531,204.025,53.531z
			 M205.297,47.687c-0.359,0-0.688,0.064-0.982,0.192c-0.297,0.128-0.561,0.296-0.793,0.504c-0.231,0.208-0.428,0.448-0.588,0.72
			s-0.279,0.552-0.359,0.84c0.287,0.016,0.554,0.03,0.798,0.042c0.244,0.012,0.479,0.018,0.702,0.018
			c0.472,0,0.871-0.032,1.199-0.096c0.328-0.064,0.593-0.152,0.793-0.264c0.199-0.112,0.344-0.248,0.433-0.408
			c0.088-0.16,0.131-0.332,0.131-0.516c0-0.36-0.131-0.622-0.396-0.786C205.969,47.769,205.658,47.687,205.297,47.687z"/>
		<path d="M210.732,52.577c0.097-0.284,0.235-0.562,0.42-0.834s0.427-0.534,0.727-0.786c0.301-0.252,0.686-0.482,1.158-0.69
			c0.464-0.2,0.854-0.388,1.17-0.564c0.316-0.176,0.574-0.35,0.773-0.522c0.199-0.172,0.344-0.348,0.433-0.528
			c0.088-0.18,0.132-0.378,0.132-0.594c0-0.232-0.086-0.438-0.258-0.618s-0.475-0.27-0.906-0.27c-0.24,0-0.474,0.041-0.701,0.12
			c-0.229,0.08-0.438,0.174-0.631,0.282c-0.191,0.108-0.359,0.22-0.504,0.336c-0.145,0.116-0.256,0.21-0.336,0.282l-0.359-0.612
			c0.055-0.048,0.164-0.136,0.323-0.264c0.16-0.127,0.358-0.256,0.595-0.384c0.235-0.128,0.506-0.242,0.811-0.342
			c0.304-0.1,0.632-0.15,0.982-0.15c0.306,0,0.574,0.042,0.812,0.126s0.433,0.198,0.588,0.342c0.156,0.144,0.272,0.31,0.354,0.498
			c0.08,0.188,0.121,0.39,0.121,0.605c0,0.344-0.072,0.645-0.218,0.9c-0.145,0.256-0.334,0.482-0.569,0.678
			c-0.235,0.196-0.502,0.37-0.797,0.522c-0.297,0.152-0.594,0.296-0.89,0.432c-0.376,0.168-0.694,0.332-0.96,0.492
			c-0.266,0.16-0.484,0.324-0.666,0.492s-0.324,0.344-0.434,0.528c-0.106,0.184-0.192,0.388-0.258,0.612h3.938l-0.156,0.744h-4.92
			C210.561,53.139,210.637,52.861,210.732,52.577z"/>
	</g>
	<g>
		<path d="M114.1,86.793h3.912c0.239,0,0.449,0.05,0.629,0.15s0.33,0.23,0.45,0.39s0.21,0.344,0.271,0.552s0.091,0.424,0.091,0.648
			c0,0.256-0.04,0.506-0.12,0.75c-0.08,0.244-0.191,0.472-0.336,0.684c-0.145,0.212-0.316,0.402-0.521,0.57
			c-0.203,0.168-0.427,0.304-0.666,0.408c0.359,0.12,0.635,0.336,0.821,0.648c0.187,0.312,0.282,0.672,0.282,1.08
			c0,0.384-0.08,0.736-0.24,1.056s-0.37,0.598-0.63,0.834s-0.56,0.42-0.896,0.552c-0.336,0.132-0.684,0.198-1.043,0.198h-3.815
			L114.1,86.793z M116.259,94.582c0.231,0,0.458-0.054,0.679-0.162c0.22-0.108,0.414-0.252,0.582-0.432
			c0.168-0.18,0.304-0.384,0.408-0.612s0.155-0.466,0.155-0.714c0-0.176-0.024-0.344-0.071-0.504c-0.049-0.16-0.119-0.3-0.211-0.42
			c-0.092-0.12-0.201-0.214-0.33-0.282c-0.128-0.068-0.275-0.102-0.443-0.102h-3.071l-0.685,3.228H116.259z M116.859,90.669
			c0.224,0,0.438-0.054,0.646-0.162c0.208-0.108,0.393-0.25,0.553-0.426c0.159-0.176,0.289-0.378,0.385-0.606
			s0.144-0.466,0.144-0.714c0-0.344-0.088-0.636-0.264-0.876c-0.177-0.24-0.421-0.36-0.732-0.36h-2.819l-0.672,3.144H116.859z"/>
		<path d="M122.331,95.434c-0.368,0-0.698-0.07-0.99-0.21s-0.538-0.328-0.737-0.564c-0.201-0.236-0.354-0.512-0.463-0.828
			c-0.106-0.316-0.162-0.654-0.162-1.014c0-0.504,0.104-0.988,0.308-1.452c0.202-0.464,0.478-0.874,0.821-1.23
			c0.345-0.354,0.74-0.642,1.188-0.858c0.447-0.216,0.92-0.324,1.416-0.324c0.367,0,0.695,0.07,0.983,0.21
			c0.287,0.14,0.533,0.328,0.738,0.564c0.203,0.236,0.359,0.514,0.467,0.834c0.108,0.32,0.162,0.66,0.162,1.02
			c0,0.496-0.102,0.976-0.306,1.44s-0.476,0.874-0.815,1.23s-0.735,0.642-1.188,0.858C123.301,95.326,122.826,95.434,122.331,95.434
			z M122.486,94.713c0.336,0,0.668-0.082,0.996-0.246s0.621-0.384,0.877-0.66s0.463-0.596,0.623-0.96
			c0.16-0.364,0.24-0.75,0.24-1.158c0-0.28-0.041-0.544-0.119-0.792c-0.08-0.248-0.195-0.462-0.344-0.642
			c-0.146-0.18-0.322-0.322-0.527-0.426c-0.203-0.104-0.431-0.156-0.678-0.156c-0.337,0-0.666,0.082-0.99,0.246
			s-0.615,0.386-0.875,0.666c-0.262,0.28-0.472,0.604-0.631,0.972c-0.16,0.368-0.24,0.756-0.24,1.164
			c0,0.28,0.041,0.542,0.121,0.786c0.078,0.244,0.192,0.456,0.342,0.636c0.146,0.18,0.324,0.32,0.527,0.42
			C122.014,94.664,122.238,94.713,122.486,94.713z"/>
		<path d="M129.207,95.434c-0.368,0-0.698-0.07-0.99-0.21s-0.537-0.328-0.738-0.564c-0.199-0.236-0.354-0.512-0.461-0.828
			c-0.108-0.316-0.162-0.654-0.162-1.014c0-0.504,0.103-0.988,0.307-1.452c0.204-0.464,0.479-0.874,0.82-1.23
			c0.345-0.354,0.74-0.642,1.188-0.858c0.448-0.216,0.92-0.324,1.416-0.324c0.368,0,0.696,0.07,0.983,0.21
			c0.289,0.14,0.535,0.328,0.738,0.564s0.359,0.514,0.469,0.834c0.106,0.32,0.162,0.66,0.162,1.02c0,0.496-0.104,0.976-0.308,1.44
			s-0.478,0.874-0.815,1.23c-0.34,0.356-0.736,0.642-1.188,0.858C130.177,95.326,129.703,95.434,129.207,95.434z M129.363,94.713
			c0.336,0,0.668-0.082,0.996-0.246s0.619-0.384,0.875-0.66s0.465-0.596,0.625-0.96c0.16-0.364,0.24-0.75,0.24-1.158
			c0-0.28-0.041-0.544-0.121-0.792s-0.193-0.462-0.342-0.642c-0.148-0.18-0.324-0.322-0.527-0.426
			c-0.205-0.104-0.432-0.156-0.68-0.156c-0.336,0-0.664,0.082-0.988,0.246s-0.617,0.386-0.877,0.666
			c-0.26,0.28-0.471,0.604-0.629,0.972c-0.16,0.368-0.24,0.756-0.24,1.164c0,0.28,0.039,0.542,0.119,0.786
			c0.08,0.244,0.193,0.456,0.342,0.636s0.324,0.32,0.529,0.42C128.889,94.664,129.115,94.713,129.363,94.713z"/>
		<path d="M134.955,95.385c-0.305,0-0.555-0.074-0.75-0.222c-0.196-0.148-0.294-0.374-0.294-0.678c0-0.088,0.012-0.188,0.036-0.3
			l0.947-4.476h-0.828l0.145-0.648h0.816l0.455-2.112h0.815l-0.456,2.112h1.368l-0.146,0.648h-1.354l-0.862,4.068
			c-0.018,0.088-0.031,0.156-0.043,0.204c-0.013,0.048-0.019,0.092-0.019,0.132c0,0.184,0.056,0.316,0.168,0.396
			c0.11,0.08,0.248,0.12,0.407,0.12c0.217,0,0.416-0.038,0.601-0.114c0.185-0.076,0.306-0.13,0.358-0.162l0.072,0.66
			c-0.104,0.072-0.289,0.152-0.558,0.24S135.275,95.385,134.955,95.385z"/>
		<path d="M139.251,95.434c-0.464,0-0.899-0.08-1.308-0.24c-0.408-0.16-0.74-0.392-0.996-0.696l0.479-0.552
			c0.535,0.576,1.185,0.864,1.943,0.864c0.526,0,0.962-0.122,1.302-0.366c0.342-0.244,0.512-0.57,0.512-0.978
			c0-0.144-0.033-0.264-0.098-0.36s-0.16-0.182-0.288-0.258c-0.128-0.076-0.286-0.146-0.479-0.21
			c-0.191-0.064-0.412-0.128-0.659-0.192c-0.288-0.08-0.538-0.158-0.75-0.234s-0.388-0.162-0.528-0.258
			c-0.141-0.096-0.246-0.21-0.318-0.342c-0.07-0.132-0.106-0.29-0.106-0.474c0-0.344,0.074-0.652,0.224-0.924
			c0.146-0.272,0.344-0.502,0.588-0.69c0.242-0.188,0.526-0.33,0.852-0.426c0.324-0.096,0.662-0.144,1.014-0.144
			c0.456,0,0.852,0.078,1.188,0.234c0.336,0.156,0.597,0.362,0.78,0.618l-0.504,0.48c-0.168-0.24-0.397-0.42-0.69-0.54
			c-0.291-0.12-0.604-0.18-0.941-0.18c-0.225,0-0.438,0.028-0.647,0.084c-0.207,0.056-0.391,0.14-0.545,0.252
			c-0.156,0.112-0.281,0.252-0.373,0.42c-0.092,0.168-0.139,0.368-0.139,0.6c0,0.256,0.104,0.438,0.307,0.546
			c0.205,0.108,0.521,0.218,0.955,0.33c0.646,0.16,1.141,0.342,1.48,0.546c0.34,0.204,0.512,0.514,0.512,0.93
			c0,0.312-0.068,0.6-0.205,0.864c-0.137,0.264-0.326,0.492-0.57,0.684c-0.244,0.192-0.535,0.342-0.875,0.45
			S139.65,95.434,139.251,95.434z"/>
		<path d="M144.423,95.385c-0.304,0-0.554-0.074-0.75-0.222s-0.294-0.374-0.294-0.678c0-0.088,0.012-0.188,0.035-0.3l0.949-4.476
			h-0.828l0.145-0.648h0.814l0.457-2.112h0.814l-0.455,2.112h1.367l-0.144,0.648h-1.356l-0.863,4.068
			c-0.017,0.088-0.029,0.156-0.041,0.204c-0.014,0.048-0.02,0.092-0.02,0.132c0,0.184,0.057,0.316,0.168,0.396
			c0.112,0.08,0.247,0.12,0.407,0.12c0.217,0,0.416-0.038,0.601-0.114c0.186-0.076,0.305-0.13,0.36-0.162l0.071,0.66
			c-0.104,0.072-0.291,0.152-0.559,0.24S144.742,95.385,144.423,95.385z"/>
		<path d="M148.083,89.062h0.769l-0.324,1.5c0.312-0.456,0.666-0.818,1.062-1.086s0.799-0.41,1.206-0.426
			c0.063,0,0.117,0.002,0.162,0.006c0.043,0.004,0.086,0.01,0.126,0.018l-0.156,0.708c-0.521,0.016-1.004,0.168-1.451,0.456
			c-0.447,0.288-0.81,0.684-1.08,1.188l-0.816,3.888h-0.814L148.083,89.062z"/>
		<path d="M153.003,95.434c-0.353,0-0.664-0.07-0.937-0.21c-0.271-0.14-0.504-0.33-0.695-0.57c-0.191-0.24-0.338-0.518-0.438-0.834
			c-0.102-0.316-0.15-0.65-0.15-1.002c0-0.496,0.096-0.976,0.287-1.44s0.449-0.876,0.769-1.236s0.688-0.648,1.104-0.864
			c0.416-0.216,0.852-0.324,1.308-0.324c0.504,0,0.92,0.138,1.248,0.414c0.327,0.276,0.56,0.61,0.696,1.002l0.287-1.308h0.815
			l-1.104,5.184c-0.017,0.064-0.023,0.116-0.023,0.156c0,0.128,0.076,0.192,0.229,0.192l-0.156,0.72
			c-0.062,0.008-0.123,0.016-0.18,0.024c-0.057,0.008-0.104,0.012-0.145,0.012c-0.186-0.016-0.322-0.066-0.414-0.15
			s-0.138-0.194-0.138-0.33c0-0.064,0.01-0.148,0.028-0.252c0.021-0.104,0.056-0.276,0.104-0.516
			c-0.32,0.408-0.706,0.732-1.158,0.972C153.889,95.313,153.443,95.434,153.003,95.434z M153.339,94.713
			c0.2,0,0.416-0.04,0.647-0.12c0.231-0.08,0.455-0.19,0.666-0.33c0.213-0.14,0.404-0.304,0.576-0.492s0.299-0.39,0.379-0.606
			l0.396-1.932c-0.024-0.216-0.089-0.418-0.192-0.606c-0.103-0.188-0.231-0.352-0.384-0.492c-0.151-0.14-0.323-0.252-0.516-0.336
			c-0.193-0.084-0.392-0.126-0.601-0.126c-0.359,0-0.701,0.09-1.025,0.27c-0.324,0.18-0.608,0.414-0.852,0.702
			c-0.244,0.288-0.438,0.612-0.582,0.972c-0.146,0.36-0.218,0.72-0.218,1.08c0,0.28,0.04,0.542,0.12,0.786
			c0.08,0.244,0.196,0.456,0.35,0.636c0.15,0.18,0.33,0.324,0.539,0.432C152.852,94.66,153.083,94.713,153.339,94.713z"/>
		<path d="M159.1,89.062h0.719l-0.252,1.212c0.32-0.392,0.701-0.71,1.142-0.954c0.438-0.244,0.888-0.366,1.344-0.366
			c0.345,0,0.654,0.072,0.931,0.216c0.275,0.144,0.51,0.336,0.701,0.576c0.192,0.24,0.338,0.52,0.438,0.84
			c0.101,0.32,0.149,0.652,0.149,0.996c0,0.488-0.092,0.964-0.276,1.428c-0.185,0.464-0.437,0.876-0.757,1.236
			c-0.319,0.36-0.688,0.648-1.108,0.864c-0.42,0.216-0.862,0.324-1.325,0.324c-0.505,0-0.918-0.134-1.242-0.402
			c-0.324-0.268-0.559-0.606-0.701-1.014l-0.816,3.852h-0.816L159.1,89.062z M160.73,94.713c0.359,0,0.703-0.09,1.031-0.27
			c0.328-0.18,0.614-0.412,0.858-0.696c0.243-0.284,0.438-0.604,0.582-0.96s0.215-0.714,0.215-1.074c0-0.28-0.039-0.544-0.119-0.792
			s-0.196-0.464-0.348-0.648c-0.152-0.184-0.332-0.33-0.541-0.438c-0.207-0.108-0.443-0.162-0.707-0.162
			c-0.192,0-0.402,0.042-0.632,0.126c-0.228,0.084-0.448,0.196-0.666,0.336c-0.215,0.14-0.409,0.304-0.582,0.492
			c-0.172,0.188-0.297,0.386-0.377,0.594l-0.407,1.92c0.039,0.224,0.108,0.432,0.209,0.624s0.226,0.358,0.373,0.498
			c0.147,0.14,0.315,0.25,0.504,0.33C160.312,94.673,160.516,94.713,160.73,94.713z"/>
		<path d="M169.826,95.434c-0.465,0-0.9-0.08-1.309-0.24c-0.408-0.16-0.74-0.392-0.996-0.696l0.479-0.552
			c0.536,0.576,1.185,0.864,1.944,0.864c0.527,0,0.962-0.122,1.302-0.366c0.34-0.244,0.51-0.57,0.51-0.978
			c0-0.144-0.03-0.264-0.096-0.36s-0.16-0.182-0.288-0.258c-0.128-0.076-0.288-0.146-0.479-0.21
			c-0.192-0.064-0.412-0.128-0.66-0.192c-0.289-0.08-0.539-0.158-0.75-0.234c-0.213-0.076-0.389-0.162-0.528-0.258
			c-0.14-0.096-0.245-0.21-0.317-0.342c-0.072-0.132-0.107-0.29-0.107-0.474c0-0.344,0.072-0.652,0.222-0.924
			s0.345-0.502,0.588-0.69c0.244-0.188,0.528-0.33,0.853-0.426c0.324-0.096,0.662-0.144,1.015-0.144
			c0.456,0,0.853,0.078,1.188,0.234s0.596,0.362,0.778,0.618l-0.504,0.48c-0.168-0.24-0.397-0.42-0.688-0.54
			c-0.293-0.12-0.606-0.18-0.942-0.18c-0.224,0-0.44,0.028-0.647,0.084c-0.209,0.056-0.391,0.14-0.547,0.252
			c-0.156,0.112-0.279,0.252-0.371,0.42c-0.092,0.168-0.139,0.368-0.139,0.6c0,0.256,0.102,0.438,0.307,0.546
			c0.203,0.108,0.521,0.218,0.953,0.33c0.648,0.16,1.144,0.342,1.482,0.546c0.34,0.204,0.51,0.514,0.51,0.93
			c0,0.312-0.068,0.6-0.203,0.864c-0.137,0.264-0.326,0.492-0.57,0.684c-0.244,0.192-0.535,0.342-0.877,0.45
			C170.596,95.379,170.227,95.434,169.826,95.434z"/>
		<path d="M175.898,95.434c-0.354,0-0.664-0.07-0.938-0.21c-0.271-0.14-0.504-0.33-0.695-0.57c-0.191-0.24-0.339-0.518-0.438-0.834
			c-0.101-0.316-0.15-0.65-0.15-1.002c0-0.496,0.097-0.976,0.288-1.44c0.192-0.464,0.448-0.876,0.77-1.236
			c0.318-0.36,0.688-0.648,1.104-0.864c0.416-0.216,0.852-0.324,1.309-0.324c0.504,0,0.92,0.138,1.248,0.414
			c0.328,0.276,0.56,0.61,0.695,1.002l0.288-1.308h0.815l-1.104,5.184c-0.016,0.064-0.022,0.116-0.022,0.156
			c0,0.128,0.076,0.192,0.228,0.192l-0.155,0.72c-0.063,0.008-0.125,0.016-0.181,0.024c-0.056,0.008-0.104,0.012-0.144,0.012
			c-0.186-0.016-0.322-0.066-0.414-0.15s-0.139-0.194-0.139-0.33c0-0.064,0.01-0.148,0.029-0.252s0.055-0.276,0.104-0.516
			c-0.32,0.408-0.707,0.732-1.158,0.972C176.783,95.313,176.338,95.434,175.898,95.434z M176.234,94.713
			c0.199,0,0.416-0.04,0.646-0.12c0.23-0.08,0.454-0.19,0.666-0.33c0.212-0.14,0.403-0.304,0.576-0.492
			c0.172-0.188,0.298-0.39,0.378-0.606l0.396-1.932c-0.023-0.216-0.088-0.418-0.191-0.606s-0.232-0.352-0.385-0.492
			c-0.151-0.14-0.323-0.252-0.516-0.336c-0.193-0.084-0.393-0.126-0.601-0.126c-0.36,0-0.702,0.09-1.026,0.27
			c-0.324,0.18-0.607,0.414-0.852,0.702c-0.245,0.288-0.438,0.612-0.582,0.972c-0.145,0.36-0.217,0.72-0.217,1.08
			c0,0.28,0.041,0.542,0.121,0.786c0.08,0.244,0.194,0.456,0.348,0.636c0.152,0.18,0.332,0.324,0.54,0.432
			C175.746,94.66,175.979,94.713,176.234,94.713z"/>
		<path d="M181.982,89.062h0.756l-0.312,1.416c0.336-0.472,0.73-0.844,1.182-1.116c0.453-0.271,0.914-0.408,1.388-0.408
			c0.479,0,0.838,0.142,1.073,0.426c0.236,0.284,0.354,0.686,0.354,1.206c0.353-0.536,0.759-0.942,1.218-1.218
			c0.461-0.276,0.932-0.414,1.41-0.414c0.504,0,0.862,0.136,1.073,0.408c0.213,0.272,0.317,0.648,0.317,1.128
			c0,0.344-0.047,0.732-0.144,1.164l-0.78,3.66h-0.815l0.731-3.492c0.041-0.184,0.07-0.358,0.09-0.522
			c0.021-0.164,0.031-0.313,0.031-0.45c0-0.768-0.316-1.152-0.949-1.152c-0.224,0-0.444,0.044-0.666,0.132
			c-0.219,0.088-0.43,0.212-0.629,0.372c-0.201,0.16-0.387,0.35-0.559,0.57s-0.322,0.462-0.45,0.726l-0.804,3.816h-0.816
			l0.732-3.492c0.039-0.2,0.072-0.382,0.096-0.546s0.036-0.314,0.036-0.45c0-0.752-0.315-1.128-0.948-1.128
			c-0.447,0-0.88,0.164-1.296,0.492s-0.756,0.76-1.021,1.296l-0.805,3.828h-0.814L181.982,89.062z"/>
		<path d="M192.529,89.062h0.721l-0.252,1.212c0.32-0.392,0.699-0.71,1.141-0.954c0.439-0.244,0.887-0.366,1.344-0.366
			c0.345,0,0.654,0.072,0.931,0.216c0.274,0.144,0.51,0.336,0.7,0.576c0.193,0.24,0.339,0.52,0.438,0.84
			c0.101,0.32,0.149,0.652,0.149,0.996c0,0.488-0.092,0.964-0.275,1.428c-0.184,0.464-0.436,0.876-0.756,1.236
			c-0.32,0.36-0.689,0.648-1.109,0.864c-0.42,0.216-0.862,0.324-1.326,0.324c-0.504,0-0.918-0.134-1.241-0.402
			c-0.324-0.268-0.56-0.606-0.702-1.014l-0.816,3.852h-0.814L192.529,89.062z M194.162,94.713c0.359,0,0.703-0.09,1.031-0.27
			c0.328-0.18,0.613-0.412,0.857-0.696s0.438-0.604,0.582-0.96c0.145-0.356,0.217-0.714,0.217-1.074c0-0.28-0.041-0.544-0.119-0.792
			c-0.08-0.248-0.197-0.464-0.35-0.648s-0.332-0.33-0.54-0.438s-0.442-0.162-0.708-0.162c-0.191,0-0.4,0.042-0.63,0.126
			s-0.45,0.196-0.666,0.336c-0.216,0.14-0.409,0.304-0.582,0.492c-0.172,0.188-0.299,0.386-0.378,0.594l-0.408,1.92
			c0.04,0.224,0.11,0.432,0.211,0.624c0.1,0.192,0.225,0.358,0.371,0.498c0.147,0.14,0.315,0.25,0.504,0.33
			C193.744,94.673,193.945,94.713,194.162,94.713z"/>
		<path d="M199.49,95.385c-0.297,0-0.529-0.076-0.697-0.228c-0.168-0.152-0.252-0.368-0.252-0.648c0-0.048,0.004-0.1,0.014-0.156
			c0.008-0.056,0.02-0.116,0.035-0.18l1.607-7.62h0.816l-1.562,7.344c-0.009,0.04-0.015,0.076-0.019,0.108
			c-0.004,0.032-0.006,0.068-0.006,0.108c0,0.353,0.188,0.528,0.564,0.528c0.088,0,0.191-0.012,0.312-0.036
			c0.12-0.024,0.234-0.056,0.348-0.096l-0.024,0.66c-0.16,0.064-0.351,0.116-0.569,0.156S199.648,95.385,199.49,95.385z"/>
		<path d="M204.025,95.434c-0.385,0-0.728-0.068-1.025-0.204c-0.301-0.136-0.553-0.324-0.756-0.564
			c-0.205-0.24-0.361-0.52-0.469-0.84c-0.107-0.32-0.162-0.664-0.162-1.032c0-0.496,0.096-0.974,0.287-1.434
			c0.192-0.46,0.457-0.868,0.793-1.224c0.336-0.354,0.733-0.642,1.193-0.858c0.461-0.216,0.959-0.324,1.493-0.324
			c0.272,0,0.53,0.036,0.774,0.108s0.455,0.178,0.636,0.318c0.181,0.14,0.321,0.316,0.426,0.528
			c0.104,0.212,0.156,0.454,0.156,0.726c0,0.616-0.271,1.08-0.815,1.392c-0.543,0.312-1.384,0.468-2.521,0.468
			c-0.224,0-0.466-0.004-0.726-0.012c-0.262-0.008-0.543-0.024-0.848-0.048c-0.008,0.064-0.014,0.124-0.018,0.18
			c-0.004,0.056-0.006,0.112-0.006,0.168c0,0.272,0.035,0.53,0.106,0.774c0.072,0.244,0.181,0.46,0.324,0.648
			c0.146,0.188,0.323,0.336,0.541,0.444c0.215,0.108,0.467,0.162,0.756,0.162c0.19,0,0.388-0.028,0.588-0.084
			c0.199-0.056,0.39-0.134,0.57-0.234c0.18-0.1,0.346-0.222,0.498-0.366c0.151-0.144,0.278-0.304,0.383-0.48l0.672,0.204
			c-0.144,0.232-0.319,0.446-0.526,0.642c-0.209,0.196-0.438,0.364-0.689,0.504c-0.251,0.14-0.518,0.248-0.793,0.324
			C204.596,95.396,204.312,95.434,204.025,95.434z M205.297,89.589c-0.359,0-0.688,0.064-0.982,0.192
			c-0.297,0.128-0.561,0.296-0.793,0.504c-0.231,0.208-0.428,0.448-0.588,0.72s-0.279,0.552-0.359,0.84
			c0.287,0.016,0.554,0.03,0.798,0.042c0.244,0.012,0.479,0.018,0.702,0.018c0.472,0,0.871-0.032,1.199-0.096
			s0.593-0.152,0.793-0.264c0.199-0.112,0.344-0.248,0.433-0.408c0.088-0.16,0.131-0.332,0.131-0.516
			c0-0.36-0.131-0.622-0.396-0.786C205.969,89.671,205.658,89.589,205.297,89.589z"/>
		<path d="M212.509,97.078c-0.575,0-1.056-0.122-1.44-0.366c-0.383-0.244-0.639-0.582-0.768-1.014l0.66-0.516
			c0.088,0.352,0.271,0.632,0.553,0.84c0.279,0.208,0.663,0.312,1.151,0.312c0.672,0,1.21-0.184,1.614-0.552
			c0.402-0.368,0.604-0.872,0.604-1.512c0-0.432-0.138-0.776-0.413-1.032c-0.275-0.256-0.687-0.384-1.229-0.384h-0.288l0.145-0.696
			h0.312c0.336,0,0.638-0.046,0.904-0.138c0.27-0.092,0.494-0.22,0.68-0.384c0.184-0.164,0.324-0.358,0.426-0.582
			c0.102-0.224,0.148-0.468,0.148-0.732c0-0.384-0.123-0.676-0.371-0.876c-0.247-0.2-0.575-0.3-0.983-0.3
			c-0.432,0-0.83,0.102-1.192,0.306c-0.365,0.204-0.676,0.486-0.932,0.846l-0.406-0.504c0.135-0.208,0.305-0.398,0.51-0.57
			c0.203-0.172,0.426-0.318,0.666-0.438s0.496-0.214,0.768-0.282c0.271-0.068,0.548-0.102,0.828-0.102
			c0.615,0,1.102,0.162,1.458,0.486c0.356,0.324,0.534,0.75,0.534,1.278c0,0.28-0.051,0.55-0.15,0.81
			c-0.099,0.26-0.236,0.494-0.408,0.702s-0.378,0.384-0.617,0.528s-0.5,0.236-0.78,0.276c0.399,0.072,0.709,0.26,0.925,0.564
			c0.216,0.304,0.322,0.68,0.322,1.128c0,0.424-0.081,0.814-0.244,1.17c-0.164,0.356-0.393,0.662-0.686,0.918
			c-0.291,0.256-0.634,0.456-1.024,0.6C213.389,97.005,212.965,97.078,212.509,97.078z"/>
	</g>
	<g>
		<path d="M169.23,181.08v-1.536h1.093v1.536H169.23z"/>
		<path d="M171.787,181.08v-1.536h1.092v1.536H171.787z"/>
		<path d="M174.344,181.08v-1.536h1.092v1.536H174.344z"/>
	</g>
	<g>
		<path d="M169.23,109.477v-1.535h1.093v1.535H169.23z"/>
		<path d="M171.787,109.477v-1.535h1.092v1.535H171.787z"/>
		<path d="M174.344,109.477v-1.535h1.092v1.535H174.344z"/>
	</g>
	<g>
		<path d="M169.23,67.368v-1.536h1.093v1.536H169.23z"/>
		<path d="M171.787,67.368v-1.536h1.092v1.536H171.787z"/>
		<path d="M174.344,67.368v-1.536h1.092v1.536H174.344z"/>
	</g>
	<g>
		<path d="M169.23,27.457V25.92h1.093v1.536L169.23,27.457L169.23,27.457z"/>
		<path d="M171.787,27.457V25.92h1.092v1.536L171.787,27.457L171.787,27.457z"/>
		<path d="M174.344,27.457V25.92h1.092v1.536L174.344,27.457L174.344,27.457z"/>
	</g>
	<g>
		<path d="M114.1,157.793h3.912c0.239,0,0.449,0.051,0.629,0.15c0.18,0.099,0.33,0.229,0.45,0.391s0.21,0.344,0.271,0.551
			c0.061,0.209,0.091,0.426,0.091,0.648c0,0.256-0.04,0.506-0.12,0.75s-0.191,0.473-0.336,0.684
			c-0.145,0.213-0.316,0.402-0.521,0.57c-0.203,0.168-0.427,0.305-0.666,0.408c0.359,0.119,0.635,0.336,0.821,0.647
			c0.188,0.312,0.282,0.673,0.282,1.08c0,0.384-0.08,0.736-0.24,1.056c-0.16,0.32-0.37,0.6-0.63,0.834
			c-0.26,0.235-0.56,0.42-0.896,0.553s-0.684,0.197-1.043,0.197h-3.815L114.1,157.793z M116.259,165.582
			c0.231,0,0.458-0.055,0.679-0.162c0.22-0.107,0.414-0.252,0.582-0.434c0.168-0.18,0.304-0.383,0.408-0.611
			s0.155-0.465,0.155-0.713c0-0.176-0.024-0.346-0.071-0.504c-0.049-0.16-0.119-0.301-0.211-0.422
			c-0.092-0.119-0.201-0.213-0.33-0.281c-0.128-0.066-0.275-0.102-0.443-0.102h-3.071l-0.685,3.229H116.259z M116.859,161.67
			c0.224,0,0.438-0.055,0.646-0.162s0.393-0.25,0.553-0.426c0.159-0.176,0.289-0.379,0.385-0.605
			c0.096-0.228,0.144-0.467,0.144-0.715c0-0.344-0.088-0.637-0.264-0.877c-0.177-0.238-0.421-0.359-0.732-0.359h-2.819l-0.672,3.146
			L116.859,161.67L116.859,161.67z"/>
		<path d="M122.331,166.434c-0.368,0-0.698-0.069-0.99-0.209c-0.292-0.141-0.538-0.328-0.737-0.563
			c-0.201-0.236-0.354-0.513-0.463-0.828c-0.106-0.315-0.162-0.653-0.162-1.015c0-0.504,0.104-0.987,0.308-1.452
			c0.202-0.464,0.478-0.873,0.821-1.23c0.345-0.354,0.74-0.641,1.188-0.856c0.447-0.217,0.92-0.324,1.416-0.324
			c0.367,0,0.695,0.07,0.983,0.211c0.287,0.141,0.533,0.328,0.738,0.562c0.203,0.235,0.359,0.516,0.467,0.834
			c0.108,0.319,0.162,0.66,0.162,1.021c0,0.496-0.102,0.977-0.306,1.439s-0.476,0.873-0.815,1.229
			c-0.34,0.354-0.735,0.642-1.188,0.856C123.301,166.326,122.826,166.434,122.331,166.434z M122.486,165.713
			c0.336,0,0.668-0.082,0.996-0.246c0.328-0.162,0.621-0.383,0.877-0.658c0.256-0.276,0.463-0.598,0.623-0.961s0.24-0.75,0.24-1.158
			c0-0.278-0.041-0.543-0.119-0.791c-0.08-0.248-0.195-0.463-0.344-0.643s-0.322-0.322-0.527-0.426
			c-0.203-0.104-0.431-0.156-0.678-0.156c-0.337,0-0.666,0.082-0.99,0.246s-0.615,0.387-0.875,0.666
			c-0.262,0.279-0.472,0.604-0.631,0.973c-0.16,0.367-0.24,0.756-0.24,1.164c0,0.279,0.041,0.541,0.121,0.785
			c0.078,0.244,0.192,0.455,0.342,0.637c0.146,0.18,0.324,0.318,0.527,0.42C122.014,165.664,122.238,165.713,122.486,165.713z"/>
		<path d="M129.207,166.434c-0.368,0-0.698-0.069-0.99-0.209c-0.292-0.141-0.537-0.328-0.738-0.563
			c-0.199-0.236-0.354-0.513-0.461-0.828c-0.108-0.315-0.162-0.653-0.162-1.015c0-0.504,0.103-0.987,0.307-1.452
			c0.204-0.464,0.479-0.873,0.82-1.23c0.345-0.354,0.74-0.641,1.188-0.856c0.448-0.217,0.92-0.324,1.416-0.324
			c0.368,0,0.696,0.07,0.983,0.211c0.289,0.141,0.535,0.328,0.738,0.562c0.203,0.235,0.359,0.516,0.469,0.834
			c0.106,0.319,0.162,0.66,0.162,1.021c0,0.496-0.104,0.977-0.308,1.439s-0.478,0.873-0.815,1.229
			c-0.34,0.354-0.736,0.642-1.188,0.856C130.177,166.326,129.703,166.434,129.207,166.434z M129.363,165.713
			c0.336,0,0.668-0.082,0.996-0.246c0.328-0.162,0.619-0.383,0.875-0.658c0.256-0.276,0.465-0.598,0.625-0.961s0.24-0.75,0.24-1.158
			c0-0.278-0.041-0.543-0.121-0.791s-0.193-0.463-0.342-0.643c-0.15-0.18-0.324-0.322-0.527-0.426
			c-0.205-0.104-0.432-0.156-0.68-0.156c-0.336,0-0.664,0.082-0.988,0.246s-0.617,0.387-0.877,0.666s-0.471,0.604-0.629,0.973
			c-0.16,0.367-0.24,0.756-0.24,1.164c0,0.279,0.039,0.541,0.119,0.785s0.193,0.455,0.342,0.637c0.148,0.18,0.324,0.318,0.529,0.42
			C128.889,165.664,129.115,165.713,129.363,165.713z"/>
		<path d="M134.955,166.385c-0.305,0-0.555-0.072-0.75-0.221c-0.196-0.148-0.294-0.375-0.294-0.68c0-0.088,0.012-0.188,0.036-0.299
			l0.947-4.478h-0.828l0.145-0.647h0.816l0.455-2.111h0.815l-0.456,2.111h1.368l-0.146,0.647h-1.354l-0.862,4.067
			c-0.018,0.088-0.031,0.156-0.043,0.205c-0.013,0.047-0.019,0.093-0.019,0.131c0,0.185,0.056,0.316,0.168,0.396
			c0.11,0.08,0.248,0.119,0.407,0.119c0.217,0,0.416-0.037,0.601-0.113s0.306-0.13,0.358-0.162l0.072,0.66
			c-0.104,0.072-0.289,0.152-0.558,0.24S135.275,166.385,134.955,166.385z"/>
		<path d="M139.251,166.434c-0.464,0-0.899-0.08-1.308-0.24c-0.409-0.159-0.74-0.392-0.996-0.694l0.479-0.554
			c0.535,0.576,1.185,0.865,1.943,0.865c0.526,0,0.962-0.123,1.302-0.367c0.342-0.243,0.512-0.569,0.512-0.979
			c0-0.145-0.033-0.264-0.098-0.359c-0.064-0.094-0.16-0.182-0.288-0.258s-0.286-0.146-0.479-0.209
			c-0.191-0.063-0.412-0.129-0.659-0.193c-0.288-0.079-0.538-0.157-0.75-0.233c-0.212-0.075-0.388-0.162-0.528-0.258
			c-0.14-0.097-0.246-0.209-0.318-0.343c-0.07-0.131-0.106-0.288-0.106-0.473c0-0.346,0.074-0.652,0.224-0.926
			c0.146-0.271,0.344-0.502,0.588-0.689c0.242-0.188,0.526-0.33,0.852-0.426c0.324-0.096,0.662-0.145,1.014-0.145
			c0.456,0,0.852,0.078,1.188,0.234c0.336,0.155,0.597,0.36,0.78,0.617l-0.504,0.479c-0.168-0.24-0.397-0.42-0.69-0.539
			c-0.291-0.121-0.604-0.181-0.941-0.181c-0.225,0-0.438,0.027-0.647,0.084c-0.207,0.056-0.391,0.14-0.545,0.252
			c-0.156,0.111-0.281,0.252-0.373,0.42s-0.139,0.367-0.139,0.601c0,0.256,0.104,0.438,0.307,0.545
			c0.205,0.109,0.521,0.22,0.955,0.33c0.646,0.16,1.141,0.343,1.48,0.547c0.34,0.203,0.512,0.515,0.512,0.931
			c0,0.312-0.068,0.6-0.205,0.863s-0.326,0.491-0.57,0.684c-0.244,0.193-0.535,0.344-0.875,0.451
			C140.025,166.378,139.65,166.434,139.251,166.434z"/>
		<path d="M144.423,166.385c-0.304,0-0.554-0.072-0.75-0.221s-0.294-0.375-0.294-0.68c0-0.088,0.012-0.188,0.035-0.299l0.949-4.478
			h-0.828l0.145-0.647h0.814l0.457-2.111h0.814l-0.455,2.111h1.367l-0.144,0.647h-1.356l-0.863,4.067
			c-0.017,0.088-0.029,0.156-0.041,0.205c-0.014,0.047-0.02,0.093-0.02,0.131c0,0.185,0.057,0.316,0.168,0.396
			c0.112,0.08,0.247,0.119,0.407,0.119c0.217,0,0.416-0.037,0.601-0.113c0.186-0.076,0.305-0.13,0.36-0.162l0.071,0.66
			c-0.104,0.072-0.291,0.152-0.559,0.24S144.742,166.385,144.423,166.385z"/>
		<path d="M148.083,160.062h0.769l-0.324,1.5c0.312-0.457,0.666-0.817,1.062-1.086c0.396-0.27,0.799-0.41,1.206-0.428
			c0.063,0,0.117,0.003,0.162,0.008c0.043,0.004,0.086,0.01,0.126,0.018l-0.156,0.708c-0.521,0.016-1.004,0.168-1.451,0.456
			c-0.447,0.287-0.81,0.685-1.08,1.188l-0.816,3.889h-0.814L148.083,160.062z"/>
		<path d="M153.003,166.434c-0.353,0-0.664-0.069-0.937-0.209c-0.271-0.141-0.504-0.33-0.695-0.57
			c-0.191-0.239-0.338-0.519-0.438-0.834c-0.102-0.315-0.15-0.649-0.15-1.002c0-0.495,0.096-0.977,0.287-1.44
			c0.191-0.463,0.449-0.875,0.769-1.235c0.32-0.359,0.688-0.646,1.104-0.863s0.852-0.324,1.308-0.324
			c0.504,0,0.92,0.139,1.248,0.414c0.327,0.275,0.56,0.609,0.696,1.002l0.287-1.309h0.815l-1.104,5.186
			c-0.017,0.062-0.023,0.115-0.023,0.154c0,0.129,0.076,0.192,0.229,0.192l-0.156,0.72c-0.062,0.009-0.123,0.018-0.18,0.024
			c-0.057,0.009-0.104,0.013-0.145,0.013c-0.186-0.017-0.322-0.066-0.414-0.15s-0.138-0.193-0.138-0.33
			c0-0.062,0.01-0.146,0.028-0.252c0.021-0.104,0.056-0.275,0.104-0.516c-0.32,0.407-0.706,0.731-1.158,0.972
			C153.889,166.312,153.443,166.434,153.003,166.434z M153.339,165.713c0.2,0,0.416-0.039,0.647-0.119s0.455-0.189,0.666-0.33
			c0.213-0.141,0.404-0.305,0.576-0.492c0.172-0.187,0.299-0.391,0.379-0.604l0.396-1.933c-0.024-0.217-0.089-0.418-0.192-0.606
			s-0.231-0.353-0.384-0.492c-0.151-0.139-0.323-0.252-0.516-0.336c-0.193-0.084-0.392-0.125-0.601-0.125
			c-0.359,0-0.701,0.091-1.025,0.271s-0.608,0.414-0.852,0.701c-0.244,0.289-0.438,0.612-0.582,0.973
			c-0.146,0.359-0.218,0.721-0.218,1.08c0,0.279,0.04,0.543,0.12,0.785c0.08,0.244,0.196,0.457,0.35,0.637
			c0.15,0.18,0.33,0.324,0.539,0.432S153.083,165.713,153.339,165.713z"/>
		<path d="M159.1,160.062h0.719l-0.252,1.211c0.32-0.392,0.701-0.709,1.142-0.953c0.438-0.243,0.888-0.366,1.344-0.366
			c0.345,0,0.654,0.071,0.931,0.217c0.275,0.144,0.51,0.336,0.701,0.576c0.192,0.239,0.338,0.521,0.438,0.84
			c0.101,0.32,0.149,0.652,0.149,0.996c0,0.487-0.092,0.963-0.276,1.428c-0.185,0.464-0.437,0.875-0.757,1.236
			c-0.319,0.358-0.688,0.647-1.108,0.862c-0.42,0.218-0.862,0.324-1.325,0.324c-0.505,0-0.918-0.134-1.242-0.401
			c-0.324-0.269-0.559-0.605-0.701-1.015l-0.816,3.853h-0.816L159.1,160.062z M160.73,165.713c0.359,0,0.703-0.09,1.031-0.27
			s0.614-0.412,0.858-0.695c0.243-0.285,0.438-0.604,0.582-0.961c0.144-0.355,0.215-0.714,0.215-1.074
			c0-0.279-0.039-0.543-0.119-0.791s-0.196-0.465-0.348-0.648c-0.152-0.184-0.332-0.33-0.541-0.438
			c-0.207-0.107-0.443-0.162-0.707-0.162c-0.192,0-0.402,0.041-0.632,0.125c-0.228,0.084-0.448,0.197-0.666,0.336
			c-0.215,0.141-0.409,0.305-0.582,0.492c-0.172,0.188-0.297,0.387-0.377,0.596l-0.407,1.92c0.039,0.224,0.108,0.432,0.209,0.623
			s0.226,0.357,0.373,0.498s0.315,0.25,0.504,0.33S160.516,165.713,160.73,165.713z"/>
		<path d="M169.826,166.434c-0.465,0-0.9-0.08-1.309-0.24c-0.408-0.159-0.74-0.392-0.996-0.694l0.479-0.554
			c0.536,0.576,1.185,0.865,1.944,0.865c0.527,0,0.962-0.123,1.302-0.367c0.34-0.243,0.51-0.569,0.51-0.979
			c0-0.145-0.03-0.264-0.096-0.359c-0.065-0.094-0.16-0.182-0.288-0.258s-0.288-0.146-0.479-0.209
			c-0.192-0.063-0.412-0.129-0.66-0.193c-0.289-0.079-0.539-0.157-0.75-0.233c-0.213-0.075-0.389-0.162-0.528-0.258
			c-0.14-0.097-0.245-0.209-0.317-0.343c-0.072-0.131-0.107-0.288-0.107-0.473c0-0.346,0.072-0.652,0.222-0.926
			c0.147-0.271,0.345-0.502,0.588-0.689c0.244-0.187,0.528-0.33,0.853-0.426s0.662-0.145,1.015-0.145
			c0.456,0,0.853,0.078,1.188,0.234c0.334,0.155,0.596,0.36,0.778,0.617l-0.504,0.479c-0.168-0.24-0.397-0.42-0.688-0.539
			c-0.293-0.121-0.606-0.181-0.942-0.181c-0.224,0-0.44,0.027-0.647,0.084c-0.209,0.056-0.391,0.14-0.547,0.252
			c-0.156,0.111-0.279,0.252-0.371,0.42s-0.139,0.367-0.139,0.601c0,0.256,0.102,0.438,0.307,0.545
			c0.203,0.109,0.521,0.22,0.953,0.33c0.648,0.16,1.144,0.343,1.482,0.547c0.34,0.203,0.51,0.515,0.51,0.931
			c0,0.312-0.068,0.6-0.203,0.863c-0.137,0.264-0.326,0.491-0.57,0.684c-0.244,0.193-0.535,0.344-0.877,0.451
			S170.227,166.434,169.826,166.434z"/>
		<path d="M175.898,166.434c-0.354,0-0.664-0.069-0.938-0.209c-0.273-0.141-0.504-0.33-0.695-0.57
			c-0.191-0.239-0.339-0.519-0.438-0.834c-0.101-0.315-0.15-0.649-0.15-1.002c0-0.495,0.097-0.977,0.288-1.44
			c0.192-0.463,0.448-0.875,0.77-1.235c0.318-0.359,0.688-0.646,1.104-0.863s0.852-0.324,1.309-0.324
			c0.504,0,0.92,0.139,1.248,0.414s0.56,0.609,0.695,1.002l0.288-1.309h0.815l-1.104,5.186c-0.016,0.062-0.022,0.115-0.022,0.154
			c0,0.129,0.076,0.192,0.228,0.192l-0.155,0.72c-0.063,0.009-0.125,0.018-0.181,0.024s-0.104,0.013-0.144,0.013
			c-0.186-0.017-0.322-0.066-0.414-0.15s-0.139-0.193-0.139-0.33c0-0.062,0.01-0.146,0.029-0.252
			c0.021-0.104,0.055-0.275,0.104-0.516c-0.32,0.407-0.707,0.731-1.158,0.972C176.783,166.312,176.338,166.434,175.898,166.434z
			 M176.234,165.713c0.199,0,0.416-0.039,0.646-0.119s0.454-0.189,0.666-0.33s0.403-0.305,0.576-0.492
			c0.172-0.188,0.298-0.391,0.378-0.604l0.396-1.933c-0.023-0.217-0.088-0.418-0.191-0.606s-0.232-0.353-0.385-0.492
			c-0.151-0.139-0.323-0.252-0.516-0.336c-0.193-0.084-0.393-0.125-0.601-0.125c-0.36,0-0.702,0.091-1.026,0.271
			s-0.607,0.414-0.852,0.701c-0.245,0.289-0.438,0.612-0.582,0.973c-0.145,0.359-0.217,0.721-0.217,1.08
			c0,0.279,0.041,0.543,0.121,0.785c0.08,0.244,0.194,0.457,0.348,0.637c0.152,0.18,0.332,0.324,0.54,0.432
			C175.746,165.66,175.979,165.713,176.234,165.713z"/>
		<path d="M181.982,160.062h0.756l-0.312,1.416c0.336-0.473,0.73-0.846,1.182-1.117c0.453-0.271,0.914-0.407,1.388-0.407
			c0.479,0,0.838,0.144,1.073,0.426c0.236,0.285,0.354,0.687,0.354,1.207c0.353-0.536,0.759-0.942,1.218-1.219
			c0.461-0.275,0.932-0.414,1.41-0.414c0.504,0,0.862,0.137,1.073,0.407c0.213,0.271,0.317,0.648,0.317,1.129
			c0,0.345-0.047,0.732-0.144,1.164l-0.78,3.66h-0.815l0.731-3.492c0.041-0.184,0.07-0.358,0.09-0.522
			c0.021-0.163,0.031-0.312,0.031-0.448c0-0.769-0.316-1.152-0.949-1.152c-0.224,0-0.444,0.045-0.666,0.133
			c-0.219,0.088-0.43,0.211-0.629,0.371c-0.201,0.16-0.387,0.352-0.559,0.57c-0.172,0.221-0.322,0.461-0.45,0.727l-0.804,3.814
			h-0.816l0.732-3.491c0.039-0.2,0.072-0.382,0.096-0.546c0.024-0.164,0.036-0.314,0.036-0.449c0-0.752-0.315-1.129-0.948-1.129
			c-0.447,0-0.88,0.164-1.296,0.492s-0.756,0.76-1.021,1.295l-0.805,3.828h-0.814L181.982,160.062z"/>
		<path d="M192.529,160.062h0.721l-0.252,1.211c0.32-0.392,0.699-0.709,1.141-0.953c0.439-0.243,0.887-0.366,1.344-0.366
			c0.345,0,0.654,0.071,0.931,0.217c0.274,0.144,0.51,0.336,0.7,0.576c0.193,0.239,0.339,0.521,0.438,0.84
			c0.101,0.32,0.149,0.652,0.149,0.996c0,0.487-0.092,0.963-0.275,1.428c-0.184,0.464-0.436,0.875-0.756,1.236
			c-0.32,0.358-0.689,0.647-1.109,0.862c-0.42,0.218-0.862,0.324-1.326,0.324c-0.504,0-0.918-0.134-1.241-0.401
			c-0.324-0.269-0.56-0.605-0.702-1.015l-0.816,3.853h-0.814L192.529,160.062z M194.162,165.713c0.359,0,0.703-0.09,1.031-0.27
			s0.613-0.412,0.857-0.695c0.244-0.285,0.438-0.604,0.582-0.961c0.145-0.355,0.217-0.714,0.217-1.074
			c0-0.279-0.041-0.543-0.119-0.791c-0.08-0.248-0.197-0.465-0.35-0.648c-0.152-0.183-0.332-0.33-0.54-0.438
			s-0.442-0.162-0.708-0.162c-0.191,0-0.4,0.041-0.63,0.125s-0.45,0.197-0.666,0.336c-0.216,0.141-0.409,0.305-0.582,0.492
			c-0.172,0.188-0.299,0.387-0.378,0.596l-0.408,1.92c0.04,0.224,0.11,0.432,0.211,0.623c0.1,0.191,0.225,0.357,0.371,0.498
			c0.147,0.141,0.315,0.25,0.504,0.33C193.744,165.674,193.945,165.713,194.162,165.713z"/>
		<path d="M199.49,166.385c-0.297,0-0.529-0.074-0.697-0.227s-0.252-0.369-0.252-0.648c0-0.049,0.004-0.1,0.014-0.156
			c0.008-0.057,0.02-0.115,0.035-0.18l1.607-7.619h0.816l-1.562,7.344c-0.009,0.039-0.015,0.076-0.019,0.107
			s-0.006,0.068-0.006,0.107c0,0.353,0.188,0.527,0.564,0.527c0.088,0,0.191-0.013,0.312-0.035c0.12-0.023,0.234-0.057,0.348-0.097
			l-0.024,0.66c-0.16,0.063-0.351,0.115-0.569,0.156C199.84,166.365,199.648,166.385,199.49,166.385z"/>
		<path d="M204.025,166.434c-0.385,0-0.728-0.067-1.025-0.203c-0.301-0.137-0.553-0.324-0.756-0.563
			c-0.205-0.24-0.361-0.521-0.469-0.84c-0.107-0.32-0.162-0.664-0.162-1.033c0-0.496,0.096-0.974,0.287-1.435
			c0.192-0.459,0.457-0.866,0.793-1.225c0.336-0.355,0.733-0.641,1.193-0.857c0.461-0.215,0.959-0.323,1.493-0.323
			c0.272,0,0.53,0.036,0.774,0.108c0.244,0.07,0.455,0.179,0.636,0.316c0.181,0.141,0.321,0.316,0.426,0.529
			c0.104,0.211,0.156,0.453,0.156,0.725c0,0.617-0.271,1.08-0.815,1.393c-0.543,0.313-1.384,0.47-2.521,0.47
			c-0.224,0-0.466-0.004-0.726-0.013c-0.262-0.008-0.543-0.024-0.848-0.049c-0.008,0.064-0.014,0.125-0.018,0.181
			c-0.004,0.057-0.006,0.112-0.006,0.168c0,0.272,0.035,0.53,0.106,0.774c0.072,0.243,0.181,0.459,0.324,0.646
			c0.146,0.188,0.323,0.336,0.541,0.443c0.215,0.108,0.467,0.162,0.756,0.162c0.19,0,0.388-0.027,0.588-0.084
			c0.199-0.056,0.39-0.134,0.57-0.232c0.18-0.102,0.346-0.223,0.498-0.367c0.151-0.145,0.278-0.303,0.383-0.479l0.672,0.203
			c-0.144,0.232-0.319,0.445-0.526,0.644c-0.209,0.194-0.438,0.362-0.689,0.504c-0.252,0.14-0.518,0.248-0.793,0.323
			C204.596,166.396,204.312,166.434,204.025,166.434z M205.297,160.59c-0.359,0-0.688,0.064-0.982,0.191
			c-0.297,0.129-0.561,0.297-0.793,0.504c-0.231,0.209-0.428,0.447-0.588,0.721c-0.16,0.271-0.279,0.553-0.359,0.84
			c0.287,0.016,0.554,0.029,0.798,0.043c0.244,0.012,0.479,0.018,0.702,0.018c0.472,0,0.871-0.032,1.199-0.096
			c0.328-0.064,0.593-0.151,0.793-0.266c0.199-0.111,0.344-0.248,0.433-0.406c0.088-0.16,0.131-0.332,0.131-0.518
			c0-0.359-0.131-0.621-0.396-0.785C205.969,160.672,205.658,160.59,205.297,160.59z"/>
		<path d="M214.152,165.701h-3.779l0.156-0.721l5.123-5.521h0.647l-1.176,5.496h1.008l-0.155,0.744h-1.009l-0.454,2.137h-0.816
			L214.152,165.701z M214.393,164.957l0.9-4.211l-3.889,4.211H214.393z"/>
	</g>
	<g>
		<g>
			<g>
				<path d="M67.91,102.18c0,0,1.996-4.16,4.988-10.402c2.977-6.25,7.014-14.548,11.045-22.85c2.004-4.156,4.006-8.312,5.885-12.21
					c0.961-1.937,1.847-3.832,2.769-5.587c0.91-1.762,1.749-3.438,2.574-4.959c1.621-3.059,3.001-5.592,3.996-7.351
					c0.993-1.76,1.562-2.765,1.562-2.765l0.988,0.498c0,0-0.471,1.054-1.295,2.899c-0.822,1.846-2.037,4.462-3.53,7.585
					c-0.733,1.568-1.58,3.239-2.454,5.019c-0.863,1.785-1.859,3.624-2.844,5.55c-2.016,3.828-4.166,7.91-6.314,11.994
					c-4.274,8.179-8.543,16.36-11.795,22.471c-3.237,6.119-5.395,10.197-5.395,10.197L67.91,102.18z"/>
				<g>
					<polygon points="104.4,30 103.553,40.715 100.984,36.776 96.293,37.056 					"/>
				</g>
			</g>
		</g>
		<g>
			<g>
				<path d="M68.006,106.512c0,0,1.838,0.016,4.596,0.037c2.758,0.01,6.434,0.061,10.108,0.143c1.837,0.031,3.675,0.062,5.397,0.093
					c1.725,0.012,3.332,0.022,4.709,0.075c1.377,0.064,2.521,0.164,3.321,0.25c0.8,0.082,1.258,0.129,1.258,0.129l-0.093,1.794
					c0,0-0.46-0.001-1.265-0.003c-0.806,0.003-1.954-0.018-3.329-0.094c-1.375-0.092-2.976-0.246-4.691-0.412
					c-1.717-0.149-3.547-0.309-5.379-0.467c-3.662-0.3-7.324-0.629-10.068-0.904c-2.745-0.264-4.576-0.438-4.576-0.438
					L68.006,106.512z"/>
				<g>
					<polygon points="104.4,108.5 94.254,112.045 96.822,108.107 94.674,103.926 					"/>
				</g>
			</g>
		</g>
		<g>
			<g>
				<polygon points="68.064,108.729 69.251,109.648 69.059,109.88 67.936,108.883 				"/>
				<polygon points="70.844,110.881 73.232,112.729 72.822,113.223 70.564,111.217 				"/>
				<polygon points="74.824,113.961 77.213,115.811 76.586,116.566 74.328,114.561 				"/>
				<polygon points="78.796,117.055 81.168,118.922 80.375,119.879 78.102,117.893 				"/>
				<polygon points="82.75,120.168 85.123,122.037 84.166,123.189 81.893,121.203 				"/>
				<polygon points="86.704,123.282 89.084,125.143 87.95,126.509 85.684,124.514 				"/>
				<path d="M90.678,126.372c0,0,0.596,0.466,1.189,0.931c0.59,0.471,1.18,0.941,1.18,0.941l-1.314,1.586
					c0,0-0.572-0.492-1.145-0.985c-0.566-0.499-1.134-0.997-1.134-0.997L90.678,126.372z"/>
				<path d="M94.6,129.525c0,0,0.572,0.492,1.143,0.985c0.564,0.503,1.128,1.007,1.128,1.007l-1.216,1.465
					c0,0-0.598-0.461-1.195-0.922c-0.592-0.472-1.182-0.941-1.182-0.941L94.6,129.525z"/>
				<polygon points="98.363,132.869 99.465,133.891 98.467,135.094 97.259,134.201 				"/>
				<g>
					<polygon points="104.4,139 94.146,135.777 98.56,134.154 99.338,129.52 					"/>
				</g>
			</g>
		</g>
		<g>
			<g>
				<path d="M68.088,110.952c0,0,2.145,3.762,5.361,9.403c3.23,5.634,7.475,13.182,11.721,20.727
					c2.137,3.766,4.272,7.532,6.275,11.062c0.984,1.772,1.965,3.474,2.834,5.117c0.866,1.646,1.716,3.187,2.445,4.637
					c1.488,2.888,2.697,5.31,3.523,7.016c0.82,1.71,1.288,2.688,1.288,2.688l-1.007,0.547c0,0-0.564-0.926-1.551-2.545
					c-0.98-1.623-2.352-3.957-3.961-6.776c-0.818-1.402-1.646-2.954-2.555-4.578c-0.904-1.625-1.796-3.373-2.746-5.166
					c-1.869-3.604-3.861-7.446-5.855-11.29c-4.011-7.673-8.025-15.345-10.987-21.124c-2.978-5.772-4.962-9.62-4.962-9.62
					L68.088,110.952z"/>
				<g>
					<polygon points="104.4,178.08 96.082,171.273 100.781,171.41 103.227,167.396 					"/>
				</g>
			</g>
		</g>
		<g>
			<g>
				<path d="M67.933,104.345c0,0,1.892-1.854,4.729-4.634c1.421-1.388,3.078-3.008,4.854-4.742c1.788-1.723,3.694-3.561,5.601-5.398
					c1.901-1.843,3.804-3.686,5.586-5.414c1.765-1.746,3.442-3.344,4.927-4.662c2.982-2.624,5.053-4.282,5.053-4.282l1.034,1.126
					c0,0-1.829,1.922-4.697,4.67c-1.44,1.366-3.175,2.901-5.065,4.512c-1.874,1.629-3.872,3.365-5.871,5.104
					c-1.993,1.742-3.986,3.485-5.855,5.119c-1.88,1.621-3.635,3.135-5.139,4.432c-3.012,2.592-5.021,4.318-5.021,4.318
					L67.933,104.345z"/>
				<g>
					<polygon points="104.4,71 99.82,80.723 98.811,76.132 94.322,74.734 					"/>
				</g>
			</g>
		</g>
	</g>
	<g>
		<g>
			<line fill="none" stroke="#000000" stroke-miterlimit="10" x1="157.842" y1="127.052" x2="157.842" y2="128.552"/>
			
				<line fill="none" stroke="#000000" stroke-miterlimit="10" stroke-dasharray="3.2556,2.1704" x1="157.842" y1="130.723" x2="157.842" y2="145.915"/>
			<line fill="none" stroke="#000000" stroke-miterlimit="10" x1="157.842" y1="147" x2="157.842" y2="148.5"/>
		</g>
	</g>
</g>
<g id="squares">
	<rect x="108.892" y="16.832" fill="none" stroke="#FBC15E" stroke-miterlimit="10" width="18.311" height="18.477"/>
	<rect x="146.686" y="57.633" fill="none" stroke="#FBC15E" stroke-miterlimit="10" width="18.311" height="18.477"/>
	<rect x="108.892" y="169.706" fill="none" stroke="#FBC15E" stroke-miterlimit="10" width="18.311" height="18.478"/>
	<rect x="127.832" y="169.706" fill="none" stroke="#FBC15E" stroke-miterlimit="10" width="18.311" height="18.478"/>
	<rect x="146.686" y="169.706" fill="none" stroke="#FBC15E" stroke-miterlimit="10" width="18.311" height="18.478"/>
	<rect x="180.369" y="169.706" fill="none" stroke="#9FC857" stroke-miterlimit="10" width="18.311" height="18.478"/>
	<rect x="199.328" y="169.706" fill="none" stroke="#9FC857" stroke-miterlimit="10" width="18.311" height="18.478"/>
	<rect x="180.369" y="57.633" fill="none" stroke="#FBC15E" stroke-miterlimit="10" width="18.311" height="18.477"/>
	<rect x="146.686" y="16.832" fill="none" stroke="#FBC15E" stroke-miterlimit="10" width="18.311" height="18.477"/>
</g>
</svg>
