<?xml version="1.0" encoding="utf-8"?>
<!-- Generator: Adobe Illustrator 16.0.4, SVG Export Plug-In . SVG Version: 6.00 Build 0)  -->
<!DOCTYPE svg PUBLIC "-//W3C//DTD SVG 1.1//EN" "http://www.w3.org/Graphics/SVG/1.1/DTD/svg11.dtd">
<svg version="1.1" id="Layer_1" xmlns="http://www.w3.org/2000/svg" xmlns:xlink="http://www.w3.org/1999/xlink" x="0px" y="0px"
	 width="317.5px" height="244.5px" viewBox="0 0 317.5 244.5" enable-background="new 0 0 317.5 244.5" xml:space="preserve">
<circle fill="#00BFFF" stroke="#000000" cx="170.257" cy="38.219" r="5.069"/>
<line fill="none" stroke="#000000" stroke-width="1.5" stroke-linecap="round" x1="41.295" y1="26.378" x2="46.294" y2="26.378"/>
<line fill="none" stroke="#000000" stroke-width="1.5" stroke-linecap="round" x1="41.295" y1="51.429" x2="46.294" y2="51.429"/>
<line fill="none" stroke="#000000" stroke-width="1.5" stroke-linecap="round" x1="41.295" y1="76.481" x2="46.294" y2="76.481"/>
<line fill="none" stroke="#000000" stroke-width="1.5" stroke-linecap="round" x1="41.295" y1="101.532" x2="46.294" y2="101.532"/>
<line fill="none" stroke="#000000" stroke-width="1.5" stroke-linecap="round" x1="41.295" y1="126.584" x2="46.294" y2="126.584"/>
<line fill="none" stroke="#000000" stroke-width="1.5" stroke-linecap="round" x1="41.295" y1="151.635" x2="46.294" y2="151.635"/>
<line fill="none" stroke="#000000" stroke-width="1.5" stroke-linecap="round" x1="41.295" y1="176.686" x2="46.294" y2="176.686"/>
<line fill="none" stroke="#000000" stroke-width="1.5" stroke-linecap="round" x1="41.295" y1="201.738" x2="46.294" y2="201.738"/>
<line fill="none" stroke="#000000" stroke-width="1.5" stroke-linecap="round" x1="56.834" y1="208.809" x2="56.834" y2="203.809"/>
<line fill="none" stroke="#000000" stroke-linecap="round" x1="67.145" y1="206.777" x2="67.145" y2="203.34"/>
<line fill="none" stroke="#000000" stroke-width="1.5" stroke-linecap="round" x1="77.456" y1="208.809" x2="77.456" y2="203.809"/>
<line fill="none" stroke="#000000" stroke-linecap="round" x1="87.767" y1="206.777" x2="87.767" y2="203.34"/>
<line fill="none" stroke="#000000" stroke-width="1.5" stroke-linecap="round" x1="98.078" y1="208.809" x2="98.078" y2="203.809"/>
<line fill="none" stroke="#000000" stroke-linecap="round" x1="108.389" y1="206.777" x2="108.389" y2="203.34"/>
<line fill="none" stroke="#000000" stroke-width="1.5" stroke-linecap="round" x1="118.7" y1="208.809" x2="118.7" y2="203.809"/>
<line fill="none" stroke="#000000" stroke-linecap="round" x1="129.011" y1="206.777" x2="129.011" y2="203.34"/>
<line fill="none" stroke="#000000" stroke-width="1.5" stroke-linecap="round" x1="139.323" y1="208.809" x2="139.323" y2="203.809"/>
<line fill="none" stroke="#000000" stroke-linecap="round" x1="149.634" y1="206.777" x2="149.634" y2="203.34"/>
<line fill="none" stroke="#000000" stroke-width="1.5" stroke-linecap="round" x1="159.945" y1="208.809" x2="159.945" y2="203.809"/>
<line fill="none" stroke="#000000" stroke-linecap="round" x1="170.257" y1="206.777" x2="170.257" y2="203.34"/>
<line fill="none" stroke="#000000" stroke-width="1.5" stroke-linecap="round" x1="180.568" y1="208.809" x2="180.568" y2="203.809"/>
<line fill="none" stroke="#000000" stroke-linecap="round" x1="190.879" y1="206.777" x2="190.879" y2="203.34"/>
<line fill="none" stroke="#000000" stroke-width="1.5" stroke-linecap="round" x1="201.191" y1="208.809" x2="201.191" y2="203.809"/>
<line fill="none" stroke="#000000" stroke-linecap="round" x1="211.502" y1="206.777" x2="211.502" y2="203.34"/>
<line fill="none" stroke="#000000" stroke-width="1.5" stroke-linecap="round" x1="221.814" y1="208.809" x2="221.814" y2="203.809"/>
<line fill="none" stroke="#000000" stroke-linecap="round" x1="232.125" y1="206.777" x2="232.125" y2="203.34"/>
<line fill="none" stroke="#000000" stroke-width="1.5" stroke-linecap="round" x1="242.438" y1="208.809" x2="242.438" y2="203.809"/>
<line fill="none" stroke="#000000" stroke-linecap="round" x1="252.748" y1="206.777" x2="252.748" y2="203.34"/>
<line fill="none" stroke="#000000" stroke-width="1.5" stroke-linecap="round" x1="263.059" y1="208.809" x2="263.059" y2="203.809"/>
<line fill="none" stroke="#000000" stroke-linecap="round" x1="273.37" y1="206.777" x2="273.37" y2="203.34"/>
<line fill="none" stroke="#000000" stroke-width="1.5" stroke-linecap="round" x1="283.682" y1="208.809" x2="283.682" y2="203.809"/>
<line fill="none" stroke="#000000" stroke-linecap="round" x1="293.993" y1="206.777" x2="293.993" y2="203.34"/>
<g>
	<path d="M59.181,216.818c0,0.482-0.07,0.929-0.209,1.336c-0.139,0.406-0.332,0.759-0.578,1.057
		c-0.246,0.297-0.537,0.527-0.875,0.691c-0.338,0.166-0.704,0.248-1.1,0.248s-0.763-0.082-1.1-0.248
		c-0.337-0.164-0.629-0.396-0.875-0.691c-0.246-0.298-0.438-0.648-0.578-1.057c-0.14-0.408-0.209-0.854-0.209-1.336
		c0-0.484,0.07-0.93,0.209-1.338c0.139-0.406,0.332-0.758,0.578-1.056c0.246-0.297,0.537-0.53,0.875-0.698
		c0.337-0.168,0.704-0.254,1.1-0.254s0.762,0.086,1.1,0.254c0.337,0.168,0.629,0.401,0.875,0.698
		c0.246,0.298,0.438,0.648,0.578,1.056C59.112,215.889,59.181,216.334,59.181,216.818z M58.422,216.818
		c0-0.396-0.05-0.756-0.148-1.078c-0.099-0.323-0.237-0.6-0.413-0.831c-0.176-0.229-0.387-0.41-0.633-0.539
		c-0.246-0.128-0.515-0.192-0.808-0.192c-0.301,0-0.574,0.064-0.82,0.192c-0.246,0.129-0.457,0.31-0.632,0.539
		c-0.176,0.231-0.313,0.508-0.413,0.831c-0.099,0.322-0.148,0.682-0.148,1.078c0,0.396,0.049,0.755,0.148,1.078
		c0.099,0.321,0.236,0.599,0.413,0.83c0.176,0.229,0.387,0.408,0.632,0.532c0.246,0.125,0.519,0.188,0.82,0.188
		c0.293,0,0.562-0.062,0.808-0.188c0.246-0.124,0.457-0.303,0.633-0.532c0.176-0.231,0.313-0.509,0.413-0.83
		C58.373,217.573,58.422,217.214,58.422,216.818z"/>
	<path d="M74.294,220.041c0-0.249,0.022-0.501,0.066-0.754s0.13-0.504,0.259-0.753c0.128-0.249,0.312-0.489,0.55-0.722
		c0.238-0.231,0.556-0.448,0.952-0.653c0.212-0.11,0.435-0.22,0.666-0.324c0.231-0.106,0.443-0.226,0.638-0.358
		c0.194-0.132,0.354-0.279,0.479-0.444s0.187-0.357,0.187-0.577c0-0.141-0.031-0.275-0.093-0.412
		c-0.062-0.136-0.154-0.257-0.275-0.363c-0.121-0.105-0.271-0.191-0.451-0.259c-0.18-0.065-0.391-0.099-0.632-0.099
		c-0.242,0-0.458,0.033-0.649,0.104c-0.191,0.069-0.358,0.152-0.5,0.247c-0.143,0.097-0.266,0.196-0.369,0.304
		c-0.103,0.105-0.18,0.191-0.231,0.258l-0.495-0.539c0.044-0.043,0.128-0.125,0.253-0.241c0.125-0.117,0.288-0.234,0.49-0.353
		c0.202-0.117,0.438-0.223,0.709-0.313s0.576-0.138,0.913-0.138c0.337,0,0.638,0.047,0.902,0.138
		c0.264,0.092,0.487,0.219,0.671,0.38c0.183,0.161,0.323,0.348,0.418,0.557c0.095,0.209,0.143,0.426,0.143,0.653
		c0,0.301-0.066,0.562-0.198,0.781c-0.132,0.22-0.295,0.409-0.489,0.571s-0.401,0.299-0.622,0.412
		c-0.22,0.113-0.418,0.211-0.594,0.291c-0.235,0.104-0.464,0.219-0.688,0.348c-0.224,0.129-0.424,0.27-0.6,0.424
		c-0.176,0.154-0.321,0.326-0.435,0.518c-0.114,0.19-0.17,0.402-0.17,0.639h3.916v0.682h-4.721V220.041z"/>
	<path d="M97.482,221.438v-1.957h-3.663v-0.66l3.905-5.062h0.506v5.038h0.968v0.684H98.23v1.957H97.482z M94.611,218.798h2.948
		v-3.86L94.611,218.798z"/>
	<path d="M122.55,217.467c0,0.374-0.072,0.725-0.215,1.051c-0.144,0.326-0.339,0.61-0.589,0.854
		c-0.249,0.242-0.543,0.434-0.88,0.572c-0.337,0.139-0.7,0.209-1.089,0.209c-0.411,0-0.788-0.075-1.133-0.227
		c-0.345-0.15-0.64-0.365-0.886-0.644c-0.246-0.279-0.438-0.622-0.577-1.028c-0.14-0.406-0.209-0.863-0.209-1.37
		c0-0.792,0.069-1.481,0.209-2.073c0.139-0.59,0.335-1.082,0.588-1.474c0.253-0.394,0.556-0.685,0.908-0.875
		c0.352-0.19,0.744-0.286,1.177-0.286c0.521,0,0.986,0.129,1.396,0.385c0.411,0.258,0.723,0.613,0.936,1.067l-0.484,0.44
		c-0.153-0.375-0.396-0.674-0.726-0.896s-0.704-0.336-1.122-0.336c-0.323,0-0.616,0.077-0.88,0.23
		c-0.265,0.154-0.489,0.377-0.677,0.666c-0.187,0.289-0.334,0.646-0.44,1.072c-0.105,0.426-0.159,0.905-0.159,1.44
		c0.161-0.433,0.438-0.777,0.831-1.034c0.392-0.257,0.837-0.385,1.336-0.385c0.374,0,0.725,0.066,1.051,0.203
		c0.326,0.136,0.61,0.322,0.853,0.562s0.433,0.519,0.572,0.841C122.48,216.756,122.55,217.102,122.55,217.467z M119.8,219.491
		c0.278,0,0.54-0.054,0.786-0.16c0.245-0.104,0.462-0.251,0.649-0.435s0.333-0.397,0.439-0.644s0.159-0.508,0.159-0.787
		c0-0.278-0.055-0.54-0.165-0.786c-0.109-0.246-0.258-0.46-0.445-0.644c-0.187-0.185-0.403-0.328-0.648-0.435
		c-0.246-0.106-0.508-0.16-0.787-0.16c-0.278,0-0.541,0.054-0.786,0.16c-0.246,0.105-0.462,0.25-0.649,0.435
		s-0.333,0.397-0.439,0.644c-0.106,0.247-0.16,0.508-0.16,0.786c0,0.279,0.056,0.539,0.165,0.781
		c0.11,0.242,0.259,0.456,0.446,0.644c0.187,0.188,0.403,0.334,0.648,0.439C119.259,219.438,119.521,219.491,119.8,219.491z"/>
	<path d="M143.032,217.874c0,0.345-0.073,0.653-0.22,0.931c-0.146,0.273-0.345,0.512-0.594,0.709
		c-0.25,0.197-0.541,0.35-0.875,0.456c-0.333,0.106-0.684,0.159-1.05,0.159c-0.389,0-0.748-0.061-1.078-0.182
		s-0.614-0.286-0.853-0.495c-0.239-0.209-0.424-0.452-0.556-0.731c-0.132-0.277-0.198-0.574-0.198-0.891
		c0-0.249,0.046-0.48,0.138-0.693c0.092-0.212,0.211-0.4,0.357-0.566c0.146-0.164,0.313-0.307,0.501-0.428
		c0.187-0.121,0.375-0.216,0.566-0.281c-0.177-0.072-0.341-0.162-0.495-0.27c-0.154-0.107-0.29-0.229-0.407-0.369
		c-0.117-0.139-0.211-0.293-0.28-0.462c-0.07-0.168-0.104-0.348-0.104-0.538c0-0.322,0.073-0.606,0.22-0.854
		c0.146-0.245,0.336-0.452,0.566-0.621c0.231-0.169,0.491-0.297,0.781-0.385c0.289-0.088,0.581-0.133,0.874-0.133
		c0.294,0,0.585,0.045,0.875,0.133c0.289,0.088,0.55,0.214,0.781,0.379c0.23,0.165,0.419,0.373,0.566,0.621
		c0.146,0.25,0.22,0.531,0.22,0.848c0,0.189-0.035,0.37-0.104,0.539c-0.069,0.169-0.165,0.324-0.286,0.468s-0.26,0.269-0.418,0.374
		c-0.157,0.105-0.324,0.196-0.5,0.27c0.212,0.074,0.414,0.175,0.604,0.303c0.19,0.129,0.357,0.277,0.501,0.445
		c0.143,0.168,0.256,0.359,0.341,0.572C142.99,217.395,143.032,217.625,143.032,217.874z M142.273,217.818
		c0-0.264-0.059-0.496-0.176-0.698c-0.117-0.201-0.271-0.372-0.462-0.511c-0.191-0.141-0.403-0.246-0.638-0.319
		s-0.466-0.11-0.693-0.11c-0.242,0-0.477,0.039-0.704,0.116c-0.228,0.076-0.433,0.187-0.616,0.33
		c-0.184,0.144-0.33,0.315-0.439,0.522c-0.11,0.205-0.165,0.433-0.165,0.682c0,0.257,0.059,0.484,0.176,0.688
		c0.117,0.203,0.27,0.373,0.456,0.512c0.188,0.14,0.396,0.246,0.627,0.318c0.231,0.074,0.464,0.11,0.699,0.11
		c0.234,0,0.467-0.038,0.698-0.115c0.23-0.077,0.438-0.188,0.621-0.329c0.184-0.145,0.332-0.315,0.446-0.519
		C142.216,218.294,142.273,218.068,142.273,217.818z M138.632,214.255c0,0.213,0.051,0.401,0.153,0.565
		c0.104,0.166,0.235,0.306,0.396,0.419c0.161,0.114,0.343,0.2,0.545,0.259c0.201,0.059,0.397,0.088,0.588,0.088
		c0.198,0,0.396-0.029,0.594-0.088c0.198-0.059,0.38-0.146,0.545-0.264c0.165-0.118,0.299-0.262,0.401-0.43
		c0.103-0.169,0.154-0.359,0.154-0.572c0-0.205-0.048-0.391-0.144-0.556c-0.095-0.165-0.222-0.305-0.379-0.418
		c-0.158-0.114-0.34-0.2-0.545-0.259s-0.418-0.088-0.638-0.088c-0.213,0-0.42,0.031-0.622,0.094
		c-0.201,0.062-0.379,0.15-0.533,0.264c-0.154,0.114-0.278,0.256-0.374,0.424C138.68,213.863,138.632,214.05,138.632,214.255z"/>
	<path d="M159.268,219.359v0.682h-3.729v-0.682h1.562v-4.709c-0.059,0.089-0.159,0.184-0.303,0.287
		c-0.143,0.103-0.301,0.196-0.473,0.285c-0.172,0.088-0.351,0.161-0.533,0.221c-0.184,0.059-0.345,0.088-0.484,0.088v-0.727
		c0.169,0,0.354-0.048,0.556-0.144c0.201-0.097,0.393-0.205,0.572-0.33c0.179-0.125,0.331-0.242,0.456-0.353
		c0.125-0.109,0.194-0.184,0.209-0.221h0.771v5.6h1.396V219.359z"/>
	<path d="M165.637,216.818c0,0.482-0.07,0.929-0.21,1.336c-0.14,0.406-0.331,0.759-0.577,1.057
		c-0.246,0.297-0.537,0.527-0.875,0.691c-0.336,0.166-0.703,0.248-1.1,0.248s-0.764-0.082-1.102-0.248
		c-0.336-0.164-0.629-0.396-0.873-0.691c-0.246-0.298-0.438-0.648-0.577-1.057c-0.14-0.407-0.209-0.854-0.209-1.336
		c0-0.484,0.069-0.93,0.209-1.338c0.139-0.406,0.331-0.758,0.577-1.056c0.244-0.297,0.537-0.53,0.873-0.698
		c0.338-0.168,0.705-0.254,1.102-0.254s0.764,0.086,1.1,0.254c0.338,0.168,0.629,0.401,0.875,0.698
		c0.246,0.298,0.438,0.648,0.577,1.056C165.566,215.889,165.637,216.334,165.637,216.818z M164.877,216.818
		c0-0.396-0.05-0.756-0.148-1.078c-0.1-0.323-0.235-0.6-0.412-0.831c-0.176-0.229-0.387-0.41-0.633-0.539
		c-0.246-0.128-0.516-0.192-0.809-0.192c-0.301,0-0.574,0.064-0.818,0.192c-0.246,0.129-0.457,0.31-0.634,0.539
		c-0.176,0.231-0.313,0.508-0.411,0.831c-0.101,0.322-0.15,0.682-0.15,1.078c0,0.396,0.051,0.755,0.15,1.078
		c0.098,0.321,0.235,0.599,0.411,0.83c0.177,0.229,0.388,0.408,0.634,0.532c0.244,0.125,0.519,0.188,0.818,0.188
		c0.293,0,0.562-0.062,0.809-0.188c0.246-0.124,0.457-0.303,0.633-0.532c0.177-0.231,0.312-0.509,0.412-0.83
		C164.828,217.573,164.877,217.214,164.877,216.818z"/>
	<path d="M181.926,219.359v0.682h-3.729v-0.682h1.562v-4.709c-0.059,0.089-0.159,0.184-0.303,0.287
		c-0.144,0.103-0.302,0.196-0.474,0.285c-0.172,0.088-0.351,0.161-0.532,0.221c-0.185,0.059-0.345,0.088-0.484,0.088v-0.727
		c0.169,0,0.354-0.048,0.556-0.144c0.201-0.097,0.394-0.205,0.572-0.33c0.18-0.125,0.331-0.242,0.456-0.353
		c0.125-0.109,0.194-0.184,0.209-0.221h0.771v5.6h1.396V219.359z"/>
	<path d="M182.652,220.041c0-0.249,0.021-0.501,0.065-0.754s0.13-0.504,0.259-0.753s0.312-0.489,0.551-0.722
		c0.238-0.231,0.556-0.448,0.951-0.653c0.213-0.11,0.435-0.22,0.666-0.324c0.229-0.106,0.442-0.226,0.638-0.358
		c0.194-0.132,0.354-0.279,0.479-0.444s0.188-0.357,0.188-0.577c0-0.141-0.031-0.275-0.094-0.412
		c-0.063-0.136-0.154-0.257-0.275-0.363c-0.121-0.105-0.271-0.191-0.45-0.259c-0.181-0.065-0.391-0.099-0.633-0.099
		s-0.459,0.033-0.649,0.104c-0.189,0.069-0.356,0.152-0.5,0.247c-0.144,0.097-0.267,0.196-0.369,0.304
		c-0.102,0.106-0.18,0.191-0.229,0.258l-0.495-0.539c0.044-0.043,0.128-0.125,0.253-0.241c0.125-0.117,0.288-0.234,0.489-0.353
		c0.202-0.117,0.438-0.223,0.71-0.313c0.271-0.091,0.575-0.138,0.913-0.138c0.337,0,0.638,0.047,0.9,0.138
		c0.266,0.092,0.488,0.219,0.672,0.38s0.322,0.348,0.418,0.557s0.144,0.426,0.144,0.653c0,0.301-0.065,0.562-0.198,0.781
		c-0.132,0.219-0.295,0.409-0.488,0.571c-0.194,0.162-0.401,0.299-0.621,0.412c-0.221,0.113-0.418,0.211-0.596,0.291
		c-0.233,0.104-0.463,0.219-0.688,0.348s-0.423,0.27-0.6,0.424c-0.176,0.154-0.32,0.326-0.436,0.518
		c-0.113,0.19-0.17,0.402-0.17,0.639h3.916v0.682h-4.721V220.041z"/>
	<path d="M200.779,219.359v0.682h-3.729v-0.682h1.562v-4.709c-0.059,0.089-0.159,0.184-0.303,0.287
		c-0.144,0.103-0.302,0.196-0.474,0.285c-0.172,0.088-0.351,0.161-0.532,0.221c-0.185,0.059-0.346,0.088-0.484,0.088v-0.727
		c0.168,0,0.354-0.048,0.556-0.144c0.201-0.097,0.394-0.205,0.572-0.33s0.331-0.242,0.456-0.353
		c0.125-0.109,0.193-0.184,0.209-0.221h0.771v5.6h1.396V219.359z"/>
	<path d="M204.938,221.438v-1.957h-3.662v-0.66l3.904-5.062h0.506v5.038h0.969v0.684h-0.969v1.957H204.938z M202.066,218.798h2.949
		v-3.86L202.066,218.798z"/>
	<path d="M222.713,219.359v0.682h-3.729v-0.682h1.562v-4.709c-0.06,0.089-0.16,0.184-0.303,0.287
		c-0.144,0.103-0.302,0.196-0.474,0.285c-0.172,0.088-0.352,0.161-0.533,0.221c-0.184,0.059-0.346,0.088-0.483,0.088v-0.727
		c0.168,0,0.354-0.048,0.556-0.144c0.2-0.097,0.393-0.205,0.571-0.33s0.332-0.242,0.457-0.353c0.125-0.109,0.192-0.184,0.209-0.221
		h0.771v5.6h1.396V219.359z"/>
	<path d="M229.105,217.467c0,0.374-0.072,0.725-0.215,1.051c-0.146,0.326-0.341,0.61-0.591,0.854
		c-0.248,0.242-0.543,0.434-0.879,0.572c-0.338,0.139-0.7,0.209-1.09,0.209c-0.41,0-0.787-0.075-1.133-0.227
		c-0.345-0.15-0.64-0.365-0.886-0.644c-0.246-0.279-0.438-0.622-0.578-1.028c-0.139-0.406-0.209-0.863-0.209-1.37
		c0-0.792,0.07-1.481,0.209-2.073c0.14-0.59,0.336-1.082,0.589-1.474c0.254-0.394,0.557-0.685,0.907-0.875
		c0.352-0.19,0.744-0.286,1.179-0.286c0.521,0,0.985,0.129,1.396,0.385c0.41,0.258,0.723,0.613,0.937,1.067l-0.484,0.44
		c-0.153-0.375-0.396-0.674-0.728-0.896c-0.33-0.223-0.702-0.336-1.12-0.336c-0.324,0-0.617,0.077-0.882,0.23
		c-0.264,0.154-0.487,0.377-0.676,0.666c-0.188,0.289-0.334,0.646-0.44,1.072c-0.104,0.426-0.158,0.905-0.158,1.44
		c0.16-0.433,0.438-0.777,0.83-1.034s0.838-0.385,1.336-0.385c0.375,0,0.726,0.066,1.052,0.203c0.325,0.136,0.61,0.322,0.854,0.562
		c0.242,0.239,0.432,0.519,0.572,0.841C229.035,216.756,229.105,217.102,229.105,217.467z M226.355,219.491
		c0.276,0,0.539-0.054,0.785-0.16c0.246-0.104,0.463-0.251,0.649-0.435s0.332-0.397,0.438-0.644
		c0.105-0.246,0.158-0.508,0.158-0.787c0-0.278-0.055-0.54-0.164-0.786s-0.258-0.46-0.445-0.644
		c-0.187-0.185-0.403-0.328-0.647-0.435c-0.246-0.106-0.508-0.16-0.787-0.16c-0.278,0-0.541,0.054-0.786,0.16
		c-0.246,0.105-0.461,0.25-0.648,0.435c-0.188,0.184-0.334,0.397-0.439,0.644c-0.107,0.246-0.16,0.508-0.16,0.786
		c0,0.279,0.055,0.539,0.164,0.781c0.111,0.242,0.26,0.456,0.447,0.644c0.186,0.188,0.402,0.334,0.648,0.439
		C225.814,219.438,226.076,219.491,226.355,219.491z"/>
	<path d="M242.469,219.359v0.682h-3.729v-0.682h1.562v-4.709c-0.059,0.089-0.159,0.184-0.303,0.287
		c-0.144,0.103-0.301,0.196-0.474,0.285c-0.172,0.088-0.352,0.161-0.532,0.221c-0.185,0.059-0.347,0.088-0.484,0.088v-0.727
		c0.168,0,0.354-0.048,0.556-0.144c0.201-0.097,0.393-0.205,0.571-0.33s0.332-0.242,0.457-0.353
		c0.125-0.109,0.193-0.184,0.209-0.221h0.771v5.6h1.396V219.359z"/>
	<path d="M248.684,217.874c0,0.345-0.074,0.653-0.221,0.931c-0.146,0.273-0.344,0.512-0.594,0.709s-0.541,0.35-0.875,0.456
		c-0.332,0.106-0.684,0.159-1.049,0.159c-0.389,0-0.748-0.061-1.078-0.182s-0.615-0.286-0.854-0.495
		c-0.24-0.209-0.425-0.452-0.556-0.731c-0.133-0.277-0.199-0.574-0.199-0.891c0-0.249,0.048-0.48,0.14-0.693
		c0.092-0.212,0.211-0.4,0.356-0.566c0.146-0.164,0.312-0.307,0.5-0.428s0.375-0.216,0.565-0.281
		c-0.176-0.072-0.34-0.162-0.493-0.27c-0.154-0.107-0.291-0.229-0.408-0.369c-0.117-0.139-0.211-0.293-0.278-0.462
		c-0.07-0.168-0.105-0.348-0.105-0.538c0-0.322,0.074-0.606,0.221-0.854c0.146-0.245,0.336-0.452,0.566-0.621
		c0.229-0.169,0.49-0.297,0.781-0.385c0.289-0.088,0.58-0.133,0.873-0.133c0.295,0,0.586,0.045,0.875,0.133s0.551,0.214,0.78,0.379
		s0.42,0.373,0.566,0.621c0.146,0.25,0.221,0.531,0.221,0.848c0,0.189-0.035,0.37-0.104,0.539c-0.068,0.169-0.164,0.324-0.285,0.468
		s-0.26,0.269-0.418,0.374s-0.324,0.196-0.5,0.27c0.211,0.074,0.414,0.175,0.604,0.303c0.191,0.129,0.357,0.277,0.502,0.445
		c0.143,0.168,0.256,0.359,0.34,0.572S248.684,217.625,248.684,217.874z M247.924,217.818c0-0.264-0.059-0.496-0.176-0.698
		c-0.117-0.201-0.271-0.372-0.461-0.511c-0.191-0.141-0.404-0.246-0.639-0.319c-0.235-0.073-0.465-0.11-0.693-0.11
		c-0.242,0-0.477,0.039-0.703,0.116c-0.229,0.076-0.434,0.187-0.617,0.33s-0.33,0.315-0.439,0.522
		c-0.108,0.205-0.163,0.433-0.163,0.682c0,0.257,0.059,0.484,0.176,0.688s0.271,0.373,0.455,0.512
		c0.188,0.14,0.396,0.246,0.627,0.318c0.231,0.074,0.465,0.11,0.698,0.11c0.234,0,0.468-0.038,0.699-0.115
		c0.23-0.077,0.438-0.188,0.621-0.329c0.185-0.145,0.332-0.315,0.445-0.519C247.867,218.294,247.924,218.068,247.924,217.818z
		 M244.283,214.255c0,0.213,0.051,0.401,0.154,0.565c0.103,0.166,0.233,0.306,0.396,0.419c0.16,0.114,0.342,0.2,0.545,0.259
		c0.201,0.059,0.396,0.088,0.588,0.088c0.197,0,0.396-0.029,0.595-0.088c0.197-0.059,0.379-0.146,0.545-0.264
		c0.164-0.117,0.299-0.262,0.399-0.43c0.104-0.169,0.154-0.359,0.154-0.572c0-0.205-0.048-0.391-0.144-0.556
		s-0.223-0.305-0.379-0.418c-0.158-0.114-0.34-0.2-0.545-0.259s-0.418-0.088-0.639-0.088c-0.213,0-0.42,0.031-0.621,0.094
		s-0.379,0.15-0.533,0.264c-0.154,0.114-0.279,0.256-0.375,0.424C244.332,213.863,244.283,214.05,244.283,214.255z"/>
	<path d="M258.133,220.041c0-0.249,0.021-0.501,0.064-0.754c0.045-0.253,0.131-0.504,0.26-0.753
		c0.127-0.249,0.311-0.489,0.549-0.722c0.238-0.231,0.557-0.448,0.951-0.653c0.213-0.11,0.436-0.22,0.666-0.324
		c0.23-0.106,0.443-0.226,0.639-0.358c0.193-0.132,0.354-0.279,0.479-0.444s0.188-0.357,0.188-0.577
		c0-0.141-0.031-0.275-0.095-0.412c-0.063-0.136-0.153-0.257-0.274-0.363c-0.121-0.105-0.271-0.191-0.451-0.259
		c-0.18-0.065-0.392-0.099-0.633-0.099c-0.242,0-0.459,0.033-0.648,0.104c-0.191,0.069-0.357,0.152-0.5,0.247
		c-0.145,0.097-0.268,0.196-0.369,0.304c-0.104,0.105-0.18,0.191-0.23,0.258l-0.496-0.539c0.045-0.043,0.129-0.125,0.254-0.241
		c0.125-0.117,0.287-0.234,0.488-0.353c0.203-0.117,0.439-0.223,0.711-0.313s0.574-0.138,0.912-0.138s0.639,0.047,0.902,0.138
		c0.264,0.092,0.488,0.219,0.672,0.38c0.182,0.161,0.322,0.348,0.418,0.557c0.094,0.209,0.143,0.426,0.143,0.653
		c0,0.301-0.065,0.562-0.198,0.781c-0.132,0.22-0.296,0.409-0.488,0.571c-0.194,0.162-0.401,0.299-0.621,0.412
		c-0.221,0.113-0.418,0.211-0.596,0.291c-0.234,0.104-0.463,0.219-0.688,0.348c-0.223,0.129-0.422,0.27-0.6,0.424
		c-0.176,0.154-0.32,0.326-0.434,0.518c-0.113,0.19-0.17,0.402-0.17,0.639h3.916v0.682h-4.721V220.041z"/>
	<path d="M269.506,216.818c0,0.482-0.068,0.929-0.209,1.336c-0.139,0.406-0.332,0.759-0.576,1.057
		c-0.246,0.297-0.539,0.527-0.875,0.691c-0.338,0.166-0.705,0.248-1.1,0.248c-0.396,0-0.764-0.082-1.102-0.248
		c-0.336-0.164-0.629-0.396-0.873-0.691c-0.246-0.298-0.439-0.648-0.578-1.057s-0.209-0.854-0.209-1.336
		c0-0.484,0.07-0.93,0.209-1.338c0.139-0.406,0.332-0.758,0.578-1.056c0.244-0.297,0.537-0.53,0.873-0.698
		c0.338-0.168,0.705-0.254,1.102-0.254c0.395,0,0.762,0.086,1.1,0.254c0.336,0.168,0.629,0.401,0.875,0.698
		c0.244,0.298,0.438,0.648,0.576,1.056C269.438,215.889,269.506,216.334,269.506,216.818z M268.748,216.818
		c0-0.396-0.051-0.756-0.148-1.078c-0.1-0.323-0.236-0.6-0.414-0.831c-0.176-0.229-0.387-0.41-0.631-0.539
		c-0.246-0.128-0.516-0.192-0.809-0.192c-0.301,0-0.574,0.064-0.82,0.192c-0.246,0.129-0.457,0.31-0.633,0.539
		c-0.176,0.231-0.312,0.508-0.412,0.831c-0.1,0.322-0.148,0.682-0.148,1.078c0,0.396,0.05,0.755,0.148,1.078
		c0.1,0.321,0.236,0.599,0.412,0.83c0.176,0.229,0.387,0.408,0.633,0.532c0.246,0.125,0.52,0.188,0.82,0.188
		c0.293,0,0.562-0.062,0.809-0.188c0.244-0.124,0.455-0.303,0.631-0.532c0.178-0.231,0.314-0.509,0.414-0.83
		C268.697,217.573,268.748,217.214,268.748,216.818z"/>
	<path d="M279.01,220.041c0-0.249,0.021-0.501,0.066-0.754c0.043-0.253,0.129-0.504,0.258-0.753s0.312-0.489,0.551-0.722
		c0.239-0.231,0.555-0.448,0.951-0.653c0.213-0.11,0.434-0.22,0.666-0.324c0.23-0.106,0.443-0.226,0.637-0.358
		c0.195-0.132,0.354-0.279,0.479-0.444s0.188-0.357,0.188-0.577c0-0.141-0.031-0.275-0.095-0.412
		c-0.063-0.136-0.153-0.257-0.274-0.363c-0.121-0.105-0.271-0.191-0.449-0.259c-0.182-0.065-0.391-0.099-0.633-0.099
		s-0.459,0.033-0.65,0.104c-0.189,0.069-0.357,0.152-0.5,0.247c-0.143,0.097-0.266,0.196-0.369,0.304
		c-0.102,0.105-0.18,0.191-0.23,0.258l-0.494-0.539c0.043-0.043,0.128-0.125,0.253-0.241c0.125-0.117,0.288-0.234,0.489-0.353
		c0.201-0.117,0.438-0.223,0.709-0.313c0.271-0.091,0.576-0.138,0.914-0.138c0.336,0,0.638,0.047,0.9,0.138
		c0.266,0.092,0.488,0.219,0.672,0.38s0.322,0.348,0.418,0.557s0.143,0.426,0.143,0.653c0,0.301-0.065,0.562-0.196,0.781
		c-0.133,0.22-0.295,0.409-0.49,0.571c-0.192,0.162-0.399,0.299-0.62,0.412c-0.222,0.113-0.419,0.211-0.595,0.291
		c-0.233,0.104-0.465,0.219-0.688,0.348c-0.225,0.129-0.424,0.27-0.6,0.424s-0.32,0.326-0.436,0.518
		c-0.113,0.19-0.17,0.402-0.17,0.639h3.916v0.682h-4.721V220.041z"/>
	<path d="M284.742,220.041c0-0.249,0.021-0.501,0.064-0.754c0.045-0.253,0.131-0.504,0.26-0.753
		c0.127-0.249,0.311-0.489,0.549-0.722c0.238-0.231,0.557-0.448,0.951-0.653c0.213-0.11,0.436-0.22,0.666-0.324
		c0.229-0.106,0.442-0.226,0.639-0.358c0.193-0.132,0.354-0.279,0.479-0.444s0.188-0.357,0.188-0.577
		c0-0.141-0.031-0.275-0.095-0.412c-0.062-0.136-0.153-0.257-0.274-0.363c-0.121-0.105-0.271-0.191-0.451-0.259
		c-0.18-0.065-0.391-0.099-0.633-0.099s-0.459,0.033-0.647,0.104c-0.191,0.069-0.357,0.152-0.5,0.247
		c-0.146,0.097-0.269,0.196-0.369,0.304c-0.104,0.105-0.18,0.191-0.23,0.258l-0.496-0.539c0.045-0.043,0.129-0.125,0.254-0.241
		c0.125-0.117,0.287-0.234,0.488-0.353c0.203-0.117,0.439-0.223,0.711-0.313s0.574-0.138,0.912-0.138s0.639,0.047,0.902,0.138
		c0.264,0.092,0.488,0.219,0.672,0.38c0.182,0.161,0.322,0.348,0.418,0.557c0.094,0.209,0.143,0.426,0.143,0.653
		c0,0.301-0.066,0.562-0.199,0.781c-0.131,0.22-0.295,0.409-0.488,0.571c-0.194,0.162-0.401,0.299-0.62,0.412
		c-0.222,0.113-0.418,0.211-0.597,0.291c-0.233,0.104-0.463,0.219-0.688,0.348c-0.223,0.129-0.422,0.27-0.6,0.424
		c-0.176,0.154-0.32,0.326-0.435,0.518c-0.112,0.19-0.17,0.402-0.17,0.639h3.916v0.682h-4.72V220.041z"/>
</g>
<g>
	<path d="M20.189,200.006c0-0.341,0.065-0.658,0.195-0.955c0.13-0.297,0.308-0.556,0.535-0.775c0.227-0.219,0.494-0.394,0.8-0.52
		c0.307-0.127,0.636-0.189,0.99-0.189c0.374,0,0.717,0.067,1.03,0.205c0.313,0.137,0.582,0.332,0.805,0.584
		c0.224,0.254,0.398,0.564,0.525,0.936c0.126,0.37,0.19,0.785,0.19,1.245c0,0.721-0.063,1.349-0.19,1.885
		c-0.127,0.537-0.305,0.983-0.535,1.341c-0.23,0.356-0.507,0.621-0.83,0.795c-0.323,0.174-0.678,0.26-1.065,0.26
		c-0.467,0-0.889-0.116-1.265-0.35c-0.376-0.232-0.662-0.558-0.855-0.971l0.44-0.398c0.14,0.34,0.362,0.61,0.665,0.813
		c0.303,0.202,0.642,0.306,1.015,0.306c0.293,0,0.56-0.07,0.8-0.21c0.24-0.141,0.447-0.342,0.62-0.604
		c0.173-0.264,0.307-0.588,0.4-0.971c0.093-0.384,0.144-0.822,0.15-1.314c-0.153,0.394-0.408,0.707-0.765,0.939
		c-0.357,0.233-0.762,0.351-1.215,0.351c-0.34,0-0.658-0.062-0.955-0.185c-0.297-0.125-0.555-0.295-0.775-0.512
		c-0.22-0.216-0.393-0.471-0.52-0.766C20.252,200.652,20.189,200.339,20.189,200.006z M22.699,198.165
		c-0.253,0-0.492,0.049-0.715,0.146c-0.223,0.098-0.42,0.229-0.59,0.396c-0.17,0.167-0.305,0.362-0.405,0.585
		c-0.1,0.225-0.15,0.462-0.15,0.716c0,0.253,0.05,0.491,0.15,0.716c0.1,0.223,0.235,0.418,0.405,0.584s0.367,0.299,0.59,0.396
		c0.224,0.097,0.462,0.146,0.715,0.146c0.253,0,0.493-0.049,0.72-0.146s0.423-0.229,0.59-0.396s0.298-0.361,0.395-0.584
		c0.096-0.225,0.145-0.463,0.145-0.716c0-0.247-0.049-0.481-0.145-0.705c-0.097-0.224-0.23-0.42-0.4-0.591
		c-0.17-0.17-0.367-0.303-0.59-0.398C23.19,198.214,22.952,198.165,22.699,198.165z"/>
	<path d="M29.859,198.075h-3.83v-0.63h4.91l-3.59,7.1h-0.78L29.859,198.075z"/>
	<path d="M31.689,203.275v-0.98h0.59v0.98H31.689z"/>
	<path d="M37.099,198.075h-3.83v-0.63h4.91l-3.59,7.1h-0.78L37.099,198.075z"/>
</g>
<g>
	<path d="M20.189,174.953c0-0.342,0.065-0.659,0.195-0.955c0.13-0.297,0.308-0.557,0.535-0.775s0.494-0.394,0.8-0.52
		c0.307-0.127,0.636-0.189,0.99-0.189c0.374,0,0.717,0.067,1.03,0.204c0.313,0.138,0.582,0.332,0.805,0.585
		c0.224,0.254,0.398,0.564,0.525,0.936c0.126,0.369,0.19,0.785,0.19,1.244c0,0.722-0.063,1.35-0.19,1.886s-0.305,0.983-0.535,1.341
		c-0.23,0.355-0.507,0.621-0.83,0.795c-0.323,0.173-0.678,0.26-1.065,0.26c-0.467,0-0.889-0.117-1.265-0.35
		s-0.662-0.559-0.855-0.971l0.44-0.399c0.14,0.34,0.362,0.61,0.665,0.813c0.303,0.203,0.642,0.307,1.015,0.307
		c0.293,0,0.56-0.07,0.8-0.21c0.24-0.142,0.447-0.343,0.62-0.604c0.173-0.264,0.307-0.588,0.4-0.971
		c0.093-0.384,0.144-0.822,0.15-1.314c-0.153,0.394-0.408,0.707-0.765,0.939c-0.357,0.232-0.762,0.35-1.215,0.35
		c-0.34,0-0.658-0.062-0.955-0.185c-0.297-0.124-0.555-0.294-0.775-0.511c-0.22-0.217-0.393-0.471-0.52-0.766
		C20.252,175.6,20.189,175.286,20.189,174.953z M22.699,173.111c-0.253,0-0.492,0.05-0.715,0.146
		c-0.223,0.098-0.42,0.229-0.59,0.395c-0.17,0.168-0.305,0.363-0.405,0.586c-0.1,0.224-0.15,0.462-0.15,0.716
		c0,0.253,0.05,0.491,0.15,0.715c0.1,0.224,0.235,0.418,0.405,0.585c0.17,0.166,0.367,0.298,0.59,0.395
		c0.224,0.098,0.462,0.146,0.715,0.146c0.253,0,0.493-0.049,0.72-0.146c0.227-0.097,0.423-0.229,0.59-0.395
		c0.167-0.167,0.298-0.361,0.395-0.585c0.096-0.224,0.145-0.462,0.145-0.715c0-0.247-0.049-0.481-0.145-0.705
		c-0.097-0.224-0.23-0.42-0.4-0.591c-0.17-0.17-0.367-0.303-0.59-0.399C23.19,173.161,22.952,173.111,22.699,173.111z"/>
	<path d="M29.859,173.021h-3.83v-0.629h4.91l-3.59,7.1h-0.78L29.859,173.021z"/>
	<path d="M31.689,178.223v-0.979h0.59v0.979H31.689z"/>
	<path d="M38.359,176.253c0,0.313-0.067,0.595-0.2,0.845c-0.133,0.25-0.313,0.465-0.54,0.646s-0.492,0.319-0.795,0.415
		c-0.303,0.097-0.622,0.146-0.955,0.146c-0.354,0-0.68-0.056-0.98-0.166c-0.3-0.109-0.559-0.26-0.775-0.449
		c-0.217-0.189-0.385-0.412-0.505-0.666c-0.12-0.252-0.18-0.522-0.18-0.81c0-0.228,0.042-0.437,0.125-0.63s0.191-0.365,0.325-0.516
		c0.133-0.149,0.285-0.279,0.455-0.391c0.17-0.109,0.342-0.195,0.515-0.255c-0.16-0.065-0.31-0.147-0.45-0.245
		c-0.14-0.097-0.264-0.207-0.37-0.335c-0.107-0.127-0.192-0.267-0.255-0.42s-0.095-0.315-0.095-0.489c0-0.293,0.066-0.553,0.2-0.775
		c0.133-0.223,0.305-0.411,0.515-0.564c0.21-0.152,0.447-0.271,0.71-0.351c0.264-0.079,0.528-0.119,0.795-0.119
		c0.266,0,0.531,0.04,0.795,0.119c0.263,0.08,0.5,0.194,0.71,0.346c0.21,0.149,0.381,0.338,0.515,0.563
		c0.133,0.228,0.2,0.483,0.2,0.771c0,0.174-0.032,0.337-0.095,0.49c-0.063,0.152-0.15,0.295-0.26,0.425
		c-0.11,0.13-0.237,0.243-0.38,0.341c-0.144,0.096-0.295,0.178-0.455,0.244c0.193,0.066,0.376,0.158,0.55,0.274
		c0.173,0.116,0.325,0.252,0.455,0.405c0.13,0.152,0.233,0.326,0.31,0.521C38.321,175.818,38.359,176.025,38.359,176.253z
		 M37.669,176.203c0-0.24-0.054-0.452-0.16-0.637c-0.107-0.183-0.247-0.338-0.42-0.465c-0.174-0.125-0.367-0.224-0.58-0.289
		c-0.213-0.066-0.423-0.101-0.63-0.101c-0.22,0-0.434,0.035-0.64,0.104c-0.207,0.07-0.394,0.17-0.56,0.3
		c-0.167,0.131-0.3,0.289-0.4,0.476c-0.1,0.188-0.15,0.395-0.15,0.62c0,0.233,0.053,0.44,0.16,0.625s0.245,0.338,0.415,0.465
		c0.17,0.128,0.36,0.224,0.57,0.29s0.421,0.1,0.635,0.1c0.214,0,0.425-0.034,0.635-0.104c0.21-0.07,0.398-0.17,0.565-0.3
		c0.167-0.131,0.301-0.287,0.405-0.472C37.617,176.635,37.669,176.43,37.669,176.203z M34.359,172.963
		c0,0.193,0.046,0.365,0.14,0.516c0.093,0.149,0.213,0.275,0.36,0.379c0.146,0.104,0.312,0.183,0.495,0.235
		c0.184,0.054,0.362,0.08,0.535,0.08c0.18,0,0.36-0.026,0.54-0.08c0.18-0.054,0.345-0.134,0.495-0.239
		c0.15-0.106,0.271-0.236,0.365-0.391c0.094-0.154,0.14-0.327,0.14-0.521c0-0.187-0.043-0.354-0.13-0.504
		c-0.087-0.149-0.202-0.276-0.345-0.381c-0.143-0.104-0.308-0.182-0.495-0.234s-0.38-0.08-0.58-0.08
		c-0.194,0-0.382,0.029-0.565,0.086s-0.345,0.137-0.485,0.238c-0.14,0.104-0.253,0.232-0.34,0.387
		C34.402,172.605,34.359,172.775,34.359,172.963z"/>
</g>
<g>
	<path d="M20.189,149.902c0-0.342,0.065-0.659,0.195-0.955c0.13-0.297,0.308-0.557,0.535-0.775s0.494-0.395,0.8-0.52
		c0.307-0.127,0.636-0.19,0.99-0.19c0.374,0,0.717,0.067,1.03,0.205s0.582,0.332,0.805,0.585c0.224,0.253,0.398,0.564,0.525,0.936
		c0.126,0.369,0.19,0.785,0.19,1.244c0,0.721-0.063,1.35-0.19,1.885c-0.127,0.537-0.305,0.983-0.535,1.342
		c-0.23,0.355-0.507,0.621-0.83,0.795c-0.323,0.173-0.678,0.26-1.065,0.26c-0.467,0-0.889-0.117-1.265-0.35
		c-0.376-0.233-0.662-0.559-0.855-0.971l0.44-0.399c0.14,0.34,0.362,0.61,0.665,0.813c0.303,0.203,0.642,0.307,1.015,0.307
		c0.293,0,0.56-0.07,0.8-0.211c0.24-0.141,0.447-0.342,0.62-0.604s0.307-0.587,0.4-0.97c0.093-0.385,0.144-0.822,0.15-1.314
		c-0.153,0.394-0.408,0.706-0.765,0.939c-0.357,0.232-0.762,0.35-1.215,0.35c-0.34,0-0.658-0.062-0.955-0.185
		c-0.297-0.124-0.555-0.294-0.775-0.511c-0.22-0.217-0.393-0.472-0.52-0.766C20.252,150.549,20.189,150.234,20.189,149.902z
		 M22.699,148.062c-0.253,0-0.492,0.049-0.715,0.146c-0.223,0.097-0.42,0.229-0.59,0.396s-0.305,0.361-0.405,0.584
		c-0.1,0.225-0.15,0.463-0.15,0.717c0,0.253,0.05,0.49,0.15,0.715c0.1,0.223,0.235,0.418,0.405,0.585
		c0.17,0.166,0.367,0.298,0.59,0.396c0.224,0.096,0.462,0.146,0.715,0.146c0.253,0,0.493-0.05,0.72-0.146
		c0.227-0.098,0.423-0.229,0.59-0.396c0.167-0.167,0.298-0.362,0.395-0.585c0.096-0.225,0.145-0.462,0.145-0.715
		c0-0.247-0.049-0.482-0.145-0.705c-0.097-0.225-0.23-0.42-0.4-0.592c-0.17-0.17-0.367-0.303-0.59-0.398
		C23.19,148.109,22.952,148.062,22.699,148.062z"/>
	<path d="M29.859,147.973h-3.83v-0.631h4.91l-3.59,7.1h-0.78L29.859,147.973z"/>
	<path d="M31.689,153.172v-0.98h0.59v0.98H31.689z"/>
	<path d="M33.289,149.902c0-0.342,0.065-0.659,0.195-0.955c0.13-0.297,0.308-0.557,0.535-0.775s0.494-0.395,0.8-0.52
		c0.307-0.127,0.636-0.19,0.99-0.19c0.374,0,0.717,0.067,1.03,0.205s0.582,0.332,0.805,0.585c0.224,0.253,0.398,0.564,0.525,0.936
		c0.126,0.369,0.19,0.785,0.19,1.244c0,0.721-0.063,1.35-0.19,1.885c-0.127,0.537-0.305,0.983-0.535,1.342
		c-0.23,0.355-0.507,0.621-0.83,0.795c-0.323,0.173-0.678,0.26-1.065,0.26c-0.467,0-0.889-0.117-1.265-0.35
		c-0.376-0.233-0.662-0.559-0.855-0.971l0.44-0.399c0.14,0.34,0.362,0.61,0.665,0.813c0.303,0.203,0.642,0.307,1.015,0.307
		c0.293,0,0.56-0.07,0.8-0.211c0.24-0.141,0.447-0.342,0.62-0.604c0.173-0.263,0.307-0.587,0.4-0.97
		c0.093-0.385,0.144-0.822,0.15-1.314c-0.153,0.394-0.408,0.706-0.765,0.939c-0.357,0.232-0.762,0.35-1.215,0.35
		c-0.34,0-0.658-0.062-0.955-0.185c-0.297-0.124-0.555-0.294-0.775-0.511c-0.22-0.217-0.393-0.472-0.52-0.766
		C33.352,150.549,33.289,150.234,33.289,149.902z M35.799,148.062c-0.253,0-0.492,0.049-0.715,0.146s-0.42,0.229-0.59,0.396
		s-0.305,0.361-0.405,0.584c-0.1,0.225-0.15,0.463-0.15,0.717c0,0.253,0.05,0.49,0.15,0.715c0.1,0.223,0.235,0.418,0.405,0.585
		c0.17,0.166,0.367,0.298,0.59,0.396c0.224,0.096,0.462,0.146,0.715,0.146s0.493-0.05,0.72-0.146
		c0.227-0.098,0.423-0.229,0.59-0.396c0.167-0.167,0.298-0.362,0.395-0.585c0.096-0.225,0.145-0.462,0.145-0.715
		c0-0.247-0.049-0.482-0.145-0.705c-0.097-0.225-0.23-0.42-0.4-0.592c-0.17-0.17-0.367-0.303-0.59-0.398
		C36.29,148.109,36.052,148.062,35.799,148.062z"/>
</g>
<g>
	<path d="M20.189,124.852c0-0.341,0.065-0.658,0.195-0.955c0.13-0.297,0.308-0.556,0.535-0.774c0.227-0.22,0.494-0.394,0.8-0.52
		c0.307-0.127,0.636-0.19,0.99-0.19c0.374,0,0.717,0.068,1.03,0.205c0.313,0.137,0.582,0.332,0.805,0.585
		c0.224,0.253,0.398,0.563,0.525,0.935c0.126,0.37,0.19,0.785,0.19,1.245c0,0.722-0.063,1.349-0.19,1.886s-0.305,0.982-0.535,1.34
		c-0.23,0.356-0.507,0.621-0.83,0.795c-0.323,0.174-0.678,0.261-1.065,0.261c-0.467,0-0.889-0.117-1.265-0.351
		c-0.376-0.232-0.662-0.558-0.855-0.971l0.44-0.398c0.14,0.34,0.362,0.61,0.665,0.813c0.303,0.203,0.642,0.306,1.015,0.306
		c0.293,0,0.56-0.069,0.8-0.209c0.24-0.142,0.447-0.343,0.62-0.605c0.173-0.264,0.307-0.587,0.4-0.971
		c0.093-0.383,0.144-0.821,0.15-1.314c-0.153,0.395-0.408,0.707-0.765,0.939c-0.357,0.233-0.762,0.351-1.215,0.351
		c-0.34,0-0.658-0.062-0.955-0.185c-0.297-0.125-0.555-0.295-0.775-0.512c-0.22-0.216-0.393-0.471-0.52-0.765
		S20.189,125.186,20.189,124.852z M22.699,123.011c-0.253,0-0.492,0.05-0.715,0.146c-0.223,0.097-0.42,0.229-0.59,0.395
		c-0.17,0.167-0.305,0.362-0.405,0.585c-0.1,0.225-0.15,0.463-0.15,0.717c0,0.252,0.05,0.49,0.15,0.715
		c0.1,0.223,0.235,0.418,0.405,0.584s0.367,0.299,0.59,0.396c0.224,0.097,0.462,0.146,0.715,0.146c0.253,0,0.493-0.049,0.72-0.146
		s0.423-0.229,0.59-0.396s0.298-0.361,0.395-0.584c0.096-0.225,0.145-0.463,0.145-0.715c0-0.248-0.049-0.482-0.145-0.705
		c-0.097-0.225-0.23-0.42-0.4-0.592c-0.17-0.17-0.367-0.303-0.59-0.398C23.19,123.061,22.952,123.011,22.699,123.011z"/>
	<path d="M31.119,126.15c0,0.313-0.067,0.596-0.2,0.846s-0.313,0.465-0.54,0.645c-0.227,0.182-0.492,0.319-0.795,0.416
		c-0.303,0.096-0.622,0.146-0.955,0.146c-0.354,0-0.68-0.056-0.98-0.165c-0.3-0.11-0.559-0.26-0.775-0.45
		c-0.217-0.188-0.385-0.411-0.505-0.665c-0.12-0.253-0.18-0.523-0.18-0.811c0-0.227,0.042-0.437,0.125-0.629
		c0.083-0.193,0.191-0.365,0.325-0.517c0.133-0.149,0.285-0.278,0.455-0.39c0.17-0.11,0.342-0.195,0.515-0.255
		c-0.16-0.066-0.31-0.148-0.45-0.245c-0.14-0.098-0.264-0.208-0.37-0.335c-0.107-0.127-0.192-0.267-0.255-0.42
		s-0.095-0.316-0.095-0.49c0-0.293,0.066-0.552,0.2-0.775c0.133-0.223,0.305-0.411,0.515-0.564c0.21-0.153,0.447-0.271,0.71-0.351
		c0.264-0.079,0.528-0.119,0.795-0.119c0.266,0,0.531,0.04,0.795,0.119c0.263,0.08,0.5,0.195,0.71,0.346
		c0.21,0.149,0.381,0.338,0.515,0.564c0.133,0.227,0.2,0.483,0.2,0.771c0,0.173-0.032,0.337-0.095,0.49
		c-0.063,0.152-0.15,0.295-0.26,0.424c-0.11,0.131-0.237,0.244-0.38,0.341c-0.144,0.097-0.295,0.179-0.455,0.245
		c0.193,0.066,0.376,0.158,0.55,0.273c0.173,0.117,0.325,0.252,0.455,0.405c0.13,0.153,0.233,0.327,0.31,0.521
		C31.081,125.716,31.119,125.925,31.119,126.15z M30.429,126.102c0-0.24-0.054-0.451-0.16-0.636
		c-0.107-0.183-0.247-0.338-0.42-0.465c-0.174-0.126-0.367-0.224-0.58-0.29s-0.423-0.1-0.63-0.1c-0.22,0-0.434,0.035-0.64,0.104
		c-0.207,0.07-0.394,0.17-0.56,0.301c-0.167,0.131-0.3,0.289-0.4,0.476s-0.15,0.394-0.15,0.62c0,0.232,0.053,0.44,0.16,0.625
		c0.107,0.184,0.245,0.338,0.415,0.465s0.36,0.224,0.57,0.29c0.21,0.065,0.421,0.1,0.635,0.1s0.425-0.034,0.635-0.104
		c0.21-0.069,0.398-0.17,0.565-0.299c0.167-0.131,0.301-0.287,0.405-0.472C30.377,126.533,30.429,126.328,30.429,126.102z
		 M27.119,122.861c0,0.193,0.046,0.365,0.14,0.515c0.093,0.149,0.213,0.276,0.36,0.38c0.146,0.104,0.312,0.182,0.495,0.235
		c0.184,0.054,0.362,0.079,0.535,0.079c0.18,0,0.36-0.025,0.54-0.079s0.345-0.134,0.495-0.24s0.271-0.235,0.365-0.39
		c0.094-0.154,0.14-0.327,0.14-0.521c0-0.187-0.043-0.354-0.13-0.505c-0.087-0.149-0.202-0.276-0.345-0.38s-0.308-0.182-0.495-0.235
		c-0.187-0.053-0.38-0.08-0.58-0.08c-0.194,0-0.382,0.029-0.565,0.086c-0.183,0.057-0.345,0.137-0.485,0.239
		c-0.14,0.104-0.253,0.232-0.34,0.386S27.119,122.675,27.119,122.861z"/>
	<path d="M32.269,128.121v-0.98h0.59v0.98H32.269z"/>
	<path d="M39.079,125.191c0,0.438-0.063,0.845-0.19,1.215c-0.127,0.369-0.302,0.688-0.525,0.96c-0.224,0.27-0.488,0.479-0.795,0.63
		c-0.307,0.15-0.64,0.225-1,0.225c-0.36,0-0.693-0.074-1-0.225c-0.307-0.151-0.572-0.36-0.795-0.63
		c-0.224-0.271-0.398-0.591-0.525-0.96c-0.127-0.37-0.19-0.775-0.19-1.215c0-0.44,0.063-0.847,0.19-1.215
		c0.126-0.371,0.301-0.69,0.525-0.961c0.223-0.271,0.488-0.481,0.795-0.636c0.307-0.154,0.64-0.229,1-0.229
		c0.36,0,0.693,0.076,1,0.229c0.307,0.153,0.571,0.365,0.795,0.636c0.223,0.271,0.398,0.59,0.525,0.961
		C39.015,124.346,39.079,124.751,39.079,125.191z M38.389,125.191c0-0.36-0.045-0.688-0.135-0.98s-0.215-0.545-0.375-0.755
		s-0.352-0.373-0.575-0.49c-0.223-0.116-0.468-0.175-0.735-0.175c-0.273,0-0.522,0.059-0.745,0.175
		c-0.223,0.117-0.415,0.28-0.575,0.49s-0.285,0.462-0.375,0.755c-0.09,0.294-0.135,0.62-0.135,0.98c0,0.358,0.045,0.687,0.135,0.979
		c0.09,0.294,0.215,0.545,0.375,0.755s0.352,0.372,0.575,0.485c0.223,0.113,0.472,0.17,0.745,0.17c0.267,0,0.512-0.057,0.735-0.17
		c0.223-0.113,0.415-0.275,0.575-0.485s0.285-0.461,0.375-0.755C38.344,125.878,38.389,125.551,38.389,125.191z"/>
</g>
<g>
	<path d="M20.189,99.799c0-0.341,0.065-0.659,0.195-0.955c0.13-0.297,0.308-0.556,0.535-0.775c0.227-0.219,0.494-0.394,0.8-0.52
		c0.307-0.127,0.636-0.19,0.99-0.19c0.374,0,0.717,0.068,1.03,0.205s0.582,0.332,0.805,0.585c0.224,0.253,0.398,0.564,0.525,0.935
		c0.126,0.37,0.19,0.785,0.19,1.245c0,0.721-0.063,1.349-0.19,1.885c-0.127,0.537-0.305,0.983-0.535,1.341
		c-0.23,0.356-0.507,0.621-0.83,0.795c-0.323,0.173-0.678,0.26-1.065,0.26c-0.467,0-0.889-0.117-1.265-0.35
		c-0.376-0.233-0.662-0.558-0.855-0.971l0.44-0.399c0.14,0.34,0.362,0.611,0.665,0.814c0.303,0.203,0.642,0.306,1.015,0.306
		c0.293,0,0.56-0.07,0.8-0.21c0.24-0.141,0.447-0.342,0.62-0.605c0.173-0.263,0.307-0.587,0.4-0.97
		c0.093-0.384,0.144-0.822,0.15-1.315c-0.153,0.394-0.408,0.707-0.765,0.94c-0.357,0.233-0.762,0.35-1.215,0.35
		c-0.34,0-0.658-0.062-0.955-0.185c-0.297-0.124-0.555-0.294-0.775-0.511c-0.22-0.216-0.393-0.471-0.52-0.765
		C20.252,100.445,20.189,100.132,20.189,99.799z M22.699,97.958c-0.253,0-0.492,0.049-0.715,0.146
		c-0.223,0.097-0.42,0.229-0.59,0.395c-0.17,0.167-0.305,0.362-0.405,0.585c-0.1,0.224-0.15,0.462-0.15,0.716
		c0,0.253,0.05,0.491,0.15,0.715c0.1,0.223,0.235,0.418,0.405,0.585c0.17,0.166,0.367,0.298,0.59,0.395
		c0.224,0.097,0.462,0.146,0.715,0.146c0.253,0,0.493-0.049,0.72-0.146c0.227-0.097,0.423-0.229,0.59-0.395
		c0.167-0.167,0.298-0.362,0.395-0.585c0.096-0.224,0.145-0.462,0.145-0.715c0-0.247-0.049-0.482-0.145-0.705
		c-0.097-0.224-0.23-0.42-0.4-0.591c-0.17-0.17-0.367-0.303-0.59-0.399C23.19,98.007,22.952,97.958,22.699,97.958z"/>
	<path d="M31.119,101.099c0,0.313-0.067,0.595-0.2,0.845s-0.313,0.465-0.54,0.645c-0.227,0.181-0.492,0.319-0.795,0.415
		c-0.303,0.097-0.622,0.146-0.955,0.146c-0.354,0-0.68-0.055-0.98-0.165c-0.3-0.11-0.559-0.26-0.775-0.45
		c-0.217-0.189-0.385-0.411-0.505-0.665c-0.12-0.253-0.18-0.523-0.18-0.81c0-0.227,0.042-0.437,0.125-0.63
		c0.083-0.193,0.191-0.365,0.325-0.516c0.133-0.149,0.285-0.279,0.455-0.39c0.17-0.11,0.342-0.195,0.515-0.255
		c-0.16-0.066-0.31-0.148-0.45-0.245c-0.14-0.097-0.264-0.208-0.37-0.335c-0.107-0.127-0.192-0.267-0.255-0.42
		s-0.095-0.316-0.095-0.49c0-0.293,0.066-0.552,0.2-0.775c0.133-0.223,0.305-0.411,0.515-0.564s0.447-0.271,0.71-0.351
		c0.264-0.079,0.528-0.119,0.795-0.119c0.266,0,0.531,0.04,0.795,0.119c0.263,0.08,0.5,0.195,0.71,0.346
		c0.21,0.149,0.381,0.338,0.515,0.564c0.133,0.227,0.2,0.483,0.2,0.771c0,0.173-0.032,0.337-0.095,0.49
		c-0.063,0.153-0.15,0.295-0.26,0.425s-0.237,0.243-0.38,0.34c-0.144,0.097-0.295,0.179-0.455,0.245
		c0.193,0.066,0.376,0.158,0.55,0.274c0.173,0.117,0.325,0.252,0.455,0.405c0.13,0.153,0.233,0.327,0.31,0.521
		C31.081,100.664,31.119,100.872,31.119,101.099z M30.429,101.049c0-0.24-0.054-0.452-0.16-0.636
		c-0.107-0.183-0.247-0.338-0.42-0.465c-0.174-0.126-0.367-0.224-0.58-0.29c-0.213-0.066-0.423-0.1-0.63-0.1
		c-0.22,0-0.434,0.035-0.64,0.104c-0.207,0.07-0.394,0.17-0.56,0.3c-0.167,0.131-0.3,0.289-0.4,0.476s-0.15,0.394-0.15,0.62
		c0,0.233,0.053,0.441,0.16,0.625c0.107,0.184,0.245,0.338,0.415,0.465s0.36,0.224,0.57,0.29s0.421,0.1,0.635,0.1
		s0.425-0.035,0.635-0.104c0.21-0.07,0.398-0.17,0.565-0.3c0.167-0.131,0.301-0.287,0.405-0.471
		C30.377,101.48,30.429,101.275,30.429,101.049z M27.119,97.809c0,0.193,0.046,0.365,0.14,0.515c0.093,0.15,0.213,0.276,0.36,0.38
		c0.146,0.104,0.312,0.182,0.495,0.235c0.184,0.054,0.362,0.08,0.535,0.08c0.18,0,0.36-0.026,0.54-0.08s0.345-0.134,0.495-0.24
		c0.15-0.106,0.271-0.236,0.365-0.39c0.094-0.154,0.14-0.327,0.14-0.521c0-0.187-0.043-0.354-0.13-0.505
		c-0.087-0.149-0.202-0.276-0.345-0.38s-0.308-0.182-0.495-0.235c-0.187-0.053-0.38-0.08-0.58-0.08
		c-0.194,0-0.382,0.029-0.565,0.086c-0.183,0.057-0.345,0.137-0.485,0.239c-0.14,0.104-0.253,0.232-0.34,0.386
		C27.162,97.452,27.119,97.622,27.119,97.809z"/>
	<path d="M32.269,103.068v-0.98h0.59v0.98H32.269z"/>
	<path d="M37.569,102.448v0.62h-3.39v-0.62h1.42v-4.28c-0.053,0.08-0.145,0.167-0.275,0.261c-0.13,0.093-0.273,0.18-0.43,0.26
		c-0.156,0.08-0.318,0.146-0.485,0.2c-0.167,0.053-0.313,0.08-0.44,0.08v-0.66c0.153,0,0.322-0.044,0.505-0.13
		c0.184-0.087,0.357-0.187,0.52-0.301c0.164-0.113,0.302-0.22,0.415-0.319c0.113-0.101,0.177-0.167,0.19-0.2h0.7v5.09
		L37.569,102.448L37.569,102.448z"/>
</g>
<g>
	<path d="M20.189,74.747c0-0.341,0.065-0.659,0.195-0.955c0.13-0.297,0.308-0.556,0.535-0.775c0.227-0.219,0.494-0.394,0.8-0.52
		c0.307-0.127,0.636-0.19,0.99-0.19c0.374,0,0.717,0.068,1.03,0.205c0.313,0.137,0.582,0.332,0.805,0.585
		c0.224,0.253,0.398,0.564,0.525,0.935c0.126,0.37,0.19,0.785,0.19,1.245c0,0.721-0.063,1.349-0.19,1.885
		c-0.127,0.537-0.305,0.983-0.535,1.341c-0.23,0.356-0.507,0.621-0.83,0.795c-0.323,0.173-0.678,0.26-1.065,0.26
		c-0.467,0-0.889-0.117-1.265-0.35s-0.662-0.558-0.855-0.971l0.44-0.399c0.14,0.34,0.362,0.611,0.665,0.814
		c0.303,0.203,0.642,0.306,1.015,0.306c0.293,0,0.56-0.07,0.8-0.21c0.24-0.141,0.447-0.342,0.62-0.605s0.307-0.587,0.4-0.97
		c0.093-0.384,0.144-0.822,0.15-1.315c-0.153,0.394-0.408,0.707-0.765,0.94c-0.357,0.233-0.762,0.35-1.215,0.35
		c-0.34,0-0.658-0.062-0.955-0.185c-0.297-0.124-0.555-0.294-0.775-0.511c-0.22-0.216-0.393-0.471-0.52-0.765
		C20.252,75.394,20.189,75.08,20.189,74.747z M22.699,72.906c-0.253,0-0.492,0.049-0.715,0.146c-0.223,0.097-0.42,0.229-0.59,0.396
		c-0.17,0.167-0.305,0.362-0.405,0.585c-0.1,0.224-0.15,0.462-0.15,0.716c0,0.253,0.05,0.491,0.15,0.715
		c0.1,0.223,0.235,0.418,0.405,0.585c0.17,0.166,0.367,0.298,0.59,0.395c0.224,0.097,0.462,0.146,0.715,0.146
		c0.253,0,0.493-0.049,0.72-0.146c0.227-0.097,0.423-0.229,0.59-0.395c0.167-0.167,0.298-0.362,0.395-0.585
		c0.096-0.224,0.145-0.462,0.145-0.715c0-0.247-0.049-0.482-0.145-0.705c-0.097-0.224-0.23-0.42-0.4-0.591
		c-0.17-0.17-0.367-0.303-0.59-0.399C23.19,72.955,22.952,72.906,22.699,72.906z"/>
	<path d="M31.119,76.047c0,0.313-0.067,0.595-0.2,0.845s-0.313,0.465-0.54,0.645c-0.227,0.181-0.492,0.319-0.795,0.415
		c-0.303,0.097-0.622,0.146-0.955,0.146c-0.354,0-0.68-0.055-0.98-0.165c-0.3-0.11-0.559-0.26-0.775-0.45
		c-0.217-0.189-0.385-0.411-0.505-0.665c-0.12-0.253-0.18-0.523-0.18-0.81c0-0.227,0.042-0.437,0.125-0.63s0.191-0.365,0.325-0.516
		c0.133-0.149,0.285-0.279,0.455-0.39c0.17-0.11,0.342-0.195,0.515-0.255c-0.16-0.066-0.31-0.148-0.45-0.245
		c-0.14-0.097-0.264-0.208-0.37-0.335c-0.107-0.127-0.192-0.267-0.255-0.42c-0.063-0.153-0.095-0.316-0.095-0.49
		c0-0.293,0.066-0.552,0.2-0.775c0.133-0.223,0.305-0.411,0.515-0.564c0.21-0.153,0.447-0.271,0.71-0.351
		c0.264-0.079,0.528-0.119,0.795-0.119c0.266,0,0.531,0.04,0.795,0.119c0.263,0.08,0.5,0.195,0.71,0.346
		c0.21,0.149,0.381,0.338,0.515,0.564c0.133,0.227,0.2,0.483,0.2,0.771c0,0.173-0.032,0.337-0.095,0.49s-0.15,0.295-0.26,0.425
		c-0.11,0.13-0.237,0.243-0.38,0.34c-0.144,0.097-0.295,0.179-0.455,0.245c0.193,0.066,0.376,0.158,0.55,0.274
		c0.173,0.117,0.325,0.252,0.455,0.405c0.13,0.153,0.233,0.327,0.31,0.521S31.119,75.82,31.119,76.047z M30.429,75.997
		c0-0.24-0.054-0.452-0.16-0.636c-0.107-0.183-0.247-0.338-0.42-0.465c-0.174-0.126-0.367-0.224-0.58-0.29s-0.423-0.1-0.63-0.1
		c-0.22,0-0.434,0.035-0.64,0.104c-0.207,0.07-0.394,0.17-0.56,0.3c-0.167,0.131-0.3,0.289-0.4,0.476
		c-0.1,0.188-0.15,0.395-0.15,0.62c0,0.233,0.053,0.441,0.16,0.625c0.107,0.184,0.245,0.338,0.415,0.465
		c0.17,0.127,0.36,0.224,0.57,0.29c0.21,0.066,0.421,0.1,0.635,0.1s0.425-0.035,0.635-0.104c0.21-0.07,0.398-0.17,0.565-0.3
		c0.167-0.131,0.301-0.287,0.405-0.471C30.377,76.429,30.429,76.224,30.429,75.997z M27.119,72.757c0,0.193,0.046,0.365,0.14,0.515
		c0.093,0.15,0.213,0.276,0.36,0.38c0.146,0.104,0.312,0.182,0.495,0.235c0.184,0.054,0.362,0.08,0.535,0.08
		c0.18,0,0.36-0.026,0.54-0.08c0.18-0.054,0.345-0.134,0.495-0.24s0.271-0.236,0.365-0.39c0.094-0.154,0.14-0.327,0.14-0.521
		c0-0.187-0.043-0.354-0.13-0.505c-0.087-0.149-0.202-0.276-0.345-0.38s-0.308-0.182-0.495-0.235c-0.187-0.053-0.38-0.08-0.58-0.08
		c-0.194,0-0.382,0.029-0.565,0.086c-0.183,0.057-0.345,0.137-0.485,0.239c-0.14,0.104-0.253,0.232-0.34,0.386
		C27.162,72.4,27.119,72.57,27.119,72.757z"/>
	<path d="M32.269,78.017v-0.98h0.59v0.98H32.269z"/>
	<path d="M33.949,78.017c0-0.227,0.02-0.455,0.06-0.685s0.118-0.459,0.235-0.686c0.117-0.227,0.283-0.445,0.5-0.655
		c0.217-0.21,0.505-0.408,0.865-0.595c0.193-0.1,0.395-0.198,0.605-0.295s0.403-0.205,0.58-0.325
		c0.176-0.12,0.321-0.255,0.435-0.404c0.113-0.15,0.17-0.325,0.17-0.525c0-0.127-0.029-0.252-0.085-0.375
		c-0.057-0.123-0.14-0.233-0.25-0.33s-0.247-0.175-0.41-0.235c-0.164-0.06-0.355-0.09-0.575-0.09c-0.22,0-0.417,0.032-0.59,0.095
		c-0.173,0.063-0.325,0.139-0.455,0.226c-0.13,0.087-0.242,0.179-0.335,0.274c-0.093,0.098-0.164,0.176-0.21,0.235l-0.45-0.49
		c0.04-0.04,0.117-0.113,0.23-0.22s0.262-0.213,0.445-0.32c0.183-0.106,0.398-0.201,0.645-0.284c0.247-0.084,0.523-0.125,0.83-0.125
		c0.306,0,0.58,0.041,0.82,0.125c0.24,0.083,0.443,0.198,0.61,0.345s0.293,0.314,0.38,0.505c0.086,0.19,0.13,0.389,0.13,0.595
		c0,0.273-0.06,0.51-0.18,0.71c-0.12,0.2-0.269,0.374-0.445,0.521c-0.177,0.146-0.365,0.271-0.565,0.375
		c-0.2,0.104-0.38,0.191-0.54,0.265c-0.213,0.094-0.422,0.198-0.625,0.315c-0.204,0.116-0.385,0.245-0.545,0.385
		s-0.292,0.297-0.395,0.47c-0.104,0.174-0.155,0.367-0.155,0.58h3.56v0.62h-4.29V78.017z"/>
</g>
<g>
	<path d="M20.189,49.696c0-0.341,0.065-0.659,0.195-0.955c0.13-0.297,0.308-0.556,0.535-0.775c0.227-0.219,0.494-0.394,0.8-0.52
		c0.307-0.127,0.636-0.19,0.99-0.19c0.374,0,0.717,0.068,1.03,0.205c0.313,0.137,0.582,0.332,0.805,0.585
		c0.224,0.253,0.398,0.564,0.525,0.935c0.126,0.37,0.19,0.785,0.19,1.245c0,0.721-0.063,1.349-0.19,1.885
		c-0.127,0.537-0.305,0.983-0.535,1.341c-0.23,0.356-0.507,0.621-0.83,0.795c-0.323,0.173-0.678,0.26-1.065,0.26
		c-0.467,0-0.889-0.117-1.265-0.35c-0.376-0.233-0.662-0.558-0.855-0.971l0.44-0.399c0.14,0.34,0.362,0.611,0.665,0.814
		c0.303,0.203,0.642,0.306,1.015,0.306c0.293,0,0.56-0.07,0.8-0.21c0.24-0.141,0.447-0.342,0.62-0.605
		c0.173-0.263,0.307-0.587,0.4-0.97c0.093-0.384,0.144-0.822,0.15-1.315c-0.153,0.394-0.408,0.707-0.765,0.94
		c-0.357,0.233-0.762,0.35-1.215,0.35c-0.34,0-0.658-0.062-0.955-0.185c-0.297-0.124-0.555-0.294-0.775-0.511
		c-0.22-0.216-0.393-0.471-0.52-0.765C20.252,50.343,20.189,50.029,20.189,49.696z M22.699,47.855c-0.253,0-0.492,0.049-0.715,0.146
		c-0.223,0.097-0.42,0.229-0.59,0.395c-0.17,0.167-0.305,0.362-0.405,0.585c-0.1,0.224-0.15,0.462-0.15,0.716
		c0,0.253,0.05,0.491,0.15,0.715c0.1,0.223,0.235,0.418,0.405,0.585c0.17,0.166,0.367,0.298,0.59,0.395
		c0.224,0.097,0.462,0.146,0.715,0.146c0.253,0,0.493-0.049,0.72-0.146s0.423-0.229,0.59-0.395c0.167-0.167,0.298-0.362,0.395-0.585
		c0.096-0.224,0.145-0.462,0.145-0.715c0-0.247-0.049-0.482-0.145-0.705c-0.097-0.224-0.23-0.42-0.4-0.591
		c-0.17-0.17-0.367-0.303-0.59-0.399C23.19,47.904,22.952,47.855,22.699,47.855z"/>
	<path d="M31.119,50.996c0,0.313-0.067,0.595-0.2,0.845s-0.313,0.465-0.54,0.645c-0.227,0.181-0.492,0.319-0.795,0.415
		c-0.303,0.097-0.622,0.146-0.955,0.146c-0.354,0-0.68-0.055-0.98-0.165c-0.3-0.11-0.559-0.26-0.775-0.45
		c-0.217-0.189-0.385-0.411-0.505-0.665c-0.12-0.253-0.18-0.523-0.18-0.81c0-0.227,0.042-0.437,0.125-0.63
		c0.083-0.193,0.191-0.365,0.325-0.516c0.133-0.149,0.285-0.279,0.455-0.39c0.17-0.11,0.342-0.195,0.515-0.255
		c-0.16-0.066-0.31-0.148-0.45-0.245c-0.14-0.097-0.264-0.208-0.37-0.335c-0.107-0.127-0.192-0.267-0.255-0.42
		s-0.095-0.316-0.095-0.49c0-0.293,0.066-0.552,0.2-0.775c0.133-0.223,0.305-0.411,0.515-0.564c0.21-0.153,0.447-0.271,0.71-0.351
		c0.264-0.079,0.528-0.119,0.795-0.119c0.266,0,0.531,0.04,0.795,0.119c0.263,0.08,0.5,0.195,0.71,0.346
		c0.21,0.149,0.381,0.338,0.515,0.564c0.133,0.227,0.2,0.483,0.2,0.771c0,0.173-0.032,0.337-0.095,0.49
		c-0.063,0.153-0.15,0.295-0.26,0.425s-0.237,0.243-0.38,0.34C30,49.018,29.849,49.1,29.689,49.166
		c0.193,0.066,0.376,0.158,0.55,0.274c0.173,0.117,0.325,0.252,0.455,0.405c0.13,0.153,0.233,0.327,0.31,0.521
		C31.081,50.56,31.119,50.77,31.119,50.996z M30.429,50.946c0-0.24-0.054-0.452-0.16-0.636c-0.107-0.183-0.247-0.338-0.42-0.465
		c-0.174-0.126-0.367-0.224-0.58-0.29s-0.423-0.1-0.63-0.1c-0.22,0-0.434,0.035-0.64,0.104c-0.207,0.07-0.394,0.17-0.56,0.3
		c-0.167,0.131-0.3,0.289-0.4,0.476s-0.15,0.394-0.15,0.62c0,0.233,0.053,0.441,0.16,0.625c0.107,0.184,0.245,0.338,0.415,0.465
		s0.36,0.224,0.57,0.29s0.421,0.1,0.635,0.1s0.425-0.035,0.635-0.104c0.21-0.07,0.398-0.17,0.565-0.3
		c0.167-0.131,0.301-0.287,0.405-0.471C30.377,51.378,30.429,51.173,30.429,50.946z M27.119,47.706c0,0.193,0.046,0.365,0.14,0.515
		c0.093,0.15,0.213,0.276,0.36,0.38c0.146,0.104,0.312,0.182,0.495,0.235c0.184,0.054,0.362,0.08,0.535,0.08
		c0.18,0,0.36-0.026,0.54-0.08c0.18-0.054,0.345-0.134,0.495-0.24s0.271-0.236,0.365-0.39c0.094-0.154,0.14-0.327,0.14-0.521
		c0-0.187-0.043-0.354-0.13-0.505c-0.087-0.149-0.202-0.276-0.345-0.38s-0.308-0.182-0.495-0.235c-0.187-0.053-0.38-0.08-0.58-0.08
		c-0.194,0-0.382,0.029-0.565,0.086c-0.183,0.057-0.345,0.137-0.485,0.239c-0.14,0.104-0.253,0.232-0.34,0.386
		C27.162,47.35,27.119,47.52,27.119,47.706z"/>
	<path d="M32.269,52.966v-0.98h0.59v0.98H32.269z"/>
	<path d="M36.939,50.605c0.44,0.074,0.792,0.273,1.055,0.601c0.263,0.326,0.395,0.729,0.395,1.21c0,0.3-0.055,0.575-0.165,0.825
		c-0.11,0.25-0.267,0.463-0.47,0.64c-0.204,0.177-0.447,0.313-0.73,0.41c-0.284,0.097-0.599,0.145-0.945,0.145
		c-0.506,0-0.95-0.102-1.33-0.305s-0.667-0.485-0.86-0.845l0.47-0.431c0.14,0.294,0.353,0.527,0.64,0.7
		c0.286,0.174,0.646,0.26,1.08,0.26c0.5,0,0.894-0.121,1.18-0.364c0.287-0.244,0.43-0.592,0.43-1.045c0-0.46-0.15-0.823-0.45-1.091
		c-0.3-0.267-0.733-0.399-1.3-0.399h-0.25v-0.58h0.27c0.513,0,0.906-0.118,1.18-0.355c0.273-0.236,0.41-0.545,0.41-0.925
		c0-0.2-0.037-0.376-0.11-0.53c-0.074-0.153-0.175-0.281-0.305-0.385c-0.13-0.104-0.283-0.182-0.46-0.234
		c-0.177-0.054-0.369-0.08-0.575-0.08c-0.38,0-0.715,0.085-1.005,0.255c-0.29,0.17-0.508,0.404-0.655,0.705l-0.44-0.42
		c0.08-0.174,0.193-0.332,0.34-0.476c0.146-0.144,0.313-0.265,0.5-0.365s0.393-0.178,0.62-0.234c0.227-0.057,0.46-0.085,0.7-0.085
		c0.307,0,0.588,0.043,0.845,0.13c0.256,0.087,0.478,0.208,0.665,0.365c0.187,0.156,0.332,0.345,0.435,0.564
		c0.103,0.22,0.155,0.464,0.155,0.73c0,0.2-0.03,0.392-0.09,0.575c-0.06,0.183-0.147,0.347-0.26,0.489
		c-0.113,0.144-0.251,0.264-0.415,0.36C37.331,50.518,37.146,50.579,36.939,50.605z"/>
</g>
<g>
	<path d="M20.189,24.645c0-0.341,0.065-0.659,0.195-0.955c0.13-0.297,0.308-0.556,0.535-0.775c0.227-0.219,0.494-0.394,0.8-0.52
		c0.307-0.127,0.636-0.19,0.99-0.19c0.374,0,0.717,0.068,1.03,0.205c0.313,0.137,0.582,0.332,0.805,0.585
		c0.224,0.253,0.398,0.564,0.525,0.935c0.126,0.37,0.19,0.785,0.19,1.245c0,0.721-0.063,1.349-0.19,1.885
		c-0.127,0.537-0.305,0.983-0.535,1.341c-0.23,0.356-0.507,0.621-0.83,0.795c-0.323,0.173-0.678,0.26-1.065,0.26
		c-0.467,0-0.889-0.117-1.265-0.35s-0.662-0.558-0.855-0.971l0.44-0.399c0.14,0.34,0.362,0.611,0.665,0.814
		c0.303,0.203,0.642,0.306,1.015,0.306c0.293,0,0.56-0.07,0.8-0.21c0.24-0.141,0.447-0.342,0.62-0.605s0.307-0.587,0.4-0.97
		c0.093-0.384,0.144-0.822,0.15-1.315c-0.153,0.394-0.408,0.707-0.765,0.94c-0.357,0.233-0.762,0.35-1.215,0.35
		c-0.34,0-0.658-0.062-0.955-0.185c-0.297-0.124-0.555-0.294-0.775-0.511c-0.22-0.216-0.393-0.471-0.52-0.765
		S20.189,24.978,20.189,24.645z M22.699,22.804c-0.253,0-0.492,0.049-0.715,0.146c-0.223,0.097-0.42,0.229-0.59,0.395
		c-0.17,0.167-0.305,0.362-0.405,0.585c-0.1,0.224-0.15,0.462-0.15,0.716c0,0.253,0.05,0.491,0.15,0.715
		c0.1,0.223,0.235,0.418,0.405,0.585c0.17,0.166,0.367,0.298,0.59,0.395c0.224,0.097,0.462,0.146,0.715,0.146
		c0.253,0,0.493-0.049,0.72-0.146c0.227-0.097,0.423-0.229,0.59-0.395c0.167-0.167,0.298-0.362,0.395-0.585
		c0.096-0.224,0.145-0.462,0.145-0.715c0-0.247-0.049-0.482-0.145-0.705c-0.097-0.224-0.23-0.42-0.4-0.591
		c-0.17-0.17-0.367-0.303-0.59-0.399C23.19,22.853,22.952,22.804,22.699,22.804z"/>
	<path d="M31.119,25.944c0,0.313-0.067,0.595-0.2,0.845s-0.313,0.465-0.54,0.645c-0.227,0.181-0.492,0.319-0.795,0.415
		c-0.303,0.097-0.622,0.146-0.955,0.146c-0.354,0-0.68-0.055-0.98-0.165c-0.3-0.11-0.559-0.26-0.775-0.45
		c-0.217-0.189-0.385-0.411-0.505-0.665c-0.12-0.253-0.18-0.523-0.18-0.81c0-0.228,0.042-0.438,0.125-0.63s0.191-0.365,0.325-0.516
		c0.133-0.149,0.285-0.279,0.455-0.39c0.17-0.11,0.342-0.195,0.515-0.255c-0.16-0.066-0.31-0.148-0.45-0.245
		c-0.14-0.097-0.264-0.208-0.37-0.335c-0.107-0.127-0.192-0.267-0.255-0.42c-0.063-0.153-0.095-0.316-0.095-0.49
		c0-0.293,0.066-0.552,0.2-0.775c0.133-0.223,0.305-0.411,0.515-0.564c0.21-0.153,0.447-0.271,0.71-0.351
		c0.264-0.079,0.528-0.119,0.795-0.119c0.266,0,0.531,0.04,0.795,0.119c0.263,0.08,0.5,0.195,0.71,0.346
		c0.21,0.149,0.381,0.338,0.515,0.563c0.133,0.227,0.2,0.483,0.2,0.771c0,0.173-0.032,0.337-0.095,0.49s-0.15,0.295-0.26,0.425
		c-0.11,0.13-0.237,0.243-0.38,0.34c-0.144,0.097-0.295,0.179-0.455,0.245c0.193,0.066,0.376,0.158,0.55,0.274
		c0.173,0.117,0.325,0.252,0.455,0.405c0.13,0.153,0.233,0.327,0.31,0.521S31.119,25.718,31.119,25.944z M30.429,25.895
		c0-0.24-0.054-0.452-0.16-0.636c-0.107-0.183-0.247-0.338-0.42-0.465c-0.174-0.126-0.367-0.224-0.58-0.29s-0.423-0.1-0.63-0.1
		c-0.22,0-0.434,0.035-0.64,0.104c-0.207,0.07-0.394,0.17-0.56,0.3c-0.167,0.131-0.3,0.289-0.4,0.476s-0.15,0.394-0.15,0.62
		c0,0.233,0.053,0.441,0.16,0.625c0.107,0.184,0.245,0.338,0.415,0.465s0.36,0.224,0.57,0.29c0.21,0.066,0.421,0.1,0.635,0.1
		s0.425-0.035,0.635-0.104c0.21-0.07,0.398-0.17,0.565-0.3c0.167-0.131,0.301-0.287,0.405-0.471
		C30.377,26.326,30.429,26.121,30.429,25.895z M27.119,22.654c0,0.193,0.046,0.365,0.14,0.515c0.093,0.15,0.213,0.276,0.36,0.38
		c0.146,0.104,0.312,0.182,0.495,0.235c0.184,0.054,0.362,0.08,0.535,0.08c0.18,0,0.36-0.026,0.54-0.08
		c0.18-0.054,0.345-0.134,0.495-0.24s0.271-0.236,0.365-0.39c0.094-0.154,0.14-0.327,0.14-0.521c0-0.187-0.043-0.354-0.13-0.505
		c-0.087-0.149-0.202-0.276-0.345-0.38s-0.308-0.182-0.495-0.235c-0.187-0.053-0.38-0.08-0.58-0.08
		c-0.194,0-0.382,0.029-0.565,0.086c-0.183,0.057-0.345,0.137-0.485,0.239c-0.14,0.104-0.253,0.232-0.34,0.386
		S27.119,22.468,27.119,22.654z"/>
	<path d="M32.269,27.914v-0.98h0.59v0.98H32.269z"/>
	<path d="M37.069,29.184v-1.779h-3.33v-0.601l3.55-4.6h0.46v4.58h0.88v0.62h-0.88v1.779L37.069,29.184L37.069,29.184z
		 M34.459,26.784h2.68v-3.51L34.459,26.784z"/>
</g>
<g>
	<path d="M121.539,225.266v9.23h-0.896v-4.316h-5.473v4.316h-0.91v-9.23h0.91v4.108h5.473v-4.108H121.539z"/>
	<path d="M126.558,234.626c-0.494,0-0.945-0.093-1.353-0.278c-0.408-0.187-0.761-0.439-1.06-0.762
		c-0.299-0.32-0.53-0.693-0.695-1.118c-0.165-0.424-0.247-0.87-0.247-1.339c0-0.477,0.085-0.927,0.254-1.352
		c0.169-0.426,0.402-0.799,0.702-1.118c0.299-0.32,0.651-0.576,1.06-0.767c0.407-0.191,0.854-0.287,1.339-0.287
		s0.934,0.096,1.345,0.287c0.412,0.189,0.768,0.445,1.066,0.767c0.298,0.321,0.533,0.692,0.702,1.118
		c0.169,0.425,0.253,0.875,0.253,1.352c0,0.469-0.082,0.915-0.246,1.339c-0.165,0.425-0.396,0.798-0.696,1.118
		c-0.299,0.321-0.654,0.574-1.065,0.762C127.504,234.533,127.052,234.626,126.558,234.626z M124.101,231.143
		c0,0.381,0.064,0.734,0.194,1.06s0.306,0.61,0.527,0.858c0.221,0.246,0.48,0.439,0.779,0.578c0.299,0.139,0.618,0.207,0.956,0.207
		c0.338,0,0.656-0.07,0.955-0.214c0.299-0.144,0.562-0.338,0.786-0.585c0.226-0.247,0.403-0.535,0.533-0.865
		c0.13-0.328,0.195-0.684,0.195-1.064c0-0.373-0.065-0.727-0.195-1.061s-0.308-0.623-0.533-0.871
		c-0.225-0.246-0.487-0.441-0.786-0.584c-0.299-0.144-0.617-0.216-0.955-0.216c-0.338,0-0.655,0.072-0.949,0.216
		c-0.295,0.143-0.555,0.34-0.78,0.592c-0.226,0.25-0.403,0.543-0.533,0.877C124.165,230.402,124.101,230.761,124.101,231.143z"/>
	<path d="M133.525,234.626c-0.736,0-1.285-0.245-1.645-0.733c-0.36-0.49-0.539-1.221-0.539-2.19v-3.979h0.884v3.822
		c0,1.534,0.524,2.301,1.573,2.301c0.26,0,0.516-0.043,0.767-0.13c0.252-0.086,0.483-0.212,0.695-0.377
		c0.213-0.164,0.403-0.358,0.572-0.585c0.169-0.225,0.306-0.48,0.409-0.768v-4.264h0.885v5.629c0,0.242,0.104,0.363,0.312,0.363
		v0.78c-0.104,0.019-0.188,0.026-0.253,0.026s-0.111,0-0.137,0c-0.208-0.01-0.377-0.084-0.507-0.223s-0.195-0.324-0.195-0.559v-0.78
		c-0.295,0.529-0.695,0.938-1.202,1.229S134.098,234.626,133.525,234.626z"/>
	<path d="M142.509,228.503c-0.599,0.019-1.118,0.183-1.561,0.494c-0.442,0.312-0.754,0.741-0.936,1.287v4.212h-0.885v-6.773h0.832
		v1.625c0.252-0.52,0.59-0.927,1.015-1.222c0.424-0.294,0.879-0.44,1.364-0.44c0.069,0,0.126,0.004,0.17,0.013L142.509,228.503
		L142.509,228.503z"/>
	<path d="M145.939,234.626c-0.528,0-1.044-0.087-1.547-0.26c-0.503-0.175-0.936-0.425-1.3-0.755l0.403-0.598
		c0.381,0.312,0.769,0.547,1.163,0.701c0.395,0.156,0.817,0.234,1.268,0.234c0.546,0,0.981-0.11,1.307-0.332
		c0.325-0.221,0.487-0.534,0.487-0.942c0-0.19-0.043-0.349-0.13-0.475c-0.087-0.125-0.215-0.235-0.384-0.331
		s-0.381-0.18-0.637-0.254c-0.256-0.073-0.553-0.149-0.891-0.229c-0.39-0.095-0.728-0.189-1.014-0.285s-0.522-0.203-0.709-0.324
		s-0.325-0.271-0.416-0.448c-0.091-0.177-0.136-0.401-0.136-0.67c0-0.339,0.066-0.638,0.201-0.897
		c0.134-0.26,0.316-0.474,0.546-0.644c0.229-0.169,0.498-0.296,0.806-0.384c0.308-0.086,0.635-0.129,0.981-0.129
		c0.521,0,0.992,0.084,1.417,0.252c0.425,0.17,0.768,0.394,1.027,0.67l-0.429,0.521c-0.252-0.26-0.558-0.455-0.917-0.585
		c-0.359-0.13-0.734-0.193-1.124-0.193c-0.234,0-0.451,0.022-0.65,0.07c-0.199,0.049-0.375,0.123-0.526,0.229
		c-0.151,0.104-0.271,0.236-0.357,0.396c-0.086,0.16-0.13,0.349-0.13,0.565c0,0.182,0.03,0.328,0.091,0.441
		c0.061,0.112,0.16,0.211,0.299,0.293c0.139,0.082,0.314,0.155,0.526,0.221c0.213,0.064,0.471,0.133,0.773,0.201
		c0.434,0.104,0.814,0.209,1.145,0.312c0.329,0.104,0.604,0.227,0.825,0.363c0.221,0.139,0.388,0.309,0.501,0.508
		c0.112,0.199,0.169,0.441,0.169,0.729c0,0.623-0.238,1.117-0.715,1.481C147.387,234.443,146.746,234.626,145.939,234.626z"/>
	<path d="M155.04,234.626c-0.32,0-0.617-0.054-0.891-0.162c-0.272-0.108-0.511-0.258-0.715-0.448
		c-0.203-0.19-0.361-0.414-0.475-0.67c-0.112-0.256-0.169-0.531-0.169-0.824c0-0.295,0.069-0.568,0.208-0.819
		c0.139-0.251,0.334-0.468,0.585-0.65c0.252-0.182,0.551-0.321,0.897-0.422c0.346-0.1,0.728-0.149,1.144-0.149
		c0.347,0,0.698,0.03,1.054,0.092c0.354,0.061,0.671,0.146,0.948,0.26v-0.611c0-0.598-0.169-1.072-0.507-1.423
		c-0.338-0.353-0.806-0.526-1.404-0.526c-0.347,0-0.701,0.069-1.065,0.209c-0.364,0.139-0.732,0.338-1.105,0.598l-0.312-0.585
		c0.875-0.591,1.725-0.884,2.548-0.884c0.85,0,1.517,0.238,2.002,0.715c0.485,0.477,0.729,1.136,0.729,1.976v3.056
		c0,0.242,0.107,0.363,0.324,0.363v0.78c-0.147,0.026-0.26,0.039-0.338,0.039c-0.226,0-0.4-0.058-0.526-0.169
		c-0.126-0.112-0.192-0.27-0.201-0.469l-0.026-0.532c-0.312,0.407-0.704,0.72-1.177,0.937
		C156.096,234.518,155.586,234.626,155.04,234.626z M155.248,233.95c0.46,0,0.882-0.087,1.268-0.261
		c0.386-0.174,0.678-0.402,0.878-0.688c0.078-0.078,0.137-0.162,0.175-0.253c0.039-0.092,0.059-0.176,0.059-0.254v-1.105
		c-0.294-0.111-0.6-0.199-0.916-0.26s-0.64-0.091-0.969-0.091c-0.624,0-1.131,0.13-1.521,0.39c-0.391,0.262-0.585,0.604-0.585,1.027
		c0,0.208,0.041,0.402,0.123,0.585c0.082,0.183,0.195,0.34,0.338,0.476c0.144,0.135,0.314,0.239,0.514,0.317
		C154.812,233.911,155.022,233.95,155.248,233.95z"/>
	<path d="M160.747,234.496v-6.071h-0.937v-0.702h0.937v-0.182c0-0.832,0.178-1.484,0.532-1.956c0.355-0.474,0.842-0.709,1.457-0.709
		c0.269,0,0.527,0.039,0.779,0.117c0.252,0.077,0.469,0.182,0.649,0.312l-0.272,0.639c-0.121-0.096-0.271-0.17-0.449-0.223
		c-0.178-0.052-0.356-0.076-0.539-0.076c-0.416,0-0.731,0.16-0.948,0.479c-0.218,0.321-0.325,0.784-0.325,1.392v0.207h1.872v0.702
		h-1.872v6.071H160.747z"/>
	<path d="M167.961,234.171c-0.052,0.026-0.128,0.062-0.229,0.104c-0.1,0.043-0.213,0.086-0.344,0.13
		c-0.13,0.043-0.277,0.081-0.441,0.116c-0.165,0.035-0.338,0.053-0.521,0.053c-0.19,0-0.372-0.026-0.547-0.078
		c-0.173-0.053-0.323-0.132-0.454-0.24c-0.131-0.107-0.234-0.244-0.312-0.41c-0.078-0.164-0.117-0.354-0.117-0.57v-4.851h-0.937
		v-0.702h0.937v-2.287h0.884v2.287h1.561v0.702h-1.561v4.603c0.018,0.252,0.105,0.437,0.268,0.554
		c0.16,0.116,0.345,0.175,0.553,0.175c0.251,0,0.473-0.041,0.662-0.123c0.191-0.082,0.312-0.141,0.365-0.176L167.961,234.171z"/>
	<path d="M171.992,234.626c-0.494,0-0.947-0.093-1.359-0.278c-0.41-0.188-0.769-0.443-1.072-0.768
		c-0.303-0.325-0.539-0.7-0.707-1.125c-0.17-0.426-0.254-0.88-0.254-1.365c0-0.477,0.084-0.925,0.254-1.346
		c0.168-0.42,0.401-0.788,0.701-1.104c0.299-0.316,0.656-0.567,1.072-0.755c0.416-0.187,0.866-0.278,1.352-0.278
		c0.494,0,0.947,0.093,1.358,0.278c0.412,0.188,0.767,0.439,1.06,0.761c0.295,0.32,0.524,0.688,0.689,1.104
		c0.164,0.416,0.247,0.858,0.247,1.326c0,0.069,0,0.139,0,0.208c0,0.068-0.005,0.117-0.015,0.143h-5.797
		c0.025,0.364,0.109,0.7,0.254,1.008c0.143,0.309,0.326,0.574,0.553,0.801c0.225,0.226,0.482,0.399,0.773,0.525
		c0.289,0.127,0.6,0.188,0.93,0.188c0.216,0,0.433-0.03,0.648-0.091c0.217-0.062,0.416-0.145,0.598-0.248
		c0.184-0.104,0.348-0.231,0.494-0.383c0.147-0.152,0.262-0.318,0.338-0.5l0.769,0.207c-0.104,0.252-0.252,0.479-0.442,0.683
		c-0.189,0.204-0.41,0.382-0.662,0.532c-0.252,0.152-0.528,0.27-0.832,0.353C172.639,234.585,172.32,234.626,171.992,234.626z
		 M174.488,230.752c-0.026-0.363-0.111-0.695-0.254-0.994c-0.145-0.299-0.325-0.557-0.547-0.773
		c-0.221-0.215-0.477-0.385-0.768-0.506c-0.29-0.123-0.6-0.184-0.929-0.184c-0.33,0-0.642,0.061-0.937,0.184
		c-0.296,0.121-0.554,0.289-0.773,0.506c-0.221,0.218-0.398,0.478-0.533,0.779c-0.135,0.305-0.214,0.633-0.24,0.988H174.488z"/>
	<path d="M180.078,228.503c-0.6,0.019-1.118,0.183-1.561,0.494s-0.754,0.741-0.937,1.287v4.212h-0.886v-6.773h0.832v1.625
		c0.252-0.52,0.591-0.927,1.016-1.222c0.424-0.294,0.879-0.44,1.364-0.44c0.069,0,0.126,0.004,0.17,0.013L180.078,228.503
		L180.078,228.503z"/>
	<path d="M190.867,231.454c0,0.442-0.084,0.856-0.254,1.241c-0.168,0.386-0.4,0.722-0.694,1.008
		c-0.295,0.285-0.642,0.512-1.04,0.676c-0.398,0.165-0.828,0.247-1.287,0.247c-0.484,0-0.932-0.089-1.339-0.267
		s-0.757-0.432-1.047-0.762c-0.29-0.328-0.519-0.734-0.683-1.215c-0.166-0.48-0.248-1.021-0.248-1.619
		c0-0.936,0.082-1.752,0.248-2.449c0.164-0.697,0.396-1.278,0.694-1.742c0.3-0.463,0.657-0.809,1.073-1.033s0.879-0.338,1.391-0.338
		c0.615,0,1.166,0.15,1.651,0.455c0.485,0.304,0.854,0.724,1.104,1.261l-0.572,0.521c-0.182-0.441-0.469-0.795-0.857-1.06
		c-0.391-0.265-0.832-0.396-1.326-0.396c-0.382,0-0.729,0.091-1.039,0.271c-0.312,0.184-0.578,0.444-0.801,0.787
		c-0.221,0.342-0.395,0.766-0.52,1.268c-0.127,0.502-0.188,1.07-0.188,1.702c0.19-0.511,0.519-0.918,0.981-1.222
		c0.463-0.305,0.99-0.455,1.578-0.455c0.443,0,0.856,0.08,1.242,0.24c0.385,0.16,0.722,0.382,1.008,0.662
		c0.285,0.283,0.512,0.613,0.676,0.996C190.785,230.613,190.867,231.021,190.867,231.454z M187.617,233.846
		c0.33,0,0.64-0.062,0.93-0.188c0.29-0.125,0.546-0.297,0.768-0.514s0.395-0.471,0.521-0.761s0.188-0.601,0.188-0.93
		s-0.064-0.64-0.195-0.931c-0.13-0.289-0.305-0.543-0.526-0.76c-0.221-0.217-0.477-0.389-0.767-0.514
		c-0.291-0.126-0.602-0.188-0.93-0.188c-0.33,0-0.64,0.062-0.931,0.188c-0.29,0.125-0.546,0.297-0.767,0.514
		s-0.395,0.471-0.521,0.76c-0.125,0.291-0.188,0.602-0.188,0.931s0.064,0.637,0.195,0.923c0.129,0.286,0.306,0.54,0.525,0.762
		c0.221,0.221,0.477,0.395,0.768,0.52S187.288,233.846,187.617,233.846z"/>
	<path d="M197.432,234.626c-0.32,0-0.617-0.054-0.891-0.162c-0.271-0.108-0.512-0.258-0.715-0.448s-0.361-0.414-0.475-0.67
		s-0.17-0.531-0.17-0.824c0-0.295,0.069-0.568,0.209-0.819c0.139-0.251,0.334-0.468,0.584-0.65c0.252-0.182,0.551-0.321,0.897-0.422
		c0.346-0.1,0.728-0.149,1.144-0.149c0.348,0,0.698,0.03,1.055,0.092c0.354,0.061,0.671,0.146,0.947,0.26v-0.611
		c0-0.598-0.168-1.072-0.507-1.423c-0.338-0.353-0.806-0.526-1.403-0.526c-0.348,0-0.701,0.069-1.065,0.209
		c-0.364,0.139-0.731,0.338-1.104,0.598l-0.312-0.585c0.875-0.591,1.725-0.884,2.548-0.884c0.851,0,1.517,0.238,2.002,0.715
		s0.729,1.136,0.729,1.976v3.056c0,0.242,0.106,0.363,0.324,0.363v0.78c-0.147,0.026-0.261,0.039-0.338,0.039
		c-0.227,0-0.4-0.058-0.527-0.169c-0.125-0.112-0.191-0.27-0.2-0.469l-0.026-0.532c-0.312,0.407-0.703,0.72-1.177,0.937
		C198.486,234.518,197.979,234.626,197.432,234.626z M197.641,233.95c0.459,0,0.881-0.087,1.268-0.261
		c0.386-0.174,0.678-0.402,0.878-0.688c0.078-0.078,0.137-0.162,0.175-0.253c0.039-0.092,0.059-0.176,0.059-0.254v-1.105
		c-0.293-0.111-0.6-0.199-0.916-0.26c-0.315-0.061-0.64-0.091-0.969-0.091c-0.623,0-1.131,0.13-1.521,0.39
		c-0.392,0.262-0.585,0.604-0.585,1.027c0,0.208,0.041,0.402,0.123,0.585s0.195,0.34,0.338,0.476
		c0.144,0.135,0.314,0.239,0.514,0.317C197.204,233.911,197.414,233.95,197.641,233.95z"/>
	<path d="M212.889,234.496h-0.884v-3.783c0-0.788-0.126-1.369-0.377-1.742c-0.252-0.371-0.624-0.559-1.118-0.559
		c-0.26,0-0.505,0.048-0.734,0.143c-0.229,0.096-0.441,0.23-0.637,0.403c-0.195,0.174-0.365,0.379-0.514,0.617
		c-0.146,0.239-0.26,0.501-0.338,0.786v4.135h-0.885v-3.783c0-0.806-0.121-1.391-0.363-1.755c-0.243-0.364-0.615-0.546-1.118-0.546
		c-0.512,0-0.967,0.178-1.364,0.533c-0.398,0.354-0.686,0.822-0.857,1.402v4.147h-0.885v-6.772h0.807v1.533
		c0.277-0.52,0.641-0.925,1.092-1.215c0.45-0.291,0.949-0.436,1.495-0.436c0.572,0,1.028,0.16,1.371,0.479
		c0.343,0.321,0.553,0.741,0.631,1.261c0.633-1.16,1.503-1.74,2.613-1.74c0.381,0,0.704,0.068,0.968,0.207
		c0.266,0.14,0.477,0.336,0.639,0.592c0.159,0.256,0.276,0.562,0.351,0.923c0.073,0.36,0.11,0.761,0.11,1.202v3.967H212.889z"/>
</g>
<g>
	<path d="M12.215,162.779c0.347,0,0.665,0.07,0.955,0.209c0.291,0.139,0.542,0.324,0.754,0.559c0.213,0.234,0.377,0.508,0.494,0.818
		c0.117,0.312,0.176,0.646,0.176,1.002v4.354h-9.23v-4.445c0-0.32,0.07-0.61,0.208-0.871c0.14-0.26,0.319-0.48,0.54-0.662
		c0.221-0.182,0.473-0.323,0.754-0.424c0.282-0.1,0.565-0.148,0.852-0.148c0.468,0,0.895,0.117,1.28,0.352
		c0.386,0.233,0.674,0.56,0.864,0.976c0.156-0.529,0.447-0.947,0.871-1.255C11.157,162.934,11.651,162.779,12.215,162.779z
		 M6.157,168.812h3.405v-3.172c0-0.228-0.047-0.437-0.143-0.632c-0.096-0.194-0.221-0.362-0.377-0.501
		c-0.156-0.138-0.336-0.247-0.54-0.324c-0.203-0.078-0.418-0.117-0.644-0.117c-0.233,0-0.455,0.037-0.663,0.11
		s-0.388,0.179-0.539,0.312c-0.151,0.136-0.273,0.293-0.364,0.476s-0.136,0.382-0.136,0.599L6.157,168.812L6.157,168.812z
		 M12.059,163.689c-0.226,0-0.444,0.039-0.656,0.117c-0.212,0.077-0.398,0.188-0.56,0.332c-0.16,0.143-0.29,0.312-0.39,0.506
		s-0.149,0.405-0.149,0.631v3.537h3.497v-3.445c0-0.234-0.048-0.453-0.143-0.656c-0.096-0.204-0.224-0.382-0.384-0.533
		c-0.16-0.152-0.347-0.271-0.56-0.357C12.503,163.732,12.284,163.689,12.059,163.689z"/>
	<path d="M14.724,158.359c0,0.494-0.093,0.945-0.279,1.354c-0.187,0.406-0.439,0.76-0.761,1.059
		c-0.32,0.299-0.693,0.531-1.118,0.695c-0.424,0.165-0.871,0.248-1.339,0.248c-0.477,0-0.927-0.085-1.352-0.254
		c-0.425-0.17-0.798-0.402-1.118-0.702c-0.32-0.3-0.576-0.651-0.767-1.06c-0.191-0.407-0.286-0.854-0.286-1.34
		c0-0.484,0.095-0.935,0.286-1.346c0.19-0.41,0.446-0.767,0.767-1.064c0.321-0.299,0.693-0.533,1.118-0.703
		c0.425-0.168,0.875-0.253,1.352-0.253c0.468,0,0.915,0.083,1.339,0.247c0.425,0.164,0.798,0.396,1.118,0.695
		c0.321,0.299,0.574,0.653,0.761,1.065S14.724,157.866,14.724,158.359z M11.24,160.816c0.381,0,0.734-0.064,1.059-0.194
		c0.325-0.13,0.611-0.306,0.858-0.526c0.247-0.22,0.44-0.479,0.578-0.779c0.139-0.299,0.208-0.617,0.208-0.955
		c0-0.34-0.071-0.657-0.214-0.957c-0.144-0.299-0.338-0.561-0.585-0.785s-0.535-0.403-0.865-0.533
		c-0.329-0.13-0.684-0.193-1.065-0.193c-0.373,0-0.726,0.063-1.06,0.193s-0.624,0.309-0.871,0.533
		c-0.247,0.225-0.442,0.486-0.585,0.785c-0.143,0.3-0.215,0.617-0.215,0.957c0,0.338,0.072,0.654,0.215,0.947
		c0.143,0.295,0.34,0.555,0.592,0.781c0.251,0.225,0.544,0.402,0.877,0.532C10.501,160.752,10.858,160.816,11.24,160.816z"/>
	<path d="M14.724,150.729c0,0.469-0.098,0.901-0.292,1.301c-0.195,0.397-0.453,0.74-0.773,1.027
		c-0.321,0.284-0.691,0.508-1.112,0.668c-0.42,0.161-0.859,0.241-1.319,0.241c-0.477,0-0.93-0.077-1.358-0.233
		c-0.428-0.156-0.804-0.371-1.124-0.645c-0.321-0.271-0.574-0.599-0.761-0.977c-0.187-0.377-0.279-0.789-0.279-1.239
		c0-0.572,0.149-1.08,0.448-1.521c0.299-0.442,0.661-0.789,1.085-1.041H5.104v-0.884h8.347c0.242,0,0.363-0.104,0.363-0.312h0.78
		c0.026,0.13,0.039,0.234,0.039,0.312c0,0.207-0.067,0.39-0.201,0.546c-0.135,0.155-0.297,0.233-0.488,0.233H13.28
		c0.442,0.271,0.794,0.633,1.054,1.092C14.594,149.759,14.724,150.234,14.724,150.729z M13.943,150.534
		c0-0.216-0.043-0.448-0.13-0.695c-0.086-0.247-0.205-0.479-0.357-0.694c-0.151-0.218-0.329-0.401-0.533-0.554
		c-0.203-0.151-0.422-0.245-0.656-0.278h-2.093c-0.234,0.086-0.453,0.211-0.656,0.377c-0.204,0.164-0.384,0.353-0.54,0.564
		c-0.156,0.212-0.277,0.439-0.364,0.684c-0.086,0.242-0.13,0.48-0.13,0.715c0,0.363,0.078,0.692,0.234,0.986
		c0.156,0.295,0.362,0.549,0.617,0.762c0.256,0.213,0.549,0.375,0.878,0.486c0.329,0.113,0.667,0.17,1.014,0.17
		c0.364,0,0.711-0.064,1.04-0.195c0.33-0.129,0.617-0.308,0.864-0.532c0.247-0.226,0.444-0.492,0.592-0.8
		C13.87,151.221,13.943,150.891,13.943,150.534z"/>
	<path d="M16.674,145.035c0.009-0.068,0.015-0.137,0.02-0.201c0.004-0.064,0.007-0.128,0.007-0.188c0-0.156-0.022-0.28-0.065-0.371
		c-0.044-0.092-0.139-0.18-0.286-0.268c-0.147-0.086-0.359-0.184-0.637-0.292c-0.278-0.108-0.65-0.262-1.118-0.462l-6.773,2.951
		v-0.91l5.954-2.508l-5.954-2.328v-0.846l8.736,3.512c0.251,0.095,0.47,0.253,0.656,0.475c0.187,0.221,0.28,0.521,0.28,0.902
		c0,0.088-0.003,0.17-0.007,0.248c-0.005,0.077-0.016,0.173-0.032,0.285H16.674L16.674,145.035z"/>
	<path d="M6.17,128.33v3.289h8.424v0.91H6.17v3.289H5.363v-7.488H6.17z"/>
	<path d="M14.724,124.21c0,0.494-0.093,0.946-0.279,1.358s-0.442,0.77-0.767,1.072c-0.325,0.303-0.7,0.539-1.125,0.709
		c-0.425,0.168-0.88,0.254-1.365,0.254c-0.477,0-0.925-0.086-1.346-0.254c-0.42-0.17-0.788-0.404-1.104-0.703
		c-0.316-0.299-0.567-0.656-0.754-1.072s-0.279-0.865-0.279-1.352c0-0.494,0.093-0.947,0.279-1.358s0.439-0.765,0.761-1.06
		c0.32-0.295,0.688-0.523,1.104-0.689c0.416-0.164,0.858-0.246,1.326-0.246c0.069,0,0.139,0,0.208,0
		c0.069,0,0.117,0.004,0.143,0.013v5.798c0.364-0.025,0.7-0.109,1.008-0.254c0.308-0.143,0.574-0.326,0.8-0.552
		s0.4-0.483,0.526-0.772c0.126-0.291,0.188-0.602,0.188-0.931c0-0.217-0.03-0.433-0.091-0.649c-0.061-0.215-0.144-0.416-0.247-0.599
		c-0.104-0.183-0.232-0.347-0.384-0.494c-0.152-0.146-0.318-0.26-0.5-0.338l0.208-0.767c0.251,0.104,0.479,0.251,0.682,0.441
		c0.204,0.191,0.382,0.412,0.533,0.663c0.152,0.251,0.269,0.528,0.352,0.832C14.683,123.564,14.724,123.881,14.724,124.21z
		 M10.85,121.714c-0.364,0.026-0.695,0.11-0.994,0.253c-0.299,0.144-0.557,0.326-0.773,0.547c-0.216,0.221-0.386,0.477-0.507,0.767
		c-0.122,0.289-0.183,0.601-0.183,0.93s0.061,0.643,0.183,0.938c0.121,0.293,0.29,0.552,0.507,0.772
		c0.217,0.222,0.477,0.397,0.779,0.532c0.304,0.135,0.633,0.215,0.988,0.24V121.714z"/>
	<path d="M14.594,109.429v0.884h-3.783c-0.788,0-1.369,0.126-1.742,0.377c-0.372,0.251-0.559,0.624-0.559,1.119
		c0,0.26,0.048,0.504,0.143,0.734c0.096,0.229,0.23,0.441,0.403,0.637c0.174,0.195,0.379,0.366,0.617,0.514
		c0.239,0.146,0.501,0.26,0.787,0.338h4.134v0.884h-3.783c-0.806,0-1.391,0.122-1.755,0.364c-0.364,0.242-0.546,0.615-0.546,1.117
		c0,0.512,0.178,0.967,0.533,1.365s0.823,0.686,1.403,0.858h4.147v0.884H7.82v-0.806h1.534c-0.52-0.277-0.925-0.642-1.215-1.093
		c-0.291-0.45-0.436-0.948-0.436-1.494c0-0.572,0.16-1.029,0.48-1.371c0.321-0.343,0.741-0.553,1.261-0.631
		c-1.161-0.633-1.741-1.504-1.741-2.613c0-0.381,0.069-0.704,0.208-0.969c0.139-0.264,0.336-0.477,0.591-0.637
		c0.256-0.16,0.563-0.277,0.923-0.351c0.36-0.074,0.761-0.11,1.203-0.11H14.594z"/>
	<path d="M14.724,104.099c0,0.572-0.145,1.077-0.436,1.515c-0.29,0.438-0.656,0.791-1.099,1.06h4.173v0.884H7.82v-0.793h1.313
		c-0.425-0.277-0.77-0.637-1.033-1.079c-0.265-0.442-0.396-0.923-0.396-1.443c0-0.468,0.097-0.897,0.292-1.287
		c0.195-0.39,0.455-0.728,0.78-1.014c0.325-0.286,0.7-0.509,1.124-0.67c0.425-0.16,0.863-0.24,1.313-0.24
		c0.477,0,0.928,0.074,1.352,0.221c0.425,0.147,0.798,0.357,1.118,0.63c0.321,0.273,0.574,0.598,0.761,0.975
		S14.724,103.649,14.724,104.099z M13.943,104.346c0-0.364-0.077-0.695-0.233-0.995c-0.156-0.299-0.362-0.554-0.618-0.767
		c-0.255-0.212-0.546-0.375-0.87-0.488c-0.325-0.112-0.661-0.169-1.008-0.169c-0.364,0-0.711,0.065-1.04,0.195
		c-0.329,0.13-0.619,0.308-0.871,0.533c-0.251,0.226-0.45,0.492-0.598,0.799c-0.147,0.308-0.222,0.639-0.222,0.995
		c0,0.226,0.046,0.461,0.137,0.708c0.091,0.247,0.213,0.477,0.364,0.689c0.151,0.212,0.329,0.395,0.533,0.546
		c0.203,0.152,0.418,0.245,0.644,0.28h2.08c0.242-0.104,0.468-0.236,0.676-0.396c0.208-0.16,0.388-0.342,0.539-0.546
		c0.152-0.204,0.271-0.423,0.357-0.657C13.9,104.84,13.943,104.598,13.943,104.346z"/>
	<path d="M14.724,96.611c0,0.494-0.093,0.947-0.279,1.358c-0.186,0.411-0.442,0.769-0.767,1.072c-0.325,0.304-0.7,0.54-1.125,0.708
		c-0.425,0.169-0.88,0.254-1.365,0.254c-0.477,0-0.925-0.084-1.346-0.254c-0.42-0.169-0.788-0.403-1.104-0.702
		c-0.316-0.299-0.567-0.657-0.754-1.073s-0.279-0.866-0.279-1.352c0-0.494,0.093-0.947,0.279-1.358
		c0.186-0.411,0.439-0.765,0.761-1.06c0.32-0.294,0.688-0.524,1.104-0.689s0.858-0.247,1.326-0.247c0.069,0,0.139,0,0.208,0
		c0.069,0,0.117,0.005,0.143,0.013v5.798c0.364-0.026,0.7-0.11,1.008-0.253c0.308-0.143,0.574-0.327,0.8-0.552
		c0.226-0.226,0.4-0.483,0.526-0.773c0.126-0.291,0.188-0.6,0.188-0.93c0-0.217-0.03-0.433-0.091-0.65
		c-0.061-0.217-0.144-0.416-0.247-0.598c-0.104-0.182-0.232-0.347-0.384-0.494c-0.151-0.147-0.318-0.26-0.5-0.338l0.208-0.767
		c0.251,0.104,0.479,0.251,0.682,0.442c0.204,0.191,0.382,0.412,0.533,0.663c0.152,0.251,0.269,0.529,0.352,0.832
		C14.683,95.966,14.724,96.282,14.724,96.611z M10.85,94.115c-0.364,0.026-0.695,0.11-0.994,0.253
		c-0.299,0.143-0.557,0.325-0.773,0.546c-0.217,0.221-0.386,0.477-0.507,0.767c-0.122,0.291-0.183,0.6-0.183,0.93
		c0,0.33,0.061,0.642,0.183,0.936c0.121,0.294,0.29,0.552,0.507,0.773c0.217,0.221,0.477,0.398,0.779,0.533
		c0.304,0.135,0.633,0.215,0.988,0.241V94.115z"/>
	<path d="M8.601,88.525c0.018,0.598,0.183,1.118,0.494,1.56c0.312,0.442,0.741,0.754,1.287,0.936h4.212v0.884H7.82v-0.832h1.625
		c-0.52-0.251-0.927-0.589-1.222-1.014c-0.294-0.425-0.441-0.88-0.441-1.365c0-0.069,0.004-0.125,0.013-0.169H8.601z"/>
	<path d="M14.724,85.639c0,0.321-0.054,0.618-0.162,0.891c-0.108,0.272-0.258,0.512-0.449,0.715
		c-0.19,0.204-0.413,0.362-0.669,0.474c-0.256,0.113-0.531,0.169-0.825,0.169c-0.295,0-0.568-0.069-0.819-0.208
		c-0.251-0.138-0.468-0.333-0.65-0.585c-0.182-0.251-0.322-0.55-0.422-0.896c-0.1-0.346-0.149-0.729-0.149-1.144
		c0-0.346,0.03-0.697,0.091-1.053s0.147-0.671,0.26-0.949h-0.611c-0.598,0-1.072,0.169-1.423,0.507
		c-0.352,0.338-0.526,0.806-0.526,1.404c0,0.347,0.069,0.702,0.208,1.066c0.139,0.364,0.338,0.732,0.598,1.105l-0.585,0.312
		c-0.59-0.875-0.884-1.725-0.884-2.548c0-0.849,0.238-1.517,0.715-2.002s1.136-0.728,1.976-0.728h3.056
		c0.242,0,0.363-0.108,0.363-0.325h0.78c0.026,0.147,0.039,0.26,0.039,0.338c0,0.226-0.057,0.401-0.169,0.527
		c-0.112,0.126-0.269,0.193-0.468,0.201l-0.533,0.026c0.407,0.312,0.72,0.704,0.936,1.176
		C14.615,84.584,14.724,85.093,14.724,85.639z M14.048,85.431c0-0.459-0.087-0.881-0.26-1.267c-0.174-0.386-0.403-0.678-0.689-0.877
		c-0.078-0.078-0.162-0.137-0.253-0.176c-0.092-0.039-0.176-0.059-0.254-0.059h-1.105c-0.112,0.295-0.199,0.601-0.26,0.917
		c-0.061,0.316-0.091,0.639-0.091,0.969c0,0.624,0.13,1.131,0.39,1.521c0.261,0.39,0.603,0.585,1.027,0.585
		c0.208,0,0.403-0.041,0.585-0.124c0.182-0.083,0.34-0.195,0.475-0.338c0.135-0.143,0.24-0.314,0.318-0.514
		C14.009,85.869,14.048,85.657,14.048,85.431z"/>
	<path d="M14.269,77.007c0.026,0.052,0.061,0.128,0.104,0.228s0.087,0.214,0.13,0.345c0.043,0.13,0.082,0.277,0.117,0.442
		c0.034,0.165,0.052,0.338,0.052,0.52c0,0.19-0.026,0.373-0.078,0.546c-0.052,0.173-0.132,0.325-0.24,0.455s-0.245,0.234-0.41,0.312
		c-0.164,0.078-0.354,0.117-0.571,0.117h-4.85v0.936H7.82v-0.936H5.533v-0.884H7.82v-1.56h0.702v1.56h4.603
		c0.251-0.017,0.436-0.106,0.553-0.267c0.116-0.16,0.175-0.344,0.175-0.552c0-0.251-0.041-0.472-0.123-0.663
		c-0.082-0.19-0.141-0.312-0.176-0.364L14.269,77.007z"/>
	<path d="M14.724,73.783c0,0.737-0.245,1.285-0.734,1.645c-0.489,0.36-1.22,0.54-2.19,0.54H7.82v-0.884h3.822
		c1.534,0,2.301-0.524,2.301-1.574c0-0.26-0.043-0.516-0.13-0.766c-0.086-0.252-0.212-0.484-0.377-0.695
		c-0.164-0.213-0.359-0.404-0.585-0.572c-0.225-0.17-0.48-0.307-0.767-0.41H7.82v-0.885h5.63c0.242,0,0.363-0.104,0.363-0.311h0.78
		c0.018,0.104,0.026,0.188,0.026,0.252c0,0.066,0,0.111,0,0.137c-0.009,0.209-0.083,0.377-0.222,0.508
		c-0.139,0.129-0.324,0.195-0.559,0.195h-0.78c0.529,0.295,0.938,0.695,1.229,1.201C14.579,72.672,14.724,73.211,14.724,73.783z"/>
	<path d="M8.601,64.8c0.018,0.599,0.183,1.118,0.494,1.561c0.312,0.442,0.741,0.754,1.287,0.936h4.212v0.885H7.82V67.35h1.625
		c-0.52-0.252-0.927-0.59-1.222-1.015c-0.293-0.425-0.441-0.88-0.441-1.365c0-0.069,0.004-0.126,0.013-0.17H8.601z"/>
	<path d="M14.724,60.692c0,0.494-0.093,0.947-0.279,1.359c-0.187,0.411-0.442,0.769-0.767,1.072c-0.325,0.303-0.7,0.539-1.125,0.708
		c-0.425,0.169-0.88,0.254-1.365,0.254c-0.477,0-0.925-0.085-1.346-0.254c-0.42-0.169-0.788-0.402-1.104-0.702
		c-0.316-0.299-0.567-0.656-0.754-1.072s-0.279-0.866-0.279-1.352c0-0.494,0.093-0.947,0.279-1.358
		c0.187-0.412,0.439-0.766,0.761-1.06c0.32-0.295,0.688-0.524,1.104-0.689c0.416-0.164,0.858-0.247,1.326-0.247
		c0.069,0,0.139,0,0.208,0c0.069,0,0.117,0.005,0.143,0.014v5.798c0.364-0.026,0.7-0.11,1.008-0.254
		c0.308-0.143,0.574-0.327,0.8-0.553c0.226-0.225,0.4-0.482,0.526-0.773c0.126-0.29,0.188-0.6,0.188-0.93
		c0-0.216-0.03-0.433-0.091-0.649s-0.144-0.416-0.247-0.598c-0.104-0.183-0.232-0.347-0.384-0.494
		c-0.152-0.147-0.318-0.261-0.5-0.338l0.208-0.768c0.251,0.104,0.479,0.252,0.682,0.442c0.204,0.19,0.382,0.411,0.533,0.663
		c0.152,0.251,0.269,0.528,0.352,0.832C14.683,60.047,14.724,60.363,14.724,60.692z M10.85,58.196
		c-0.364,0.026-0.695,0.111-0.994,0.254c-0.299,0.144-0.557,0.325-0.773,0.546c-0.216,0.221-0.386,0.477-0.507,0.768
		c-0.122,0.29-0.183,0.6-0.183,0.929c0,0.33,0.061,0.642,0.183,0.937c0.121,0.295,0.29,0.553,0.507,0.773
		c0.217,0.22,0.477,0.398,0.779,0.533c0.304,0.134,0.633,0.214,0.988,0.24V58.196z"/>
</g>
<line fill="none" stroke="#000000" stroke-width="1.5" stroke-linecap="round" x1="46.294" y1="12.5" x2="46.294" y2="203.275"/>
<line fill="none" stroke="#000000" stroke-width="1.5" stroke-linecap="round" x1="304.5" y1="203.275" x2="45.449" y2="203.275"/>
<circle fill="#00BFFF" stroke="#000000" cx="56.673" cy="189.004" r="5.069"/>
<circle fill="#00BFFF" stroke="#000000" cx="68.123" cy="176.835" r="5.069"/>
<circle fill="#00BFFF" stroke="#000000" cx="77.59" cy="152.172" r="5.069"/>
<circle fill="#00BFFF" stroke="#000000" cx="87.756" cy="127.175" r="5.069"/>
<circle fill="#00BFFF" stroke="#000000" cx="97.755" cy="77.18" r="5.069"/>
<circle fill="#00BFFF" stroke="#000000" cx="108.389" cy="38.719" r="5.069"/>
<circle fill="#00BFFF" stroke="#000000" cx="118.388" cy="27.553" r="5.069"/>
<circle fill="#00BFFF" stroke="#000000" cx="129.011" cy="25.386" r="5.069"/>
<circle fill="#00BFFF" stroke="#000000" cx="138.751" cy="53.384" r="5.069"/>
<circle fill="#00BFFF" stroke="#000000" cx="148.749" cy="28.386" r="5.069"/>
<circle fill="#00BFFF" stroke="#000000" cx="160.915" cy="26.886" r="5.069"/>
<circle fill="#00BFFF" stroke="#000000" cx="180.568" cy="39.219" r="5.069"/>
<circle fill="#00BFFF" stroke="#000000" cx="190.579" cy="39.219" r="5.069"/>
<circle fill="#00BFFF" stroke="#000000" cx="200.911" cy="39.219" r="5.069"/>
<circle fill="#00BFFF" stroke="#000000" cx="210.577" cy="51.884" r="5.069"/>
<circle fill="#00BFFF" stroke="#000000" cx="222.911" cy="51.884" r="5.069"/>
<circle fill="#00BFFF" stroke="#000000" cx="231.706" cy="76.952" r="5.069"/>
<circle fill="#00BFFF" stroke="#000000" cx="242.407" cy="101.712" r="5.069"/>
<circle fill="#00BFFF" stroke="#000000" cx="252.241" cy="114.044" r="5.069"/>
<circle fill="#00BFFF" stroke="#000000" cx="263.059" cy="127.175" r="5.069"/>
<circle fill="#00BFFF" stroke="#000000" cx="272.831" cy="139.348" r="5.069"/>
<circle fill="#00BFFF" stroke="#000000" cx="283.545" cy="164.087" r="5.069"/>
<circle fill="#00BFFF" stroke="#000000" cx="293.993" cy="176.377" r="5.068"/>
</svg>
