<?xml version="1.0" encoding="utf-8" standalone="no"?>
<!DOCTYPE svg PUBLIC "-//W3C//DTD SVG 1.1//EN"
  "http://www.w3.org/Graphics/SVG/1.1/DTD/svg11.dtd">
<!-- Created with matplotlib (http://matplotlib.org/) -->
<svg height="288pt" version="1.1" viewBox="0 0 720 288" width="720pt" xmlns="http://www.w3.org/2000/svg" xmlns:xlink="http://www.w3.org/1999/xlink">
 <defs>
  <style type="text/css">
*{stroke-linecap:butt;stroke-linejoin:round;}
  </style>
 </defs>
 <g id="figure_1">
  <g id="patch_1">
   <path d="M 0 288 
L 720 288 
L 720 0 
L 0 0 
z
" style="fill:none;"/>
  </g>
  <g id="axes_1">
   <g id="patch_2">
    <path d="M 14.8 219.8 
L 320.025 219.8 
L 320.025 14.8 
L 14.8 14.8 
z
" style="fill:none;"/>
   </g>
   <g id="matplotlib.axis_1"/>
   <g id="matplotlib.axis_2"/>
   <g id="line2d_1">
    <path clip-path="url(#pcc9f5561ad)" d="M 28.673864 210.481818 
L 31.476664 210.481818 
L 34.279465 210.481818 
L 37.082266 210.481818 
L 39.885067 210.481818 
L 42.687867 210.481818 
L 45.490668 210.481817 
L 48.293469 210.481816 
L 51.09627 210.481812 
L 53.89907 210.481804 
L 56.701871 210.481787 
L 59.504672 210.48175 
L 62.307472 210.481672 
L 65.110273 210.481512 
L 67.913074 210.481189 
L 70.715875 210.480551 
L 73.518675 210.479317 
L 76.321476 210.47698 
L 79.124277 210.472643 
L 81.927078 210.464764 
L 84.729878 210.450745 
L 87.532679 210.426324 
L 90.33548 210.384671 
L 93.138281 210.315122 
L 95.941081 210.201446 
L 98.743882 210.019586 
L 101.546683 209.734853 
L 104.349483 209.298626 
L 107.152284 208.64475 
L 109.955085 207.68599 
L 112.757886 206.311103 
L 115.560686 204.383282 
L 118.363487 201.740928 
L 121.166288 198.201752 
L 123.969089 193.57115 
L 126.771889 187.655503 
L 129.57469 180.280502 
L 132.377491 171.313862 
L 135.180292 160.690806 
L 137.983092 148.43979 
L 140.785893 134.70506 
L 143.588694 119.762234 
L 146.391494 104.023137 
L 149.194295 88.026936 
L 151.997096 72.416015 
L 154.799897 57.897064 
L 157.602697 45.190077 
L 160.405498 34.970081 
L 163.208299 27.808056 
L 166.0111 24.118182 
L 168.8139 24.118182 
L 171.616701 27.808056 
L 174.419502 34.970081 
L 177.222303 45.190077 
L 180.025103 57.897064 
L 182.827904 72.416015 
L 185.630705 88.026936 
L 188.433506 104.023137 
L 191.236306 119.762234 
L 194.039107 134.70506 
L 196.841908 148.43979 
L 199.644708 160.690806 
L 202.447509 171.313862 
L 205.25031 180.280502 
L 208.053111 187.655503 
L 210.855911 193.57115 
L 213.658712 198.201752 
L 216.461513 201.740928 
L 219.264314 204.383282 
L 222.067114 206.311103 
L 224.869915 207.68599 
L 227.672716 208.64475 
L 230.475517 209.298626 
L 233.278317 209.734853 
L 236.081118 210.019586 
L 238.883919 210.201446 
L 241.686719 210.315122 
L 244.48952 210.384671 
L 247.292321 210.426324 
L 250.095122 210.450745 
L 252.897922 210.464764 
L 255.700723 210.472643 
L 258.503524 210.47698 
L 261.306325 210.479317 
L 264.109125 210.480551 
L 266.911926 210.481189 
L 269.714727 210.481512 
L 272.517528 210.481672 
L 275.320328 210.48175 
L 278.123129 210.481787 
L 280.92593 210.481804 
L 283.72873 210.481812 
L 286.531531 210.481816 
L 289.334332 210.481817 
L 292.137133 210.481818 
L 294.939933 210.481818 
L 297.742734 210.481818 
L 300.545535 210.481818 
L 303.348336 210.481818 
L 306.151136 210.481818 
" style="fill:none;stroke:#00bfff;stroke-linecap:square;stroke-width:2;"/>
   </g>
   <g id="line2d_2">
    <path clip-path="url(#pcc9f5561ad)" d="M 28.673864 210.055161 
L 31.476664 209.990419 
L 34.279465 209.915865 
L 37.082266 209.830015 
L 39.885067 209.731164 
L 42.687867 209.61735 
L 45.490668 209.486315 
L 48.293469 209.335468 
L 51.09627 209.161828 
L 53.89907 208.961972 
L 56.701871 208.73197 
L 59.504672 208.467313 
L 62.307472 208.162829 
L 65.110273 207.81259 
L 67.913074 207.409806 
L 70.715875 206.94671 
L 73.518675 206.414423 
L 76.321476 205.802811 
L 79.124277 205.100319 
L 81.927078 204.293798 
L 84.729878 203.368313 
L 87.532679 202.306938 
L 90.33548 201.090543 
L 93.138281 199.697575 
L 95.941081 198.103841 
L 98.743882 196.282307 
L 101.546683 194.202921 
L 104.349483 191.832496 
L 107.152284 189.134663 
L 109.955085 186.069952 
L 112.757886 182.596037 
L 115.560686 178.668226 
L 118.363487 174.240264 
L 121.166288 169.265561 
L 123.969089 163.698966 
L 126.771889 157.499241 
L 129.57469 150.632377 
L 132.377491 143.075946 
L 135.180292 134.824646 
L 137.983092 125.897158 
L 140.785893 116.344383 
L 143.588694 106.258955 
L 146.391494 95.785707 
L 149.194295 85.132429 
L 151.997096 74.579759 
L 154.799897 64.488464 
L 157.602697 55.301639 
L 160.405498 47.538637 
L 163.208299 41.777056 
L 166.0111 38.619063 
L 168.8139 38.639318 
L 171.616701 42.314141 
L 174.419502 49.935884 
L 177.222303 61.522657 
L 180.025103 76.740884 
L 182.827904 94.864481 
L 185.630705 114.796344 
L 188.433506 135.171037 
L 191.236306 154.539156 
L 194.039107 171.605299 
L 196.841908 185.461455 
L 199.644708 195.74181 
L 202.447509 202.639104 
L 205.25031 206.77091 
L 208.053111 208.947912 
L 210.855911 209.939184 
L 213.658712 210.32137 
L 216.461513 210.44323 
L 219.264314 210.474503 
L 222.067114 210.480764 
L 224.869915 210.481707 
L 227.672716 210.48181 
L 230.475517 210.481818 
L 233.278317 210.481818 
L 236.081118 210.481818 
L 238.883919 210.481818 
L 241.686719 210.481818 
L 244.48952 210.481818 
L 247.292321 210.481818 
L 250.095122 210.481818 
L 252.897922 210.481818 
L 255.700723 210.481818 
L 258.503524 210.481818 
L 261.306325 210.481818 
L 264.109125 210.481818 
L 266.911926 210.481818 
L 269.714727 210.481818 
L 272.517528 210.481818 
L 275.320328 210.481818 
L 278.123129 210.481818 
L 280.92593 210.481818 
L 283.72873 210.481818 
L 286.531531 210.481818 
L 289.334332 210.481818 
L 292.137133 210.481818 
L 294.939933 210.481818 
L 297.742734 210.481818 
L 300.545535 210.481818 
L 303.348336 210.481818 
L 306.151136 210.481818 
" style="fill:none;stroke:#ff8b22;stroke-linecap:square;stroke-width:2;"/>
   </g>
   <g id="patch_3">
    <path d="M 14.8 219.8 
L 320.025 219.8 
" style="fill:none;stroke:#222222;stroke-linecap:square;stroke-linejoin:miter;"/>
   </g>
  </g>
  <g id="axes_2">
   <g id="patch_4">
    <path d="M 399.975 219.8 
L 705.2 219.8 
L 705.2 14.8 
L 399.975 14.8 
z
" style="fill:none;"/>
   </g>
   <g id="matplotlib.axis_3">
    <g id="xtick_1">
     <g id="line2d_3">
      <defs>
       <path d="M 0 0 
L 0 4 
" id="mf3cb2c7538" style="stroke:#222222;"/>
      </defs>
      <g>
       <use style="fill:#222222;stroke:#222222;" x="413.848864" xlink:href="#mf3cb2c7538" y="219.8"/>
      </g>
     </g>
     <g id="text_1">
      <!-- 0.0 -->
      <defs>
       <path d="M 31.78125 66.40625 
Q 24.171875 66.40625 20.328125 58.90625 
Q 16.5 51.421875 16.5 36.375 
Q 16.5 21.390625 20.328125 13.890625 
Q 24.171875 6.390625 31.78125 6.390625 
Q 39.453125 6.390625 43.28125 13.890625 
Q 47.125 21.390625 47.125 36.375 
Q 47.125 51.421875 43.28125 58.90625 
Q 39.453125 66.40625 31.78125 66.40625 
z
M 31.78125 74.21875 
Q 44.046875 74.21875 50.515625 64.515625 
Q 56.984375 54.828125 56.984375 36.375 
Q 56.984375 17.96875 50.515625 8.265625 
Q 44.046875 -1.421875 31.78125 -1.421875 
Q 19.53125 -1.421875 13.0625 8.265625 
Q 6.59375 17.96875 6.59375 36.375 
Q 6.59375 54.828125 13.0625 64.515625 
Q 19.53125 74.21875 31.78125 74.21875 
z
" id="DejaVuSans-30"/>
       <path d="M 10.6875 12.40625 
L 21 12.40625 
L 21 0 
L 10.6875 0 
z
" id="DejaVuSans-2e"/>
      </defs>
      <g style="fill:#222222;" transform="translate(403.511832 237.677969)scale(0.13 -0.13)">
       <use xlink:href="#DejaVuSans-30"/>
       <use x="63.623047" xlink:href="#DejaVuSans-2e"/>
       <use x="95.410156" xlink:href="#DejaVuSans-30"/>
      </g>
     </g>
    </g>
    <g id="xtick_2">
     <g id="line2d_4">
      <g>
       <use style="fill:#222222;stroke:#222222;" x="469.344318" xlink:href="#mf3cb2c7538" y="219.8"/>
      </g>
     </g>
     <g id="text_2">
      <!-- 0.2 -->
      <defs>
       <path d="M 19.1875 8.296875 
L 53.609375 8.296875 
L 53.609375 0 
L 7.328125 0 
L 7.328125 8.296875 
Q 12.9375 14.109375 22.625 23.890625 
Q 32.328125 33.6875 34.8125 36.53125 
Q 39.546875 41.84375 41.421875 45.53125 
Q 43.3125 49.21875 43.3125 52.78125 
Q 43.3125 58.59375 39.234375 62.25 
Q 35.15625 65.921875 28.609375 65.921875 
Q 23.96875 65.921875 18.8125 64.3125 
Q 13.671875 62.703125 7.8125 59.421875 
L 7.8125 69.390625 
Q 13.765625 71.78125 18.9375 73 
Q 24.125 74.21875 28.421875 74.21875 
Q 39.75 74.21875 46.484375 68.546875 
Q 53.21875 62.890625 53.21875 53.421875 
Q 53.21875 48.921875 51.53125 44.890625 
Q 49.859375 40.875 45.40625 35.40625 
Q 44.1875 33.984375 37.640625 27.21875 
Q 31.109375 20.453125 19.1875 8.296875 
z
" id="DejaVuSans-32"/>
      </defs>
      <g style="fill:#222222;" transform="translate(459.007287 237.677969)scale(0.13 -0.13)">
       <use xlink:href="#DejaVuSans-30"/>
       <use x="63.623047" xlink:href="#DejaVuSans-2e"/>
       <use x="95.410156" xlink:href="#DejaVuSans-32"/>
      </g>
     </g>
    </g>
    <g id="xtick_3">
     <g id="line2d_5">
      <g>
       <use style="fill:#222222;stroke:#222222;" x="524.839773" xlink:href="#mf3cb2c7538" y="219.8"/>
      </g>
     </g>
     <g id="text_3">
      <!-- 0.4 -->
      <defs>
       <path d="M 37.796875 64.3125 
L 12.890625 25.390625 
L 37.796875 25.390625 
z
M 35.203125 72.90625 
L 47.609375 72.90625 
L 47.609375 25.390625 
L 58.015625 25.390625 
L 58.015625 17.1875 
L 47.609375 17.1875 
L 47.609375 0 
L 37.796875 0 
L 37.796875 17.1875 
L 4.890625 17.1875 
L 4.890625 26.703125 
z
" id="DejaVuSans-34"/>
      </defs>
      <g style="fill:#222222;" transform="translate(514.502741 237.677969)scale(0.13 -0.13)">
       <use xlink:href="#DejaVuSans-30"/>
       <use x="63.623047" xlink:href="#DejaVuSans-2e"/>
       <use x="95.410156" xlink:href="#DejaVuSans-34"/>
      </g>
     </g>
    </g>
    <g id="xtick_4">
     <g id="line2d_6">
      <g>
       <use style="fill:#222222;stroke:#222222;" x="580.335227" xlink:href="#mf3cb2c7538" y="219.8"/>
      </g>
     </g>
     <g id="text_4">
      <!-- 0.6 -->
      <defs>
       <path d="M 33.015625 40.375 
Q 26.375 40.375 22.484375 35.828125 
Q 18.609375 31.296875 18.609375 23.390625 
Q 18.609375 15.53125 22.484375 10.953125 
Q 26.375 6.390625 33.015625 6.390625 
Q 39.65625 6.390625 43.53125 10.953125 
Q 47.40625 15.53125 47.40625 23.390625 
Q 47.40625 31.296875 43.53125 35.828125 
Q 39.65625 40.375 33.015625 40.375 
z
M 52.59375 71.296875 
L 52.59375 62.3125 
Q 48.875 64.0625 45.09375 64.984375 
Q 41.3125 65.921875 37.59375 65.921875 
Q 27.828125 65.921875 22.671875 59.328125 
Q 17.53125 52.734375 16.796875 39.40625 
Q 19.671875 43.65625 24.015625 45.921875 
Q 28.375 48.1875 33.59375 48.1875 
Q 44.578125 48.1875 50.953125 41.515625 
Q 57.328125 34.859375 57.328125 23.390625 
Q 57.328125 12.15625 50.6875 5.359375 
Q 44.046875 -1.421875 33.015625 -1.421875 
Q 20.359375 -1.421875 13.671875 8.265625 
Q 6.984375 17.96875 6.984375 36.375 
Q 6.984375 53.65625 15.1875 63.9375 
Q 23.390625 74.21875 37.203125 74.21875 
Q 40.921875 74.21875 44.703125 73.484375 
Q 48.484375 72.75 52.59375 71.296875 
z
" id="DejaVuSans-36"/>
      </defs>
      <g style="fill:#222222;" transform="translate(569.998196 237.677969)scale(0.13 -0.13)">
       <use xlink:href="#DejaVuSans-30"/>
       <use x="63.623047" xlink:href="#DejaVuSans-2e"/>
       <use x="95.410156" xlink:href="#DejaVuSans-36"/>
      </g>
     </g>
    </g>
    <g id="xtick_5">
     <g id="line2d_7">
      <g>
       <use style="fill:#222222;stroke:#222222;" x="635.830682" xlink:href="#mf3cb2c7538" y="219.8"/>
      </g>
     </g>
     <g id="text_5">
      <!-- 0.8 -->
      <defs>
       <path d="M 31.78125 34.625 
Q 24.75 34.625 20.71875 30.859375 
Q 16.703125 27.09375 16.703125 20.515625 
Q 16.703125 13.921875 20.71875 10.15625 
Q 24.75 6.390625 31.78125 6.390625 
Q 38.8125 6.390625 42.859375 10.171875 
Q 46.921875 13.96875 46.921875 20.515625 
Q 46.921875 27.09375 42.890625 30.859375 
Q 38.875 34.625 31.78125 34.625 
z
M 21.921875 38.8125 
Q 15.578125 40.375 12.03125 44.71875 
Q 8.5 49.078125 8.5 55.328125 
Q 8.5 64.0625 14.71875 69.140625 
Q 20.953125 74.21875 31.78125 74.21875 
Q 42.671875 74.21875 48.875 69.140625 
Q 55.078125 64.0625 55.078125 55.328125 
Q 55.078125 49.078125 51.53125 44.71875 
Q 48 40.375 41.703125 38.8125 
Q 48.828125 37.15625 52.796875 32.3125 
Q 56.78125 27.484375 56.78125 20.515625 
Q 56.78125 9.90625 50.3125 4.234375 
Q 43.84375 -1.421875 31.78125 -1.421875 
Q 19.734375 -1.421875 13.25 4.234375 
Q 6.78125 9.90625 6.78125 20.515625 
Q 6.78125 27.484375 10.78125 32.3125 
Q 14.796875 37.15625 21.921875 38.8125 
z
M 18.3125 54.390625 
Q 18.3125 48.734375 21.84375 45.5625 
Q 25.390625 42.390625 31.78125 42.390625 
Q 38.140625 42.390625 41.71875 45.5625 
Q 45.3125 48.734375 45.3125 54.390625 
Q 45.3125 60.0625 41.71875 63.234375 
Q 38.140625 66.40625 31.78125 66.40625 
Q 25.390625 66.40625 21.84375 63.234375 
Q 18.3125 60.0625 18.3125 54.390625 
z
" id="DejaVuSans-38"/>
      </defs>
      <g style="fill:#222222;" transform="translate(625.493651 237.677969)scale(0.13 -0.13)">
       <use xlink:href="#DejaVuSans-30"/>
       <use x="63.623047" xlink:href="#DejaVuSans-2e"/>
       <use x="95.410156" xlink:href="#DejaVuSans-38"/>
      </g>
     </g>
    </g>
    <g id="xtick_6">
     <g id="line2d_8">
      <g>
       <use style="fill:#222222;stroke:#222222;" x="691.326136" xlink:href="#mf3cb2c7538" y="219.8"/>
      </g>
     </g>
     <g id="text_6">
      <!-- 1.0 -->
      <defs>
       <path d="M 12.40625 8.296875 
L 28.515625 8.296875 
L 28.515625 63.921875 
L 10.984375 60.40625 
L 10.984375 69.390625 
L 28.421875 72.90625 
L 38.28125 72.90625 
L 38.28125 8.296875 
L 54.390625 8.296875 
L 54.390625 0 
L 12.40625 0 
z
" id="DejaVuSans-31"/>
      </defs>
      <g style="fill:#222222;" transform="translate(680.989105 237.677969)scale(0.13 -0.13)">
       <use xlink:href="#DejaVuSans-31"/>
       <use x="63.623047" xlink:href="#DejaVuSans-2e"/>
       <use x="95.410156" xlink:href="#DejaVuSans-30"/>
      </g>
     </g>
    </g>
    <g id="text_7">
     <!-- Normal distribution -->
     <defs>
      <path d="M 9.8125 72.90625 
L 23.09375 72.90625 
L 55.421875 11.921875 
L 55.421875 72.90625 
L 64.984375 72.90625 
L 64.984375 0 
L 51.703125 0 
L 19.390625 60.984375 
L 19.390625 0 
L 9.8125 0 
z
" id="DejaVuSans-4e"/>
      <path d="M 30.609375 48.390625 
Q 23.390625 48.390625 19.1875 42.75 
Q 14.984375 37.109375 14.984375 27.296875 
Q 14.984375 17.484375 19.15625 11.84375 
Q 23.34375 6.203125 30.609375 6.203125 
Q 37.796875 6.203125 41.984375 11.859375 
Q 46.1875 17.53125 46.1875 27.296875 
Q 46.1875 37.015625 41.984375 42.703125 
Q 37.796875 48.390625 30.609375 48.390625 
z
M 30.609375 56 
Q 42.328125 56 49.015625 48.375 
Q 55.71875 40.765625 55.71875 27.296875 
Q 55.71875 13.875 49.015625 6.21875 
Q 42.328125 -1.421875 30.609375 -1.421875 
Q 18.84375 -1.421875 12.171875 6.21875 
Q 5.515625 13.875 5.515625 27.296875 
Q 5.515625 40.765625 12.171875 48.375 
Q 18.84375 56 30.609375 56 
z
" id="DejaVuSans-6f"/>
      <path d="M 41.109375 46.296875 
Q 39.59375 47.171875 37.8125 47.578125 
Q 36.03125 48 33.890625 48 
Q 26.265625 48 22.1875 43.046875 
Q 18.109375 38.09375 18.109375 28.8125 
L 18.109375 0 
L 9.078125 0 
L 9.078125 54.6875 
L 18.109375 54.6875 
L 18.109375 46.1875 
Q 20.953125 51.171875 25.484375 53.578125 
Q 30.03125 56 36.53125 56 
Q 37.453125 56 38.578125 55.875 
Q 39.703125 55.765625 41.0625 55.515625 
z
" id="DejaVuSans-72"/>
      <path d="M 52 44.1875 
Q 55.375 50.25 60.0625 53.125 
Q 64.75 56 71.09375 56 
Q 79.640625 56 84.28125 50.015625 
Q 88.921875 44.046875 88.921875 33.015625 
L 88.921875 0 
L 79.890625 0 
L 79.890625 32.71875 
Q 79.890625 40.578125 77.09375 44.375 
Q 74.3125 48.1875 68.609375 48.1875 
Q 61.625 48.1875 57.5625 43.546875 
Q 53.515625 38.921875 53.515625 30.90625 
L 53.515625 0 
L 44.484375 0 
L 44.484375 32.71875 
Q 44.484375 40.625 41.703125 44.40625 
Q 38.921875 48.1875 33.109375 48.1875 
Q 26.21875 48.1875 22.15625 43.53125 
Q 18.109375 38.875 18.109375 30.90625 
L 18.109375 0 
L 9.078125 0 
L 9.078125 54.6875 
L 18.109375 54.6875 
L 18.109375 46.1875 
Q 21.1875 51.21875 25.484375 53.609375 
Q 29.78125 56 35.6875 56 
Q 41.65625 56 45.828125 52.96875 
Q 50 49.953125 52 44.1875 
z
" id="DejaVuSans-6d"/>
      <path d="M 34.28125 27.484375 
Q 23.390625 27.484375 19.1875 25 
Q 14.984375 22.515625 14.984375 16.5 
Q 14.984375 11.71875 18.140625 8.90625 
Q 21.296875 6.109375 26.703125 6.109375 
Q 34.1875 6.109375 38.703125 11.40625 
Q 43.21875 16.703125 43.21875 25.484375 
L 43.21875 27.484375 
z
M 52.203125 31.203125 
L 52.203125 0 
L 43.21875 0 
L 43.21875 8.296875 
Q 40.140625 3.328125 35.546875 0.953125 
Q 30.953125 -1.421875 24.3125 -1.421875 
Q 15.921875 -1.421875 10.953125 3.296875 
Q 6 8.015625 6 15.921875 
Q 6 25.140625 12.171875 29.828125 
Q 18.359375 34.515625 30.609375 34.515625 
L 43.21875 34.515625 
L 43.21875 35.40625 
Q 43.21875 41.609375 39.140625 45 
Q 35.0625 48.390625 27.6875 48.390625 
Q 23 48.390625 18.546875 47.265625 
Q 14.109375 46.140625 10.015625 43.890625 
L 10.015625 52.203125 
Q 14.9375 54.109375 19.578125 55.046875 
Q 24.21875 56 28.609375 56 
Q 40.484375 56 46.34375 49.84375 
Q 52.203125 43.703125 52.203125 31.203125 
z
" id="DejaVuSans-61"/>
      <path d="M 9.421875 75.984375 
L 18.40625 75.984375 
L 18.40625 0 
L 9.421875 0 
z
" id="DejaVuSans-6c"/>
      <path id="DejaVuSans-20"/>
      <path d="M 45.40625 46.390625 
L 45.40625 75.984375 
L 54.390625 75.984375 
L 54.390625 0 
L 45.40625 0 
L 45.40625 8.203125 
Q 42.578125 3.328125 38.25 0.953125 
Q 33.9375 -1.421875 27.875 -1.421875 
Q 17.96875 -1.421875 11.734375 6.484375 
Q 5.515625 14.40625 5.515625 27.296875 
Q 5.515625 40.1875 11.734375 48.09375 
Q 17.96875 56 27.875 56 
Q 33.9375 56 38.25 53.625 
Q 42.578125 51.265625 45.40625 46.390625 
z
M 14.796875 27.296875 
Q 14.796875 17.390625 18.875 11.75 
Q 22.953125 6.109375 30.078125 6.109375 
Q 37.203125 6.109375 41.296875 11.75 
Q 45.40625 17.390625 45.40625 27.296875 
Q 45.40625 37.203125 41.296875 42.84375 
Q 37.203125 48.484375 30.078125 48.484375 
Q 22.953125 48.484375 18.875 42.84375 
Q 14.796875 37.203125 14.796875 27.296875 
z
" id="DejaVuSans-64"/>
      <path d="M 9.421875 54.6875 
L 18.40625 54.6875 
L 18.40625 0 
L 9.421875 0 
z
M 9.421875 75.984375 
L 18.40625 75.984375 
L 18.40625 64.59375 
L 9.421875 64.59375 
z
" id="DejaVuSans-69"/>
      <path d="M 44.28125 53.078125 
L 44.28125 44.578125 
Q 40.484375 46.53125 36.375 47.5 
Q 32.28125 48.484375 27.875 48.484375 
Q 21.1875 48.484375 17.84375 46.4375 
Q 14.5 44.390625 14.5 40.28125 
Q 14.5 37.15625 16.890625 35.375 
Q 19.28125 33.59375 26.515625 31.984375 
L 29.59375 31.296875 
Q 39.15625 29.25 43.1875 25.515625 
Q 47.21875 21.78125 47.21875 15.09375 
Q 47.21875 7.46875 41.1875 3.015625 
Q 35.15625 -1.421875 24.609375 -1.421875 
Q 20.21875 -1.421875 15.453125 -0.5625 
Q 10.6875 0.296875 5.421875 2 
L 5.421875 11.28125 
Q 10.40625 8.6875 15.234375 7.390625 
Q 20.0625 6.109375 24.8125 6.109375 
Q 31.15625 6.109375 34.5625 8.28125 
Q 37.984375 10.453125 37.984375 14.40625 
Q 37.984375 18.0625 35.515625 20.015625 
Q 33.0625 21.96875 24.703125 23.78125 
L 21.578125 24.515625 
Q 13.234375 26.265625 9.515625 29.90625 
Q 5.8125 33.546875 5.8125 39.890625 
Q 5.8125 47.609375 11.28125 51.796875 
Q 16.75 56 26.8125 56 
Q 31.78125 56 36.171875 55.265625 
Q 40.578125 54.546875 44.28125 53.078125 
z
" id="DejaVuSans-73"/>
      <path d="M 18.3125 70.21875 
L 18.3125 54.6875 
L 36.8125 54.6875 
L 36.8125 47.703125 
L 18.3125 47.703125 
L 18.3125 18.015625 
Q 18.3125 11.328125 20.140625 9.421875 
Q 21.96875 7.515625 27.59375 7.515625 
L 36.8125 7.515625 
L 36.8125 0 
L 27.59375 0 
Q 17.1875 0 13.234375 3.875 
Q 9.28125 7.765625 9.28125 18.015625 
L 9.28125 47.703125 
L 2.6875 47.703125 
L 2.6875 54.6875 
L 9.28125 54.6875 
L 9.28125 70.21875 
z
" id="DejaVuSans-74"/>
      <path d="M 48.6875 27.296875 
Q 48.6875 37.203125 44.609375 42.84375 
Q 40.53125 48.484375 33.40625 48.484375 
Q 26.265625 48.484375 22.1875 42.84375 
Q 18.109375 37.203125 18.109375 27.296875 
Q 18.109375 17.390625 22.1875 11.75 
Q 26.265625 6.109375 33.40625 6.109375 
Q 40.53125 6.109375 44.609375 11.75 
Q 48.6875 17.390625 48.6875 27.296875 
z
M 18.109375 46.390625 
Q 20.953125 51.265625 25.265625 53.625 
Q 29.59375 56 35.59375 56 
Q 45.5625 56 51.78125 48.09375 
Q 58.015625 40.1875 58.015625 27.296875 
Q 58.015625 14.40625 51.78125 6.484375 
Q 45.5625 -1.421875 35.59375 -1.421875 
Q 29.59375 -1.421875 25.265625 0.953125 
Q 20.953125 3.328125 18.109375 8.203125 
L 18.109375 0 
L 9.078125 0 
L 9.078125 75.984375 
L 18.109375 75.984375 
z
" id="DejaVuSans-62"/>
      <path d="M 8.5 21.578125 
L 8.5 54.6875 
L 17.484375 54.6875 
L 17.484375 21.921875 
Q 17.484375 14.15625 20.5 10.265625 
Q 23.53125 6.390625 29.59375 6.390625 
Q 36.859375 6.390625 41.078125 11.03125 
Q 45.3125 15.671875 45.3125 23.6875 
L 45.3125 54.6875 
L 54.296875 54.6875 
L 54.296875 0 
L 45.3125 0 
L 45.3125 8.40625 
Q 42.046875 3.421875 37.71875 1 
Q 33.40625 -1.421875 27.6875 -1.421875 
Q 18.265625 -1.421875 13.375 4.4375 
Q 8.5 10.296875 8.5 21.578125 
z
M 31.109375 56 
z
" id="DejaVuSans-75"/>
      <path d="M 54.890625 33.015625 
L 54.890625 0 
L 45.90625 0 
L 45.90625 32.71875 
Q 45.90625 40.484375 42.875 44.328125 
Q 39.84375 48.1875 33.796875 48.1875 
Q 26.515625 48.1875 22.3125 43.546875 
Q 18.109375 38.921875 18.109375 30.90625 
L 18.109375 0 
L 9.078125 0 
L 9.078125 54.6875 
L 18.109375 54.6875 
L 18.109375 46.1875 
Q 21.34375 51.125 25.703125 53.5625 
Q 30.078125 56 35.796875 56 
Q 45.21875 56 50.046875 50.171875 
Q 54.890625 44.34375 54.890625 33.015625 
z
" id="DejaVuSans-6e"/>
     </defs>
     <g style="fill:#00bfff;" transform="translate(475.37125 256.539062)scale(0.16 -0.16)">
      <use xlink:href="#DejaVuSans-4e"/>
      <use x="74.804688" xlink:href="#DejaVuSans-6f"/>
      <use x="135.986328" xlink:href="#DejaVuSans-72"/>
      <use x="177.083984" xlink:href="#DejaVuSans-6d"/>
      <use x="274.496094" xlink:href="#DejaVuSans-61"/>
      <use x="335.775391" xlink:href="#DejaVuSans-6c"/>
      <use x="363.558594" xlink:href="#DejaVuSans-20"/>
      <use x="395.345703" xlink:href="#DejaVuSans-64"/>
      <use x="458.822266" xlink:href="#DejaVuSans-69"/>
      <use x="486.605469" xlink:href="#DejaVuSans-73"/>
      <use x="538.705078" xlink:href="#DejaVuSans-74"/>
      <use x="577.914062" xlink:href="#DejaVuSans-72"/>
      <use x="619.027344" xlink:href="#DejaVuSans-69"/>
      <use x="646.810547" xlink:href="#DejaVuSans-62"/>
      <use x="710.287109" xlink:href="#DejaVuSans-75"/>
      <use x="773.666016" xlink:href="#DejaVuSans-74"/>
      <use x="812.875" xlink:href="#DejaVuSans-69"/>
      <use x="840.658203" xlink:href="#DejaVuSans-6f"/>
      <use x="901.839844" xlink:href="#DejaVuSans-6e"/>
     </g>
     <!-- Cumulative probability -->
     <defs>
      <path d="M 64.40625 67.28125 
L 64.40625 56.890625 
Q 59.421875 61.53125 53.78125 63.8125 
Q 48.140625 66.109375 41.796875 66.109375 
Q 29.296875 66.109375 22.65625 58.46875 
Q 16.015625 50.828125 16.015625 36.375 
Q 16.015625 21.96875 22.65625 14.328125 
Q 29.296875 6.6875 41.796875 6.6875 
Q 48.140625 6.6875 53.78125 8.984375 
Q 59.421875 11.28125 64.40625 15.921875 
L 64.40625 5.609375 
Q 59.234375 2.09375 53.4375 0.328125 
Q 47.65625 -1.421875 41.21875 -1.421875 
Q 24.65625 -1.421875 15.125 8.703125 
Q 5.609375 18.84375 5.609375 36.375 
Q 5.609375 53.953125 15.125 64.078125 
Q 24.65625 74.21875 41.21875 74.21875 
Q 47.75 74.21875 53.53125 72.484375 
Q 59.328125 70.75 64.40625 67.28125 
z
" id="DejaVuSans-43"/>
      <path d="M 2.984375 54.6875 
L 12.5 54.6875 
L 29.59375 8.796875 
L 46.6875 54.6875 
L 56.203125 54.6875 
L 35.6875 0 
L 23.484375 0 
z
" id="DejaVuSans-76"/>
      <path d="M 56.203125 29.59375 
L 56.203125 25.203125 
L 14.890625 25.203125 
Q 15.484375 15.921875 20.484375 11.0625 
Q 25.484375 6.203125 34.421875 6.203125 
Q 39.59375 6.203125 44.453125 7.46875 
Q 49.3125 8.734375 54.109375 11.28125 
L 54.109375 2.78125 
Q 49.265625 0.734375 44.1875 -0.34375 
Q 39.109375 -1.421875 33.890625 -1.421875 
Q 20.796875 -1.421875 13.15625 6.1875 
Q 5.515625 13.8125 5.515625 26.8125 
Q 5.515625 40.234375 12.765625 48.109375 
Q 20.015625 56 32.328125 56 
Q 43.359375 56 49.78125 48.890625 
Q 56.203125 41.796875 56.203125 29.59375 
z
M 47.21875 32.234375 
Q 47.125 39.59375 43.09375 43.984375 
Q 39.0625 48.390625 32.421875 48.390625 
Q 24.90625 48.390625 20.390625 44.140625 
Q 15.875 39.890625 15.1875 32.171875 
z
" id="DejaVuSans-65"/>
      <path d="M 18.109375 8.203125 
L 18.109375 -20.796875 
L 9.078125 -20.796875 
L 9.078125 54.6875 
L 18.109375 54.6875 
L 18.109375 46.390625 
Q 20.953125 51.265625 25.265625 53.625 
Q 29.59375 56 35.59375 56 
Q 45.5625 56 51.78125 48.09375 
Q 58.015625 40.1875 58.015625 27.296875 
Q 58.015625 14.40625 51.78125 6.484375 
Q 45.5625 -1.421875 35.59375 -1.421875 
Q 29.59375 -1.421875 25.265625 0.953125 
Q 20.953125 3.328125 18.109375 8.203125 
z
M 48.6875 27.296875 
Q 48.6875 37.203125 44.609375 42.84375 
Q 40.53125 48.484375 33.40625 48.484375 
Q 26.265625 48.484375 22.1875 42.84375 
Q 18.109375 37.203125 18.109375 27.296875 
Q 18.109375 17.390625 22.1875 11.75 
Q 26.265625 6.109375 33.40625 6.109375 
Q 40.53125 6.109375 44.609375 11.75 
Q 48.6875 17.390625 48.6875 27.296875 
z
" id="DejaVuSans-70"/>
      <path d="M 32.171875 -5.078125 
Q 28.375 -14.84375 24.75 -17.8125 
Q 21.140625 -20.796875 15.09375 -20.796875 
L 7.90625 -20.796875 
L 7.90625 -13.28125 
L 13.1875 -13.28125 
Q 16.890625 -13.28125 18.9375 -11.515625 
Q 21 -9.765625 23.484375 -3.21875 
L 25.09375 0.875 
L 2.984375 54.6875 
L 12.5 54.6875 
L 29.59375 11.921875 
L 46.6875 54.6875 
L 56.203125 54.6875 
z
" id="DejaVuSans-79"/>
     </defs>
     <g style="fill:#00bfff;" transform="translate(461.52625 274.455562)scale(0.16 -0.16)">
      <use xlink:href="#DejaVuSans-43"/>
      <use x="69.824219" xlink:href="#DejaVuSans-75"/>
      <use x="133.203125" xlink:href="#DejaVuSans-6d"/>
      <use x="230.615234" xlink:href="#DejaVuSans-75"/>
      <use x="293.994141" xlink:href="#DejaVuSans-6c"/>
      <use x="321.777344" xlink:href="#DejaVuSans-61"/>
      <use x="383.056641" xlink:href="#DejaVuSans-74"/>
      <use x="422.265625" xlink:href="#DejaVuSans-69"/>
      <use x="450.048828" xlink:href="#DejaVuSans-76"/>
      <use x="509.228516" xlink:href="#DejaVuSans-65"/>
      <use x="570.751953" xlink:href="#DejaVuSans-20"/>
      <use x="602.539062" xlink:href="#DejaVuSans-70"/>
      <use x="666.015625" xlink:href="#DejaVuSans-72"/>
      <use x="707.097656" xlink:href="#DejaVuSans-6f"/>
      <use x="768.279297" xlink:href="#DejaVuSans-62"/>
      <use x="831.755859" xlink:href="#DejaVuSans-61"/>
      <use x="893.035156" xlink:href="#DejaVuSans-62"/>
      <use x="956.511719" xlink:href="#DejaVuSans-69"/>
      <use x="984.294922" xlink:href="#DejaVuSans-6c"/>
      <use x="1012.078125" xlink:href="#DejaVuSans-69"/>
      <use x="1039.861328" xlink:href="#DejaVuSans-74"/>
      <use x="1079.070312" xlink:href="#DejaVuSans-79"/>
     </g>
    </g>
   </g>
   <g id="matplotlib.axis_4">
    <g id="ytick_1">
     <g id="line2d_9">
      <defs>
       <path d="M 0 0 
L -4 0 
" id="m9173d89bd0" style="stroke:#222222;"/>
      </defs>
      <g>
       <use style="fill:#222222;stroke:#222222;" x="399.975" xlink:href="#m9173d89bd0" y="210.651837"/>
      </g>
     </g>
     <g id="text_8">
      <!-- 0.0 -->
      <g style="fill:#222222;" transform="translate(371.300938 215.590822)scale(0.13 -0.13)">
       <use xlink:href="#DejaVuSans-30"/>
       <use x="63.623047" xlink:href="#DejaVuSans-2e"/>
       <use x="95.410156" xlink:href="#DejaVuSans-30"/>
      </g>
     </g>
    </g>
    <g id="ytick_2">
     <g id="line2d_10">
      <g>
       <use style="fill:#222222;stroke:#222222;" x="399.975" xlink:href="#m9173d89bd0" y="173.345106"/>
      </g>
     </g>
     <g id="text_9">
      <!-- 0.2 -->
      <g style="fill:#222222;" transform="translate(371.300938 178.284091)scale(0.13 -0.13)">
       <use xlink:href="#DejaVuSans-30"/>
       <use x="63.623047" xlink:href="#DejaVuSans-2e"/>
       <use x="95.410156" xlink:href="#DejaVuSans-32"/>
      </g>
     </g>
    </g>
    <g id="ytick_3">
     <g id="line2d_11">
      <g>
       <use style="fill:#222222;stroke:#222222;" x="399.975" xlink:href="#m9173d89bd0" y="136.038375"/>
      </g>
     </g>
     <g id="text_10">
      <!-- 0.4 -->
      <g style="fill:#222222;" transform="translate(371.300938 140.977359)scale(0.13 -0.13)">
       <use xlink:href="#DejaVuSans-30"/>
       <use x="63.623047" xlink:href="#DejaVuSans-2e"/>
       <use x="95.410156" xlink:href="#DejaVuSans-34"/>
      </g>
     </g>
    </g>
    <g id="ytick_4">
     <g id="line2d_12">
      <g>
       <use style="fill:#222222;stroke:#222222;" x="399.975" xlink:href="#m9173d89bd0" y="98.731644"/>
      </g>
     </g>
     <g id="text_11">
      <!-- 0.6 -->
      <g style="fill:#222222;" transform="translate(371.300938 103.670628)scale(0.13 -0.13)">
       <use xlink:href="#DejaVuSans-30"/>
       <use x="63.623047" xlink:href="#DejaVuSans-2e"/>
       <use x="95.410156" xlink:href="#DejaVuSans-36"/>
      </g>
     </g>
    </g>
    <g id="ytick_5">
     <g id="line2d_13">
      <g>
       <use style="fill:#222222;stroke:#222222;" x="399.975" xlink:href="#m9173d89bd0" y="61.424913"/>
      </g>
     </g>
     <g id="text_12">
      <!-- 0.8 -->
      <g style="fill:#222222;" transform="translate(371.300938 66.363897)scale(0.13 -0.13)">
       <use xlink:href="#DejaVuSans-30"/>
       <use x="63.623047" xlink:href="#DejaVuSans-2e"/>
       <use x="95.410156" xlink:href="#DejaVuSans-38"/>
      </g>
     </g>
    </g>
    <g id="ytick_6">
     <g id="line2d_14">
      <g>
       <use style="fill:#222222;stroke:#222222;" x="399.975" xlink:href="#m9173d89bd0" y="24.118182"/>
      </g>
     </g>
     <g id="text_13">
      <!-- 1.0 -->
      <g style="fill:#222222;" transform="translate(371.300938 29.057166)scale(0.13 -0.13)">
       <use xlink:href="#DejaVuSans-31"/>
       <use x="63.623047" xlink:href="#DejaVuSans-2e"/>
       <use x="95.410156" xlink:href="#DejaVuSans-30"/>
      </g>
     </g>
    </g>
    <g id="text_14">
     <!-- Skewed distribution -->
     <defs>
      <path d="M 53.515625 70.515625 
L 53.515625 60.890625 
Q 47.90625 63.578125 42.921875 64.890625 
Q 37.9375 66.21875 33.296875 66.21875 
Q 25.25 66.21875 20.875 63.09375 
Q 16.5 59.96875 16.5 54.203125 
Q 16.5 49.359375 19.40625 46.890625 
Q 22.3125 44.4375 30.421875 42.921875 
L 36.375 41.703125 
Q 47.40625 39.59375 52.65625 34.296875 
Q 57.90625 29 57.90625 20.125 
Q 57.90625 9.515625 50.796875 4.046875 
Q 43.703125 -1.421875 29.984375 -1.421875 
Q 24.8125 -1.421875 18.96875 -0.25 
Q 13.140625 0.921875 6.890625 3.21875 
L 6.890625 13.375 
Q 12.890625 10.015625 18.65625 8.296875 
Q 24.421875 6.59375 29.984375 6.59375 
Q 38.421875 6.59375 43.015625 9.90625 
Q 47.609375 13.234375 47.609375 19.390625 
Q 47.609375 24.75 44.3125 27.78125 
Q 41.015625 30.8125 33.5 32.328125 
L 27.484375 33.5 
Q 16.453125 35.6875 11.515625 40.375 
Q 6.59375 45.0625 6.59375 53.421875 
Q 6.59375 63.09375 13.40625 68.65625 
Q 20.21875 74.21875 32.171875 74.21875 
Q 37.3125 74.21875 42.625 73.28125 
Q 47.953125 72.359375 53.515625 70.515625 
z
" id="DejaVuSans-53"/>
      <path d="M 9.078125 75.984375 
L 18.109375 75.984375 
L 18.109375 31.109375 
L 44.921875 54.6875 
L 56.390625 54.6875 
L 27.390625 29.109375 
L 57.625 0 
L 45.90625 0 
L 18.109375 26.703125 
L 18.109375 0 
L 9.078125 0 
z
" id="DejaVuSans-6b"/>
      <path d="M 4.203125 54.6875 
L 13.1875 54.6875 
L 24.421875 12.015625 
L 35.59375 54.6875 
L 46.1875 54.6875 
L 57.421875 12.015625 
L 68.609375 54.6875 
L 77.59375 54.6875 
L 63.28125 0 
L 52.6875 0 
L 40.921875 44.828125 
L 29.109375 0 
L 18.5 0 
z
" id="DejaVuSans-77"/>
     </defs>
     <g style="fill:#ff8b22;" transform="translate(346.056938 196.605)rotate(-90)scale(0.16 -0.16)">
      <use xlink:href="#DejaVuSans-53"/>
      <use x="63.476562" xlink:href="#DejaVuSans-6b"/>
      <use x="121.339844" xlink:href="#DejaVuSans-65"/>
      <use x="182.863281" xlink:href="#DejaVuSans-77"/>
      <use x="264.650391" xlink:href="#DejaVuSans-65"/>
      <use x="326.173828" xlink:href="#DejaVuSans-64"/>
      <use x="389.650391" xlink:href="#DejaVuSans-20"/>
      <use x="421.4375" xlink:href="#DejaVuSans-64"/>
      <use x="484.914062" xlink:href="#DejaVuSans-69"/>
      <use x="512.697266" xlink:href="#DejaVuSans-73"/>
      <use x="564.796875" xlink:href="#DejaVuSans-74"/>
      <use x="604.005859" xlink:href="#DejaVuSans-72"/>
      <use x="645.119141" xlink:href="#DejaVuSans-69"/>
      <use x="672.902344" xlink:href="#DejaVuSans-62"/>
      <use x="736.378906" xlink:href="#DejaVuSans-75"/>
      <use x="799.757812" xlink:href="#DejaVuSans-74"/>
      <use x="838.966797" xlink:href="#DejaVuSans-69"/>
      <use x="866.75" xlink:href="#DejaVuSans-6f"/>
      <use x="927.931641" xlink:href="#DejaVuSans-6e"/>
     </g>
     <!-- Cumulative probability -->
     <g style="fill:#ff8b22;" transform="translate(363.973438 208.36125)rotate(-90)scale(0.16 -0.16)">
      <use xlink:href="#DejaVuSans-43"/>
      <use x="69.824219" xlink:href="#DejaVuSans-75"/>
      <use x="133.203125" xlink:href="#DejaVuSans-6d"/>
      <use x="230.615234" xlink:href="#DejaVuSans-75"/>
      <use x="293.994141" xlink:href="#DejaVuSans-6c"/>
      <use x="321.777344" xlink:href="#DejaVuSans-61"/>
      <use x="383.056641" xlink:href="#DejaVuSans-74"/>
      <use x="422.265625" xlink:href="#DejaVuSans-69"/>
      <use x="450.048828" xlink:href="#DejaVuSans-76"/>
      <use x="509.228516" xlink:href="#DejaVuSans-65"/>
      <use x="570.751953" xlink:href="#DejaVuSans-20"/>
      <use x="602.539062" xlink:href="#DejaVuSans-70"/>
      <use x="666.015625" xlink:href="#DejaVuSans-72"/>
      <use x="707.097656" xlink:href="#DejaVuSans-6f"/>
      <use x="768.279297" xlink:href="#DejaVuSans-62"/>
      <use x="831.755859" xlink:href="#DejaVuSans-61"/>
      <use x="893.035156" xlink:href="#DejaVuSans-62"/>
      <use x="956.511719" xlink:href="#DejaVuSans-69"/>
      <use x="984.294922" xlink:href="#DejaVuSans-6c"/>
      <use x="1012.078125" xlink:href="#DejaVuSans-69"/>
      <use x="1039.861328" xlink:href="#DejaVuSans-74"/>
      <use x="1079.070312" xlink:href="#DejaVuSans-79"/>
     </g>
    </g>
   </g>
   <g id="line2d_15">
    <path clip-path="url(#p5a87767a08)" d="M 413.848864 210.481818 
L 413.848864 210.456006 
L 413.848864 210.426276 
L 413.848864 210.392037 
L 413.848864 210.352605 
L 413.848864 210.307193 
L 413.848864 210.254897 
L 413.848864 210.194675 
L 413.848864 210.125329 
L 413.848865 210.045482 
L 413.848867 209.953548 
L 413.848871 209.847706 
L 413.848879 209.72586 
L 413.848898 209.585606 
L 413.848935 209.424177 
L 413.849012 209.238402 
L 413.849164 209.024638 
L 413.849461 208.778709 
L 413.85003 208.495828 
L 413.851097 208.170514 
L 413.853058 207.796496 
L 413.856592 207.366605 
L 413.862835 206.872661 
L 413.873646 206.305335 
L 413.891995 205.654014 
L 413.922524 204.906642 
L 413.972314 204.049555 
L 414.051913 203.06731 
L 414.176649 201.942505 
L 414.368255 200.6556 
L 414.656763 199.18475 
L 415.082589 197.505658 
L 415.698672 195.591459 
L 416.572394 193.412667 
L 417.787007 190.937203 
L 419.442136 188.13054 
L 421.652963 184.956016 
L 424.547687 181.375355 
L 428.262948 177.349471 
L 432.937075 172.839621 
L 438.701306 167.808977 
L 445.669361 162.22471 
L 453.92615 156.060624 
L 463.516629 149.300407 
L 474.43603 141.94146 
L 486.62275 133.999223 
L 499.955024 125.511783 
L 514.252229 116.544384 
L 529.281139 107.193283 
L 544.766927 97.588163 
L 560.408073 87.892138 
L 575.893861 78.298296 
L 590.922771 69.021799 
L 605.219976 60.286961 
L 618.55225 52.309514 
L 630.73897 45.275413 
L 641.658371 39.318984 
L 651.24885 34.504515 
L 659.505639 30.815992 
L 666.473694 28.158929 
L 672.237925 26.375811 
L 676.912052 25.272808 
L 680.627313 24.65151 
L 683.522037 24.337257 
L 685.732864 24.196795 
L 687.387993 24.142325 
L 688.602606 24.124379 
L 689.476328 24.119476 
L 690.092411 24.118395 
L 690.518237 24.118208 
L 690.806745 24.118184 
L 690.998351 24.118182 
L 691.123087 24.118182 
L 691.202686 24.118182 
L 691.252476 24.118182 
L 691.283005 24.118182 
L 691.301354 24.118182 
L 691.312165 24.118182 
L 691.318408 24.118182 
L 691.321942 24.118182 
L 691.323903 24.118182 
L 691.32497 24.118182 
L 691.325539 24.118182 
L 691.325836 24.118182 
L 691.325988 24.118182 
L 691.326065 24.118182 
L 691.326102 24.118182 
L 691.326121 24.118182 
L 691.326129 24.118182 
L 691.326133 24.118182 
L 691.326135 24.118182 
L 691.326136 24.118182 
L 691.326136 24.118182 
L 691.326136 24.118182 
L 691.326136 24.118182 
L 691.326136 24.118182 
L 691.326136 24.118182 
L 691.326136 24.118182 
L 691.326136 24.118182 
L 691.326136 24.118182 
" style="fill:none;stroke:#ff8b22;stroke-linecap:square;stroke-width:2;"/>
   </g>
   <g id="patch_5">
    <path d="M 399.975 219.8 
L 399.975 14.8 
" style="fill:none;stroke:#222222;stroke-linecap:square;stroke-linejoin:miter;"/>
   </g>
   <g id="patch_6">
    <path d="M 399.975 219.8 
L 705.2 219.8 
" style="fill:none;stroke:#222222;stroke-linecap:square;stroke-linejoin:miter;"/>
   </g>
  </g>
  <g id="axes_3">
   <g id="matplotlib.axis_5"/>
   <g id="line2d_16">
    <path clip-path="url(#p5a87767a08)" d="M 413.848864 210.481818 
L 413.848864 210.481818 
L 413.848864 210.481818 
L 413.848864 210.481818 
L 413.848864 210.481818 
L 413.848864 210.481818 
L 413.848864 210.481818 
L 413.848864 210.481818 
L 413.848864 210.481818 
L 413.848865 210.481817 
L 413.848867 210.481816 
L 413.848871 210.481813 
L 413.848879 210.481808 
L 413.848898 210.481795 
L 413.848935 210.48177 
L 413.849012 210.481719 
L 413.849164 210.481616 
L 413.849461 210.481417 
L 413.85003 210.481035 
L 413.851097 210.480318 
L 413.853058 210.479001 
L 413.856592 210.476627 
L 413.862835 210.472434 
L 413.873646 210.465174 
L 413.891995 210.45285 
L 413.922524 210.432345 
L 413.972314 210.398904 
L 414.051913 210.345443 
L 414.176649 210.261666 
L 414.368255 210.132976 
L 414.656763 209.939204 
L 415.082589 209.653204 
L 415.698672 209.239421 
L 416.572394 208.652598 
L 417.787007 207.83682 
L 419.442136 206.725177 
L 421.652963 205.240307 
L 424.547687 203.296106 
L 428.262948 200.800805 
L 432.937075 197.661494 
L 438.701306 193.790031 
L 445.669361 189.110037 
L 453.92615 183.564483 
L 463.516629 177.123175 
L 474.43603 169.789315 
L 486.62275 161.60428 
L 499.955024 152.649849 
L 514.252229 143.047336 
L 529.281139 132.953383 
L 544.766927 122.552576 
L 560.408073 112.047424 
L 575.893861 101.646617 
L 590.922771 91.552664 
L 605.219976 81.950151 
L 618.55225 72.99572 
L 630.73897 64.810685 
L 641.658371 57.476825 
L 651.24885 51.035517 
L 659.505639 45.489963 
L 666.473694 40.809969 
L 672.237925 36.938506 
L 676.912052 33.799195 
L 680.627313 31.303894 
L 683.522037 29.359693 
L 685.732864 27.874823 
L 687.387993 26.76318 
L 688.602606 25.947402 
L 689.476328 25.360579 
L 690.092411 24.946796 
L 690.518237 24.660796 
L 690.806745 24.467024 
L 690.998351 24.338334 
L 691.123087 24.254557 
L 691.202686 24.201096 
L 691.252476 24.167655 
L 691.283005 24.14715 
L 691.301354 24.134826 
L 691.312165 24.127566 
L 691.318408 24.123373 
L 691.321942 24.120999 
L 691.323903 24.119682 
L 691.32497 24.118965 
L 691.325539 24.118583 
L 691.325836 24.118384 
L 691.325988 24.118281 
L 691.326065 24.11823 
L 691.326102 24.118205 
L 691.326121 24.118192 
L 691.326129 24.118187 
L 691.326133 24.118184 
L 691.326135 24.118183 
L 691.326136 24.118182 
L 691.326136 24.118182 
L 691.326136 24.118182 
L 691.326136 24.118182 
L 691.326136 24.118182 
L 691.326136 24.118182 
L 691.326136 24.118182 
L 691.326136 24.118182 
L 691.326136 24.118182 
" style="fill:none;stroke:#00bfff;stroke-dasharray:7.4,3.2;stroke-dashoffset:0;stroke-width:2;"/>
   </g>
   <g id="patch_7">
    <path d="M 399.975 219.8 
L 399.975 14.8 
" style="fill:none;stroke:#222222;stroke-linecap:square;stroke-linejoin:miter;"/>
   </g>
   <g id="patch_8">
    <path d="M 399.975 219.8 
L 705.2 219.8 
" style="fill:none;stroke:#222222;stroke-linecap:square;stroke-linejoin:miter;"/>
   </g>
  </g>
 </g>
 <defs>
  <clipPath id="pcc9f5561ad">
   <rect height="205" width="305.225" x="14.8" y="14.8"/>
  </clipPath>
  <clipPath id="p5a87767a08">
   <rect height="205" width="305.225" x="399.975" y="14.8"/>
  </clipPath>
 </defs>
</svg>
