<?xml version="1.0" encoding="utf-8" standalone="no"?>
<!DOCTYPE svg PUBLIC "-//W3C//DTD SVG 1.1//EN"
  "http://www.w3.org/Graphics/SVG/1.1/DTD/svg11.dtd">
<!-- Created with matplotlib (http://matplotlib.org/) -->
<svg height="468pt" version="1.1" viewBox="0 0 1008 468" width="1008pt" xmlns="http://www.w3.org/2000/svg" xmlns:xlink="http://www.w3.org/1999/xlink">
 <defs>
  <style type="text/css">
*{stroke-linecap:butt;stroke-linejoin:round;}
  </style>
 </defs>
 <g id="figure_1">
  <g id="patch_1">
   <path d="M 0 468 
L 1008 468 
L 1008 0 
L 0 0 
z
" style="fill:none;"/>
  </g>
  <g id="axes_1">
   <g id="patch_2">
    <path d="M 50.4 200.2 
L 313.6 200.2 
L 313.6 23.4 
L 50.4 23.4 
z
" style="fill:none;"/>
   </g>
   <g id="matplotlib.axis_1">
    <g id="xtick_1">
     <g id="line2d_1">
      <defs>
       <path d="M 0 0 
L 0 4 
" id="m39cb3df989" style="stroke:#222222;"/>
      </defs>
      <g>
       <use style="fill:#222222;stroke:#222222;" x="96.545455" xlink:href="#m39cb3df989" y="200.2"/>
      </g>
     </g>
     <g id="text_1">
      <!-- −5 -->
      <defs>
       <path d="M 10.59375 35.5 
L 73.1875 35.5 
L 73.1875 27.203125 
L 10.59375 27.203125 
z
" id="DejaVuSans-2212"/>
       <path d="M 10.796875 72.90625 
L 49.515625 72.90625 
L 49.515625 64.59375 
L 19.828125 64.59375 
L 19.828125 46.734375 
Q 21.96875 47.46875 24.109375 47.828125 
Q 26.265625 48.1875 28.421875 48.1875 
Q 40.625 48.1875 47.75 41.5 
Q 54.890625 34.8125 54.890625 23.390625 
Q 54.890625 11.625 47.5625 5.09375 
Q 40.234375 -1.421875 26.90625 -1.421875 
Q 22.3125 -1.421875 17.546875 -0.640625 
Q 12.796875 0.140625 7.71875 1.703125 
L 7.71875 11.625 
Q 12.109375 9.234375 16.796875 8.0625 
Q 21.484375 6.890625 26.703125 6.890625 
Q 35.15625 6.890625 40.078125 11.328125 
Q 45.015625 15.765625 45.015625 23.390625 
Q 45.015625 31 40.078125 35.4375 
Q 35.15625 39.890625 26.703125 39.890625 
Q 22.75 39.890625 18.8125 39.015625 
Q 14.890625 38.140625 10.796875 36.28125 
z
" id="DejaVuSans-35"/>
      </defs>
      <g style="fill:#222222;" transform="translate(86.963033 218.077969)scale(0.13 -0.13)">
       <use xlink:href="#DejaVuSans-2212"/>
       <use x="83.789062" xlink:href="#DejaVuSans-35"/>
      </g>
     </g>
    </g>
    <g id="xtick_2">
     <g id="line2d_2">
      <g>
       <use style="fill:#222222;stroke:#222222;" x="182" xlink:href="#m39cb3df989" y="200.2"/>
      </g>
     </g>
     <g id="text_2">
      <!-- 0 -->
      <defs>
       <path d="M 31.78125 66.40625 
Q 24.171875 66.40625 20.328125 58.90625 
Q 16.5 51.421875 16.5 36.375 
Q 16.5 21.390625 20.328125 13.890625 
Q 24.171875 6.390625 31.78125 6.390625 
Q 39.453125 6.390625 43.28125 13.890625 
Q 47.125 21.390625 47.125 36.375 
Q 47.125 51.421875 43.28125 58.90625 
Q 39.453125 66.40625 31.78125 66.40625 
z
M 31.78125 74.21875 
Q 44.046875 74.21875 50.515625 64.515625 
Q 56.984375 54.828125 56.984375 36.375 
Q 56.984375 17.96875 50.515625 8.265625 
Q 44.046875 -1.421875 31.78125 -1.421875 
Q 19.53125 -1.421875 13.0625 8.265625 
Q 6.59375 17.96875 6.59375 36.375 
Q 6.59375 54.828125 13.0625 64.515625 
Q 19.53125 74.21875 31.78125 74.21875 
z
" id="DejaVuSans-30"/>
      </defs>
      <g style="fill:#222222;" transform="translate(177.864375 218.077969)scale(0.13 -0.13)">
       <use xlink:href="#DejaVuSans-30"/>
      </g>
     </g>
    </g>
    <g id="xtick_3">
     <g id="line2d_3">
      <g>
       <use style="fill:#222222;stroke:#222222;" x="267.454545" xlink:href="#m39cb3df989" y="200.2"/>
      </g>
     </g>
     <g id="text_3">
      <!-- 5 -->
      <g style="fill:#222222;" transform="translate(263.31892 218.077969)scale(0.13 -0.13)">
       <use xlink:href="#DejaVuSans-35"/>
      </g>
     </g>
    </g>
    <g id="text_4">
     <!-- Value -->
     <defs>
      <path d="M 28.609375 0 
L 0.78125 72.90625 
L 11.078125 72.90625 
L 34.1875 11.53125 
L 57.328125 72.90625 
L 67.578125 72.90625 
L 39.796875 0 
z
" id="DejaVuSans-56"/>
      <path d="M 34.28125 27.484375 
Q 23.390625 27.484375 19.1875 25 
Q 14.984375 22.515625 14.984375 16.5 
Q 14.984375 11.71875 18.140625 8.90625 
Q 21.296875 6.109375 26.703125 6.109375 
Q 34.1875 6.109375 38.703125 11.40625 
Q 43.21875 16.703125 43.21875 25.484375 
L 43.21875 27.484375 
z
M 52.203125 31.203125 
L 52.203125 0 
L 43.21875 0 
L 43.21875 8.296875 
Q 40.140625 3.328125 35.546875 0.953125 
Q 30.953125 -1.421875 24.3125 -1.421875 
Q 15.921875 -1.421875 10.953125 3.296875 
Q 6 8.015625 6 15.921875 
Q 6 25.140625 12.171875 29.828125 
Q 18.359375 34.515625 30.609375 34.515625 
L 43.21875 34.515625 
L 43.21875 35.40625 
Q 43.21875 41.609375 39.140625 45 
Q 35.0625 48.390625 27.6875 48.390625 
Q 23 48.390625 18.546875 47.265625 
Q 14.109375 46.140625 10.015625 43.890625 
L 10.015625 52.203125 
Q 14.9375 54.109375 19.578125 55.046875 
Q 24.21875 56 28.609375 56 
Q 40.484375 56 46.34375 49.84375 
Q 52.203125 43.703125 52.203125 31.203125 
z
" id="DejaVuSans-61"/>
      <path d="M 9.421875 75.984375 
L 18.40625 75.984375 
L 18.40625 0 
L 9.421875 0 
z
" id="DejaVuSans-6c"/>
      <path d="M 8.5 21.578125 
L 8.5 54.6875 
L 17.484375 54.6875 
L 17.484375 21.921875 
Q 17.484375 14.15625 20.5 10.265625 
Q 23.53125 6.390625 29.59375 6.390625 
Q 36.859375 6.390625 41.078125 11.03125 
Q 45.3125 15.671875 45.3125 23.6875 
L 45.3125 54.6875 
L 54.296875 54.6875 
L 54.296875 0 
L 45.3125 0 
L 45.3125 8.40625 
Q 42.046875 3.421875 37.71875 1 
Q 33.40625 -1.421875 27.6875 -1.421875 
Q 18.265625 -1.421875 13.375 4.4375 
Q 8.5 10.296875 8.5 21.578125 
z
M 31.109375 56 
z
" id="DejaVuSans-75"/>
      <path d="M 56.203125 29.59375 
L 56.203125 25.203125 
L 14.890625 25.203125 
Q 15.484375 15.921875 20.484375 11.0625 
Q 25.484375 6.203125 34.421875 6.203125 
Q 39.59375 6.203125 44.453125 7.46875 
Q 49.3125 8.734375 54.109375 11.28125 
L 54.109375 2.78125 
Q 49.265625 0.734375 44.1875 -0.34375 
Q 39.109375 -1.421875 33.890625 -1.421875 
Q 20.796875 -1.421875 13.15625 6.1875 
Q 5.515625 13.8125 5.515625 26.8125 
Q 5.515625 40.234375 12.765625 48.109375 
Q 20.015625 56 32.328125 56 
Q 43.359375 56 49.78125 48.890625 
Q 56.203125 41.796875 56.203125 29.59375 
z
M 47.21875 32.234375 
Q 47.125 39.59375 43.09375 43.984375 
Q 39.0625 48.390625 32.421875 48.390625 
Q 24.90625 48.390625 20.390625 44.140625 
Q 15.875 39.890625 15.1875 32.171875 
z
" id="DejaVuSans-65"/>
     </defs>
     <g style="fill:#222222;" transform="translate(159.41875 236.939062)scale(0.16 -0.16)">
      <use xlink:href="#DejaVuSans-56"/>
      <use x="68.298828" xlink:href="#DejaVuSans-61"/>
      <use x="129.578125" xlink:href="#DejaVuSans-6c"/>
      <use x="157.361328" xlink:href="#DejaVuSans-75"/>
      <use x="220.740234" xlink:href="#DejaVuSans-65"/>
     </g>
    </g>
   </g>
   <g id="matplotlib.axis_2">
    <g id="ytick_1">
     <g id="line2d_4">
      <defs>
       <path d="M 0 0 
L -4 0 
" id="m4d3f50a605" style="stroke:#222222;"/>
      </defs>
      <g>
       <use style="fill:#222222;stroke:#222222;" x="50.4" xlink:href="#m4d3f50a605" y="192.163636"/>
      </g>
     </g>
     <g id="text_5">
      <!-- 0.0 -->
      <defs>
       <path d="M 10.6875 12.40625 
L 21 12.40625 
L 21 0 
L 10.6875 0 
z
" id="DejaVuSans-2e"/>
      </defs>
      <g style="fill:#222222;" transform="translate(21.725938 197.102621)scale(0.13 -0.13)">
       <use xlink:href="#DejaVuSans-30"/>
       <use x="63.623047" xlink:href="#DejaVuSans-2e"/>
       <use x="95.410156" xlink:href="#DejaVuSans-30"/>
      </g>
     </g>
    </g>
    <g id="ytick_2">
     <g id="line2d_5">
      <g>
       <use style="fill:#222222;stroke:#222222;" x="50.4" xlink:href="#m4d3f50a605" y="151.774447"/>
      </g>
     </g>
     <g id="text_6">
      <!-- 0.1 -->
      <defs>
       <path d="M 12.40625 8.296875 
L 28.515625 8.296875 
L 28.515625 63.921875 
L 10.984375 60.40625 
L 10.984375 69.390625 
L 28.421875 72.90625 
L 38.28125 72.90625 
L 38.28125 8.296875 
L 54.390625 8.296875 
L 54.390625 0 
L 12.40625 0 
z
" id="DejaVuSans-31"/>
      </defs>
      <g style="fill:#222222;" transform="translate(21.725938 156.713432)scale(0.13 -0.13)">
       <use xlink:href="#DejaVuSans-30"/>
       <use x="63.623047" xlink:href="#DejaVuSans-2e"/>
       <use x="95.410156" xlink:href="#DejaVuSans-31"/>
      </g>
     </g>
    </g>
    <g id="ytick_3">
     <g id="line2d_6">
      <g>
       <use style="fill:#222222;stroke:#222222;" x="50.4" xlink:href="#m4d3f50a605" y="111.385258"/>
      </g>
     </g>
     <g id="text_7">
      <!-- 0.2 -->
      <defs>
       <path d="M 19.1875 8.296875 
L 53.609375 8.296875 
L 53.609375 0 
L 7.328125 0 
L 7.328125 8.296875 
Q 12.9375 14.109375 22.625 23.890625 
Q 32.328125 33.6875 34.8125 36.53125 
Q 39.546875 41.84375 41.421875 45.53125 
Q 43.3125 49.21875 43.3125 52.78125 
Q 43.3125 58.59375 39.234375 62.25 
Q 35.15625 65.921875 28.609375 65.921875 
Q 23.96875 65.921875 18.8125 64.3125 
Q 13.671875 62.703125 7.8125 59.421875 
L 7.8125 69.390625 
Q 13.765625 71.78125 18.9375 73 
Q 24.125 74.21875 28.421875 74.21875 
Q 39.75 74.21875 46.484375 68.546875 
Q 53.21875 62.890625 53.21875 53.421875 
Q 53.21875 48.921875 51.53125 44.890625 
Q 49.859375 40.875 45.40625 35.40625 
Q 44.1875 33.984375 37.640625 27.21875 
Q 31.109375 20.453125 19.1875 8.296875 
z
" id="DejaVuSans-32"/>
      </defs>
      <g style="fill:#222222;" transform="translate(21.725938 116.324242)scale(0.13 -0.13)">
       <use xlink:href="#DejaVuSans-30"/>
       <use x="63.623047" xlink:href="#DejaVuSans-2e"/>
       <use x="95.410156" xlink:href="#DejaVuSans-32"/>
      </g>
     </g>
    </g>
    <g id="ytick_4">
     <g id="line2d_7">
      <g>
       <use style="fill:#222222;stroke:#222222;" x="50.4" xlink:href="#m4d3f50a605" y="70.996069"/>
      </g>
     </g>
     <g id="text_8">
      <!-- 0.3 -->
      <defs>
       <path d="M 40.578125 39.3125 
Q 47.65625 37.796875 51.625 33 
Q 55.609375 28.21875 55.609375 21.1875 
Q 55.609375 10.40625 48.1875 4.484375 
Q 40.765625 -1.421875 27.09375 -1.421875 
Q 22.515625 -1.421875 17.65625 -0.515625 
Q 12.796875 0.390625 7.625 2.203125 
L 7.625 11.71875 
Q 11.71875 9.328125 16.59375 8.109375 
Q 21.484375 6.890625 26.8125 6.890625 
Q 36.078125 6.890625 40.9375 10.546875 
Q 45.796875 14.203125 45.796875 21.1875 
Q 45.796875 27.640625 41.28125 31.265625 
Q 36.765625 34.90625 28.71875 34.90625 
L 20.21875 34.90625 
L 20.21875 43.015625 
L 29.109375 43.015625 
Q 36.375 43.015625 40.234375 45.921875 
Q 44.09375 48.828125 44.09375 54.296875 
Q 44.09375 59.90625 40.109375 62.90625 
Q 36.140625 65.921875 28.71875 65.921875 
Q 24.65625 65.921875 20.015625 65.03125 
Q 15.375 64.15625 9.8125 62.3125 
L 9.8125 71.09375 
Q 15.4375 72.65625 20.34375 73.4375 
Q 25.25 74.21875 29.59375 74.21875 
Q 40.828125 74.21875 47.359375 69.109375 
Q 53.90625 64.015625 53.90625 55.328125 
Q 53.90625 49.265625 50.4375 45.09375 
Q 46.96875 40.921875 40.578125 39.3125 
z
" id="DejaVuSans-33"/>
      </defs>
      <g style="fill:#222222;" transform="translate(21.725938 75.935053)scale(0.13 -0.13)">
       <use xlink:href="#DejaVuSans-30"/>
       <use x="63.623047" xlink:href="#DejaVuSans-2e"/>
       <use x="95.410156" xlink:href="#DejaVuSans-33"/>
      </g>
     </g>
    </g>
    <g id="ytick_5">
     <g id="line2d_8">
      <g>
       <use style="fill:#222222;stroke:#222222;" x="50.4" xlink:href="#m4d3f50a605" y="30.606879"/>
      </g>
     </g>
     <g id="text_9">
      <!-- 0.4 -->
      <defs>
       <path d="M 37.796875 64.3125 
L 12.890625 25.390625 
L 37.796875 25.390625 
z
M 35.203125 72.90625 
L 47.609375 72.90625 
L 47.609375 25.390625 
L 58.015625 25.390625 
L 58.015625 17.1875 
L 47.609375 17.1875 
L 47.609375 0 
L 37.796875 0 
L 37.796875 17.1875 
L 4.890625 17.1875 
L 4.890625 26.703125 
z
" id="DejaVuSans-34"/>
      </defs>
      <g style="fill:#222222;" transform="translate(21.725938 35.545864)scale(0.13 -0.13)">
       <use xlink:href="#DejaVuSans-30"/>
       <use x="63.623047" xlink:href="#DejaVuSans-2e"/>
       <use x="95.410156" xlink:href="#DejaVuSans-34"/>
      </g>
     </g>
    </g>
    <g id="text_10">
     <!-- Probability -->
     <defs>
      <path d="M 19.671875 64.796875 
L 19.671875 37.40625 
L 32.078125 37.40625 
Q 38.96875 37.40625 42.71875 40.96875 
Q 46.484375 44.53125 46.484375 51.125 
Q 46.484375 57.671875 42.71875 61.234375 
Q 38.96875 64.796875 32.078125 64.796875 
z
M 9.8125 72.90625 
L 32.078125 72.90625 
Q 44.34375 72.90625 50.609375 67.359375 
Q 56.890625 61.8125 56.890625 51.125 
Q 56.890625 40.328125 50.609375 34.8125 
Q 44.34375 29.296875 32.078125 29.296875 
L 19.671875 29.296875 
L 19.671875 0 
L 9.8125 0 
z
" id="DejaVuSans-50"/>
      <path d="M 41.109375 46.296875 
Q 39.59375 47.171875 37.8125 47.578125 
Q 36.03125 48 33.890625 48 
Q 26.265625 48 22.1875 43.046875 
Q 18.109375 38.09375 18.109375 28.8125 
L 18.109375 0 
L 9.078125 0 
L 9.078125 54.6875 
L 18.109375 54.6875 
L 18.109375 46.1875 
Q 20.953125 51.171875 25.484375 53.578125 
Q 30.03125 56 36.53125 56 
Q 37.453125 56 38.578125 55.875 
Q 39.703125 55.765625 41.0625 55.515625 
z
" id="DejaVuSans-72"/>
      <path d="M 30.609375 48.390625 
Q 23.390625 48.390625 19.1875 42.75 
Q 14.984375 37.109375 14.984375 27.296875 
Q 14.984375 17.484375 19.15625 11.84375 
Q 23.34375 6.203125 30.609375 6.203125 
Q 37.796875 6.203125 41.984375 11.859375 
Q 46.1875 17.53125 46.1875 27.296875 
Q 46.1875 37.015625 41.984375 42.703125 
Q 37.796875 48.390625 30.609375 48.390625 
z
M 30.609375 56 
Q 42.328125 56 49.015625 48.375 
Q 55.71875 40.765625 55.71875 27.296875 
Q 55.71875 13.875 49.015625 6.21875 
Q 42.328125 -1.421875 30.609375 -1.421875 
Q 18.84375 -1.421875 12.171875 6.21875 
Q 5.515625 13.875 5.515625 27.296875 
Q 5.515625 40.765625 12.171875 48.375 
Q 18.84375 56 30.609375 56 
z
" id="DejaVuSans-6f"/>
      <path d="M 48.6875 27.296875 
Q 48.6875 37.203125 44.609375 42.84375 
Q 40.53125 48.484375 33.40625 48.484375 
Q 26.265625 48.484375 22.1875 42.84375 
Q 18.109375 37.203125 18.109375 27.296875 
Q 18.109375 17.390625 22.1875 11.75 
Q 26.265625 6.109375 33.40625 6.109375 
Q 40.53125 6.109375 44.609375 11.75 
Q 48.6875 17.390625 48.6875 27.296875 
z
M 18.109375 46.390625 
Q 20.953125 51.265625 25.265625 53.625 
Q 29.59375 56 35.59375 56 
Q 45.5625 56 51.78125 48.09375 
Q 58.015625 40.1875 58.015625 27.296875 
Q 58.015625 14.40625 51.78125 6.484375 
Q 45.5625 -1.421875 35.59375 -1.421875 
Q 29.59375 -1.421875 25.265625 0.953125 
Q 20.953125 3.328125 18.109375 8.203125 
L 18.109375 0 
L 9.078125 0 
L 9.078125 75.984375 
L 18.109375 75.984375 
z
" id="DejaVuSans-62"/>
      <path d="M 9.421875 54.6875 
L 18.40625 54.6875 
L 18.40625 0 
L 9.421875 0 
z
M 9.421875 75.984375 
L 18.40625 75.984375 
L 18.40625 64.59375 
L 9.421875 64.59375 
z
" id="DejaVuSans-69"/>
      <path d="M 18.3125 70.21875 
L 18.3125 54.6875 
L 36.8125 54.6875 
L 36.8125 47.703125 
L 18.3125 47.703125 
L 18.3125 18.015625 
Q 18.3125 11.328125 20.140625 9.421875 
Q 21.96875 7.515625 27.59375 7.515625 
L 36.8125 7.515625 
L 36.8125 0 
L 27.59375 0 
Q 17.1875 0 13.234375 3.875 
Q 9.28125 7.765625 9.28125 18.015625 
L 9.28125 47.703125 
L 2.6875 47.703125 
L 2.6875 54.6875 
L 9.28125 54.6875 
L 9.28125 70.21875 
z
" id="DejaVuSans-74"/>
      <path d="M 32.171875 -5.078125 
Q 28.375 -14.84375 24.75 -17.8125 
Q 21.140625 -20.796875 15.09375 -20.796875 
L 7.90625 -20.796875 
L 7.90625 -13.28125 
L 13.1875 -13.28125 
Q 16.890625 -13.28125 18.9375 -11.515625 
Q 21 -9.765625 23.484375 -3.21875 
L 25.09375 0.875 
L 2.984375 54.6875 
L 12.5 54.6875 
L 29.59375 11.921875 
L 46.6875 54.6875 
L 56.203125 54.6875 
z
" id="DejaVuSans-79"/>
     </defs>
     <g style="fill:#222222;" transform="translate(14.398438 154.4025)rotate(-90)scale(0.16 -0.16)">
      <use xlink:href="#DejaVuSans-50"/>
      <use x="60.287109" xlink:href="#DejaVuSans-72"/>
      <use x="101.369141" xlink:href="#DejaVuSans-6f"/>
      <use x="162.550781" xlink:href="#DejaVuSans-62"/>
      <use x="226.027344" xlink:href="#DejaVuSans-61"/>
      <use x="287.306641" xlink:href="#DejaVuSans-62"/>
      <use x="350.783203" xlink:href="#DejaVuSans-69"/>
      <use x="378.566406" xlink:href="#DejaVuSans-6c"/>
      <use x="406.349609" xlink:href="#DejaVuSans-69"/>
      <use x="434.132812" xlink:href="#DejaVuSans-74"/>
      <use x="473.341797" xlink:href="#DejaVuSans-79"/>
     </g>
    </g>
   </g>
   <g id="line2d_9">
    <path clip-path="url(#pd0a8ae3bda)" d="M 62.363636 192.163636 
L 64.780533 192.163636 
L 67.197429 192.163636 
L 69.614325 192.163636 
L 72.031221 192.163636 
L 74.448118 192.163636 
L 76.865014 192.163635 
L 79.28191 192.163634 
L 81.698806 192.163631 
L 84.115702 192.163624 
L 86.532599 192.163609 
L 88.949495 192.163577 
L 91.366391 192.16351 
L 93.783287 192.163372 
L 96.200184 192.163094 
L 98.61708 192.162544 
L 101.033976 192.16148 
L 103.450872 192.159464 
L 105.867769 192.155724 
L 108.284665 192.148928 
L 110.701561 192.136838 
L 113.118457 192.115776 
L 115.535354 192.079853 
L 117.95225 192.019871 
L 120.369146 191.921832 
L 122.786042 191.764989 
L 125.202938 191.519425 
L 127.619835 191.143205 
L 130.036731 190.579277 
L 132.453627 189.752405 
L 134.870523 188.566649 
L 137.28742 186.904021 
L 139.704316 184.625152 
L 142.121212 181.572828 
L 144.538108 177.579216 
L 146.955005 172.477331 
L 149.371901 166.116843 
L 151.788797 158.383662 
L 154.205693 149.221925 
L 156.62259 138.65617 
L 159.039486 126.810803 
L 161.456382 113.923526 
L 163.873278 100.349516 
L 166.290174 86.553767 
L 168.707071 73.090299 
L 171.123967 60.56859 
L 173.540863 49.609588 
L 175.957759 40.795465 
L 178.374656 34.618655 
L 180.791552 31.436364 
L 183.208448 31.436364 
L 185.625344 34.618655 
L 188.042241 40.795465 
L 190.459137 49.609588 
L 192.876033 60.56859 
L 195.292929 73.090299 
L 197.709826 86.553767 
L 200.126722 100.349516 
L 202.543618 113.923526 
L 204.960514 126.810803 
L 207.37741 138.65617 
L 209.794307 149.221925 
L 212.211203 158.383662 
L 214.628099 166.116843 
L 217.044995 172.477331 
L 219.461892 177.579216 
L 221.878788 181.572828 
L 224.295684 184.625152 
L 226.71258 186.904021 
L 229.129477 188.566649 
L 231.546373 189.752405 
L 233.963269 190.579277 
L 236.380165 191.143205 
L 238.797062 191.519425 
L 241.213958 191.764989 
L 243.630854 191.921832 
L 246.04775 192.019871 
L 248.464646 192.079853 
L 250.881543 192.115776 
L 253.298439 192.136838 
L 255.715335 192.148928 
L 258.132231 192.155724 
L 260.549128 192.159464 
L 262.966024 192.16148 
L 265.38292 192.162544 
L 267.799816 192.163094 
L 270.216713 192.163372 
L 272.633609 192.16351 
L 275.050505 192.163577 
L 277.467401 192.163609 
L 279.884298 192.163624 
L 282.301194 192.163631 
L 284.71809 192.163634 
L 287.134986 192.163635 
L 289.551882 192.163636 
L 291.968779 192.163636 
L 294.385675 192.163636 
L 296.802571 192.163636 
L 299.219467 192.163636 
L 301.636364 192.163636 
" style="fill:none;stroke:#00bfff;stroke-linecap:square;stroke-width:2;"/>
   </g>
   <g id="patch_3">
    <path d="M 50.4 200.2 
L 50.4 23.4 
" style="fill:none;stroke:#222222;stroke-linecap:square;stroke-linejoin:miter;"/>
   </g>
   <g id="patch_4">
    <path d="M 50.4 200.2 
L 313.6 200.2 
" style="fill:none;stroke:#222222;stroke-linecap:square;stroke-linejoin:miter;"/>
   </g>
   <g id="text_11">
    <!-- Normal -->
    <defs>
     <path d="M 9.8125 72.90625 
L 23.09375 72.90625 
L 55.421875 11.921875 
L 55.421875 72.90625 
L 64.984375 72.90625 
L 64.984375 0 
L 51.703125 0 
L 19.390625 60.984375 
L 19.390625 0 
L 9.8125 0 
z
" id="DejaVuSans-4e"/>
     <path d="M 52 44.1875 
Q 55.375 50.25 60.0625 53.125 
Q 64.75 56 71.09375 56 
Q 79.640625 56 84.28125 50.015625 
Q 88.921875 44.046875 88.921875 33.015625 
L 88.921875 0 
L 79.890625 0 
L 79.890625 32.71875 
Q 79.890625 40.578125 77.09375 44.375 
Q 74.3125 48.1875 68.609375 48.1875 
Q 61.625 48.1875 57.5625 43.546875 
Q 53.515625 38.921875 53.515625 30.90625 
L 53.515625 0 
L 44.484375 0 
L 44.484375 32.71875 
Q 44.484375 40.625 41.703125 44.40625 
Q 38.921875 48.1875 33.109375 48.1875 
Q 26.21875 48.1875 22.15625 43.53125 
Q 18.109375 38.875 18.109375 30.90625 
L 18.109375 0 
L 9.078125 0 
L 9.078125 54.6875 
L 18.109375 54.6875 
L 18.109375 46.1875 
Q 21.1875 51.21875 25.484375 53.609375 
Q 29.78125 56 35.6875 56 
Q 41.65625 56 45.828125 52.96875 
Q 50 49.953125 52 44.1875 
z
" id="DejaVuSans-6d"/>
    </defs>
    <g style="fill:#00bfff;" transform="translate(149.279375 17.4)scale(0.18 -0.18)">
     <use xlink:href="#DejaVuSans-4e"/>
     <use x="74.804688" xlink:href="#DejaVuSans-6f"/>
     <use x="135.986328" xlink:href="#DejaVuSans-72"/>
     <use x="177.083984" xlink:href="#DejaVuSans-6d"/>
     <use x="274.496094" xlink:href="#DejaVuSans-61"/>
     <use x="335.775391" xlink:href="#DejaVuSans-6c"/>
    </g>
   </g>
  </g>
  <g id="axes_2">
   <g id="patch_5">
    <path d="M 392.56 200.2 
L 655.76 200.2 
L 655.76 23.4 
L 392.56 23.4 
z
" style="fill:none;"/>
   </g>
   <g id="matplotlib.axis_3">
    <g id="xtick_4">
     <g id="line2d_10">
      <g>
       <use style="fill:#222222;stroke:#222222;" x="404.523636" xlink:href="#m39cb3df989" y="200.2"/>
      </g>
     </g>
     <g id="text_12">
      <!-- 0 -->
      <g style="fill:#222222;" transform="translate(400.388011 218.077969)scale(0.13 -0.13)">
       <use xlink:href="#DejaVuSans-30"/>
      </g>
     </g>
    </g>
    <g id="xtick_5">
     <g id="line2d_11">
      <g>
       <use style="fill:#222222;stroke:#222222;" x="489.978182" xlink:href="#m39cb3df989" y="200.2"/>
      </g>
     </g>
     <g id="text_13">
      <!-- 5 -->
      <g style="fill:#222222;" transform="translate(485.842557 218.077969)scale(0.13 -0.13)">
       <use xlink:href="#DejaVuSans-35"/>
      </g>
     </g>
    </g>
    <g id="xtick_6">
     <g id="line2d_12">
      <g>
       <use style="fill:#222222;stroke:#222222;" x="575.432727" xlink:href="#m39cb3df989" y="200.2"/>
      </g>
     </g>
     <g id="text_14">
      <!-- 10 -->
      <g style="fill:#222222;" transform="translate(567.161477 218.077969)scale(0.13 -0.13)">
       <use xlink:href="#DejaVuSans-31"/>
       <use x="63.623047" xlink:href="#DejaVuSans-30"/>
      </g>
     </g>
    </g>
    <g id="text_15">
     <!-- Value -->
     <g style="fill:#222222;" transform="translate(501.57875 236.939062)scale(0.16 -0.16)">
      <use xlink:href="#DejaVuSans-56"/>
      <use x="68.298828" xlink:href="#DejaVuSans-61"/>
      <use x="129.578125" xlink:href="#DejaVuSans-6c"/>
      <use x="157.361328" xlink:href="#DejaVuSans-75"/>
      <use x="220.740234" xlink:href="#DejaVuSans-65"/>
     </g>
    </g>
   </g>
   <g id="matplotlib.axis_4">
    <g id="ytick_6">
     <g id="line2d_13">
      <g>
       <use style="fill:#222222;stroke:#222222;" x="392.56" xlink:href="#m4d3f50a605" y="192.16377"/>
      </g>
     </g>
     <g id="text_16">
      <!-- 0.0 -->
      <g style="fill:#222222;" transform="translate(363.885937 197.102754)scale(0.13 -0.13)">
       <use xlink:href="#DejaVuSans-30"/>
       <use x="63.623047" xlink:href="#DejaVuSans-2e"/>
       <use x="95.410156" xlink:href="#DejaVuSans-30"/>
      </g>
     </g>
    </g>
    <g id="ytick_7">
     <g id="line2d_14">
      <g>
       <use style="fill:#222222;stroke:#222222;" x="392.56" xlink:href="#m4d3f50a605" y="160.018289"/>
      </g>
     </g>
     <g id="text_17">
      <!-- 0.2 -->
      <g style="fill:#222222;" transform="translate(363.885937 164.957273)scale(0.13 -0.13)">
       <use xlink:href="#DejaVuSans-30"/>
       <use x="63.623047" xlink:href="#DejaVuSans-2e"/>
       <use x="95.410156" xlink:href="#DejaVuSans-32"/>
      </g>
     </g>
    </g>
    <g id="ytick_8">
     <g id="line2d_15">
      <g>
       <use style="fill:#222222;stroke:#222222;" x="392.56" xlink:href="#m4d3f50a605" y="127.872807"/>
      </g>
     </g>
     <g id="text_18">
      <!-- 0.4 -->
      <g style="fill:#222222;" transform="translate(363.885937 132.811792)scale(0.13 -0.13)">
       <use xlink:href="#DejaVuSans-30"/>
       <use x="63.623047" xlink:href="#DejaVuSans-2e"/>
       <use x="95.410156" xlink:href="#DejaVuSans-34"/>
      </g>
     </g>
    </g>
    <g id="ytick_9">
     <g id="line2d_16">
      <g>
       <use style="fill:#222222;stroke:#222222;" x="392.56" xlink:href="#m4d3f50a605" y="95.727326"/>
      </g>
     </g>
     <g id="text_19">
      <!-- 0.6 -->
      <defs>
       <path d="M 33.015625 40.375 
Q 26.375 40.375 22.484375 35.828125 
Q 18.609375 31.296875 18.609375 23.390625 
Q 18.609375 15.53125 22.484375 10.953125 
Q 26.375 6.390625 33.015625 6.390625 
Q 39.65625 6.390625 43.53125 10.953125 
Q 47.40625 15.53125 47.40625 23.390625 
Q 47.40625 31.296875 43.53125 35.828125 
Q 39.65625 40.375 33.015625 40.375 
z
M 52.59375 71.296875 
L 52.59375 62.3125 
Q 48.875 64.0625 45.09375 64.984375 
Q 41.3125 65.921875 37.59375 65.921875 
Q 27.828125 65.921875 22.671875 59.328125 
Q 17.53125 52.734375 16.796875 39.40625 
Q 19.671875 43.65625 24.015625 45.921875 
Q 28.375 48.1875 33.59375 48.1875 
Q 44.578125 48.1875 50.953125 41.515625 
Q 57.328125 34.859375 57.328125 23.390625 
Q 57.328125 12.15625 50.6875 5.359375 
Q 44.046875 -1.421875 33.015625 -1.421875 
Q 20.359375 -1.421875 13.671875 8.265625 
Q 6.984375 17.96875 6.984375 36.375 
Q 6.984375 53.65625 15.1875 63.9375 
Q 23.390625 74.21875 37.203125 74.21875 
Q 40.921875 74.21875 44.703125 73.484375 
Q 48.484375 72.75 52.59375 71.296875 
z
" id="DejaVuSans-36"/>
      </defs>
      <g style="fill:#222222;" transform="translate(363.885937 100.666311)scale(0.13 -0.13)">
       <use xlink:href="#DejaVuSans-30"/>
       <use x="63.623047" xlink:href="#DejaVuSans-2e"/>
       <use x="95.410156" xlink:href="#DejaVuSans-36"/>
      </g>
     </g>
    </g>
    <g id="ytick_10">
     <g id="line2d_17">
      <g>
       <use style="fill:#222222;stroke:#222222;" x="392.56" xlink:href="#m4d3f50a605" y="63.581845"/>
      </g>
     </g>
     <g id="text_20">
      <!-- 0.8 -->
      <defs>
       <path d="M 31.78125 34.625 
Q 24.75 34.625 20.71875 30.859375 
Q 16.703125 27.09375 16.703125 20.515625 
Q 16.703125 13.921875 20.71875 10.15625 
Q 24.75 6.390625 31.78125 6.390625 
Q 38.8125 6.390625 42.859375 10.171875 
Q 46.921875 13.96875 46.921875 20.515625 
Q 46.921875 27.09375 42.890625 30.859375 
Q 38.875 34.625 31.78125 34.625 
z
M 21.921875 38.8125 
Q 15.578125 40.375 12.03125 44.71875 
Q 8.5 49.078125 8.5 55.328125 
Q 8.5 64.0625 14.71875 69.140625 
Q 20.953125 74.21875 31.78125 74.21875 
Q 42.671875 74.21875 48.875 69.140625 
Q 55.078125 64.0625 55.078125 55.328125 
Q 55.078125 49.078125 51.53125 44.71875 
Q 48 40.375 41.703125 38.8125 
Q 48.828125 37.15625 52.796875 32.3125 
Q 56.78125 27.484375 56.78125 20.515625 
Q 56.78125 9.90625 50.3125 4.234375 
Q 43.84375 -1.421875 31.78125 -1.421875 
Q 19.734375 -1.421875 13.25 4.234375 
Q 6.78125 9.90625 6.78125 20.515625 
Q 6.78125 27.484375 10.78125 32.3125 
Q 14.796875 37.15625 21.921875 38.8125 
z
M 18.3125 54.390625 
Q 18.3125 48.734375 21.84375 45.5625 
Q 25.390625 42.390625 31.78125 42.390625 
Q 38.140625 42.390625 41.71875 45.5625 
Q 45.3125 48.734375 45.3125 54.390625 
Q 45.3125 60.0625 41.71875 63.234375 
Q 38.140625 66.40625 31.78125 66.40625 
Q 25.390625 66.40625 21.84375 63.234375 
Q 18.3125 60.0625 18.3125 54.390625 
z
" id="DejaVuSans-38"/>
      </defs>
      <g style="fill:#222222;" transform="translate(363.885937 68.520829)scale(0.13 -0.13)">
       <use xlink:href="#DejaVuSans-30"/>
       <use x="63.623047" xlink:href="#DejaVuSans-2e"/>
       <use x="95.410156" xlink:href="#DejaVuSans-38"/>
      </g>
     </g>
    </g>
    <g id="ytick_11">
     <g id="line2d_18">
      <g>
       <use style="fill:#222222;stroke:#222222;" x="392.56" xlink:href="#m4d3f50a605" y="31.436364"/>
      </g>
     </g>
     <g id="text_21">
      <!-- 1.0 -->
      <g style="fill:#222222;" transform="translate(363.885937 36.375348)scale(0.13 -0.13)">
       <use xlink:href="#DejaVuSans-31"/>
       <use x="63.623047" xlink:href="#DejaVuSans-2e"/>
       <use x="95.410156" xlink:href="#DejaVuSans-30"/>
      </g>
     </g>
    </g>
    <g id="text_22">
     <!-- Probability -->
     <g style="fill:#222222;" transform="translate(356.558437 154.4025)rotate(-90)scale(0.16 -0.16)">
      <use xlink:href="#DejaVuSans-50"/>
      <use x="60.287109" xlink:href="#DejaVuSans-72"/>
      <use x="101.369141" xlink:href="#DejaVuSans-6f"/>
      <use x="162.550781" xlink:href="#DejaVuSans-62"/>
      <use x="226.027344" xlink:href="#DejaVuSans-61"/>
      <use x="287.306641" xlink:href="#DejaVuSans-62"/>
      <use x="350.783203" xlink:href="#DejaVuSans-69"/>
      <use x="378.566406" xlink:href="#DejaVuSans-6c"/>
      <use x="406.349609" xlink:href="#DejaVuSans-69"/>
      <use x="434.132812" xlink:href="#DejaVuSans-74"/>
      <use x="473.341797" xlink:href="#DejaVuSans-79"/>
     </g>
    </g>
   </g>
   <g id="line2d_19">
    <path clip-path="url(#p3bcd46dff0)" d="M 404.523636 31.436364 
L 406.940533 52.631534 
L 409.357429 71.03169 
L 411.774325 87.005413 
L 414.191221 100.872676 
L 416.608118 112.911259 
L 419.025014 123.362311 
L 421.44191 132.435179 
L 423.858806 140.311606 
L 426.275702 147.149366 
L 428.692599 153.085429 
L 431.109495 158.238701 
L 433.526391 162.71241 
L 435.943287 166.596169 
L 438.360184 169.967776 
L 440.77708 172.894768 
L 443.193976 175.435777 
L 445.610872 177.641702 
L 448.027769 179.556732 
L 450.444665 181.219225 
L 452.861561 182.662486 
L 455.278457 183.915423 
L 457.695354 185.003135 
L 460.11225 185.94741 
L 462.529146 186.767163 
L 464.946042 187.478815 
L 467.362938 188.096622 
L 469.779835 188.632958 
L 472.196731 189.098567 
L 474.613627 189.502776 
L 477.030523 189.853682 
L 479.44742 190.158314 
L 481.864316 190.422774 
L 484.281212 190.65236 
L 486.698108 190.85167 
L 489.115005 191.024697 
L 491.531901 191.174907 
L 493.948797 191.305309 
L 496.365693 191.418514 
L 498.78259 191.516791 
L 501.199486 191.602108 
L 503.616382 191.676175 
L 506.033278 191.740474 
L 508.450174 191.796294 
L 510.867071 191.844754 
L 513.283967 191.886822 
L 515.700863 191.923343 
L 518.117759 191.955049 
L 520.534656 191.982573 
L 522.951552 192.006467 
L 525.368448 192.027211 
L 527.785344 192.045219 
L 530.202241 192.060852 
L 532.619137 192.074424 
L 535.036033 192.086206 
L 537.452929 192.096435 
L 539.869826 192.105314 
L 542.286722 192.113023 
L 544.703618 192.119715 
L 547.120514 192.125524 
L 549.53741 192.130568 
L 551.954307 192.134946 
L 554.371203 192.138747 
L 556.788099 192.142047 
L 559.204995 192.144912 
L 561.621892 192.147398 
L 564.038788 192.149557 
L 566.455684 192.151432 
L 568.87258 192.153059 
L 571.289477 192.154471 
L 573.706373 192.155697 
L 576.123269 192.156762 
L 578.540165 192.157686 
L 580.957062 192.158488 
L 583.373958 192.159185 
L 585.790854 192.15979 
L 588.20775 192.160314 
L 590.624646 192.16077 
L 593.041543 192.161166 
L 595.458439 192.161509 
L 597.875335 192.161807 
L 600.292231 192.162066 
L 602.709128 192.162291 
L 605.126024 192.162486 
L 607.54292 192.162655 
L 609.959816 192.162802 
L 612.376713 192.16293 
L 614.793609 192.163041 
L 617.210505 192.163137 
L 619.627401 192.16322 
L 622.044298 192.163293 
L 624.461194 192.163356 
L 626.87809 192.16341 
L 629.294986 192.163458 
L 631.711882 192.163499 
L 634.128779 192.163535 
L 636.545675 192.163566 
L 638.962571 192.163593 
L 641.379467 192.163616 
L 643.796364 192.163636 
" style="fill:none;stroke:#9fc857;stroke-linecap:square;stroke-width:2;"/>
   </g>
   <g id="patch_6">
    <path d="M 392.56 200.2 
L 392.56 23.4 
" style="fill:none;stroke:#222222;stroke-linecap:square;stroke-linejoin:miter;"/>
   </g>
   <g id="patch_7">
    <path d="M 392.56 200.2 
L 655.76 200.2 
" style="fill:none;stroke:#222222;stroke-linecap:square;stroke-linejoin:miter;"/>
   </g>
   <g id="text_23">
    <!-- Exponential -->
    <defs>
     <path d="M 9.8125 72.90625 
L 55.90625 72.90625 
L 55.90625 64.59375 
L 19.671875 64.59375 
L 19.671875 43.015625 
L 54.390625 43.015625 
L 54.390625 34.71875 
L 19.671875 34.71875 
L 19.671875 8.296875 
L 56.78125 8.296875 
L 56.78125 0 
L 9.8125 0 
z
" id="DejaVuSans-45"/>
     <path d="M 54.890625 54.6875 
L 35.109375 28.078125 
L 55.90625 0 
L 45.3125 0 
L 29.390625 21.484375 
L 13.484375 0 
L 2.875 0 
L 24.125 28.609375 
L 4.6875 54.6875 
L 15.28125 54.6875 
L 29.78125 35.203125 
L 44.28125 54.6875 
z
" id="DejaVuSans-78"/>
     <path d="M 18.109375 8.203125 
L 18.109375 -20.796875 
L 9.078125 -20.796875 
L 9.078125 54.6875 
L 18.109375 54.6875 
L 18.109375 46.390625 
Q 20.953125 51.265625 25.265625 53.625 
Q 29.59375 56 35.59375 56 
Q 45.5625 56 51.78125 48.09375 
Q 58.015625 40.1875 58.015625 27.296875 
Q 58.015625 14.40625 51.78125 6.484375 
Q 45.5625 -1.421875 35.59375 -1.421875 
Q 29.59375 -1.421875 25.265625 0.953125 
Q 20.953125 3.328125 18.109375 8.203125 
z
M 48.6875 27.296875 
Q 48.6875 37.203125 44.609375 42.84375 
Q 40.53125 48.484375 33.40625 48.484375 
Q 26.265625 48.484375 22.1875 42.84375 
Q 18.109375 37.203125 18.109375 27.296875 
Q 18.109375 17.390625 22.1875 11.75 
Q 26.265625 6.109375 33.40625 6.109375 
Q 40.53125 6.109375 44.609375 11.75 
Q 48.6875 17.390625 48.6875 27.296875 
z
" id="DejaVuSans-70"/>
     <path d="M 54.890625 33.015625 
L 54.890625 0 
L 45.90625 0 
L 45.90625 32.71875 
Q 45.90625 40.484375 42.875 44.328125 
Q 39.84375 48.1875 33.796875 48.1875 
Q 26.515625 48.1875 22.3125 43.546875 
Q 18.109375 38.921875 18.109375 30.90625 
L 18.109375 0 
L 9.078125 0 
L 9.078125 54.6875 
L 18.109375 54.6875 
L 18.109375 46.1875 
Q 21.34375 51.125 25.703125 53.5625 
Q 30.078125 56 35.796875 56 
Q 45.21875 56 50.046875 50.171875 
Q 54.890625 44.34375 54.890625 33.015625 
z
" id="DejaVuSans-6e"/>
    </defs>
    <g style="fill:#9fc857;" transform="translate(470.93625 17.4)scale(0.18 -0.18)">
     <use xlink:href="#DejaVuSans-45"/>
     <use x="63.183594" xlink:href="#DejaVuSans-78"/>
     <use x="122.363281" xlink:href="#DejaVuSans-70"/>
     <use x="185.839844" xlink:href="#DejaVuSans-6f"/>
     <use x="247.021484" xlink:href="#DejaVuSans-6e"/>
     <use x="310.400391" xlink:href="#DejaVuSans-65"/>
     <use x="371.923828" xlink:href="#DejaVuSans-6e"/>
     <use x="435.302734" xlink:href="#DejaVuSans-74"/>
     <use x="474.511719" xlink:href="#DejaVuSans-69"/>
     <use x="502.294922" xlink:href="#DejaVuSans-61"/>
     <use x="563.574219" xlink:href="#DejaVuSans-6c"/>
    </g>
   </g>
  </g>
  <g id="axes_3">
   <g id="patch_8">
    <path d="M 734.72 200.2 
L 997.92 200.2 
L 997.92 23.4 
L 734.72 23.4 
z
" style="fill:none;"/>
   </g>
   <g id="matplotlib.axis_5">
    <g id="xtick_7">
     <g id="line2d_20">
      <g>
       <use style="fill:#222222;stroke:#222222;" x="780.865455" xlink:href="#m39cb3df989" y="200.2"/>
      </g>
     </g>
     <g id="text_24">
      <!-- −5 -->
      <g style="fill:#222222;" transform="translate(771.283033 218.077969)scale(0.13 -0.13)">
       <use xlink:href="#DejaVuSans-2212"/>
       <use x="83.789062" xlink:href="#DejaVuSans-35"/>
      </g>
     </g>
    </g>
    <g id="xtick_8">
     <g id="line2d_21">
      <g>
       <use style="fill:#222222;stroke:#222222;" x="866.32" xlink:href="#m39cb3df989" y="200.2"/>
      </g>
     </g>
     <g id="text_25">
      <!-- 0 -->
      <g style="fill:#222222;" transform="translate(862.184375 218.077969)scale(0.13 -0.13)">
       <use xlink:href="#DejaVuSans-30"/>
      </g>
     </g>
    </g>
    <g id="xtick_9">
     <g id="line2d_22">
      <g>
       <use style="fill:#222222;stroke:#222222;" x="951.774545" xlink:href="#m39cb3df989" y="200.2"/>
      </g>
     </g>
     <g id="text_26">
      <!-- 5 -->
      <g style="fill:#222222;" transform="translate(947.63892 218.077969)scale(0.13 -0.13)">
       <use xlink:href="#DejaVuSans-35"/>
      </g>
     </g>
    </g>
    <g id="text_27">
     <!-- Value -->
     <g style="fill:#222222;" transform="translate(843.73875 236.939062)scale(0.16 -0.16)">
      <use xlink:href="#DejaVuSans-56"/>
      <use x="68.298828" xlink:href="#DejaVuSans-61"/>
      <use x="129.578125" xlink:href="#DejaVuSans-6c"/>
      <use x="157.361328" xlink:href="#DejaVuSans-75"/>
      <use x="220.740234" xlink:href="#DejaVuSans-65"/>
     </g>
    </g>
   </g>
   <g id="matplotlib.axis_6">
    <g id="ytick_12">
     <g id="line2d_23">
      <g>
       <use style="fill:#222222;stroke:#222222;" x="734.72" xlink:href="#m4d3f50a605" y="192.163636"/>
      </g>
     </g>
     <g id="text_28">
      <!-- 0.00 -->
      <g style="fill:#222222;" transform="translate(697.774688 197.102621)scale(0.13 -0.13)">
       <use xlink:href="#DejaVuSans-30"/>
       <use x="63.623047" xlink:href="#DejaVuSans-2e"/>
       <use x="95.410156" xlink:href="#DejaVuSans-30"/>
       <use x="159.033203" xlink:href="#DejaVuSans-30"/>
      </g>
     </g>
    </g>
    <g id="ytick_13">
     <g id="line2d_24">
      <g>
       <use style="fill:#222222;stroke:#222222;" x="734.72" xlink:href="#m4d3f50a605" y="160.018182"/>
      </g>
     </g>
     <g id="text_29">
      <!-- 0.02 -->
      <g style="fill:#222222;" transform="translate(697.774688 164.957166)scale(0.13 -0.13)">
       <use xlink:href="#DejaVuSans-30"/>
       <use x="63.623047" xlink:href="#DejaVuSans-2e"/>
       <use x="95.410156" xlink:href="#DejaVuSans-30"/>
       <use x="159.033203" xlink:href="#DejaVuSans-32"/>
      </g>
     </g>
    </g>
    <g id="ytick_14">
     <g id="line2d_25">
      <g>
       <use style="fill:#222222;stroke:#222222;" x="734.72" xlink:href="#m4d3f50a605" y="127.872727"/>
      </g>
     </g>
     <g id="text_30">
      <!-- 0.04 -->
      <g style="fill:#222222;" transform="translate(697.774688 132.811712)scale(0.13 -0.13)">
       <use xlink:href="#DejaVuSans-30"/>
       <use x="63.623047" xlink:href="#DejaVuSans-2e"/>
       <use x="95.410156" xlink:href="#DejaVuSans-30"/>
       <use x="159.033203" xlink:href="#DejaVuSans-34"/>
      </g>
     </g>
    </g>
    <g id="ytick_15">
     <g id="line2d_26">
      <g>
       <use style="fill:#222222;stroke:#222222;" x="734.72" xlink:href="#m4d3f50a605" y="95.727273"/>
      </g>
     </g>
     <g id="text_31">
      <!-- 0.06 -->
      <g style="fill:#222222;" transform="translate(697.774688 100.666257)scale(0.13 -0.13)">
       <use xlink:href="#DejaVuSans-30"/>
       <use x="63.623047" xlink:href="#DejaVuSans-2e"/>
       <use x="95.410156" xlink:href="#DejaVuSans-30"/>
       <use x="159.033203" xlink:href="#DejaVuSans-36"/>
      </g>
     </g>
    </g>
    <g id="ytick_16">
     <g id="line2d_27">
      <g>
       <use style="fill:#222222;stroke:#222222;" x="734.72" xlink:href="#m4d3f50a605" y="63.581818"/>
      </g>
     </g>
     <g id="text_32">
      <!-- 0.08 -->
      <g style="fill:#222222;" transform="translate(697.774688 68.520803)scale(0.13 -0.13)">
       <use xlink:href="#DejaVuSans-30"/>
       <use x="63.623047" xlink:href="#DejaVuSans-2e"/>
       <use x="95.410156" xlink:href="#DejaVuSans-30"/>
       <use x="159.033203" xlink:href="#DejaVuSans-38"/>
      </g>
     </g>
    </g>
    <g id="ytick_17">
     <g id="line2d_28">
      <g>
       <use style="fill:#222222;stroke:#222222;" x="734.72" xlink:href="#m4d3f50a605" y="31.436364"/>
      </g>
     </g>
     <g id="text_33">
      <!-- 0.10 -->
      <g style="fill:#222222;" transform="translate(697.774688 36.375348)scale(0.13 -0.13)">
       <use xlink:href="#DejaVuSans-30"/>
       <use x="63.623047" xlink:href="#DejaVuSans-2e"/>
       <use x="95.410156" xlink:href="#DejaVuSans-31"/>
       <use x="159.033203" xlink:href="#DejaVuSans-30"/>
      </g>
     </g>
    </g>
    <g id="text_34">
     <!-- Probability -->
     <g style="fill:#222222;" transform="translate(690.447188 154.4025)rotate(-90)scale(0.16 -0.16)">
      <use xlink:href="#DejaVuSans-50"/>
      <use x="60.287109" xlink:href="#DejaVuSans-72"/>
      <use x="101.369141" xlink:href="#DejaVuSans-6f"/>
      <use x="162.550781" xlink:href="#DejaVuSans-62"/>
      <use x="226.027344" xlink:href="#DejaVuSans-61"/>
      <use x="287.306641" xlink:href="#DejaVuSans-62"/>
      <use x="350.783203" xlink:href="#DejaVuSans-69"/>
      <use x="378.566406" xlink:href="#DejaVuSans-6c"/>
      <use x="406.349609" xlink:href="#DejaVuSans-69"/>
      <use x="434.132812" xlink:href="#DejaVuSans-74"/>
      <use x="473.341797" xlink:href="#DejaVuSans-79"/>
     </g>
    </g>
   </g>
   <g id="line2d_29">
    <path clip-path="url(#p5f21c58368)" d="M 746.683636 192.163636 
L 749.100533 192.163636 
L 751.517429 192.163636 
L 753.934325 192.163636 
L 756.351221 192.163636 
L 758.768118 192.163636 
L 761.185014 192.163636 
L 763.60191 192.163636 
L 766.018806 192.163636 
L 768.435702 192.163636 
L 770.852599 192.163636 
L 773.269495 192.163636 
L 775.686391 192.163636 
L 778.103287 192.163636 
L 780.520184 192.163636 
L 782.93708 31.436364 
L 785.353976 31.436364 
L 787.770872 31.436364 
L 790.187769 31.436364 
L 792.604665 31.436364 
L 795.021561 31.436364 
L 797.438457 31.436364 
L 799.855354 31.436364 
L 802.27225 31.436364 
L 804.689146 31.436364 
L 807.106042 31.436364 
L 809.522938 31.436364 
L 811.939835 31.436364 
L 814.356731 31.436364 
L 816.773627 31.436364 
L 819.190523 31.436364 
L 821.60742 31.436364 
L 824.024316 31.436364 
L 826.441212 31.436364 
L 828.858108 31.436364 
L 831.275005 31.436364 
L 833.691901 31.436364 
L 836.108797 31.436364 
L 838.525693 31.436364 
L 840.94259 31.436364 
L 843.359486 31.436364 
L 845.776382 31.436364 
L 848.193278 31.436364 
L 850.610174 31.436364 
L 853.027071 31.436364 
L 855.443967 31.436364 
L 857.860863 31.436364 
L 860.277759 31.436364 
L 862.694656 31.436364 
L 865.111552 31.436364 
L 867.528448 31.436364 
L 869.945344 31.436364 
L 872.362241 31.436364 
L 874.779137 31.436364 
L 877.196033 31.436364 
L 879.612929 31.436364 
L 882.029826 31.436364 
L 884.446722 31.436364 
L 886.863618 31.436364 
L 889.280514 31.436364 
L 891.69741 31.436364 
L 894.114307 31.436364 
L 896.531203 31.436364 
L 898.948099 31.436364 
L 901.364995 31.436364 
L 903.781892 31.436364 
L 906.198788 31.436364 
L 908.615684 31.436364 
L 911.03258 31.436364 
L 913.449477 31.436364 
L 915.866373 31.436364 
L 918.283269 31.436364 
L 920.700165 31.436364 
L 923.117062 31.436364 
L 925.533958 31.436364 
L 927.950854 31.436364 
L 930.36775 31.436364 
L 932.784646 31.436364 
L 935.201543 31.436364 
L 937.618439 31.436364 
L 940.035335 31.436364 
L 942.452231 31.436364 
L 944.869128 31.436364 
L 947.286024 31.436364 
L 949.70292 31.436364 
L 952.119816 192.163636 
L 954.536713 192.163636 
L 956.953609 192.163636 
L 959.370505 192.163636 
L 961.787401 192.163636 
L 964.204298 192.163636 
L 966.621194 192.163636 
L 969.03809 192.163636 
L 971.454986 192.163636 
L 973.871882 192.163636 
L 976.288779 192.163636 
L 978.705675 192.163636 
L 981.122571 192.163636 
L 983.539467 192.163636 
L 985.956364 192.163636 
" style="fill:none;stroke:#fb4c52;stroke-linecap:square;stroke-width:2;"/>
   </g>
   <g id="patch_9">
    <path d="M 734.72 200.2 
L 734.72 23.4 
" style="fill:none;stroke:#222222;stroke-linecap:square;stroke-linejoin:miter;"/>
   </g>
   <g id="patch_10">
    <path d="M 734.72 200.2 
L 997.92 200.2 
" style="fill:none;stroke:#222222;stroke-linecap:square;stroke-linejoin:miter;"/>
   </g>
   <g id="text_35">
    <!-- Uniform -->
    <defs>
     <path d="M 8.6875 72.90625 
L 18.609375 72.90625 
L 18.609375 28.609375 
Q 18.609375 16.890625 22.84375 11.734375 
Q 27.09375 6.59375 36.625 6.59375 
Q 46.09375 6.59375 50.34375 11.734375 
Q 54.59375 16.890625 54.59375 28.609375 
L 54.59375 72.90625 
L 64.5 72.90625 
L 64.5 27.390625 
Q 64.5 13.140625 57.4375 5.859375 
Q 50.390625 -1.421875 36.625 -1.421875 
Q 22.796875 -1.421875 15.734375 5.859375 
Q 8.6875 13.140625 8.6875 27.390625 
z
" id="DejaVuSans-55"/>
     <path d="M 37.109375 75.984375 
L 37.109375 68.5 
L 28.515625 68.5 
Q 23.6875 68.5 21.796875 66.546875 
Q 19.921875 64.59375 19.921875 59.515625 
L 19.921875 54.6875 
L 34.71875 54.6875 
L 34.71875 47.703125 
L 19.921875 47.703125 
L 19.921875 0 
L 10.890625 0 
L 10.890625 47.703125 
L 2.296875 47.703125 
L 2.296875 54.6875 
L 10.890625 54.6875 
L 10.890625 58.5 
Q 10.890625 67.625 15.140625 71.796875 
Q 19.390625 75.984375 28.609375 75.984375 
z
" id="DejaVuSans-66"/>
    </defs>
    <g style="fill:#fb4c52;" transform="translate(830.388906 17.4)scale(0.18 -0.18)">
     <use xlink:href="#DejaVuSans-55"/>
     <use x="73.193359" xlink:href="#DejaVuSans-6e"/>
     <use x="136.572266" xlink:href="#DejaVuSans-69"/>
     <use x="164.355469" xlink:href="#DejaVuSans-66"/>
     <use x="199.560547" xlink:href="#DejaVuSans-6f"/>
     <use x="260.742188" xlink:href="#DejaVuSans-72"/>
     <use x="301.839844" xlink:href="#DejaVuSans-6d"/>
    </g>
   </g>
  </g>
  <g id="axes_4">
   <g id="patch_11">
    <path d="M 50.4 421.2 
L 313.6 421.2 
L 313.6 244.4 
L 50.4 244.4 
z
" style="fill:none;"/>
   </g>
   <g id="matplotlib.axis_7">
    <g id="xtick_10">
     <g id="line2d_30">
      <g>
       <use style="fill:#222222;stroke:#222222;" x="96.545455" xlink:href="#m39cb3df989" y="421.2"/>
      </g>
     </g>
     <g id="text_36">
      <!-- −5 -->
      <g style="fill:#222222;" transform="translate(86.963033 439.077969)scale(0.13 -0.13)">
       <use xlink:href="#DejaVuSans-2212"/>
       <use x="83.789062" xlink:href="#DejaVuSans-35"/>
      </g>
     </g>
    </g>
    <g id="xtick_11">
     <g id="line2d_31">
      <g>
       <use style="fill:#222222;stroke:#222222;" x="182" xlink:href="#m39cb3df989" y="421.2"/>
      </g>
     </g>
     <g id="text_37">
      <!-- 0 -->
      <g style="fill:#222222;" transform="translate(177.864375 439.077969)scale(0.13 -0.13)">
       <use xlink:href="#DejaVuSans-30"/>
      </g>
     </g>
    </g>
    <g id="xtick_12">
     <g id="line2d_32">
      <g>
       <use style="fill:#222222;stroke:#222222;" x="267.454545" xlink:href="#m39cb3df989" y="421.2"/>
      </g>
     </g>
     <g id="text_38">
      <!-- 5 -->
      <g style="fill:#222222;" transform="translate(263.31892 439.077969)scale(0.13 -0.13)">
       <use xlink:href="#DejaVuSans-35"/>
      </g>
     </g>
    </g>
    <g id="text_39">
     <!-- Value -->
     <g style="fill:#222222;" transform="translate(159.41875 457.939063)scale(0.16 -0.16)">
      <use xlink:href="#DejaVuSans-56"/>
      <use x="68.298828" xlink:href="#DejaVuSans-61"/>
      <use x="129.578125" xlink:href="#DejaVuSans-6c"/>
      <use x="157.361328" xlink:href="#DejaVuSans-75"/>
      <use x="220.740234" xlink:href="#DejaVuSans-65"/>
     </g>
    </g>
   </g>
   <g id="matplotlib.axis_8">
    <g id="ytick_18">
     <g id="line2d_33">
      <g>
       <use style="fill:#222222;stroke:#222222;" x="50.4" xlink:href="#m4d3f50a605" y="413.163636"/>
      </g>
     </g>
     <g id="text_40">
      <!-- 0.0 -->
      <g style="fill:#222222;" transform="translate(21.725938 418.102621)scale(0.13 -0.13)">
       <use xlink:href="#DejaVuSans-30"/>
       <use x="63.623047" xlink:href="#DejaVuSans-2e"/>
       <use x="95.410156" xlink:href="#DejaVuSans-30"/>
      </g>
     </g>
    </g>
    <g id="ytick_19">
     <g id="line2d_34">
      <g>
       <use style="fill:#222222;stroke:#222222;" x="50.4" xlink:href="#m4d3f50a605" y="381.018182"/>
      </g>
     </g>
     <g id="text_41">
      <!-- 0.2 -->
      <g style="fill:#222222;" transform="translate(21.725938 385.957166)scale(0.13 -0.13)">
       <use xlink:href="#DejaVuSans-30"/>
       <use x="63.623047" xlink:href="#DejaVuSans-2e"/>
       <use x="95.410156" xlink:href="#DejaVuSans-32"/>
      </g>
     </g>
    </g>
    <g id="ytick_20">
     <g id="line2d_35">
      <g>
       <use style="fill:#222222;stroke:#222222;" x="50.4" xlink:href="#m4d3f50a605" y="348.872727"/>
      </g>
     </g>
     <g id="text_42">
      <!-- 0.4 -->
      <g style="fill:#222222;" transform="translate(21.725938 353.811712)scale(0.13 -0.13)">
       <use xlink:href="#DejaVuSans-30"/>
       <use x="63.623047" xlink:href="#DejaVuSans-2e"/>
       <use x="95.410156" xlink:href="#DejaVuSans-34"/>
      </g>
     </g>
    </g>
    <g id="ytick_21">
     <g id="line2d_36">
      <g>
       <use style="fill:#222222;stroke:#222222;" x="50.4" xlink:href="#m4d3f50a605" y="316.727273"/>
      </g>
     </g>
     <g id="text_43">
      <!-- 0.6 -->
      <g style="fill:#222222;" transform="translate(21.725938 321.666257)scale(0.13 -0.13)">
       <use xlink:href="#DejaVuSans-30"/>
       <use x="63.623047" xlink:href="#DejaVuSans-2e"/>
       <use x="95.410156" xlink:href="#DejaVuSans-36"/>
      </g>
     </g>
    </g>
    <g id="ytick_22">
     <g id="line2d_37">
      <g>
       <use style="fill:#222222;stroke:#222222;" x="50.4" xlink:href="#m4d3f50a605" y="284.581818"/>
      </g>
     </g>
     <g id="text_44">
      <!-- 0.8 -->
      <g style="fill:#222222;" transform="translate(21.725938 289.520803)scale(0.13 -0.13)">
       <use xlink:href="#DejaVuSans-30"/>
       <use x="63.623047" xlink:href="#DejaVuSans-2e"/>
       <use x="95.410156" xlink:href="#DejaVuSans-38"/>
      </g>
     </g>
    </g>
    <g id="ytick_23">
     <g id="line2d_38">
      <g>
       <use style="fill:#222222;stroke:#222222;" x="50.4" xlink:href="#m4d3f50a605" y="252.436364"/>
      </g>
     </g>
     <g id="text_45">
      <!-- 1.0 -->
      <g style="fill:#222222;" transform="translate(21.725938 257.375348)scale(0.13 -0.13)">
       <use xlink:href="#DejaVuSans-31"/>
       <use x="63.623047" xlink:href="#DejaVuSans-2e"/>
       <use x="95.410156" xlink:href="#DejaVuSans-30"/>
      </g>
     </g>
    </g>
    <g id="text_46">
     <!-- Cumulative probability -->
     <defs>
      <path d="M 64.40625 67.28125 
L 64.40625 56.890625 
Q 59.421875 61.53125 53.78125 63.8125 
Q 48.140625 66.109375 41.796875 66.109375 
Q 29.296875 66.109375 22.65625 58.46875 
Q 16.015625 50.828125 16.015625 36.375 
Q 16.015625 21.96875 22.65625 14.328125 
Q 29.296875 6.6875 41.796875 6.6875 
Q 48.140625 6.6875 53.78125 8.984375 
Q 59.421875 11.28125 64.40625 15.921875 
L 64.40625 5.609375 
Q 59.234375 2.09375 53.4375 0.328125 
Q 47.65625 -1.421875 41.21875 -1.421875 
Q 24.65625 -1.421875 15.125 8.703125 
Q 5.609375 18.84375 5.609375 36.375 
Q 5.609375 53.953125 15.125 64.078125 
Q 24.65625 74.21875 41.21875 74.21875 
Q 47.75 74.21875 53.53125 72.484375 
Q 59.328125 70.75 64.40625 67.28125 
z
" id="DejaVuSans-43"/>
      <path d="M 2.984375 54.6875 
L 12.5 54.6875 
L 29.59375 8.796875 
L 46.6875 54.6875 
L 56.203125 54.6875 
L 35.6875 0 
L 23.484375 0 
z
" id="DejaVuSans-76"/>
      <path id="DejaVuSans-20"/>
     </defs>
     <g style="fill:#222222;" transform="translate(14.398437 423.86125)rotate(-90)scale(0.16 -0.16)">
      <use xlink:href="#DejaVuSans-43"/>
      <use x="69.824219" xlink:href="#DejaVuSans-75"/>
      <use x="133.203125" xlink:href="#DejaVuSans-6d"/>
      <use x="230.615234" xlink:href="#DejaVuSans-75"/>
      <use x="293.994141" xlink:href="#DejaVuSans-6c"/>
      <use x="321.777344" xlink:href="#DejaVuSans-61"/>
      <use x="383.056641" xlink:href="#DejaVuSans-74"/>
      <use x="422.265625" xlink:href="#DejaVuSans-69"/>
      <use x="450.048828" xlink:href="#DejaVuSans-76"/>
      <use x="509.228516" xlink:href="#DejaVuSans-65"/>
      <use x="570.751953" xlink:href="#DejaVuSans-20"/>
      <use x="602.539062" xlink:href="#DejaVuSans-70"/>
      <use x="666.015625" xlink:href="#DejaVuSans-72"/>
      <use x="707.097656" xlink:href="#DejaVuSans-6f"/>
      <use x="768.279297" xlink:href="#DejaVuSans-62"/>
      <use x="831.755859" xlink:href="#DejaVuSans-61"/>
      <use x="893.035156" xlink:href="#DejaVuSans-62"/>
      <use x="956.511719" xlink:href="#DejaVuSans-69"/>
      <use x="984.294922" xlink:href="#DejaVuSans-6c"/>
      <use x="1012.078125" xlink:href="#DejaVuSans-69"/>
      <use x="1039.861328" xlink:href="#DejaVuSans-74"/>
      <use x="1079.070312" xlink:href="#DejaVuSans-79"/>
     </g>
    </g>
   </g>
   <g id="line2d_39">
    <path clip-path="url(#p20618e87c8)" d="M 62.363636 413.163636 
L 64.780533 413.163636 
L 67.197429 413.163636 
L 69.614325 413.163636 
L 72.031221 413.163636 
L 74.448118 413.163636 
L 76.865014 413.163636 
L 79.28191 413.163636 
L 81.698806 413.163636 
L 84.115702 413.163636 
L 86.532599 413.163634 
L 88.949495 413.163632 
L 91.366391 413.163627 
L 93.783287 413.163617 
L 96.200184 413.163595 
L 98.61708 413.163551 
L 101.033976 413.163462 
L 103.450872 413.16329 
L 105.867769 413.162961 
L 108.284665 413.162343 
L 110.701561 413.161207 
L 113.118457 413.15916 
L 115.535354 413.155543 
L 117.95225 413.149282 
L 120.369146 413.138653 
L 122.786042 413.120969 
L 125.202938 413.092128 
L 127.619835 413.046021 
L 130.036731 412.973768 
L 132.453627 412.862781 
L 134.870523 412.695665 
L 137.28742 412.449007 
L 139.704316 412.092145 
L 142.121212 411.586045 
L 144.538108 410.882487 
L 146.955005 409.923763 
L 149.371901 408.643152 
L 151.788797 406.966398 
L 154.205693 404.814353 
L 156.62259 402.106889 
L 159.039486 398.767988 
L 161.456382 394.731778 
L 163.873278 389.949076 
L 166.290174 384.393841 
L 168.707071 378.068834 
L 171.123967 371.00974 
L 173.540863 363.287089 
L 175.957759 355.005507 
L 178.374656 346.300089 
L 180.791552 337.330026 
L 183.208448 328.269974 
L 185.625344 319.299911 
L 188.042241 310.594493 
L 190.459137 302.312911 
L 192.876033 294.59026 
L 195.292929 287.531166 
L 197.709826 281.206159 
L 200.126722 275.650924 
L 202.543618 270.868222 
L 204.960514 266.832012 
L 207.37741 263.493111 
L 209.794307 260.785647 
L 212.211203 258.633602 
L 214.628099 256.956848 
L 217.044995 255.676237 
L 219.461892 254.717513 
L 221.878788 254.013955 
L 224.295684 253.507855 
L 226.71258 253.150993 
L 229.129477 252.904335 
L 231.546373 252.737219 
L 233.963269 252.626232 
L 236.380165 252.553979 
L 238.797062 252.507872 
L 241.213958 252.479031 
L 243.630854 252.461347 
L 246.04775 252.450718 
L 248.464646 252.444457 
L 250.881543 252.44084 
L 253.298439 252.438793 
L 255.715335 252.437657 
L 258.132231 252.437039 
L 260.549128 252.43671 
L 262.966024 252.436538 
L 265.38292 252.436449 
L 267.799816 252.436405 
L 270.216713 252.436383 
L 272.633609 252.436373 
L 275.050505 252.436368 
L 277.467401 252.436366 
L 279.884298 252.436364 
L 282.301194 252.436364 
L 284.71809 252.436364 
L 287.134986 252.436364 
L 289.551882 252.436364 
L 291.968779 252.436364 
L 294.385675 252.436364 
L 296.802571 252.436364 
L 299.219467 252.436364 
L 301.636364 252.436364 
" style="fill:none;stroke:#00bfff;stroke-linecap:square;stroke-width:2;"/>
   </g>
   <g id="patch_12">
    <path d="M 50.4 421.2 
L 50.4 244.4 
" style="fill:none;stroke:#222222;stroke-linecap:square;stroke-linejoin:miter;"/>
   </g>
   <g id="patch_13">
    <path d="M 50.4 421.2 
L 313.6 421.2 
" style="fill:none;stroke:#222222;stroke-linecap:square;stroke-linejoin:miter;"/>
   </g>
  </g>
  <g id="axes_5">
   <g id="patch_14">
    <path d="M 392.56 421.2 
L 655.76 421.2 
L 655.76 244.4 
L 392.56 244.4 
z
" style="fill:none;"/>
   </g>
   <g id="matplotlib.axis_9">
    <g id="xtick_13">
     <g id="line2d_40">
      <g>
       <use style="fill:#222222;stroke:#222222;" x="404.523636" xlink:href="#m39cb3df989" y="421.2"/>
      </g>
     </g>
     <g id="text_47">
      <!-- 0 -->
      <g style="fill:#222222;" transform="translate(400.388011 439.077969)scale(0.13 -0.13)">
       <use xlink:href="#DejaVuSans-30"/>
      </g>
     </g>
    </g>
    <g id="xtick_14">
     <g id="line2d_41">
      <g>
       <use style="fill:#222222;stroke:#222222;" x="489.978182" xlink:href="#m39cb3df989" y="421.2"/>
      </g>
     </g>
     <g id="text_48">
      <!-- 5 -->
      <g style="fill:#222222;" transform="translate(485.842557 439.077969)scale(0.13 -0.13)">
       <use xlink:href="#DejaVuSans-35"/>
      </g>
     </g>
    </g>
    <g id="xtick_15">
     <g id="line2d_42">
      <g>
       <use style="fill:#222222;stroke:#222222;" x="575.432727" xlink:href="#m39cb3df989" y="421.2"/>
      </g>
     </g>
     <g id="text_49">
      <!-- 10 -->
      <g style="fill:#222222;" transform="translate(567.161477 439.077969)scale(0.13 -0.13)">
       <use xlink:href="#DejaVuSans-31"/>
       <use x="63.623047" xlink:href="#DejaVuSans-30"/>
      </g>
     </g>
    </g>
    <g id="text_50">
     <!-- Value -->
     <g style="fill:#222222;" transform="translate(501.57875 457.939063)scale(0.16 -0.16)">
      <use xlink:href="#DejaVuSans-56"/>
      <use x="68.298828" xlink:href="#DejaVuSans-61"/>
      <use x="129.578125" xlink:href="#DejaVuSans-6c"/>
      <use x="157.361328" xlink:href="#DejaVuSans-75"/>
      <use x="220.740234" xlink:href="#DejaVuSans-65"/>
     </g>
    </g>
   </g>
   <g id="matplotlib.axis_10">
    <g id="ytick_24">
     <g id="line2d_43">
      <g>
       <use style="fill:#222222;stroke:#222222;" x="392.56" xlink:href="#m4d3f50a605" y="413.163636"/>
      </g>
     </g>
     <g id="text_51">
      <!-- 0.0 -->
      <g style="fill:#222222;" transform="translate(363.885937 418.102621)scale(0.13 -0.13)">
       <use xlink:href="#DejaVuSans-30"/>
       <use x="63.623047" xlink:href="#DejaVuSans-2e"/>
       <use x="95.410156" xlink:href="#DejaVuSans-30"/>
      </g>
     </g>
    </g>
    <g id="ytick_25">
     <g id="line2d_44">
      <g>
       <use style="fill:#222222;stroke:#222222;" x="392.56" xlink:href="#m4d3f50a605" y="381.018155"/>
      </g>
     </g>
     <g id="text_52">
      <!-- 0.2 -->
      <g style="fill:#222222;" transform="translate(363.885937 385.957139)scale(0.13 -0.13)">
       <use xlink:href="#DejaVuSans-30"/>
       <use x="63.623047" xlink:href="#DejaVuSans-2e"/>
       <use x="95.410156" xlink:href="#DejaVuSans-32"/>
      </g>
     </g>
    </g>
    <g id="ytick_26">
     <g id="line2d_45">
      <g>
       <use style="fill:#222222;stroke:#222222;" x="392.56" xlink:href="#m4d3f50a605" y="348.872674"/>
      </g>
     </g>
     <g id="text_53">
      <!-- 0.4 -->
      <g style="fill:#222222;" transform="translate(363.885937 353.811658)scale(0.13 -0.13)">
       <use xlink:href="#DejaVuSans-30"/>
       <use x="63.623047" xlink:href="#DejaVuSans-2e"/>
       <use x="95.410156" xlink:href="#DejaVuSans-34"/>
      </g>
     </g>
    </g>
    <g id="ytick_27">
     <g id="line2d_46">
      <g>
       <use style="fill:#222222;stroke:#222222;" x="392.56" xlink:href="#m4d3f50a605" y="316.727193"/>
      </g>
     </g>
     <g id="text_54">
      <!-- 0.6 -->
      <g style="fill:#222222;" transform="translate(363.885937 321.666177)scale(0.13 -0.13)">
       <use xlink:href="#DejaVuSans-30"/>
       <use x="63.623047" xlink:href="#DejaVuSans-2e"/>
       <use x="95.410156" xlink:href="#DejaVuSans-36"/>
      </g>
     </g>
    </g>
    <g id="ytick_28">
     <g id="line2d_47">
      <g>
       <use style="fill:#222222;stroke:#222222;" x="392.56" xlink:href="#m4d3f50a605" y="284.581711"/>
      </g>
     </g>
     <g id="text_55">
      <!-- 0.8 -->
      <g style="fill:#222222;" transform="translate(363.885937 289.520696)scale(0.13 -0.13)">
       <use xlink:href="#DejaVuSans-30"/>
       <use x="63.623047" xlink:href="#DejaVuSans-2e"/>
       <use x="95.410156" xlink:href="#DejaVuSans-38"/>
      </g>
     </g>
    </g>
    <g id="ytick_29">
     <g id="line2d_48">
      <g>
       <use style="fill:#222222;stroke:#222222;" x="392.56" xlink:href="#m4d3f50a605" y="252.43623"/>
      </g>
     </g>
     <g id="text_56">
      <!-- 1.0 -->
      <g style="fill:#222222;" transform="translate(363.885937 257.375214)scale(0.13 -0.13)">
       <use xlink:href="#DejaVuSans-31"/>
       <use x="63.623047" xlink:href="#DejaVuSans-2e"/>
       <use x="95.410156" xlink:href="#DejaVuSans-30"/>
      </g>
     </g>
    </g>
    <g id="text_57">
     <!-- Cumulative probability -->
     <g style="fill:#222222;" transform="translate(356.558437 423.86125)rotate(-90)scale(0.16 -0.16)">
      <use xlink:href="#DejaVuSans-43"/>
      <use x="69.824219" xlink:href="#DejaVuSans-75"/>
      <use x="133.203125" xlink:href="#DejaVuSans-6d"/>
      <use x="230.615234" xlink:href="#DejaVuSans-75"/>
      <use x="293.994141" xlink:href="#DejaVuSans-6c"/>
      <use x="321.777344" xlink:href="#DejaVuSans-61"/>
      <use x="383.056641" xlink:href="#DejaVuSans-74"/>
      <use x="422.265625" xlink:href="#DejaVuSans-69"/>
      <use x="450.048828" xlink:href="#DejaVuSans-76"/>
      <use x="509.228516" xlink:href="#DejaVuSans-65"/>
      <use x="570.751953" xlink:href="#DejaVuSans-20"/>
      <use x="602.539062" xlink:href="#DejaVuSans-70"/>
      <use x="666.015625" xlink:href="#DejaVuSans-72"/>
      <use x="707.097656" xlink:href="#DejaVuSans-6f"/>
      <use x="768.279297" xlink:href="#DejaVuSans-62"/>
      <use x="831.755859" xlink:href="#DejaVuSans-61"/>
      <use x="893.035156" xlink:href="#DejaVuSans-62"/>
      <use x="956.511719" xlink:href="#DejaVuSans-69"/>
      <use x="984.294922" xlink:href="#DejaVuSans-6c"/>
      <use x="1012.078125" xlink:href="#DejaVuSans-69"/>
      <use x="1039.861328" xlink:href="#DejaVuSans-74"/>
      <use x="1079.070312" xlink:href="#DejaVuSans-79"/>
     </g>
    </g>
   </g>
   <g id="line2d_49">
    <path clip-path="url(#pb2fbc3f545)" d="M 404.523636 413.163636 
L 406.940533 391.968466 
L 409.357429 373.56831 
L 411.774325 357.594587 
L 414.191221 343.727324 
L 416.608118 331.688741 
L 419.025014 321.237689 
L 421.44191 312.164821 
L 423.858806 304.288394 
L 426.275702 297.450634 
L 428.692599 291.514571 
L 431.109495 286.361299 
L 433.526391 281.88759 
L 435.943287 278.003831 
L 438.360184 274.632224 
L 440.77708 271.705232 
L 443.193976 269.164223 
L 445.610872 266.958298 
L 448.027769 265.043268 
L 450.444665 263.380775 
L 452.861561 261.937514 
L 455.278457 260.684577 
L 457.695354 259.596865 
L 460.11225 258.65259 
L 462.529146 257.832837 
L 464.946042 257.121185 
L 467.362938 256.503378 
L 469.779835 255.967042 
L 472.196731 255.501433 
L 474.613627 255.097224 
L 477.030523 254.746318 
L 479.44742 254.441686 
L 481.864316 254.177226 
L 484.281212 253.94764 
L 486.698108 253.74833 
L 489.115005 253.575303 
L 491.531901 253.425093 
L 493.948797 253.294691 
L 496.365693 253.181486 
L 498.78259 253.083209 
L 501.199486 252.997892 
L 503.616382 252.923825 
L 506.033278 252.859526 
L 508.450174 252.803706 
L 510.867071 252.755246 
L 513.283967 252.713178 
L 515.700863 252.676657 
L 518.117759 252.644951 
L 520.534656 252.617427 
L 522.951552 252.593533 
L 525.368448 252.572789 
L 527.785344 252.554781 
L 530.202241 252.539148 
L 532.619137 252.525576 
L 535.036033 252.513794 
L 537.452929 252.503565 
L 539.869826 252.494686 
L 542.286722 252.486977 
L 544.703618 252.480285 
L 547.120514 252.474476 
L 549.53741 252.469432 
L 551.954307 252.465054 
L 554.371203 252.461253 
L 556.788099 252.457953 
L 559.204995 252.455088 
L 561.621892 252.452602 
L 564.038788 252.450443 
L 566.455684 252.448568 
L 568.87258 252.446941 
L 571.289477 252.445529 
L 573.706373 252.444303 
L 576.123269 252.443238 
L 578.540165 252.442314 
L 580.957062 252.441512 
L 583.373958 252.440815 
L 585.790854 252.44021 
L 588.20775 252.439686 
L 590.624646 252.43923 
L 593.041543 252.438834 
L 595.458439 252.438491 
L 597.875335 252.438193 
L 600.292231 252.437934 
L 602.709128 252.437709 
L 605.126024 252.437514 
L 607.54292 252.437345 
L 609.959816 252.437198 
L 612.376713 252.43707 
L 614.793609 252.436959 
L 617.210505 252.436863 
L 619.627401 252.43678 
L 622.044298 252.436707 
L 624.461194 252.436644 
L 626.87809 252.43659 
L 629.294986 252.436542 
L 631.711882 252.436501 
L 634.128779 252.436465 
L 636.545675 252.436434 
L 638.962571 252.436407 
L 641.379467 252.436384 
L 643.796364 252.436364 
" style="fill:none;stroke:#9fc857;stroke-linecap:square;stroke-width:2;"/>
   </g>
   <g id="patch_15">
    <path d="M 392.56 421.2 
L 392.56 244.4 
" style="fill:none;stroke:#222222;stroke-linecap:square;stroke-linejoin:miter;"/>
   </g>
   <g id="patch_16">
    <path d="M 392.56 421.2 
L 655.76 421.2 
" style="fill:none;stroke:#222222;stroke-linecap:square;stroke-linejoin:miter;"/>
   </g>
  </g>
  <g id="axes_6">
   <g id="patch_17">
    <path d="M 734.72 421.2 
L 997.92 421.2 
L 997.92 244.4 
L 734.72 244.4 
z
" style="fill:none;"/>
   </g>
   <g id="matplotlib.axis_11">
    <g id="xtick_16">
     <g id="line2d_50">
      <g>
       <use style="fill:#222222;stroke:#222222;" x="780.865455" xlink:href="#m39cb3df989" y="421.2"/>
      </g>
     </g>
     <g id="text_58">
      <!-- −5 -->
      <g style="fill:#222222;" transform="translate(771.283033 439.077969)scale(0.13 -0.13)">
       <use xlink:href="#DejaVuSans-2212"/>
       <use x="83.789062" xlink:href="#DejaVuSans-35"/>
      </g>
     </g>
    </g>
    <g id="xtick_17">
     <g id="line2d_51">
      <g>
       <use style="fill:#222222;stroke:#222222;" x="866.32" xlink:href="#m39cb3df989" y="421.2"/>
      </g>
     </g>
     <g id="text_59">
      <!-- 0 -->
      <g style="fill:#222222;" transform="translate(862.184375 439.077969)scale(0.13 -0.13)">
       <use xlink:href="#DejaVuSans-30"/>
      </g>
     </g>
    </g>
    <g id="xtick_18">
     <g id="line2d_52">
      <g>
       <use style="fill:#222222;stroke:#222222;" x="951.774545" xlink:href="#m39cb3df989" y="421.2"/>
      </g>
     </g>
     <g id="text_60">
      <!-- 5 -->
      <g style="fill:#222222;" transform="translate(947.63892 439.077969)scale(0.13 -0.13)">
       <use xlink:href="#DejaVuSans-35"/>
      </g>
     </g>
    </g>
    <g id="text_61">
     <!-- Value -->
     <g style="fill:#222222;" transform="translate(843.73875 457.939063)scale(0.16 -0.16)">
      <use xlink:href="#DejaVuSans-56"/>
      <use x="68.298828" xlink:href="#DejaVuSans-61"/>
      <use x="129.578125" xlink:href="#DejaVuSans-6c"/>
      <use x="157.361328" xlink:href="#DejaVuSans-75"/>
      <use x="220.740234" xlink:href="#DejaVuSans-65"/>
     </g>
    </g>
   </g>
   <g id="matplotlib.axis_12">
    <g id="ytick_30">
     <g id="line2d_53">
      <g>
       <use style="fill:#222222;stroke:#222222;" x="734.72" xlink:href="#m4d3f50a605" y="413.163636"/>
      </g>
     </g>
     <g id="text_62">
      <!-- 0.0 -->
      <g style="fill:#222222;" transform="translate(706.045938 418.102621)scale(0.13 -0.13)">
       <use xlink:href="#DejaVuSans-30"/>
       <use x="63.623047" xlink:href="#DejaVuSans-2e"/>
       <use x="95.410156" xlink:href="#DejaVuSans-30"/>
      </g>
     </g>
    </g>
    <g id="ytick_31">
     <g id="line2d_54">
      <g>
       <use style="fill:#222222;stroke:#222222;" x="734.72" xlink:href="#m4d3f50a605" y="381.018182"/>
      </g>
     </g>
     <g id="text_63">
      <!-- 0.2 -->
      <g style="fill:#222222;" transform="translate(706.045938 385.957166)scale(0.13 -0.13)">
       <use xlink:href="#DejaVuSans-30"/>
       <use x="63.623047" xlink:href="#DejaVuSans-2e"/>
       <use x="95.410156" xlink:href="#DejaVuSans-32"/>
      </g>
     </g>
    </g>
    <g id="ytick_32">
     <g id="line2d_55">
      <g>
       <use style="fill:#222222;stroke:#222222;" x="734.72" xlink:href="#m4d3f50a605" y="348.872727"/>
      </g>
     </g>
     <g id="text_64">
      <!-- 0.4 -->
      <g style="fill:#222222;" transform="translate(706.045938 353.811712)scale(0.13 -0.13)">
       <use xlink:href="#DejaVuSans-30"/>
       <use x="63.623047" xlink:href="#DejaVuSans-2e"/>
       <use x="95.410156" xlink:href="#DejaVuSans-34"/>
      </g>
     </g>
    </g>
    <g id="ytick_33">
     <g id="line2d_56">
      <g>
       <use style="fill:#222222;stroke:#222222;" x="734.72" xlink:href="#m4d3f50a605" y="316.727273"/>
      </g>
     </g>
     <g id="text_65">
      <!-- 0.6 -->
      <g style="fill:#222222;" transform="translate(706.045938 321.666257)scale(0.13 -0.13)">
       <use xlink:href="#DejaVuSans-30"/>
       <use x="63.623047" xlink:href="#DejaVuSans-2e"/>
       <use x="95.410156" xlink:href="#DejaVuSans-36"/>
      </g>
     </g>
    </g>
    <g id="ytick_34">
     <g id="line2d_57">
      <g>
       <use style="fill:#222222;stroke:#222222;" x="734.72" xlink:href="#m4d3f50a605" y="284.581818"/>
      </g>
     </g>
     <g id="text_66">
      <!-- 0.8 -->
      <g style="fill:#222222;" transform="translate(706.045938 289.520803)scale(0.13 -0.13)">
       <use xlink:href="#DejaVuSans-30"/>
       <use x="63.623047" xlink:href="#DejaVuSans-2e"/>
       <use x="95.410156" xlink:href="#DejaVuSans-38"/>
      </g>
     </g>
    </g>
    <g id="ytick_35">
     <g id="line2d_58">
      <g>
       <use style="fill:#222222;stroke:#222222;" x="734.72" xlink:href="#m4d3f50a605" y="252.436364"/>
      </g>
     </g>
     <g id="text_67">
      <!-- 1.0 -->
      <g style="fill:#222222;" transform="translate(706.045938 257.375348)scale(0.13 -0.13)">
       <use xlink:href="#DejaVuSans-31"/>
       <use x="63.623047" xlink:href="#DejaVuSans-2e"/>
       <use x="95.410156" xlink:href="#DejaVuSans-30"/>
      </g>
     </g>
    </g>
    <g id="text_68">
     <!-- Cumulative probability -->
     <g style="fill:#222222;" transform="translate(698.718438 423.86125)rotate(-90)scale(0.16 -0.16)">
      <use xlink:href="#DejaVuSans-43"/>
      <use x="69.824219" xlink:href="#DejaVuSans-75"/>
      <use x="133.203125" xlink:href="#DejaVuSans-6d"/>
      <use x="230.615234" xlink:href="#DejaVuSans-75"/>
      <use x="293.994141" xlink:href="#DejaVuSans-6c"/>
      <use x="321.777344" xlink:href="#DejaVuSans-61"/>
      <use x="383.056641" xlink:href="#DejaVuSans-74"/>
      <use x="422.265625" xlink:href="#DejaVuSans-69"/>
      <use x="450.048828" xlink:href="#DejaVuSans-76"/>
      <use x="509.228516" xlink:href="#DejaVuSans-65"/>
      <use x="570.751953" xlink:href="#DejaVuSans-20"/>
      <use x="602.539062" xlink:href="#DejaVuSans-70"/>
      <use x="666.015625" xlink:href="#DejaVuSans-72"/>
      <use x="707.097656" xlink:href="#DejaVuSans-6f"/>
      <use x="768.279297" xlink:href="#DejaVuSans-62"/>
      <use x="831.755859" xlink:href="#DejaVuSans-61"/>
      <use x="893.035156" xlink:href="#DejaVuSans-62"/>
      <use x="956.511719" xlink:href="#DejaVuSans-69"/>
      <use x="984.294922" xlink:href="#DejaVuSans-6c"/>
      <use x="1012.078125" xlink:href="#DejaVuSans-69"/>
      <use x="1039.861328" xlink:href="#DejaVuSans-74"/>
      <use x="1079.070312" xlink:href="#DejaVuSans-79"/>
     </g>
    </g>
   </g>
   <g id="line2d_59">
    <path clip-path="url(#p1e8de3f705)" d="M 746.683636 413.163636 
L 749.100533 413.163636 
L 751.517429 413.163636 
L 753.934325 413.163636 
L 756.351221 413.163636 
L 758.768118 413.163636 
L 761.185014 413.163636 
L 763.60191 413.163636 
L 766.018806 413.163636 
L 768.435702 413.163636 
L 770.852599 413.163636 
L 773.269495 413.163636 
L 775.686391 413.163636 
L 778.103287 413.163636 
L 780.520184 413.163636 
L 782.93708 411.215427 
L 785.353976 408.942516 
L 787.770872 406.669605 
L 790.187769 404.396694 
L 792.604665 402.123783 
L 795.021561 399.850872 
L 797.438457 397.577961 
L 799.855354 395.305051 
L 802.27225 393.03214 
L 804.689146 390.759229 
L 807.106042 388.486318 
L 809.522938 386.213407 
L 811.939835 383.940496 
L 814.356731 381.667585 
L 816.773627 379.394674 
L 819.190523 377.121763 
L 821.60742 374.848852 
L 824.024316 372.575941 
L 826.441212 370.30303 
L 828.858108 368.030119 
L 831.275005 365.757208 
L 833.691901 363.484298 
L 836.108797 361.211387 
L 838.525693 358.938476 
L 840.94259 356.665565 
L 843.359486 354.392654 
L 845.776382 352.119743 
L 848.193278 349.846832 
L 850.610174 347.573921 
L 853.027071 345.30101 
L 855.443967 343.028099 
L 857.860863 340.755188 
L 860.277759 338.482277 
L 862.694656 336.209366 
L 865.111552 333.936455 
L 867.528448 331.663545 
L 869.945344 329.390634 
L 872.362241 327.117723 
L 874.779137 324.844812 
L 877.196033 322.571901 
L 879.612929 320.29899 
L 882.029826 318.026079 
L 884.446722 315.753168 
L 886.863618 313.480257 
L 889.280514 311.207346 
L 891.69741 308.934435 
L 894.114307 306.661524 
L 896.531203 304.388613 
L 898.948099 302.115702 
L 901.364995 299.842792 
L 903.781892 297.569881 
L 906.198788 295.29697 
L 908.615684 293.024059 
L 911.03258 290.751148 
L 913.449477 288.478237 
L 915.866373 286.205326 
L 918.283269 283.932415 
L 920.700165 281.659504 
L 923.117062 279.386593 
L 925.533958 277.113682 
L 927.950854 274.840771 
L 930.36775 272.56786 
L 932.784646 270.294949 
L 935.201543 268.022039 
L 937.618439 265.749128 
L 940.035335 263.476217 
L 942.452231 261.203306 
L 944.869128 258.930395 
L 947.286024 256.657484 
L 949.70292 254.384573 
L 952.119816 252.436364 
L 954.536713 252.436364 
L 956.953609 252.436364 
L 959.370505 252.436364 
L 961.787401 252.436364 
L 964.204298 252.436364 
L 966.621194 252.436364 
L 969.03809 252.436364 
L 971.454986 252.436364 
L 973.871882 252.436364 
L 976.288779 252.436364 
L 978.705675 252.436364 
L 981.122571 252.436364 
L 983.539467 252.436364 
L 985.956364 252.436364 
" style="fill:none;stroke:#fb4c52;stroke-linecap:square;stroke-width:2;"/>
   </g>
   <g id="patch_18">
    <path d="M 734.72 421.2 
L 734.72 244.4 
" style="fill:none;stroke:#222222;stroke-linecap:square;stroke-linejoin:miter;"/>
   </g>
   <g id="patch_19">
    <path d="M 734.72 421.2 
L 997.92 421.2 
" style="fill:none;stroke:#222222;stroke-linecap:square;stroke-linejoin:miter;"/>
   </g>
  </g>
 </g>
 <defs>
  <clipPath id="pd0a8ae3bda">
   <rect height="176.8" width="263.2" x="50.4" y="23.4"/>
  </clipPath>
  <clipPath id="p3bcd46dff0">
   <rect height="176.8" width="263.2" x="392.56" y="23.4"/>
  </clipPath>
  <clipPath id="p5f21c58368">
   <rect height="176.8" width="263.2" x="734.72" y="23.4"/>
  </clipPath>
  <clipPath id="p20618e87c8">
   <rect height="176.8" width="263.2" x="50.4" y="244.4"/>
  </clipPath>
  <clipPath id="pb2fbc3f545">
   <rect height="176.8" width="263.2" x="392.56" y="244.4"/>
  </clipPath>
  <clipPath id="p1e8de3f705">
   <rect height="176.8" width="263.2" x="734.72" y="244.4"/>
  </clipPath>
 </defs>
</svg>
