<?xml version="1.0" encoding="utf-8" standalone="no"?>
<!DOCTYPE svg PUBLIC "-//W3C//DTD SVG 1.1//EN"
  "http://www.w3.org/Graphics/SVG/1.1/DTD/svg11.dtd">
<!-- Created with matplotlib (http://matplotlib.org/) -->
<svg height="288pt" version="1.1" viewBox="0 0 432 288" width="432pt" xmlns="http://www.w3.org/2000/svg" xmlns:xlink="http://www.w3.org/1999/xlink">
 <defs>
  <style type="text/css">
*{stroke-linecap:butt;stroke-linejoin:round;}
  </style>
 </defs>
 <g id="figure_1">
  <g id="patch_1">
   <path d="M 0 288 
L 432 288 
L 432 0 
L 0 0 
z
" style="fill:none;"/>
  </g>
  <g id="axes_1">
   <g id="patch_2">
    <path d="M 64.8 244.8 
L 419.04 244.8 
L 419.04 14.4 
L 64.8 14.4 
z
" style="fill:none;"/>
   </g>
   <g id="matplotlib.axis_1">
    <g id="xtick_1">
     <g id="line2d_1">
      <defs>
       <path d="M 0 0 
L 0 4 
" id="mb6d02c1102" style="stroke:#222222;"/>
      </defs>
      <g>
       <use style="fill:#222222;stroke:#222222;" x="64.8" xlink:href="#mb6d02c1102" y="244.8"/>
      </g>
     </g>
     <g id="text_1">
      <!-- 0 -->
      <defs>
       <path d="M 31.78125 66.40625 
Q 24.171875 66.40625 20.328125 58.90625 
Q 16.5 51.421875 16.5 36.375 
Q 16.5 21.390625 20.328125 13.890625 
Q 24.171875 6.390625 31.78125 6.390625 
Q 39.453125 6.390625 43.28125 13.890625 
Q 47.125 21.390625 47.125 36.375 
Q 47.125 51.421875 43.28125 58.90625 
Q 39.453125 66.40625 31.78125 66.40625 
z
M 31.78125 74.21875 
Q 44.046875 74.21875 50.515625 64.515625 
Q 56.984375 54.828125 56.984375 36.375 
Q 56.984375 17.96875 50.515625 8.265625 
Q 44.046875 -1.421875 31.78125 -1.421875 
Q 19.53125 -1.421875 13.0625 8.265625 
Q 6.59375 17.96875 6.59375 36.375 
Q 6.59375 54.828125 13.0625 64.515625 
Q 19.53125 74.21875 31.78125 74.21875 
z
" id="DejaVuSans-30"/>
      </defs>
      <g style="fill:#222222;" transform="translate(60.664375 262.677969)scale(0.13 -0.13)">
       <use xlink:href="#DejaVuSans-30"/>
      </g>
     </g>
    </g>
    <g id="xtick_2">
     <g id="line2d_2">
      <g>
       <use style="fill:#222222;stroke:#222222;" x="135.648" xlink:href="#mb6d02c1102" y="244.8"/>
      </g>
     </g>
     <g id="text_2">
      <!-- 1 -->
      <defs>
       <path d="M 12.40625 8.296875 
L 28.515625 8.296875 
L 28.515625 63.921875 
L 10.984375 60.40625 
L 10.984375 69.390625 
L 28.421875 72.90625 
L 38.28125 72.90625 
L 38.28125 8.296875 
L 54.390625 8.296875 
L 54.390625 0 
L 12.40625 0 
z
" id="DejaVuSans-31"/>
      </defs>
      <g style="fill:#222222;" transform="translate(131.512375 262.677969)scale(0.13 -0.13)">
       <use xlink:href="#DejaVuSans-31"/>
      </g>
     </g>
    </g>
    <g id="xtick_3">
     <g id="line2d_3">
      <g>
       <use style="fill:#222222;stroke:#222222;" x="206.496" xlink:href="#mb6d02c1102" y="244.8"/>
      </g>
     </g>
     <g id="text_3">
      <!-- 2 -->
      <defs>
       <path d="M 19.1875 8.296875 
L 53.609375 8.296875 
L 53.609375 0 
L 7.328125 0 
L 7.328125 8.296875 
Q 12.9375 14.109375 22.625 23.890625 
Q 32.328125 33.6875 34.8125 36.53125 
Q 39.546875 41.84375 41.421875 45.53125 
Q 43.3125 49.21875 43.3125 52.78125 
Q 43.3125 58.59375 39.234375 62.25 
Q 35.15625 65.921875 28.609375 65.921875 
Q 23.96875 65.921875 18.8125 64.3125 
Q 13.671875 62.703125 7.8125 59.421875 
L 7.8125 69.390625 
Q 13.765625 71.78125 18.9375 73 
Q 24.125 74.21875 28.421875 74.21875 
Q 39.75 74.21875 46.484375 68.546875 
Q 53.21875 62.890625 53.21875 53.421875 
Q 53.21875 48.921875 51.53125 44.890625 
Q 49.859375 40.875 45.40625 35.40625 
Q 44.1875 33.984375 37.640625 27.21875 
Q 31.109375 20.453125 19.1875 8.296875 
z
" id="DejaVuSans-32"/>
      </defs>
      <g style="fill:#222222;" transform="translate(202.360375 262.677969)scale(0.13 -0.13)">
       <use xlink:href="#DejaVuSans-32"/>
      </g>
     </g>
    </g>
    <g id="xtick_4">
     <g id="line2d_4">
      <g>
       <use style="fill:#222222;stroke:#222222;" x="277.344" xlink:href="#mb6d02c1102" y="244.8"/>
      </g>
     </g>
     <g id="text_4">
      <!-- 3 -->
      <defs>
       <path d="M 40.578125 39.3125 
Q 47.65625 37.796875 51.625 33 
Q 55.609375 28.21875 55.609375 21.1875 
Q 55.609375 10.40625 48.1875 4.484375 
Q 40.765625 -1.421875 27.09375 -1.421875 
Q 22.515625 -1.421875 17.65625 -0.515625 
Q 12.796875 0.390625 7.625 2.203125 
L 7.625 11.71875 
Q 11.71875 9.328125 16.59375 8.109375 
Q 21.484375 6.890625 26.8125 6.890625 
Q 36.078125 6.890625 40.9375 10.546875 
Q 45.796875 14.203125 45.796875 21.1875 
Q 45.796875 27.640625 41.28125 31.265625 
Q 36.765625 34.90625 28.71875 34.90625 
L 20.21875 34.90625 
L 20.21875 43.015625 
L 29.109375 43.015625 
Q 36.375 43.015625 40.234375 45.921875 
Q 44.09375 48.828125 44.09375 54.296875 
Q 44.09375 59.90625 40.109375 62.90625 
Q 36.140625 65.921875 28.71875 65.921875 
Q 24.65625 65.921875 20.015625 65.03125 
Q 15.375 64.15625 9.8125 62.3125 
L 9.8125 71.09375 
Q 15.4375 72.65625 20.34375 73.4375 
Q 25.25 74.21875 29.59375 74.21875 
Q 40.828125 74.21875 47.359375 69.109375 
Q 53.90625 64.015625 53.90625 55.328125 
Q 53.90625 49.265625 50.4375 45.09375 
Q 46.96875 40.921875 40.578125 39.3125 
z
" id="DejaVuSans-33"/>
      </defs>
      <g style="fill:#222222;" transform="translate(273.208375 262.677969)scale(0.13 -0.13)">
       <use xlink:href="#DejaVuSans-33"/>
      </g>
     </g>
    </g>
    <g id="xtick_5">
     <g id="line2d_5">
      <g>
       <use style="fill:#222222;stroke:#222222;" x="348.192" xlink:href="#mb6d02c1102" y="244.8"/>
      </g>
     </g>
     <g id="text_5">
      <!-- 4 -->
      <defs>
       <path d="M 37.796875 64.3125 
L 12.890625 25.390625 
L 37.796875 25.390625 
z
M 35.203125 72.90625 
L 47.609375 72.90625 
L 47.609375 25.390625 
L 58.015625 25.390625 
L 58.015625 17.1875 
L 47.609375 17.1875 
L 47.609375 0 
L 37.796875 0 
L 37.796875 17.1875 
L 4.890625 17.1875 
L 4.890625 26.703125 
z
" id="DejaVuSans-34"/>
      </defs>
      <g style="fill:#222222;" transform="translate(344.056375 262.677969)scale(0.13 -0.13)">
       <use xlink:href="#DejaVuSans-34"/>
      </g>
     </g>
    </g>
    <g id="xtick_6">
     <g id="line2d_6">
      <g>
       <use style="fill:#222222;stroke:#222222;" x="419.04" xlink:href="#mb6d02c1102" y="244.8"/>
      </g>
     </g>
     <g id="text_6">
      <!-- 5 -->
      <defs>
       <path d="M 10.796875 72.90625 
L 49.515625 72.90625 
L 49.515625 64.59375 
L 19.828125 64.59375 
L 19.828125 46.734375 
Q 21.96875 47.46875 24.109375 47.828125 
Q 26.265625 48.1875 28.421875 48.1875 
Q 40.625 48.1875 47.75 41.5 
Q 54.890625 34.8125 54.890625 23.390625 
Q 54.890625 11.625 47.5625 5.09375 
Q 40.234375 -1.421875 26.90625 -1.421875 
Q 22.3125 -1.421875 17.546875 -0.640625 
Q 12.796875 0.140625 7.71875 1.703125 
L 7.71875 11.625 
Q 12.109375 9.234375 16.796875 8.0625 
Q 21.484375 6.890625 26.703125 6.890625 
Q 35.15625 6.890625 40.078125 11.328125 
Q 45.015625 15.765625 45.015625 23.390625 
Q 45.015625 31 40.078125 35.4375 
Q 35.15625 39.890625 26.703125 39.890625 
Q 22.75 39.890625 18.8125 39.015625 
Q 14.890625 38.140625 10.796875 36.28125 
z
" id="DejaVuSans-35"/>
      </defs>
      <g style="fill:#222222;" transform="translate(414.904375 262.677969)scale(0.13 -0.13)">
       <use xlink:href="#DejaVuSans-35"/>
      </g>
     </g>
    </g>
    <g id="text_7">
     <!-- $F$ statistic -->
     <defs>
      <path d="M 16.890625 72.90625 
L 58.6875 72.90625 
L 57.078125 64.59375 
L 25.09375 64.59375 
L 20.90625 43.109375 
L 49.8125 43.109375 
L 48.1875 34.8125 
L 19.28125 34.8125 
L 12.5 0 
L 2.6875 0 
z
" id="DejaVuSans-Oblique-46"/>
      <path id="DejaVuSans-20"/>
      <path d="M 44.28125 53.078125 
L 44.28125 44.578125 
Q 40.484375 46.53125 36.375 47.5 
Q 32.28125 48.484375 27.875 48.484375 
Q 21.1875 48.484375 17.84375 46.4375 
Q 14.5 44.390625 14.5 40.28125 
Q 14.5 37.15625 16.890625 35.375 
Q 19.28125 33.59375 26.515625 31.984375 
L 29.59375 31.296875 
Q 39.15625 29.25 43.1875 25.515625 
Q 47.21875 21.78125 47.21875 15.09375 
Q 47.21875 7.46875 41.1875 3.015625 
Q 35.15625 -1.421875 24.609375 -1.421875 
Q 20.21875 -1.421875 15.453125 -0.5625 
Q 10.6875 0.296875 5.421875 2 
L 5.421875 11.28125 
Q 10.40625 8.6875 15.234375 7.390625 
Q 20.0625 6.109375 24.8125 6.109375 
Q 31.15625 6.109375 34.5625 8.28125 
Q 37.984375 10.453125 37.984375 14.40625 
Q 37.984375 18.0625 35.515625 20.015625 
Q 33.0625 21.96875 24.703125 23.78125 
L 21.578125 24.515625 
Q 13.234375 26.265625 9.515625 29.90625 
Q 5.8125 33.546875 5.8125 39.890625 
Q 5.8125 47.609375 11.28125 51.796875 
Q 16.75 56 26.8125 56 
Q 31.78125 56 36.171875 55.265625 
Q 40.578125 54.546875 44.28125 53.078125 
z
" id="DejaVuSans-73"/>
      <path d="M 18.3125 70.21875 
L 18.3125 54.6875 
L 36.8125 54.6875 
L 36.8125 47.703125 
L 18.3125 47.703125 
L 18.3125 18.015625 
Q 18.3125 11.328125 20.140625 9.421875 
Q 21.96875 7.515625 27.59375 7.515625 
L 36.8125 7.515625 
L 36.8125 0 
L 27.59375 0 
Q 17.1875 0 13.234375 3.875 
Q 9.28125 7.765625 9.28125 18.015625 
L 9.28125 47.703125 
L 2.6875 47.703125 
L 2.6875 54.6875 
L 9.28125 54.6875 
L 9.28125 70.21875 
z
" id="DejaVuSans-74"/>
      <path d="M 34.28125 27.484375 
Q 23.390625 27.484375 19.1875 25 
Q 14.984375 22.515625 14.984375 16.5 
Q 14.984375 11.71875 18.140625 8.90625 
Q 21.296875 6.109375 26.703125 6.109375 
Q 34.1875 6.109375 38.703125 11.40625 
Q 43.21875 16.703125 43.21875 25.484375 
L 43.21875 27.484375 
z
M 52.203125 31.203125 
L 52.203125 0 
L 43.21875 0 
L 43.21875 8.296875 
Q 40.140625 3.328125 35.546875 0.953125 
Q 30.953125 -1.421875 24.3125 -1.421875 
Q 15.921875 -1.421875 10.953125 3.296875 
Q 6 8.015625 6 15.921875 
Q 6 25.140625 12.171875 29.828125 
Q 18.359375 34.515625 30.609375 34.515625 
L 43.21875 34.515625 
L 43.21875 35.40625 
Q 43.21875 41.609375 39.140625 45 
Q 35.0625 48.390625 27.6875 48.390625 
Q 23 48.390625 18.546875 47.265625 
Q 14.109375 46.140625 10.015625 43.890625 
L 10.015625 52.203125 
Q 14.9375 54.109375 19.578125 55.046875 
Q 24.21875 56 28.609375 56 
Q 40.484375 56 46.34375 49.84375 
Q 52.203125 43.703125 52.203125 31.203125 
z
" id="DejaVuSans-61"/>
      <path d="M 9.421875 54.6875 
L 18.40625 54.6875 
L 18.40625 0 
L 9.421875 0 
z
M 9.421875 75.984375 
L 18.40625 75.984375 
L 18.40625 64.59375 
L 9.421875 64.59375 
z
" id="DejaVuSans-69"/>
      <path d="M 48.78125 52.59375 
L 48.78125 44.1875 
Q 44.96875 46.296875 41.140625 47.34375 
Q 37.3125 48.390625 33.40625 48.390625 
Q 24.65625 48.390625 19.8125 42.84375 
Q 14.984375 37.3125 14.984375 27.296875 
Q 14.984375 17.28125 19.8125 11.734375 
Q 24.65625 6.203125 33.40625 6.203125 
Q 37.3125 6.203125 41.140625 7.25 
Q 44.96875 8.296875 48.78125 10.40625 
L 48.78125 2.09375 
Q 45.015625 0.34375 40.984375 -0.53125 
Q 36.96875 -1.421875 32.421875 -1.421875 
Q 20.0625 -1.421875 12.78125 6.34375 
Q 5.515625 14.109375 5.515625 27.296875 
Q 5.515625 40.671875 12.859375 48.328125 
Q 20.21875 56 33.015625 56 
Q 37.15625 56 41.109375 55.140625 
Q 45.0625 54.296875 48.78125 52.59375 
z
" id="DejaVuSans-63"/>
     </defs>
     <g style="fill:#222222;" transform="translate(203.28 281.539062)scale(0.16 -0.16)">
      <use transform="translate(0 0.015625)" xlink:href="#DejaVuSans-Oblique-46"/>
      <use transform="translate(57.519531 0.015625)" xlink:href="#DejaVuSans-20"/>
      <use transform="translate(89.306641 0.015625)" xlink:href="#DejaVuSans-73"/>
      <use transform="translate(141.40625 0.015625)" xlink:href="#DejaVuSans-74"/>
      <use transform="translate(180.615234 0.015625)" xlink:href="#DejaVuSans-61"/>
      <use transform="translate(241.894531 0.015625)" xlink:href="#DejaVuSans-74"/>
      <use transform="translate(281.103516 0.015625)" xlink:href="#DejaVuSans-69"/>
      <use transform="translate(308.886719 0.015625)" xlink:href="#DejaVuSans-73"/>
      <use transform="translate(360.986328 0.015625)" xlink:href="#DejaVuSans-74"/>
      <use transform="translate(400.195312 0.015625)" xlink:href="#DejaVuSans-69"/>
      <use transform="translate(427.978516 0.015625)" xlink:href="#DejaVuSans-63"/>
     </g>
    </g>
   </g>
   <g id="matplotlib.axis_2">
    <g id="ytick_1">
     <g id="line2d_7">
      <defs>
       <path d="M 0 0 
L -4 0 
" id="m7d0587ab25" style="stroke:#222222;"/>
      </defs>
      <g>
       <use style="fill:#222222;stroke:#222222;" x="64.8" xlink:href="#m7d0587ab25" y="234.327273"/>
      </g>
     </g>
     <g id="text_8">
      <!-- 0.0 -->
      <defs>
       <path d="M 10.6875 12.40625 
L 21 12.40625 
L 21 0 
L 10.6875 0 
z
" id="DejaVuSans-2e"/>
      </defs>
      <g style="fill:#222222;" transform="translate(36.125937 239.266257)scale(0.13 -0.13)">
       <use xlink:href="#DejaVuSans-30"/>
       <use x="63.623047" xlink:href="#DejaVuSans-2e"/>
       <use x="95.410156" xlink:href="#DejaVuSans-30"/>
      </g>
     </g>
    </g>
    <g id="ytick_2">
     <g id="line2d_8">
      <g>
       <use style="fill:#222222;stroke:#222222;" x="64.8" xlink:href="#m7d0587ab25" y="191.069767"/>
      </g>
     </g>
     <g id="text_9">
      <!-- 0.5 -->
      <g style="fill:#222222;" transform="translate(36.125937 196.008752)scale(0.13 -0.13)">
       <use xlink:href="#DejaVuSans-30"/>
       <use x="63.623047" xlink:href="#DejaVuSans-2e"/>
       <use x="95.410156" xlink:href="#DejaVuSans-35"/>
      </g>
     </g>
    </g>
    <g id="ytick_3">
     <g id="line2d_9">
      <g>
       <use style="fill:#222222;stroke:#222222;" x="64.8" xlink:href="#m7d0587ab25" y="147.812262"/>
      </g>
     </g>
     <g id="text_10">
      <!-- 1.0 -->
      <g style="fill:#222222;" transform="translate(36.125937 152.751246)scale(0.13 -0.13)">
       <use xlink:href="#DejaVuSans-31"/>
       <use x="63.623047" xlink:href="#DejaVuSans-2e"/>
       <use x="95.410156" xlink:href="#DejaVuSans-30"/>
      </g>
     </g>
    </g>
    <g id="ytick_4">
     <g id="line2d_10">
      <g>
       <use style="fill:#222222;stroke:#222222;" x="64.8" xlink:href="#m7d0587ab25" y="104.554757"/>
      </g>
     </g>
     <g id="text_11">
      <!-- 1.5 -->
      <g style="fill:#222222;" transform="translate(36.125937 109.493741)scale(0.13 -0.13)">
       <use xlink:href="#DejaVuSans-31"/>
       <use x="63.623047" xlink:href="#DejaVuSans-2e"/>
       <use x="95.410156" xlink:href="#DejaVuSans-35"/>
      </g>
     </g>
    </g>
    <g id="ytick_5">
     <g id="line2d_11">
      <g>
       <use style="fill:#222222;stroke:#222222;" x="64.8" xlink:href="#m7d0587ab25" y="61.297251"/>
      </g>
     </g>
     <g id="text_12">
      <!-- 2.0 -->
      <g style="fill:#222222;" transform="translate(36.125937 66.236236)scale(0.13 -0.13)">
       <use xlink:href="#DejaVuSans-32"/>
       <use x="63.623047" xlink:href="#DejaVuSans-2e"/>
       <use x="95.410156" xlink:href="#DejaVuSans-30"/>
      </g>
     </g>
    </g>
    <g id="ytick_6">
     <g id="line2d_12">
      <g>
       <use style="fill:#222222;stroke:#222222;" x="64.8" xlink:href="#m7d0587ab25" y="18.039746"/>
      </g>
     </g>
     <g id="text_13">
      <!-- 2.5 -->
      <g style="fill:#222222;" transform="translate(36.125937 22.97873)scale(0.13 -0.13)">
       <use xlink:href="#DejaVuSans-32"/>
       <use x="63.623047" xlink:href="#DejaVuSans-2e"/>
       <use x="95.410156" xlink:href="#DejaVuSans-35"/>
      </g>
     </g>
    </g>
    <g id="text_14">
     <!-- Relative frequency -->
     <defs>
      <path d="M 44.390625 34.1875 
Q 47.5625 33.109375 50.5625 29.59375 
Q 53.5625 26.078125 56.59375 19.921875 
L 66.609375 0 
L 56 0 
L 46.6875 18.703125 
Q 43.0625 26.03125 39.671875 28.421875 
Q 36.28125 30.8125 30.421875 30.8125 
L 19.671875 30.8125 
L 19.671875 0 
L 9.8125 0 
L 9.8125 72.90625 
L 32.078125 72.90625 
Q 44.578125 72.90625 50.734375 67.671875 
Q 56.890625 62.453125 56.890625 51.90625 
Q 56.890625 45.015625 53.6875 40.46875 
Q 50.484375 35.9375 44.390625 34.1875 
z
M 19.671875 64.796875 
L 19.671875 38.921875 
L 32.078125 38.921875 
Q 39.203125 38.921875 42.84375 42.21875 
Q 46.484375 45.515625 46.484375 51.90625 
Q 46.484375 58.296875 42.84375 61.546875 
Q 39.203125 64.796875 32.078125 64.796875 
z
" id="DejaVuSans-52"/>
      <path d="M 56.203125 29.59375 
L 56.203125 25.203125 
L 14.890625 25.203125 
Q 15.484375 15.921875 20.484375 11.0625 
Q 25.484375 6.203125 34.421875 6.203125 
Q 39.59375 6.203125 44.453125 7.46875 
Q 49.3125 8.734375 54.109375 11.28125 
L 54.109375 2.78125 
Q 49.265625 0.734375 44.1875 -0.34375 
Q 39.109375 -1.421875 33.890625 -1.421875 
Q 20.796875 -1.421875 13.15625 6.1875 
Q 5.515625 13.8125 5.515625 26.8125 
Q 5.515625 40.234375 12.765625 48.109375 
Q 20.015625 56 32.328125 56 
Q 43.359375 56 49.78125 48.890625 
Q 56.203125 41.796875 56.203125 29.59375 
z
M 47.21875 32.234375 
Q 47.125 39.59375 43.09375 43.984375 
Q 39.0625 48.390625 32.421875 48.390625 
Q 24.90625 48.390625 20.390625 44.140625 
Q 15.875 39.890625 15.1875 32.171875 
z
" id="DejaVuSans-65"/>
      <path d="M 9.421875 75.984375 
L 18.40625 75.984375 
L 18.40625 0 
L 9.421875 0 
z
" id="DejaVuSans-6c"/>
      <path d="M 2.984375 54.6875 
L 12.5 54.6875 
L 29.59375 8.796875 
L 46.6875 54.6875 
L 56.203125 54.6875 
L 35.6875 0 
L 23.484375 0 
z
" id="DejaVuSans-76"/>
      <path d="M 37.109375 75.984375 
L 37.109375 68.5 
L 28.515625 68.5 
Q 23.6875 68.5 21.796875 66.546875 
Q 19.921875 64.59375 19.921875 59.515625 
L 19.921875 54.6875 
L 34.71875 54.6875 
L 34.71875 47.703125 
L 19.921875 47.703125 
L 19.921875 0 
L 10.890625 0 
L 10.890625 47.703125 
L 2.296875 47.703125 
L 2.296875 54.6875 
L 10.890625 54.6875 
L 10.890625 58.5 
Q 10.890625 67.625 15.140625 71.796875 
Q 19.390625 75.984375 28.609375 75.984375 
z
" id="DejaVuSans-66"/>
      <path d="M 41.109375 46.296875 
Q 39.59375 47.171875 37.8125 47.578125 
Q 36.03125 48 33.890625 48 
Q 26.265625 48 22.1875 43.046875 
Q 18.109375 38.09375 18.109375 28.8125 
L 18.109375 0 
L 9.078125 0 
L 9.078125 54.6875 
L 18.109375 54.6875 
L 18.109375 46.1875 
Q 20.953125 51.171875 25.484375 53.578125 
Q 30.03125 56 36.53125 56 
Q 37.453125 56 38.578125 55.875 
Q 39.703125 55.765625 41.0625 55.515625 
z
" id="DejaVuSans-72"/>
      <path d="M 14.796875 27.296875 
Q 14.796875 17.390625 18.875 11.75 
Q 22.953125 6.109375 30.078125 6.109375 
Q 37.203125 6.109375 41.296875 11.75 
Q 45.40625 17.390625 45.40625 27.296875 
Q 45.40625 37.203125 41.296875 42.84375 
Q 37.203125 48.484375 30.078125 48.484375 
Q 22.953125 48.484375 18.875 42.84375 
Q 14.796875 37.203125 14.796875 27.296875 
z
M 45.40625 8.203125 
Q 42.578125 3.328125 38.25 0.953125 
Q 33.9375 -1.421875 27.875 -1.421875 
Q 17.96875 -1.421875 11.734375 6.484375 
Q 5.515625 14.40625 5.515625 27.296875 
Q 5.515625 40.1875 11.734375 48.09375 
Q 17.96875 56 27.875 56 
Q 33.9375 56 38.25 53.625 
Q 42.578125 51.265625 45.40625 46.390625 
L 45.40625 54.6875 
L 54.390625 54.6875 
L 54.390625 -20.796875 
L 45.40625 -20.796875 
z
" id="DejaVuSans-71"/>
      <path d="M 8.5 21.578125 
L 8.5 54.6875 
L 17.484375 54.6875 
L 17.484375 21.921875 
Q 17.484375 14.15625 20.5 10.265625 
Q 23.53125 6.390625 29.59375 6.390625 
Q 36.859375 6.390625 41.078125 11.03125 
Q 45.3125 15.671875 45.3125 23.6875 
L 45.3125 54.6875 
L 54.296875 54.6875 
L 54.296875 0 
L 45.3125 0 
L 45.3125 8.40625 
Q 42.046875 3.421875 37.71875 1 
Q 33.40625 -1.421875 27.6875 -1.421875 
Q 18.265625 -1.421875 13.375 4.4375 
Q 8.5 10.296875 8.5 21.578125 
z
M 31.109375 56 
z
" id="DejaVuSans-75"/>
      <path d="M 54.890625 33.015625 
L 54.890625 0 
L 45.90625 0 
L 45.90625 32.71875 
Q 45.90625 40.484375 42.875 44.328125 
Q 39.84375 48.1875 33.796875 48.1875 
Q 26.515625 48.1875 22.3125 43.546875 
Q 18.109375 38.921875 18.109375 30.90625 
L 18.109375 0 
L 9.078125 0 
L 9.078125 54.6875 
L 18.109375 54.6875 
L 18.109375 46.1875 
Q 21.34375 51.125 25.703125 53.5625 
Q 30.078125 56 35.796875 56 
Q 45.21875 56 50.046875 50.171875 
Q 54.890625 44.34375 54.890625 33.015625 
z
" id="DejaVuSans-6e"/>
      <path d="M 32.171875 -5.078125 
Q 28.375 -14.84375 24.75 -17.8125 
Q 21.140625 -20.796875 15.09375 -20.796875 
L 7.90625 -20.796875 
L 7.90625 -13.28125 
L 13.1875 -13.28125 
Q 16.890625 -13.28125 18.9375 -11.515625 
Q 21 -9.765625 23.484375 -3.21875 
L 25.09375 0.875 
L 2.984375 54.6875 
L 12.5 54.6875 
L 29.59375 11.921875 
L 46.6875 54.6875 
L 56.203125 54.6875 
z
" id="DejaVuSans-79"/>
     </defs>
     <g style="fill:#222222;" transform="translate(28.798437 205.06)rotate(-90)scale(0.16 -0.16)">
      <use xlink:href="#DejaVuSans-52"/>
      <use x="69.419922" xlink:href="#DejaVuSans-65"/>
      <use x="130.943359" xlink:href="#DejaVuSans-6c"/>
      <use x="158.726562" xlink:href="#DejaVuSans-61"/>
      <use x="220.005859" xlink:href="#DejaVuSans-74"/>
      <use x="259.214844" xlink:href="#DejaVuSans-69"/>
      <use x="286.998047" xlink:href="#DejaVuSans-76"/>
      <use x="346.177734" xlink:href="#DejaVuSans-65"/>
      <use x="407.701172" xlink:href="#DejaVuSans-20"/>
      <use x="439.488281" xlink:href="#DejaVuSans-66"/>
      <use x="474.693359" xlink:href="#DejaVuSans-72"/>
      <use x="515.775391" xlink:href="#DejaVuSans-65"/>
      <use x="577.298828" xlink:href="#DejaVuSans-71"/>
      <use x="640.775391" xlink:href="#DejaVuSans-75"/>
      <use x="704.154297" xlink:href="#DejaVuSans-65"/>
      <use x="765.677734" xlink:href="#DejaVuSans-6e"/>
      <use x="829.056641" xlink:href="#DejaVuSans-63"/>
      <use x="884.037109" xlink:href="#DejaVuSans-79"/>
     </g>
    </g>
   </g>
   <g id="line2d_13">
    <path clip-path="url(#pc6637c366d)" d="M 65.984749 24.872727 
L 67.169498 88.617092 
L 68.354247 117.249865 
L 69.538997 134.52448 
L 70.723746 146.438508 
L 71.908495 155.315492 
L 73.093244 162.271648 
L 74.277993 167.919536 
L 75.462742 172.627484 
L 76.647492 176.632303 
L 77.832241 180.094255 
L 79.01699 183.126289 
L 80.201739 185.810678 
L 82.571237 190.368441 
L 84.940736 194.110456 
L 87.310234 197.251488 
L 89.679732 199.934091 
L 92.049231 202.257261 
L 94.418729 204.292281 
L 96.788227 206.092015 
L 100.342475 208.435821 
L 103.896722 210.438798 
L 107.45097 212.172025 
L 111.005217 213.687538 
L 115.744214 215.435791 
L 120.483211 216.934325 
L 126.406957 218.531172 
L 132.330702 219.885746 
L 139.439197 221.261812 
L 147.732441 222.600739 
L 156.025686 223.718579 
L 165.503679 224.787998 
L 177.351171 225.88692 
L 190.383411 226.866979 
L 205.785151 227.798187 
L 223.556388 228.650687 
L 244.881873 229.450353 
L 270.946355 230.197994 
L 302.934582 230.883078 
L 343.216054 231.509331 
L 394.160268 232.066217 
L 419.04 232.274668 
L 419.04 232.274668 
" style="fill:none;stroke:#1f77b4;stroke-linecap:square;stroke-width:2;"/>
   </g>
   <g id="line2d_14">
    <path clip-path="url(#pc6637c366d)" d="M 65.984749 150.634747 
L 68.354247 155.880597 
L 70.723746 160.648256 
L 73.093244 164.994126 
L 75.462742 168.966533 
L 77.832241 172.607074 
L 80.201739 175.951711 
L 83.755987 180.481028 
L 87.310234 184.502951 
L 90.864482 188.090531 
L 94.418729 191.30413 
L 97.972977 194.193979 
L 101.527224 196.802149 
L 105.081472 199.164092 
L 108.635719 201.309854 
L 113.374716 203.878291 
L 118.113712 206.158283 
L 122.852709 208.191458 
L 127.591706 210.012197 
L 133.515452 212.03249 
L 139.439197 213.811064 
L 146.547692 215.677991 
L 153.656187 217.301217 
L 161.949431 218.940718 
L 170.242676 220.354327 
L 179.720669 221.743765 
L 190.383411 223.07281 
L 202.230903 224.316765 
L 215.263144 225.46102 
L 230.664883 226.577252 
L 248.43612 227.621864 
L 268.576856 228.569335 
L 292.271839 229.447693 
L 319.52107 230.230325 
L 352.694047 230.952985 
L 392.975518 231.599868 
L 419.04 231.924078 
L 419.04 231.924078 
" style="fill:none;stroke:#ff7f0e;stroke-linecap:square;stroke-width:2;"/>
   </g>
   <g id="line2d_15">
    <path clip-path="url(#pc6637c366d)" d="M 64.8 234.327273 
L 65.984749 230.32252 
L 69.538997 212.805409 
L 70.723746 207.735038 
L 71.908495 203.29203 
L 73.093244 199.469254 
L 74.277993 196.228698 
L 75.462742 193.519001 
L 76.647492 191.284684 
L 77.832241 189.471015 
L 79.01699 188.026466 
L 80.201739 186.903845 
L 81.386488 186.060669 
L 82.571237 185.459132 
L 83.755987 185.065851 
L 84.940736 184.851507 
L 86.125485 184.790452 
L 87.310234 184.860311 
L 89.679732 185.31739 
L 92.049231 186.095572 
L 94.418729 187.099085 
L 97.972977 188.874594 
L 103.896722 192.173386 
L 113.374716 197.485134 
L 119.298462 200.557696 
L 125.222207 203.370412 
L 131.145953 205.916587 
L 137.069699 208.208448 
L 142.993445 210.266327 
L 148.917191 212.113143 
L 156.025686 214.082655 
L 163.134181 215.817348 
L 171.427425 217.587187 
L 179.720669 219.12502 
L 189.198662 220.645047 
L 199.861405 222.104894 
L 211.708896 223.474712 
L 224.741137 224.736148 
L 238.958127 225.880424 
L 255.544615 226.977244 
L 274.500602 227.990434 
L 295.826087 228.900437 
L 320.705819 229.735907 
L 350.324548 230.502393 
L 385.867023 231.19411 
L 419.04 231.68384 
L 419.04 231.68384 
" style="fill:none;stroke:#2ca02c;stroke-linecap:square;stroke-width:2;"/>
   </g>
   <g id="line2d_16">
    <path clip-path="url(#pc6637c366d)" d="M 64.8 234.327273 
L 67.169498 234.202262 
L 68.354247 233.825194 
L 69.538997 233.059626 
L 70.723746 231.838729 
L 71.908495 230.15231 
L 73.093244 228.03293 
L 74.277993 225.540652 
L 76.647492 219.740498 
L 83.755987 200.896934 
L 86.125485 195.438014 
L 88.494983 190.713678 
L 90.864482 186.772782 
L 93.23398 183.606575 
L 94.418729 182.300913 
L 95.603478 181.170228 
L 96.788227 180.205869 
L 97.972977 179.398627 
L 99.157726 178.738988 
L 100.342475 178.217328 
L 101.527224 177.824069 
L 103.896722 177.385379 
L 106.266221 177.351143 
L 108.635719 177.655473 
L 111.005217 178.239234 
L 113.374716 179.050249 
L 116.928963 180.595223 
L 120.483211 182.423387 
L 125.222207 185.132067 
L 147.732441 198.442765 
L 153.656187 201.541541 
L 159.579933 204.395444 
L 165.503679 207.004078 
L 171.427425 209.376606 
L 177.351171 211.527416 
L 183.274916 213.473369 
L 190.383411 215.562923 
L 197.491906 217.412736 
L 204.600401 219.050813 
L 212.893645 220.728165 
L 221.18689 222.187785 
L 230.664883 223.628898 
L 241.327625 225.00711 
L 253.175117 226.290072 
L 266.207358 227.457289 
L 280.424348 228.498738 
L 297.010836 229.47541 
L 315.966823 230.352334 
L 337.292308 231.112722 
L 363.356789 231.808755 
L 394.160268 232.402575 
L 419.04 232.757048 
L 419.04 232.757048 
" style="fill:none;stroke:#d62728;stroke-linecap:square;stroke-width:2;"/>
   </g>
   <g id="line2d_17">
    <path clip-path="url(#pc6637c366d)" d="M 64.8 234.327273 
L 94.418729 234.27071 
L 96.788227 234.100043 
L 97.972977 233.907491 
L 99.157726 233.588372 
L 100.342475 233.083203 
L 101.527224 232.316708 
L 102.711973 231.198522 
L 103.896722 229.625796 
L 105.081472 227.487821 
L 106.266221 224.67251 
L 107.45097 221.074304 
L 108.635719 216.602827 
L 109.820468 211.191485 
L 111.005217 204.805148 
L 112.189967 197.446135 
L 113.374716 189.157897 
L 115.744214 170.176435 
L 119.298462 138.078439 
L 121.66796 116.673116 
L 124.037458 97.313782 
L 125.222207 88.89047 
L 126.406957 81.51531 
L 127.591706 75.306608 
L 128.776455 70.348146 
L 129.961204 66.688804 
L 131.145953 64.343669 
L 132.330702 63.296395 
L 133.515452 63.502527 
L 134.700201 64.893509 
L 135.88495 67.381088 
L 137.069699 70.861879 
L 138.254448 75.221851 
L 139.439197 80.34058 
L 141.808696 92.363392 
L 144.178194 105.974043 
L 151.286689 148.442839 
L 153.656187 161.294238 
L 156.025686 172.960649 
L 158.395184 183.320516 
L 160.764682 192.347923 
L 163.134181 200.086284 
L 165.503679 206.625089 
L 167.873177 212.080781 
L 170.242676 216.581985 
L 172.612174 220.258796 
L 174.981672 223.235549 
L 177.351171 225.626384 
L 179.720669 227.532945 
L 182.090167 229.043594 
L 184.459666 230.23366 
L 186.829164 231.166329 
L 189.198662 231.893876 
L 192.75291 232.691828 
L 196.307157 233.233782 
L 201.046154 233.692155 
L 206.9699 234.007872 
L 215.263144 234.20652 
L 230.664883 234.307714 
L 291.08709 234.327254 
L 419.04 234.327273 
L 419.04 234.327273 
" style="fill:none;stroke:#9467bd;stroke-linecap:square;stroke-width:2;"/>
   </g>
   <g id="patch_3">
    <path d="M 64.8 244.8 
L 64.8 14.4 
" style="fill:none;stroke:#222222;stroke-linecap:square;stroke-linejoin:miter;"/>
   </g>
   <g id="patch_4">
    <path d="M 64.8 244.8 
L 419.04 244.8 
" style="fill:none;stroke:#222222;stroke-linecap:square;stroke-linejoin:miter;"/>
   </g>
   <g id="legend_1">
    <g id="line2d_18">
     <path d="M 220.015 35.3575 
L 252.015 35.3575 
" style="fill:none;stroke:#1f77b4;stroke-linecap:square;stroke-width:2;"/>
    </g>
    <g id="line2d_19"/>
    <g id="text_15">
     <!-- df1=1, df2=1 -->
     <defs>
      <path d="M 45.40625 46.390625 
L 45.40625 75.984375 
L 54.390625 75.984375 
L 54.390625 0 
L 45.40625 0 
L 45.40625 8.203125 
Q 42.578125 3.328125 38.25 0.953125 
Q 33.9375 -1.421875 27.875 -1.421875 
Q 17.96875 -1.421875 11.734375 6.484375 
Q 5.515625 14.40625 5.515625 27.296875 
Q 5.515625 40.1875 11.734375 48.09375 
Q 17.96875 56 27.875 56 
Q 33.9375 56 38.25 53.625 
Q 42.578125 51.265625 45.40625 46.390625 
z
M 14.796875 27.296875 
Q 14.796875 17.390625 18.875 11.75 
Q 22.953125 6.109375 30.078125 6.109375 
Q 37.203125 6.109375 41.296875 11.75 
Q 45.40625 17.390625 45.40625 27.296875 
Q 45.40625 37.203125 41.296875 42.84375 
Q 37.203125 48.484375 30.078125 48.484375 
Q 22.953125 48.484375 18.875 42.84375 
Q 14.796875 37.203125 14.796875 27.296875 
z
" id="DejaVuSans-64"/>
      <path d="M 10.59375 45.40625 
L 73.1875 45.40625 
L 73.1875 37.203125 
L 10.59375 37.203125 
z
M 10.59375 25.484375 
L 73.1875 25.484375 
L 73.1875 17.1875 
L 10.59375 17.1875 
z
" id="DejaVuSans-3d"/>
      <path d="M 11.71875 12.40625 
L 22.015625 12.40625 
L 22.015625 4 
L 14.015625 -11.625 
L 7.71875 -11.625 
L 11.71875 4 
z
" id="DejaVuSans-2c"/>
     </defs>
     <g transform="translate(264.815 40.9575)scale(0.16 -0.16)">
      <use xlink:href="#DejaVuSans-64"/>
      <use x="63.476562" xlink:href="#DejaVuSans-66"/>
      <use x="98.681641" xlink:href="#DejaVuSans-31"/>
      <use x="162.304688" xlink:href="#DejaVuSans-3d"/>
      <use x="246.09375" xlink:href="#DejaVuSans-31"/>
      <use x="309.716797" xlink:href="#DejaVuSans-2c"/>
      <use x="341.503906" xlink:href="#DejaVuSans-20"/>
      <use x="373.291016" xlink:href="#DejaVuSans-64"/>
      <use x="436.767578" xlink:href="#DejaVuSans-66"/>
      <use x="471.972656" xlink:href="#DejaVuSans-32"/>
      <use x="535.595703" xlink:href="#DejaVuSans-3d"/>
      <use x="619.384766" xlink:href="#DejaVuSans-31"/>
     </g>
    </g>
    <g id="line2d_20">
     <path d="M 220.015 58.8425 
L 252.015 58.8425 
" style="fill:none;stroke:#ff7f0e;stroke-linecap:square;stroke-width:2;"/>
    </g>
    <g id="line2d_21"/>
    <g id="text_16">
     <!-- df1=2, df2=2 -->
     <g transform="translate(264.815 64.4425)scale(0.16 -0.16)">
      <use xlink:href="#DejaVuSans-64"/>
      <use x="63.476562" xlink:href="#DejaVuSans-66"/>
      <use x="98.681641" xlink:href="#DejaVuSans-31"/>
      <use x="162.304688" xlink:href="#DejaVuSans-3d"/>
      <use x="246.09375" xlink:href="#DejaVuSans-32"/>
      <use x="309.716797" xlink:href="#DejaVuSans-2c"/>
      <use x="341.503906" xlink:href="#DejaVuSans-20"/>
      <use x="373.291016" xlink:href="#DejaVuSans-64"/>
      <use x="436.767578" xlink:href="#DejaVuSans-66"/>
      <use x="471.972656" xlink:href="#DejaVuSans-32"/>
      <use x="535.595703" xlink:href="#DejaVuSans-3d"/>
      <use x="619.384766" xlink:href="#DejaVuSans-32"/>
     </g>
    </g>
    <g id="line2d_22">
     <path d="M 220.015 82.3275 
L 252.015 82.3275 
" style="fill:none;stroke:#2ca02c;stroke-linecap:square;stroke-width:2;"/>
    </g>
    <g id="line2d_23"/>
    <g id="text_17">
     <!-- df1=5, df2=2 -->
     <g transform="translate(264.815 87.9275)scale(0.16 -0.16)">
      <use xlink:href="#DejaVuSans-64"/>
      <use x="63.476562" xlink:href="#DejaVuSans-66"/>
      <use x="98.681641" xlink:href="#DejaVuSans-31"/>
      <use x="162.304688" xlink:href="#DejaVuSans-3d"/>
      <use x="246.09375" xlink:href="#DejaVuSans-35"/>
      <use x="309.716797" xlink:href="#DejaVuSans-2c"/>
      <use x="341.503906" xlink:href="#DejaVuSans-20"/>
      <use x="373.291016" xlink:href="#DejaVuSans-64"/>
      <use x="436.767578" xlink:href="#DejaVuSans-66"/>
      <use x="471.972656" xlink:href="#DejaVuSans-32"/>
      <use x="535.595703" xlink:href="#DejaVuSans-3d"/>
      <use x="619.384766" xlink:href="#DejaVuSans-32"/>
     </g>
    </g>
    <g id="line2d_24">
     <path d="M 220.015 105.8125 
L 252.015 105.8125 
" style="fill:none;stroke:#d62728;stroke-linecap:square;stroke-width:2;"/>
    </g>
    <g id="line2d_25"/>
    <g id="text_18">
     <!-- df1=10, df2=5 -->
     <g transform="translate(264.815 111.4125)scale(0.16 -0.16)">
      <use xlink:href="#DejaVuSans-64"/>
      <use x="63.476562" xlink:href="#DejaVuSans-66"/>
      <use x="98.681641" xlink:href="#DejaVuSans-31"/>
      <use x="162.304688" xlink:href="#DejaVuSans-3d"/>
      <use x="246.09375" xlink:href="#DejaVuSans-31"/>
      <use x="309.716797" xlink:href="#DejaVuSans-30"/>
      <use x="373.339844" xlink:href="#DejaVuSans-2c"/>
      <use x="405.126953" xlink:href="#DejaVuSans-20"/>
      <use x="436.914062" xlink:href="#DejaVuSans-64"/>
      <use x="500.390625" xlink:href="#DejaVuSans-66"/>
      <use x="535.595703" xlink:href="#DejaVuSans-32"/>
      <use x="599.21875" xlink:href="#DejaVuSans-3d"/>
      <use x="683.007812" xlink:href="#DejaVuSans-35"/>
     </g>
    </g>
    <g id="line2d_26">
     <path d="M 220.015 129.2975 
L 252.015 129.2975 
" style="fill:none;stroke:#9467bd;stroke-linecap:square;stroke-width:2;"/>
    </g>
    <g id="line2d_27"/>
    <g id="text_19">
     <!-- df1=100, df2=90 -->
     <defs>
      <path d="M 10.984375 1.515625 
L 10.984375 10.5 
Q 14.703125 8.734375 18.5 7.8125 
Q 22.3125 6.890625 25.984375 6.890625 
Q 35.75 6.890625 40.890625 13.453125 
Q 46.046875 20.015625 46.78125 33.40625 
Q 43.953125 29.203125 39.59375 26.953125 
Q 35.25 24.703125 29.984375 24.703125 
Q 19.046875 24.703125 12.671875 31.3125 
Q 6.296875 37.9375 6.296875 49.421875 
Q 6.296875 60.640625 12.9375 67.421875 
Q 19.578125 74.21875 30.609375 74.21875 
Q 43.265625 74.21875 49.921875 64.515625 
Q 56.59375 54.828125 56.59375 36.375 
Q 56.59375 19.140625 48.40625 8.859375 
Q 40.234375 -1.421875 26.421875 -1.421875 
Q 22.703125 -1.421875 18.890625 -0.6875 
Q 15.09375 0.046875 10.984375 1.515625 
z
M 30.609375 32.421875 
Q 37.25 32.421875 41.125 36.953125 
Q 45.015625 41.5 45.015625 49.421875 
Q 45.015625 57.28125 41.125 61.84375 
Q 37.25 66.40625 30.609375 66.40625 
Q 23.96875 66.40625 20.09375 61.84375 
Q 16.21875 57.28125 16.21875 49.421875 
Q 16.21875 41.5 20.09375 36.953125 
Q 23.96875 32.421875 30.609375 32.421875 
z
" id="DejaVuSans-39"/>
     </defs>
     <g transform="translate(264.815 134.8975)scale(0.16 -0.16)">
      <use xlink:href="#DejaVuSans-64"/>
      <use x="63.476562" xlink:href="#DejaVuSans-66"/>
      <use x="98.681641" xlink:href="#DejaVuSans-31"/>
      <use x="162.304688" xlink:href="#DejaVuSans-3d"/>
      <use x="246.09375" xlink:href="#DejaVuSans-31"/>
      <use x="309.716797" xlink:href="#DejaVuSans-30"/>
      <use x="373.339844" xlink:href="#DejaVuSans-30"/>
      <use x="436.962891" xlink:href="#DejaVuSans-2c"/>
      <use x="468.75" xlink:href="#DejaVuSans-20"/>
      <use x="500.537109" xlink:href="#DejaVuSans-64"/>
      <use x="564.013672" xlink:href="#DejaVuSans-66"/>
      <use x="599.21875" xlink:href="#DejaVuSans-32"/>
      <use x="662.841797" xlink:href="#DejaVuSans-3d"/>
      <use x="746.630859" xlink:href="#DejaVuSans-39"/>
      <use x="810.253906" xlink:href="#DejaVuSans-30"/>
     </g>
    </g>
   </g>
  </g>
 </g>
 <defs>
  <clipPath id="pc6637c366d">
   <rect height="230.4" width="354.24" x="64.8" y="14.4"/>
  </clipPath>
 </defs>
</svg>
