<?xml version="1.0" encoding="utf-8" standalone="no"?>
<!DOCTYPE svg PUBLIC "-//W3C//DTD SVG 1.1//EN"
  "http://www.w3.org/Graphics/SVG/1.1/DTD/svg11.dtd">
<!-- Created with matplotlib (http://matplotlib.org/) -->
<svg height="288pt" version="1.1" viewBox="0 0 432 288" width="432pt" xmlns="http://www.w3.org/2000/svg" xmlns:xlink="http://www.w3.org/1999/xlink">
 <defs>
  <style type="text/css">
*{stroke-linecap:butt;stroke-linejoin:round;}
  </style>
 </defs>
 <g id="figure_1">
  <g id="patch_1">
   <path d="M 0 288 
L 432 288 
L 432 0 
L 0 0 
z
" style="fill:none;"/>
  </g>
  <g id="axes_1">
   <g id="patch_2">
    <path d="M 14.8 237.2 
L 417.2 237.2 
L 417.2 14.8 
L 14.8 14.8 
z
" style="fill:none;"/>
   </g>
   <g id="patch_3">
    <path clip-path="url(#pbc8b3b6473)" d="M 33.090909 237.2 
L 36.749091 237.2 
L 36.749091 236.574824 
L 33.090909 236.574824 
z
" style="fill:#00bfff;"/>
   </g>
   <g id="patch_4">
    <path clip-path="url(#pbc8b3b6473)" d="M 36.749091 237.2 
L 40.407273 237.2 
L 40.407273 235.324473 
L 36.749091 235.324473 
z
" style="fill:#00bfff;"/>
   </g>
   <g id="patch_5">
    <path clip-path="url(#pbc8b3b6473)" d="M 40.407273 237.2 
L 44.065455 237.2 
L 44.065455 235.324473 
L 40.407273 235.324473 
z
" style="fill:#00bfff;"/>
   </g>
   <g id="patch_6">
    <path clip-path="url(#pbc8b3b6473)" d="M 44.065455 237.2 
L 47.723636 237.2 
L 47.723636 235.324473 
L 44.065455 235.324473 
z
" style="fill:#00bfff;"/>
   </g>
   <g id="patch_7">
    <path clip-path="url(#pbc8b3b6473)" d="M 47.723636 237.2 
L 51.381818 237.2 
L 51.381818 235.324473 
L 47.723636 235.324473 
z
" style="fill:#00bfff;"/>
   </g>
   <g id="patch_8">
    <path clip-path="url(#pbc8b3b6473)" d="M 51.381818 237.2 
L 55.04 237.2 
L 55.04 236.574824 
L 51.381818 236.574824 
z
" style="fill:#00bfff;"/>
   </g>
   <g id="patch_9">
    <path clip-path="url(#pbc8b3b6473)" d="M 55.04 237.2 
L 58.698182 237.2 
L 58.698182 234.074122 
L 55.04 234.074122 
z
" style="fill:#00bfff;"/>
   </g>
   <g id="patch_10">
    <path clip-path="url(#pbc8b3b6473)" d="M 58.698182 237.2 
L 62.356364 237.2 
L 62.356364 233.448946 
L 58.698182 233.448946 
z
" style="fill:#00bfff;"/>
   </g>
   <g id="patch_11">
    <path clip-path="url(#pbc8b3b6473)" d="M 62.356364 237.2 
L 66.014545 237.2 
L 66.014545 234.074122 
L 62.356364 234.074122 
z
" style="fill:#00bfff;"/>
   </g>
   <g id="patch_12">
    <path clip-path="url(#pbc8b3b6473)" d="M 66.014545 237.2 
L 69.672727 237.2 
L 69.672727 234.074122 
L 66.014545 234.074122 
z
" style="fill:#00bfff;"/>
   </g>
   <g id="patch_13">
    <path clip-path="url(#pbc8b3b6473)" d="M 69.672727 237.2 
L 73.330909 237.2 
L 73.330909 232.198594 
L 69.672727 232.198594 
z
" style="fill:#00bfff;"/>
   </g>
   <g id="patch_14">
    <path clip-path="url(#pbc8b3b6473)" d="M 73.330909 237.2 
L 76.989091 237.2 
L 76.989091 233.448946 
L 73.330909 233.448946 
z
" style="fill:#00bfff;"/>
   </g>
   <g id="patch_15">
    <path clip-path="url(#pbc8b3b6473)" d="M 76.989091 237.2 
L 80.647273 237.2 
L 80.647273 230.323067 
L 76.989091 230.323067 
z
" style="fill:#00bfff;"/>
   </g>
   <g id="patch_16">
    <path clip-path="url(#pbc8b3b6473)" d="M 80.647273 237.2 
L 84.305455 237.2 
L 84.305455 227.822365 
L 80.647273 227.822365 
z
" style="fill:#00bfff;"/>
   </g>
   <g id="patch_17">
    <path clip-path="url(#pbc8b3b6473)" d="M 84.305455 237.2 
L 87.963636 237.2 
L 87.963636 219.695081 
L 84.305455 219.695081 
z
" style="fill:#00bfff;"/>
   </g>
   <g id="patch_18">
    <path clip-path="url(#pbc8b3b6473)" d="M 87.963636 237.2 
L 91.621818 237.2 
L 91.621818 226.572013 
L 87.963636 226.572013 
z
" style="fill:#00bfff;"/>
   </g>
   <g id="patch_19">
    <path clip-path="url(#pbc8b3b6473)" d="M 91.621818 237.2 
L 95.28 237.2 
L 95.28 222.820959 
L 91.621818 222.820959 
z
" style="fill:#00bfff;"/>
   </g>
   <g id="patch_20">
    <path clip-path="url(#pbc8b3b6473)" d="M 95.28 237.2 
L 98.938182 237.2 
L 98.938182 211.567797 
L 95.28 211.567797 
z
" style="fill:#00bfff;"/>
   </g>
   <g id="patch_21">
    <path clip-path="url(#pbc8b3b6473)" d="M 98.938182 237.2 
L 102.596364 237.2 
L 102.596364 215.318851 
L 98.938182 215.318851 
z
" style="fill:#00bfff;"/>
   </g>
   <g id="patch_22">
    <path clip-path="url(#pbc8b3b6473)" d="M 102.596364 237.2 
L 106.254545 237.2 
L 106.254545 217.194378 
L 102.596364 217.194378 
z
" style="fill:#00bfff;"/>
   </g>
   <g id="patch_23">
    <path clip-path="url(#pbc8b3b6473)" d="M 106.254545 237.2 
L 109.912727 237.2 
L 109.912727 214.693675 
L 106.254545 214.693675 
z
" style="fill:#00bfff;"/>
   </g>
   <g id="patch_24">
    <path clip-path="url(#pbc8b3b6473)" d="M 109.912727 237.2 
L 113.570909 237.2 
L 113.570909 203.440513 
L 109.912727 203.440513 
z
" style="fill:#00bfff;"/>
   </g>
   <g id="patch_25">
    <path clip-path="url(#pbc8b3b6473)" d="M 113.570909 237.2 
L 117.229091 237.2 
L 117.229091 200.314634 
L 113.570909 200.314634 
z
" style="fill:#00bfff;"/>
   </g>
   <g id="patch_26">
    <path clip-path="url(#pbc8b3b6473)" d="M 117.229091 237.2 
L 120.887273 237.2 
L 120.887273 189.686648 
L 117.229091 189.686648 
z
" style="fill:#00bfff;"/>
   </g>
   <g id="patch_27">
    <path clip-path="url(#pbc8b3b6473)" d="M 120.887273 237.2 
L 124.545455 237.2 
L 124.545455 194.062877 
L 120.887273 194.062877 
z
" style="fill:#00bfff;"/>
   </g>
   <g id="patch_28">
    <path clip-path="url(#pbc8b3b6473)" d="M 124.545455 237.2 
L 128.203636 237.2 
L 128.203636 168.430674 
L 124.545455 168.430674 
z
" style="fill:#00bfff;"/>
   </g>
   <g id="patch_29">
    <path clip-path="url(#pbc8b3b6473)" d="M 128.203636 237.2 
L 131.861818 237.2 
L 131.861818 174.057255 
L 128.203636 174.057255 
z
" style="fill:#00bfff;"/>
   </g>
   <g id="patch_30">
    <path clip-path="url(#pbc8b3b6473)" d="M 131.861818 237.2 
L 135.52 237.2 
L 135.52 160.928566 
L 131.861818 160.928566 
z
" style="fill:#00bfff;"/>
   </g>
   <g id="patch_31">
    <path clip-path="url(#pbc8b3b6473)" d="M 135.52 237.2 
L 139.178182 237.2 
L 139.178182 170.931377 
L 135.52 170.931377 
z
" style="fill:#00bfff;"/>
   </g>
   <g id="patch_32">
    <path clip-path="url(#pbc8b3b6473)" d="M 139.178182 237.2 
L 142.836364 237.2 
L 142.836364 148.425052 
L 139.178182 148.425052 
z
" style="fill:#00bfff;"/>
   </g>
   <g id="patch_33">
    <path clip-path="url(#pbc8b3b6473)" d="M 142.836364 237.2 
L 146.494545 237.2 
L 146.494545 158.427863 
L 142.836364 158.427863 
z
" style="fill:#00bfff;"/>
   </g>
   <g id="patch_34">
    <path clip-path="url(#pbc8b3b6473)" d="M 146.494545 237.2 
L 150.152727 237.2 
L 150.152727 157.177512 
L 146.494545 157.177512 
z
" style="fill:#00bfff;"/>
   </g>
   <g id="patch_35">
    <path clip-path="url(#pbc8b3b6473)" d="M 150.152727 237.2 
L 153.810909 237.2 
L 153.810909 136.546714 
L 150.152727 136.546714 
z
" style="fill:#00bfff;"/>
   </g>
   <g id="patch_36">
    <path clip-path="url(#pbc8b3b6473)" d="M 153.810909 237.2 
L 157.469091 237.2 
L 157.469091 130.294957 
L 153.810909 130.294957 
z
" style="fill:#00bfff;"/>
   </g>
   <g id="patch_37">
    <path clip-path="url(#pbc8b3b6473)" d="M 157.469091 237.2 
L 161.127273 237.2 
L 161.127273 125.293551 
L 157.469091 125.293551 
z
" style="fill:#00bfff;"/>
   </g>
   <g id="patch_38">
    <path clip-path="url(#pbc8b3b6473)" d="M 161.127273 237.2 
L 164.785455 237.2 
L 164.785455 124.0432 
L 161.127273 124.0432 
z
" style="fill:#00bfff;"/>
   </g>
   <g id="patch_39">
    <path clip-path="url(#pbc8b3b6473)" d="M 164.785455 237.2 
L 168.443636 237.2 
L 168.443636 109.664159 
L 164.785455 109.664159 
z
" style="fill:#00bfff;"/>
   </g>
   <g id="patch_40">
    <path clip-path="url(#pbc8b3b6473)" d="M 168.443636 237.2 
L 172.101818 237.2 
L 172.101818 110.914511 
L 168.443636 110.914511 
z
" style="fill:#00bfff;"/>
   </g>
   <g id="patch_41">
    <path clip-path="url(#pbc8b3b6473)" d="M 172.101818 237.2 
L 175.76 237.2 
L 175.76 107.163456 
L 172.101818 107.163456 
z
" style="fill:#00bfff;"/>
   </g>
   <g id="patch_42">
    <path clip-path="url(#pbc8b3b6473)" d="M 175.76 237.2 
L 179.418182 237.2 
L 179.418182 84.657132 
L 175.76 84.657132 
z
" style="fill:#00bfff;"/>
   </g>
   <g id="patch_43">
    <path clip-path="url(#pbc8b3b6473)" d="M 179.418182 237.2 
L 183.076364 237.2 
L 183.076364 99.036172 
L 179.418182 99.036172 
z
" style="fill:#00bfff;"/>
   </g>
   <g id="patch_44">
    <path clip-path="url(#pbc8b3b6473)" d="M 183.076364 237.2 
L 186.734545 237.2 
L 186.734545 100.286524 
L 183.076364 100.286524 
z
" style="fill:#00bfff;"/>
   </g>
   <g id="patch_45">
    <path clip-path="url(#pbc8b3b6473)" d="M 186.734545 237.2 
L 190.392727 237.2 
L 190.392727 92.784416 
L 186.734545 92.784416 
z
" style="fill:#00bfff;"/>
   </g>
   <g id="patch_46">
    <path clip-path="url(#pbc8b3b6473)" d="M 190.392727 237.2 
L 194.050909 237.2 
L 194.050909 44.645887 
L 190.392727 44.645887 
z
" style="fill:#00bfff;"/>
   </g>
   <g id="patch_47">
    <path clip-path="url(#pbc8b3b6473)" d="M 194.050909 237.2 
L 197.709091 237.2 
L 197.709091 86.532659 
L 194.050909 86.532659 
z
" style="fill:#00bfff;"/>
   </g>
   <g id="patch_48">
    <path clip-path="url(#pbc8b3b6473)" d="M 197.709091 237.2 
L 201.367273 237.2 
L 201.367273 67.152212 
L 197.709091 67.152212 
z
" style="fill:#00bfff;"/>
   </g>
   <g id="patch_49">
    <path clip-path="url(#pbc8b3b6473)" d="M 201.367273 237.2 
L 205.025455 237.2 
L 205.025455 71.528442 
L 201.367273 71.528442 
z
" style="fill:#00bfff;"/>
   </g>
   <g id="patch_50">
    <path clip-path="url(#pbc8b3b6473)" d="M 205.025455 237.2 
L 208.683636 237.2 
L 208.683636 54.648698 
L 205.025455 54.648698 
z
" style="fill:#00bfff;"/>
   </g>
   <g id="patch_51">
    <path clip-path="url(#pbc8b3b6473)" d="M 208.683636 237.2 
L 212.341818 237.2 
L 212.341818 72.778794 
L 208.683636 72.778794 
z
" style="fill:#00bfff;"/>
   </g>
   <g id="patch_52">
    <path clip-path="url(#pbc8b3b6473)" d="M 212.341818 237.2 
L 216 237.2 
L 216 82.781605 
L 212.341818 82.781605 
z
" style="fill:#00bfff;"/>
   </g>
   <g id="patch_53">
    <path clip-path="url(#pbc8b3b6473)" d="M 216 237.2 
L 219.658182 237.2 
L 219.658182 65.276685 
L 216 65.276685 
z
" style="fill:#00bfff;"/>
   </g>
   <g id="patch_54">
    <path clip-path="url(#pbc8b3b6473)" d="M 219.658182 237.2 
L 223.316364 237.2 
L 223.316364 52.773171 
L 219.658182 52.773171 
z
" style="fill:#00bfff;"/>
   </g>
   <g id="patch_55">
    <path clip-path="url(#pbc8b3b6473)" d="M 223.316364 237.2 
L 226.974545 237.2 
L 226.974545 66.527037 
L 223.316364 66.527037 
z
" style="fill:#00bfff;"/>
   </g>
   <g id="patch_56">
    <path clip-path="url(#pbc8b3b6473)" d="M 226.974545 237.2 
L 230.632727 237.2 
L 230.632727 69.652915 
L 226.974545 69.652915 
z
" style="fill:#00bfff;"/>
   </g>
   <g id="patch_57">
    <path clip-path="url(#pbc8b3b6473)" d="M 230.632727 237.2 
L 234.290909 237.2 
L 234.290909 69.027739 
L 230.632727 69.027739 
z
" style="fill:#00bfff;"/>
   </g>
   <g id="patch_58">
    <path clip-path="url(#pbc8b3b6473)" d="M 234.290909 237.2 
L 237.949091 237.2 
L 237.949091 76.529848 
L 234.290909 76.529848 
z
" style="fill:#00bfff;"/>
   </g>
   <g id="patch_59">
    <path clip-path="url(#pbc8b3b6473)" d="M 237.949091 237.2 
L 241.607273 237.2 
L 241.607273 94.659943 
L 237.949091 94.659943 
z
" style="fill:#00bfff;"/>
   </g>
   <g id="patch_60">
    <path clip-path="url(#pbc8b3b6473)" d="M 241.607273 237.2 
L 245.265455 237.2 
L 245.265455 107.163456 
L 241.607273 107.163456 
z
" style="fill:#00bfff;"/>
   </g>
   <g id="patch_61">
    <path clip-path="url(#pbc8b3b6473)" d="M 245.265455 237.2 
L 248.923636 237.2 
L 248.923636 105.913105 
L 245.265455 105.913105 
z
" style="fill:#00bfff;"/>
   </g>
   <g id="patch_62">
    <path clip-path="url(#pbc8b3b6473)" d="M 248.923636 237.2 
L 252.581818 237.2 
L 252.581818 122.792849 
L 248.923636 122.792849 
z
" style="fill:#00bfff;"/>
   </g>
   <g id="patch_63">
    <path clip-path="url(#pbc8b3b6473)" d="M 252.581818 237.2 
L 256.24 237.2 
L 256.24 113.415213 
L 252.581818 113.415213 
z
" style="fill:#00bfff;"/>
   </g>
   <g id="patch_64">
    <path clip-path="url(#pbc8b3b6473)" d="M 256.24 237.2 
L 259.898182 237.2 
L 259.898182 117.791443 
L 256.24 117.791443 
z
" style="fill:#00bfff;"/>
   </g>
   <g id="patch_65">
    <path clip-path="url(#pbc8b3b6473)" d="M 259.898182 237.2 
L 263.556364 237.2 
L 263.556364 128.41943 
L 259.898182 128.41943 
z
" style="fill:#00bfff;"/>
   </g>
   <g id="patch_66">
    <path clip-path="url(#pbc8b3b6473)" d="M 263.556364 237.2 
L 267.214545 237.2 
L 267.214545 140.922944 
L 263.556364 140.922944 
z
" style="fill:#00bfff;"/>
   </g>
   <g id="patch_67">
    <path clip-path="url(#pbc8b3b6473)" d="M 267.214545 237.2 
L 270.872727 237.2 
L 270.872727 156.552336 
L 267.214545 156.552336 
z
" style="fill:#00bfff;"/>
   </g>
   <g id="patch_68">
    <path clip-path="url(#pbc8b3b6473)" d="M 270.872727 237.2 
L 274.530909 237.2 
L 274.530909 157.177512 
L 270.872727 157.177512 
z
" style="fill:#00bfff;"/>
   </g>
   <g id="patch_69">
    <path clip-path="url(#pbc8b3b6473)" d="M 274.530909 237.2 
L 278.189091 237.2 
L 278.189091 174.057255 
L 274.530909 174.057255 
z
" style="fill:#00bfff;"/>
   </g>
   <g id="patch_70">
    <path clip-path="url(#pbc8b3b6473)" d="M 278.189091 237.2 
L 281.847273 237.2 
L 281.847273 160.928566 
L 278.189091 160.928566 
z
" style="fill:#00bfff;"/>
   </g>
   <g id="patch_71">
    <path clip-path="url(#pbc8b3b6473)" d="M 281.847273 237.2 
L 285.505455 237.2 
L 285.505455 172.181728 
L 281.847273 172.181728 
z
" style="fill:#00bfff;"/>
   </g>
   <g id="patch_72">
    <path clip-path="url(#pbc8b3b6473)" d="M 285.505455 237.2 
L 289.163636 237.2 
L 289.163636 186.560769 
L 285.505455 186.560769 
z
" style="fill:#00bfff;"/>
   </g>
   <g id="patch_73">
    <path clip-path="url(#pbc8b3b6473)" d="M 289.163636 237.2 
L 292.821818 237.2 
L 292.821818 177.808309 
L 289.163636 177.808309 
z
" style="fill:#00bfff;"/>
   </g>
   <g id="patch_74">
    <path clip-path="url(#pbc8b3b6473)" d="M 292.821818 237.2 
L 296.48 237.2 
L 296.48 199.064283 
L 292.821818 199.064283 
z
" style="fill:#00bfff;"/>
   </g>
   <g id="patch_75">
    <path clip-path="url(#pbc8b3b6473)" d="M 296.48 237.2 
L 300.138182 237.2 
L 300.138182 197.813932 
L 296.48 197.813932 
z
" style="fill:#00bfff;"/>
   </g>
   <g id="patch_76">
    <path clip-path="url(#pbc8b3b6473)" d="M 300.138182 237.2 
L 303.796364 237.2 
L 303.796364 205.31604 
L 300.138182 205.31604 
z
" style="fill:#00bfff;"/>
   </g>
   <g id="patch_77">
    <path clip-path="url(#pbc8b3b6473)" d="M 303.796364 237.2 
L 307.454545 237.2 
L 307.454545 200.93981 
L 303.796364 200.93981 
z
" style="fill:#00bfff;"/>
   </g>
   <g id="patch_78">
    <path clip-path="url(#pbc8b3b6473)" d="M 307.454545 237.2 
L 311.112727 237.2 
L 311.112727 206.566391 
L 307.454545 206.566391 
z
" style="fill:#00bfff;"/>
   </g>
   <g id="patch_79">
    <path clip-path="url(#pbc8b3b6473)" d="M 311.112727 237.2 
L 314.770909 237.2 
L 314.770909 210.942621 
L 311.112727 210.942621 
z
" style="fill:#00bfff;"/>
   </g>
   <g id="patch_80">
    <path clip-path="url(#pbc8b3b6473)" d="M 314.770909 237.2 
L 318.429091 237.2 
L 318.429091 213.443324 
L 314.770909 213.443324 
z
" style="fill:#00bfff;"/>
   </g>
   <g id="patch_81">
    <path clip-path="url(#pbc8b3b6473)" d="M 318.429091 237.2 
L 322.087273 237.2 
L 322.087273 215.318851 
L 318.429091 215.318851 
z
" style="fill:#00bfff;"/>
   </g>
   <g id="patch_82">
    <path clip-path="url(#pbc8b3b6473)" d="M 322.087273 237.2 
L 325.745455 237.2 
L 325.745455 217.819554 
L 322.087273 217.819554 
z
" style="fill:#00bfff;"/>
   </g>
   <g id="patch_83">
    <path clip-path="url(#pbc8b3b6473)" d="M 325.745455 237.2 
L 329.403636 237.2 
L 329.403636 223.446135 
L 325.745455 223.446135 
z
" style="fill:#00bfff;"/>
   </g>
   <g id="patch_84">
    <path clip-path="url(#pbc8b3b6473)" d="M 329.403636 237.2 
L 333.061818 237.2 
L 333.061818 227.822365 
L 329.403636 227.822365 
z
" style="fill:#00bfff;"/>
   </g>
   <g id="patch_85">
    <path clip-path="url(#pbc8b3b6473)" d="M 333.061818 237.2 
L 336.72 237.2 
L 336.72 226.572013 
L 333.061818 226.572013 
z
" style="fill:#00bfff;"/>
   </g>
   <g id="patch_86">
    <path clip-path="url(#pbc8b3b6473)" d="M 336.72 237.2 
L 340.378182 237.2 
L 340.378182 224.071311 
L 336.72 224.071311 
z
" style="fill:#00bfff;"/>
   </g>
   <g id="patch_87">
    <path clip-path="url(#pbc8b3b6473)" d="M 340.378182 237.2 
L 344.036364 237.2 
L 344.036364 229.697892 
L 340.378182 229.697892 
z
" style="fill:#00bfff;"/>
   </g>
   <g id="patch_88">
    <path clip-path="url(#pbc8b3b6473)" d="M 344.036364 237.2 
L 347.694545 237.2 
L 347.694545 229.072716 
L 344.036364 229.072716 
z
" style="fill:#00bfff;"/>
   </g>
   <g id="patch_89">
    <path clip-path="url(#pbc8b3b6473)" d="M 347.694545 237.2 
L 351.352727 237.2 
L 351.352727 232.82377 
L 347.694545 232.82377 
z
" style="fill:#00bfff;"/>
   </g>
   <g id="patch_90">
    <path clip-path="url(#pbc8b3b6473)" d="M 351.352727 237.2 
L 355.010909 237.2 
L 355.010909 233.448946 
L 351.352727 233.448946 
z
" style="fill:#00bfff;"/>
   </g>
   <g id="patch_91">
    <path clip-path="url(#pbc8b3b6473)" d="M 355.010909 237.2 
L 358.669091 237.2 
L 358.669091 231.573419 
L 355.010909 231.573419 
z
" style="fill:#00bfff;"/>
   </g>
   <g id="patch_92">
    <path clip-path="url(#pbc8b3b6473)" d="M 358.669091 237.2 
L 362.327273 237.2 
L 362.327273 232.198594 
L 358.669091 232.198594 
z
" style="fill:#00bfff;"/>
   </g>
   <g id="patch_93">
    <path clip-path="url(#pbc8b3b6473)" d="M 362.327273 237.2 
L 365.985455 237.2 
L 365.985455 235.949649 
L 362.327273 235.949649 
z
" style="fill:#00bfff;"/>
   </g>
   <g id="patch_94">
    <path clip-path="url(#pbc8b3b6473)" d="M 365.985455 237.2 
L 369.643636 237.2 
L 369.643636 235.949649 
L 365.985455 235.949649 
z
" style="fill:#00bfff;"/>
   </g>
   <g id="patch_95">
    <path clip-path="url(#pbc8b3b6473)" d="M 369.643636 237.2 
L 373.301818 237.2 
L 373.301818 236.574824 
L 369.643636 236.574824 
z
" style="fill:#00bfff;"/>
   </g>
   <g id="patch_96">
    <path clip-path="url(#pbc8b3b6473)" d="M 373.301818 237.2 
L 376.96 237.2 
L 376.96 237.2 
L 373.301818 237.2 
z
" style="fill:#00bfff;"/>
   </g>
   <g id="patch_97">
    <path clip-path="url(#pbc8b3b6473)" d="M 376.96 237.2 
L 380.618182 237.2 
L 380.618182 236.574824 
L 376.96 236.574824 
z
" style="fill:#00bfff;"/>
   </g>
   <g id="patch_98">
    <path clip-path="url(#pbc8b3b6473)" d="M 380.618182 237.2 
L 384.276364 237.2 
L 384.276364 235.949649 
L 380.618182 235.949649 
z
" style="fill:#00bfff;"/>
   </g>
   <g id="patch_99">
    <path clip-path="url(#pbc8b3b6473)" d="M 384.276364 237.2 
L 387.934545 237.2 
L 387.934545 236.574824 
L 384.276364 236.574824 
z
" style="fill:#00bfff;"/>
   </g>
   <g id="patch_100">
    <path clip-path="url(#pbc8b3b6473)" d="M 387.934545 237.2 
L 391.592727 237.2 
L 391.592727 237.2 
L 387.934545 237.2 
z
" style="fill:#00bfff;"/>
   </g>
   <g id="patch_101">
    <path clip-path="url(#pbc8b3b6473)" d="M 391.592727 237.2 
L 395.250909 237.2 
L 395.250909 237.2 
L 391.592727 237.2 
z
" style="fill:#00bfff;"/>
   </g>
   <g id="patch_102">
    <path clip-path="url(#pbc8b3b6473)" d="M 395.250909 237.2 
L 398.909091 237.2 
L 398.909091 236.574824 
L 395.250909 236.574824 
z
" style="fill:#00bfff;"/>
   </g>
   <g id="matplotlib.axis_1">
    <g id="xtick_1">
     <g id="line2d_1">
      <defs>
       <path d="M 0 0 
L 0 4 
" id="mdb41eefbc6" style="stroke:#222222;"/>
      </defs>
      <g>
       <use style="fill:#222222;stroke:#222222;" x="60.60928" xlink:href="#mdb41eefbc6" y="237.2"/>
      </g>
     </g>
     <g id="text_1">
      <!-- −1000 -->
      <defs>
       <path d="M 10.59375 35.5 
L 73.1875 35.5 
L 73.1875 27.203125 
L 10.59375 27.203125 
z
" id="DejaVuSans-2212"/>
       <path d="M 12.40625 8.296875 
L 28.515625 8.296875 
L 28.515625 63.921875 
L 10.984375 60.40625 
L 10.984375 69.390625 
L 28.421875 72.90625 
L 38.28125 72.90625 
L 38.28125 8.296875 
L 54.390625 8.296875 
L 54.390625 0 
L 12.40625 0 
z
" id="DejaVuSans-31"/>
       <path d="M 31.78125 66.40625 
Q 24.171875 66.40625 20.328125 58.90625 
Q 16.5 51.421875 16.5 36.375 
Q 16.5 21.390625 20.328125 13.890625 
Q 24.171875 6.390625 31.78125 6.390625 
Q 39.453125 6.390625 43.28125 13.890625 
Q 47.125 21.390625 47.125 36.375 
Q 47.125 51.421875 43.28125 58.90625 
Q 39.453125 66.40625 31.78125 66.40625 
z
M 31.78125 74.21875 
Q 44.046875 74.21875 50.515625 64.515625 
Q 56.984375 54.828125 56.984375 36.375 
Q 56.984375 17.96875 50.515625 8.265625 
Q 44.046875 -1.421875 31.78125 -1.421875 
Q 19.53125 -1.421875 13.0625 8.265625 
Q 6.59375 17.96875 6.59375 36.375 
Q 6.59375 54.828125 13.0625 64.515625 
Q 19.53125 74.21875 31.78125 74.21875 
z
" id="DejaVuSans-30"/>
      </defs>
      <g style="fill:#222222;" transform="translate(38.619983 255.077969)scale(0.13 -0.13)">
       <use xlink:href="#DejaVuSans-2212"/>
       <use x="83.789062" xlink:href="#DejaVuSans-31"/>
       <use x="147.412109" xlink:href="#DejaVuSans-30"/>
       <use x="211.035156" xlink:href="#DejaVuSans-30"/>
       <use x="274.658203" xlink:href="#DejaVuSans-30"/>
      </g>
     </g>
    </g>
    <g id="xtick_2">
     <g id="line2d_2">
      <g>
       <use style="fill:#222222;stroke:#222222;" x="139.954863" xlink:href="#mdb41eefbc6" y="237.2"/>
      </g>
     </g>
     <g id="text_2">
      <!-- −500 -->
      <defs>
       <path d="M 10.796875 72.90625 
L 49.515625 72.90625 
L 49.515625 64.59375 
L 19.828125 64.59375 
L 19.828125 46.734375 
Q 21.96875 47.46875 24.109375 47.828125 
Q 26.265625 48.1875 28.421875 48.1875 
Q 40.625 48.1875 47.75 41.5 
Q 54.890625 34.8125 54.890625 23.390625 
Q 54.890625 11.625 47.5625 5.09375 
Q 40.234375 -1.421875 26.90625 -1.421875 
Q 22.3125 -1.421875 17.546875 -0.640625 
Q 12.796875 0.140625 7.71875 1.703125 
L 7.71875 11.625 
Q 12.109375 9.234375 16.796875 8.0625 
Q 21.484375 6.890625 26.703125 6.890625 
Q 35.15625 6.890625 40.078125 11.328125 
Q 45.015625 15.765625 45.015625 23.390625 
Q 45.015625 31 40.078125 35.4375 
Q 35.15625 39.890625 26.703125 39.890625 
Q 22.75 39.890625 18.8125 39.015625 
Q 14.890625 38.140625 10.796875 36.28125 
z
" id="DejaVuSans-35"/>
      </defs>
      <g style="fill:#222222;" transform="translate(122.101191 255.077969)scale(0.13 -0.13)">
       <use xlink:href="#DejaVuSans-2212"/>
       <use x="83.789062" xlink:href="#DejaVuSans-35"/>
       <use x="147.412109" xlink:href="#DejaVuSans-30"/>
       <use x="211.035156" xlink:href="#DejaVuSans-30"/>
      </g>
     </g>
    </g>
    <g id="xtick_3">
     <g id="line2d_3">
      <g>
       <use style="fill:#222222;stroke:#222222;" x="219.300446" xlink:href="#mdb41eefbc6" y="237.2"/>
      </g>
     </g>
     <g id="text_3">
      <!-- 0 -->
      <g style="fill:#222222;" transform="translate(215.164821 255.077969)scale(0.13 -0.13)">
       <use xlink:href="#DejaVuSans-30"/>
      </g>
     </g>
    </g>
    <g id="xtick_4">
     <g id="line2d_4">
      <g>
       <use style="fill:#222222;stroke:#222222;" x="298.646029" xlink:href="#mdb41eefbc6" y="237.2"/>
      </g>
     </g>
     <g id="text_4">
      <!-- 500 -->
      <g style="fill:#222222;" transform="translate(286.239154 255.077969)scale(0.13 -0.13)">
       <use xlink:href="#DejaVuSans-35"/>
       <use x="63.623047" xlink:href="#DejaVuSans-30"/>
       <use x="127.246094" xlink:href="#DejaVuSans-30"/>
      </g>
     </g>
    </g>
    <g id="xtick_5">
     <g id="line2d_5">
      <g>
       <use style="fill:#222222;stroke:#222222;" x="377.991612" xlink:href="#mdb41eefbc6" y="237.2"/>
      </g>
     </g>
     <g id="text_5">
      <!-- 1000 -->
      <g style="fill:#222222;" transform="translate(361.449112 255.077969)scale(0.13 -0.13)">
       <use xlink:href="#DejaVuSans-31"/>
       <use x="63.623047" xlink:href="#DejaVuSans-30"/>
       <use x="127.246094" xlink:href="#DejaVuSans-30"/>
       <use x="190.869141" xlink:href="#DejaVuSans-30"/>
      </g>
     </g>
    </g>
    <g id="text_6">
     <!-- Statistic of interest -->
     <defs>
      <path d="M 53.515625 70.515625 
L 53.515625 60.890625 
Q 47.90625 63.578125 42.921875 64.890625 
Q 37.9375 66.21875 33.296875 66.21875 
Q 25.25 66.21875 20.875 63.09375 
Q 16.5 59.96875 16.5 54.203125 
Q 16.5 49.359375 19.40625 46.890625 
Q 22.3125 44.4375 30.421875 42.921875 
L 36.375 41.703125 
Q 47.40625 39.59375 52.65625 34.296875 
Q 57.90625 29 57.90625 20.125 
Q 57.90625 9.515625 50.796875 4.046875 
Q 43.703125 -1.421875 29.984375 -1.421875 
Q 24.8125 -1.421875 18.96875 -0.25 
Q 13.140625 0.921875 6.890625 3.21875 
L 6.890625 13.375 
Q 12.890625 10.015625 18.65625 8.296875 
Q 24.421875 6.59375 29.984375 6.59375 
Q 38.421875 6.59375 43.015625 9.90625 
Q 47.609375 13.234375 47.609375 19.390625 
Q 47.609375 24.75 44.3125 27.78125 
Q 41.015625 30.8125 33.5 32.328125 
L 27.484375 33.5 
Q 16.453125 35.6875 11.515625 40.375 
Q 6.59375 45.0625 6.59375 53.421875 
Q 6.59375 63.09375 13.40625 68.65625 
Q 20.21875 74.21875 32.171875 74.21875 
Q 37.3125 74.21875 42.625 73.28125 
Q 47.953125 72.359375 53.515625 70.515625 
z
" id="DejaVuSans-53"/>
      <path d="M 18.3125 70.21875 
L 18.3125 54.6875 
L 36.8125 54.6875 
L 36.8125 47.703125 
L 18.3125 47.703125 
L 18.3125 18.015625 
Q 18.3125 11.328125 20.140625 9.421875 
Q 21.96875 7.515625 27.59375 7.515625 
L 36.8125 7.515625 
L 36.8125 0 
L 27.59375 0 
Q 17.1875 0 13.234375 3.875 
Q 9.28125 7.765625 9.28125 18.015625 
L 9.28125 47.703125 
L 2.6875 47.703125 
L 2.6875 54.6875 
L 9.28125 54.6875 
L 9.28125 70.21875 
z
" id="DejaVuSans-74"/>
      <path d="M 34.28125 27.484375 
Q 23.390625 27.484375 19.1875 25 
Q 14.984375 22.515625 14.984375 16.5 
Q 14.984375 11.71875 18.140625 8.90625 
Q 21.296875 6.109375 26.703125 6.109375 
Q 34.1875 6.109375 38.703125 11.40625 
Q 43.21875 16.703125 43.21875 25.484375 
L 43.21875 27.484375 
z
M 52.203125 31.203125 
L 52.203125 0 
L 43.21875 0 
L 43.21875 8.296875 
Q 40.140625 3.328125 35.546875 0.953125 
Q 30.953125 -1.421875 24.3125 -1.421875 
Q 15.921875 -1.421875 10.953125 3.296875 
Q 6 8.015625 6 15.921875 
Q 6 25.140625 12.171875 29.828125 
Q 18.359375 34.515625 30.609375 34.515625 
L 43.21875 34.515625 
L 43.21875 35.40625 
Q 43.21875 41.609375 39.140625 45 
Q 35.0625 48.390625 27.6875 48.390625 
Q 23 48.390625 18.546875 47.265625 
Q 14.109375 46.140625 10.015625 43.890625 
L 10.015625 52.203125 
Q 14.9375 54.109375 19.578125 55.046875 
Q 24.21875 56 28.609375 56 
Q 40.484375 56 46.34375 49.84375 
Q 52.203125 43.703125 52.203125 31.203125 
z
" id="DejaVuSans-61"/>
      <path d="M 9.421875 54.6875 
L 18.40625 54.6875 
L 18.40625 0 
L 9.421875 0 
z
M 9.421875 75.984375 
L 18.40625 75.984375 
L 18.40625 64.59375 
L 9.421875 64.59375 
z
" id="DejaVuSans-69"/>
      <path d="M 44.28125 53.078125 
L 44.28125 44.578125 
Q 40.484375 46.53125 36.375 47.5 
Q 32.28125 48.484375 27.875 48.484375 
Q 21.1875 48.484375 17.84375 46.4375 
Q 14.5 44.390625 14.5 40.28125 
Q 14.5 37.15625 16.890625 35.375 
Q 19.28125 33.59375 26.515625 31.984375 
L 29.59375 31.296875 
Q 39.15625 29.25 43.1875 25.515625 
Q 47.21875 21.78125 47.21875 15.09375 
Q 47.21875 7.46875 41.1875 3.015625 
Q 35.15625 -1.421875 24.609375 -1.421875 
Q 20.21875 -1.421875 15.453125 -0.5625 
Q 10.6875 0.296875 5.421875 2 
L 5.421875 11.28125 
Q 10.40625 8.6875 15.234375 7.390625 
Q 20.0625 6.109375 24.8125 6.109375 
Q 31.15625 6.109375 34.5625 8.28125 
Q 37.984375 10.453125 37.984375 14.40625 
Q 37.984375 18.0625 35.515625 20.015625 
Q 33.0625 21.96875 24.703125 23.78125 
L 21.578125 24.515625 
Q 13.234375 26.265625 9.515625 29.90625 
Q 5.8125 33.546875 5.8125 39.890625 
Q 5.8125 47.609375 11.28125 51.796875 
Q 16.75 56 26.8125 56 
Q 31.78125 56 36.171875 55.265625 
Q 40.578125 54.546875 44.28125 53.078125 
z
" id="DejaVuSans-73"/>
      <path d="M 48.78125 52.59375 
L 48.78125 44.1875 
Q 44.96875 46.296875 41.140625 47.34375 
Q 37.3125 48.390625 33.40625 48.390625 
Q 24.65625 48.390625 19.8125 42.84375 
Q 14.984375 37.3125 14.984375 27.296875 
Q 14.984375 17.28125 19.8125 11.734375 
Q 24.65625 6.203125 33.40625 6.203125 
Q 37.3125 6.203125 41.140625 7.25 
Q 44.96875 8.296875 48.78125 10.40625 
L 48.78125 2.09375 
Q 45.015625 0.34375 40.984375 -0.53125 
Q 36.96875 -1.421875 32.421875 -1.421875 
Q 20.0625 -1.421875 12.78125 6.34375 
Q 5.515625 14.109375 5.515625 27.296875 
Q 5.515625 40.671875 12.859375 48.328125 
Q 20.21875 56 33.015625 56 
Q 37.15625 56 41.109375 55.140625 
Q 45.0625 54.296875 48.78125 52.59375 
z
" id="DejaVuSans-63"/>
      <path id="DejaVuSans-20"/>
      <path d="M 30.609375 48.390625 
Q 23.390625 48.390625 19.1875 42.75 
Q 14.984375 37.109375 14.984375 27.296875 
Q 14.984375 17.484375 19.15625 11.84375 
Q 23.34375 6.203125 30.609375 6.203125 
Q 37.796875 6.203125 41.984375 11.859375 
Q 46.1875 17.53125 46.1875 27.296875 
Q 46.1875 37.015625 41.984375 42.703125 
Q 37.796875 48.390625 30.609375 48.390625 
z
M 30.609375 56 
Q 42.328125 56 49.015625 48.375 
Q 55.71875 40.765625 55.71875 27.296875 
Q 55.71875 13.875 49.015625 6.21875 
Q 42.328125 -1.421875 30.609375 -1.421875 
Q 18.84375 -1.421875 12.171875 6.21875 
Q 5.515625 13.875 5.515625 27.296875 
Q 5.515625 40.765625 12.171875 48.375 
Q 18.84375 56 30.609375 56 
z
" id="DejaVuSans-6f"/>
      <path d="M 37.109375 75.984375 
L 37.109375 68.5 
L 28.515625 68.5 
Q 23.6875 68.5 21.796875 66.546875 
Q 19.921875 64.59375 19.921875 59.515625 
L 19.921875 54.6875 
L 34.71875 54.6875 
L 34.71875 47.703125 
L 19.921875 47.703125 
L 19.921875 0 
L 10.890625 0 
L 10.890625 47.703125 
L 2.296875 47.703125 
L 2.296875 54.6875 
L 10.890625 54.6875 
L 10.890625 58.5 
Q 10.890625 67.625 15.140625 71.796875 
Q 19.390625 75.984375 28.609375 75.984375 
z
" id="DejaVuSans-66"/>
      <path d="M 54.890625 33.015625 
L 54.890625 0 
L 45.90625 0 
L 45.90625 32.71875 
Q 45.90625 40.484375 42.875 44.328125 
Q 39.84375 48.1875 33.796875 48.1875 
Q 26.515625 48.1875 22.3125 43.546875 
Q 18.109375 38.921875 18.109375 30.90625 
L 18.109375 0 
L 9.078125 0 
L 9.078125 54.6875 
L 18.109375 54.6875 
L 18.109375 46.1875 
Q 21.34375 51.125 25.703125 53.5625 
Q 30.078125 56 35.796875 56 
Q 45.21875 56 50.046875 50.171875 
Q 54.890625 44.34375 54.890625 33.015625 
z
" id="DejaVuSans-6e"/>
      <path d="M 56.203125 29.59375 
L 56.203125 25.203125 
L 14.890625 25.203125 
Q 15.484375 15.921875 20.484375 11.0625 
Q 25.484375 6.203125 34.421875 6.203125 
Q 39.59375 6.203125 44.453125 7.46875 
Q 49.3125 8.734375 54.109375 11.28125 
L 54.109375 2.78125 
Q 49.265625 0.734375 44.1875 -0.34375 
Q 39.109375 -1.421875 33.890625 -1.421875 
Q 20.796875 -1.421875 13.15625 6.1875 
Q 5.515625 13.8125 5.515625 26.8125 
Q 5.515625 40.234375 12.765625 48.109375 
Q 20.015625 56 32.328125 56 
Q 43.359375 56 49.78125 48.890625 
Q 56.203125 41.796875 56.203125 29.59375 
z
M 47.21875 32.234375 
Q 47.125 39.59375 43.09375 43.984375 
Q 39.0625 48.390625 32.421875 48.390625 
Q 24.90625 48.390625 20.390625 44.140625 
Q 15.875 39.890625 15.1875 32.171875 
z
" id="DejaVuSans-65"/>
      <path d="M 41.109375 46.296875 
Q 39.59375 47.171875 37.8125 47.578125 
Q 36.03125 48 33.890625 48 
Q 26.265625 48 22.1875 43.046875 
Q 18.109375 38.09375 18.109375 28.8125 
L 18.109375 0 
L 9.078125 0 
L 9.078125 54.6875 
L 18.109375 54.6875 
L 18.109375 46.1875 
Q 20.953125 51.171875 25.484375 53.578125 
Q 30.03125 56 36.53125 56 
Q 37.453125 56 38.578125 55.875 
Q 39.703125 55.765625 41.0625 55.515625 
z
" id="DejaVuSans-72"/>
     </defs>
     <g style="fill:#222222;" transform="translate(139.93875 273.939062)scale(0.16 -0.16)">
      <use xlink:href="#DejaVuSans-53"/>
      <use x="63.476562" xlink:href="#DejaVuSans-74"/>
      <use x="102.685547" xlink:href="#DejaVuSans-61"/>
      <use x="163.964844" xlink:href="#DejaVuSans-74"/>
      <use x="203.173828" xlink:href="#DejaVuSans-69"/>
      <use x="230.957031" xlink:href="#DejaVuSans-73"/>
      <use x="283.056641" xlink:href="#DejaVuSans-74"/>
      <use x="322.265625" xlink:href="#DejaVuSans-69"/>
      <use x="350.048828" xlink:href="#DejaVuSans-63"/>
      <use x="405.029297" xlink:href="#DejaVuSans-20"/>
      <use x="436.816406" xlink:href="#DejaVuSans-6f"/>
      <use x="497.998047" xlink:href="#DejaVuSans-66"/>
      <use x="533.203125" xlink:href="#DejaVuSans-20"/>
      <use x="564.990234" xlink:href="#DejaVuSans-69"/>
      <use x="592.773438" xlink:href="#DejaVuSans-6e"/>
      <use x="656.152344" xlink:href="#DejaVuSans-74"/>
      <use x="695.361328" xlink:href="#DejaVuSans-65"/>
      <use x="756.884766" xlink:href="#DejaVuSans-72"/>
      <use x="797.966797" xlink:href="#DejaVuSans-65"/>
      <use x="859.490234" xlink:href="#DejaVuSans-73"/>
      <use x="911.589844" xlink:href="#DejaVuSans-74"/>
     </g>
    </g>
   </g>
   <g id="matplotlib.axis_2"/>
   <g id="patch_103">
    <path d="M 14.8 237.2 
L 417.2 237.2 
" style="fill:none;stroke:#222222;stroke-linecap:square;stroke-linejoin:miter;"/>
   </g>
  </g>
  <g id="axes_2">
   <g id="matplotlib.axis_3"/>
   <g id="line2d_6">
    <path clip-path="url(#pbc8b3b6473)" d="M 263.457585 237.2 
L 263.457585 37.04 
" style="fill:none;stroke:#fbc15e;stroke-linecap:square;stroke-width:1.5;"/>
   </g>
   <g id="line2d_7">
    <path clip-path="url(#pbc8b3b6473)" d="M 175.143306 237.2 
L 175.143306 14.8 
" style="fill:none;stroke:#fbc15e;stroke-dasharray:5.55,2.4;stroke-dashoffset:0;stroke-width:1.5;"/>
   </g>
   <g id="patch_104">
    <path d="M 14.8 237.2 
L 417.2 237.2 
" style="fill:none;stroke:#222222;stroke-linecap:square;stroke-linejoin:miter;"/>
   </g>
   <g id="text_7">
    <!-- Observed statistic -->
    <defs>
     <path d="M 39.40625 66.21875 
Q 28.65625 66.21875 22.328125 58.203125 
Q 16.015625 50.203125 16.015625 36.375 
Q 16.015625 22.609375 22.328125 14.59375 
Q 28.65625 6.59375 39.40625 6.59375 
Q 50.140625 6.59375 56.421875 14.59375 
Q 62.703125 22.609375 62.703125 36.375 
Q 62.703125 50.203125 56.421875 58.203125 
Q 50.140625 66.21875 39.40625 66.21875 
z
M 39.40625 74.21875 
Q 54.734375 74.21875 63.90625 63.9375 
Q 73.09375 53.65625 73.09375 36.375 
Q 73.09375 19.140625 63.90625 8.859375 
Q 54.734375 -1.421875 39.40625 -1.421875 
Q 24.03125 -1.421875 14.8125 8.828125 
Q 5.609375 19.09375 5.609375 36.375 
Q 5.609375 53.65625 14.8125 63.9375 
Q 24.03125 74.21875 39.40625 74.21875 
z
" id="DejaVuSans-4f"/>
     <path d="M 48.6875 27.296875 
Q 48.6875 37.203125 44.609375 42.84375 
Q 40.53125 48.484375 33.40625 48.484375 
Q 26.265625 48.484375 22.1875 42.84375 
Q 18.109375 37.203125 18.109375 27.296875 
Q 18.109375 17.390625 22.1875 11.75 
Q 26.265625 6.109375 33.40625 6.109375 
Q 40.53125 6.109375 44.609375 11.75 
Q 48.6875 17.390625 48.6875 27.296875 
z
M 18.109375 46.390625 
Q 20.953125 51.265625 25.265625 53.625 
Q 29.59375 56 35.59375 56 
Q 45.5625 56 51.78125 48.09375 
Q 58.015625 40.1875 58.015625 27.296875 
Q 58.015625 14.40625 51.78125 6.484375 
Q 45.5625 -1.421875 35.59375 -1.421875 
Q 29.59375 -1.421875 25.265625 0.953125 
Q 20.953125 3.328125 18.109375 8.203125 
L 18.109375 0 
L 9.078125 0 
L 9.078125 75.984375 
L 18.109375 75.984375 
z
" id="DejaVuSans-62"/>
     <path d="M 2.984375 54.6875 
L 12.5 54.6875 
L 29.59375 8.796875 
L 46.6875 54.6875 
L 56.203125 54.6875 
L 35.6875 0 
L 23.484375 0 
z
" id="DejaVuSans-76"/>
     <path d="M 45.40625 46.390625 
L 45.40625 75.984375 
L 54.390625 75.984375 
L 54.390625 0 
L 45.40625 0 
L 45.40625 8.203125 
Q 42.578125 3.328125 38.25 0.953125 
Q 33.9375 -1.421875 27.875 -1.421875 
Q 17.96875 -1.421875 11.734375 6.484375 
Q 5.515625 14.40625 5.515625 27.296875 
Q 5.515625 40.1875 11.734375 48.09375 
Q 17.96875 56 27.875 56 
Q 33.9375 56 38.25 53.625 
Q 42.578125 51.265625 45.40625 46.390625 
z
M 14.796875 27.296875 
Q 14.796875 17.390625 18.875 11.75 
Q 22.953125 6.109375 30.078125 6.109375 
Q 37.203125 6.109375 41.296875 11.75 
Q 45.40625 17.390625 45.40625 27.296875 
Q 45.40625 37.203125 41.296875 42.84375 
Q 37.203125 48.484375 30.078125 48.484375 
Q 22.953125 48.484375 18.875 42.84375 
Q 14.796875 37.203125 14.796875 27.296875 
z
" id="DejaVuSans-64"/>
    </defs>
    <g style="fill:#fbc15e;" transform="translate(263.457585 10.243062)scale(0.14 -0.14)">
     <use xlink:href="#DejaVuSans-4f"/>
     <use x="78.710938" xlink:href="#DejaVuSans-62"/>
     <use x="142.1875" xlink:href="#DejaVuSans-73"/>
     <use x="194.287109" xlink:href="#DejaVuSans-65"/>
     <use x="255.810547" xlink:href="#DejaVuSans-72"/>
     <use x="296.923828" xlink:href="#DejaVuSans-76"/>
     <use x="356.103516" xlink:href="#DejaVuSans-65"/>
     <use x="417.626953" xlink:href="#DejaVuSans-64"/>
     <use x="481.103516" xlink:href="#DejaVuSans-20"/>
     <use x="512.890625" xlink:href="#DejaVuSans-73"/>
     <use x="564.990234" xlink:href="#DejaVuSans-74"/>
     <use x="604.199219" xlink:href="#DejaVuSans-61"/>
     <use x="665.478516" xlink:href="#DejaVuSans-74"/>
     <use x="704.6875" xlink:href="#DejaVuSans-69"/>
     <use x="732.470703" xlink:href="#DejaVuSans-73"/>
     <use x="784.570312" xlink:href="#DejaVuSans-74"/>
     <use x="823.779297" xlink:href="#DejaVuSans-69"/>
     <use x="851.5625" xlink:href="#DejaVuSans-63"/>
    </g>
    <!-- d=278.258 -->
    <defs>
     <path d="M 10.59375 45.40625 
L 73.1875 45.40625 
L 73.1875 37.203125 
L 10.59375 37.203125 
z
M 10.59375 25.484375 
L 73.1875 25.484375 
L 73.1875 17.1875 
L 10.59375 17.1875 
z
" id="DejaVuSans-3d"/>
     <path d="M 19.1875 8.296875 
L 53.609375 8.296875 
L 53.609375 0 
L 7.328125 0 
L 7.328125 8.296875 
Q 12.9375 14.109375 22.625 23.890625 
Q 32.328125 33.6875 34.8125 36.53125 
Q 39.546875 41.84375 41.421875 45.53125 
Q 43.3125 49.21875 43.3125 52.78125 
Q 43.3125 58.59375 39.234375 62.25 
Q 35.15625 65.921875 28.609375 65.921875 
Q 23.96875 65.921875 18.8125 64.3125 
Q 13.671875 62.703125 7.8125 59.421875 
L 7.8125 69.390625 
Q 13.765625 71.78125 18.9375 73 
Q 24.125 74.21875 28.421875 74.21875 
Q 39.75 74.21875 46.484375 68.546875 
Q 53.21875 62.890625 53.21875 53.421875 
Q 53.21875 48.921875 51.53125 44.890625 
Q 49.859375 40.875 45.40625 35.40625 
Q 44.1875 33.984375 37.640625 27.21875 
Q 31.109375 20.453125 19.1875 8.296875 
z
" id="DejaVuSans-32"/>
     <path d="M 8.203125 72.90625 
L 55.078125 72.90625 
L 55.078125 68.703125 
L 28.609375 0 
L 18.3125 0 
L 43.21875 64.59375 
L 8.203125 64.59375 
z
" id="DejaVuSans-37"/>
     <path d="M 31.78125 34.625 
Q 24.75 34.625 20.71875 30.859375 
Q 16.703125 27.09375 16.703125 20.515625 
Q 16.703125 13.921875 20.71875 10.15625 
Q 24.75 6.390625 31.78125 6.390625 
Q 38.8125 6.390625 42.859375 10.171875 
Q 46.921875 13.96875 46.921875 20.515625 
Q 46.921875 27.09375 42.890625 30.859375 
Q 38.875 34.625 31.78125 34.625 
z
M 21.921875 38.8125 
Q 15.578125 40.375 12.03125 44.71875 
Q 8.5 49.078125 8.5 55.328125 
Q 8.5 64.0625 14.71875 69.140625 
Q 20.953125 74.21875 31.78125 74.21875 
Q 42.671875 74.21875 48.875 69.140625 
Q 55.078125 64.0625 55.078125 55.328125 
Q 55.078125 49.078125 51.53125 44.71875 
Q 48 40.375 41.703125 38.8125 
Q 48.828125 37.15625 52.796875 32.3125 
Q 56.78125 27.484375 56.78125 20.515625 
Q 56.78125 9.90625 50.3125 4.234375 
Q 43.84375 -1.421875 31.78125 -1.421875 
Q 19.734375 -1.421875 13.25 4.234375 
Q 6.78125 9.90625 6.78125 20.515625 
Q 6.78125 27.484375 10.78125 32.3125 
Q 14.796875 37.15625 21.921875 38.8125 
z
M 18.3125 54.390625 
Q 18.3125 48.734375 21.84375 45.5625 
Q 25.390625 42.390625 31.78125 42.390625 
Q 38.140625 42.390625 41.71875 45.5625 
Q 45.3125 48.734375 45.3125 54.390625 
Q 45.3125 60.0625 41.71875 63.234375 
Q 38.140625 66.40625 31.78125 66.40625 
Q 25.390625 66.40625 21.84375 63.234375 
Q 18.3125 60.0625 18.3125 54.390625 
z
" id="DejaVuSans-38"/>
     <path d="M 10.6875 12.40625 
L 21 12.40625 
L 21 0 
L 10.6875 0 
z
" id="DejaVuSans-2e"/>
    </defs>
    <g style="fill:#fbc15e;" transform="translate(263.457585 25.92)scale(0.14 -0.14)">
     <use xlink:href="#DejaVuSans-64"/>
     <use x="63.476562" xlink:href="#DejaVuSans-3d"/>
     <use x="147.265625" xlink:href="#DejaVuSans-32"/>
     <use x="210.888672" xlink:href="#DejaVuSans-37"/>
     <use x="274.511719" xlink:href="#DejaVuSans-38"/>
     <use x="338.134766" xlink:href="#DejaVuSans-2e"/>
     <use x="369.921875" xlink:href="#DejaVuSans-32"/>
     <use x="433.544922" xlink:href="#DejaVuSans-35"/>
     <use x="497.167969" xlink:href="#DejaVuSans-38"/>
    </g>
   </g>
  </g>
  <g id="axes_3">
   <g id="matplotlib.axis_4"/>
   <g id="patch_105">
    <path d="M 14.8 237.2 
L 417.2 237.2 
" style="fill:none;stroke:#222222;stroke-linecap:square;stroke-linejoin:miter;"/>
   </g>
   <g id="text_8">
    <!-- &gt;=278.258 -->
    <defs>
     <path d="M 10.59375 49.21875 
L 10.59375 58.109375 
L 73.1875 35.40625 
L 73.1875 27.296875 
L 10.59375 4.59375 
L 10.59375 13.484375 
L 60.890625 31.296875 
z
" id="DejaVuSans-3e"/>
    </defs>
    <g transform="translate(276.152878 110.323062)scale(0.14 -0.14)">
     <use xlink:href="#DejaVuSans-3e"/>
     <use x="83.789062" xlink:href="#DejaVuSans-3d"/>
     <use x="167.578125" xlink:href="#DejaVuSans-32"/>
     <use x="231.201172" xlink:href="#DejaVuSans-37"/>
     <use x="294.824219" xlink:href="#DejaVuSans-38"/>
     <use x="358.447266" xlink:href="#DejaVuSans-2e"/>
     <use x="390.234375" xlink:href="#DejaVuSans-32"/>
     <use x="453.857422" xlink:href="#DejaVuSans-35"/>
     <use x="517.480469" xlink:href="#DejaVuSans-38"/>
    </g>
    <!-- 1485 simulations -->
    <defs>
     <path d="M 37.796875 64.3125 
L 12.890625 25.390625 
L 37.796875 25.390625 
z
M 35.203125 72.90625 
L 47.609375 72.90625 
L 47.609375 25.390625 
L 58.015625 25.390625 
L 58.015625 17.1875 
L 47.609375 17.1875 
L 47.609375 0 
L 37.796875 0 
L 37.796875 17.1875 
L 4.890625 17.1875 
L 4.890625 26.703125 
z
" id="DejaVuSans-34"/>
     <path d="M 52 44.1875 
Q 55.375 50.25 60.0625 53.125 
Q 64.75 56 71.09375 56 
Q 79.640625 56 84.28125 50.015625 
Q 88.921875 44.046875 88.921875 33.015625 
L 88.921875 0 
L 79.890625 0 
L 79.890625 32.71875 
Q 79.890625 40.578125 77.09375 44.375 
Q 74.3125 48.1875 68.609375 48.1875 
Q 61.625 48.1875 57.5625 43.546875 
Q 53.515625 38.921875 53.515625 30.90625 
L 53.515625 0 
L 44.484375 0 
L 44.484375 32.71875 
Q 44.484375 40.625 41.703125 44.40625 
Q 38.921875 48.1875 33.109375 48.1875 
Q 26.21875 48.1875 22.15625 43.53125 
Q 18.109375 38.875 18.109375 30.90625 
L 18.109375 0 
L 9.078125 0 
L 9.078125 54.6875 
L 18.109375 54.6875 
L 18.109375 46.1875 
Q 21.1875 51.21875 25.484375 53.609375 
Q 29.78125 56 35.6875 56 
Q 41.65625 56 45.828125 52.96875 
Q 50 49.953125 52 44.1875 
z
" id="DejaVuSans-6d"/>
     <path d="M 8.5 21.578125 
L 8.5 54.6875 
L 17.484375 54.6875 
L 17.484375 21.921875 
Q 17.484375 14.15625 20.5 10.265625 
Q 23.53125 6.390625 29.59375 6.390625 
Q 36.859375 6.390625 41.078125 11.03125 
Q 45.3125 15.671875 45.3125 23.6875 
L 45.3125 54.6875 
L 54.296875 54.6875 
L 54.296875 0 
L 45.3125 0 
L 45.3125 8.40625 
Q 42.046875 3.421875 37.71875 1 
Q 33.40625 -1.421875 27.6875 -1.421875 
Q 18.265625 -1.421875 13.375 4.4375 
Q 8.5 10.296875 8.5 21.578125 
z
M 31.109375 56 
z
" id="DejaVuSans-75"/>
     <path d="M 9.421875 75.984375 
L 18.40625 75.984375 
L 18.40625 0 
L 9.421875 0 
z
" id="DejaVuSans-6c"/>
    </defs>
    <g transform="translate(276.152878 126)scale(0.14 -0.14)">
     <use xlink:href="#DejaVuSans-31"/>
     <use x="63.623047" xlink:href="#DejaVuSans-34"/>
     <use x="127.246094" xlink:href="#DejaVuSans-38"/>
     <use x="190.869141" xlink:href="#DejaVuSans-35"/>
     <use x="254.492188" xlink:href="#DejaVuSans-20"/>
     <use x="286.279297" xlink:href="#DejaVuSans-73"/>
     <use x="338.378906" xlink:href="#DejaVuSans-69"/>
     <use x="366.162109" xlink:href="#DejaVuSans-6d"/>
     <use x="463.574219" xlink:href="#DejaVuSans-75"/>
     <use x="526.953125" xlink:href="#DejaVuSans-6c"/>
     <use x="554.736328" xlink:href="#DejaVuSans-61"/>
     <use x="616.015625" xlink:href="#DejaVuSans-74"/>
     <use x="655.224609" xlink:href="#DejaVuSans-69"/>
     <use x="683.007812" xlink:href="#DejaVuSans-6f"/>
     <use x="744.189453" xlink:href="#DejaVuSans-6e"/>
     <use x="807.568359" xlink:href="#DejaVuSans-73"/>
    </g>
   </g>
   <g id="text_9">
    <!-- &lt;=-278.258 -->
    <defs>
     <path d="M 73.1875 49.21875 
L 22.796875 31.296875 
L 73.1875 13.484375 
L 73.1875 4.59375 
L 10.59375 27.296875 
L 10.59375 35.40625 
L 73.1875 58.109375 
z
" id="DejaVuSans-3c"/>
     <path d="M 4.890625 31.390625 
L 31.203125 31.390625 
L 31.203125 23.390625 
L 4.890625 23.390625 
z
" id="DejaVuSans-2d"/>
    </defs>
    <g transform="translate(76.039576 110.323062)scale(0.14 -0.14)">
     <use xlink:href="#DejaVuSans-3c"/>
     <use x="83.789062" xlink:href="#DejaVuSans-3d"/>
     <use x="167.578125" xlink:href="#DejaVuSans-2d"/>
     <use x="203.662109" xlink:href="#DejaVuSans-32"/>
     <use x="267.285156" xlink:href="#DejaVuSans-37"/>
     <use x="330.908203" xlink:href="#DejaVuSans-38"/>
     <use x="394.53125" xlink:href="#DejaVuSans-2e"/>
     <use x="426.318359" xlink:href="#DejaVuSans-32"/>
     <use x="489.941406" xlink:href="#DejaVuSans-35"/>
     <use x="553.564453" xlink:href="#DejaVuSans-38"/>
    </g>
    <!-- 2651 simulations -->
    <defs>
     <path d="M 33.015625 40.375 
Q 26.375 40.375 22.484375 35.828125 
Q 18.609375 31.296875 18.609375 23.390625 
Q 18.609375 15.53125 22.484375 10.953125 
Q 26.375 6.390625 33.015625 6.390625 
Q 39.65625 6.390625 43.53125 10.953125 
Q 47.40625 15.53125 47.40625 23.390625 
Q 47.40625 31.296875 43.53125 35.828125 
Q 39.65625 40.375 33.015625 40.375 
z
M 52.59375 71.296875 
L 52.59375 62.3125 
Q 48.875 64.0625 45.09375 64.984375 
Q 41.3125 65.921875 37.59375 65.921875 
Q 27.828125 65.921875 22.671875 59.328125 
Q 17.53125 52.734375 16.796875 39.40625 
Q 19.671875 43.65625 24.015625 45.921875 
Q 28.375 48.1875 33.59375 48.1875 
Q 44.578125 48.1875 50.953125 41.515625 
Q 57.328125 34.859375 57.328125 23.390625 
Q 57.328125 12.15625 50.6875 5.359375 
Q 44.046875 -1.421875 33.015625 -1.421875 
Q 20.359375 -1.421875 13.671875 8.265625 
Q 6.984375 17.96875 6.984375 36.375 
Q 6.984375 53.65625 15.1875 63.9375 
Q 23.390625 74.21875 37.203125 74.21875 
Q 40.921875 74.21875 44.703125 73.484375 
Q 48.484375 72.75 52.59375 71.296875 
z
" id="DejaVuSans-36"/>
    </defs>
    <g transform="translate(42.098326 126)scale(0.14 -0.14)">
     <use xlink:href="#DejaVuSans-32"/>
     <use x="63.623047" xlink:href="#DejaVuSans-36"/>
     <use x="127.246094" xlink:href="#DejaVuSans-35"/>
     <use x="190.869141" xlink:href="#DejaVuSans-31"/>
     <use x="254.492188" xlink:href="#DejaVuSans-20"/>
     <use x="286.279297" xlink:href="#DejaVuSans-73"/>
     <use x="338.378906" xlink:href="#DejaVuSans-69"/>
     <use x="366.162109" xlink:href="#DejaVuSans-6d"/>
     <use x="463.574219" xlink:href="#DejaVuSans-75"/>
     <use x="526.953125" xlink:href="#DejaVuSans-6c"/>
     <use x="554.736328" xlink:href="#DejaVuSans-61"/>
     <use x="616.015625" xlink:href="#DejaVuSans-74"/>
     <use x="655.224609" xlink:href="#DejaVuSans-69"/>
     <use x="683.007812" xlink:href="#DejaVuSans-6f"/>
     <use x="744.189453" xlink:href="#DejaVuSans-6e"/>
     <use x="807.568359" xlink:href="#DejaVuSans-73"/>
    </g>
   </g>
   <g id="text_10">
    <!-- pvalue = 0.4136 -->
    <defs>
     <path d="M 18.109375 8.203125 
L 18.109375 -20.796875 
L 9.078125 -20.796875 
L 9.078125 54.6875 
L 18.109375 54.6875 
L 18.109375 46.390625 
Q 20.953125 51.265625 25.265625 53.625 
Q 29.59375 56 35.59375 56 
Q 45.5625 56 51.78125 48.09375 
Q 58.015625 40.1875 58.015625 27.296875 
Q 58.015625 14.40625 51.78125 6.484375 
Q 45.5625 -1.421875 35.59375 -1.421875 
Q 29.59375 -1.421875 25.265625 0.953125 
Q 20.953125 3.328125 18.109375 8.203125 
z
M 48.6875 27.296875 
Q 48.6875 37.203125 44.609375 42.84375 
Q 40.53125 48.484375 33.40625 48.484375 
Q 26.265625 48.484375 22.1875 42.84375 
Q 18.109375 37.203125 18.109375 27.296875 
Q 18.109375 17.390625 22.1875 11.75 
Q 26.265625 6.109375 33.40625 6.109375 
Q 40.53125 6.109375 44.609375 11.75 
Q 48.6875 17.390625 48.6875 27.296875 
z
" id="DejaVuSans-70"/>
     <path d="M 40.578125 39.3125 
Q 47.65625 37.796875 51.625 33 
Q 55.609375 28.21875 55.609375 21.1875 
Q 55.609375 10.40625 48.1875 4.484375 
Q 40.765625 -1.421875 27.09375 -1.421875 
Q 22.515625 -1.421875 17.65625 -0.515625 
Q 12.796875 0.390625 7.625 2.203125 
L 7.625 11.71875 
Q 11.71875 9.328125 16.59375 8.109375 
Q 21.484375 6.890625 26.8125 6.890625 
Q 36.078125 6.890625 40.9375 10.546875 
Q 45.796875 14.203125 45.796875 21.1875 
Q 45.796875 27.640625 41.28125 31.265625 
Q 36.765625 34.90625 28.71875 34.90625 
L 20.21875 34.90625 
L 20.21875 43.015625 
L 29.109375 43.015625 
Q 36.375 43.015625 40.234375 45.921875 
Q 44.09375 48.828125 44.09375 54.296875 
Q 44.09375 59.90625 40.109375 62.90625 
Q 36.140625 65.921875 28.71875 65.921875 
Q 24.65625 65.921875 20.015625 65.03125 
Q 15.375 64.15625 9.8125 62.3125 
L 9.8125 71.09375 
Q 15.4375 72.65625 20.34375 73.4375 
Q 25.25 74.21875 29.59375 74.21875 
Q 40.828125 74.21875 47.359375 69.109375 
Q 53.90625 64.015625 53.90625 55.328125 
Q 53.90625 49.265625 50.4375 45.09375 
Q 46.96875 40.921875 40.578125 39.3125 
z
" id="DejaVuSans-33"/>
    </defs>
    <g transform="translate(34.92 37.04)scale(0.14 -0.14)">
     <use xlink:href="#DejaVuSans-70"/>
     <use x="63.476562" xlink:href="#DejaVuSans-76"/>
     <use x="122.65625" xlink:href="#DejaVuSans-61"/>
     <use x="183.935547" xlink:href="#DejaVuSans-6c"/>
     <use x="211.71875" xlink:href="#DejaVuSans-75"/>
     <use x="275.097656" xlink:href="#DejaVuSans-65"/>
     <use x="336.621094" xlink:href="#DejaVuSans-20"/>
     <use x="368.408203" xlink:href="#DejaVuSans-3d"/>
     <use x="452.197266" xlink:href="#DejaVuSans-20"/>
     <use x="483.984375" xlink:href="#DejaVuSans-30"/>
     <use x="547.607422" xlink:href="#DejaVuSans-2e"/>
     <use x="579.394531" xlink:href="#DejaVuSans-34"/>
     <use x="643.017578" xlink:href="#DejaVuSans-31"/>
     <use x="706.640625" xlink:href="#DejaVuSans-33"/>
     <use x="770.263672" xlink:href="#DejaVuSans-36"/>
    </g>
   </g>
  </g>
 </g>
 <defs>
  <clipPath id="pbc8b3b6473">
   <rect height="222.4" width="402.4" x="14.8" y="14.8"/>
  </clipPath>
 </defs>
</svg>
