<?xml version="1.0" encoding="utf-8" standalone="no"?>
<!DOCTYPE svg PUBLIC "-//W3C//DTD SVG 1.1//EN"
  "http://www.w3.org/Graphics/SVG/1.1/DTD/svg11.dtd">
<!-- Created with matplotlib (http://matplotlib.org/) -->
<svg height="288pt" version="1.1" viewBox="0 0 432 288" width="432pt" xmlns="http://www.w3.org/2000/svg" xmlns:xlink="http://www.w3.org/1999/xlink">
 <defs>
  <style type="text/css">
*{stroke-linecap:butt;stroke-linejoin:round;}
  </style>
 </defs>
 <g id="figure_1">
  <g id="patch_1">
   <path d="M 0 288 
L 432 288 
L 432 0 
L 0 0 
z
" style="fill:none;"/>
  </g>
  <g id="axes_1">
   <g id="patch_2">
    <path d="M 12.96 244.8 
L 401.76 244.8 
L 401.76 28.8 
L 12.96 28.8 
z
" style="fill:none;"/>
   </g>
   <g id="patch_3">
    <path clip-path="url(#pd094a8120e)" d="M 30.632727 244.8 
L 34.167273 244.8 
L 34.167273 244.311367 
L 30.632727 244.311367 
z
" style="fill:#00bfff;"/>
   </g>
   <g id="patch_4">
    <path clip-path="url(#pd094a8120e)" d="M 34.167273 244.8 
L 37.701818 244.8 
L 37.701818 244.8 
L 34.167273 244.8 
z
" style="fill:#00bfff;"/>
   </g>
   <g id="patch_5">
    <path clip-path="url(#pd094a8120e)" d="M 37.701818 244.8 
L 41.236364 244.8 
L 41.236364 244.311367 
L 37.701818 244.311367 
z
" style="fill:#00bfff;"/>
   </g>
   <g id="patch_6">
    <path clip-path="url(#pd094a8120e)" d="M 41.236364 244.8 
L 44.770909 244.8 
L 44.770909 243.822735 
L 41.236364 243.822735 
z
" style="fill:#00bfff;"/>
   </g>
   <g id="patch_7">
    <path clip-path="url(#pd094a8120e)" d="M 44.770909 244.8 
L 48.305455 244.8 
L 48.305455 243.822735 
L 44.770909 243.822735 
z
" style="fill:#00bfff;"/>
   </g>
   <g id="patch_8">
    <path clip-path="url(#pd094a8120e)" d="M 48.305455 244.8 
L 51.84 244.8 
L 51.84 242.356837 
L 48.305455 242.356837 
z
" style="fill:#00bfff;"/>
   </g>
   <g id="patch_9">
    <path clip-path="url(#pd094a8120e)" d="M 51.84 244.8 
L 55.374545 244.8 
L 55.374545 238.93641 
L 51.84 238.93641 
z
" style="fill:#00bfff;"/>
   </g>
   <g id="patch_10">
    <path clip-path="url(#pd094a8120e)" d="M 55.374545 244.8 
L 58.909091 244.8 
L 58.909091 236.493247 
L 55.374545 236.493247 
z
" style="fill:#00bfff;"/>
   </g>
   <g id="patch_11">
    <path clip-path="url(#pd094a8120e)" d="M 58.909091 244.8 
L 62.443636 244.8 
L 62.443636 227.697862 
L 58.909091 227.697862 
z
" style="fill:#00bfff;"/>
   </g>
   <g id="patch_12">
    <path clip-path="url(#pd094a8120e)" d="M 62.443636 244.8 
L 65.978182 244.8 
L 65.978182 233.561452 
L 62.443636 233.561452 
z
" style="fill:#00bfff;"/>
   </g>
   <g id="patch_13">
    <path clip-path="url(#pd094a8120e)" d="M 65.978182 244.8 
L 69.512727 244.8 
L 69.512727 223.30017 
L 65.978182 223.30017 
z
" style="fill:#00bfff;"/>
   </g>
   <g id="patch_14">
    <path clip-path="url(#pd094a8120e)" d="M 69.512727 244.8 
L 73.047273 244.8 
L 73.047273 212.061622 
L 69.512727 212.061622 
z
" style="fill:#00bfff;"/>
   </g>
   <g id="patch_15">
    <path clip-path="url(#pd094a8120e)" d="M 73.047273 244.8 
L 76.581818 244.8 
L 76.581818 191.050424 
L 73.047273 191.050424 
z
" style="fill:#00bfff;"/>
   </g>
   <g id="patch_16">
    <path clip-path="url(#pd094a8120e)" d="M 76.581818 244.8 
L 80.116364 244.8 
L 80.116364 195.936749 
L 76.581818 195.936749 
z
" style="fill:#00bfff;"/>
   </g>
   <g id="patch_17">
    <path clip-path="url(#pd094a8120e)" d="M 80.116364 244.8 
L 83.650909 244.8 
L 83.650909 172.971021 
L 80.116364 172.971021 
z
" style="fill:#00bfff;"/>
   </g>
   <g id="patch_18">
    <path clip-path="url(#pd094a8120e)" d="M 83.650909 244.8 
L 87.185455 244.8 
L 87.185455 171.505124 
L 83.650909 171.505124 
z
" style="fill:#00bfff;"/>
   </g>
   <g id="patch_19">
    <path clip-path="url(#pd094a8120e)" d="M 87.185455 244.8 
L 90.72 244.8 
L 90.72 147.073498 
L 87.185455 147.073498 
z
" style="fill:#00bfff;"/>
   </g>
   <g id="patch_20">
    <path clip-path="url(#pd094a8120e)" d="M 90.72 244.8 
L 94.254545 244.8 
L 94.254545 125.573668 
L 90.72 125.573668 
z
" style="fill:#00bfff;"/>
   </g>
   <g id="patch_21">
    <path clip-path="url(#pd094a8120e)" d="M 94.254545 244.8 
L 97.789091 244.8 
L 97.789091 127.528198 
L 94.254545 127.528198 
z
" style="fill:#00bfff;"/>
   </g>
   <g id="patch_22">
    <path clip-path="url(#pd094a8120e)" d="M 97.789091 244.8 
L 101.323636 244.8 
L 101.323636 126.062301 
L 97.789091 126.062301 
z
" style="fill:#00bfff;"/>
   </g>
   <g id="patch_23">
    <path clip-path="url(#pd094a8120e)" d="M 101.323636 244.8 
L 104.858182 244.8 
L 104.858182 123.619138 
L 101.323636 123.619138 
z
" style="fill:#00bfff;"/>
   </g>
   <g id="patch_24">
    <path clip-path="url(#pd094a8120e)" d="M 104.858182 244.8 
L 108.392727 244.8 
L 108.392727 85.994435 
L 104.858182 85.994435 
z
" style="fill:#00bfff;"/>
   </g>
   <g id="patch_25">
    <path clip-path="url(#pd094a8120e)" d="M 108.392727 244.8 
L 111.927273 244.8 
L 111.927273 58.142382 
L 108.392727 58.142382 
z
" style="fill:#00bfff;"/>
   </g>
   <g id="patch_26">
    <path clip-path="url(#pd094a8120e)" d="M 111.927273 244.8 
L 115.461818 244.8 
L 115.461818 48.369732 
L 111.927273 48.369732 
z
" style="fill:#00bfff;"/>
   </g>
   <g id="patch_27">
    <path clip-path="url(#pd094a8120e)" d="M 115.461818 244.8 
L 118.996364 244.8 
L 118.996364 39.085714 
L 115.461818 39.085714 
z
" style="fill:#00bfff;"/>
   </g>
   <g id="patch_28">
    <path clip-path="url(#pd094a8120e)" d="M 118.996364 244.8 
L 122.530909 244.8 
L 122.530909 73.28999 
L 118.996364 73.28999 
z
" style="fill:#00bfff;"/>
   </g>
   <g id="patch_29">
    <path clip-path="url(#pd094a8120e)" d="M 122.530909 244.8 
L 126.065455 244.8 
L 126.065455 42.017509 
L 122.530909 42.017509 
z
" style="fill:#00bfff;"/>
   </g>
   <g id="patch_30">
    <path clip-path="url(#pd094a8120e)" d="M 126.065455 244.8 
L 129.6 244.8 
L 129.6 50.324262 
L 126.065455 50.324262 
z
" style="fill:#00bfff;"/>
   </g>
   <g id="patch_31">
    <path clip-path="url(#pd094a8120e)" d="M 129.6 244.8 
L 133.134545 244.8 
L 133.134545 62.540075 
L 129.6 62.540075 
z
" style="fill:#00bfff;"/>
   </g>
   <g id="patch_32">
    <path clip-path="url(#pd094a8120e)" d="M 133.134545 244.8 
L 136.669091 244.8 
L 136.669091 90.88076 
L 133.134545 90.88076 
z
" style="fill:#00bfff;"/>
   </g>
   <g id="patch_33">
    <path clip-path="url(#pd094a8120e)" d="M 136.669091 244.8 
L 140.203636 244.8 
L 140.203636 57.165117 
L 136.669091 57.165117 
z
" style="fill:#00bfff;"/>
   </g>
   <g id="patch_34">
    <path clip-path="url(#pd094a8120e)" d="M 140.203636 244.8 
L 143.738182 244.8 
L 143.738182 55.210587 
L 140.203636 55.210587 
z
" style="fill:#00bfff;"/>
   </g>
   <g id="patch_35">
    <path clip-path="url(#pd094a8120e)" d="M 143.738182 244.8 
L 147.272727 244.8 
L 147.272727 85.994435 
L 143.738182 85.994435 
z
" style="fill:#00bfff;"/>
   </g>
   <g id="patch_36">
    <path clip-path="url(#pd094a8120e)" d="M 147.272727 244.8 
L 150.807273 244.8 
L 150.807273 94.78982 
L 147.272727 94.78982 
z
" style="fill:#00bfff;"/>
   </g>
   <g id="patch_37">
    <path clip-path="url(#pd094a8120e)" d="M 150.807273 244.8 
L 154.341818 244.8 
L 154.341818 108.47153 
L 150.807273 108.47153 
z
" style="fill:#00bfff;"/>
   </g>
   <g id="patch_38">
    <path clip-path="url(#pd094a8120e)" d="M 154.341818 244.8 
L 157.876364 244.8 
L 157.876364 122.153241 
L 154.341818 122.153241 
z
" style="fill:#00bfff;"/>
   </g>
   <g id="patch_39">
    <path clip-path="url(#pd094a8120e)" d="M 157.876364 244.8 
L 161.410909 244.8 
L 161.410909 112.869223 
L 157.876364 112.869223 
z
" style="fill:#00bfff;"/>
   </g>
   <g id="patch_40">
    <path clip-path="url(#pd094a8120e)" d="M 161.410909 244.8 
L 164.945455 244.8 
L 164.945455 132.414523 
L 161.410909 132.414523 
z
" style="fill:#00bfff;"/>
   </g>
   <g id="patch_41">
    <path clip-path="url(#pd094a8120e)" d="M 164.945455 244.8 
L 168.48 244.8 
L 168.48 149.028029 
L 164.945455 149.028029 
z
" style="fill:#00bfff;"/>
   </g>
   <g id="patch_42">
    <path clip-path="url(#pd094a8120e)" d="M 168.48 244.8 
L 172.014545 244.8 
L 172.014545 143.164438 
L 168.48 143.164438 
z
" style="fill:#00bfff;"/>
   </g>
   <g id="patch_43">
    <path clip-path="url(#pd094a8120e)" d="M 172.014545 244.8 
L 175.549091 244.8 
L 175.549091 157.823414 
L 172.014545 157.823414 
z
" style="fill:#00bfff;"/>
   </g>
   <g id="patch_44">
    <path clip-path="url(#pd094a8120e)" d="M 175.549091 244.8 
L 179.083636 244.8 
L 179.083636 169.061961 
L 175.549091 169.061961 
z
" style="fill:#00bfff;"/>
   </g>
   <g id="patch_45">
    <path clip-path="url(#pd094a8120e)" d="M 179.083636 244.8 
L 182.618182 244.8 
L 182.618182 156.357516 
L 179.083636 156.357516 
z
" style="fill:#00bfff;"/>
   </g>
   <g id="patch_46">
    <path clip-path="url(#pd094a8120e)" d="M 182.618182 244.8 
L 186.152727 244.8 
L 186.152727 178.834611 
L 182.618182 178.834611 
z
" style="fill:#00bfff;"/>
   </g>
   <g id="patch_47">
    <path clip-path="url(#pd094a8120e)" d="M 186.152727 244.8 
L 189.687273 244.8 
L 189.687273 177.857346 
L 186.152727 177.857346 
z
" style="fill:#00bfff;"/>
   </g>
   <g id="patch_48">
    <path clip-path="url(#pd094a8120e)" d="M 189.687273 244.8 
L 193.221818 244.8 
L 193.221818 181.277774 
L 189.687273 181.277774 
z
" style="fill:#00bfff;"/>
   </g>
   <g id="patch_49">
    <path clip-path="url(#pd094a8120e)" d="M 193.221818 244.8 
L 196.756364 244.8 
L 196.756364 186.652732 
L 193.221818 186.652732 
z
" style="fill:#00bfff;"/>
   </g>
   <g id="patch_50">
    <path clip-path="url(#pd094a8120e)" d="M 196.756364 244.8 
L 200.290909 244.8 
L 200.290909 191.539057 
L 196.756364 191.539057 
z
" style="fill:#00bfff;"/>
   </g>
   <g id="patch_51">
    <path clip-path="url(#pd094a8120e)" d="M 200.290909 244.8 
L 203.825455 244.8 
L 203.825455 198.379912 
L 200.290909 198.379912 
z
" style="fill:#00bfff;"/>
   </g>
   <g id="patch_52">
    <path clip-path="url(#pd094a8120e)" d="M 203.825455 244.8 
L 207.36 244.8 
L 207.36 218.902477 
L 203.825455 218.902477 
z
" style="fill:#00bfff;"/>
   </g>
   <g id="patch_53">
    <path clip-path="url(#pd094a8120e)" d="M 207.36 244.8 
L 210.894545 244.8 
L 210.894545 213.038887 
L 207.36 213.038887 
z
" style="fill:#00bfff;"/>
   </g>
   <g id="patch_54">
    <path clip-path="url(#pd094a8120e)" d="M 210.894545 244.8 
L 214.429091 244.8 
L 214.429091 212.550254 
L 210.894545 212.550254 
z
" style="fill:#00bfff;"/>
   </g>
   <g id="patch_55">
    <path clip-path="url(#pd094a8120e)" d="M 214.429091 244.8 
L 217.963636 244.8 
L 217.963636 226.231965 
L 214.429091 226.231965 
z
" style="fill:#00bfff;"/>
   </g>
   <g id="patch_56">
    <path clip-path="url(#pd094a8120e)" d="M 217.963636 244.8 
L 221.498182 244.8 
L 221.498182 210.107092 
L 217.963636 210.107092 
z
" style="fill:#00bfff;"/>
   </g>
   <g id="patch_57">
    <path clip-path="url(#pd094a8120e)" d="M 221.498182 244.8 
L 225.032727 244.8 
L 225.032727 225.743332 
L 221.498182 225.743332 
z
" style="fill:#00bfff;"/>
   </g>
   <g id="patch_58">
    <path clip-path="url(#pd094a8120e)" d="M 225.032727 244.8 
L 228.567273 244.8 
L 228.567273 227.20923 
L 225.032727 227.20923 
z
" style="fill:#00bfff;"/>
   </g>
   <g id="patch_59">
    <path clip-path="url(#pd094a8120e)" d="M 228.567273 244.8 
L 232.101818 244.8 
L 232.101818 231.11829 
L 228.567273 231.11829 
z
" style="fill:#00bfff;"/>
   </g>
   <g id="patch_60">
    <path clip-path="url(#pd094a8120e)" d="M 232.101818 244.8 
L 235.636364 244.8 
L 235.636364 227.697862 
L 232.101818 227.697862 
z
" style="fill:#00bfff;"/>
   </g>
   <g id="patch_61">
    <path clip-path="url(#pd094a8120e)" d="M 235.636364 244.8 
L 239.170909 244.8 
L 239.170909 230.629657 
L 235.636364 230.629657 
z
" style="fill:#00bfff;"/>
   </g>
   <g id="patch_62">
    <path clip-path="url(#pd094a8120e)" d="M 239.170909 244.8 
L 242.705455 244.8 
L 242.705455 238.93641 
L 239.170909 238.93641 
z
" style="fill:#00bfff;"/>
   </g>
   <g id="patch_63">
    <path clip-path="url(#pd094a8120e)" d="M 242.705455 244.8 
L 246.24 244.8 
L 246.24 231.11829 
L 242.705455 231.11829 
z
" style="fill:#00bfff;"/>
   </g>
   <g id="patch_64">
    <path clip-path="url(#pd094a8120e)" d="M 246.24 244.8 
L 249.774545 244.8 
L 249.774545 244.8 
L 246.24 244.8 
z
" style="fill:#00bfff;"/>
   </g>
   <g id="patch_65">
    <path clip-path="url(#pd094a8120e)" d="M 249.774545 244.8 
L 253.309091 244.8 
L 253.309091 232.095555 
L 249.774545 232.095555 
z
" style="fill:#00bfff;"/>
   </g>
   <g id="patch_66">
    <path clip-path="url(#pd094a8120e)" d="M 253.309091 244.8 
L 256.843636 244.8 
L 256.843636 239.913675 
L 253.309091 239.913675 
z
" style="fill:#00bfff;"/>
   </g>
   <g id="patch_67">
    <path clip-path="url(#pd094a8120e)" d="M 256.843636 244.8 
L 260.378182 244.8 
L 260.378182 239.425042 
L 256.843636 239.425042 
z
" style="fill:#00bfff;"/>
   </g>
   <g id="patch_68">
    <path clip-path="url(#pd094a8120e)" d="M 260.378182 244.8 
L 263.912727 244.8 
L 263.912727 236.98188 
L 260.378182 236.98188 
z
" style="fill:#00bfff;"/>
   </g>
   <g id="patch_69">
    <path clip-path="url(#pd094a8120e)" d="M 263.912727 244.8 
L 267.447273 244.8 
L 267.447273 239.425042 
L 263.912727 239.425042 
z
" style="fill:#00bfff;"/>
   </g>
   <g id="patch_70">
    <path clip-path="url(#pd094a8120e)" d="M 267.447273 244.8 
L 270.981818 244.8 
L 270.981818 239.913675 
L 267.447273 239.913675 
z
" style="fill:#00bfff;"/>
   </g>
   <g id="patch_71">
    <path clip-path="url(#pd094a8120e)" d="M 270.981818 244.8 
L 274.516364 244.8 
L 274.516364 241.379572 
L 270.981818 241.379572 
z
" style="fill:#00bfff;"/>
   </g>
   <g id="patch_72">
    <path clip-path="url(#pd094a8120e)" d="M 274.516364 244.8 
L 278.050909 244.8 
L 278.050909 239.913675 
L 274.516364 239.913675 
z
" style="fill:#00bfff;"/>
   </g>
   <g id="patch_73">
    <path clip-path="url(#pd094a8120e)" d="M 278.050909 244.8 
L 281.585455 244.8 
L 281.585455 241.868205 
L 278.050909 241.868205 
z
" style="fill:#00bfff;"/>
   </g>
   <g id="patch_74">
    <path clip-path="url(#pd094a8120e)" d="M 281.585455 244.8 
L 285.12 244.8 
L 285.12 242.84547 
L 281.585455 242.84547 
z
" style="fill:#00bfff;"/>
   </g>
   <g id="patch_75">
    <path clip-path="url(#pd094a8120e)" d="M 285.12 244.8 
L 288.654545 244.8 
L 288.654545 243.822735 
L 285.12 243.822735 
z
" style="fill:#00bfff;"/>
   </g>
   <g id="patch_76">
    <path clip-path="url(#pd094a8120e)" d="M 288.654545 244.8 
L 292.189091 244.8 
L 292.189091 242.84547 
L 288.654545 242.84547 
z
" style="fill:#00bfff;"/>
   </g>
   <g id="patch_77">
    <path clip-path="url(#pd094a8120e)" d="M 292.189091 244.8 
L 295.723636 244.8 
L 295.723636 242.84547 
L 292.189091 242.84547 
z
" style="fill:#00bfff;"/>
   </g>
   <g id="patch_78">
    <path clip-path="url(#pd094a8120e)" d="M 295.723636 244.8 
L 299.258182 244.8 
L 299.258182 242.84547 
L 295.723636 242.84547 
z
" style="fill:#00bfff;"/>
   </g>
   <g id="patch_79">
    <path clip-path="url(#pd094a8120e)" d="M 299.258182 244.8 
L 302.792727 244.8 
L 302.792727 243.822735 
L 299.258182 243.822735 
z
" style="fill:#00bfff;"/>
   </g>
   <g id="patch_80">
    <path clip-path="url(#pd094a8120e)" d="M 302.792727 244.8 
L 306.327273 244.8 
L 306.327273 243.334102 
L 302.792727 243.334102 
z
" style="fill:#00bfff;"/>
   </g>
   <g id="patch_81">
    <path clip-path="url(#pd094a8120e)" d="M 306.327273 244.8 
L 309.861818 244.8 
L 309.861818 243.334102 
L 306.327273 243.334102 
z
" style="fill:#00bfff;"/>
   </g>
   <g id="patch_82">
    <path clip-path="url(#pd094a8120e)" d="M 309.861818 244.8 
L 313.396364 244.8 
L 313.396364 244.311367 
L 309.861818 244.311367 
z
" style="fill:#00bfff;"/>
   </g>
   <g id="patch_83">
    <path clip-path="url(#pd094a8120e)" d="M 313.396364 244.8 
L 316.930909 244.8 
L 316.930909 244.311367 
L 313.396364 244.311367 
z
" style="fill:#00bfff;"/>
   </g>
   <g id="patch_84">
    <path clip-path="url(#pd094a8120e)" d="M 316.930909 244.8 
L 320.465455 244.8 
L 320.465455 244.311367 
L 316.930909 244.311367 
z
" style="fill:#00bfff;"/>
   </g>
   <g id="patch_85">
    <path clip-path="url(#pd094a8120e)" d="M 320.465455 244.8 
L 324 244.8 
L 324 243.334102 
L 320.465455 243.334102 
z
" style="fill:#00bfff;"/>
   </g>
   <g id="patch_86">
    <path clip-path="url(#pd094a8120e)" d="M 324 244.8 
L 327.534545 244.8 
L 327.534545 244.311367 
L 324 244.311367 
z
" style="fill:#00bfff;"/>
   </g>
   <g id="patch_87">
    <path clip-path="url(#pd094a8120e)" d="M 327.534545 244.8 
L 331.069091 244.8 
L 331.069091 244.8 
L 327.534545 244.8 
z
" style="fill:#00bfff;"/>
   </g>
   <g id="patch_88">
    <path clip-path="url(#pd094a8120e)" d="M 331.069091 244.8 
L 334.603636 244.8 
L 334.603636 244.8 
L 331.069091 244.8 
z
" style="fill:#00bfff;"/>
   </g>
   <g id="patch_89">
    <path clip-path="url(#pd094a8120e)" d="M 334.603636 244.8 
L 338.138182 244.8 
L 338.138182 243.822735 
L 334.603636 243.822735 
z
" style="fill:#00bfff;"/>
   </g>
   <g id="patch_90">
    <path clip-path="url(#pd094a8120e)" d="M 338.138182 244.8 
L 341.672727 244.8 
L 341.672727 244.8 
L 338.138182 244.8 
z
" style="fill:#00bfff;"/>
   </g>
   <g id="patch_91">
    <path clip-path="url(#pd094a8120e)" d="M 341.672727 244.8 
L 345.207273 244.8 
L 345.207273 243.822735 
L 341.672727 243.822735 
z
" style="fill:#00bfff;"/>
   </g>
   <g id="patch_92">
    <path clip-path="url(#pd094a8120e)" d="M 345.207273 244.8 
L 348.741818 244.8 
L 348.741818 244.311367 
L 345.207273 244.311367 
z
" style="fill:#00bfff;"/>
   </g>
   <g id="patch_93">
    <path clip-path="url(#pd094a8120e)" d="M 348.741818 244.8 
L 352.276364 244.8 
L 352.276364 244.8 
L 348.741818 244.8 
z
" style="fill:#00bfff;"/>
   </g>
   <g id="patch_94">
    <path clip-path="url(#pd094a8120e)" d="M 352.276364 244.8 
L 355.810909 244.8 
L 355.810909 244.8 
L 352.276364 244.8 
z
" style="fill:#00bfff;"/>
   </g>
   <g id="patch_95">
    <path clip-path="url(#pd094a8120e)" d="M 355.810909 244.8 
L 359.345455 244.8 
L 359.345455 244.8 
L 355.810909 244.8 
z
" style="fill:#00bfff;"/>
   </g>
   <g id="patch_96">
    <path clip-path="url(#pd094a8120e)" d="M 359.345455 244.8 
L 362.88 244.8 
L 362.88 244.8 
L 359.345455 244.8 
z
" style="fill:#00bfff;"/>
   </g>
   <g id="patch_97">
    <path clip-path="url(#pd094a8120e)" d="M 362.88 244.8 
L 366.414545 244.8 
L 366.414545 244.311367 
L 362.88 244.311367 
z
" style="fill:#00bfff;"/>
   </g>
   <g id="patch_98">
    <path clip-path="url(#pd094a8120e)" d="M 366.414545 244.8 
L 369.949091 244.8 
L 369.949091 244.311367 
L 366.414545 244.311367 
z
" style="fill:#00bfff;"/>
   </g>
   <g id="patch_99">
    <path clip-path="url(#pd094a8120e)" d="M 369.949091 244.8 
L 373.483636 244.8 
L 373.483636 244.8 
L 369.949091 244.8 
z
" style="fill:#00bfff;"/>
   </g>
   <g id="patch_100">
    <path clip-path="url(#pd094a8120e)" d="M 373.483636 244.8 
L 377.018182 244.8 
L 377.018182 244.311367 
L 373.483636 244.311367 
z
" style="fill:#00bfff;"/>
   </g>
   <g id="patch_101">
    <path clip-path="url(#pd094a8120e)" d="M 377.018182 244.8 
L 380.552727 244.8 
L 380.552727 244.8 
L 377.018182 244.8 
z
" style="fill:#00bfff;"/>
   </g>
   <g id="patch_102">
    <path clip-path="url(#pd094a8120e)" d="M 380.552727 244.8 
L 384.087273 244.8 
L 384.087273 243.822735 
L 380.552727 243.822735 
z
" style="fill:#00bfff;"/>
   </g>
   <g id="matplotlib.axis_1">
    <g id="xtick_1">
     <g id="line2d_1">
      <defs>
       <path d="M 0 0 
L 0 4 
" id="m9a5d78e20a" style="stroke:#222222;"/>
      </defs>
      <g>
       <use style="fill:#222222;stroke:#222222;" x="20.614434" xlink:href="#m9a5d78e20a" y="244.8"/>
      </g>
     </g>
     <g id="text_1">
      <!-- 2 -->
      <defs>
       <path d="M 19.1875 8.296875 
L 53.609375 8.296875 
L 53.609375 0 
L 7.328125 0 
L 7.328125 8.296875 
Q 12.9375 14.109375 22.625 23.890625 
Q 32.328125 33.6875 34.8125 36.53125 
Q 39.546875 41.84375 41.421875 45.53125 
Q 43.3125 49.21875 43.3125 52.78125 
Q 43.3125 58.59375 39.234375 62.25 
Q 35.15625 65.921875 28.609375 65.921875 
Q 23.96875 65.921875 18.8125 64.3125 
Q 13.671875 62.703125 7.8125 59.421875 
L 7.8125 69.390625 
Q 13.765625 71.78125 18.9375 73 
Q 24.125 74.21875 28.421875 74.21875 
Q 39.75 74.21875 46.484375 68.546875 
Q 53.21875 62.890625 53.21875 53.421875 
Q 53.21875 48.921875 51.53125 44.890625 
Q 49.859375 40.875 45.40625 35.40625 
Q 44.1875 33.984375 37.640625 27.21875 
Q 31.109375 20.453125 19.1875 8.296875 
z
" id="DejaVuSans-32"/>
      </defs>
      <g style="fill:#222222;" transform="translate(16.478809 262.677969)scale(0.13 -0.13)">
       <use xlink:href="#DejaVuSans-32"/>
      </g>
     </g>
    </g>
    <g id="xtick_2">
     <g id="line2d_2">
      <g>
       <use style="fill:#222222;stroke:#222222;" x="73.077003" xlink:href="#m9a5d78e20a" y="244.8"/>
      </g>
     </g>
     <g id="text_2">
      <!-- 4 -->
      <defs>
       <path d="M 37.796875 64.3125 
L 12.890625 25.390625 
L 37.796875 25.390625 
z
M 35.203125 72.90625 
L 47.609375 72.90625 
L 47.609375 25.390625 
L 58.015625 25.390625 
L 58.015625 17.1875 
L 47.609375 17.1875 
L 47.609375 0 
L 37.796875 0 
L 37.796875 17.1875 
L 4.890625 17.1875 
L 4.890625 26.703125 
z
" id="DejaVuSans-34"/>
      </defs>
      <g style="fill:#222222;" transform="translate(68.941378 262.677969)scale(0.13 -0.13)">
       <use xlink:href="#DejaVuSans-34"/>
      </g>
     </g>
    </g>
    <g id="xtick_3">
     <g id="line2d_3">
      <g>
       <use style="fill:#222222;stroke:#222222;" x="125.539573" xlink:href="#m9a5d78e20a" y="244.8"/>
      </g>
     </g>
     <g id="text_3">
      <!-- 6 -->
      <defs>
       <path d="M 33.015625 40.375 
Q 26.375 40.375 22.484375 35.828125 
Q 18.609375 31.296875 18.609375 23.390625 
Q 18.609375 15.53125 22.484375 10.953125 
Q 26.375 6.390625 33.015625 6.390625 
Q 39.65625 6.390625 43.53125 10.953125 
Q 47.40625 15.53125 47.40625 23.390625 
Q 47.40625 31.296875 43.53125 35.828125 
Q 39.65625 40.375 33.015625 40.375 
z
M 52.59375 71.296875 
L 52.59375 62.3125 
Q 48.875 64.0625 45.09375 64.984375 
Q 41.3125 65.921875 37.59375 65.921875 
Q 27.828125 65.921875 22.671875 59.328125 
Q 17.53125 52.734375 16.796875 39.40625 
Q 19.671875 43.65625 24.015625 45.921875 
Q 28.375 48.1875 33.59375 48.1875 
Q 44.578125 48.1875 50.953125 41.515625 
Q 57.328125 34.859375 57.328125 23.390625 
Q 57.328125 12.15625 50.6875 5.359375 
Q 44.046875 -1.421875 33.015625 -1.421875 
Q 20.359375 -1.421875 13.671875 8.265625 
Q 6.984375 17.96875 6.984375 36.375 
Q 6.984375 53.65625 15.1875 63.9375 
Q 23.390625 74.21875 37.203125 74.21875 
Q 40.921875 74.21875 44.703125 73.484375 
Q 48.484375 72.75 52.59375 71.296875 
z
" id="DejaVuSans-36"/>
      </defs>
      <g style="fill:#222222;" transform="translate(121.403948 262.677969)scale(0.13 -0.13)">
       <use xlink:href="#DejaVuSans-36"/>
      </g>
     </g>
    </g>
    <g id="xtick_4">
     <g id="line2d_4">
      <g>
       <use style="fill:#222222;stroke:#222222;" x="178.002142" xlink:href="#m9a5d78e20a" y="244.8"/>
      </g>
     </g>
     <g id="text_4">
      <!-- 8 -->
      <defs>
       <path d="M 31.78125 34.625 
Q 24.75 34.625 20.71875 30.859375 
Q 16.703125 27.09375 16.703125 20.515625 
Q 16.703125 13.921875 20.71875 10.15625 
Q 24.75 6.390625 31.78125 6.390625 
Q 38.8125 6.390625 42.859375 10.171875 
Q 46.921875 13.96875 46.921875 20.515625 
Q 46.921875 27.09375 42.890625 30.859375 
Q 38.875 34.625 31.78125 34.625 
z
M 21.921875 38.8125 
Q 15.578125 40.375 12.03125 44.71875 
Q 8.5 49.078125 8.5 55.328125 
Q 8.5 64.0625 14.71875 69.140625 
Q 20.953125 74.21875 31.78125 74.21875 
Q 42.671875 74.21875 48.875 69.140625 
Q 55.078125 64.0625 55.078125 55.328125 
Q 55.078125 49.078125 51.53125 44.71875 
Q 48 40.375 41.703125 38.8125 
Q 48.828125 37.15625 52.796875 32.3125 
Q 56.78125 27.484375 56.78125 20.515625 
Q 56.78125 9.90625 50.3125 4.234375 
Q 43.84375 -1.421875 31.78125 -1.421875 
Q 19.734375 -1.421875 13.25 4.234375 
Q 6.78125 9.90625 6.78125 20.515625 
Q 6.78125 27.484375 10.78125 32.3125 
Q 14.796875 37.15625 21.921875 38.8125 
z
M 18.3125 54.390625 
Q 18.3125 48.734375 21.84375 45.5625 
Q 25.390625 42.390625 31.78125 42.390625 
Q 38.140625 42.390625 41.71875 45.5625 
Q 45.3125 48.734375 45.3125 54.390625 
Q 45.3125 60.0625 41.71875 63.234375 
Q 38.140625 66.40625 31.78125 66.40625 
Q 25.390625 66.40625 21.84375 63.234375 
Q 18.3125 60.0625 18.3125 54.390625 
z
" id="DejaVuSans-38"/>
      </defs>
      <g style="fill:#222222;" transform="translate(173.866517 262.677969)scale(0.13 -0.13)">
       <use xlink:href="#DejaVuSans-38"/>
      </g>
     </g>
    </g>
    <g id="xtick_5">
     <g id="line2d_5">
      <g>
       <use style="fill:#222222;stroke:#222222;" x="230.464712" xlink:href="#m9a5d78e20a" y="244.8"/>
      </g>
     </g>
     <g id="text_5">
      <!-- 10 -->
      <defs>
       <path d="M 12.40625 8.296875 
L 28.515625 8.296875 
L 28.515625 63.921875 
L 10.984375 60.40625 
L 10.984375 69.390625 
L 28.421875 72.90625 
L 38.28125 72.90625 
L 38.28125 8.296875 
L 54.390625 8.296875 
L 54.390625 0 
L 12.40625 0 
z
" id="DejaVuSans-31"/>
       <path d="M 31.78125 66.40625 
Q 24.171875 66.40625 20.328125 58.90625 
Q 16.5 51.421875 16.5 36.375 
Q 16.5 21.390625 20.328125 13.890625 
Q 24.171875 6.390625 31.78125 6.390625 
Q 39.453125 6.390625 43.28125 13.890625 
Q 47.125 21.390625 47.125 36.375 
Q 47.125 51.421875 43.28125 58.90625 
Q 39.453125 66.40625 31.78125 66.40625 
z
M 31.78125 74.21875 
Q 44.046875 74.21875 50.515625 64.515625 
Q 56.984375 54.828125 56.984375 36.375 
Q 56.984375 17.96875 50.515625 8.265625 
Q 44.046875 -1.421875 31.78125 -1.421875 
Q 19.53125 -1.421875 13.0625 8.265625 
Q 6.59375 17.96875 6.59375 36.375 
Q 6.59375 54.828125 13.0625 64.515625 
Q 19.53125 74.21875 31.78125 74.21875 
z
" id="DejaVuSans-30"/>
      </defs>
      <g style="fill:#222222;" transform="translate(222.193462 262.677969)scale(0.13 -0.13)">
       <use xlink:href="#DejaVuSans-31"/>
       <use x="63.623047" xlink:href="#DejaVuSans-30"/>
      </g>
     </g>
    </g>
    <g id="xtick_6">
     <g id="line2d_6">
      <g>
       <use style="fill:#222222;stroke:#222222;" x="282.927281" xlink:href="#m9a5d78e20a" y="244.8"/>
      </g>
     </g>
     <g id="text_6">
      <!-- 12 -->
      <g style="fill:#222222;" transform="translate(274.656031 262.677969)scale(0.13 -0.13)">
       <use xlink:href="#DejaVuSans-31"/>
       <use x="63.623047" xlink:href="#DejaVuSans-32"/>
      </g>
     </g>
    </g>
    <g id="xtick_7">
     <g id="line2d_7">
      <g>
       <use style="fill:#222222;stroke:#222222;" x="335.389851" xlink:href="#m9a5d78e20a" y="244.8"/>
      </g>
     </g>
     <g id="text_7">
      <!-- 14 -->
      <g style="fill:#222222;" transform="translate(327.118601 262.677969)scale(0.13 -0.13)">
       <use xlink:href="#DejaVuSans-31"/>
       <use x="63.623047" xlink:href="#DejaVuSans-34"/>
      </g>
     </g>
    </g>
    <g id="xtick_8">
     <g id="line2d_8">
      <g>
       <use style="fill:#222222;stroke:#222222;" x="387.85242" xlink:href="#m9a5d78e20a" y="244.8"/>
      </g>
     </g>
     <g id="text_8">
      <!-- 16 -->
      <g style="fill:#222222;" transform="translate(379.58117 262.677969)scale(0.13 -0.13)">
       <use xlink:href="#DejaVuSans-31"/>
       <use x="63.623047" xlink:href="#DejaVuSans-36"/>
      </g>
     </g>
    </g>
    <g id="text_9">
     <!-- Relative risk -->
     <defs>
      <path d="M 44.390625 34.1875 
Q 47.5625 33.109375 50.5625 29.59375 
Q 53.5625 26.078125 56.59375 19.921875 
L 66.609375 0 
L 56 0 
L 46.6875 18.703125 
Q 43.0625 26.03125 39.671875 28.421875 
Q 36.28125 30.8125 30.421875 30.8125 
L 19.671875 30.8125 
L 19.671875 0 
L 9.8125 0 
L 9.8125 72.90625 
L 32.078125 72.90625 
Q 44.578125 72.90625 50.734375 67.671875 
Q 56.890625 62.453125 56.890625 51.90625 
Q 56.890625 45.015625 53.6875 40.46875 
Q 50.484375 35.9375 44.390625 34.1875 
z
M 19.671875 64.796875 
L 19.671875 38.921875 
L 32.078125 38.921875 
Q 39.203125 38.921875 42.84375 42.21875 
Q 46.484375 45.515625 46.484375 51.90625 
Q 46.484375 58.296875 42.84375 61.546875 
Q 39.203125 64.796875 32.078125 64.796875 
z
" id="DejaVuSans-52"/>
      <path d="M 56.203125 29.59375 
L 56.203125 25.203125 
L 14.890625 25.203125 
Q 15.484375 15.921875 20.484375 11.0625 
Q 25.484375 6.203125 34.421875 6.203125 
Q 39.59375 6.203125 44.453125 7.46875 
Q 49.3125 8.734375 54.109375 11.28125 
L 54.109375 2.78125 
Q 49.265625 0.734375 44.1875 -0.34375 
Q 39.109375 -1.421875 33.890625 -1.421875 
Q 20.796875 -1.421875 13.15625 6.1875 
Q 5.515625 13.8125 5.515625 26.8125 
Q 5.515625 40.234375 12.765625 48.109375 
Q 20.015625 56 32.328125 56 
Q 43.359375 56 49.78125 48.890625 
Q 56.203125 41.796875 56.203125 29.59375 
z
M 47.21875 32.234375 
Q 47.125 39.59375 43.09375 43.984375 
Q 39.0625 48.390625 32.421875 48.390625 
Q 24.90625 48.390625 20.390625 44.140625 
Q 15.875 39.890625 15.1875 32.171875 
z
" id="DejaVuSans-65"/>
      <path d="M 9.421875 75.984375 
L 18.40625 75.984375 
L 18.40625 0 
L 9.421875 0 
z
" id="DejaVuSans-6c"/>
      <path d="M 34.28125 27.484375 
Q 23.390625 27.484375 19.1875 25 
Q 14.984375 22.515625 14.984375 16.5 
Q 14.984375 11.71875 18.140625 8.90625 
Q 21.296875 6.109375 26.703125 6.109375 
Q 34.1875 6.109375 38.703125 11.40625 
Q 43.21875 16.703125 43.21875 25.484375 
L 43.21875 27.484375 
z
M 52.203125 31.203125 
L 52.203125 0 
L 43.21875 0 
L 43.21875 8.296875 
Q 40.140625 3.328125 35.546875 0.953125 
Q 30.953125 -1.421875 24.3125 -1.421875 
Q 15.921875 -1.421875 10.953125 3.296875 
Q 6 8.015625 6 15.921875 
Q 6 25.140625 12.171875 29.828125 
Q 18.359375 34.515625 30.609375 34.515625 
L 43.21875 34.515625 
L 43.21875 35.40625 
Q 43.21875 41.609375 39.140625 45 
Q 35.0625 48.390625 27.6875 48.390625 
Q 23 48.390625 18.546875 47.265625 
Q 14.109375 46.140625 10.015625 43.890625 
L 10.015625 52.203125 
Q 14.9375 54.109375 19.578125 55.046875 
Q 24.21875 56 28.609375 56 
Q 40.484375 56 46.34375 49.84375 
Q 52.203125 43.703125 52.203125 31.203125 
z
" id="DejaVuSans-61"/>
      <path d="M 18.3125 70.21875 
L 18.3125 54.6875 
L 36.8125 54.6875 
L 36.8125 47.703125 
L 18.3125 47.703125 
L 18.3125 18.015625 
Q 18.3125 11.328125 20.140625 9.421875 
Q 21.96875 7.515625 27.59375 7.515625 
L 36.8125 7.515625 
L 36.8125 0 
L 27.59375 0 
Q 17.1875 0 13.234375 3.875 
Q 9.28125 7.765625 9.28125 18.015625 
L 9.28125 47.703125 
L 2.6875 47.703125 
L 2.6875 54.6875 
L 9.28125 54.6875 
L 9.28125 70.21875 
z
" id="DejaVuSans-74"/>
      <path d="M 9.421875 54.6875 
L 18.40625 54.6875 
L 18.40625 0 
L 9.421875 0 
z
M 9.421875 75.984375 
L 18.40625 75.984375 
L 18.40625 64.59375 
L 9.421875 64.59375 
z
" id="DejaVuSans-69"/>
      <path d="M 2.984375 54.6875 
L 12.5 54.6875 
L 29.59375 8.796875 
L 46.6875 54.6875 
L 56.203125 54.6875 
L 35.6875 0 
L 23.484375 0 
z
" id="DejaVuSans-76"/>
      <path id="DejaVuSans-20"/>
      <path d="M 41.109375 46.296875 
Q 39.59375 47.171875 37.8125 47.578125 
Q 36.03125 48 33.890625 48 
Q 26.265625 48 22.1875 43.046875 
Q 18.109375 38.09375 18.109375 28.8125 
L 18.109375 0 
L 9.078125 0 
L 9.078125 54.6875 
L 18.109375 54.6875 
L 18.109375 46.1875 
Q 20.953125 51.171875 25.484375 53.578125 
Q 30.03125 56 36.53125 56 
Q 37.453125 56 38.578125 55.875 
Q 39.703125 55.765625 41.0625 55.515625 
z
" id="DejaVuSans-72"/>
      <path d="M 44.28125 53.078125 
L 44.28125 44.578125 
Q 40.484375 46.53125 36.375 47.5 
Q 32.28125 48.484375 27.875 48.484375 
Q 21.1875 48.484375 17.84375 46.4375 
Q 14.5 44.390625 14.5 40.28125 
Q 14.5 37.15625 16.890625 35.375 
Q 19.28125 33.59375 26.515625 31.984375 
L 29.59375 31.296875 
Q 39.15625 29.25 43.1875 25.515625 
Q 47.21875 21.78125 47.21875 15.09375 
Q 47.21875 7.46875 41.1875 3.015625 
Q 35.15625 -1.421875 24.609375 -1.421875 
Q 20.21875 -1.421875 15.453125 -0.5625 
Q 10.6875 0.296875 5.421875 2 
L 5.421875 11.28125 
Q 10.40625 8.6875 15.234375 7.390625 
Q 20.0625 6.109375 24.8125 6.109375 
Q 31.15625 6.109375 34.5625 8.28125 
Q 37.984375 10.453125 37.984375 14.40625 
Q 37.984375 18.0625 35.515625 20.015625 
Q 33.0625 21.96875 24.703125 23.78125 
L 21.578125 24.515625 
Q 13.234375 26.265625 9.515625 29.90625 
Q 5.8125 33.546875 5.8125 39.890625 
Q 5.8125 47.609375 11.28125 51.796875 
Q 16.75 56 26.8125 56 
Q 31.78125 56 36.171875 55.265625 
Q 40.578125 54.546875 44.28125 53.078125 
z
" id="DejaVuSans-73"/>
      <path d="M 9.078125 75.984375 
L 18.109375 75.984375 
L 18.109375 31.109375 
L 44.921875 54.6875 
L 56.390625 54.6875 
L 27.390625 29.109375 
L 57.625 0 
L 45.90625 0 
L 18.109375 26.703125 
L 18.109375 0 
L 9.078125 0 
z
" id="DejaVuSans-6b"/>
     </defs>
     <g style="fill:#222222;" transform="translate(151.704844 283.05875)scale(0.18 -0.18)">
      <use xlink:href="#DejaVuSans-52"/>
      <use x="69.419922" xlink:href="#DejaVuSans-65"/>
      <use x="130.943359" xlink:href="#DejaVuSans-6c"/>
      <use x="158.726562" xlink:href="#DejaVuSans-61"/>
      <use x="220.005859" xlink:href="#DejaVuSans-74"/>
      <use x="259.214844" xlink:href="#DejaVuSans-69"/>
      <use x="286.998047" xlink:href="#DejaVuSans-76"/>
      <use x="346.177734" xlink:href="#DejaVuSans-65"/>
      <use x="407.701172" xlink:href="#DejaVuSans-20"/>
      <use x="439.488281" xlink:href="#DejaVuSans-72"/>
      <use x="480.601562" xlink:href="#DejaVuSans-69"/>
      <use x="508.384766" xlink:href="#DejaVuSans-73"/>
      <use x="560.484375" xlink:href="#DejaVuSans-6b"/>
     </g>
    </g>
   </g>
   <g id="matplotlib.axis_2"/>
   <g id="patch_103">
    <path d="M 12.96 244.8 
L 401.76 244.8 
" style="fill:none;stroke:#222222;stroke-linecap:square;stroke-linejoin:miter;"/>
   </g>
  </g>
  <g id="axes_2">
   <g id="line2d_9">
    <path clip-path="url(#pd094a8120e)" d="M 134.341372 244.8 
L 134.341372 39.6 
" style="fill:none;stroke:#fbc15e;stroke-linecap:square;stroke-width:1.5;"/>
   </g>
   <g id="text_10">
    <!-- Observed statistic -->
    <defs>
     <path d="M 39.40625 66.21875 
Q 28.65625 66.21875 22.328125 58.203125 
Q 16.015625 50.203125 16.015625 36.375 
Q 16.015625 22.609375 22.328125 14.59375 
Q 28.65625 6.59375 39.40625 6.59375 
Q 50.140625 6.59375 56.421875 14.59375 
Q 62.703125 22.609375 62.703125 36.375 
Q 62.703125 50.203125 56.421875 58.203125 
Q 50.140625 66.21875 39.40625 66.21875 
z
M 39.40625 74.21875 
Q 54.734375 74.21875 63.90625 63.9375 
Q 73.09375 53.65625 73.09375 36.375 
Q 73.09375 19.140625 63.90625 8.859375 
Q 54.734375 -1.421875 39.40625 -1.421875 
Q 24.03125 -1.421875 14.8125 8.828125 
Q 5.609375 19.09375 5.609375 36.375 
Q 5.609375 53.65625 14.8125 63.9375 
Q 24.03125 74.21875 39.40625 74.21875 
z
" id="DejaVuSans-4f"/>
     <path d="M 48.6875 27.296875 
Q 48.6875 37.203125 44.609375 42.84375 
Q 40.53125 48.484375 33.40625 48.484375 
Q 26.265625 48.484375 22.1875 42.84375 
Q 18.109375 37.203125 18.109375 27.296875 
Q 18.109375 17.390625 22.1875 11.75 
Q 26.265625 6.109375 33.40625 6.109375 
Q 40.53125 6.109375 44.609375 11.75 
Q 48.6875 17.390625 48.6875 27.296875 
z
M 18.109375 46.390625 
Q 20.953125 51.265625 25.265625 53.625 
Q 29.59375 56 35.59375 56 
Q 45.5625 56 51.78125 48.09375 
Q 58.015625 40.1875 58.015625 27.296875 
Q 58.015625 14.40625 51.78125 6.484375 
Q 45.5625 -1.421875 35.59375 -1.421875 
Q 29.59375 -1.421875 25.265625 0.953125 
Q 20.953125 3.328125 18.109375 8.203125 
L 18.109375 0 
L 9.078125 0 
L 9.078125 75.984375 
L 18.109375 75.984375 
z
" id="DejaVuSans-62"/>
     <path d="M 45.40625 46.390625 
L 45.40625 75.984375 
L 54.390625 75.984375 
L 54.390625 0 
L 45.40625 0 
L 45.40625 8.203125 
Q 42.578125 3.328125 38.25 0.953125 
Q 33.9375 -1.421875 27.875 -1.421875 
Q 17.96875 -1.421875 11.734375 6.484375 
Q 5.515625 14.40625 5.515625 27.296875 
Q 5.515625 40.1875 11.734375 48.09375 
Q 17.96875 56 27.875 56 
Q 33.9375 56 38.25 53.625 
Q 42.578125 51.265625 45.40625 46.390625 
z
M 14.796875 27.296875 
Q 14.796875 17.390625 18.875 11.75 
Q 22.953125 6.109375 30.078125 6.109375 
Q 37.203125 6.109375 41.296875 11.75 
Q 45.40625 17.390625 45.40625 27.296875 
Q 45.40625 37.203125 41.296875 42.84375 
Q 37.203125 48.484375 30.078125 48.484375 
Q 22.953125 48.484375 18.875 42.84375 
Q 14.796875 37.203125 14.796875 27.296875 
z
" id="DejaVuSans-64"/>
     <path d="M 48.78125 52.59375 
L 48.78125 44.1875 
Q 44.96875 46.296875 41.140625 47.34375 
Q 37.3125 48.390625 33.40625 48.390625 
Q 24.65625 48.390625 19.8125 42.84375 
Q 14.984375 37.3125 14.984375 27.296875 
Q 14.984375 17.28125 19.8125 11.734375 
Q 24.65625 6.203125 33.40625 6.203125 
Q 37.3125 6.203125 41.140625 7.25 
Q 44.96875 8.296875 48.78125 10.40625 
L 48.78125 2.09375 
Q 45.015625 0.34375 40.984375 -0.53125 
Q 36.96875 -1.421875 32.421875 -1.421875 
Q 20.0625 -1.421875 12.78125 6.34375 
Q 5.515625 14.109375 5.515625 27.296875 
Q 5.515625 40.671875 12.859375 48.328125 
Q 20.21875 56 33.015625 56 
Q 37.15625 56 41.109375 55.140625 
Q 45.0625 54.296875 48.78125 52.59375 
z
" id="DejaVuSans-63"/>
    </defs>
    <g style="fill:#fbc15e;" transform="translate(70.883091 13.123063)scale(0.14 -0.14)">
     <use xlink:href="#DejaVuSans-4f"/>
     <use x="78.710938" xlink:href="#DejaVuSans-62"/>
     <use x="142.1875" xlink:href="#DejaVuSans-73"/>
     <use x="194.287109" xlink:href="#DejaVuSans-65"/>
     <use x="255.810547" xlink:href="#DejaVuSans-72"/>
     <use x="296.923828" xlink:href="#DejaVuSans-76"/>
     <use x="356.103516" xlink:href="#DejaVuSans-65"/>
     <use x="417.626953" xlink:href="#DejaVuSans-64"/>
     <use x="481.103516" xlink:href="#DejaVuSans-20"/>
     <use x="512.890625" xlink:href="#DejaVuSans-73"/>
     <use x="564.990234" xlink:href="#DejaVuSans-74"/>
     <use x="604.199219" xlink:href="#DejaVuSans-61"/>
     <use x="665.478516" xlink:href="#DejaVuSans-74"/>
     <use x="704.6875" xlink:href="#DejaVuSans-69"/>
     <use x="732.470703" xlink:href="#DejaVuSans-73"/>
     <use x="784.570312" xlink:href="#DejaVuSans-74"/>
     <use x="823.779297" xlink:href="#DejaVuSans-69"/>
     <use x="851.5625" xlink:href="#DejaVuSans-63"/>
    </g>
    <!-- 6.34 -->
    <defs>
     <path d="M 10.6875 12.40625 
L 21 12.40625 
L 21 0 
L 10.6875 0 
z
" id="DejaVuSans-2e"/>
     <path d="M 40.578125 39.3125 
Q 47.65625 37.796875 51.625 33 
Q 55.609375 28.21875 55.609375 21.1875 
Q 55.609375 10.40625 48.1875 4.484375 
Q 40.765625 -1.421875 27.09375 -1.421875 
Q 22.515625 -1.421875 17.65625 -0.515625 
Q 12.796875 0.390625 7.625 2.203125 
L 7.625 11.71875 
Q 11.71875 9.328125 16.59375 8.109375 
Q 21.484375 6.890625 26.8125 6.890625 
Q 36.078125 6.890625 40.9375 10.546875 
Q 45.796875 14.203125 45.796875 21.1875 
Q 45.796875 27.640625 41.28125 31.265625 
Q 36.765625 34.90625 28.71875 34.90625 
L 20.21875 34.90625 
L 20.21875 43.015625 
L 29.109375 43.015625 
Q 36.375 43.015625 40.234375 45.921875 
Q 44.09375 48.828125 44.09375 54.296875 
Q 44.09375 59.90625 40.109375 62.90625 
Q 36.140625 65.921875 28.71875 65.921875 
Q 24.65625 65.921875 20.015625 65.03125 
Q 15.375 64.15625 9.8125 62.3125 
L 9.8125 71.09375 
Q 15.4375 72.65625 20.34375 73.4375 
Q 25.25 74.21875 29.59375 74.21875 
Q 40.828125 74.21875 47.359375 69.109375 
Q 53.90625 64.015625 53.90625 55.328125 
Q 53.90625 49.265625 50.4375 45.09375 
Q 46.96875 40.921875 40.578125 39.3125 
z
" id="DejaVuSans-33"/>
    </defs>
    <g style="fill:#fbc15e;" transform="translate(118.755435 28.8)scale(0.14 -0.14)">
     <use xlink:href="#DejaVuSans-36"/>
     <use x="63.623047" xlink:href="#DejaVuSans-2e"/>
     <use x="95.410156" xlink:href="#DejaVuSans-33"/>
     <use x="159.033203" xlink:href="#DejaVuSans-34"/>
    </g>
   </g>
  </g>
  <g id="axes_3">
   <g id="line2d_10">
    <path clip-path="url(#pd094a8120e)" d="M 74.882459 244.8 
L 74.882459 126 
" style="fill:none;stroke:#fb4c52;stroke-linecap:square;stroke-width:2;"/>
   </g>
   <g id="line2d_11">
    <path clip-path="url(#pd094a8120e)" d="M 232.24867 244.8 
L 232.24867 126 
" style="fill:none;stroke:#fb4c52;stroke-linecap:square;stroke-width:2;"/>
   </g>
   <g id="text_11">
    <!-- 2.5$^{th}$ -->
    <defs>
     <path d="M 10.796875 72.90625 
L 49.515625 72.90625 
L 49.515625 64.59375 
L 19.828125 64.59375 
L 19.828125 46.734375 
Q 21.96875 47.46875 24.109375 47.828125 
Q 26.265625 48.1875 28.421875 48.1875 
Q 40.625 48.1875 47.75 41.5 
Q 54.890625 34.8125 54.890625 23.390625 
Q 54.890625 11.625 47.5625 5.09375 
Q 40.234375 -1.421875 26.90625 -1.421875 
Q 22.3125 -1.421875 17.546875 -0.640625 
Q 12.796875 0.140625 7.71875 1.703125 
L 7.71875 11.625 
Q 12.109375 9.234375 16.796875 8.0625 
Q 21.484375 6.890625 26.703125 6.890625 
Q 35.15625 6.890625 40.078125 11.328125 
Q 45.015625 15.765625 45.015625 23.390625 
Q 45.015625 31 40.078125 35.4375 
Q 35.15625 39.890625 26.703125 39.890625 
Q 22.75 39.890625 18.8125 39.015625 
Q 14.890625 38.140625 10.796875 36.28125 
z
" id="DejaVuSans-35"/>
     <path d="M 42.28125 54.6875 
L 40.921875 47.703125 
L 23 47.703125 
L 17.1875 18.015625 
Q 16.890625 16.359375 16.75 15.234375 
Q 16.609375 14.109375 16.609375 13.484375 
Q 16.609375 10.359375 18.484375 8.9375 
Q 20.359375 7.515625 24.515625 7.515625 
L 33.59375 7.515625 
L 32.078125 0 
L 23.484375 0 
Q 15.484375 0 11.546875 3.125 
Q 7.625 6.25 7.625 12.59375 
Q 7.625 13.71875 7.765625 15.0625 
Q 7.90625 16.40625 8.203125 18.015625 
L 14.015625 47.703125 
L 6.390625 47.703125 
L 7.8125 54.6875 
L 15.28125 54.6875 
L 18.3125 70.21875 
L 27.296875 70.21875 
L 24.3125 54.6875 
z
" id="DejaVuSans-Oblique-74"/>
     <path d="M 55.71875 33.015625 
L 49.3125 0 
L 40.28125 0 
L 46.6875 32.671875 
Q 47.125 34.96875 47.359375 36.71875 
Q 47.609375 38.484375 47.609375 39.5 
Q 47.609375 43.609375 45.015625 45.890625 
Q 42.4375 48.1875 37.796875 48.1875 
Q 30.5625 48.1875 25.265625 43.296875 
Q 19.96875 38.421875 18.40625 30.328125 
L 12.5 0 
L 3.515625 0 
L 18.3125 75.984375 
L 27.296875 75.984375 
L 21.484375 46.09375 
Q 24.90625 50.6875 30.21875 53.34375 
Q 35.546875 56 41.40625 56 
Q 48.640625 56 52.609375 52.09375 
Q 56.59375 48.1875 56.59375 41.109375 
Q 56.59375 39.359375 56.375 37.359375 
Q 56.15625 35.359375 55.71875 33.015625 
z
" id="DejaVuSans-Oblique-68"/>
    </defs>
    <g style="fill:#fb4c52;" transform="translate(57.257459 81.606563)scale(0.15 -0.15)">
     <use transform="translate(0 0.529687)" xlink:href="#DejaVuSans-32"/>
     <use transform="translate(63.623047 0.529687)" xlink:href="#DejaVuSans-2e"/>
     <use transform="translate(95.410156 0.529687)" xlink:href="#DejaVuSans-35"/>
     <use transform="translate(159.990234 38.810937)scale(0.7)" xlink:href="#DejaVuSans-Oblique-74"/>
     <use transform="translate(187.436523 38.810937)scale(0.7)" xlink:href="#DejaVuSans-Oblique-68"/>
    </g>
    <!-- percentile -->
    <defs>
     <path d="M 18.109375 8.203125 
L 18.109375 -20.796875 
L 9.078125 -20.796875 
L 9.078125 54.6875 
L 18.109375 54.6875 
L 18.109375 46.390625 
Q 20.953125 51.265625 25.265625 53.625 
Q 29.59375 56 35.59375 56 
Q 45.5625 56 51.78125 48.09375 
Q 58.015625 40.1875 58.015625 27.296875 
Q 58.015625 14.40625 51.78125 6.484375 
Q 45.5625 -1.421875 35.59375 -1.421875 
Q 29.59375 -1.421875 25.265625 0.953125 
Q 20.953125 3.328125 18.109375 8.203125 
z
M 48.6875 27.296875 
Q 48.6875 37.203125 44.609375 42.84375 
Q 40.53125 48.484375 33.40625 48.484375 
Q 26.265625 48.484375 22.1875 42.84375 
Q 18.109375 37.203125 18.109375 27.296875 
Q 18.109375 17.390625 22.1875 11.75 
Q 26.265625 6.109375 33.40625 6.109375 
Q 40.53125 6.109375 44.609375 11.75 
Q 48.6875 17.390625 48.6875 27.296875 
z
" id="DejaVuSans-70"/>
     <path d="M 54.890625 33.015625 
L 54.890625 0 
L 45.90625 0 
L 45.90625 32.71875 
Q 45.90625 40.484375 42.875 44.328125 
Q 39.84375 48.1875 33.796875 48.1875 
Q 26.515625 48.1875 22.3125 43.546875 
Q 18.109375 38.921875 18.109375 30.90625 
L 18.109375 0 
L 9.078125 0 
L 9.078125 54.6875 
L 18.109375 54.6875 
L 18.109375 46.1875 
Q 21.34375 51.125 25.703125 53.5625 
Q 30.078125 56 35.796875 56 
Q 45.21875 56 50.046875 50.171875 
Q 54.890625 44.34375 54.890625 33.015625 
z
" id="DejaVuSans-6e"/>
    </defs>
    <g style="fill:#fb4c52;" transform="translate(37.211366 98.403281)scale(0.15 -0.15)">
     <use xlink:href="#DejaVuSans-70"/>
     <use x="63.476562" xlink:href="#DejaVuSans-65"/>
     <use x="125" xlink:href="#DejaVuSans-72"/>
     <use x="166.082031" xlink:href="#DejaVuSans-63"/>
     <use x="221.0625" xlink:href="#DejaVuSans-65"/>
     <use x="282.585938" xlink:href="#DejaVuSans-6e"/>
     <use x="345.964844" xlink:href="#DejaVuSans-74"/>
     <use x="385.173828" xlink:href="#DejaVuSans-69"/>
     <use x="412.957031" xlink:href="#DejaVuSans-6c"/>
     <use x="440.740234" xlink:href="#DejaVuSans-65"/>
    </g>
    <!-- 4.07 -->
    <defs>
     <path d="M 8.203125 72.90625 
L 55.078125 72.90625 
L 55.078125 68.703125 
L 28.609375 0 
L 18.3125 0 
L 43.21875 64.59375 
L 8.203125 64.59375 
z
" id="DejaVuSans-37"/>
    </defs>
    <g style="fill:#fb4c52;" transform="translate(58.183241 115.2)scale(0.15 -0.15)">
     <use xlink:href="#DejaVuSans-34"/>
     <use x="63.623047" xlink:href="#DejaVuSans-2e"/>
     <use x="95.410156" xlink:href="#DejaVuSans-30"/>
     <use x="159.033203" xlink:href="#DejaVuSans-37"/>
    </g>
   </g>
   <g id="text_12">
    <!-- 97.5$^{th}$ -->
    <defs>
     <path d="M 10.984375 1.515625 
L 10.984375 10.5 
Q 14.703125 8.734375 18.5 7.8125 
Q 22.3125 6.890625 25.984375 6.890625 
Q 35.75 6.890625 40.890625 13.453125 
Q 46.046875 20.015625 46.78125 33.40625 
Q 43.953125 29.203125 39.59375 26.953125 
Q 35.25 24.703125 29.984375 24.703125 
Q 19.046875 24.703125 12.671875 31.3125 
Q 6.296875 37.9375 6.296875 49.421875 
Q 6.296875 60.640625 12.9375 67.421875 
Q 19.578125 74.21875 30.609375 74.21875 
Q 43.265625 74.21875 49.921875 64.515625 
Q 56.59375 54.828125 56.59375 36.375 
Q 56.59375 19.140625 48.40625 8.859375 
Q 40.234375 -1.421875 26.421875 -1.421875 
Q 22.703125 -1.421875 18.890625 -0.6875 
Q 15.09375 0.046875 10.984375 1.515625 
z
M 30.609375 32.421875 
Q 37.25 32.421875 41.125 36.953125 
Q 45.015625 41.5 45.015625 49.421875 
Q 45.015625 57.28125 41.125 61.84375 
Q 37.25 66.40625 30.609375 66.40625 
Q 23.96875 66.40625 20.09375 61.84375 
Q 16.21875 57.28125 16.21875 49.421875 
Q 16.21875 41.5 20.09375 36.953125 
Q 23.96875 32.421875 30.609375 32.421875 
z
" id="DejaVuSans-39"/>
    </defs>
    <g style="fill:#fb4c52;" transform="translate(209.82367 81.606563)scale(0.15 -0.15)">
     <use transform="translate(0 0.529687)" xlink:href="#DejaVuSans-39"/>
     <use transform="translate(63.623047 0.529687)" xlink:href="#DejaVuSans-37"/>
     <use transform="translate(127.246094 0.529687)" xlink:href="#DejaVuSans-2e"/>
     <use transform="translate(159.033203 0.529687)" xlink:href="#DejaVuSans-35"/>
     <use transform="translate(223.613281 38.810937)scale(0.7)" xlink:href="#DejaVuSans-Oblique-74"/>
     <use transform="translate(251.05957 38.810937)scale(0.7)" xlink:href="#DejaVuSans-Oblique-68"/>
    </g>
    <!-- percentile -->
    <g style="fill:#fb4c52;" transform="translate(194.577576 98.403281)scale(0.15 -0.15)">
     <use xlink:href="#DejaVuSans-70"/>
     <use x="63.476562" xlink:href="#DejaVuSans-65"/>
     <use x="125" xlink:href="#DejaVuSans-72"/>
     <use x="166.082031" xlink:href="#DejaVuSans-63"/>
     <use x="221.0625" xlink:href="#DejaVuSans-65"/>
     <use x="282.585938" xlink:href="#DejaVuSans-6e"/>
     <use x="345.964844" xlink:href="#DejaVuSans-74"/>
     <use x="385.173828" xlink:href="#DejaVuSans-69"/>
     <use x="412.957031" xlink:href="#DejaVuSans-6c"/>
     <use x="440.740234" xlink:href="#DejaVuSans-65"/>
    </g>
    <!-- 10.07 -->
    <g style="fill:#fb4c52;" transform="translate(210.777576 115.2)scale(0.15 -0.15)">
     <use xlink:href="#DejaVuSans-31"/>
     <use x="63.623047" xlink:href="#DejaVuSans-30"/>
     <use x="127.246094" xlink:href="#DejaVuSans-2e"/>
     <use x="159.033203" xlink:href="#DejaVuSans-30"/>
     <use x="222.65625" xlink:href="#DejaVuSans-37"/>
    </g>
   </g>
  </g>
 </g>
 <defs>
  <clipPath id="pd094a8120e">
   <rect height="216" width="388.8" x="12.96" y="28.8"/>
  </clipPath>
 </defs>
</svg>
