<?xml version="1.0" encoding="utf-8" standalone="no"?>
<!DOCTYPE svg PUBLIC "-//W3C//DTD SVG 1.1//EN"
  "http://www.w3.org/Graphics/SVG/1.1/DTD/svg11.dtd">
<!-- Created with matplotlib (http://matplotlib.org/) -->
<svg height="288pt" version="1.1" viewBox="0 0 720 288" width="720pt" xmlns="http://www.w3.org/2000/svg" xmlns:xlink="http://www.w3.org/1999/xlink">
 <defs>
  <style type="text/css">
*{stroke-linecap:butt;stroke-linejoin:round;}
  </style>
 </defs>
 <g id="figure_1">
  <g id="patch_1">
   <path d="M 0 288 
L 720 288 
L 720 0 
L 0 0 
z
" style="fill:none;"/>
  </g>
  <g id="axes_1">
   <g id="patch_2">
    <path d="M 72 244.8 
L 662.4 244.8 
L 662.4 28.8 
L 72 28.8 
z
" style="fill:none;"/>
   </g>
   <g id="patch_3">
    <path clip-path="url(#pf5565cf764)" d="M 113.165321 244.8 
L 117.006671 244.8 
L 117.006671 244.636475 
L 113.165321 244.636475 
z
" style="fill:#00bfff;"/>
   </g>
   <g id="patch_4">
    <path clip-path="url(#pf5565cf764)" d="M 117.006671 244.8 
L 120.84802 244.8 
L 120.84802 244.8 
L 117.006671 244.8 
z
" style="fill:#00bfff;"/>
   </g>
   <g id="patch_5">
    <path clip-path="url(#pf5565cf764)" d="M 120.84802 244.8 
L 124.689369 244.8 
L 124.689369 244.636475 
L 120.84802 244.636475 
z
" style="fill:#00bfff;"/>
   </g>
   <g id="patch_6">
    <path clip-path="url(#pf5565cf764)" d="M 124.689369 244.8 
L 128.530719 244.8 
L 128.530719 244.8 
L 124.689369 244.8 
z
" style="fill:#00bfff;"/>
   </g>
   <g id="patch_7">
    <path clip-path="url(#pf5565cf764)" d="M 128.530719 244.8 
L 132.372068 244.8 
L 132.372068 244.8 
L 128.530719 244.8 
z
" style="fill:#00bfff;"/>
   </g>
   <g id="patch_8">
    <path clip-path="url(#pf5565cf764)" d="M 132.372068 244.8 
L 136.213417 244.8 
L 136.213417 244.8 
L 132.372068 244.8 
z
" style="fill:#00bfff;"/>
   </g>
   <g id="patch_9">
    <path clip-path="url(#pf5565cf764)" d="M 136.213417 244.8 
L 140.054766 244.8 
L 140.054766 244.8 
L 136.213417 244.8 
z
" style="fill:#00bfff;"/>
   </g>
   <g id="patch_10">
    <path clip-path="url(#pf5565cf764)" d="M 140.054766 244.8 
L 143.896116 244.8 
L 143.896116 244.8 
L 140.054766 244.8 
z
" style="fill:#00bfff;"/>
   </g>
   <g id="patch_11">
    <path clip-path="url(#pf5565cf764)" d="M 143.896116 244.8 
L 147.737465 244.8 
L 147.737465 243.818851 
L 143.896116 243.818851 
z
" style="fill:#00bfff;"/>
   </g>
   <g id="patch_12">
    <path clip-path="url(#pf5565cf764)" d="M 147.737465 244.8 
L 151.578814 244.8 
L 151.578814 244.8 
L 147.737465 244.8 
z
" style="fill:#00bfff;"/>
   </g>
   <g id="patch_13">
    <path clip-path="url(#pf5565cf764)" d="M 151.578814 244.8 
L 155.420164 244.8 
L 155.420164 242.510652 
L 151.578814 242.510652 
z
" style="fill:#00bfff;"/>
   </g>
   <g id="patch_14">
    <path clip-path="url(#pf5565cf764)" d="M 155.420164 244.8 
L 159.261513 244.8 
L 159.261513 244.8 
L 155.420164 244.8 
z
" style="fill:#00bfff;"/>
   </g>
   <g id="patch_15">
    <path clip-path="url(#pf5565cf764)" d="M 159.261513 244.8 
L 163.102862 244.8 
L 163.102862 244.8 
L 159.261513 244.8 
z
" style="fill:#00bfff;"/>
   </g>
   <g id="patch_16">
    <path clip-path="url(#pf5565cf764)" d="M 163.102862 244.8 
L 166.944211 244.8 
L 166.944211 236.950806 
L 163.102862 236.950806 
z
" style="fill:#00bfff;"/>
   </g>
   <g id="patch_17">
    <path clip-path="url(#pf5565cf764)" d="M 166.944211 244.8 
L 170.785561 244.8 
L 170.785561 244.8 
L 166.944211 244.8 
z
" style="fill:#00bfff;"/>
   </g>
   <g id="patch_18">
    <path clip-path="url(#pf5565cf764)" d="M 170.785561 244.8 
L 174.62691 244.8 
L 174.62691 244.8 
L 170.785561 244.8 
z
" style="fill:#00bfff;"/>
   </g>
   <g id="patch_19">
    <path clip-path="url(#pf5565cf764)" d="M 174.62691 244.8 
L 178.468259 244.8 
L 178.468259 229.755712 
L 174.62691 229.755712 
z
" style="fill:#00bfff;"/>
   </g>
   <g id="patch_20">
    <path clip-path="url(#pf5565cf764)" d="M 178.468259 244.8 
L 182.309609 244.8 
L 182.309609 244.8 
L 178.468259 244.8 
z
" style="fill:#00bfff;"/>
   </g>
   <g id="patch_21">
    <path clip-path="url(#pf5565cf764)" d="M 182.309609 244.8 
L 186.150958 244.8 
L 186.150958 244.8 
L 182.309609 244.8 
z
" style="fill:#00bfff;"/>
   </g>
   <g id="patch_22">
    <path clip-path="url(#pf5565cf764)" d="M 186.150958 244.8 
L 189.992307 244.8 
L 189.992307 219.29012 
L 186.150958 219.29012 
z
" style="fill:#00bfff;"/>
   </g>
   <g id="patch_23">
    <path clip-path="url(#pf5565cf764)" d="M 189.992307 244.8 
L 193.833656 244.8 
L 193.833656 244.8 
L 189.992307 244.8 
z
" style="fill:#00bfff;"/>
   </g>
   <g id="patch_24">
    <path clip-path="url(#pf5565cf764)" d="M 193.833656 244.8 
L 197.675006 244.8 
L 197.675006 192.472042 
L 193.833656 192.472042 
z
" style="fill:#00bfff;"/>
   </g>
   <g id="patch_25">
    <path clip-path="url(#pf5565cf764)" d="M 197.675006 244.8 
L 201.516355 244.8 
L 201.516355 244.8 
L 197.675006 244.8 
z
" style="fill:#00bfff;"/>
   </g>
   <g id="patch_26">
    <path clip-path="url(#pf5565cf764)" d="M 201.516355 244.8 
L 205.357704 244.8 
L 205.357704 244.8 
L 201.516355 244.8 
z
" style="fill:#00bfff;"/>
   </g>
   <g id="patch_27">
    <path clip-path="url(#pf5565cf764)" d="M 205.357704 244.8 
L 209.199054 244.8 
L 209.199054 176.610129 
L 205.357704 176.610129 
z
" style="fill:#00bfff;"/>
   </g>
   <g id="patch_28">
    <path clip-path="url(#pf5565cf764)" d="M 209.199054 244.8 
L 213.040403 244.8 
L 213.040403 244.8 
L 209.199054 244.8 
z
" style="fill:#00bfff;"/>
   </g>
   <g id="patch_29">
    <path clip-path="url(#pf5565cf764)" d="M 213.040403 244.8 
L 216.881752 244.8 
L 216.881752 244.8 
L 213.040403 244.8 
z
" style="fill:#00bfff;"/>
   </g>
   <g id="patch_30">
    <path clip-path="url(#pf5565cf764)" d="M 216.881752 244.8 
L 220.723101 244.8 
L 220.723101 126.080945 
L 216.881752 126.080945 
z
" style="fill:#00bfff;"/>
   </g>
   <g id="patch_31">
    <path clip-path="url(#pf5565cf764)" d="M 220.723101 244.8 
L 224.564451 244.8 
L 224.564451 244.8 
L 220.723101 244.8 
z
" style="fill:#00bfff;"/>
   </g>
   <g id="patch_32">
    <path clip-path="url(#pf5565cf764)" d="M 224.564451 244.8 
L 228.4058 244.8 
L 228.4058 89.614899 
L 224.564451 89.614899 
z
" style="fill:#00bfff;"/>
   </g>
   <g id="patch_33">
    <path clip-path="url(#pf5565cf764)" d="M 228.4058 244.8 
L 232.247149 244.8 
L 232.247149 244.8 
L 228.4058 244.8 
z
" style="fill:#00bfff;"/>
   </g>
   <g id="patch_34">
    <path clip-path="url(#pf5565cf764)" d="M 232.247149 244.8 
L 236.088499 244.8 
L 236.088499 244.8 
L 232.247149 244.8 
z
" style="fill:#00bfff;"/>
   </g>
   <g id="patch_35">
    <path clip-path="url(#pf5565cf764)" d="M 236.088499 244.8 
L 239.929848 244.8 
L 239.929848 68.520191 
L 236.088499 68.520191 
z
" style="fill:#00bfff;"/>
   </g>
   <g id="patch_36">
    <path clip-path="url(#pf5565cf764)" d="M 239.929848 244.8 
L 243.771197 244.8 
L 243.771197 244.8 
L 239.929848 244.8 
z
" style="fill:#00bfff;"/>
   </g>
   <g id="patch_37">
    <path clip-path="url(#pf5565cf764)" d="M 243.771197 244.8 
L 247.612547 244.8 
L 247.612547 244.8 
L 243.771197 244.8 
z
" style="fill:#00bfff;"/>
   </g>
   <g id="patch_38">
    <path clip-path="url(#pf5565cf764)" d="M 247.612547 244.8 
L 251.453896 244.8 
L 251.453896 41.538587 
L 247.612547 41.538587 
z
" style="fill:#00bfff;"/>
   </g>
   <g id="patch_39">
    <path clip-path="url(#pf5565cf764)" d="M 251.453896 244.8 
L 255.295245 244.8 
L 255.295245 244.8 
L 251.453896 244.8 
z
" style="fill:#00bfff;"/>
   </g>
   <g id="patch_40">
    <path clip-path="url(#pf5565cf764)" d="M 255.295245 244.8 
L 259.136594 244.8 
L 259.136594 244.8 
L 255.295245 244.8 
z
" style="fill:#00bfff;"/>
   </g>
   <g id="patch_41">
    <path clip-path="url(#pf5565cf764)" d="M 259.136594 244.8 
L 262.977944 244.8 
L 262.977944 39.085714 
L 259.136594 39.085714 
z
" style="fill:#00bfff;"/>
   </g>
   <g id="patch_42">
    <path clip-path="url(#pf5565cf764)" d="M 262.977944 244.8 
L 266.819293 244.8 
L 266.819293 244.8 
L 262.977944 244.8 
z
" style="fill:#00bfff;"/>
   </g>
   <g id="patch_43">
    <path clip-path="url(#pf5565cf764)" d="M 266.819293 244.8 
L 270.660642 244.8 
L 270.660642 46.771383 
L 266.819293 46.771383 
z
" style="fill:#00bfff;"/>
   </g>
   <g id="patch_44">
    <path clip-path="url(#pf5565cf764)" d="M 270.660642 244.8 
L 274.501992 244.8 
L 274.501992 244.8 
L 270.660642 244.8 
z
" style="fill:#00bfff;"/>
   </g>
   <g id="patch_45">
    <path clip-path="url(#pf5565cf764)" d="M 274.501992 244.8 
L 278.343341 244.8 
L 278.343341 244.8 
L 274.501992 244.8 
z
" style="fill:#00bfff;"/>
   </g>
   <g id="patch_46">
    <path clip-path="url(#pf5565cf764)" d="M 278.343341 244.8 
L 282.18469 244.8 
L 282.18469 86.344402 
L 278.343341 86.344402 
z
" style="fill:#00bfff;"/>
   </g>
   <g id="patch_47">
    <path clip-path="url(#pf5565cf764)" d="M 282.18469 244.8 
L 286.026039 244.8 
L 286.026039 244.8 
L 282.18469 244.8 
z
" style="fill:#00bfff;"/>
   </g>
   <g id="patch_48">
    <path clip-path="url(#pf5565cf764)" d="M 286.026039 244.8 
L 289.867389 244.8 
L 289.867389 244.8 
L 286.026039 244.8 
z
" style="fill:#00bfff;"/>
   </g>
   <g id="patch_49">
    <path clip-path="url(#pf5565cf764)" d="M 289.867389 244.8 
L 293.708738 244.8 
L 293.708738 133.930139 
L 289.867389 133.930139 
z
" style="fill:#00bfff;"/>
   </g>
   <g id="patch_50">
    <path clip-path="url(#pf5565cf764)" d="M 293.708738 244.8 
L 297.550087 244.8 
L 297.550087 244.8 
L 293.708738 244.8 
z
" style="fill:#00bfff;"/>
   </g>
   <g id="patch_51">
    <path clip-path="url(#pf5565cf764)" d="M 297.550087 244.8 
L 301.391437 244.8 
L 301.391437 244.8 
L 297.550087 244.8 
z
" style="fill:#00bfff;"/>
   </g>
   <g id="patch_52">
    <path clip-path="url(#pf5565cf764)" d="M 301.391437 244.8 
L 305.232786 244.8 
L 305.232786 171.050284 
L 301.391437 171.050284 
z
" style="fill:#00bfff;"/>
   </g>
   <g id="patch_53">
    <path clip-path="url(#pf5565cf764)" d="M 305.232786 244.8 
L 309.074135 244.8 
L 309.074135 244.8 
L 305.232786 244.8 
z
" style="fill:#00bfff;"/>
   </g>
   <g id="patch_54">
    <path clip-path="url(#pf5565cf764)" d="M 309.074135 244.8 
L 312.915484 244.8 
L 312.915484 206.371656 
L 309.074135 206.371656 
z
" style="fill:#00bfff;"/>
   </g>
   <g id="patch_55">
    <path clip-path="url(#pf5565cf764)" d="M 312.915484 244.8 
L 316.756834 244.8 
L 316.756834 244.8 
L 312.915484 244.8 
z
" style="fill:#00bfff;"/>
   </g>
   <g id="patch_56">
    <path clip-path="url(#pf5565cf764)" d="M 316.756834 244.8 
L 320.598183 244.8 
L 320.598183 244.8 
L 316.756834 244.8 
z
" style="fill:#00bfff;"/>
   </g>
   <g id="patch_57">
    <path clip-path="url(#pf5565cf764)" d="M 320.598183 244.8 
L 324.439532 244.8 
L 324.439532 227.302839 
L 320.598183 227.302839 
z
" style="fill:#00bfff;"/>
   </g>
   <g id="patch_58">
    <path clip-path="url(#pf5565cf764)" d="M 324.439532 244.8 
L 328.280882 244.8 
L 328.280882 244.8 
L 324.439532 244.8 
z
" style="fill:#00bfff;"/>
   </g>
   <g id="patch_59">
    <path clip-path="url(#pf5565cf764)" d="M 328.280882 244.8 
L 332.122231 244.8 
L 332.122231 244.8 
L 328.280882 244.8 
z
" style="fill:#00bfff;"/>
   </g>
   <g id="patch_60">
    <path clip-path="url(#pf5565cf764)" d="M 332.122231 244.8 
L 335.96358 244.8 
L 335.96358 239.567204 
L 332.122231 239.567204 
z
" style="fill:#00bfff;"/>
   </g>
   <g id="patch_61">
    <path clip-path="url(#pf5565cf764)" d="M 335.96358 244.8 
L 339.804929 244.8 
L 339.804929 244.8 
L 335.96358 244.8 
z
" style="fill:#00bfff;"/>
   </g>
   <g id="patch_62">
    <path clip-path="url(#pf5565cf764)" d="M 339.804929 244.8 
L 343.646279 244.8 
L 343.646279 243.491801 
L 339.804929 243.491801 
z
" style="fill:#00bfff;"/>
   </g>
   <g id="matplotlib.axis_1">
    <g id="xtick_1">
     <g id="line2d_1">
      <defs>
       <path d="M 0 0 
L 0 4 
" id="ma3be8087c3" style="stroke:#222222;"/>
      </defs>
      <g>
       <use style="fill:#222222;stroke:#222222;" x="140.123077" xlink:href="#ma3be8087c3" y="244.8"/>
      </g>
     </g>
     <g id="text_1">
      <!-- −0.05 -->
      <defs>
       <path d="M 10.59375 35.5 
L 73.1875 35.5 
L 73.1875 27.203125 
L 10.59375 27.203125 
z
" id="DejaVuSans-2212"/>
       <path d="M 31.78125 66.40625 
Q 24.171875 66.40625 20.328125 58.90625 
Q 16.5 51.421875 16.5 36.375 
Q 16.5 21.390625 20.328125 13.890625 
Q 24.171875 6.390625 31.78125 6.390625 
Q 39.453125 6.390625 43.28125 13.890625 
Q 47.125 21.390625 47.125 36.375 
Q 47.125 51.421875 43.28125 58.90625 
Q 39.453125 66.40625 31.78125 66.40625 
z
M 31.78125 74.21875 
Q 44.046875 74.21875 50.515625 64.515625 
Q 56.984375 54.828125 56.984375 36.375 
Q 56.984375 17.96875 50.515625 8.265625 
Q 44.046875 -1.421875 31.78125 -1.421875 
Q 19.53125 -1.421875 13.0625 8.265625 
Q 6.59375 17.96875 6.59375 36.375 
Q 6.59375 54.828125 13.0625 64.515625 
Q 19.53125 74.21875 31.78125 74.21875 
z
" id="DejaVuSans-30"/>
       <path d="M 10.6875 12.40625 
L 21 12.40625 
L 21 0 
L 10.6875 0 
z
" id="DejaVuSans-2e"/>
       <path d="M 10.796875 72.90625 
L 49.515625 72.90625 
L 49.515625 64.59375 
L 19.828125 64.59375 
L 19.828125 46.734375 
Q 21.96875 47.46875 24.109375 47.828125 
Q 26.265625 48.1875 28.421875 48.1875 
Q 40.625 48.1875 47.75 41.5 
Q 54.890625 34.8125 54.890625 23.390625 
Q 54.890625 11.625 47.5625 5.09375 
Q 40.234375 -1.421875 26.90625 -1.421875 
Q 22.3125 -1.421875 17.546875 -0.640625 
Q 12.796875 0.140625 7.71875 1.703125 
L 7.71875 11.625 
Q 12.109375 9.234375 16.796875 8.0625 
Q 21.484375 6.890625 26.703125 6.890625 
Q 35.15625 6.890625 40.078125 11.328125 
Q 45.015625 15.765625 45.015625 23.390625 
Q 45.015625 31 40.078125 35.4375 
Q 35.15625 39.890625 26.703125 39.890625 
Q 22.75 39.890625 18.8125 39.015625 
Q 14.890625 38.140625 10.796875 36.28125 
z
" id="DejaVuSans-35"/>
      </defs>
      <g style="fill:#222222;" transform="translate(120.203624 262.677969)scale(0.13 -0.13)">
       <use xlink:href="#DejaVuSans-2212"/>
       <use x="83.789062" xlink:href="#DejaVuSans-30"/>
       <use x="147.412109" xlink:href="#DejaVuSans-2e"/>
       <use x="179.199219" xlink:href="#DejaVuSans-30"/>
       <use x="242.822266" xlink:href="#DejaVuSans-35"/>
      </g>
     </g>
    </g>
    <g id="xtick_2">
     <g id="line2d_2">
      <g>
       <use style="fill:#222222;stroke:#222222;" x="253.661538" xlink:href="#ma3be8087c3" y="244.8"/>
      </g>
     </g>
     <g id="text_2">
      <!-- 0.00 -->
      <g style="fill:#222222;" transform="translate(239.188882 262.677969)scale(0.13 -0.13)">
       <use xlink:href="#DejaVuSans-30"/>
       <use x="63.623047" xlink:href="#DejaVuSans-2e"/>
       <use x="95.410156" xlink:href="#DejaVuSans-30"/>
       <use x="159.033203" xlink:href="#DejaVuSans-30"/>
      </g>
     </g>
    </g>
    <g id="xtick_3">
     <g id="line2d_3">
      <g>
       <use style="fill:#222222;stroke:#222222;" x="367.2" xlink:href="#ma3be8087c3" y="244.8"/>
      </g>
     </g>
     <g id="text_3">
      <!-- 0.05 -->
      <g style="fill:#222222;" transform="translate(352.727344 262.677969)scale(0.13 -0.13)">
       <use xlink:href="#DejaVuSans-30"/>
       <use x="63.623047" xlink:href="#DejaVuSans-2e"/>
       <use x="95.410156" xlink:href="#DejaVuSans-30"/>
       <use x="159.033203" xlink:href="#DejaVuSans-35"/>
      </g>
     </g>
    </g>
    <g id="xtick_4">
     <g id="line2d_4">
      <g>
       <use style="fill:#222222;stroke:#222222;" x="480.738462" xlink:href="#ma3be8087c3" y="244.8"/>
      </g>
     </g>
     <g id="text_4">
      <!-- 0.10 -->
      <defs>
       <path d="M 12.40625 8.296875 
L 28.515625 8.296875 
L 28.515625 63.921875 
L 10.984375 60.40625 
L 10.984375 69.390625 
L 28.421875 72.90625 
L 38.28125 72.90625 
L 38.28125 8.296875 
L 54.390625 8.296875 
L 54.390625 0 
L 12.40625 0 
z
" id="DejaVuSans-31"/>
      </defs>
      <g style="fill:#222222;" transform="translate(466.265805 262.677969)scale(0.13 -0.13)">
       <use xlink:href="#DejaVuSans-30"/>
       <use x="63.623047" xlink:href="#DejaVuSans-2e"/>
       <use x="95.410156" xlink:href="#DejaVuSans-31"/>
       <use x="159.033203" xlink:href="#DejaVuSans-30"/>
      </g>
     </g>
    </g>
    <g id="xtick_5">
     <g id="line2d_5">
      <g>
       <use style="fill:#222222;stroke:#222222;" x="594.276923" xlink:href="#ma3be8087c3" y="244.8"/>
      </g>
     </g>
     <g id="text_5">
      <!-- 0.15 -->
      <g style="fill:#222222;" transform="translate(579.804267 262.677969)scale(0.13 -0.13)">
       <use xlink:href="#DejaVuSans-30"/>
       <use x="63.623047" xlink:href="#DejaVuSans-2e"/>
       <use x="95.410156" xlink:href="#DejaVuSans-31"/>
       <use x="159.033203" xlink:href="#DejaVuSans-35"/>
      </g>
     </g>
    </g>
   </g>
   <g id="matplotlib.axis_2"/>
   <g id="patch_63">
    <path d="M 72 244.8 
L 662.4 244.8 
" style="fill:none;stroke:#222222;stroke-linecap:square;stroke-linejoin:miter;"/>
   </g>
   <g id="text_6">
    <!-- $\hat{p}_{\mathrm{present}}-\hat{p}_{\mathrm{absent}}$ -->
    <defs>
     <path d="M -28.609375 79.984375 
L -21.390625 79.984375 
L -9.421875 61.625 
L -16.21875 61.625 
L -25 73.578125 
L -33.796875 61.625 
L -40.578125 61.625 
z
M -25 56 
z
" id="DejaVuSans-302"/>
     <path d="M 49.609375 33.6875 
Q 49.609375 40.875 46.484375 44.671875 
Q 43.359375 48.484375 37.5 48.484375 
Q 33.5 48.484375 29.859375 46.4375 
Q 26.21875 44.390625 23.390625 40.484375 
Q 20.609375 36.625 18.9375 31.15625 
Q 17.28125 25.6875 17.28125 20.3125 
Q 17.28125 13.484375 20.40625 9.796875 
Q 23.53125 6.109375 29.296875 6.109375 
Q 33.546875 6.109375 37.1875 8.109375 
Q 40.828125 10.109375 43.40625 13.921875 
Q 46.1875 17.921875 47.890625 23.34375 
Q 49.609375 28.765625 49.609375 33.6875 
z
M 21.78125 46.390625 
Q 25.390625 51.125 30.296875 53.5625 
Q 35.203125 56 41.21875 56 
Q 49.609375 56 54.25 50.5 
Q 58.890625 45.015625 58.890625 35.109375 
Q 58.890625 27 56 19.65625 
Q 53.125 12.3125 47.703125 6.5 
Q 44.09375 2.640625 39.546875 0.609375 
Q 35.015625 -1.421875 29.984375 -1.421875 
Q 24.171875 -1.421875 20.21875 1 
Q 16.265625 3.421875 14.3125 8.203125 
L 8.6875 -20.796875 
L -0.296875 -20.796875 
L 14.40625 54.6875 
L 23.390625 54.6875 
z
" id="DejaVuSans-Oblique-70"/>
     <path d="M 18.109375 8.203125 
L 18.109375 -20.796875 
L 9.078125 -20.796875 
L 9.078125 54.6875 
L 18.109375 54.6875 
L 18.109375 46.390625 
Q 20.953125 51.265625 25.265625 53.625 
Q 29.59375 56 35.59375 56 
Q 45.5625 56 51.78125 48.09375 
Q 58.015625 40.1875 58.015625 27.296875 
Q 58.015625 14.40625 51.78125 6.484375 
Q 45.5625 -1.421875 35.59375 -1.421875 
Q 29.59375 -1.421875 25.265625 0.953125 
Q 20.953125 3.328125 18.109375 8.203125 
z
M 48.6875 27.296875 
Q 48.6875 37.203125 44.609375 42.84375 
Q 40.53125 48.484375 33.40625 48.484375 
Q 26.265625 48.484375 22.1875 42.84375 
Q 18.109375 37.203125 18.109375 27.296875 
Q 18.109375 17.390625 22.1875 11.75 
Q 26.265625 6.109375 33.40625 6.109375 
Q 40.53125 6.109375 44.609375 11.75 
Q 48.6875 17.390625 48.6875 27.296875 
z
" id="DejaVuSans-70"/>
     <path d="M 41.109375 46.296875 
Q 39.59375 47.171875 37.8125 47.578125 
Q 36.03125 48 33.890625 48 
Q 26.265625 48 22.1875 43.046875 
Q 18.109375 38.09375 18.109375 28.8125 
L 18.109375 0 
L 9.078125 0 
L 9.078125 54.6875 
L 18.109375 54.6875 
L 18.109375 46.1875 
Q 20.953125 51.171875 25.484375 53.578125 
Q 30.03125 56 36.53125 56 
Q 37.453125 56 38.578125 55.875 
Q 39.703125 55.765625 41.0625 55.515625 
z
" id="DejaVuSans-72"/>
     <path d="M 56.203125 29.59375 
L 56.203125 25.203125 
L 14.890625 25.203125 
Q 15.484375 15.921875 20.484375 11.0625 
Q 25.484375 6.203125 34.421875 6.203125 
Q 39.59375 6.203125 44.453125 7.46875 
Q 49.3125 8.734375 54.109375 11.28125 
L 54.109375 2.78125 
Q 49.265625 0.734375 44.1875 -0.34375 
Q 39.109375 -1.421875 33.890625 -1.421875 
Q 20.796875 -1.421875 13.15625 6.1875 
Q 5.515625 13.8125 5.515625 26.8125 
Q 5.515625 40.234375 12.765625 48.109375 
Q 20.015625 56 32.328125 56 
Q 43.359375 56 49.78125 48.890625 
Q 56.203125 41.796875 56.203125 29.59375 
z
M 47.21875 32.234375 
Q 47.125 39.59375 43.09375 43.984375 
Q 39.0625 48.390625 32.421875 48.390625 
Q 24.90625 48.390625 20.390625 44.140625 
Q 15.875 39.890625 15.1875 32.171875 
z
" id="DejaVuSans-65"/>
     <path d="M 44.28125 53.078125 
L 44.28125 44.578125 
Q 40.484375 46.53125 36.375 47.5 
Q 32.28125 48.484375 27.875 48.484375 
Q 21.1875 48.484375 17.84375 46.4375 
Q 14.5 44.390625 14.5 40.28125 
Q 14.5 37.15625 16.890625 35.375 
Q 19.28125 33.59375 26.515625 31.984375 
L 29.59375 31.296875 
Q 39.15625 29.25 43.1875 25.515625 
Q 47.21875 21.78125 47.21875 15.09375 
Q 47.21875 7.46875 41.1875 3.015625 
Q 35.15625 -1.421875 24.609375 -1.421875 
Q 20.21875 -1.421875 15.453125 -0.5625 
Q 10.6875 0.296875 5.421875 2 
L 5.421875 11.28125 
Q 10.40625 8.6875 15.234375 7.390625 
Q 20.0625 6.109375 24.8125 6.109375 
Q 31.15625 6.109375 34.5625 8.28125 
Q 37.984375 10.453125 37.984375 14.40625 
Q 37.984375 18.0625 35.515625 20.015625 
Q 33.0625 21.96875 24.703125 23.78125 
L 21.578125 24.515625 
Q 13.234375 26.265625 9.515625 29.90625 
Q 5.8125 33.546875 5.8125 39.890625 
Q 5.8125 47.609375 11.28125 51.796875 
Q 16.75 56 26.8125 56 
Q 31.78125 56 36.171875 55.265625 
Q 40.578125 54.546875 44.28125 53.078125 
z
" id="DejaVuSans-73"/>
     <path d="M 54.890625 33.015625 
L 54.890625 0 
L 45.90625 0 
L 45.90625 32.71875 
Q 45.90625 40.484375 42.875 44.328125 
Q 39.84375 48.1875 33.796875 48.1875 
Q 26.515625 48.1875 22.3125 43.546875 
Q 18.109375 38.921875 18.109375 30.90625 
L 18.109375 0 
L 9.078125 0 
L 9.078125 54.6875 
L 18.109375 54.6875 
L 18.109375 46.1875 
Q 21.34375 51.125 25.703125 53.5625 
Q 30.078125 56 35.796875 56 
Q 45.21875 56 50.046875 50.171875 
Q 54.890625 44.34375 54.890625 33.015625 
z
" id="DejaVuSans-6e"/>
     <path d="M 18.3125 70.21875 
L 18.3125 54.6875 
L 36.8125 54.6875 
L 36.8125 47.703125 
L 18.3125 47.703125 
L 18.3125 18.015625 
Q 18.3125 11.328125 20.140625 9.421875 
Q 21.96875 7.515625 27.59375 7.515625 
L 36.8125 7.515625 
L 36.8125 0 
L 27.59375 0 
Q 17.1875 0 13.234375 3.875 
Q 9.28125 7.765625 9.28125 18.015625 
L 9.28125 47.703125 
L 2.6875 47.703125 
L 2.6875 54.6875 
L 9.28125 54.6875 
L 9.28125 70.21875 
z
" id="DejaVuSans-74"/>
     <path d="M 34.28125 27.484375 
Q 23.390625 27.484375 19.1875 25 
Q 14.984375 22.515625 14.984375 16.5 
Q 14.984375 11.71875 18.140625 8.90625 
Q 21.296875 6.109375 26.703125 6.109375 
Q 34.1875 6.109375 38.703125 11.40625 
Q 43.21875 16.703125 43.21875 25.484375 
L 43.21875 27.484375 
z
M 52.203125 31.203125 
L 52.203125 0 
L 43.21875 0 
L 43.21875 8.296875 
Q 40.140625 3.328125 35.546875 0.953125 
Q 30.953125 -1.421875 24.3125 -1.421875 
Q 15.921875 -1.421875 10.953125 3.296875 
Q 6 8.015625 6 15.921875 
Q 6 25.140625 12.171875 29.828125 
Q 18.359375 34.515625 30.609375 34.515625 
L 43.21875 34.515625 
L 43.21875 35.40625 
Q 43.21875 41.609375 39.140625 45 
Q 35.0625 48.390625 27.6875 48.390625 
Q 23 48.390625 18.546875 47.265625 
Q 14.109375 46.140625 10.015625 43.890625 
L 10.015625 52.203125 
Q 14.9375 54.109375 19.578125 55.046875 
Q 24.21875 56 28.609375 56 
Q 40.484375 56 46.34375 49.84375 
Q 52.203125 43.703125 52.203125 31.203125 
z
" id="DejaVuSans-61"/>
     <path d="M 48.6875 27.296875 
Q 48.6875 37.203125 44.609375 42.84375 
Q 40.53125 48.484375 33.40625 48.484375 
Q 26.265625 48.484375 22.1875 42.84375 
Q 18.109375 37.203125 18.109375 27.296875 
Q 18.109375 17.390625 22.1875 11.75 
Q 26.265625 6.109375 33.40625 6.109375 
Q 40.53125 6.109375 44.609375 11.75 
Q 48.6875 17.390625 48.6875 27.296875 
z
M 18.109375 46.390625 
Q 20.953125 51.265625 25.265625 53.625 
Q 29.59375 56 35.59375 56 
Q 45.5625 56 51.78125 48.09375 
Q 58.015625 40.1875 58.015625 27.296875 
Q 58.015625 14.40625 51.78125 6.484375 
Q 45.5625 -1.421875 35.59375 -1.421875 
Q 29.59375 -1.421875 25.265625 0.953125 
Q 20.953125 3.328125 18.109375 8.203125 
L 18.109375 0 
L 9.078125 0 
L 9.078125 75.984375 
L 18.109375 75.984375 
z
" id="DejaVuSans-62"/>
    </defs>
    <g transform="translate(184.901538 285.681217)scale(0.18 -0.18)">
     <use transform="translate(64.447266 13.015625)" xlink:href="#DejaVuSans-302"/>
     <use transform="translate(0 0.515625)" xlink:href="#DejaVuSans-Oblique-70"/>
     <use transform="translate(64.433594 -15.890625)scale(0.7)" xlink:href="#DejaVuSans-70"/>
     <use transform="translate(108.867188 -15.890625)scale(0.7)" xlink:href="#DejaVuSans-72"/>
     <use transform="translate(137.646484 -15.890625)scale(0.7)" xlink:href="#DejaVuSans-65"/>
     <use transform="translate(180.712891 -15.890625)scale(0.7)" xlink:href="#DejaVuSans-73"/>
     <use transform="translate(217.182617 -15.890625)scale(0.7)" xlink:href="#DejaVuSans-65"/>
     <use transform="translate(260.249023 -15.890625)scale(0.7)" xlink:href="#DejaVuSans-6e"/>
     <use transform="translate(304.614258 -15.890625)scale(0.7)" xlink:href="#DejaVuSans-74"/>
     <use transform="translate(354.277344 0.515625)" xlink:href="#DejaVuSans-2212"/>
     <use transform="translate(521.996094 13.015625)" xlink:href="#DejaVuSans-302"/>
     <use transform="translate(457.548828 0.515625)" xlink:href="#DejaVuSans-Oblique-70"/>
     <use transform="translate(521.982422 -15.890625)scale(0.7)" xlink:href="#DejaVuSans-61"/>
     <use transform="translate(564.87793 -15.890625)scale(0.7)" xlink:href="#DejaVuSans-62"/>
     <use transform="translate(609.311523 -15.890625)scale(0.7)" xlink:href="#DejaVuSans-73"/>
     <use transform="translate(645.78125 -15.890625)scale(0.7)" xlink:href="#DejaVuSans-65"/>
     <use transform="translate(688.847656 -15.890625)scale(0.7)" xlink:href="#DejaVuSans-6e"/>
     <use transform="translate(733.212891 -15.890625)scale(0.7)" xlink:href="#DejaVuSans-74"/>
    </g>
   </g>
  </g>
  <g id="axes_2">
   <g id="line2d_6">
    <path clip-path="url(#pf5565cf764)" d="M 551.303863 244.8 
L 551.303863 28.8 
" style="fill:none;stroke:#fbc15e;stroke-linecap:square;stroke-width:1.5;"/>
   </g>
   <g id="text_7">
    <!-- Observed statistic -->
    <defs>
     <path d="M 39.40625 66.21875 
Q 28.65625 66.21875 22.328125 58.203125 
Q 16.015625 50.203125 16.015625 36.375 
Q 16.015625 22.609375 22.328125 14.59375 
Q 28.65625 6.59375 39.40625 6.59375 
Q 50.140625 6.59375 56.421875 14.59375 
Q 62.703125 22.609375 62.703125 36.375 
Q 62.703125 50.203125 56.421875 58.203125 
Q 50.140625 66.21875 39.40625 66.21875 
z
M 39.40625 74.21875 
Q 54.734375 74.21875 63.90625 63.9375 
Q 73.09375 53.65625 73.09375 36.375 
Q 73.09375 19.140625 63.90625 8.859375 
Q 54.734375 -1.421875 39.40625 -1.421875 
Q 24.03125 -1.421875 14.8125 8.828125 
Q 5.609375 19.09375 5.609375 36.375 
Q 5.609375 53.65625 14.8125 63.9375 
Q 24.03125 74.21875 39.40625 74.21875 
z
" id="DejaVuSans-4f"/>
     <path d="M 2.984375 54.6875 
L 12.5 54.6875 
L 29.59375 8.796875 
L 46.6875 54.6875 
L 56.203125 54.6875 
L 35.6875 0 
L 23.484375 0 
z
" id="DejaVuSans-76"/>
     <path d="M 45.40625 46.390625 
L 45.40625 75.984375 
L 54.390625 75.984375 
L 54.390625 0 
L 45.40625 0 
L 45.40625 8.203125 
Q 42.578125 3.328125 38.25 0.953125 
Q 33.9375 -1.421875 27.875 -1.421875 
Q 17.96875 -1.421875 11.734375 6.484375 
Q 5.515625 14.40625 5.515625 27.296875 
Q 5.515625 40.1875 11.734375 48.09375 
Q 17.96875 56 27.875 56 
Q 33.9375 56 38.25 53.625 
Q 42.578125 51.265625 45.40625 46.390625 
z
M 14.796875 27.296875 
Q 14.796875 17.390625 18.875 11.75 
Q 22.953125 6.109375 30.078125 6.109375 
Q 37.203125 6.109375 41.296875 11.75 
Q 45.40625 17.390625 45.40625 27.296875 
Q 45.40625 37.203125 41.296875 42.84375 
Q 37.203125 48.484375 30.078125 48.484375 
Q 22.953125 48.484375 18.875 42.84375 
Q 14.796875 37.203125 14.796875 27.296875 
z
" id="DejaVuSans-64"/>
     <path id="DejaVuSans-20"/>
     <path d="M 9.421875 54.6875 
L 18.40625 54.6875 
L 18.40625 0 
L 9.421875 0 
z
M 9.421875 75.984375 
L 18.40625 75.984375 
L 18.40625 64.59375 
L 9.421875 64.59375 
z
" id="DejaVuSans-69"/>
     <path d="M 48.78125 52.59375 
L 48.78125 44.1875 
Q 44.96875 46.296875 41.140625 47.34375 
Q 37.3125 48.390625 33.40625 48.390625 
Q 24.65625 48.390625 19.8125 42.84375 
Q 14.984375 37.3125 14.984375 27.296875 
Q 14.984375 17.28125 19.8125 11.734375 
Q 24.65625 6.203125 33.40625 6.203125 
Q 37.3125 6.203125 41.140625 7.25 
Q 44.96875 8.296875 48.78125 10.40625 
L 48.78125 2.09375 
Q 45.015625 0.34375 40.984375 -0.53125 
Q 36.96875 -1.421875 32.421875 -1.421875 
Q 20.0625 -1.421875 12.78125 6.34375 
Q 5.515625 14.109375 5.515625 27.296875 
Q 5.515625 40.671875 12.859375 48.328125 
Q 20.21875 56 33.015625 56 
Q 37.15625 56 41.109375 55.140625 
Q 45.0625 54.296875 48.78125 52.59375 
z
" id="DejaVuSans-63"/>
    </defs>
    <g style="fill:#fbc15e;" transform="translate(413.033454 45.523063)scale(0.14 -0.14)">
     <use xlink:href="#DejaVuSans-4f"/>
     <use x="78.710938" xlink:href="#DejaVuSans-62"/>
     <use x="142.1875" xlink:href="#DejaVuSans-73"/>
     <use x="194.287109" xlink:href="#DejaVuSans-65"/>
     <use x="255.810547" xlink:href="#DejaVuSans-72"/>
     <use x="296.923828" xlink:href="#DejaVuSans-76"/>
     <use x="356.103516" xlink:href="#DejaVuSans-65"/>
     <use x="417.626953" xlink:href="#DejaVuSans-64"/>
     <use x="481.103516" xlink:href="#DejaVuSans-20"/>
     <use x="512.890625" xlink:href="#DejaVuSans-73"/>
     <use x="564.990234" xlink:href="#DejaVuSans-74"/>
     <use x="604.199219" xlink:href="#DejaVuSans-61"/>
     <use x="665.478516" xlink:href="#DejaVuSans-74"/>
     <use x="704.6875" xlink:href="#DejaVuSans-69"/>
     <use x="732.470703" xlink:href="#DejaVuSans-73"/>
     <use x="784.570312" xlink:href="#DejaVuSans-74"/>
     <use x="823.779297" xlink:href="#DejaVuSans-69"/>
     <use x="851.5625" xlink:href="#DejaVuSans-63"/>
    </g>
    <!-- 0.131 -->
    <defs>
     <path d="M 40.578125 39.3125 
Q 47.65625 37.796875 51.625 33 
Q 55.609375 28.21875 55.609375 21.1875 
Q 55.609375 10.40625 48.1875 4.484375 
Q 40.765625 -1.421875 27.09375 -1.421875 
Q 22.515625 -1.421875 17.65625 -0.515625 
Q 12.796875 0.390625 7.625 2.203125 
L 7.625 11.71875 
Q 11.71875 9.328125 16.59375 8.109375 
Q 21.484375 6.890625 26.8125 6.890625 
Q 36.078125 6.890625 40.9375 10.546875 
Q 45.796875 14.203125 45.796875 21.1875 
Q 45.796875 27.640625 41.28125 31.265625 
Q 36.765625 34.90625 28.71875 34.90625 
L 20.21875 34.90625 
L 20.21875 43.015625 
L 29.109375 43.015625 
Q 36.375 43.015625 40.234375 45.921875 
Q 44.09375 48.828125 44.09375 54.296875 
Q 44.09375 59.90625 40.109375 62.90625 
Q 36.140625 65.921875 28.71875 65.921875 
Q 24.65625 65.921875 20.015625 65.03125 
Q 15.375 64.15625 9.8125 62.3125 
L 9.8125 71.09375 
Q 15.4375 72.65625 20.34375 73.4375 
Q 25.25 74.21875 29.59375 74.21875 
Q 40.828125 74.21875 47.359375 69.109375 
Q 53.90625 64.015625 53.90625 55.328125 
Q 53.90625 49.265625 50.4375 45.09375 
Q 46.96875 40.921875 40.578125 39.3125 
z
" id="DejaVuSans-33"/>
    </defs>
    <g style="fill:#fbc15e;" transform="translate(499.870642 61.2)scale(0.14 -0.14)">
     <use xlink:href="#DejaVuSans-30"/>
     <use x="63.623047" xlink:href="#DejaVuSans-2e"/>
     <use x="95.410156" xlink:href="#DejaVuSans-31"/>
     <use x="159.033203" xlink:href="#DejaVuSans-33"/>
     <use x="222.65625" xlink:href="#DejaVuSans-31"/>
    </g>
   </g>
  </g>
  <g id="axes_3">
   <g id="text_8">
    <!-- 0 simulations -->
    <defs>
     <path d="M 52 44.1875 
Q 55.375 50.25 60.0625 53.125 
Q 64.75 56 71.09375 56 
Q 79.640625 56 84.28125 50.015625 
Q 88.921875 44.046875 88.921875 33.015625 
L 88.921875 0 
L 79.890625 0 
L 79.890625 32.71875 
Q 79.890625 40.578125 77.09375 44.375 
Q 74.3125 48.1875 68.609375 48.1875 
Q 61.625 48.1875 57.5625 43.546875 
Q 53.515625 38.921875 53.515625 30.90625 
L 53.515625 0 
L 44.484375 0 
L 44.484375 32.71875 
Q 44.484375 40.625 41.703125 44.40625 
Q 38.921875 48.1875 33.109375 48.1875 
Q 26.21875 48.1875 22.15625 43.53125 
Q 18.109375 38.875 18.109375 30.90625 
L 18.109375 0 
L 9.078125 0 
L 9.078125 54.6875 
L 18.109375 54.6875 
L 18.109375 46.1875 
Q 21.1875 51.21875 25.484375 53.609375 
Q 29.78125 56 35.6875 56 
Q 41.65625 56 45.828125 52.96875 
Q 50 49.953125 52 44.1875 
z
" id="DejaVuSans-6d"/>
     <path d="M 8.5 21.578125 
L 8.5 54.6875 
L 17.484375 54.6875 
L 17.484375 21.921875 
Q 17.484375 14.15625 20.5 10.265625 
Q 23.53125 6.390625 29.59375 6.390625 
Q 36.859375 6.390625 41.078125 11.03125 
Q 45.3125 15.671875 45.3125 23.6875 
L 45.3125 54.6875 
L 54.296875 54.6875 
L 54.296875 0 
L 45.3125 0 
L 45.3125 8.40625 
Q 42.046875 3.421875 37.71875 1 
Q 33.40625 -1.421875 27.6875 -1.421875 
Q 18.265625 -1.421875 13.375 4.4375 
Q 8.5 10.296875 8.5 21.578125 
z
M 31.109375 56 
z
" id="DejaVuSans-75"/>
     <path d="M 9.421875 75.984375 
L 18.40625 75.984375 
L 18.40625 0 
L 9.421875 0 
z
" id="DejaVuSans-6c"/>
     <path d="M 30.609375 48.390625 
Q 23.390625 48.390625 19.1875 42.75 
Q 14.984375 37.109375 14.984375 27.296875 
Q 14.984375 17.484375 19.15625 11.84375 
Q 23.34375 6.203125 30.609375 6.203125 
Q 37.796875 6.203125 41.984375 11.859375 
Q 46.1875 17.53125 46.1875 27.296875 
Q 46.1875 37.015625 41.984375 42.703125 
Q 37.796875 48.390625 30.609375 48.390625 
z
M 30.609375 56 
Q 42.328125 56 49.015625 48.375 
Q 55.71875 40.765625 55.71875 27.296875 
Q 55.71875 13.875 49.015625 6.21875 
Q 42.328125 -1.421875 30.609375 -1.421875 
Q 18.84375 -1.421875 12.171875 6.21875 
Q 5.515625 13.875 5.515625 27.296875 
Q 5.515625 40.765625 12.171875 48.375 
Q 18.84375 56 30.609375 56 
z
" id="DejaVuSans-6f"/>
    </defs>
    <g transform="translate(574.011555 121.123063)scale(0.14 -0.14)">
     <use xlink:href="#DejaVuSans-30"/>
     <use x="63.623047" xlink:href="#DejaVuSans-20"/>
     <use x="95.410156" xlink:href="#DejaVuSans-73"/>
     <use x="147.509766" xlink:href="#DejaVuSans-69"/>
     <use x="175.292969" xlink:href="#DejaVuSans-6d"/>
     <use x="272.705078" xlink:href="#DejaVuSans-75"/>
     <use x="336.083984" xlink:href="#DejaVuSans-6c"/>
     <use x="363.867188" xlink:href="#DejaVuSans-61"/>
     <use x="425.146484" xlink:href="#DejaVuSans-74"/>
     <use x="464.355469" xlink:href="#DejaVuSans-69"/>
     <use x="492.138672" xlink:href="#DejaVuSans-6f"/>
     <use x="553.320312" xlink:href="#DejaVuSans-6e"/>
     <use x="616.699219" xlink:href="#DejaVuSans-73"/>
    </g>
    <!-- (p-value&lt;0.0001) -->
    <defs>
     <path d="M 31 75.875 
Q 24.46875 64.65625 21.28125 53.65625 
Q 18.109375 42.671875 18.109375 31.390625 
Q 18.109375 20.125 21.3125 9.0625 
Q 24.515625 -2 31 -13.1875 
L 23.1875 -13.1875 
Q 15.875 -1.703125 12.234375 9.375 
Q 8.59375 20.453125 8.59375 31.390625 
Q 8.59375 42.28125 12.203125 53.3125 
Q 15.828125 64.359375 23.1875 75.875 
z
" id="DejaVuSans-28"/>
     <path d="M 4.890625 31.390625 
L 31.203125 31.390625 
L 31.203125 23.390625 
L 4.890625 23.390625 
z
" id="DejaVuSans-2d"/>
     <path d="M 73.1875 49.21875 
L 22.796875 31.296875 
L 73.1875 13.484375 
L 73.1875 4.59375 
L 10.59375 27.296875 
L 10.59375 35.40625 
L 73.1875 58.109375 
z
" id="DejaVuSans-3c"/>
     <path d="M 8.015625 75.875 
L 15.828125 75.875 
Q 23.140625 64.359375 26.78125 53.3125 
Q 30.421875 42.28125 30.421875 31.390625 
Q 30.421875 20.453125 26.78125 9.375 
Q 23.140625 -1.703125 15.828125 -13.1875 
L 8.015625 -13.1875 
Q 14.5 -2 17.703125 9.0625 
Q 20.90625 20.125 20.90625 31.390625 
Q 20.90625 42.671875 17.703125 53.65625 
Q 14.5 64.65625 8.015625 75.875 
z
" id="DejaVuSans-29"/>
    </defs>
    <g transform="translate(574.011555 136.8)scale(0.14 -0.14)">
     <use xlink:href="#DejaVuSans-28"/>
     <use x="39.013672" xlink:href="#DejaVuSans-70"/>
     <use x="102.490234" xlink:href="#DejaVuSans-2d"/>
     <use x="138.542969" xlink:href="#DejaVuSans-76"/>
     <use x="197.722656" xlink:href="#DejaVuSans-61"/>
     <use x="259.001953" xlink:href="#DejaVuSans-6c"/>
     <use x="286.785156" xlink:href="#DejaVuSans-75"/>
     <use x="350.164062" xlink:href="#DejaVuSans-65"/>
     <use x="411.6875" xlink:href="#DejaVuSans-3c"/>
     <use x="495.476562" xlink:href="#DejaVuSans-30"/>
     <use x="559.099609" xlink:href="#DejaVuSans-2e"/>
     <use x="590.886719" xlink:href="#DejaVuSans-30"/>
     <use x="654.509766" xlink:href="#DejaVuSans-30"/>
     <use x="718.132812" xlink:href="#DejaVuSans-30"/>
     <use x="781.755859" xlink:href="#DejaVuSans-31"/>
     <use x="845.378906" xlink:href="#DejaVuSans-29"/>
    </g>
   </g>
  </g>
  <g id="axes_4">
   <g id="PolyCollection_1">
    <defs>
     <path d="M 26.584615 -43.2 
L 26.584615 -43.2 
L 31.172028 -43.2 
L 35.759441 -43.2 
L 40.346853 -43.2 
L 44.934266 -43.2 
L 49.521678 -43.2 
L 54.109091 -43.200001 
L 58.696503 -43.200002 
L 63.283916 -43.200004 
L 67.871329 -43.20001 
L 72.458741 -43.200023 
L 77.046154 -43.20005 
L 81.633566 -43.20011 
L 86.220979 -43.200235 
L 90.808392 -43.200493 
L 95.395804 -43.201011 
L 99.983217 -43.202033 
L 104.570629 -43.204005 
L 109.158042 -43.207728 
L 113.745455 -43.21461 
L 118.332867 -43.227058 
L 122.92028 -43.249094 
L 127.507692 -43.287264 
L 132.095105 -43.351958 
L 136.682517 -43.459232 
L 141.26993 -43.633245 
L 145.857343 -43.909343 
L 150.444755 -44.337776 
L 155.032168 -44.987869 
L 159.61958 -45.952282 
L 164.206993 -47.350766 
L 168.794406 -49.332561 
L 173.381818 -52.076336 
L 177.969231 -55.786466 
L 182.556643 -60.684456 
L 187.144056 -66.994614 
L 191.731469 -74.923671 
L 196.318881 -84.634914 
L 200.906294 -96.218529 
L 205.493706 -109.661041 
L 210.081119 -124.81779 
L 214.668531 -141.393051 
L 219.255944 -158.932387 
L 223.843357 -176.831024 
L 228.430769 -194.360358 
L 233.018182 -210.712322 
L 237.605594 -225.058597 
L 242.193007 -236.619005 
L 246.78042 -244.731382 
L 251.367832 -248.914286 
L 255.955245 -248.914286 
L 260.542657 -244.731382 
L 265.13007 -236.619005 
L 269.717483 -225.058597 
L 274.304895 -210.712322 
L 278.892308 -194.360358 
L 283.47972 -176.831024 
L 288.067133 -158.932387 
L 292.654545 -141.393051 
L 297.241958 -124.81779 
L 301.829371 -109.661041 
L 306.416783 -96.218529 
L 311.004196 -84.634914 
L 315.591608 -74.923671 
L 320.179021 -66.994614 
L 324.766434 -60.684456 
L 329.353846 -55.786466 
L 333.941259 -52.076336 
L 338.528671 -49.332561 
L 343.116084 -47.350766 
L 347.703497 -45.952282 
L 352.290909 -44.987869 
L 356.878322 -44.337776 
L 361.465734 -43.909343 
L 366.053147 -43.633245 
L 370.640559 -43.459232 
L 375.227972 -43.351958 
L 379.815385 -43.287264 
L 384.402797 -43.249094 
L 388.99021 -43.227058 
L 393.577622 -43.21461 
L 398.165035 -43.207728 
L 402.752448 -43.204005 
L 407.33986 -43.202033 
L 411.927273 -43.201011 
L 416.514685 -43.200493 
L 421.102098 -43.200235 
L 425.68951 -43.20011 
L 430.276923 -43.20005 
L 434.864336 -43.200023 
L 439.451748 -43.20001 
L 444.039161 -43.200004 
L 448.626573 -43.200002 
L 453.213986 -43.200001 
L 457.801399 -43.2 
L 462.388811 -43.2 
L 466.976224 -43.2 
L 471.563636 -43.2 
L 476.151049 -43.2 
L 480.738462 -43.2 
L 480.738462 -43.2 
L 480.738462 -43.2 
L 476.151049 -43.2 
L 471.563636 -43.2 
L 466.976224 -43.2 
L 462.388811 -43.2 
L 457.801399 -43.2 
L 453.213986 -43.2 
L 448.626573 -43.2 
L 444.039161 -43.2 
L 439.451748 -43.2 
L 434.864336 -43.2 
L 430.276923 -43.2 
L 425.68951 -43.2 
L 421.102098 -43.2 
L 416.514685 -43.2 
L 411.927273 -43.2 
L 407.33986 -43.2 
L 402.752448 -43.2 
L 398.165035 -43.2 
L 393.577622 -43.2 
L 388.99021 -43.2 
L 384.402797 -43.2 
L 379.815385 -43.2 
L 375.227972 -43.2 
L 370.640559 -43.2 
L 366.053147 -43.2 
L 361.465734 -43.2 
L 356.878322 -43.2 
L 352.290909 -43.2 
L 347.703497 -43.2 
L 343.116084 -43.2 
L 338.528671 -43.2 
L 333.941259 -43.2 
L 329.353846 -43.2 
L 324.766434 -43.2 
L 320.179021 -43.2 
L 315.591608 -43.2 
L 311.004196 -43.2 
L 306.416783 -43.2 
L 301.829371 -43.2 
L 297.241958 -43.2 
L 292.654545 -43.2 
L 288.067133 -43.2 
L 283.47972 -43.2 
L 278.892308 -43.2 
L 274.304895 -43.2 
L 269.717483 -43.2 
L 265.13007 -43.2 
L 260.542657 -43.2 
L 255.955245 -43.2 
L 251.367832 -43.2 
L 246.78042 -43.2 
L 242.193007 -43.2 
L 237.605594 -43.2 
L 233.018182 -43.2 
L 228.430769 -43.2 
L 223.843357 -43.2 
L 219.255944 -43.2 
L 214.668531 -43.2 
L 210.081119 -43.2 
L 205.493706 -43.2 
L 200.906294 -43.2 
L 196.318881 -43.2 
L 191.731469 -43.2 
L 187.144056 -43.2 
L 182.556643 -43.2 
L 177.969231 -43.2 
L 173.381818 -43.2 
L 168.794406 -43.2 
L 164.206993 -43.2 
L 159.61958 -43.2 
L 155.032168 -43.2 
L 150.444755 -43.2 
L 145.857343 -43.2 
L 141.26993 -43.2 
L 136.682517 -43.2 
L 132.095105 -43.2 
L 127.507692 -43.2 
L 122.92028 -43.2 
L 118.332867 -43.2 
L 113.745455 -43.2 
L 109.158042 -43.2 
L 104.570629 -43.2 
L 99.983217 -43.2 
L 95.395804 -43.2 
L 90.808392 -43.2 
L 86.220979 -43.2 
L 81.633566 -43.2 
L 77.046154 -43.2 
L 72.458741 -43.2 
L 67.871329 -43.2 
L 63.283916 -43.2 
L 58.696503 -43.2 
L 54.109091 -43.2 
L 49.521678 -43.2 
L 44.934266 -43.2 
L 40.346853 -43.2 
L 35.759441 -43.2 
L 31.172028 -43.2 
L 26.584615 -43.2 
z
" id="m7ebcb1fe66" style="stroke:#fb4c52;stroke-opacity:0.7;"/>
    </defs>
    <g clip-path="url(#pf5565cf764)">
     <use style="fill:#fb4c52;fill-opacity:0.7;stroke:#fb4c52;stroke-opacity:0.7;" x="0" xlink:href="#m7ebcb1fe66" y="288"/>
    </g>
   </g>
  </g>
 </g>
 <defs>
  <clipPath id="pf5565cf764">
   <rect height="216" width="590.4" x="72" y="28.8"/>
  </clipPath>
 </defs>
</svg>
