<?xml version="1.0" encoding="utf-8" standalone="no"?>
<!DOCTYPE svg PUBLIC "-//W3C//DTD SVG 1.1//EN"
  "http://www.w3.org/Graphics/SVG/1.1/DTD/svg11.dtd">
<!-- Created with matplotlib (http://matplotlib.org/) -->
<svg height="288pt" version="1.1" viewBox="0 0 468 288" width="468pt" xmlns="http://www.w3.org/2000/svg" xmlns:xlink="http://www.w3.org/1999/xlink">
 <defs>
  <style type="text/css">
*{stroke-linecap:butt;stroke-linejoin:round;}
  </style>
 </defs>
 <g id="figure_1">
  <g id="patch_1">
   <path d="M 0 288 
L 468 288 
L 468 0 
L 0 0 
z
" style="fill:none;"/>
  </g>
  <g id="axes_1">
   <g id="patch_2">
    <path d="M 14.8 237.2 
L 453.2 237.2 
L 453.2 14.8 
L 14.8 14.8 
z
" style="fill:none;"/>
   </g>
   <g id="PolyCollection_1">
    <defs>
     <path d="M 14.8 -50.8 
L 14.8 -51.263334 
L 15.238839 -51.274826 
L 15.677678 -51.286579 
L 16.116517 -51.298599 
L 16.555355 -51.31089 
L 16.994194 -51.323458 
L 17.433033 -51.33631 
L 17.871872 -51.34945 
L 18.310711 -51.362884 
L 18.74955 -51.376619 
L 19.188388 -51.390659 
L 19.627227 -51.405012 
L 20.066066 -51.419683 
L 20.504905 -51.434679 
L 20.943744 -51.450005 
L 21.382583 -51.465669 
L 21.821421 -51.481677 
L 22.26026 -51.498036 
L 22.699099 -51.514753 
L 23.137938 -51.531833 
L 23.576777 -51.549285 
L 24.015616 -51.567116 
L 24.454454 -51.585332 
L 24.893293 -51.603941 
L 25.332132 -51.622951 
L 25.770971 -51.64237 
L 26.20981 -51.662203 
L 26.648649 -51.682461 
L 27.087487 -51.70315 
L 27.526326 -51.724279 
L 27.965165 -51.745856 
L 28.404004 -51.767889 
L 28.842843 -51.790387 
L 29.281682 -51.813357 
L 29.720521 -51.83681 
L 30.159359 -51.860753 
L 30.598198 -51.885196 
L 31.037037 -51.910148 
L 31.475876 -51.935618 
L 31.914715 -51.961615 
L 32.353554 -51.988148 
L 32.792392 -52.015228 
L 33.231231 -52.042865 
L 33.67007 -52.071067 
L 34.108909 -52.099846 
L 34.547748 -52.129211 
L 34.986587 -52.159172 
L 35.425425 -52.189741 
L 35.864264 -52.220927 
L 36.303103 -52.252742 
L 36.741942 -52.285196 
L 37.180781 -52.318301 
L 37.61962 -52.352068 
L 38.058458 -52.386507 
L 38.497297 -52.421632 
L 38.936136 -52.457452 
L 39.374975 -52.49398 
L 39.813814 -52.531229 
L 40.252653 -52.56921 
L 40.691491 -52.607935 
L 41.13033 -52.647417 
L 41.569169 -52.687668 
L 42.008008 -52.728702 
L 42.446847 -52.770532 
L 42.885686 -52.813169 
L 43.324525 -52.856628 
L 43.763363 -52.900922 
L 44.202202 -52.946065 
L 44.641041 -52.99207 
L 45.07988 -53.038951 
L 45.518719 -53.086723 
L 45.957558 -53.135399 
L 46.396396 -53.184995 
L 46.835235 -53.235524 
L 47.274074 -53.287001 
L 47.712913 -53.339442 
L 48.151752 -53.392861 
L 48.590591 -53.447274 
L 49.029429 -53.502696 
L 49.468268 -53.559143 
L 49.907107 -53.616631 
L 50.345946 -53.675175 
L 50.784785 -53.734792 
L 51.223624 -53.795498 
L 51.662462 -53.85731 
L 52.101301 -53.920244 
L 52.54014 -53.984317 
L 52.978979 -54.049546 
L 53.417818 -54.115948 
L 53.856657 -54.183542 
L 54.295495 -54.252343 
L 54.734334 -54.322371 
L 55.173173 -54.393643 
L 55.612012 -54.466177 
L 56.050851 -54.539991 
L 56.48969 -54.615104 
L 56.928529 -54.691535 
L 57.367367 -54.769302 
L 57.806206 -54.848424 
L 58.245045 -54.928921 
L 58.683884 -55.010811 
L 59.122723 -55.094115 
L 59.561562 -55.178851 
L 60.0004 -55.265041 
L 60.439239 -55.352704 
L 60.878078 -55.44186 
L 61.316917 -55.532529 
L 61.755756 -55.624733 
L 62.194595 -55.718491 
L 62.633433 -55.813825 
L 63.072272 -55.910757 
L 63.511111 -56.009306 
L 63.94995 -56.109495 
L 64.388789 -56.211345 
L 64.827628 -56.314878 
L 65.266466 -56.420116 
L 65.705305 -56.527081 
L 66.144144 -56.635796 
L 66.582983 -56.746282 
L 67.021822 -56.858562 
L 67.460661 -56.97266 
L 67.899499 -57.088597 
L 68.338338 -57.206398 
L 68.777177 -57.326084 
L 69.216016 -57.447681 
L 69.654855 -57.57121 
L 70.093694 -57.696697 
L 70.532533 -57.824164 
L 70.971371 -57.953635 
L 71.41021 -58.085136 
L 71.849049 -58.218689 
L 72.287888 -58.35432 
L 72.726727 -58.492053 
L 73.165566 -58.631913 
L 73.604404 -58.773924 
L 74.043243 -58.918111 
L 74.482082 -59.0645 
L 74.920921 -59.213115 
L 75.35976 -59.363983 
L 75.798599 -59.517128 
L 76.237437 -59.672576 
L 76.676276 -59.830352 
L 77.115115 -59.990483 
L 77.553954 -60.152994 
L 77.992793 -60.317912 
L 78.431632 -60.485262 
L 78.87047 -60.65507 
L 79.309309 -60.827364 
L 79.748148 -61.002168 
L 80.186987 -61.17951 
L 80.625826 -61.359417 
L 81.064665 -61.541914 
L 81.503504 -61.727029 
L 81.942342 -61.914789 
L 82.381181 -62.105219 
L 82.82002 -62.298348 
L 83.258859 -62.494201 
L 83.697698 -62.692807 
L 84.136537 -62.894192 
L 84.575375 -63.098383 
L 85.014214 -63.305408 
L 85.453053 -63.515293 
L 85.891892 -63.728066 
L 86.330731 -63.943754 
L 86.76957 -64.162385 
L 87.208408 -64.383985 
L 87.647247 -64.608583 
L 88.086086 -64.836204 
L 88.524925 -65.066878 
L 88.963764 -65.30063 
L 89.402603 -65.537488 
L 89.841441 -65.77748 
L 90.28028 -66.020633 
L 90.719119 -66.266974 
L 91.157958 -66.51653 
L 91.596797 -66.769329 
L 92.035636 -67.025397 
L 92.474474 -67.284762 
L 92.913313 -67.547451 
L 93.352152 -67.81349 
L 93.790991 -68.082907 
L 94.22983 -68.355728 
L 94.668669 -68.63198 
L 95.107508 -68.91169 
L 95.546346 -69.194885 
L 95.985185 -69.48159 
L 96.424024 -69.771832 
L 96.862863 -70.065637 
L 97.301702 -70.363033 
L 97.740541 -70.664043 
L 98.179379 -70.968695 
L 98.618218 -71.277014 
L 99.057057 -71.589025 
L 99.495896 -71.904754 
L 99.934735 -72.224226 
L 100.373574 -72.547467 
L 100.812412 -72.874501 
L 101.251251 -73.205352 
L 101.69009 -73.540046 
L 102.128929 -73.878606 
L 102.567768 -74.221057 
L 103.006607 -74.567423 
L 103.445445 -74.917726 
L 103.884284 -75.271991 
L 104.323123 -75.630241 
L 104.761962 -75.992498 
L 105.200801 -76.358785 
L 105.63964 -76.729125 
L 106.078478 -77.10354 
L 106.517317 -77.482051 
L 106.956156 -77.86468 
L 107.394995 -78.251448 
L 107.833834 -78.642376 
L 108.272673 -79.037485 
L 108.711512 -79.436794 
L 109.15035 -79.840325 
L 109.589189 -80.248096 
L 110.028028 -80.660127 
L 110.466867 -81.076436 
L 110.905706 -81.497042 
L 111.344545 -81.921963 
L 111.783383 -82.351217 
L 112.222222 -82.784821 
L 112.661061 -83.222792 
L 113.0999 -83.665146 
L 113.538739 -84.1119 
L 113.977578 -84.56307 
L 114.416416 -85.01867 
L 114.855255 -85.478715 
L 115.294094 -85.943219 
L 115.732933 -86.412197 
L 116.171772 -86.885661 
L 116.610611 -87.363625 
L 117.049449 -87.8461 
L 117.488288 -88.3331 
L 117.927127 -88.824634 
L 118.365966 -89.320714 
L 118.804805 -89.82135 
L 119.243644 -90.326552 
L 119.682482 -90.836329 
L 120.121321 -91.350689 
L 120.56016 -91.869642 
L 120.998999 -92.393193 
L 121.437838 -92.92135 
L 121.876677 -93.45412 
L 122.315516 -93.991508 
L 122.754354 -94.533519 
L 123.193193 -95.080157 
L 123.632032 -95.631427 
L 124.070871 -96.187332 
L 124.50971 -96.747873 
L 124.948549 -97.313054 
L 125.387387 -97.882875 
L 125.826226 -98.457337 
L 126.265065 -99.036439 
L 126.703904 -99.620181 
L 127.142743 -100.208562 
L 127.581582 -100.801579 
L 128.02042 -101.399228 
L 128.459259 -102.001508 
L 128.898098 -102.608412 
L 129.336937 -103.219937 
L 129.775776 -103.836076 
L 130.214615 -104.456822 
L 130.653453 -105.082168 
L 131.092292 -105.712106 
L 131.531131 -106.346628 
L 131.96997 -106.985722 
L 132.408809 -107.62938 
L 132.847648 -108.277589 
L 133.286486 -108.930338 
L 133.725325 -109.587613 
L 134.164164 -110.249401 
L 134.603003 -110.915687 
L 135.041842 -111.586456 
L 135.480681 -112.261692 
L 135.91952 -112.941378 
L 136.358358 -113.625495 
L 136.797197 -114.314025 
L 137.236036 -115.006949 
L 137.674875 -115.704245 
L 138.113714 -116.405893 
L 138.552553 -117.11187 
L 138.991391 -117.822154 
L 139.43023 -118.53672 
L 139.869069 -119.255543 
L 140.307908 -119.978597 
L 140.746747 -120.705857 
L 141.185586 -121.437293 
L 141.624424 -122.172879 
L 142.063263 -122.912584 
L 142.502102 -123.656377 
L 142.940941 -124.404229 
L 143.37978 -125.156107 
L 143.818619 -125.911977 
L 144.257457 -126.671805 
L 144.696296 -127.435557 
L 145.135135 -128.203197 
L 145.573974 -128.974688 
L 146.012813 -129.749992 
L 146.451652 -130.529071 
L 146.89049 -131.311884 
L 147.329329 -132.098392 
L 147.768168 -132.888552 
L 148.207007 -133.682323 
L 148.645846 -134.479661 
L 149.084685 -135.280521 
L 149.523524 -136.084858 
L 149.962362 -136.892627 
L 150.401201 -137.703779 
L 150.84004 -138.518267 
L 151.278879 -139.336041 
L 151.717718 -140.157052 
L 152.156557 -140.981249 
L 152.595395 -141.808579 
L 153.034234 -142.63899 
L 153.473073 -143.472428 
L 153.911912 -144.308838 
L 154.350751 -145.148164 
L 154.78959 -145.990351 
L 155.228428 -146.83534 
L 155.667267 -147.683073 
L 156.106106 -148.53349 
L 156.544945 -149.386532 
L 156.983784 -150.242136 
L 157.422623 -151.100242 
L 157.861461 -151.960785 
L 158.3003 -152.823703 
L 158.739139 -153.688929 
L 159.177978 -154.556398 
L 159.616817 -155.426045 
L 160.055656 -156.2978 
L 160.494494 -157.171596 
L 160.933333 -158.047364 
L 161.372172 -158.925033 
L 161.811011 -159.804533 
L 162.24985 -160.685791 
L 162.688689 -161.568735 
L 163.127528 -162.453292 
L 163.566366 -163.339386 
L 164.005205 -164.226944 
L 164.444044 -165.115889 
L 164.882883 -166.006144 
L 165.321722 -166.897631 
L 165.760561 -167.790273 
L 166.199399 -168.683991 
L 166.638238 -169.578703 
L 167.077077 -170.474331 
L 167.515916 -171.370791 
L 167.954755 -172.268003 
L 168.393594 -173.165884 
L 168.832432 -174.064349 
L 169.271271 -174.963315 
L 169.71011 -175.862696 
L 170.148949 -176.762408 
L 170.587788 -177.662363 
L 171.026627 -178.562475 
L 171.026627 -50.8 
L 171.026627 -50.8 
L 170.587788 -50.8 
L 170.148949 -50.8 
L 169.71011 -50.8 
L 169.271271 -50.8 
L 168.832432 -50.8 
L 168.393594 -50.8 
L 167.954755 -50.8 
L 167.515916 -50.8 
L 167.077077 -50.8 
L 166.638238 -50.8 
L 166.199399 -50.8 
L 165.760561 -50.8 
L 165.321722 -50.8 
L 164.882883 -50.8 
L 164.444044 -50.8 
L 164.005205 -50.8 
L 163.566366 -50.8 
L 163.127528 -50.8 
L 162.688689 -50.8 
L 162.24985 -50.8 
L 161.811011 -50.8 
L 161.372172 -50.8 
L 160.933333 -50.8 
L 160.494494 -50.8 
L 160.055656 -50.8 
L 159.616817 -50.8 
L 159.177978 -50.8 
L 158.739139 -50.8 
L 158.3003 -50.8 
L 157.861461 -50.8 
L 157.422623 -50.8 
L 156.983784 -50.8 
L 156.544945 -50.8 
L 156.106106 -50.8 
L 155.667267 -50.8 
L 155.228428 -50.8 
L 154.78959 -50.8 
L 154.350751 -50.8 
L 153.911912 -50.8 
L 153.473073 -50.8 
L 153.034234 -50.8 
L 152.595395 -50.8 
L 152.156557 -50.8 
L 151.717718 -50.8 
L 151.278879 -50.8 
L 150.84004 -50.8 
L 150.401201 -50.8 
L 149.962362 -50.8 
L 149.523524 -50.8 
L 149.084685 -50.8 
L 148.645846 -50.8 
L 148.207007 -50.8 
L 147.768168 -50.8 
L 147.329329 -50.8 
L 146.89049 -50.8 
L 146.451652 -50.8 
L 146.012813 -50.8 
L 145.573974 -50.8 
L 145.135135 -50.8 
L 144.696296 -50.8 
L 144.257457 -50.8 
L 143.818619 -50.8 
L 143.37978 -50.8 
L 142.940941 -50.8 
L 142.502102 -50.8 
L 142.063263 -50.8 
L 141.624424 -50.8 
L 141.185586 -50.8 
L 140.746747 -50.8 
L 140.307908 -50.8 
L 139.869069 -50.8 
L 139.43023 -50.8 
L 138.991391 -50.8 
L 138.552553 -50.8 
L 138.113714 -50.8 
L 137.674875 -50.8 
L 137.236036 -50.8 
L 136.797197 -50.8 
L 136.358358 -50.8 
L 135.91952 -50.8 
L 135.480681 -50.8 
L 135.041842 -50.8 
L 134.603003 -50.8 
L 134.164164 -50.8 
L 133.725325 -50.8 
L 133.286486 -50.8 
L 132.847648 -50.8 
L 132.408809 -50.8 
L 131.96997 -50.8 
L 131.531131 -50.8 
L 131.092292 -50.8 
L 130.653453 -50.8 
L 130.214615 -50.8 
L 129.775776 -50.8 
L 129.336937 -50.8 
L 128.898098 -50.8 
L 128.459259 -50.8 
L 128.02042 -50.8 
L 127.581582 -50.8 
L 127.142743 -50.8 
L 126.703904 -50.8 
L 126.265065 -50.8 
L 125.826226 -50.8 
L 125.387387 -50.8 
L 124.948549 -50.8 
L 124.50971 -50.8 
L 124.070871 -50.8 
L 123.632032 -50.8 
L 123.193193 -50.8 
L 122.754354 -50.8 
L 122.315516 -50.8 
L 121.876677 -50.8 
L 121.437838 -50.8 
L 120.998999 -50.8 
L 120.56016 -50.8 
L 120.121321 -50.8 
L 119.682482 -50.8 
L 119.243644 -50.8 
L 118.804805 -50.8 
L 118.365966 -50.8 
L 117.927127 -50.8 
L 117.488288 -50.8 
L 117.049449 -50.8 
L 116.610611 -50.8 
L 116.171772 -50.8 
L 115.732933 -50.8 
L 115.294094 -50.8 
L 114.855255 -50.8 
L 114.416416 -50.8 
L 113.977578 -50.8 
L 113.538739 -50.8 
L 113.0999 -50.8 
L 112.661061 -50.8 
L 112.222222 -50.8 
L 111.783383 -50.8 
L 111.344545 -50.8 
L 110.905706 -50.8 
L 110.466867 -50.8 
L 110.028028 -50.8 
L 109.589189 -50.8 
L 109.15035 -50.8 
L 108.711512 -50.8 
L 108.272673 -50.8 
L 107.833834 -50.8 
L 107.394995 -50.8 
L 106.956156 -50.8 
L 106.517317 -50.8 
L 106.078478 -50.8 
L 105.63964 -50.8 
L 105.200801 -50.8 
L 104.761962 -50.8 
L 104.323123 -50.8 
L 103.884284 -50.8 
L 103.445445 -50.8 
L 103.006607 -50.8 
L 102.567768 -50.8 
L 102.128929 -50.8 
L 101.69009 -50.8 
L 101.251251 -50.8 
L 100.812412 -50.8 
L 100.373574 -50.8 
L 99.934735 -50.8 
L 99.495896 -50.8 
L 99.057057 -50.8 
L 98.618218 -50.8 
L 98.179379 -50.8 
L 97.740541 -50.8 
L 97.301702 -50.8 
L 96.862863 -50.8 
L 96.424024 -50.8 
L 95.985185 -50.8 
L 95.546346 -50.8 
L 95.107508 -50.8 
L 94.668669 -50.8 
L 94.22983 -50.8 
L 93.790991 -50.8 
L 93.352152 -50.8 
L 92.913313 -50.8 
L 92.474474 -50.8 
L 92.035636 -50.8 
L 91.596797 -50.8 
L 91.157958 -50.8 
L 90.719119 -50.8 
L 90.28028 -50.8 
L 89.841441 -50.8 
L 89.402603 -50.8 
L 88.963764 -50.8 
L 88.524925 -50.8 
L 88.086086 -50.8 
L 87.647247 -50.8 
L 87.208408 -50.8 
L 86.76957 -50.8 
L 86.330731 -50.8 
L 85.891892 -50.8 
L 85.453053 -50.8 
L 85.014214 -50.8 
L 84.575375 -50.8 
L 84.136537 -50.8 
L 83.697698 -50.8 
L 83.258859 -50.8 
L 82.82002 -50.8 
L 82.381181 -50.8 
L 81.942342 -50.8 
L 81.503504 -50.8 
L 81.064665 -50.8 
L 80.625826 -50.8 
L 80.186987 -50.8 
L 79.748148 -50.8 
L 79.309309 -50.8 
L 78.87047 -50.8 
L 78.431632 -50.8 
L 77.992793 -50.8 
L 77.553954 -50.8 
L 77.115115 -50.8 
L 76.676276 -50.8 
L 76.237437 -50.8 
L 75.798599 -50.8 
L 75.35976 -50.8 
L 74.920921 -50.8 
L 74.482082 -50.8 
L 74.043243 -50.8 
L 73.604404 -50.8 
L 73.165566 -50.8 
L 72.726727 -50.8 
L 72.287888 -50.8 
L 71.849049 -50.8 
L 71.41021 -50.8 
L 70.971371 -50.8 
L 70.532533 -50.8 
L 70.093694 -50.8 
L 69.654855 -50.8 
L 69.216016 -50.8 
L 68.777177 -50.8 
L 68.338338 -50.8 
L 67.899499 -50.8 
L 67.460661 -50.8 
L 67.021822 -50.8 
L 66.582983 -50.8 
L 66.144144 -50.8 
L 65.705305 -50.8 
L 65.266466 -50.8 
L 64.827628 -50.8 
L 64.388789 -50.8 
L 63.94995 -50.8 
L 63.511111 -50.8 
L 63.072272 -50.8 
L 62.633433 -50.8 
L 62.194595 -50.8 
L 61.755756 -50.8 
L 61.316917 -50.8 
L 60.878078 -50.8 
L 60.439239 -50.8 
L 60.0004 -50.8 
L 59.561562 -50.8 
L 59.122723 -50.8 
L 58.683884 -50.8 
L 58.245045 -50.8 
L 57.806206 -50.8 
L 57.367367 -50.8 
L 56.928529 -50.8 
L 56.48969 -50.8 
L 56.050851 -50.8 
L 55.612012 -50.8 
L 55.173173 -50.8 
L 54.734334 -50.8 
L 54.295495 -50.8 
L 53.856657 -50.8 
L 53.417818 -50.8 
L 52.978979 -50.8 
L 52.54014 -50.8 
L 52.101301 -50.8 
L 51.662462 -50.8 
L 51.223624 -50.8 
L 50.784785 -50.8 
L 50.345946 -50.8 
L 49.907107 -50.8 
L 49.468268 -50.8 
L 49.029429 -50.8 
L 48.590591 -50.8 
L 48.151752 -50.8 
L 47.712913 -50.8 
L 47.274074 -50.8 
L 46.835235 -50.8 
L 46.396396 -50.8 
L 45.957558 -50.8 
L 45.518719 -50.8 
L 45.07988 -50.8 
L 44.641041 -50.8 
L 44.202202 -50.8 
L 43.763363 -50.8 
L 43.324525 -50.8 
L 42.885686 -50.8 
L 42.446847 -50.8 
L 42.008008 -50.8 
L 41.569169 -50.8 
L 41.13033 -50.8 
L 40.691491 -50.8 
L 40.252653 -50.8 
L 39.813814 -50.8 
L 39.374975 -50.8 
L 38.936136 -50.8 
L 38.497297 -50.8 
L 38.058458 -50.8 
L 37.61962 -50.8 
L 37.180781 -50.8 
L 36.741942 -50.8 
L 36.303103 -50.8 
L 35.864264 -50.8 
L 35.425425 -50.8 
L 34.986587 -50.8 
L 34.547748 -50.8 
L 34.108909 -50.8 
L 33.67007 -50.8 
L 33.231231 -50.8 
L 32.792392 -50.8 
L 32.353554 -50.8 
L 31.914715 -50.8 
L 31.475876 -50.8 
L 31.037037 -50.8 
L 30.598198 -50.8 
L 30.159359 -50.8 
L 29.720521 -50.8 
L 29.281682 -50.8 
L 28.842843 -50.8 
L 28.404004 -50.8 
L 27.965165 -50.8 
L 27.526326 -50.8 
L 27.087487 -50.8 
L 26.648649 -50.8 
L 26.20981 -50.8 
L 25.770971 -50.8 
L 25.332132 -50.8 
L 24.893293 -50.8 
L 24.454454 -50.8 
L 24.015616 -50.8 
L 23.576777 -50.8 
L 23.137938 -50.8 
L 22.699099 -50.8 
L 22.26026 -50.8 
L 21.821421 -50.8 
L 21.382583 -50.8 
L 20.943744 -50.8 
L 20.504905 -50.8 
L 20.066066 -50.8 
L 19.627227 -50.8 
L 19.188388 -50.8 
L 18.74955 -50.8 
L 18.310711 -50.8 
L 17.871872 -50.8 
L 17.433033 -50.8 
L 16.994194 -50.8 
L 16.555355 -50.8 
L 16.116517 -50.8 
L 15.677678 -50.8 
L 15.238839 -50.8 
L 14.8 -50.8 
z
" id="m51839792e0" style="stroke:#fbc15e;"/>
    </defs>
    <g clip-path="url(#pdab9a3a3ff)">
     <use style="fill:#fbc15e;stroke:#fbc15e;" x="0" xlink:href="#m51839792e0" y="288"/>
    </g>
   </g>
   <g id="PolyCollection_2">
    <defs>
     <path d="M 296.973373 -50.8 
L 296.973373 -178.562475 
L 297.412212 -177.662363 
L 297.851051 -176.762408 
L 298.28989 -175.862696 
L 298.728729 -174.963315 
L 299.167568 -174.064349 
L 299.606406 -173.165884 
L 300.045245 -172.268003 
L 300.484084 -171.370791 
L 300.922923 -170.474331 
L 301.361762 -169.578703 
L 301.800601 -168.683991 
L 302.239439 -167.790273 
L 302.678278 -166.897631 
L 303.117117 -166.006144 
L 303.555956 -165.115889 
L 303.994795 -164.226944 
L 304.433634 -163.339386 
L 304.872472 -162.453292 
L 305.311311 -161.568735 
L 305.75015 -160.685791 
L 306.188989 -159.804533 
L 306.627828 -158.925033 
L 307.066667 -158.047364 
L 307.505506 -157.171596 
L 307.944344 -156.2978 
L 308.383183 -155.426045 
L 308.822022 -154.556398 
L 309.260861 -153.688929 
L 309.6997 -152.823703 
L 310.138539 -151.960785 
L 310.577377 -151.100242 
L 311.016216 -150.242136 
L 311.455055 -149.386532 
L 311.893894 -148.53349 
L 312.332733 -147.683073 
L 312.771572 -146.83534 
L 313.21041 -145.990351 
L 313.649249 -145.148164 
L 314.088088 -144.308838 
L 314.526927 -143.472428 
L 314.965766 -142.63899 
L 315.404605 -141.808579 
L 315.843443 -140.981249 
L 316.282282 -140.157052 
L 316.721121 -139.336041 
L 317.15996 -138.518267 
L 317.598799 -137.703779 
L 318.037638 -136.892627 
L 318.476476 -136.084858 
L 318.915315 -135.280521 
L 319.354154 -134.479661 
L 319.792993 -133.682323 
L 320.231832 -132.888552 
L 320.670671 -132.098392 
L 321.10951 -131.311884 
L 321.548348 -130.529071 
L 321.987187 -129.749992 
L 322.426026 -128.974688 
L 322.864865 -128.203197 
L 323.303704 -127.435557 
L 323.742543 -126.671805 
L 324.181381 -125.911977 
L 324.62022 -125.156107 
L 325.059059 -124.404229 
L 325.497898 -123.656377 
L 325.936737 -122.912584 
L 326.375576 -122.172879 
L 326.814414 -121.437293 
L 327.253253 -120.705857 
L 327.692092 -119.978597 
L 328.130931 -119.255543 
L 328.56977 -118.53672 
L 329.008609 -117.822154 
L 329.447447 -117.11187 
L 329.886286 -116.405893 
L 330.325125 -115.704245 
L 330.763964 -115.006949 
L 331.202803 -114.314025 
L 331.641642 -113.625495 
L 332.08048 -112.941378 
L 332.519319 -112.261692 
L 332.958158 -111.586456 
L 333.396997 -110.915687 
L 333.835836 -110.249401 
L 334.274675 -109.587613 
L 334.713514 -108.930338 
L 335.152352 -108.277589 
L 335.591191 -107.62938 
L 336.03003 -106.985722 
L 336.468869 -106.346628 
L 336.907708 -105.712106 
L 337.346547 -105.082168 
L 337.785385 -104.456822 
L 338.224224 -103.836076 
L 338.663063 -103.219937 
L 339.101902 -102.608412 
L 339.540741 -102.001508 
L 339.97958 -101.399228 
L 340.418418 -100.801579 
L 340.857257 -100.208562 
L 341.296096 -99.620181 
L 341.734935 -99.036439 
L 342.173774 -98.457337 
L 342.612613 -97.882875 
L 343.051451 -97.313054 
L 343.49029 -96.747873 
L 343.929129 -96.187332 
L 344.367968 -95.631427 
L 344.806807 -95.080157 
L 345.245646 -94.533519 
L 345.684484 -93.991508 
L 346.123323 -93.45412 
L 346.562162 -92.92135 
L 347.001001 -92.393193 
L 347.43984 -91.869642 
L 347.878679 -91.350689 
L 348.317518 -90.836329 
L 348.756356 -90.326552 
L 349.195195 -89.82135 
L 349.634034 -89.320714 
L 350.072873 -88.824634 
L 350.511712 -88.3331 
L 350.950551 -87.8461 
L 351.389389 -87.363625 
L 351.828228 -86.885661 
L 352.267067 -86.412197 
L 352.705906 -85.943219 
L 353.144745 -85.478715 
L 353.583584 -85.01867 
L 354.022422 -84.56307 
L 354.461261 -84.1119 
L 354.9001 -83.665146 
L 355.338939 -83.222792 
L 355.777778 -82.784821 
L 356.216617 -82.351217 
L 356.655455 -81.921963 
L 357.094294 -81.497042 
L 357.533133 -81.076436 
L 357.971972 -80.660127 
L 358.410811 -80.248096 
L 358.84965 -79.840325 
L 359.288488 -79.436794 
L 359.727327 -79.037485 
L 360.166166 -78.642376 
L 360.605005 -78.251448 
L 361.043844 -77.86468 
L 361.482683 -77.482051 
L 361.921522 -77.10354 
L 362.36036 -76.729125 
L 362.799199 -76.358785 
L 363.238038 -75.992498 
L 363.676877 -75.630241 
L 364.115716 -75.271991 
L 364.554555 -74.917726 
L 364.993393 -74.567423 
L 365.432232 -74.221057 
L 365.871071 -73.878606 
L 366.30991 -73.540046 
L 366.748749 -73.205352 
L 367.187588 -72.874501 
L 367.626426 -72.547467 
L 368.065265 -72.224226 
L 368.504104 -71.904754 
L 368.942943 -71.589025 
L 369.381782 -71.277014 
L 369.820621 -70.968695 
L 370.259459 -70.664043 
L 370.698298 -70.363033 
L 371.137137 -70.065637 
L 371.575976 -69.771832 
L 372.014815 -69.48159 
L 372.453654 -69.194885 
L 372.892492 -68.91169 
L 373.331331 -68.63198 
L 373.77017 -68.355728 
L 374.209009 -68.082907 
L 374.647848 -67.81349 
L 375.086687 -67.547451 
L 375.525526 -67.284762 
L 375.964364 -67.025397 
L 376.403203 -66.769329 
L 376.842042 -66.51653 
L 377.280881 -66.266974 
L 377.71972 -66.020633 
L 378.158559 -65.77748 
L 378.597397 -65.537488 
L 379.036236 -65.30063 
L 379.475075 -65.066878 
L 379.913914 -64.836204 
L 380.352753 -64.608583 
L 380.791592 -64.383985 
L 381.23043 -64.162385 
L 381.669269 -63.943754 
L 382.108108 -63.728066 
L 382.546947 -63.515293 
L 382.985786 -63.305408 
L 383.424625 -63.098383 
L 383.863463 -62.894192 
L 384.302302 -62.692807 
L 384.741141 -62.494201 
L 385.17998 -62.298348 
L 385.618819 -62.105219 
L 386.057658 -61.914789 
L 386.496496 -61.727029 
L 386.935335 -61.541914 
L 387.374174 -61.359417 
L 387.813013 -61.17951 
L 388.251852 -61.002168 
L 388.690691 -60.827364 
L 389.12953 -60.65507 
L 389.568368 -60.485262 
L 390.007207 -60.317912 
L 390.446046 -60.152994 
L 390.884885 -59.990483 
L 391.323724 -59.830352 
L 391.762563 -59.672576 
L 392.201401 -59.517128 
L 392.64024 -59.363983 
L 393.079079 -59.213115 
L 393.517918 -59.0645 
L 393.956757 -58.918111 
L 394.395596 -58.773924 
L 394.834434 -58.631913 
L 395.273273 -58.492053 
L 395.712112 -58.35432 
L 396.150951 -58.218689 
L 396.58979 -58.085136 
L 397.028629 -57.953635 
L 397.467467 -57.824164 
L 397.906306 -57.696697 
L 398.345145 -57.57121 
L 398.783984 -57.447681 
L 399.222823 -57.326084 
L 399.661662 -57.206398 
L 400.100501 -57.088597 
L 400.539339 -56.97266 
L 400.978178 -56.858562 
L 401.417017 -56.746282 
L 401.855856 -56.635796 
L 402.294695 -56.527081 
L 402.733534 -56.420116 
L 403.172372 -56.314878 
L 403.611211 -56.211345 
L 404.05005 -56.109495 
L 404.488889 -56.009306 
L 404.927728 -55.910757 
L 405.366567 -55.813825 
L 405.805405 -55.718491 
L 406.244244 -55.624733 
L 406.683083 -55.532529 
L 407.121922 -55.44186 
L 407.560761 -55.352704 
L 407.9996 -55.265041 
L 408.438438 -55.178851 
L 408.877277 -55.094115 
L 409.316116 -55.010811 
L 409.754955 -54.928921 
L 410.193794 -54.848424 
L 410.632633 -54.769302 
L 411.071471 -54.691535 
L 411.51031 -54.615104 
L 411.949149 -54.539991 
L 412.387988 -54.466177 
L 412.826827 -54.393643 
L 413.265666 -54.322371 
L 413.704505 -54.252343 
L 414.143343 -54.183542 
L 414.582182 -54.115948 
L 415.021021 -54.049546 
L 415.45986 -53.984317 
L 415.898699 -53.920244 
L 416.337538 -53.85731 
L 416.776376 -53.795498 
L 417.215215 -53.734792 
L 417.654054 -53.675175 
L 418.092893 -53.616631 
L 418.531732 -53.559143 
L 418.970571 -53.502696 
L 419.409409 -53.447274 
L 419.848248 -53.392861 
L 420.287087 -53.339442 
L 420.725926 -53.287001 
L 421.164765 -53.235524 
L 421.603604 -53.184995 
L 422.042442 -53.135399 
L 422.481281 -53.086723 
L 422.92012 -53.038951 
L 423.358959 -52.99207 
L 423.797798 -52.946065 
L 424.236637 -52.900922 
L 424.675475 -52.856628 
L 425.114314 -52.813169 
L 425.553153 -52.770532 
L 425.991992 -52.728702 
L 426.430831 -52.687668 
L 426.86967 -52.647417 
L 427.308509 -52.607935 
L 427.747347 -52.56921 
L 428.186186 -52.531229 
L 428.625025 -52.49398 
L 429.063864 -52.457452 
L 429.502703 -52.421632 
L 429.941542 -52.386507 
L 430.38038 -52.352068 
L 430.819219 -52.318301 
L 431.258058 -52.285196 
L 431.696897 -52.252742 
L 432.135736 -52.220927 
L 432.574575 -52.189741 
L 433.013413 -52.159172 
L 433.452252 -52.129211 
L 433.891091 -52.099846 
L 434.32993 -52.071067 
L 434.768769 -52.042865 
L 435.207608 -52.015228 
L 435.646446 -51.988148 
L 436.085285 -51.961615 
L 436.524124 -51.935618 
L 436.962963 -51.910148 
L 437.401802 -51.885196 
L 437.840641 -51.860753 
L 438.279479 -51.83681 
L 438.718318 -51.813357 
L 439.157157 -51.790387 
L 439.595996 -51.767889 
L 440.034835 -51.745856 
L 440.473674 -51.724279 
L 440.912513 -51.70315 
L 441.351351 -51.682461 
L 441.79019 -51.662203 
L 442.229029 -51.64237 
L 442.667868 -51.622951 
L 443.106707 -51.603941 
L 443.545546 -51.585332 
L 443.984384 -51.567116 
L 444.423223 -51.549285 
L 444.862062 -51.531833 
L 445.300901 -51.514753 
L 445.73974 -51.498036 
L 446.178579 -51.481677 
L 446.617417 -51.465669 
L 447.056256 -51.450005 
L 447.495095 -51.434679 
L 447.933934 -51.419683 
L 448.372773 -51.405012 
L 448.811612 -51.390659 
L 449.25045 -51.376619 
L 449.689289 -51.362884 
L 450.128128 -51.34945 
L 450.566967 -51.33631 
L 451.005806 -51.323458 
L 451.444645 -51.31089 
L 451.883483 -51.298599 
L 452.322322 -51.286579 
L 452.761161 -51.274826 
L 453.2 -51.263334 
L 453.2 -50.8 
L 453.2 -50.8 
L 452.761161 -50.8 
L 452.322322 -50.8 
L 451.883483 -50.8 
L 451.444645 -50.8 
L 451.005806 -50.8 
L 450.566967 -50.8 
L 450.128128 -50.8 
L 449.689289 -50.8 
L 449.25045 -50.8 
L 448.811612 -50.8 
L 448.372773 -50.8 
L 447.933934 -50.8 
L 447.495095 -50.8 
L 447.056256 -50.8 
L 446.617417 -50.8 
L 446.178579 -50.8 
L 445.73974 -50.8 
L 445.300901 -50.8 
L 444.862062 -50.8 
L 444.423223 -50.8 
L 443.984384 -50.8 
L 443.545546 -50.8 
L 443.106707 -50.8 
L 442.667868 -50.8 
L 442.229029 -50.8 
L 441.79019 -50.8 
L 441.351351 -50.8 
L 440.912513 -50.8 
L 440.473674 -50.8 
L 440.034835 -50.8 
L 439.595996 -50.8 
L 439.157157 -50.8 
L 438.718318 -50.8 
L 438.279479 -50.8 
L 437.840641 -50.8 
L 437.401802 -50.8 
L 436.962963 -50.8 
L 436.524124 -50.8 
L 436.085285 -50.8 
L 435.646446 -50.8 
L 435.207608 -50.8 
L 434.768769 -50.8 
L 434.32993 -50.8 
L 433.891091 -50.8 
L 433.452252 -50.8 
L 433.013413 -50.8 
L 432.574575 -50.8 
L 432.135736 -50.8 
L 431.696897 -50.8 
L 431.258058 -50.8 
L 430.819219 -50.8 
L 430.38038 -50.8 
L 429.941542 -50.8 
L 429.502703 -50.8 
L 429.063864 -50.8 
L 428.625025 -50.8 
L 428.186186 -50.8 
L 427.747347 -50.8 
L 427.308509 -50.8 
L 426.86967 -50.8 
L 426.430831 -50.8 
L 425.991992 -50.8 
L 425.553153 -50.8 
L 425.114314 -50.8 
L 424.675475 -50.8 
L 424.236637 -50.8 
L 423.797798 -50.8 
L 423.358959 -50.8 
L 422.92012 -50.8 
L 422.481281 -50.8 
L 422.042442 -50.8 
L 421.603604 -50.8 
L 421.164765 -50.8 
L 420.725926 -50.8 
L 420.287087 -50.8 
L 419.848248 -50.8 
L 419.409409 -50.8 
L 418.970571 -50.8 
L 418.531732 -50.8 
L 418.092893 -50.8 
L 417.654054 -50.8 
L 417.215215 -50.8 
L 416.776376 -50.8 
L 416.337538 -50.8 
L 415.898699 -50.8 
L 415.45986 -50.8 
L 415.021021 -50.8 
L 414.582182 -50.8 
L 414.143343 -50.8 
L 413.704505 -50.8 
L 413.265666 -50.8 
L 412.826827 -50.8 
L 412.387988 -50.8 
L 411.949149 -50.8 
L 411.51031 -50.8 
L 411.071471 -50.8 
L 410.632633 -50.8 
L 410.193794 -50.8 
L 409.754955 -50.8 
L 409.316116 -50.8 
L 408.877277 -50.8 
L 408.438438 -50.8 
L 407.9996 -50.8 
L 407.560761 -50.8 
L 407.121922 -50.8 
L 406.683083 -50.8 
L 406.244244 -50.8 
L 405.805405 -50.8 
L 405.366567 -50.8 
L 404.927728 -50.8 
L 404.488889 -50.8 
L 404.05005 -50.8 
L 403.611211 -50.8 
L 403.172372 -50.8 
L 402.733534 -50.8 
L 402.294695 -50.8 
L 401.855856 -50.8 
L 401.417017 -50.8 
L 400.978178 -50.8 
L 400.539339 -50.8 
L 400.100501 -50.8 
L 399.661662 -50.8 
L 399.222823 -50.8 
L 398.783984 -50.8 
L 398.345145 -50.8 
L 397.906306 -50.8 
L 397.467467 -50.8 
L 397.028629 -50.8 
L 396.58979 -50.8 
L 396.150951 -50.8 
L 395.712112 -50.8 
L 395.273273 -50.8 
L 394.834434 -50.8 
L 394.395596 -50.8 
L 393.956757 -50.8 
L 393.517918 -50.8 
L 393.079079 -50.8 
L 392.64024 -50.8 
L 392.201401 -50.8 
L 391.762563 -50.8 
L 391.323724 -50.8 
L 390.884885 -50.8 
L 390.446046 -50.8 
L 390.007207 -50.8 
L 389.568368 -50.8 
L 389.12953 -50.8 
L 388.690691 -50.8 
L 388.251852 -50.8 
L 387.813013 -50.8 
L 387.374174 -50.8 
L 386.935335 -50.8 
L 386.496496 -50.8 
L 386.057658 -50.8 
L 385.618819 -50.8 
L 385.17998 -50.8 
L 384.741141 -50.8 
L 384.302302 -50.8 
L 383.863463 -50.8 
L 383.424625 -50.8 
L 382.985786 -50.8 
L 382.546947 -50.8 
L 382.108108 -50.8 
L 381.669269 -50.8 
L 381.23043 -50.8 
L 380.791592 -50.8 
L 380.352753 -50.8 
L 379.913914 -50.8 
L 379.475075 -50.8 
L 379.036236 -50.8 
L 378.597397 -50.8 
L 378.158559 -50.8 
L 377.71972 -50.8 
L 377.280881 -50.8 
L 376.842042 -50.8 
L 376.403203 -50.8 
L 375.964364 -50.8 
L 375.525526 -50.8 
L 375.086687 -50.8 
L 374.647848 -50.8 
L 374.209009 -50.8 
L 373.77017 -50.8 
L 373.331331 -50.8 
L 372.892492 -50.8 
L 372.453654 -50.8 
L 372.014815 -50.8 
L 371.575976 -50.8 
L 371.137137 -50.8 
L 370.698298 -50.8 
L 370.259459 -50.8 
L 369.820621 -50.8 
L 369.381782 -50.8 
L 368.942943 -50.8 
L 368.504104 -50.8 
L 368.065265 -50.8 
L 367.626426 -50.8 
L 367.187588 -50.8 
L 366.748749 -50.8 
L 366.30991 -50.8 
L 365.871071 -50.8 
L 365.432232 -50.8 
L 364.993393 -50.8 
L 364.554555 -50.8 
L 364.115716 -50.8 
L 363.676877 -50.8 
L 363.238038 -50.8 
L 362.799199 -50.8 
L 362.36036 -50.8 
L 361.921522 -50.8 
L 361.482683 -50.8 
L 361.043844 -50.8 
L 360.605005 -50.8 
L 360.166166 -50.8 
L 359.727327 -50.8 
L 359.288488 -50.8 
L 358.84965 -50.8 
L 358.410811 -50.8 
L 357.971972 -50.8 
L 357.533133 -50.8 
L 357.094294 -50.8 
L 356.655455 -50.8 
L 356.216617 -50.8 
L 355.777778 -50.8 
L 355.338939 -50.8 
L 354.9001 -50.8 
L 354.461261 -50.8 
L 354.022422 -50.8 
L 353.583584 -50.8 
L 353.144745 -50.8 
L 352.705906 -50.8 
L 352.267067 -50.8 
L 351.828228 -50.8 
L 351.389389 -50.8 
L 350.950551 -50.8 
L 350.511712 -50.8 
L 350.072873 -50.8 
L 349.634034 -50.8 
L 349.195195 -50.8 
L 348.756356 -50.8 
L 348.317518 -50.8 
L 347.878679 -50.8 
L 347.43984 -50.8 
L 347.001001 -50.8 
L 346.562162 -50.8 
L 346.123323 -50.8 
L 345.684484 -50.8 
L 345.245646 -50.8 
L 344.806807 -50.8 
L 344.367968 -50.8 
L 343.929129 -50.8 
L 343.49029 -50.8 
L 343.051451 -50.8 
L 342.612613 -50.8 
L 342.173774 -50.8 
L 341.734935 -50.8 
L 341.296096 -50.8 
L 340.857257 -50.8 
L 340.418418 -50.8 
L 339.97958 -50.8 
L 339.540741 -50.8 
L 339.101902 -50.8 
L 338.663063 -50.8 
L 338.224224 -50.8 
L 337.785385 -50.8 
L 337.346547 -50.8 
L 336.907708 -50.8 
L 336.468869 -50.8 
L 336.03003 -50.8 
L 335.591191 -50.8 
L 335.152352 -50.8 
L 334.713514 -50.8 
L 334.274675 -50.8 
L 333.835836 -50.8 
L 333.396997 -50.8 
L 332.958158 -50.8 
L 332.519319 -50.8 
L 332.08048 -50.8 
L 331.641642 -50.8 
L 331.202803 -50.8 
L 330.763964 -50.8 
L 330.325125 -50.8 
L 329.886286 -50.8 
L 329.447447 -50.8 
L 329.008609 -50.8 
L 328.56977 -50.8 
L 328.130931 -50.8 
L 327.692092 -50.8 
L 327.253253 -50.8 
L 326.814414 -50.8 
L 326.375576 -50.8 
L 325.936737 -50.8 
L 325.497898 -50.8 
L 325.059059 -50.8 
L 324.62022 -50.8 
L 324.181381 -50.8 
L 323.742543 -50.8 
L 323.303704 -50.8 
L 322.864865 -50.8 
L 322.426026 -50.8 
L 321.987187 -50.8 
L 321.548348 -50.8 
L 321.10951 -50.8 
L 320.670671 -50.8 
L 320.231832 -50.8 
L 319.792993 -50.8 
L 319.354154 -50.8 
L 318.915315 -50.8 
L 318.476476 -50.8 
L 318.037638 -50.8 
L 317.598799 -50.8 
L 317.15996 -50.8 
L 316.721121 -50.8 
L 316.282282 -50.8 
L 315.843443 -50.8 
L 315.404605 -50.8 
L 314.965766 -50.8 
L 314.526927 -50.8 
L 314.088088 -50.8 
L 313.649249 -50.8 
L 313.21041 -50.8 
L 312.771572 -50.8 
L 312.332733 -50.8 
L 311.893894 -50.8 
L 311.455055 -50.8 
L 311.016216 -50.8 
L 310.577377 -50.8 
L 310.138539 -50.8 
L 309.6997 -50.8 
L 309.260861 -50.8 
L 308.822022 -50.8 
L 308.383183 -50.8 
L 307.944344 -50.8 
L 307.505506 -50.8 
L 307.066667 -50.8 
L 306.627828 -50.8 
L 306.188989 -50.8 
L 305.75015 -50.8 
L 305.311311 -50.8 
L 304.872472 -50.8 
L 304.433634 -50.8 
L 303.994795 -50.8 
L 303.555956 -50.8 
L 303.117117 -50.8 
L 302.678278 -50.8 
L 302.239439 -50.8 
L 301.800601 -50.8 
L 301.361762 -50.8 
L 300.922923 -50.8 
L 300.484084 -50.8 
L 300.045245 -50.8 
L 299.606406 -50.8 
L 299.167568 -50.8 
L 298.728729 -50.8 
L 298.28989 -50.8 
L 297.851051 -50.8 
L 297.412212 -50.8 
L 296.973373 -50.8 
z
" id="mf02c9773b5" style="stroke:#fbc15e;"/>
    </defs>
    <g clip-path="url(#pdab9a3a3ff)">
     <use style="fill:#fbc15e;stroke:#fbc15e;" x="0" xlink:href="#mf02c9773b5" y="288"/>
    </g>
   </g>
   <g id="PolyCollection_3">
    <defs>
     <path d="M 14.8 -50.8 
L 14.8 -51.263334 
L 15.238839 -51.274826 
L 15.677678 -51.286579 
L 16.116517 -51.298599 
L 16.555355 -51.31089 
L 16.994194 -51.323458 
L 17.433033 -51.33631 
L 17.871872 -51.34945 
L 18.310711 -51.362884 
L 18.74955 -51.376619 
L 19.188388 -51.390659 
L 19.627227 -51.405012 
L 20.066066 -51.419683 
L 20.504905 -51.434679 
L 20.943744 -51.450005 
L 21.382583 -51.465669 
L 21.821421 -51.481677 
L 22.26026 -51.498036 
L 22.699099 -51.514753 
L 23.137938 -51.531833 
L 23.576777 -51.549285 
L 24.015616 -51.567116 
L 24.454454 -51.585332 
L 24.893293 -51.603941 
L 25.332132 -51.622951 
L 25.770971 -51.64237 
L 26.20981 -51.662203 
L 26.648649 -51.682461 
L 27.087487 -51.70315 
L 27.526326 -51.724279 
L 27.965165 -51.745856 
L 28.404004 -51.767889 
L 28.842843 -51.790387 
L 29.281682 -51.813357 
L 29.720521 -51.83681 
L 30.159359 -51.860753 
L 30.598198 -51.885196 
L 31.037037 -51.910148 
L 31.475876 -51.935618 
L 31.914715 -51.961615 
L 32.353554 -51.988148 
L 32.792392 -52.015228 
L 33.231231 -52.042865 
L 33.67007 -52.071067 
L 34.108909 -52.099846 
L 34.547748 -52.129211 
L 34.986587 -52.159172 
L 35.425425 -52.189741 
L 35.864264 -52.220927 
L 36.303103 -52.252742 
L 36.741942 -52.285196 
L 37.180781 -52.318301 
L 37.61962 -52.352068 
L 38.058458 -52.386507 
L 38.497297 -52.421632 
L 38.936136 -52.457452 
L 39.374975 -52.49398 
L 39.813814 -52.531229 
L 40.252653 -52.56921 
L 40.691491 -52.607935 
L 41.13033 -52.647417 
L 41.569169 -52.687668 
L 42.008008 -52.728702 
L 42.446847 -52.770532 
L 42.885686 -52.813169 
L 43.324525 -52.856628 
L 43.763363 -52.900922 
L 44.202202 -52.946065 
L 44.641041 -52.99207 
L 45.07988 -53.038951 
L 45.518719 -53.086723 
L 45.957558 -53.135399 
L 46.396396 -53.184995 
L 46.835235 -53.235524 
L 47.274074 -53.287001 
L 47.712913 -53.339442 
L 48.151752 -53.392861 
L 48.590591 -53.447274 
L 49.029429 -53.502696 
L 49.468268 -53.559143 
L 49.907107 -53.616631 
L 50.345946 -53.675175 
L 50.784785 -53.734792 
L 51.223624 -53.795498 
L 51.662462 -53.85731 
L 52.101301 -53.920244 
L 52.54014 -53.984317 
L 52.978979 -54.049546 
L 53.417818 -54.115948 
L 53.856657 -54.183542 
L 54.295495 -54.252343 
L 54.734334 -54.322371 
L 55.173173 -54.393643 
L 55.612012 -54.466177 
L 56.050851 -54.539991 
L 56.48969 -54.615104 
L 56.928529 -54.691535 
L 57.367367 -54.769302 
L 57.806206 -54.848424 
L 58.245045 -54.928921 
L 58.683884 -55.010811 
L 59.122723 -55.094115 
L 59.561562 -55.178851 
L 60.0004 -55.265041 
L 60.439239 -55.352704 
L 60.878078 -55.44186 
L 61.316917 -55.532529 
L 61.755756 -55.624733 
L 62.194595 -55.718491 
L 62.633433 -55.813825 
L 63.072272 -55.910757 
L 63.511111 -56.009306 
L 63.94995 -56.109495 
L 64.388789 -56.211345 
L 64.827628 -56.314878 
L 65.266466 -56.420116 
L 65.705305 -56.527081 
L 66.144144 -56.635796 
L 66.582983 -56.746282 
L 67.021822 -56.858562 
L 67.460661 -56.97266 
L 67.899499 -57.088597 
L 68.338338 -57.206398 
L 68.777177 -57.326084 
L 69.216016 -57.447681 
L 69.654855 -57.57121 
L 70.093694 -57.696697 
L 70.532533 -57.824164 
L 70.971371 -57.953635 
L 71.41021 -58.085136 
L 71.849049 -58.218689 
L 72.287888 -58.35432 
L 72.726727 -58.492053 
L 73.165566 -58.631913 
L 73.604404 -58.773924 
L 74.043243 -58.918111 
L 74.482082 -59.0645 
L 74.920921 -59.213115 
L 75.35976 -59.363983 
L 75.798599 -59.517128 
L 76.237437 -59.672576 
L 76.676276 -59.830352 
L 77.115115 -59.990483 
L 77.553954 -60.152994 
L 77.992793 -60.317912 
L 78.431632 -60.485262 
L 78.87047 -60.65507 
L 79.309309 -60.827364 
L 79.748148 -61.002168 
L 80.186987 -61.17951 
L 80.625826 -61.359417 
L 81.064665 -61.541914 
L 81.503504 -61.727029 
L 81.942342 -61.914789 
L 82.381181 -62.105219 
L 82.82002 -62.298348 
L 83.258859 -62.494201 
L 83.697698 -62.692807 
L 84.136537 -62.894192 
L 84.575375 -63.098383 
L 85.014214 -63.305408 
L 85.453053 -63.515293 
L 85.891892 -63.728066 
L 86.330731 -63.943754 
L 86.76957 -64.162385 
L 87.208408 -64.383985 
L 87.647247 -64.608583 
L 88.086086 -64.836204 
L 88.524925 -65.066878 
L 88.963764 -65.30063 
L 89.402603 -65.537488 
L 89.841441 -65.77748 
L 90.28028 -66.020633 
L 90.719119 -66.266974 
L 91.157958 -66.51653 
L 91.596797 -66.769329 
L 92.035636 -67.025397 
L 92.474474 -67.284762 
L 92.913313 -67.547451 
L 93.352152 -67.81349 
L 93.790991 -68.082907 
L 94.22983 -68.355728 
L 94.668669 -68.63198 
L 95.107508 -68.91169 
L 95.546346 -69.194885 
L 95.985185 -69.48159 
L 96.424024 -69.771832 
L 96.862863 -70.065637 
L 97.301702 -70.363033 
L 97.740541 -70.664043 
L 98.179379 -70.968695 
L 98.618218 -71.277014 
L 99.057057 -71.589025 
L 99.495896 -71.904754 
L 99.934735 -72.224226 
L 100.373574 -72.547467 
L 100.812412 -72.874501 
L 101.251251 -73.205352 
L 101.69009 -73.540046 
L 102.128929 -73.878606 
L 102.567768 -74.221057 
L 103.006607 -74.567423 
L 103.445445 -74.917726 
L 103.884284 -75.271991 
L 104.323123 -75.630241 
L 104.761962 -75.992498 
L 105.200801 -76.358785 
L 105.63964 -76.729125 
L 106.078478 -77.10354 
L 106.517317 -77.482051 
L 106.956156 -77.86468 
L 107.394995 -78.251448 
L 107.833834 -78.642376 
L 108.272673 -79.037485 
L 108.711512 -79.436794 
L 109.15035 -79.840325 
L 109.589189 -80.248096 
L 110.028028 -80.660127 
L 110.466867 -81.076436 
L 110.905706 -81.497042 
L 110.905706 -50.8 
L 110.905706 -50.8 
L 110.466867 -50.8 
L 110.028028 -50.8 
L 109.589189 -50.8 
L 109.15035 -50.8 
L 108.711512 -50.8 
L 108.272673 -50.8 
L 107.833834 -50.8 
L 107.394995 -50.8 
L 106.956156 -50.8 
L 106.517317 -50.8 
L 106.078478 -50.8 
L 105.63964 -50.8 
L 105.200801 -50.8 
L 104.761962 -50.8 
L 104.323123 -50.8 
L 103.884284 -50.8 
L 103.445445 -50.8 
L 103.006607 -50.8 
L 102.567768 -50.8 
L 102.128929 -50.8 
L 101.69009 -50.8 
L 101.251251 -50.8 
L 100.812412 -50.8 
L 100.373574 -50.8 
L 99.934735 -50.8 
L 99.495896 -50.8 
L 99.057057 -50.8 
L 98.618218 -50.8 
L 98.179379 -50.8 
L 97.740541 -50.8 
L 97.301702 -50.8 
L 96.862863 -50.8 
L 96.424024 -50.8 
L 95.985185 -50.8 
L 95.546346 -50.8 
L 95.107508 -50.8 
L 94.668669 -50.8 
L 94.22983 -50.8 
L 93.790991 -50.8 
L 93.352152 -50.8 
L 92.913313 -50.8 
L 92.474474 -50.8 
L 92.035636 -50.8 
L 91.596797 -50.8 
L 91.157958 -50.8 
L 90.719119 -50.8 
L 90.28028 -50.8 
L 89.841441 -50.8 
L 89.402603 -50.8 
L 88.963764 -50.8 
L 88.524925 -50.8 
L 88.086086 -50.8 
L 87.647247 -50.8 
L 87.208408 -50.8 
L 86.76957 -50.8 
L 86.330731 -50.8 
L 85.891892 -50.8 
L 85.453053 -50.8 
L 85.014214 -50.8 
L 84.575375 -50.8 
L 84.136537 -50.8 
L 83.697698 -50.8 
L 83.258859 -50.8 
L 82.82002 -50.8 
L 82.381181 -50.8 
L 81.942342 -50.8 
L 81.503504 -50.8 
L 81.064665 -50.8 
L 80.625826 -50.8 
L 80.186987 -50.8 
L 79.748148 -50.8 
L 79.309309 -50.8 
L 78.87047 -50.8 
L 78.431632 -50.8 
L 77.992793 -50.8 
L 77.553954 -50.8 
L 77.115115 -50.8 
L 76.676276 -50.8 
L 76.237437 -50.8 
L 75.798599 -50.8 
L 75.35976 -50.8 
L 74.920921 -50.8 
L 74.482082 -50.8 
L 74.043243 -50.8 
L 73.604404 -50.8 
L 73.165566 -50.8 
L 72.726727 -50.8 
L 72.287888 -50.8 
L 71.849049 -50.8 
L 71.41021 -50.8 
L 70.971371 -50.8 
L 70.532533 -50.8 
L 70.093694 -50.8 
L 69.654855 -50.8 
L 69.216016 -50.8 
L 68.777177 -50.8 
L 68.338338 -50.8 
L 67.899499 -50.8 
L 67.460661 -50.8 
L 67.021822 -50.8 
L 66.582983 -50.8 
L 66.144144 -50.8 
L 65.705305 -50.8 
L 65.266466 -50.8 
L 64.827628 -50.8 
L 64.388789 -50.8 
L 63.94995 -50.8 
L 63.511111 -50.8 
L 63.072272 -50.8 
L 62.633433 -50.8 
L 62.194595 -50.8 
L 61.755756 -50.8 
L 61.316917 -50.8 
L 60.878078 -50.8 
L 60.439239 -50.8 
L 60.0004 -50.8 
L 59.561562 -50.8 
L 59.122723 -50.8 
L 58.683884 -50.8 
L 58.245045 -50.8 
L 57.806206 -50.8 
L 57.367367 -50.8 
L 56.928529 -50.8 
L 56.48969 -50.8 
L 56.050851 -50.8 
L 55.612012 -50.8 
L 55.173173 -50.8 
L 54.734334 -50.8 
L 54.295495 -50.8 
L 53.856657 -50.8 
L 53.417818 -50.8 
L 52.978979 -50.8 
L 52.54014 -50.8 
L 52.101301 -50.8 
L 51.662462 -50.8 
L 51.223624 -50.8 
L 50.784785 -50.8 
L 50.345946 -50.8 
L 49.907107 -50.8 
L 49.468268 -50.8 
L 49.029429 -50.8 
L 48.590591 -50.8 
L 48.151752 -50.8 
L 47.712913 -50.8 
L 47.274074 -50.8 
L 46.835235 -50.8 
L 46.396396 -50.8 
L 45.957558 -50.8 
L 45.518719 -50.8 
L 45.07988 -50.8 
L 44.641041 -50.8 
L 44.202202 -50.8 
L 43.763363 -50.8 
L 43.324525 -50.8 
L 42.885686 -50.8 
L 42.446847 -50.8 
L 42.008008 -50.8 
L 41.569169 -50.8 
L 41.13033 -50.8 
L 40.691491 -50.8 
L 40.252653 -50.8 
L 39.813814 -50.8 
L 39.374975 -50.8 
L 38.936136 -50.8 
L 38.497297 -50.8 
L 38.058458 -50.8 
L 37.61962 -50.8 
L 37.180781 -50.8 
L 36.741942 -50.8 
L 36.303103 -50.8 
L 35.864264 -50.8 
L 35.425425 -50.8 
L 34.986587 -50.8 
L 34.547748 -50.8 
L 34.108909 -50.8 
L 33.67007 -50.8 
L 33.231231 -50.8 
L 32.792392 -50.8 
L 32.353554 -50.8 
L 31.914715 -50.8 
L 31.475876 -50.8 
L 31.037037 -50.8 
L 30.598198 -50.8 
L 30.159359 -50.8 
L 29.720521 -50.8 
L 29.281682 -50.8 
L 28.842843 -50.8 
L 28.404004 -50.8 
L 27.965165 -50.8 
L 27.526326 -50.8 
L 27.087487 -50.8 
L 26.648649 -50.8 
L 26.20981 -50.8 
L 25.770971 -50.8 
L 25.332132 -50.8 
L 24.893293 -50.8 
L 24.454454 -50.8 
L 24.015616 -50.8 
L 23.576777 -50.8 
L 23.137938 -50.8 
L 22.699099 -50.8 
L 22.26026 -50.8 
L 21.821421 -50.8 
L 21.382583 -50.8 
L 20.943744 -50.8 
L 20.504905 -50.8 
L 20.066066 -50.8 
L 19.627227 -50.8 
L 19.188388 -50.8 
L 18.74955 -50.8 
L 18.310711 -50.8 
L 17.871872 -50.8 
L 17.433033 -50.8 
L 16.994194 -50.8 
L 16.555355 -50.8 
L 16.116517 -50.8 
L 15.677678 -50.8 
L 15.238839 -50.8 
L 14.8 -50.8 
z
" id="mc9dea023b2" style="stroke:#00bfff;"/>
    </defs>
    <g clip-path="url(#pdab9a3a3ff)">
     <use style="fill:#00bfff;stroke:#00bfff;" x="0" xlink:href="#mc9dea023b2" y="288"/>
    </g>
   </g>
   <g id="PolyCollection_4">
    <defs>
     <path d="M 357.094294 -50.8 
L 357.094294 -81.497042 
L 357.533133 -81.076436 
L 357.971972 -80.660127 
L 358.410811 -80.248096 
L 358.84965 -79.840325 
L 359.288488 -79.436794 
L 359.727327 -79.037485 
L 360.166166 -78.642376 
L 360.605005 -78.251448 
L 361.043844 -77.86468 
L 361.482683 -77.482051 
L 361.921522 -77.10354 
L 362.36036 -76.729125 
L 362.799199 -76.358785 
L 363.238038 -75.992498 
L 363.676877 -75.630241 
L 364.115716 -75.271991 
L 364.554555 -74.917726 
L 364.993393 -74.567423 
L 365.432232 -74.221057 
L 365.871071 -73.878606 
L 366.30991 -73.540046 
L 366.748749 -73.205352 
L 367.187588 -72.874501 
L 367.626426 -72.547467 
L 368.065265 -72.224226 
L 368.504104 -71.904754 
L 368.942943 -71.589025 
L 369.381782 -71.277014 
L 369.820621 -70.968695 
L 370.259459 -70.664043 
L 370.698298 -70.363033 
L 371.137137 -70.065637 
L 371.575976 -69.771832 
L 372.014815 -69.48159 
L 372.453654 -69.194885 
L 372.892492 -68.91169 
L 373.331331 -68.63198 
L 373.77017 -68.355728 
L 374.209009 -68.082907 
L 374.647848 -67.81349 
L 375.086687 -67.547451 
L 375.525526 -67.284762 
L 375.964364 -67.025397 
L 376.403203 -66.769329 
L 376.842042 -66.51653 
L 377.280881 -66.266974 
L 377.71972 -66.020633 
L 378.158559 -65.77748 
L 378.597397 -65.537488 
L 379.036236 -65.30063 
L 379.475075 -65.066878 
L 379.913914 -64.836204 
L 380.352753 -64.608583 
L 380.791592 -64.383985 
L 381.23043 -64.162385 
L 381.669269 -63.943754 
L 382.108108 -63.728066 
L 382.546947 -63.515293 
L 382.985786 -63.305408 
L 383.424625 -63.098383 
L 383.863463 -62.894192 
L 384.302302 -62.692807 
L 384.741141 -62.494201 
L 385.17998 -62.298348 
L 385.618819 -62.105219 
L 386.057658 -61.914789 
L 386.496496 -61.727029 
L 386.935335 -61.541914 
L 387.374174 -61.359417 
L 387.813013 -61.17951 
L 388.251852 -61.002168 
L 388.690691 -60.827364 
L 389.12953 -60.65507 
L 389.568368 -60.485262 
L 390.007207 -60.317912 
L 390.446046 -60.152994 
L 390.884885 -59.990483 
L 391.323724 -59.830352 
L 391.762563 -59.672576 
L 392.201401 -59.517128 
L 392.64024 -59.363983 
L 393.079079 -59.213115 
L 393.517918 -59.0645 
L 393.956757 -58.918111 
L 394.395596 -58.773924 
L 394.834434 -58.631913 
L 395.273273 -58.492053 
L 395.712112 -58.35432 
L 396.150951 -58.218689 
L 396.58979 -58.085136 
L 397.028629 -57.953635 
L 397.467467 -57.824164 
L 397.906306 -57.696697 
L 398.345145 -57.57121 
L 398.783984 -57.447681 
L 399.222823 -57.326084 
L 399.661662 -57.206398 
L 400.100501 -57.088597 
L 400.539339 -56.97266 
L 400.978178 -56.858562 
L 401.417017 -56.746282 
L 401.855856 -56.635796 
L 402.294695 -56.527081 
L 402.733534 -56.420116 
L 403.172372 -56.314878 
L 403.611211 -56.211345 
L 404.05005 -56.109495 
L 404.488889 -56.009306 
L 404.927728 -55.910757 
L 405.366567 -55.813825 
L 405.805405 -55.718491 
L 406.244244 -55.624733 
L 406.683083 -55.532529 
L 407.121922 -55.44186 
L 407.560761 -55.352704 
L 407.9996 -55.265041 
L 408.438438 -55.178851 
L 408.877277 -55.094115 
L 409.316116 -55.010811 
L 409.754955 -54.928921 
L 410.193794 -54.848424 
L 410.632633 -54.769302 
L 411.071471 -54.691535 
L 411.51031 -54.615104 
L 411.949149 -54.539991 
L 412.387988 -54.466177 
L 412.826827 -54.393643 
L 413.265666 -54.322371 
L 413.704505 -54.252343 
L 414.143343 -54.183542 
L 414.582182 -54.115948 
L 415.021021 -54.049546 
L 415.45986 -53.984317 
L 415.898699 -53.920244 
L 416.337538 -53.85731 
L 416.776376 -53.795498 
L 417.215215 -53.734792 
L 417.654054 -53.675175 
L 418.092893 -53.616631 
L 418.531732 -53.559143 
L 418.970571 -53.502696 
L 419.409409 -53.447274 
L 419.848248 -53.392861 
L 420.287087 -53.339442 
L 420.725926 -53.287001 
L 421.164765 -53.235524 
L 421.603604 -53.184995 
L 422.042442 -53.135399 
L 422.481281 -53.086723 
L 422.92012 -53.038951 
L 423.358959 -52.99207 
L 423.797798 -52.946065 
L 424.236637 -52.900922 
L 424.675475 -52.856628 
L 425.114314 -52.813169 
L 425.553153 -52.770532 
L 425.991992 -52.728702 
L 426.430831 -52.687668 
L 426.86967 -52.647417 
L 427.308509 -52.607935 
L 427.747347 -52.56921 
L 428.186186 -52.531229 
L 428.625025 -52.49398 
L 429.063864 -52.457452 
L 429.502703 -52.421632 
L 429.941542 -52.386507 
L 430.38038 -52.352068 
L 430.819219 -52.318301 
L 431.258058 -52.285196 
L 431.696897 -52.252742 
L 432.135736 -52.220927 
L 432.574575 -52.189741 
L 433.013413 -52.159172 
L 433.452252 -52.129211 
L 433.891091 -52.099846 
L 434.32993 -52.071067 
L 434.768769 -52.042865 
L 435.207608 -52.015228 
L 435.646446 -51.988148 
L 436.085285 -51.961615 
L 436.524124 -51.935618 
L 436.962963 -51.910148 
L 437.401802 -51.885196 
L 437.840641 -51.860753 
L 438.279479 -51.83681 
L 438.718318 -51.813357 
L 439.157157 -51.790387 
L 439.595996 -51.767889 
L 440.034835 -51.745856 
L 440.473674 -51.724279 
L 440.912513 -51.70315 
L 441.351351 -51.682461 
L 441.79019 -51.662203 
L 442.229029 -51.64237 
L 442.667868 -51.622951 
L 443.106707 -51.603941 
L 443.545546 -51.585332 
L 443.984384 -51.567116 
L 444.423223 -51.549285 
L 444.862062 -51.531833 
L 445.300901 -51.514753 
L 445.73974 -51.498036 
L 446.178579 -51.481677 
L 446.617417 -51.465669 
L 447.056256 -51.450005 
L 447.495095 -51.434679 
L 447.933934 -51.419683 
L 448.372773 -51.405012 
L 448.811612 -51.390659 
L 449.25045 -51.376619 
L 449.689289 -51.362884 
L 450.128128 -51.34945 
L 450.566967 -51.33631 
L 451.005806 -51.323458 
L 451.444645 -51.31089 
L 451.883483 -51.298599 
L 452.322322 -51.286579 
L 452.761161 -51.274826 
L 453.2 -51.263334 
L 453.2 -50.8 
L 453.2 -50.8 
L 452.761161 -50.8 
L 452.322322 -50.8 
L 451.883483 -50.8 
L 451.444645 -50.8 
L 451.005806 -50.8 
L 450.566967 -50.8 
L 450.128128 -50.8 
L 449.689289 -50.8 
L 449.25045 -50.8 
L 448.811612 -50.8 
L 448.372773 -50.8 
L 447.933934 -50.8 
L 447.495095 -50.8 
L 447.056256 -50.8 
L 446.617417 -50.8 
L 446.178579 -50.8 
L 445.73974 -50.8 
L 445.300901 -50.8 
L 444.862062 -50.8 
L 444.423223 -50.8 
L 443.984384 -50.8 
L 443.545546 -50.8 
L 443.106707 -50.8 
L 442.667868 -50.8 
L 442.229029 -50.8 
L 441.79019 -50.8 
L 441.351351 -50.8 
L 440.912513 -50.8 
L 440.473674 -50.8 
L 440.034835 -50.8 
L 439.595996 -50.8 
L 439.157157 -50.8 
L 438.718318 -50.8 
L 438.279479 -50.8 
L 437.840641 -50.8 
L 437.401802 -50.8 
L 436.962963 -50.8 
L 436.524124 -50.8 
L 436.085285 -50.8 
L 435.646446 -50.8 
L 435.207608 -50.8 
L 434.768769 -50.8 
L 434.32993 -50.8 
L 433.891091 -50.8 
L 433.452252 -50.8 
L 433.013413 -50.8 
L 432.574575 -50.8 
L 432.135736 -50.8 
L 431.696897 -50.8 
L 431.258058 -50.8 
L 430.819219 -50.8 
L 430.38038 -50.8 
L 429.941542 -50.8 
L 429.502703 -50.8 
L 429.063864 -50.8 
L 428.625025 -50.8 
L 428.186186 -50.8 
L 427.747347 -50.8 
L 427.308509 -50.8 
L 426.86967 -50.8 
L 426.430831 -50.8 
L 425.991992 -50.8 
L 425.553153 -50.8 
L 425.114314 -50.8 
L 424.675475 -50.8 
L 424.236637 -50.8 
L 423.797798 -50.8 
L 423.358959 -50.8 
L 422.92012 -50.8 
L 422.481281 -50.8 
L 422.042442 -50.8 
L 421.603604 -50.8 
L 421.164765 -50.8 
L 420.725926 -50.8 
L 420.287087 -50.8 
L 419.848248 -50.8 
L 419.409409 -50.8 
L 418.970571 -50.8 
L 418.531732 -50.8 
L 418.092893 -50.8 
L 417.654054 -50.8 
L 417.215215 -50.8 
L 416.776376 -50.8 
L 416.337538 -50.8 
L 415.898699 -50.8 
L 415.45986 -50.8 
L 415.021021 -50.8 
L 414.582182 -50.8 
L 414.143343 -50.8 
L 413.704505 -50.8 
L 413.265666 -50.8 
L 412.826827 -50.8 
L 412.387988 -50.8 
L 411.949149 -50.8 
L 411.51031 -50.8 
L 411.071471 -50.8 
L 410.632633 -50.8 
L 410.193794 -50.8 
L 409.754955 -50.8 
L 409.316116 -50.8 
L 408.877277 -50.8 
L 408.438438 -50.8 
L 407.9996 -50.8 
L 407.560761 -50.8 
L 407.121922 -50.8 
L 406.683083 -50.8 
L 406.244244 -50.8 
L 405.805405 -50.8 
L 405.366567 -50.8 
L 404.927728 -50.8 
L 404.488889 -50.8 
L 404.05005 -50.8 
L 403.611211 -50.8 
L 403.172372 -50.8 
L 402.733534 -50.8 
L 402.294695 -50.8 
L 401.855856 -50.8 
L 401.417017 -50.8 
L 400.978178 -50.8 
L 400.539339 -50.8 
L 400.100501 -50.8 
L 399.661662 -50.8 
L 399.222823 -50.8 
L 398.783984 -50.8 
L 398.345145 -50.8 
L 397.906306 -50.8 
L 397.467467 -50.8 
L 397.028629 -50.8 
L 396.58979 -50.8 
L 396.150951 -50.8 
L 395.712112 -50.8 
L 395.273273 -50.8 
L 394.834434 -50.8 
L 394.395596 -50.8 
L 393.956757 -50.8 
L 393.517918 -50.8 
L 393.079079 -50.8 
L 392.64024 -50.8 
L 392.201401 -50.8 
L 391.762563 -50.8 
L 391.323724 -50.8 
L 390.884885 -50.8 
L 390.446046 -50.8 
L 390.007207 -50.8 
L 389.568368 -50.8 
L 389.12953 -50.8 
L 388.690691 -50.8 
L 388.251852 -50.8 
L 387.813013 -50.8 
L 387.374174 -50.8 
L 386.935335 -50.8 
L 386.496496 -50.8 
L 386.057658 -50.8 
L 385.618819 -50.8 
L 385.17998 -50.8 
L 384.741141 -50.8 
L 384.302302 -50.8 
L 383.863463 -50.8 
L 383.424625 -50.8 
L 382.985786 -50.8 
L 382.546947 -50.8 
L 382.108108 -50.8 
L 381.669269 -50.8 
L 381.23043 -50.8 
L 380.791592 -50.8 
L 380.352753 -50.8 
L 379.913914 -50.8 
L 379.475075 -50.8 
L 379.036236 -50.8 
L 378.597397 -50.8 
L 378.158559 -50.8 
L 377.71972 -50.8 
L 377.280881 -50.8 
L 376.842042 -50.8 
L 376.403203 -50.8 
L 375.964364 -50.8 
L 375.525526 -50.8 
L 375.086687 -50.8 
L 374.647848 -50.8 
L 374.209009 -50.8 
L 373.77017 -50.8 
L 373.331331 -50.8 
L 372.892492 -50.8 
L 372.453654 -50.8 
L 372.014815 -50.8 
L 371.575976 -50.8 
L 371.137137 -50.8 
L 370.698298 -50.8 
L 370.259459 -50.8 
L 369.820621 -50.8 
L 369.381782 -50.8 
L 368.942943 -50.8 
L 368.504104 -50.8 
L 368.065265 -50.8 
L 367.626426 -50.8 
L 367.187588 -50.8 
L 366.748749 -50.8 
L 366.30991 -50.8 
L 365.871071 -50.8 
L 365.432232 -50.8 
L 364.993393 -50.8 
L 364.554555 -50.8 
L 364.115716 -50.8 
L 363.676877 -50.8 
L 363.238038 -50.8 
L 362.799199 -50.8 
L 362.36036 -50.8 
L 361.921522 -50.8 
L 361.482683 -50.8 
L 361.043844 -50.8 
L 360.605005 -50.8 
L 360.166166 -50.8 
L 359.727327 -50.8 
L 359.288488 -50.8 
L 358.84965 -50.8 
L 358.410811 -50.8 
L 357.971972 -50.8 
L 357.533133 -50.8 
L 357.094294 -50.8 
z
" id="m6dca49b69b" style="stroke:#00bfff;"/>
    </defs>
    <g clip-path="url(#pdab9a3a3ff)">
     <use style="fill:#00bfff;stroke:#00bfff;" x="0" xlink:href="#m6dca49b69b" y="288"/>
    </g>
   </g>
   <g id="PolyCollection_5">
    <defs>
     <path d="M 14.8 -50.8 
L 14.8 -51.263334 
L 15.238839 -51.274826 
L 15.677678 -51.286579 
L 16.116517 -51.298599 
L 16.555355 -51.31089 
L 16.994194 -51.323458 
L 17.433033 -51.33631 
L 17.871872 -51.34945 
L 18.310711 -51.362884 
L 18.74955 -51.376619 
L 19.188388 -51.390659 
L 19.627227 -51.405012 
L 20.066066 -51.419683 
L 20.504905 -51.434679 
L 20.943744 -51.450005 
L 21.382583 -51.465669 
L 21.821421 -51.481677 
L 22.26026 -51.498036 
L 22.699099 -51.514753 
L 23.137938 -51.531833 
L 23.576777 -51.549285 
L 24.015616 -51.567116 
L 24.454454 -51.585332 
L 24.893293 -51.603941 
L 25.332132 -51.622951 
L 25.770971 -51.64237 
L 26.20981 -51.662203 
L 26.648649 -51.682461 
L 27.087487 -51.70315 
L 27.526326 -51.724279 
L 27.965165 -51.745856 
L 28.404004 -51.767889 
L 28.842843 -51.790387 
L 29.281682 -51.813357 
L 29.720521 -51.83681 
L 30.159359 -51.860753 
L 30.598198 -51.885196 
L 31.037037 -51.910148 
L 31.475876 -51.935618 
L 31.914715 -51.961615 
L 32.353554 -51.988148 
L 32.792392 -52.015228 
L 33.231231 -52.042865 
L 33.67007 -52.071067 
L 34.108909 -52.099846 
L 34.547748 -52.129211 
L 34.986587 -52.159172 
L 35.425425 -52.189741 
L 35.864264 -52.220927 
L 36.303103 -52.252742 
L 36.741942 -52.285196 
L 37.180781 -52.318301 
L 37.61962 -52.352068 
L 38.058458 -52.386507 
L 38.497297 -52.421632 
L 38.936136 -52.457452 
L 39.374975 -52.49398 
L 39.813814 -52.531229 
L 40.252653 -52.56921 
L 40.691491 -52.607935 
L 41.13033 -52.647417 
L 41.569169 -52.687668 
L 42.008008 -52.728702 
L 42.446847 -52.770532 
L 42.885686 -52.813169 
L 43.324525 -52.856628 
L 43.763363 -52.900922 
L 44.202202 -52.946065 
L 44.641041 -52.99207 
L 45.07988 -53.038951 
L 45.518719 -53.086723 
L 45.957558 -53.135399 
L 46.396396 -53.184995 
L 46.835235 -53.235524 
L 47.274074 -53.287001 
L 47.712913 -53.339442 
L 48.151752 -53.392861 
L 48.590591 -53.447274 
L 49.029429 -53.502696 
L 49.468268 -53.559143 
L 49.907107 -53.616631 
L 50.345946 -53.675175 
L 50.784785 -53.734792 
L 51.223624 -53.795498 
L 51.662462 -53.85731 
L 52.101301 -53.920244 
L 52.54014 -53.984317 
L 52.978979 -54.049546 
L 53.417818 -54.115948 
L 53.856657 -54.183542 
L 54.295495 -54.252343 
L 54.734334 -54.322371 
L 55.173173 -54.393643 
L 55.612012 -54.466177 
L 56.050851 -54.539991 
L 56.48969 -54.615104 
L 56.928529 -54.691535 
L 57.367367 -54.769302 
L 57.806206 -54.848424 
L 58.245045 -54.928921 
L 58.683884 -55.010811 
L 59.122723 -55.094115 
L 59.561562 -55.178851 
L 60.0004 -55.265041 
L 60.439239 -55.352704 
L 60.878078 -55.44186 
L 61.316917 -55.532529 
L 61.755756 -55.624733 
L 62.194595 -55.718491 
L 62.633433 -55.813825 
L 63.072272 -55.910757 
L 63.511111 -56.009306 
L 63.94995 -56.109495 
L 64.388789 -56.211345 
L 64.827628 -56.314878 
L 65.266466 -56.420116 
L 65.705305 -56.527081 
L 66.144144 -56.635796 
L 66.582983 -56.746282 
L 67.021822 -56.858562 
L 67.460661 -56.97266 
L 67.899499 -57.088597 
L 68.338338 -57.206398 
L 68.777177 -57.326084 
L 69.216016 -57.447681 
L 69.654855 -57.57121 
L 70.093694 -57.696697 
L 70.532533 -57.824164 
L 70.971371 -57.953635 
L 71.41021 -58.085136 
L 71.849049 -58.218689 
L 72.287888 -58.35432 
L 72.287888 -50.8 
L 72.287888 -50.8 
L 71.849049 -50.8 
L 71.41021 -50.8 
L 70.971371 -50.8 
L 70.532533 -50.8 
L 70.093694 -50.8 
L 69.654855 -50.8 
L 69.216016 -50.8 
L 68.777177 -50.8 
L 68.338338 -50.8 
L 67.899499 -50.8 
L 67.460661 -50.8 
L 67.021822 -50.8 
L 66.582983 -50.8 
L 66.144144 -50.8 
L 65.705305 -50.8 
L 65.266466 -50.8 
L 64.827628 -50.8 
L 64.388789 -50.8 
L 63.94995 -50.8 
L 63.511111 -50.8 
L 63.072272 -50.8 
L 62.633433 -50.8 
L 62.194595 -50.8 
L 61.755756 -50.8 
L 61.316917 -50.8 
L 60.878078 -50.8 
L 60.439239 -50.8 
L 60.0004 -50.8 
L 59.561562 -50.8 
L 59.122723 -50.8 
L 58.683884 -50.8 
L 58.245045 -50.8 
L 57.806206 -50.8 
L 57.367367 -50.8 
L 56.928529 -50.8 
L 56.48969 -50.8 
L 56.050851 -50.8 
L 55.612012 -50.8 
L 55.173173 -50.8 
L 54.734334 -50.8 
L 54.295495 -50.8 
L 53.856657 -50.8 
L 53.417818 -50.8 
L 52.978979 -50.8 
L 52.54014 -50.8 
L 52.101301 -50.8 
L 51.662462 -50.8 
L 51.223624 -50.8 
L 50.784785 -50.8 
L 50.345946 -50.8 
L 49.907107 -50.8 
L 49.468268 -50.8 
L 49.029429 -50.8 
L 48.590591 -50.8 
L 48.151752 -50.8 
L 47.712913 -50.8 
L 47.274074 -50.8 
L 46.835235 -50.8 
L 46.396396 -50.8 
L 45.957558 -50.8 
L 45.518719 -50.8 
L 45.07988 -50.8 
L 44.641041 -50.8 
L 44.202202 -50.8 
L 43.763363 -50.8 
L 43.324525 -50.8 
L 42.885686 -50.8 
L 42.446847 -50.8 
L 42.008008 -50.8 
L 41.569169 -50.8 
L 41.13033 -50.8 
L 40.691491 -50.8 
L 40.252653 -50.8 
L 39.813814 -50.8 
L 39.374975 -50.8 
L 38.936136 -50.8 
L 38.497297 -50.8 
L 38.058458 -50.8 
L 37.61962 -50.8 
L 37.180781 -50.8 
L 36.741942 -50.8 
L 36.303103 -50.8 
L 35.864264 -50.8 
L 35.425425 -50.8 
L 34.986587 -50.8 
L 34.547748 -50.8 
L 34.108909 -50.8 
L 33.67007 -50.8 
L 33.231231 -50.8 
L 32.792392 -50.8 
L 32.353554 -50.8 
L 31.914715 -50.8 
L 31.475876 -50.8 
L 31.037037 -50.8 
L 30.598198 -50.8 
L 30.159359 -50.8 
L 29.720521 -50.8 
L 29.281682 -50.8 
L 28.842843 -50.8 
L 28.404004 -50.8 
L 27.965165 -50.8 
L 27.526326 -50.8 
L 27.087487 -50.8 
L 26.648649 -50.8 
L 26.20981 -50.8 
L 25.770971 -50.8 
L 25.332132 -50.8 
L 24.893293 -50.8 
L 24.454454 -50.8 
L 24.015616 -50.8 
L 23.576777 -50.8 
L 23.137938 -50.8 
L 22.699099 -50.8 
L 22.26026 -50.8 
L 21.821421 -50.8 
L 21.382583 -50.8 
L 20.943744 -50.8 
L 20.504905 -50.8 
L 20.066066 -50.8 
L 19.627227 -50.8 
L 19.188388 -50.8 
L 18.74955 -50.8 
L 18.310711 -50.8 
L 17.871872 -50.8 
L 17.433033 -50.8 
L 16.994194 -50.8 
L 16.555355 -50.8 
L 16.116517 -50.8 
L 15.677678 -50.8 
L 15.238839 -50.8 
L 14.8 -50.8 
z
" id="m9cc358b0f5" style="stroke:#fb4c52;"/>
    </defs>
    <g clip-path="url(#pdab9a3a3ff)">
     <use style="fill:#fb4c52;stroke:#fb4c52;" x="0" xlink:href="#m9cc358b0f5" y="288"/>
    </g>
   </g>
   <g id="PolyCollection_6">
    <defs>
     <path d="M 395.712112 -50.8 
L 395.712112 -58.35432 
L 396.150951 -58.218689 
L 396.58979 -58.085136 
L 397.028629 -57.953635 
L 397.467467 -57.824164 
L 397.906306 -57.696697 
L 398.345145 -57.57121 
L 398.783984 -57.447681 
L 399.222823 -57.326084 
L 399.661662 -57.206398 
L 400.100501 -57.088597 
L 400.539339 -56.97266 
L 400.978178 -56.858562 
L 401.417017 -56.746282 
L 401.855856 -56.635796 
L 402.294695 -56.527081 
L 402.733534 -56.420116 
L 403.172372 -56.314878 
L 403.611211 -56.211345 
L 404.05005 -56.109495 
L 404.488889 -56.009306 
L 404.927728 -55.910757 
L 405.366567 -55.813825 
L 405.805405 -55.718491 
L 406.244244 -55.624733 
L 406.683083 -55.532529 
L 407.121922 -55.44186 
L 407.560761 -55.352704 
L 407.9996 -55.265041 
L 408.438438 -55.178851 
L 408.877277 -55.094115 
L 409.316116 -55.010811 
L 409.754955 -54.928921 
L 410.193794 -54.848424 
L 410.632633 -54.769302 
L 411.071471 -54.691535 
L 411.51031 -54.615104 
L 411.949149 -54.539991 
L 412.387988 -54.466177 
L 412.826827 -54.393643 
L 413.265666 -54.322371 
L 413.704505 -54.252343 
L 414.143343 -54.183542 
L 414.582182 -54.115948 
L 415.021021 -54.049546 
L 415.45986 -53.984317 
L 415.898699 -53.920244 
L 416.337538 -53.85731 
L 416.776376 -53.795498 
L 417.215215 -53.734792 
L 417.654054 -53.675175 
L 418.092893 -53.616631 
L 418.531732 -53.559143 
L 418.970571 -53.502696 
L 419.409409 -53.447274 
L 419.848248 -53.392861 
L 420.287087 -53.339442 
L 420.725926 -53.287001 
L 421.164765 -53.235524 
L 421.603604 -53.184995 
L 422.042442 -53.135399 
L 422.481281 -53.086723 
L 422.92012 -53.038951 
L 423.358959 -52.99207 
L 423.797798 -52.946065 
L 424.236637 -52.900922 
L 424.675475 -52.856628 
L 425.114314 -52.813169 
L 425.553153 -52.770532 
L 425.991992 -52.728702 
L 426.430831 -52.687668 
L 426.86967 -52.647417 
L 427.308509 -52.607935 
L 427.747347 -52.56921 
L 428.186186 -52.531229 
L 428.625025 -52.49398 
L 429.063864 -52.457452 
L 429.502703 -52.421632 
L 429.941542 -52.386507 
L 430.38038 -52.352068 
L 430.819219 -52.318301 
L 431.258058 -52.285196 
L 431.696897 -52.252742 
L 432.135736 -52.220927 
L 432.574575 -52.189741 
L 433.013413 -52.159172 
L 433.452252 -52.129211 
L 433.891091 -52.099846 
L 434.32993 -52.071067 
L 434.768769 -52.042865 
L 435.207608 -52.015228 
L 435.646446 -51.988148 
L 436.085285 -51.961615 
L 436.524124 -51.935618 
L 436.962963 -51.910148 
L 437.401802 -51.885196 
L 437.840641 -51.860753 
L 438.279479 -51.83681 
L 438.718318 -51.813357 
L 439.157157 -51.790387 
L 439.595996 -51.767889 
L 440.034835 -51.745856 
L 440.473674 -51.724279 
L 440.912513 -51.70315 
L 441.351351 -51.682461 
L 441.79019 -51.662203 
L 442.229029 -51.64237 
L 442.667868 -51.622951 
L 443.106707 -51.603941 
L 443.545546 -51.585332 
L 443.984384 -51.567116 
L 444.423223 -51.549285 
L 444.862062 -51.531833 
L 445.300901 -51.514753 
L 445.73974 -51.498036 
L 446.178579 -51.481677 
L 446.617417 -51.465669 
L 447.056256 -51.450005 
L 447.495095 -51.434679 
L 447.933934 -51.419683 
L 448.372773 -51.405012 
L 448.811612 -51.390659 
L 449.25045 -51.376619 
L 449.689289 -51.362884 
L 450.128128 -51.34945 
L 450.566967 -51.33631 
L 451.005806 -51.323458 
L 451.444645 -51.31089 
L 451.883483 -51.298599 
L 452.322322 -51.286579 
L 452.761161 -51.274826 
L 453.2 -51.263334 
L 453.2 -50.8 
L 453.2 -50.8 
L 452.761161 -50.8 
L 452.322322 -50.8 
L 451.883483 -50.8 
L 451.444645 -50.8 
L 451.005806 -50.8 
L 450.566967 -50.8 
L 450.128128 -50.8 
L 449.689289 -50.8 
L 449.25045 -50.8 
L 448.811612 -50.8 
L 448.372773 -50.8 
L 447.933934 -50.8 
L 447.495095 -50.8 
L 447.056256 -50.8 
L 446.617417 -50.8 
L 446.178579 -50.8 
L 445.73974 -50.8 
L 445.300901 -50.8 
L 444.862062 -50.8 
L 444.423223 -50.8 
L 443.984384 -50.8 
L 443.545546 -50.8 
L 443.106707 -50.8 
L 442.667868 -50.8 
L 442.229029 -50.8 
L 441.79019 -50.8 
L 441.351351 -50.8 
L 440.912513 -50.8 
L 440.473674 -50.8 
L 440.034835 -50.8 
L 439.595996 -50.8 
L 439.157157 -50.8 
L 438.718318 -50.8 
L 438.279479 -50.8 
L 437.840641 -50.8 
L 437.401802 -50.8 
L 436.962963 -50.8 
L 436.524124 -50.8 
L 436.085285 -50.8 
L 435.646446 -50.8 
L 435.207608 -50.8 
L 434.768769 -50.8 
L 434.32993 -50.8 
L 433.891091 -50.8 
L 433.452252 -50.8 
L 433.013413 -50.8 
L 432.574575 -50.8 
L 432.135736 -50.8 
L 431.696897 -50.8 
L 431.258058 -50.8 
L 430.819219 -50.8 
L 430.38038 -50.8 
L 429.941542 -50.8 
L 429.502703 -50.8 
L 429.063864 -50.8 
L 428.625025 -50.8 
L 428.186186 -50.8 
L 427.747347 -50.8 
L 427.308509 -50.8 
L 426.86967 -50.8 
L 426.430831 -50.8 
L 425.991992 -50.8 
L 425.553153 -50.8 
L 425.114314 -50.8 
L 424.675475 -50.8 
L 424.236637 -50.8 
L 423.797798 -50.8 
L 423.358959 -50.8 
L 422.92012 -50.8 
L 422.481281 -50.8 
L 422.042442 -50.8 
L 421.603604 -50.8 
L 421.164765 -50.8 
L 420.725926 -50.8 
L 420.287087 -50.8 
L 419.848248 -50.8 
L 419.409409 -50.8 
L 418.970571 -50.8 
L 418.531732 -50.8 
L 418.092893 -50.8 
L 417.654054 -50.8 
L 417.215215 -50.8 
L 416.776376 -50.8 
L 416.337538 -50.8 
L 415.898699 -50.8 
L 415.45986 -50.8 
L 415.021021 -50.8 
L 414.582182 -50.8 
L 414.143343 -50.8 
L 413.704505 -50.8 
L 413.265666 -50.8 
L 412.826827 -50.8 
L 412.387988 -50.8 
L 411.949149 -50.8 
L 411.51031 -50.8 
L 411.071471 -50.8 
L 410.632633 -50.8 
L 410.193794 -50.8 
L 409.754955 -50.8 
L 409.316116 -50.8 
L 408.877277 -50.8 
L 408.438438 -50.8 
L 407.9996 -50.8 
L 407.560761 -50.8 
L 407.121922 -50.8 
L 406.683083 -50.8 
L 406.244244 -50.8 
L 405.805405 -50.8 
L 405.366567 -50.8 
L 404.927728 -50.8 
L 404.488889 -50.8 
L 404.05005 -50.8 
L 403.611211 -50.8 
L 403.172372 -50.8 
L 402.733534 -50.8 
L 402.294695 -50.8 
L 401.855856 -50.8 
L 401.417017 -50.8 
L 400.978178 -50.8 
L 400.539339 -50.8 
L 400.100501 -50.8 
L 399.661662 -50.8 
L 399.222823 -50.8 
L 398.783984 -50.8 
L 398.345145 -50.8 
L 397.906306 -50.8 
L 397.467467 -50.8 
L 397.028629 -50.8 
L 396.58979 -50.8 
L 396.150951 -50.8 
L 395.712112 -50.8 
z
" id="mafd82df9d7" style="stroke:#fb4c52;"/>
    </defs>
    <g clip-path="url(#pdab9a3a3ff)">
     <use style="fill:#fb4c52;stroke:#fb4c52;" x="0" xlink:href="#mafd82df9d7" y="288"/>
    </g>
   </g>
   <g id="matplotlib.axis_1">
    <g id="xtick_1">
     <g id="line2d_1">
      <defs>
       <path d="M 0 0 
L 0 4 
" id="mff84cf0d7e" style="stroke:#222222;"/>
      </defs>
      <g>
       <use style="fill:#222222;stroke:#222222;" x="72.418286" xlink:href="#mff84cf0d7e" y="237.2"/>
      </g>
     </g>
     <g id="text_1">
      <!-- -2.58 -->
      <defs>
       <path d="M 4.890625 31.390625 
L 31.203125 31.390625 
L 31.203125 23.390625 
L 4.890625 23.390625 
z
" id="DejaVuSans-2d"/>
       <path d="M 19.1875 8.296875 
L 53.609375 8.296875 
L 53.609375 0 
L 7.328125 0 
L 7.328125 8.296875 
Q 12.9375 14.109375 22.625 23.890625 
Q 32.328125 33.6875 34.8125 36.53125 
Q 39.546875 41.84375 41.421875 45.53125 
Q 43.3125 49.21875 43.3125 52.78125 
Q 43.3125 58.59375 39.234375 62.25 
Q 35.15625 65.921875 28.609375 65.921875 
Q 23.96875 65.921875 18.8125 64.3125 
Q 13.671875 62.703125 7.8125 59.421875 
L 7.8125 69.390625 
Q 13.765625 71.78125 18.9375 73 
Q 24.125 74.21875 28.421875 74.21875 
Q 39.75 74.21875 46.484375 68.546875 
Q 53.21875 62.890625 53.21875 53.421875 
Q 53.21875 48.921875 51.53125 44.890625 
Q 49.859375 40.875 45.40625 35.40625 
Q 44.1875 33.984375 37.640625 27.21875 
Q 31.109375 20.453125 19.1875 8.296875 
z
" id="DejaVuSans-32"/>
       <path d="M 10.6875 12.40625 
L 21 12.40625 
L 21 0 
L 10.6875 0 
z
" id="DejaVuSans-2e"/>
       <path d="M 10.796875 72.90625 
L 49.515625 72.90625 
L 49.515625 64.59375 
L 19.828125 64.59375 
L 19.828125 46.734375 
Q 21.96875 47.46875 24.109375 47.828125 
Q 26.265625 48.1875 28.421875 48.1875 
Q 40.625 48.1875 47.75 41.5 
Q 54.890625 34.8125 54.890625 23.390625 
Q 54.890625 11.625 47.5625 5.09375 
Q 40.234375 -1.421875 26.90625 -1.421875 
Q 22.3125 -1.421875 17.546875 -0.640625 
Q 12.796875 0.140625 7.71875 1.703125 
L 7.71875 11.625 
Q 12.109375 9.234375 16.796875 8.0625 
Q 21.484375 6.890625 26.703125 6.890625 
Q 35.15625 6.890625 40.078125 11.328125 
Q 45.015625 15.765625 45.015625 23.390625 
Q 45.015625 31 40.078125 35.4375 
Q 35.15625 39.890625 26.703125 39.890625 
Q 22.75 39.890625 18.8125 39.015625 
Q 14.890625 38.140625 10.796875 36.28125 
z
" id="DejaVuSans-35"/>
       <path d="M 31.78125 34.625 
Q 24.75 34.625 20.71875 30.859375 
Q 16.703125 27.09375 16.703125 20.515625 
Q 16.703125 13.921875 20.71875 10.15625 
Q 24.75 6.390625 31.78125 6.390625 
Q 38.8125 6.390625 42.859375 10.171875 
Q 46.921875 13.96875 46.921875 20.515625 
Q 46.921875 27.09375 42.890625 30.859375 
Q 38.875 34.625 31.78125 34.625 
z
M 21.921875 38.8125 
Q 15.578125 40.375 12.03125 44.71875 
Q 8.5 49.078125 8.5 55.328125 
Q 8.5 64.0625 14.71875 69.140625 
Q 20.953125 74.21875 31.78125 74.21875 
Q 42.671875 74.21875 48.875 69.140625 
Q 55.078125 64.0625 55.078125 55.328125 
Q 55.078125 49.078125 51.53125 44.71875 
Q 48 40.375 41.703125 38.8125 
Q 48.828125 37.15625 52.796875 32.3125 
Q 56.78125 27.484375 56.78125 20.515625 
Q 56.78125 9.90625 50.3125 4.234375 
Q 43.84375 -1.421875 31.78125 -1.421875 
Q 19.734375 -1.421875 13.25 4.234375 
Q 6.78125 9.90625 6.78125 20.515625 
Q 6.78125 27.484375 10.78125 32.3125 
Q 14.796875 37.15625 21.921875 38.8125 
z
M 18.3125 54.390625 
Q 18.3125 48.734375 21.84375 45.5625 
Q 25.390625 42.390625 31.78125 42.390625 
Q 38.140625 42.390625 41.71875 45.5625 
Q 45.3125 48.734375 45.3125 54.390625 
Q 45.3125 60.0625 41.71875 63.234375 
Q 38.140625 66.40625 31.78125 66.40625 
Q 25.390625 66.40625 21.84375 63.234375 
Q 18.3125 60.0625 18.3125 54.390625 
z
" id="DejaVuSans-38"/>
      </defs>
      <g style="fill:#222222;" transform="translate(55.600551 255.077969)scale(0.13 -0.13)">
       <use xlink:href="#DejaVuSans-2d"/>
       <use x="36.083984" xlink:href="#DejaVuSans-32"/>
       <use x="99.707031" xlink:href="#DejaVuSans-2e"/>
       <use x="131.494141" xlink:href="#DejaVuSans-35"/>
       <use x="195.117188" xlink:href="#DejaVuSans-38"/>
      </g>
     </g>
    </g>
    <g id="xtick_2">
     <g id="line2d_2">
      <g>
       <use style="fill:#222222;stroke:#222222;" x="111.248" xlink:href="#mff84cf0d7e" y="237.2"/>
      </g>
     </g>
     <g id="text_2">
      <!-- -1.96 -->
      <defs>
       <path d="M 12.40625 8.296875 
L 28.515625 8.296875 
L 28.515625 63.921875 
L 10.984375 60.40625 
L 10.984375 69.390625 
L 28.421875 72.90625 
L 38.28125 72.90625 
L 38.28125 8.296875 
L 54.390625 8.296875 
L 54.390625 0 
L 12.40625 0 
z
" id="DejaVuSans-31"/>
       <path d="M 10.984375 1.515625 
L 10.984375 10.5 
Q 14.703125 8.734375 18.5 7.8125 
Q 22.3125 6.890625 25.984375 6.890625 
Q 35.75 6.890625 40.890625 13.453125 
Q 46.046875 20.015625 46.78125 33.40625 
Q 43.953125 29.203125 39.59375 26.953125 
Q 35.25 24.703125 29.984375 24.703125 
Q 19.046875 24.703125 12.671875 31.3125 
Q 6.296875 37.9375 6.296875 49.421875 
Q 6.296875 60.640625 12.9375 67.421875 
Q 19.578125 74.21875 30.609375 74.21875 
Q 43.265625 74.21875 49.921875 64.515625 
Q 56.59375 54.828125 56.59375 36.375 
Q 56.59375 19.140625 48.40625 8.859375 
Q 40.234375 -1.421875 26.421875 -1.421875 
Q 22.703125 -1.421875 18.890625 -0.6875 
Q 15.09375 0.046875 10.984375 1.515625 
z
M 30.609375 32.421875 
Q 37.25 32.421875 41.125 36.953125 
Q 45.015625 41.5 45.015625 49.421875 
Q 45.015625 57.28125 41.125 61.84375 
Q 37.25 66.40625 30.609375 66.40625 
Q 23.96875 66.40625 20.09375 61.84375 
Q 16.21875 57.28125 16.21875 49.421875 
Q 16.21875 41.5 20.09375 36.953125 
Q 23.96875 32.421875 30.609375 32.421875 
z
" id="DejaVuSans-39"/>
       <path d="M 33.015625 40.375 
Q 26.375 40.375 22.484375 35.828125 
Q 18.609375 31.296875 18.609375 23.390625 
Q 18.609375 15.53125 22.484375 10.953125 
Q 26.375 6.390625 33.015625 6.390625 
Q 39.65625 6.390625 43.53125 10.953125 
Q 47.40625 15.53125 47.40625 23.390625 
Q 47.40625 31.296875 43.53125 35.828125 
Q 39.65625 40.375 33.015625 40.375 
z
M 52.59375 71.296875 
L 52.59375 62.3125 
Q 48.875 64.0625 45.09375 64.984375 
Q 41.3125 65.921875 37.59375 65.921875 
Q 27.828125 65.921875 22.671875 59.328125 
Q 17.53125 52.734375 16.796875 39.40625 
Q 19.671875 43.65625 24.015625 45.921875 
Q 28.375 48.1875 33.59375 48.1875 
Q 44.578125 48.1875 50.953125 41.515625 
Q 57.328125 34.859375 57.328125 23.390625 
Q 57.328125 12.15625 50.6875 5.359375 
Q 44.046875 -1.421875 33.015625 -1.421875 
Q 20.359375 -1.421875 13.671875 8.265625 
Q 6.984375 17.96875 6.984375 36.375 
Q 6.984375 53.65625 15.1875 63.9375 
Q 23.390625 74.21875 37.203125 74.21875 
Q 40.921875 74.21875 44.703125 73.484375 
Q 48.484375 72.75 52.59375 71.296875 
z
" id="DejaVuSans-36"/>
      </defs>
      <g style="fill:#222222;" transform="translate(94.430266 255.077969)scale(0.13 -0.13)">
       <use xlink:href="#DejaVuSans-2d"/>
       <use x="36.083984" xlink:href="#DejaVuSans-31"/>
       <use x="99.707031" xlink:href="#DejaVuSans-2e"/>
       <use x="131.494141" xlink:href="#DejaVuSans-39"/>
       <use x="195.117188" xlink:href="#DejaVuSans-36"/>
      </g>
     </g>
    </g>
    <g id="xtick_3">
     <g id="line2d_3">
      <g>
       <use style="fill:#222222;stroke:#222222;" x="171.371429" xlink:href="#mff84cf0d7e" y="237.2"/>
      </g>
     </g>
     <g id="text_3">
      <!-- -1 -->
      <g style="fill:#222222;" transform="translate(164.890725 255.077969)scale(0.13 -0.13)">
       <use xlink:href="#DejaVuSans-2d"/>
       <use x="36.083984" xlink:href="#DejaVuSans-31"/>
      </g>
     </g>
    </g>
    <g id="xtick_4">
     <g id="line2d_4">
      <g>
       <use style="fill:#222222;stroke:#222222;" x="234" xlink:href="#mff84cf0d7e" y="237.2"/>
      </g>
     </g>
     <g id="text_4">
      <!-- 0 -->
      <defs>
       <path d="M 31.78125 66.40625 
Q 24.171875 66.40625 20.328125 58.90625 
Q 16.5 51.421875 16.5 36.375 
Q 16.5 21.390625 20.328125 13.890625 
Q 24.171875 6.390625 31.78125 6.390625 
Q 39.453125 6.390625 43.28125 13.890625 
Q 47.125 21.390625 47.125 36.375 
Q 47.125 51.421875 43.28125 58.90625 
Q 39.453125 66.40625 31.78125 66.40625 
z
M 31.78125 74.21875 
Q 44.046875 74.21875 50.515625 64.515625 
Q 56.984375 54.828125 56.984375 36.375 
Q 56.984375 17.96875 50.515625 8.265625 
Q 44.046875 -1.421875 31.78125 -1.421875 
Q 19.53125 -1.421875 13.0625 8.265625 
Q 6.59375 17.96875 6.59375 36.375 
Q 6.59375 54.828125 13.0625 64.515625 
Q 19.53125 74.21875 31.78125 74.21875 
z
" id="DejaVuSans-30"/>
      </defs>
      <g style="fill:#222222;" transform="translate(229.864375 255.077969)scale(0.13 -0.13)">
       <use xlink:href="#DejaVuSans-30"/>
      </g>
     </g>
    </g>
    <g id="xtick_5">
     <g id="line2d_5">
      <g>
       <use style="fill:#222222;stroke:#222222;" x="296.628571" xlink:href="#mff84cf0d7e" y="237.2"/>
      </g>
     </g>
     <g id="text_5">
      <!-- 1 -->
      <g style="fill:#222222;" transform="translate(292.492946 255.077969)scale(0.13 -0.13)">
       <use xlink:href="#DejaVuSans-31"/>
      </g>
     </g>
    </g>
    <g id="xtick_6">
     <g id="line2d_6">
      <g>
       <use style="fill:#222222;stroke:#222222;" x="356.752" xlink:href="#mff84cf0d7e" y="237.2"/>
      </g>
     </g>
     <g id="text_6">
      <!-- 1.96 -->
      <g style="fill:#222222;" transform="translate(342.279344 255.077969)scale(0.13 -0.13)">
       <use xlink:href="#DejaVuSans-31"/>
       <use x="63.623047" xlink:href="#DejaVuSans-2e"/>
       <use x="95.410156" xlink:href="#DejaVuSans-39"/>
       <use x="159.033203" xlink:href="#DejaVuSans-36"/>
      </g>
     </g>
    </g>
    <g id="xtick_7">
     <g id="line2d_7">
      <g>
       <use style="fill:#222222;stroke:#222222;" x="395.581714" xlink:href="#mff84cf0d7e" y="237.2"/>
      </g>
     </g>
     <g id="text_7">
      <!-- 2.58 -->
      <g style="fill:#222222;" transform="translate(381.109058 255.077969)scale(0.13 -0.13)">
       <use xlink:href="#DejaVuSans-32"/>
       <use x="63.623047" xlink:href="#DejaVuSans-2e"/>
       <use x="95.410156" xlink:href="#DejaVuSans-35"/>
       <use x="159.033203" xlink:href="#DejaVuSans-38"/>
      </g>
     </g>
    </g>
    <g id="text_8">
     <!-- Standardized distance from center -->
     <defs>
      <path d="M 53.515625 70.515625 
L 53.515625 60.890625 
Q 47.90625 63.578125 42.921875 64.890625 
Q 37.9375 66.21875 33.296875 66.21875 
Q 25.25 66.21875 20.875 63.09375 
Q 16.5 59.96875 16.5 54.203125 
Q 16.5 49.359375 19.40625 46.890625 
Q 22.3125 44.4375 30.421875 42.921875 
L 36.375 41.703125 
Q 47.40625 39.59375 52.65625 34.296875 
Q 57.90625 29 57.90625 20.125 
Q 57.90625 9.515625 50.796875 4.046875 
Q 43.703125 -1.421875 29.984375 -1.421875 
Q 24.8125 -1.421875 18.96875 -0.25 
Q 13.140625 0.921875 6.890625 3.21875 
L 6.890625 13.375 
Q 12.890625 10.015625 18.65625 8.296875 
Q 24.421875 6.59375 29.984375 6.59375 
Q 38.421875 6.59375 43.015625 9.90625 
Q 47.609375 13.234375 47.609375 19.390625 
Q 47.609375 24.75 44.3125 27.78125 
Q 41.015625 30.8125 33.5 32.328125 
L 27.484375 33.5 
Q 16.453125 35.6875 11.515625 40.375 
Q 6.59375 45.0625 6.59375 53.421875 
Q 6.59375 63.09375 13.40625 68.65625 
Q 20.21875 74.21875 32.171875 74.21875 
Q 37.3125 74.21875 42.625 73.28125 
Q 47.953125 72.359375 53.515625 70.515625 
z
" id="DejaVuSans-53"/>
      <path d="M 18.3125 70.21875 
L 18.3125 54.6875 
L 36.8125 54.6875 
L 36.8125 47.703125 
L 18.3125 47.703125 
L 18.3125 18.015625 
Q 18.3125 11.328125 20.140625 9.421875 
Q 21.96875 7.515625 27.59375 7.515625 
L 36.8125 7.515625 
L 36.8125 0 
L 27.59375 0 
Q 17.1875 0 13.234375 3.875 
Q 9.28125 7.765625 9.28125 18.015625 
L 9.28125 47.703125 
L 2.6875 47.703125 
L 2.6875 54.6875 
L 9.28125 54.6875 
L 9.28125 70.21875 
z
" id="DejaVuSans-74"/>
      <path d="M 34.28125 27.484375 
Q 23.390625 27.484375 19.1875 25 
Q 14.984375 22.515625 14.984375 16.5 
Q 14.984375 11.71875 18.140625 8.90625 
Q 21.296875 6.109375 26.703125 6.109375 
Q 34.1875 6.109375 38.703125 11.40625 
Q 43.21875 16.703125 43.21875 25.484375 
L 43.21875 27.484375 
z
M 52.203125 31.203125 
L 52.203125 0 
L 43.21875 0 
L 43.21875 8.296875 
Q 40.140625 3.328125 35.546875 0.953125 
Q 30.953125 -1.421875 24.3125 -1.421875 
Q 15.921875 -1.421875 10.953125 3.296875 
Q 6 8.015625 6 15.921875 
Q 6 25.140625 12.171875 29.828125 
Q 18.359375 34.515625 30.609375 34.515625 
L 43.21875 34.515625 
L 43.21875 35.40625 
Q 43.21875 41.609375 39.140625 45 
Q 35.0625 48.390625 27.6875 48.390625 
Q 23 48.390625 18.546875 47.265625 
Q 14.109375 46.140625 10.015625 43.890625 
L 10.015625 52.203125 
Q 14.9375 54.109375 19.578125 55.046875 
Q 24.21875 56 28.609375 56 
Q 40.484375 56 46.34375 49.84375 
Q 52.203125 43.703125 52.203125 31.203125 
z
" id="DejaVuSans-61"/>
      <path d="M 54.890625 33.015625 
L 54.890625 0 
L 45.90625 0 
L 45.90625 32.71875 
Q 45.90625 40.484375 42.875 44.328125 
Q 39.84375 48.1875 33.796875 48.1875 
Q 26.515625 48.1875 22.3125 43.546875 
Q 18.109375 38.921875 18.109375 30.90625 
L 18.109375 0 
L 9.078125 0 
L 9.078125 54.6875 
L 18.109375 54.6875 
L 18.109375 46.1875 
Q 21.34375 51.125 25.703125 53.5625 
Q 30.078125 56 35.796875 56 
Q 45.21875 56 50.046875 50.171875 
Q 54.890625 44.34375 54.890625 33.015625 
z
" id="DejaVuSans-6e"/>
      <path d="M 45.40625 46.390625 
L 45.40625 75.984375 
L 54.390625 75.984375 
L 54.390625 0 
L 45.40625 0 
L 45.40625 8.203125 
Q 42.578125 3.328125 38.25 0.953125 
Q 33.9375 -1.421875 27.875 -1.421875 
Q 17.96875 -1.421875 11.734375 6.484375 
Q 5.515625 14.40625 5.515625 27.296875 
Q 5.515625 40.1875 11.734375 48.09375 
Q 17.96875 56 27.875 56 
Q 33.9375 56 38.25 53.625 
Q 42.578125 51.265625 45.40625 46.390625 
z
M 14.796875 27.296875 
Q 14.796875 17.390625 18.875 11.75 
Q 22.953125 6.109375 30.078125 6.109375 
Q 37.203125 6.109375 41.296875 11.75 
Q 45.40625 17.390625 45.40625 27.296875 
Q 45.40625 37.203125 41.296875 42.84375 
Q 37.203125 48.484375 30.078125 48.484375 
Q 22.953125 48.484375 18.875 42.84375 
Q 14.796875 37.203125 14.796875 27.296875 
z
" id="DejaVuSans-64"/>
      <path d="M 41.109375 46.296875 
Q 39.59375 47.171875 37.8125 47.578125 
Q 36.03125 48 33.890625 48 
Q 26.265625 48 22.1875 43.046875 
Q 18.109375 38.09375 18.109375 28.8125 
L 18.109375 0 
L 9.078125 0 
L 9.078125 54.6875 
L 18.109375 54.6875 
L 18.109375 46.1875 
Q 20.953125 51.171875 25.484375 53.578125 
Q 30.03125 56 36.53125 56 
Q 37.453125 56 38.578125 55.875 
Q 39.703125 55.765625 41.0625 55.515625 
z
" id="DejaVuSans-72"/>
      <path d="M 9.421875 54.6875 
L 18.40625 54.6875 
L 18.40625 0 
L 9.421875 0 
z
M 9.421875 75.984375 
L 18.40625 75.984375 
L 18.40625 64.59375 
L 9.421875 64.59375 
z
" id="DejaVuSans-69"/>
      <path d="M 5.515625 54.6875 
L 48.1875 54.6875 
L 48.1875 46.484375 
L 14.40625 7.171875 
L 48.1875 7.171875 
L 48.1875 0 
L 4.296875 0 
L 4.296875 8.203125 
L 38.09375 47.515625 
L 5.515625 47.515625 
z
" id="DejaVuSans-7a"/>
      <path d="M 56.203125 29.59375 
L 56.203125 25.203125 
L 14.890625 25.203125 
Q 15.484375 15.921875 20.484375 11.0625 
Q 25.484375 6.203125 34.421875 6.203125 
Q 39.59375 6.203125 44.453125 7.46875 
Q 49.3125 8.734375 54.109375 11.28125 
L 54.109375 2.78125 
Q 49.265625 0.734375 44.1875 -0.34375 
Q 39.109375 -1.421875 33.890625 -1.421875 
Q 20.796875 -1.421875 13.15625 6.1875 
Q 5.515625 13.8125 5.515625 26.8125 
Q 5.515625 40.234375 12.765625 48.109375 
Q 20.015625 56 32.328125 56 
Q 43.359375 56 49.78125 48.890625 
Q 56.203125 41.796875 56.203125 29.59375 
z
M 47.21875 32.234375 
Q 47.125 39.59375 43.09375 43.984375 
Q 39.0625 48.390625 32.421875 48.390625 
Q 24.90625 48.390625 20.390625 44.140625 
Q 15.875 39.890625 15.1875 32.171875 
z
" id="DejaVuSans-65"/>
      <path id="DejaVuSans-20"/>
      <path d="M 44.28125 53.078125 
L 44.28125 44.578125 
Q 40.484375 46.53125 36.375 47.5 
Q 32.28125 48.484375 27.875 48.484375 
Q 21.1875 48.484375 17.84375 46.4375 
Q 14.5 44.390625 14.5 40.28125 
Q 14.5 37.15625 16.890625 35.375 
Q 19.28125 33.59375 26.515625 31.984375 
L 29.59375 31.296875 
Q 39.15625 29.25 43.1875 25.515625 
Q 47.21875 21.78125 47.21875 15.09375 
Q 47.21875 7.46875 41.1875 3.015625 
Q 35.15625 -1.421875 24.609375 -1.421875 
Q 20.21875 -1.421875 15.453125 -0.5625 
Q 10.6875 0.296875 5.421875 2 
L 5.421875 11.28125 
Q 10.40625 8.6875 15.234375 7.390625 
Q 20.0625 6.109375 24.8125 6.109375 
Q 31.15625 6.109375 34.5625 8.28125 
Q 37.984375 10.453125 37.984375 14.40625 
Q 37.984375 18.0625 35.515625 20.015625 
Q 33.0625 21.96875 24.703125 23.78125 
L 21.578125 24.515625 
Q 13.234375 26.265625 9.515625 29.90625 
Q 5.8125 33.546875 5.8125 39.890625 
Q 5.8125 47.609375 11.28125 51.796875 
Q 16.75 56 26.8125 56 
Q 31.78125 56 36.171875 55.265625 
Q 40.578125 54.546875 44.28125 53.078125 
z
" id="DejaVuSans-73"/>
      <path d="M 48.78125 52.59375 
L 48.78125 44.1875 
Q 44.96875 46.296875 41.140625 47.34375 
Q 37.3125 48.390625 33.40625 48.390625 
Q 24.65625 48.390625 19.8125 42.84375 
Q 14.984375 37.3125 14.984375 27.296875 
Q 14.984375 17.28125 19.8125 11.734375 
Q 24.65625 6.203125 33.40625 6.203125 
Q 37.3125 6.203125 41.140625 7.25 
Q 44.96875 8.296875 48.78125 10.40625 
L 48.78125 2.09375 
Q 45.015625 0.34375 40.984375 -0.53125 
Q 36.96875 -1.421875 32.421875 -1.421875 
Q 20.0625 -1.421875 12.78125 6.34375 
Q 5.515625 14.109375 5.515625 27.296875 
Q 5.515625 40.671875 12.859375 48.328125 
Q 20.21875 56 33.015625 56 
Q 37.15625 56 41.109375 55.140625 
Q 45.0625 54.296875 48.78125 52.59375 
z
" id="DejaVuSans-63"/>
      <path d="M 37.109375 75.984375 
L 37.109375 68.5 
L 28.515625 68.5 
Q 23.6875 68.5 21.796875 66.546875 
Q 19.921875 64.59375 19.921875 59.515625 
L 19.921875 54.6875 
L 34.71875 54.6875 
L 34.71875 47.703125 
L 19.921875 47.703125 
L 19.921875 0 
L 10.890625 0 
L 10.890625 47.703125 
L 2.296875 47.703125 
L 2.296875 54.6875 
L 10.890625 54.6875 
L 10.890625 58.5 
Q 10.890625 67.625 15.140625 71.796875 
Q 19.390625 75.984375 28.609375 75.984375 
z
" id="DejaVuSans-66"/>
      <path d="M 30.609375 48.390625 
Q 23.390625 48.390625 19.1875 42.75 
Q 14.984375 37.109375 14.984375 27.296875 
Q 14.984375 17.484375 19.15625 11.84375 
Q 23.34375 6.203125 30.609375 6.203125 
Q 37.796875 6.203125 41.984375 11.859375 
Q 46.1875 17.53125 46.1875 27.296875 
Q 46.1875 37.015625 41.984375 42.703125 
Q 37.796875 48.390625 30.609375 48.390625 
z
M 30.609375 56 
Q 42.328125 56 49.015625 48.375 
Q 55.71875 40.765625 55.71875 27.296875 
Q 55.71875 13.875 49.015625 6.21875 
Q 42.328125 -1.421875 30.609375 -1.421875 
Q 18.84375 -1.421875 12.171875 6.21875 
Q 5.515625 13.875 5.515625 27.296875 
Q 5.515625 40.765625 12.171875 48.375 
Q 18.84375 56 30.609375 56 
z
" id="DejaVuSans-6f"/>
      <path d="M 52 44.1875 
Q 55.375 50.25 60.0625 53.125 
Q 64.75 56 71.09375 56 
Q 79.640625 56 84.28125 50.015625 
Q 88.921875 44.046875 88.921875 33.015625 
L 88.921875 0 
L 79.890625 0 
L 79.890625 32.71875 
Q 79.890625 40.578125 77.09375 44.375 
Q 74.3125 48.1875 68.609375 48.1875 
Q 61.625 48.1875 57.5625 43.546875 
Q 53.515625 38.921875 53.515625 30.90625 
L 53.515625 0 
L 44.484375 0 
L 44.484375 32.71875 
Q 44.484375 40.625 41.703125 44.40625 
Q 38.921875 48.1875 33.109375 48.1875 
Q 26.21875 48.1875 22.15625 43.53125 
Q 18.109375 38.875 18.109375 30.90625 
L 18.109375 0 
L 9.078125 0 
L 9.078125 54.6875 
L 18.109375 54.6875 
L 18.109375 46.1875 
Q 21.1875 51.21875 25.484375 53.609375 
Q 29.78125 56 35.6875 56 
Q 41.65625 56 45.828125 52.96875 
Q 50 49.953125 52 44.1875 
z
" id="DejaVuSans-6d"/>
     </defs>
     <g style="fill:#222222;" transform="translate(94.9875 273.939062)scale(0.16 -0.16)">
      <use xlink:href="#DejaVuSans-53"/>
      <use x="63.476562" xlink:href="#DejaVuSans-74"/>
      <use x="102.685547" xlink:href="#DejaVuSans-61"/>
      <use x="163.964844" xlink:href="#DejaVuSans-6e"/>
      <use x="227.34375" xlink:href="#DejaVuSans-64"/>
      <use x="290.820312" xlink:href="#DejaVuSans-61"/>
      <use x="352.099609" xlink:href="#DejaVuSans-72"/>
      <use x="393.197266" xlink:href="#DejaVuSans-64"/>
      <use x="456.673828" xlink:href="#DejaVuSans-69"/>
      <use x="484.457031" xlink:href="#DejaVuSans-7a"/>
      <use x="536.947266" xlink:href="#DejaVuSans-65"/>
      <use x="598.470703" xlink:href="#DejaVuSans-64"/>
      <use x="661.947266" xlink:href="#DejaVuSans-20"/>
      <use x="693.734375" xlink:href="#DejaVuSans-64"/>
      <use x="757.210938" xlink:href="#DejaVuSans-69"/>
      <use x="784.994141" xlink:href="#DejaVuSans-73"/>
      <use x="837.09375" xlink:href="#DejaVuSans-74"/>
      <use x="876.302734" xlink:href="#DejaVuSans-61"/>
      <use x="937.582031" xlink:href="#DejaVuSans-6e"/>
      <use x="1000.960938" xlink:href="#DejaVuSans-63"/>
      <use x="1055.941406" xlink:href="#DejaVuSans-65"/>
      <use x="1117.464844" xlink:href="#DejaVuSans-20"/>
      <use x="1149.251953" xlink:href="#DejaVuSans-66"/>
      <use x="1184.457031" xlink:href="#DejaVuSans-72"/>
      <use x="1225.539062" xlink:href="#DejaVuSans-6f"/>
      <use x="1286.720703" xlink:href="#DejaVuSans-6d"/>
      <use x="1384.132812" xlink:href="#DejaVuSans-20"/>
      <use x="1415.919922" xlink:href="#DejaVuSans-63"/>
      <use x="1470.900391" xlink:href="#DejaVuSans-65"/>
      <use x="1532.423828" xlink:href="#DejaVuSans-6e"/>
      <use x="1595.802734" xlink:href="#DejaVuSans-74"/>
      <use x="1635.011719" xlink:href="#DejaVuSans-65"/>
      <use x="1696.535156" xlink:href="#DejaVuSans-72"/>
     </g>
    </g>
   </g>
   <g id="matplotlib.axis_2"/>
   <g id="line2d_8">
    <path clip-path="url(#pdab9a3a3ff)" d="M 14.8 236.736666 
L 26.648649 236.317539 
L 35.864264 235.779073 
L 43.763363 235.099078 
L 50.784785 234.265208 
L 56.928529 233.308465 
L 62.633433 232.186175 
L 67.899499 230.911403 
L 72.726727 229.507947 
L 77.115115 228.009517 
L 81.503504 226.272971 
L 85.453053 224.484707 
L 89.402603 222.462512 
L 93.352152 220.18651 
L 97.301702 217.636967 
L 101.251251 214.794648 
L 104.761962 212.007502 
L 108.272673 208.962515 
L 111.783383 205.648783 
L 115.294094 202.056781 
L 119.243644 197.673448 
L 123.193193 192.919843 
L 127.142743 187.791438 
L 131.092292 182.287894 
L 135.041842 176.413544 
L 139.43023 169.46328 
L 143.818619 162.088023 
L 148.645846 153.520339 
L 153.911912 143.691162 
L 160.055656 131.7022 
L 167.954755 115.731997 
L 183.314114 84.541598 
L 189.019019 73.542663 
L 193.407407 65.517726 
L 197.356957 58.710236 
L 200.867668 53.048704 
L 204.378378 47.803667 
L 207.45025 43.591556 
L 210.522122 39.761341 
L 213.155155 36.80214 
L 215.788188 34.157789 
L 218.421221 31.841842 
L 220.615415 30.171439 
L 222.80961 28.743476 
L 225.003804 27.563142 
L 227.197998 26.634742 
L 229.392192 25.961675 
L 231.586386 25.546411 
L 233.780581 25.390476 
L 235.974775 25.494445 
L 238.168969 25.857935 
L 240.363163 26.479609 
L 242.557357 27.357185 
L 244.751552 28.487448 
L 246.945746 29.866273 
L 249.13994 31.488644 
L 251.772973 33.748648 
L 254.406006 36.339166 
L 257.039039 39.246897 
L 259.672072 42.457053 
L 262.743944 46.562852 
L 265.815816 51.030515 
L 269.326527 56.541339 
L 273.276076 63.201041 
L 277.664464 71.089776 
L 282.491692 80.2475 
L 288.635435 92.425587 
L 298.728729 113.036685 
L 308.383183 132.573955 
L 314.526927 144.527572 
L 319.792993 154.317677 
L 324.62022 162.843893 
L 329.008609 170.177846 
L 333.396997 177.084313 
L 337.346547 182.917832 
L 341.296096 188.379819 
L 345.245646 193.466481 
L 349.195195 198.17865 
L 353.144745 202.521285 
L 357.094294 206.502958 
L 361.043844 210.13532 
L 364.993393 213.432577 
L 368.942943 216.410975 
L 372.892492 219.08831 
L 376.842042 221.48347 
L 380.791592 223.616015 
L 384.741141 225.505799 
L 389.12953 227.34493 
L 393.517918 228.9355 
L 398.345145 230.42879 
L 403.172372 231.685122 
L 408.438438 232.821149 
L 414.143343 233.816458 
L 420.287087 234.660558 
L 427.308509 235.392065 
L 435.207608 235.984772 
L 444.423223 236.450715 
L 453.2 236.736666 
L 453.2 236.736666 
" style="fill:none;stroke:#000000;stroke-linecap:square;stroke-width:1.5;"/>
   </g>
   <g id="line2d_9">
    <path clip-path="url(#pdab9a3a3ff)" d="M 296.628571 237.2 
L 296.628571 70.4 
" style="fill:none;stroke:#fbc15e;stroke-dasharray:5.55,2.4;stroke-dashoffset:0;stroke-width:1.5;"/>
   </g>
   <g id="line2d_10">
    <path clip-path="url(#pdab9a3a3ff)" d="M 171.371429 237.2 
L 171.371429 70.4 
" style="fill:none;stroke:#fbc15e;stroke-dasharray:5.55,2.4;stroke-dashoffset:0;stroke-width:1.5;"/>
   </g>
   <g id="line2d_11">
    <path clip-path="url(#pdab9a3a3ff)" d="M 356.752 237.2 
L 356.752 137.12 
" style="fill:none;stroke:#00bfff;stroke-dasharray:5.55,2.4;stroke-dashoffset:0;stroke-width:1.5;"/>
   </g>
   <g id="line2d_12">
    <path clip-path="url(#pdab9a3a3ff)" d="M 111.248 237.2 
L 111.248 137.12 
" style="fill:none;stroke:#00bfff;stroke-dasharray:5.55,2.4;stroke-dashoffset:0;stroke-width:1.5;"/>
   </g>
   <g id="line2d_13">
    <path clip-path="url(#pdab9a3a3ff)" d="M 395.581714 237.2 
L 395.581714 203.84 
" style="fill:none;stroke:#fb4c52;stroke-dasharray:5.55,2.4;stroke-dashoffset:0;stroke-width:1.5;"/>
   </g>
   <g id="line2d_14">
    <path clip-path="url(#pdab9a3a3ff)" d="M 72.418286 237.2 
L 72.418286 203.84 
" style="fill:none;stroke:#fb4c52;stroke-dasharray:5.55,2.4;stroke-dashoffset:0;stroke-width:1.5;"/>
   </g>
   <g id="patch_3">
    <path d="M 14.8 237.2 
L 453.2 237.2 
" style="fill:none;stroke:#222222;stroke-linecap:square;stroke-linejoin:miter;"/>
   </g>
   <g id="patch_4">
    <path d="M 175.606687 73.047619 
Q 234.000908 73.047619 292.395129 73.047619 
" style="fill:none;stroke:#fbc15e;stroke-linecap:round;stroke-width:2;"/>
    <path d="M 183.606687 77.047619 
L 175.606687 73.047619 
L 183.606687 69.047619 
" style="fill:none;stroke:#fbc15e;stroke-linecap:round;stroke-width:2;"/>
    <path d="M 284.395129 69.047619 
L 292.395129 73.047619 
L 284.395129 77.047619 
" style="fill:none;stroke:#fbc15e;stroke-linecap:round;stroke-width:2;"/>
   </g>
   <g id="text_9">
    <!-- 68% -->
    <defs>
     <path d="M 72.703125 32.078125 
Q 68.453125 32.078125 66.03125 28.46875 
Q 63.625 24.859375 63.625 18.40625 
Q 63.625 12.0625 66.03125 8.421875 
Q 68.453125 4.78125 72.703125 4.78125 
Q 76.859375 4.78125 79.265625 8.421875 
Q 81.6875 12.0625 81.6875 18.40625 
Q 81.6875 24.8125 79.265625 28.4375 
Q 76.859375 32.078125 72.703125 32.078125 
z
M 72.703125 38.28125 
Q 80.421875 38.28125 84.953125 32.90625 
Q 89.5 27.546875 89.5 18.40625 
Q 89.5 9.28125 84.9375 3.921875 
Q 80.375 -1.421875 72.703125 -1.421875 
Q 64.890625 -1.421875 60.34375 3.921875 
Q 55.8125 9.28125 55.8125 18.40625 
Q 55.8125 27.59375 60.375 32.9375 
Q 64.9375 38.28125 72.703125 38.28125 
z
M 22.3125 68.015625 
Q 18.109375 68.015625 15.6875 64.375 
Q 13.28125 60.75 13.28125 54.390625 
Q 13.28125 47.953125 15.671875 44.328125 
Q 18.0625 40.71875 22.3125 40.71875 
Q 26.5625 40.71875 28.96875 44.328125 
Q 31.390625 47.953125 31.390625 54.390625 
Q 31.390625 60.6875 28.953125 64.34375 
Q 26.515625 68.015625 22.3125 68.015625 
z
M 66.40625 74.21875 
L 74.21875 74.21875 
L 28.609375 -1.421875 
L 20.796875 -1.421875 
z
M 22.3125 74.21875 
Q 30.03125 74.21875 34.609375 68.875 
Q 39.203125 63.53125 39.203125 54.390625 
Q 39.203125 45.171875 34.640625 39.84375 
Q 30.078125 34.515625 22.3125 34.515625 
Q 14.546875 34.515625 10.03125 39.859375 
Q 5.515625 45.21875 5.515625 54.390625 
Q 5.515625 63.484375 10.046875 68.84375 
Q 14.59375 74.21875 22.3125 74.21875 
z
" id="DejaVuSans-25"/>
    </defs>
    <g style="fill:#fbc15e;" transform="translate(217.330078 89.356952)scale(0.15 -0.15)">
     <use xlink:href="#DejaVuSans-36"/>
     <use x="63.623047" xlink:href="#DejaVuSans-38"/>
     <use x="127.246094" xlink:href="#DejaVuSans-25"/>
    </g>
   </g>
   <g id="patch_5">
    <path d="M 115.480736 142.944762 
Q 233.996973 142.944762 352.513209 142.944762 
" style="fill:none;stroke:#00bfff;stroke-linecap:round;stroke-width:2;"/>
    <path d="M 123.480736 146.944762 
L 115.480736 142.944762 
L 123.480736 138.944762 
" style="fill:none;stroke:#00bfff;stroke-linecap:round;stroke-width:2;"/>
    <path d="M 344.513209 138.944762 
L 352.513209 142.944762 
L 344.513209 146.944762 
" style="fill:none;stroke:#00bfff;stroke-linecap:round;stroke-width:2;"/>
   </g>
   <g id="text_10">
    <!-- 95% -->
    <g style="fill:#00bfff;" transform="translate(217.330078 159.254095)scale(0.15 -0.15)">
     <use xlink:href="#DejaVuSans-39"/>
     <use x="63.623047" xlink:href="#DejaVuSans-35"/>
     <use x="127.246094" xlink:href="#DejaVuSans-25"/>
    </g>
   </g>
   <g id="patch_6">
    <path d="M 76.651442 212.841905 
Q 233.99637 212.841905 391.341297 212.841905 
" style="fill:none;stroke:#fb4c52;stroke-linecap:round;stroke-width:2;"/>
    <path d="M 84.651442 216.841905 
L 76.651442 212.841905 
L 84.651442 208.841905 
" style="fill:none;stroke:#fb4c52;stroke-linecap:round;stroke-width:2;"/>
    <path d="M 383.341297 208.841905 
L 391.341297 212.841905 
L 383.341297 216.841905 
" style="fill:none;stroke:#fb4c52;stroke-linecap:round;stroke-width:2;"/>
   </g>
   <g id="text_11">
    <!-- 99% -->
    <g style="fill:#fb4c52;" transform="translate(217.330078 229.151238)scale(0.15 -0.15)">
     <use xlink:href="#DejaVuSans-39"/>
     <use x="63.623047" xlink:href="#DejaVuSans-39"/>
     <use x="127.246094" xlink:href="#DejaVuSans-25"/>
    </g>
   </g>
  </g>
 </g>
 <defs>
  <clipPath id="pdab9a3a3ff">
   <rect height="222.4" width="438.4" x="14.8" y="14.8"/>
  </clipPath>
 </defs>
</svg>
