<?xml version="1.0" encoding="utf-8"?>
<!-- Generator: Adobe Illustrator 16.0.4, SVG Export Plug-In . SVG Version: 6.00 Build 0)  -->
<!DOCTYPE svg PUBLIC "-//W3C//DTD SVG 1.1//EN" "http://www.w3.org/Graphics/SVG/1.1/DTD/svg11.dtd">
<svg version="1.1" id="Layer_1" xmlns="http://www.w3.org/2000/svg" xmlns:xlink="http://www.w3.org/1999/xlink" x="0px" y="0px"
	 width="252px" height="129.6px" viewBox="0 0 252 129.6" enable-background="new 0 0 252 129.6" xml:space="preserve">
<g id="layer1">
	<g>
		<g>
			<path fill="#B4B4B4" d="M103.948,104.815c0,0,2.646,0.138,6.613,0.341c1.983,0.1,4.298,0.215,6.777,0.339
				c2.48,0.105,5.125,0.222,7.772,0.335c2.644,0.122,5.291,0.244,7.77,0.356c2.478,0.142,4.793,0.228,6.78,0.23
				c3.973-0.008,6.621-0.139,6.621-0.139l0.029-1.527c0,0-2.644-0.229-6.611-0.39c-1.984-0.069-4.301-0.071-6.784-0.026
				c-2.483,0.021-5.13,0.044-7.779,0.063c-2.648,0.017-5.294,0.029-7.777,0.042c-2.482,0.03-4.799,0.06-6.785,0.083
				c-3.973,0.054-6.623,0.09-6.623,0.09L103.948,104.815z"/>
			<g>
				<polygon fill="#B4B4B4" points="153.355,105.649 143.484,101.397 145.77,105.507 143.332,109.526 				"/>
			</g>
		</g>
	</g>
	<g>
		<g>
			<path fill="#B4B4B4" d="M152.764,47.319c0,0,1.891,1.854,4.729,4.636c1.42,1.388,3.078,3.008,4.854,4.741
				c1.789,1.724,3.693,3.562,5.603,5.399c1.899,1.842,3.803,3.687,5.586,5.412c1.764,1.746,3.44,3.346,4.926,4.662
				c2.981,2.625,5.056,4.283,5.056,4.283l1.032-1.127c0,0-1.827-1.923-4.696-4.67c-1.439-1.365-3.175-2.9-5.064-4.513
				c-1.875-1.629-3.873-3.365-5.871-5.104c-1.994-1.742-3.986-3.485-5.855-5.12c-1.879-1.621-3.635-3.135-5.139-4.433
				c-3.012-2.592-5.021-4.317-5.021-4.317L152.764,47.319z"/>
			<g>
				<polygon fill="#B4B4B4" points="189.229,80.665 184.648,70.942 183.641,75.532 179.15,76.931 				"/>
			</g>
		</g>
	</g>
	<g>
		<g>
			<path fill="#B4B4B4" d="M99.142,47.319c0,0-1.891,1.854-4.729,4.636c-1.42,1.388-3.078,3.008-4.854,4.741
				c-1.789,1.724-3.693,3.562-5.602,5.399c-1.9,1.842-3.803,3.687-5.586,5.412c-1.764,1.746-3.441,3.346-4.926,4.662
				c-2.982,2.625-5.055,4.283-5.055,4.283l-1.033-1.127c0,0,1.828-1.923,4.697-4.67c1.439-1.365,3.174-2.9,5.064-4.513
				c1.875-1.629,3.873-3.365,5.871-5.104c1.994-1.742,3.986-3.485,5.855-5.12c1.879-1.621,3.635-3.135,5.139-4.433
				c3.012-2.592,5.021-4.317,5.021-4.317L99.142,47.319z"/>
			<g>
				<polygon fill="#B4B4B4" points="62.675,80.665 67.255,70.942 68.265,75.532 72.753,76.931 				"/>
			</g>
		</g>
	</g>
	<g>
		<g>
			<path fill="#00BFFF" d="M25.145,101.202v0.932h-5.62v-8.278h5.515v0.934h-4.466v2.682h3.883v0.875h-3.883v2.857L25.145,101.202
				L25.145,101.202z"/>
			<path fill="#00BFFF" d="M26.812,96.048l1.667,2.238l0.094,0.188l0.104-0.188l1.656-2.238h1.084l-2.273,3.055l2.285,3.031h-1.085
				l-1.667-2.227l-0.104-0.176l-0.094,0.176l-1.667,2.227h-1.085l2.285-3.031l-2.273-3.055H26.812z"/>
			<path fill="#00BFFF" d="M35.674,102.251c-0.506,0-0.95-0.125-1.335-0.373c-0.385-0.249-0.69-0.563-0.916-0.945v3.687h-1.025
				v-8.57h0.909v1.143c0.241-0.373,0.554-0.674,0.938-0.903c0.385-0.229,0.811-0.345,1.277-0.345c0.419,0,0.804,0.086,1.154,0.258
				c0.35,0.171,0.652,0.401,0.909,0.693c0.257,0.291,0.456,0.627,0.601,1.008c0.144,0.382,0.216,0.777,0.216,1.189
				c0,0.436-0.066,0.846-0.198,1.23c-0.133,0.385-0.319,0.719-0.56,1.002c-0.241,0.284-0.529,0.51-0.863,0.677
				C36.447,102.168,36.078,102.251,35.674,102.251z M35.358,101.365c0.304,0,0.577-0.063,0.822-0.191
				c0.245-0.129,0.455-0.3,0.63-0.514c0.175-0.214,0.309-0.457,0.402-0.729c0.093-0.271,0.14-0.552,0.14-0.84
				c0-0.303-0.055-0.592-0.163-0.869c-0.109-0.275-0.257-0.516-0.443-0.723c-0.187-0.205-0.406-0.369-0.658-0.489
				c-0.253-0.12-0.527-0.181-0.822-0.181c-0.187,0-0.379,0.037-0.577,0.11c-0.198,0.073-0.385,0.17-0.56,0.291
				c-0.175,0.121-0.327,0.265-0.455,0.433c-0.128,0.167-0.212,0.344-0.251,0.529v1.737c0.086,0.202,0.194,0.391,0.327,0.565
				c0.132,0.175,0.283,0.326,0.454,0.454c0.171,0.129,0.354,0.229,0.549,0.304C34.946,101.328,35.149,101.365,35.358,101.365z"/>
			<path fill="#00BFFF" d="M39.685,93.622h1.025v6.938c0,0.228,0.061,0.402,0.181,0.531c0.121,0.128,0.29,0.192,0.508,0.192
				c0.085,0,0.187-0.015,0.303-0.041c0.117-0.026,0.226-0.061,0.327-0.1l0.163,0.828c-0.172,0.069-0.373,0.127-0.606,0.174
				s-0.439,0.07-0.618,0.07c-0.396,0-0.709-0.112-0.938-0.338c-0.229-0.227-0.344-0.541-0.344-0.945L39.685,93.622L39.685,93.622z"
				/>
			<path fill="#00BFFF" d="M44.559,102.251c-0.288,0-0.557-0.049-0.805-0.146c-0.249-0.097-0.465-0.229-0.647-0.401
				c-0.183-0.17-0.326-0.371-0.432-0.601c-0.104-0.229-0.157-0.479-0.157-0.752c0-0.28,0.062-0.535,0.187-0.764
				c0.124-0.229,0.302-0.426,0.53-0.59c0.229-0.162,0.502-0.291,0.816-0.386c0.315-0.093,0.659-0.139,1.032-0.139
				c0.295,0,0.595,0.027,0.897,0.081c0.304,0.055,0.571,0.128,0.805,0.222v-0.489c0-0.497-0.14-0.889-0.42-1.172
				c-0.279-0.283-0.676-0.427-1.189-0.427c-0.613,0-1.259,0.238-1.936,0.712l-0.338-0.665c0.785-0.527,1.574-0.793,2.367-0.793
				c0.801,0,1.425,0.216,1.871,0.643c0.447,0.428,0.671,1.03,0.671,1.808v2.483c0,0.241,0.108,0.365,0.326,0.373v0.886
				c-0.108,0.016-0.198,0.027-0.268,0.035c-0.07,0.008-0.145,0.012-0.222,0.012c-0.202,0-0.363-0.061-0.484-0.181
				c-0.12-0.12-0.192-0.268-0.216-0.438l-0.023-0.432c-0.271,0.365-0.615,0.643-1.031,0.834
				C45.478,102.156,45.032,102.251,44.559,102.251z M44.826,101.481c0.365,0,0.706-0.067,1.021-0.204
				c0.315-0.136,0.554-0.316,0.717-0.542c0.147-0.147,0.222-0.299,0.222-0.454v-0.898c-0.497-0.193-1.015-0.291-1.551-0.291
				c-0.513,0-0.931,0.109-1.253,0.326c-0.323,0.219-0.484,0.502-0.484,0.852c0,0.172,0.033,0.33,0.1,0.479
				c0.065,0.146,0.159,0.274,0.279,0.385c0.121,0.108,0.263,0.193,0.426,0.256C44.466,101.452,44.64,101.481,44.826,101.481z"/>
			<path fill="#00BFFF" d="M54.736,102.134h-1.025V98.73c0-0.651-0.1-1.127-0.298-1.422c-0.198-0.296-0.499-0.442-0.903-0.442
				c-0.21,0-0.42,0.041-0.63,0.121c-0.21,0.081-0.408,0.192-0.595,0.333c-0.187,0.14-0.35,0.308-0.489,0.501
				c-0.139,0.194-0.245,0.407-0.315,0.643v3.672h-1.025v-6.086h0.933v1.306c0.241-0.427,0.589-0.77,1.044-1.025
				c0.454-0.256,0.95-0.386,1.486-0.386c0.35,0,0.642,0.064,0.874,0.193c0.233,0.128,0.42,0.307,0.56,0.535
				c0.141,0.229,0.239,0.5,0.298,0.811c0.059,0.312,0.087,0.649,0.087,1.017v3.635H54.736z"/>
			<path fill="#00BFFF" d="M57.897,102.251c-0.288,0-0.557-0.049-0.805-0.146c-0.249-0.097-0.465-0.229-0.647-0.401
				c-0.183-0.17-0.326-0.371-0.432-0.601c-0.104-0.229-0.157-0.479-0.157-0.752c0-0.28,0.062-0.535,0.187-0.764
				c0.124-0.229,0.302-0.426,0.53-0.59c0.229-0.162,0.502-0.291,0.816-0.386c0.315-0.093,0.659-0.139,1.032-0.139
				c0.295,0,0.595,0.027,0.897,0.081c0.304,0.055,0.571,0.128,0.805,0.222v-0.489c0-0.497-0.14-0.889-0.42-1.172
				c-0.279-0.283-0.676-0.427-1.189-0.427c-0.613,0-1.259,0.238-1.936,0.712l-0.338-0.665c0.785-0.527,1.574-0.793,2.367-0.793
				c0.801,0,1.425,0.216,1.871,0.643c0.447,0.428,0.671,1.03,0.671,1.808v2.483c0,0.241,0.108,0.365,0.326,0.373v0.886
				c-0.108,0.016-0.198,0.027-0.268,0.035s-0.145,0.012-0.222,0.012c-0.202,0-0.363-0.061-0.484-0.181
				c-0.12-0.12-0.192-0.268-0.216-0.438l-0.023-0.432c-0.271,0.365-0.615,0.643-1.031,0.834
				C58.816,102.156,58.371,102.251,57.897,102.251z M58.165,101.481c0.365,0,0.706-0.067,1.021-0.204
				c0.315-0.136,0.554-0.316,0.717-0.542c0.147-0.147,0.222-0.299,0.222-0.454v-0.898c-0.497-0.193-1.015-0.291-1.551-0.291
				c-0.513,0-0.931,0.109-1.253,0.326c-0.323,0.219-0.484,0.502-0.484,0.852c0,0.172,0.033,0.33,0.1,0.479
				c0.065,0.146,0.159,0.274,0.279,0.385c0.121,0.108,0.263,0.193,0.426,0.256C57.805,101.452,57.979,101.481,58.165,101.481z"/>
			<path fill="#00BFFF" d="M65.895,101.831c-0.062,0.03-0.144,0.067-0.244,0.11c-0.102,0.043-0.216,0.085-0.344,0.128
				c-0.129,0.042-0.269,0.077-0.42,0.104c-0.152,0.027-0.31,0.041-0.473,0.041c-0.373,0-0.695-0.104-0.968-0.309
				c-0.272-0.206-0.408-0.527-0.408-0.964v-4.092H62.21v-0.805h0.828v-2.029h1.026v2.029h1.364v0.805h-1.364v3.777
				c0.016,0.226,0.089,0.389,0.222,0.49c0.132,0.102,0.287,0.15,0.466,0.15c0.202,0,0.387-0.033,0.555-0.099
				c0.167-0.066,0.281-0.119,0.344-0.158L65.895,101.831z"/>
			<path fill="#00BFFF" d="M69.429,102.251c-0.459,0-0.877-0.086-1.254-0.257s-0.699-0.399-0.968-0.688
				c-0.268-0.288-0.476-0.622-0.623-1.003c-0.148-0.381-0.222-0.781-0.222-1.201c0-0.428,0.075-0.832,0.228-1.213
				c0.151-0.381,0.361-0.715,0.629-1.002c0.269-0.288,0.591-0.518,0.968-0.688c0.377-0.171,0.791-0.258,1.242-0.258
				c0.451,0,0.866,0.086,1.248,0.258c0.38,0.171,0.705,0.399,0.974,0.688c0.268,0.287,0.478,0.621,0.629,1.002
				c0.152,0.381,0.228,0.785,0.228,1.213c0,0.42-0.074,0.82-0.222,1.201s-0.357,0.715-0.629,1.003
				c-0.272,0.288-0.597,0.518-0.974,0.688C70.305,102.165,69.888,102.251,69.429,102.251z M67.411,99.115
				c0,0.317,0.053,0.613,0.158,0.887c0.104,0.271,0.248,0.509,0.431,0.711s0.396,0.361,0.642,0.479
				c0.245,0.116,0.507,0.175,0.787,0.175c0.28,0,0.542-0.059,0.787-0.175c0.245-0.116,0.461-0.277,0.647-0.483
				s0.332-0.447,0.437-0.724c0.105-0.275,0.158-0.573,0.158-0.893c0-0.311-0.053-0.604-0.158-0.881
				c-0.104-0.275-0.25-0.517-0.437-0.724c-0.187-0.204-0.402-0.366-0.647-0.482c-0.245-0.116-0.507-0.175-0.787-0.175
				c-0.28,0-0.542,0.061-0.787,0.181S68.183,97.294,68,97.499c-0.183,0.207-0.326,0.446-0.431,0.723
				C67.464,98.499,67.411,98.796,67.411,99.115z"/>
			<path fill="#00BFFF" d="M76.973,96.946c-0.513,0.017-0.966,0.146-1.358,0.396c-0.392,0.25-0.67,0.595-0.834,1.038v3.754h-1.025
				v-6.086h0.956v1.41c0.21-0.419,0.485-0.76,0.828-1.021c0.342-0.26,0.707-0.405,1.096-0.438c0.077,0,0.144,0,0.198,0
				s0.101,0.004,0.14,0.012L76.973,96.946L76.973,96.946z"/>
			<path fill="#00BFFF" d="M78.267,103.79c0.102,0.016,0.202,0.026,0.304,0.035c0.101,0.008,0.179,0.012,0.233,0.012
				c0.093,0,0.176-0.021,0.25-0.064c0.074-0.043,0.147-0.127,0.222-0.25c0.074-0.125,0.157-0.298,0.251-0.52
				c0.093-0.222,0.21-0.512,0.35-0.869L77.3,96.048h1.062l2.075,5.166l1.889-5.166h0.979l-2.961,7.684
				c-0.109,0.272-0.29,0.513-0.543,0.718c-0.252,0.207-0.601,0.31-1.043,0.31c-0.07,0-0.143-0.004-0.216-0.012
				c-0.074-0.008-0.165-0.023-0.274-0.046L78.267,103.79L78.267,103.79z"/>
			<path fill="#00BFFF" d="M31.732,116.134l-2.402-6.086h1.062l1.924,5.188l1.936-5.188h0.979l-2.402,6.086H31.732z"/>
			<path fill="#00BFFF" d="M37.656,116.251c-0.288,0-0.557-0.049-0.805-0.146c-0.249-0.097-0.465-0.229-0.647-0.401
				c-0.183-0.17-0.326-0.371-0.432-0.601c-0.104-0.229-0.157-0.479-0.157-0.752c0-0.28,0.062-0.535,0.187-0.764
				c0.124-0.229,0.302-0.426,0.53-0.59c0.229-0.162,0.502-0.291,0.816-0.386c0.315-0.093,0.659-0.139,1.032-0.139
				c0.295,0,0.595,0.027,0.897,0.081c0.304,0.055,0.571,0.128,0.805,0.222v-0.489c0-0.497-0.14-0.889-0.42-1.172
				c-0.279-0.283-0.676-0.427-1.189-0.427c-0.613,0-1.259,0.238-1.936,0.712L36,110.735c0.785-0.527,1.574-0.793,2.367-0.793
				c0.801,0,1.425,0.216,1.871,0.643c0.447,0.428,0.671,1.03,0.671,1.808v2.483c0,0.241,0.108,0.365,0.326,0.373v0.886
				c-0.108,0.016-0.198,0.027-0.268,0.035c-0.07,0.008-0.145,0.012-0.222,0.012c-0.202,0-0.363-0.061-0.484-0.181
				c-0.12-0.12-0.192-0.268-0.216-0.438l-0.023-0.432c-0.271,0.365-0.615,0.643-1.031,0.834
				C38.575,116.156,38.13,116.251,37.656,116.251z M37.924,115.481c0.365,0,0.706-0.067,1.021-0.204
				c0.315-0.136,0.554-0.316,0.717-0.542c0.147-0.147,0.222-0.299,0.222-0.454v-0.898c-0.497-0.193-1.015-0.291-1.551-0.291
				c-0.513,0-0.931,0.109-1.253,0.326c-0.323,0.219-0.484,0.502-0.484,0.852c0,0.172,0.033,0.33,0.1,0.479
				c0.065,0.146,0.159,0.274,0.279,0.385c0.121,0.108,0.263,0.193,0.426,0.256C37.564,115.452,37.737,115.481,37.924,115.481z"/>
			<path fill="#00BFFF" d="M45.771,110.946c-0.513,0.017-0.966,0.146-1.358,0.396s-0.67,0.595-0.834,1.038v3.754h-1.025v-6.086
				h0.956v1.41c0.21-0.419,0.485-0.76,0.828-1.021c0.342-0.26,0.707-0.405,1.096-0.438c0.077,0,0.144,0,0.198,0
				c0.054,0,0.101,0.004,0.14,0.012L45.771,110.946L45.771,110.946z"/>
			<path fill="#00BFFF" d="M46.785,108.906v-1.283h1.025v1.283H46.785z M46.785,116.134v-6.086h1.025v6.086H46.785z"/>
			<path fill="#00BFFF" d="M51.029,116.251c-0.288,0-0.557-0.049-0.805-0.146c-0.249-0.097-0.465-0.229-0.647-0.401
				c-0.183-0.17-0.326-0.371-0.432-0.601c-0.104-0.229-0.157-0.479-0.157-0.752c0-0.28,0.062-0.535,0.187-0.764
				c0.124-0.229,0.302-0.426,0.53-0.59c0.229-0.162,0.502-0.291,0.816-0.386c0.315-0.093,0.659-0.139,1.032-0.139
				c0.295,0,0.595,0.027,0.897,0.081c0.304,0.055,0.571,0.128,0.805,0.222v-0.489c0-0.497-0.14-0.889-0.42-1.172
				c-0.279-0.283-0.676-0.427-1.189-0.427c-0.613,0-1.259,0.238-1.936,0.712l-0.338-0.665c0.785-0.527,1.574-0.793,2.367-0.793
				c0.801,0,1.425,0.216,1.871,0.643c0.447,0.428,0.671,1.03,0.671,1.808v2.483c0,0.241,0.108,0.365,0.326,0.373v0.886
				c-0.108,0.016-0.198,0.027-0.268,0.035c-0.07,0.008-0.145,0.012-0.222,0.012c-0.202,0-0.363-0.061-0.484-0.181
				c-0.12-0.12-0.192-0.268-0.216-0.438l-0.023-0.432c-0.271,0.365-0.615,0.643-1.031,0.834
				C51.948,116.156,51.503,116.251,51.029,116.251z M51.297,115.481c0.365,0,0.706-0.067,1.021-0.204
				c0.315-0.136,0.554-0.316,0.717-0.542c0.147-0.147,0.222-0.299,0.222-0.454v-0.898c-0.497-0.193-1.015-0.291-1.551-0.291
				c-0.513,0-0.931,0.109-1.253,0.326c-0.323,0.219-0.484,0.502-0.484,0.852c0,0.172,0.033,0.33,0.1,0.479
				c0.065,0.146,0.159,0.274,0.279,0.385c0.121,0.108,0.263,0.193,0.426,0.256C50.937,115.452,51.11,115.481,51.297,115.481z"/>
			<path fill="#00BFFF" d="M59.052,116.251c-0.475,0-0.906-0.117-1.295-0.351c-0.389-0.232-0.695-0.536-0.921-0.909v1.143h-0.909
				v-8.512h1.025v3.639c0.257-0.396,0.571-0.715,0.945-0.957c0.373-0.24,0.808-0.361,1.306-0.361c0.42,0,0.797,0.091,1.131,0.27
				s0.62,0.414,0.857,0.706c0.236,0.291,0.419,0.629,0.548,1.014c0.128,0.385,0.192,0.779,0.192,1.185
				c0,0.428-0.074,0.832-0.222,1.213s-0.35,0.713-0.606,0.996c-0.257,0.284-0.562,0.51-0.915,0.677
				C59.834,116.167,59.455,116.251,59.052,116.251z M58.795,115.365c0.303,0,0.583-0.062,0.84-0.187
				c0.256-0.125,0.478-0.292,0.664-0.502s0.33-0.449,0.432-0.717c0.101-0.27,0.151-0.551,0.151-0.847
				c0-0.295-0.049-0.58-0.146-0.856c-0.098-0.275-0.233-0.52-0.408-0.729c-0.175-0.209-0.385-0.379-0.63-0.507
				c-0.244-0.128-0.515-0.191-0.811-0.191c-0.217,0-0.423,0.039-0.617,0.116s-0.375,0.181-0.543,0.31
				c-0.167,0.128-0.314,0.277-0.442,0.449c-0.129,0.17-0.239,0.354-0.333,0.547v1.762c0.039,0.193,0.123,0.373,0.251,0.535
				c0.128,0.164,0.28,0.306,0.455,0.426c0.175,0.121,0.361,0.217,0.56,0.286C58.417,115.328,58.608,115.365,58.795,115.365z"/>
			<path fill="#00BFFF" d="M63.214,107.622h1.025v6.938c0,0.228,0.061,0.402,0.181,0.531c0.121,0.128,0.29,0.192,0.508,0.192
				c0.085,0,0.187-0.015,0.303-0.041c0.117-0.026,0.226-0.061,0.327-0.1l0.163,0.828c-0.172,0.069-0.373,0.127-0.606,0.174
				c-0.233,0.047-0.439,0.07-0.618,0.07c-0.396,0-0.709-0.112-0.938-0.338c-0.229-0.227-0.344-0.541-0.344-0.945L63.214,107.622
				L63.214,107.622z"/>
			<path fill="#00BFFF" d="M69.219,116.251c-0.459,0-0.879-0.084-1.26-0.251s-0.707-0.395-0.979-0.684
				c-0.271-0.286-0.483-0.623-0.635-1.008c-0.152-0.385-0.228-0.791-0.228-1.219s0.075-0.832,0.228-1.213
				c0.151-0.381,0.365-0.715,0.641-1.002c0.276-0.288,0.604-0.517,0.985-0.684c0.381-0.167,0.801-0.251,1.26-0.251
				c0.458,0,0.876,0.086,1.253,0.258c0.377,0.171,0.698,0.397,0.962,0.683c0.265,0.283,0.469,0.613,0.612,0.99
				s0.216,0.768,0.216,1.172c0,0.086-0.002,0.164-0.006,0.232c-0.004,0.07-0.01,0.124-0.018,0.163h-5.049
				c0.023,0.305,0.094,0.58,0.21,0.828c0.117,0.249,0.269,0.463,0.455,0.643c0.186,0.179,0.398,0.318,0.636,0.419
				c0.236,0.102,0.487,0.151,0.752,0.151c0.187,0,0.369-0.024,0.548-0.076c0.179-0.051,0.346-0.117,0.501-0.202
				c0.155-0.086,0.294-0.191,0.414-0.315c0.12-0.124,0.212-0.265,0.274-0.42l0.886,0.245c-0.101,0.226-0.239,0.432-0.414,0.617
				c-0.175,0.188-0.377,0.349-0.606,0.483c-0.229,0.138-0.483,0.243-0.764,0.32C69.813,116.212,69.521,116.251,69.219,116.251z
				 M71.306,112.683c-0.023-0.287-0.096-0.554-0.216-0.799c-0.12-0.244-0.272-0.452-0.454-0.623
				c-0.184-0.172-0.396-0.305-0.636-0.402c-0.241-0.098-0.498-0.146-0.77-0.146s-0.529,0.049-0.77,0.146
				c-0.241,0.099-0.453,0.232-0.636,0.408c-0.183,0.174-0.33,0.383-0.443,0.623c-0.112,0.241-0.181,0.506-0.204,0.793H71.306z"/>
		</g>
		<path fill="none" stroke="#00BFFF" stroke-width="2" d="M92.419,105.462c0,10.6-8.593,19.191-19.192,19.191H28.611
			c-10.6,0-19.192-8.593-19.192-19.191l0,0c0-10.601,8.593-19.193,19.192-19.193h44.615C83.826,86.269,92.419,94.862,92.419,105.462
			L92.419,105.462z"/>
	</g>
	<g>
		<g>
			<path fill="#FB4C52" d="M93.724,15.048c0-0.497,0.087-0.993,0.263-1.486c0.175-0.494,0.431-0.937,0.77-1.33
				c0.338-0.392,0.752-0.709,1.242-0.949c0.49-0.241,1.044-0.361,1.667-0.361c0.738,0,1.371,0.167,1.9,0.501
				c0.529,0.334,0.922,0.77,1.178,1.306l-0.828,0.537C99.79,13,99.642,12.779,99.466,12.6c-0.174-0.179-0.365-0.323-0.57-0.432
				c-0.207-0.109-0.418-0.188-0.637-0.233c-0.217-0.046-0.432-0.069-0.641-0.069c-0.459,0-0.865,0.095-1.219,0.285
				c-0.354,0.191-0.651,0.439-0.892,0.747c-0.241,0.308-0.422,0.653-0.542,1.038c-0.12,0.385-0.181,0.771-0.181,1.16
				c0,0.437,0.072,0.849,0.216,1.242c0.144,0.393,0.344,0.74,0.601,1.043s0.56,0.544,0.91,0.723c0.35,0.18,0.73,0.269,1.143,0.269
				c0.217,0,0.441-0.027,0.67-0.082c0.23-0.055,0.449-0.143,0.66-0.263c0.209-0.12,0.404-0.271,0.588-0.454
				c0.182-0.184,0.332-0.402,0.449-0.659l0.875,0.478c-0.133,0.312-0.318,0.585-0.555,0.822c-0.236,0.237-0.506,0.437-0.805,0.6
				c-0.299,0.164-0.615,0.288-0.949,0.374c-0.336,0.085-0.662,0.128-0.98,0.128c-0.568,0-1.088-0.124-1.562-0.373
				s-0.884-0.572-1.23-0.974c-0.346-0.401-0.614-0.854-0.805-1.364C93.819,16.096,93.724,15.577,93.724,15.048z"/>
			<path fill="#FB4C52" d="M104.707,19.363c-0.459,0-0.877-0.086-1.254-0.257s-0.699-0.399-0.968-0.688
				c-0.268-0.288-0.476-0.622-0.623-1.003c-0.148-0.381-0.222-0.781-0.222-1.201c0-0.427,0.075-0.832,0.228-1.212
				c0.151-0.381,0.361-0.715,0.629-1.003c0.269-0.288,0.591-0.518,0.968-0.688s0.791-0.256,1.242-0.256s0.866,0.085,1.248,0.256
				c0.38,0.171,0.705,0.4,0.974,0.688c0.268,0.288,0.478,0.622,0.629,1.003c0.152,0.381,0.228,0.785,0.228,1.212
				c0,0.42-0.074,0.82-0.222,1.201s-0.357,0.715-0.629,1.003s-0.597,0.517-0.974,0.688
				C105.583,19.277,105.166,19.363,104.707,19.363z M102.689,16.226c0,0.319,0.053,0.614,0.158,0.886
				c0.104,0.272,0.248,0.51,0.431,0.712c0.183,0.201,0.396,0.36,0.642,0.478s0.507,0.175,0.787,0.175
				c0.28,0,0.542-0.058,0.787-0.175c0.245-0.117,0.461-0.278,0.647-0.484s0.332-0.446,0.437-0.723s0.158-0.573,0.158-0.892
				c0-0.312-0.053-0.604-0.158-0.88c-0.104-0.275-0.25-0.518-0.437-0.724s-0.402-0.367-0.647-0.483
				c-0.245-0.117-0.507-0.176-0.787-0.176c-0.28,0-0.542,0.061-0.787,0.182s-0.459,0.284-0.642,0.489
				c-0.183,0.206-0.326,0.447-0.431,0.724C102.742,15.61,102.689,15.908,102.689,16.226z"/>
			<path fill="#FB4C52" d="M114.314,19.246h-1.025v-3.405c0-0.653-0.1-1.127-0.298-1.422c-0.198-0.295-0.499-0.443-0.903-0.443
				c-0.21,0-0.42,0.041-0.63,0.123s-0.408,0.192-0.595,0.333s-0.35,0.308-0.489,0.501c-0.139,0.194-0.245,0.408-0.315,0.642v3.673
				h-1.025V13.16h0.933v1.306c0.241-0.427,0.589-0.771,1.044-1.026c0.454-0.256,0.95-0.385,1.486-0.385
				c0.35,0,0.642,0.064,0.874,0.192c0.233,0.128,0.42,0.307,0.56,0.536c0.141,0.229,0.239,0.5,0.298,0.811
				c0.059,0.312,0.087,0.649,0.087,1.015v3.638H114.314z"/>
			<path fill="#FB4C52" d="M116.181,19.246v-5.282h-0.828V13.16h0.828v-0.128c0-0.755,0.167-1.346,0.501-1.772
				c0.335-0.427,0.789-0.641,1.364-0.641c0.241,0,0.479,0.032,0.712,0.099c0.233,0.066,0.442,0.157,0.63,0.274l-0.257,0.758
				c-0.109-0.078-0.243-0.141-0.402-0.188c-0.159-0.046-0.317-0.069-0.473-0.069c-0.342,0-0.603,0.128-0.781,0.385
				c-0.178,0.257-0.268,0.63-0.268,1.119v0.164h1.62v0.805h-1.62v5.282h-1.026V19.246z"/>
			<path fill="#FB4C52" d="M122.372,19.363c-0.459,0-0.877-0.086-1.254-0.257s-0.699-0.399-0.968-0.688
				c-0.268-0.288-0.476-0.622-0.623-1.003c-0.148-0.381-0.222-0.781-0.222-1.201c0-0.427,0.075-0.832,0.228-1.212
				c0.151-0.381,0.361-0.715,0.629-1.003c0.269-0.288,0.591-0.518,0.968-0.688s0.791-0.256,1.242-0.256
				c0.451,0,0.866,0.085,1.248,0.256c0.38,0.171,0.705,0.4,0.974,0.688c0.268,0.288,0.478,0.622,0.629,1.003
				c0.152,0.381,0.228,0.785,0.228,1.212c0,0.42-0.074,0.82-0.222,1.201s-0.357,0.715-0.629,1.003s-0.597,0.517-0.974,0.688
				C123.248,19.277,122.831,19.363,122.372,19.363z M120.354,16.226c0,0.319,0.053,0.614,0.158,0.886
				c0.104,0.272,0.248,0.51,0.431,0.712c0.183,0.201,0.396,0.36,0.642,0.478s0.507,0.175,0.787,0.175
				c0.28,0,0.542-0.058,0.787-0.175c0.245-0.117,0.461-0.278,0.647-0.484s0.332-0.446,0.437-0.723s0.158-0.573,0.158-0.892
				c0-0.312-0.053-0.604-0.158-0.88c-0.104-0.275-0.25-0.518-0.437-0.724s-0.402-0.367-0.647-0.483
				c-0.245-0.117-0.507-0.176-0.787-0.176c-0.28,0-0.542,0.061-0.787,0.182s-0.459,0.284-0.642,0.489
				c-0.183,0.206-0.326,0.447-0.431,0.724C120.407,15.61,120.354,15.908,120.354,16.226z"/>
			<path fill="#FB4C52" d="M128.575,19.363c-0.638,0-1.119-0.214-1.445-0.642c-0.327-0.427-0.489-1.063-0.489-1.912V13.16h1.025
				v3.45c0,1.244,0.432,1.866,1.294,1.866c0.42,0,0.813-0.134,1.185-0.401c0.369-0.269,0.644-0.636,0.821-1.103V13.16h1.025v4.826
				c0,0.241,0.108,0.365,0.327,0.373v0.887c-0.117,0.016-0.209,0.024-0.274,0.028s-0.13,0.007-0.192,0.007
				c-0.201,0-0.371-0.061-0.506-0.182c-0.138-0.121-0.209-0.27-0.217-0.449l-0.023-0.711c-0.271,0.459-0.629,0.812-1.071,1.057
				C129.59,19.24,129.104,19.363,128.575,19.363z"/>
			<path fill="#FB4C52" d="M138.986,19.246h-1.024v-3.405c0-0.653-0.101-1.127-0.298-1.422c-0.198-0.295-0.499-0.443-0.902-0.443
				c-0.211,0-0.421,0.041-0.631,0.123s-0.408,0.192-0.595,0.333s-0.351,0.308-0.489,0.501c-0.139,0.194-0.245,0.408-0.314,0.642
				v3.673h-1.025V13.16h0.934v1.306c0.24-0.427,0.588-0.771,1.043-1.026s0.95-0.385,1.486-0.385c0.35,0,0.643,0.064,0.874,0.192
				c0.233,0.128,0.42,0.307,0.56,0.536c0.142,0.229,0.239,0.5,0.299,0.811c0.059,0.312,0.086,0.649,0.086,1.015v3.638H138.986z"/>
			<path fill="#FB4C52" d="M143.092,19.363c-0.42,0-0.809-0.086-1.166-0.257s-0.664-0.399-0.921-0.688s-0.457-0.622-0.601-1.003
				c-0.146-0.381-0.217-0.781-0.217-1.201c0-0.427,0.067-0.833,0.205-1.218c0.135-0.386,0.325-0.722,0.57-1.01
				c0.245-0.287,0.536-0.515,0.874-0.682c0.339-0.167,0.71-0.25,1.114-0.25c0.488,0,0.927,0.128,1.312,0.385
				c0.385,0.258,0.688,0.567,0.914,0.934v-3.639h1.026v7.252c0,0.241,0.108,0.365,0.325,0.373v0.887
				c-0.108,0.016-0.195,0.026-0.262,0.035c-0.065,0.007-0.131,0.012-0.192,0.012c-0.202,0-0.38-0.068-0.53-0.204
				s-0.229-0.293-0.229-0.473v-0.514c-0.24,0.396-0.562,0.706-0.961,0.927C143.956,19.252,143.535,19.363,143.092,19.363z
				 M143.337,18.477c0.187,0,0.379-0.035,0.577-0.104c0.197-0.07,0.385-0.167,0.561-0.292c0.174-0.124,0.325-0.271,0.453-0.438
				c0.129-0.167,0.213-0.344,0.252-0.531v-1.749c-0.07-0.193-0.176-0.379-0.314-0.554c-0.141-0.175-0.299-0.327-0.473-0.455
				c-0.176-0.128-0.361-0.229-0.561-0.303c-0.198-0.074-0.395-0.111-0.589-0.111c-0.304,0-0.577,0.064-0.822,0.192
				c-0.244,0.128-0.454,0.299-0.629,0.513c-0.176,0.214-0.31,0.459-0.401,0.735c-0.095,0.276-0.142,0.558-0.142,0.845
				c0,0.303,0.056,0.593,0.163,0.869c0.109,0.276,0.257,0.515,0.443,0.717c0.186,0.202,0.405,0.363,0.658,0.484
				C142.768,18.417,143.041,18.477,143.337,18.477z"/>
			<path fill="#FB4C52" d="M147.92,12.017v-1.283h1.025v1.283H147.92z M147.92,19.246V13.16h1.025v6.086H147.92z"/>
			<path fill="#FB4C52" d="M155.883,19.246h-1.025v-3.405c0-0.653-0.1-1.127-0.297-1.422c-0.199-0.295-0.5-0.443-0.903-0.443
				c-0.21,0-0.421,0.041-0.63,0.123c-0.211,0.082-0.408,0.192-0.596,0.333c-0.187,0.141-0.35,0.308-0.488,0.501
				c-0.139,0.194-0.245,0.408-0.315,0.642v3.673h-1.024V13.16h0.933v1.306c0.241-0.427,0.589-0.771,1.044-1.026
				c0.454-0.256,0.949-0.385,1.486-0.385c0.35,0,0.642,0.064,0.873,0.192c0.233,0.128,0.42,0.307,0.561,0.536
				c0.141,0.229,0.238,0.5,0.298,0.811c0.06,0.312,0.087,0.649,0.087,1.015v3.638H155.883z"/>
			<path fill="#FB4C52" d="M159.904,19.316c-0.411,0-0.791-0.085-1.137-0.256s-0.644-0.399-0.892-0.688
				c-0.249-0.288-0.44-0.618-0.577-0.991s-0.203-0.762-0.203-1.166c0-0.427,0.066-0.833,0.203-1.218
				c0.137-0.386,0.328-0.722,0.577-1.01c0.248-0.287,0.546-0.515,0.892-0.682s0.729-0.25,1.148-0.25
				c0.514,0,0.956,0.125,1.329,0.373c0.373,0.249,0.688,0.563,0.944,0.944V13.16h0.91v6.017c0,0.435-0.082,0.818-0.246,1.148
				c-0.162,0.33-0.385,0.607-0.664,0.833s-0.607,0.396-0.984,0.513c-0.378,0.117-0.78,0.175-1.207,0.175
				c-0.691,0-1.254-0.119-1.686-0.354c-0.432-0.237-0.791-0.565-1.078-0.985l0.595-0.525c0.241,0.357,0.552,0.626,0.933,0.806
				c0.381,0.179,0.793,0.268,1.236,0.268c0.279,0,0.546-0.039,0.799-0.116c0.252-0.078,0.473-0.194,0.658-0.35
				s0.336-0.351,0.449-0.583c0.111-0.233,0.169-0.509,0.169-0.828v-1.073c-0.116,0.188-0.255,0.355-0.414,0.507
				s-0.332,0.28-0.519,0.386c-0.188,0.104-0.386,0.185-0.596,0.238C160.335,19.289,160.123,19.316,159.904,19.316z M160.221,18.477
				c0.217,0,0.428-0.039,0.629-0.117c0.202-0.077,0.389-0.181,0.561-0.309c0.171-0.128,0.314-0.274,0.432-0.437
				c0.117-0.163,0.194-0.331,0.233-0.502v-1.748c-0.087-0.211-0.196-0.4-0.332-0.571c-0.138-0.171-0.29-0.321-0.461-0.449
				s-0.355-0.228-0.554-0.297c-0.199-0.07-0.398-0.105-0.602-0.105c-0.311,0-0.589,0.066-0.834,0.198
				c-0.244,0.132-0.452,0.308-0.623,0.524c-0.172,0.218-0.304,0.465-0.396,0.741c-0.094,0.275-0.141,0.554-0.141,0.832
				c0,0.304,0.055,0.592,0.164,0.863c0.107,0.272,0.256,0.509,0.441,0.711c0.187,0.202,0.406,0.363,0.66,0.484
				C159.65,18.417,159.925,18.477,160.221,18.477z"/>
			<path fill="#FB4C52" d="M109.465,33.246l-2.402-6.086h1.062l1.924,5.188l1.936-5.188h0.979l-2.402,6.086H109.465z"/>
			<path fill="#FB4C52" d="M115.389,33.363c-0.288,0-0.557-0.049-0.805-0.146c-0.249-0.097-0.465-0.231-0.647-0.402
				c-0.183-0.171-0.326-0.371-0.432-0.6c-0.104-0.229-0.157-0.48-0.157-0.752c0-0.28,0.062-0.534,0.187-0.764
				c0.124-0.229,0.302-0.426,0.53-0.59c0.229-0.162,0.502-0.292,0.816-0.385c0.315-0.093,0.659-0.14,1.032-0.14
				c0.295,0,0.595,0.026,0.897,0.082c0.304,0.055,0.571,0.128,0.805,0.222v-0.49c0-0.498-0.14-0.888-0.42-1.172
				c-0.279-0.284-0.676-0.426-1.189-0.426c-0.613,0-1.259,0.237-1.936,0.711l-0.338-0.665c0.785-0.529,1.574-0.793,2.367-0.793
				c0.801,0,1.425,0.214,1.871,0.641c0.447,0.429,0.671,1.03,0.671,1.809v2.482c0,0.241,0.108,0.365,0.326,0.373v0.887
				c-0.108,0.016-0.198,0.026-0.268,0.035c-0.07,0.007-0.145,0.012-0.222,0.012c-0.202,0-0.363-0.062-0.484-0.182
				c-0.12-0.119-0.192-0.266-0.216-0.437l-0.023-0.432c-0.271,0.365-0.615,0.644-1.031,0.834
				C116.307,33.266,115.862,33.363,115.389,33.363z M115.656,32.593c0.365,0,0.706-0.068,1.021-0.204
				c0.315-0.136,0.554-0.316,0.717-0.542c0.147-0.146,0.222-0.299,0.222-0.455v-0.897c-0.497-0.194-1.015-0.292-1.551-0.292
				c-0.513,0-0.931,0.108-1.253,0.326c-0.323,0.219-0.484,0.502-0.484,0.852c0,0.171,0.033,0.331,0.1,0.478
				c0.065,0.148,0.159,0.276,0.279,0.386c0.121,0.108,0.263,0.193,0.426,0.257C115.295,32.562,115.47,32.593,115.656,32.593z"/>
			<path fill="#FB4C52" d="M123.503,28.058c-0.513,0.017-0.966,0.147-1.358,0.396c-0.393,0.249-0.67,0.595-0.834,1.038v3.754h-1.025
				V27.16h0.956v1.41c0.21-0.419,0.485-0.76,0.828-1.02c0.342-0.26,0.707-0.406,1.096-0.438c0.077,0,0.144,0,0.198,0
				c0.054,0,0.101,0.005,0.14,0.013L123.503,28.058L123.503,28.058z"/>
			<path fill="#FB4C52" d="M124.518,26.017v-1.283h1.025v1.283H124.518z M124.518,33.246V27.16h1.025v6.086H124.518z"/>
			<path fill="#FB4C52" d="M128.762,33.363c-0.287,0-0.557-0.049-0.805-0.146c-0.249-0.097-0.465-0.231-0.646-0.402
				c-0.184-0.171-0.326-0.371-0.433-0.6c-0.104-0.229-0.157-0.48-0.157-0.752c0-0.28,0.062-0.534,0.188-0.764
				c0.124-0.229,0.302-0.426,0.529-0.59c0.229-0.162,0.502-0.292,0.816-0.385s0.659-0.14,1.032-0.14
				c0.295,0,0.595,0.026,0.897,0.082c0.303,0.055,0.57,0.128,0.805,0.222v-0.49c0-0.498-0.141-0.888-0.42-1.172
				s-0.676-0.426-1.189-0.426c-0.613,0-1.259,0.237-1.936,0.711l-0.338-0.665c0.785-0.529,1.574-0.793,2.367-0.793
				c0.801,0,1.424,0.214,1.87,0.641c0.447,0.429,0.671,1.03,0.671,1.809v2.482c0,0.241,0.108,0.365,0.326,0.373v0.887
				c-0.107,0.016-0.197,0.026-0.268,0.035c-0.07,0.007-0.146,0.012-0.223,0.012c-0.201,0-0.363-0.062-0.483-0.182
				c-0.12-0.119-0.192-0.266-0.216-0.437l-0.023-0.432c-0.271,0.365-0.615,0.644-1.031,0.834
				C129.68,33.266,129.234,33.363,128.762,33.363z M129.029,32.593c0.365,0,0.705-0.068,1.021-0.204s0.554-0.316,0.718-0.542
				c0.146-0.146,0.221-0.299,0.221-0.455v-0.897c-0.496-0.194-1.014-0.292-1.551-0.292c-0.513,0-0.931,0.108-1.252,0.326
				c-0.324,0.219-0.484,0.502-0.484,0.852c0,0.171,0.033,0.331,0.1,0.478c0.065,0.148,0.159,0.276,0.279,0.386
				c0.121,0.108,0.263,0.193,0.426,0.257C128.668,32.562,128.843,32.593,129.029,32.593z"/>
			<path fill="#FB4C52" d="M136.784,33.363c-0.476,0-0.906-0.116-1.296-0.35c-0.389-0.232-0.694-0.536-0.92-0.909v1.144h-0.909
				v-8.513h1.024v3.639c0.258-0.396,0.571-0.715,0.945-0.956c0.373-0.241,0.809-0.361,1.307-0.361c0.42,0,0.797,0.089,1.131,0.269
				c0.334,0.179,0.619,0.413,0.856,0.706c0.236,0.292,0.419,0.629,0.548,1.014s0.192,0.78,0.192,1.184
				c0,0.429-0.074,0.832-0.222,1.213c-0.148,0.382-0.351,0.713-0.606,0.997c-0.257,0.284-0.562,0.51-0.915,0.677
				C137.566,33.279,137.188,33.363,136.784,33.363z M136.527,32.477c0.303,0,0.582-0.062,0.84-0.187
				c0.256-0.125,0.479-0.292,0.664-0.501s0.33-0.449,0.432-0.717c0.102-0.269,0.15-0.551,0.15-0.846s-0.049-0.581-0.146-0.856
				c-0.098-0.276-0.233-0.52-0.407-0.729c-0.176-0.21-0.386-0.379-0.631-0.507c-0.244-0.128-0.515-0.192-0.811-0.192
				c-0.217,0-0.424,0.039-0.617,0.117s-0.375,0.182-0.543,0.31c-0.167,0.128-0.314,0.277-0.441,0.448
				c-0.129,0.171-0.24,0.354-0.334,0.549v1.761c0.039,0.193,0.123,0.373,0.252,0.536c0.127,0.164,0.279,0.305,0.455,0.426
				c0.174,0.121,0.36,0.216,0.56,0.286C136.148,32.444,136.341,32.477,136.527,32.477z"/>
			<path fill="#FB4C52" d="M140.945,24.734h1.025v6.938c0,0.226,0.062,0.402,0.182,0.531c0.121,0.128,0.289,0.191,0.508,0.191
				c0.085,0,0.188-0.014,0.303-0.041c0.117-0.026,0.227-0.06,0.327-0.099l0.163,0.828c-0.172,0.069-0.373,0.128-0.605,0.175
				c-0.234,0.046-0.439,0.07-0.619,0.07c-0.396,0-0.709-0.112-0.938-0.338c-0.229-0.227-0.344-0.541-0.344-0.945v-7.312H140.945z"/>
			<path fill="#FB4C52" d="M146.951,33.363c-0.459,0-0.879-0.082-1.26-0.251c-0.381-0.167-0.707-0.394-0.979-0.682
				c-0.271-0.287-0.483-0.624-0.635-1.008c-0.152-0.385-0.228-0.791-0.228-1.219s0.074-0.832,0.228-1.212
				c0.151-0.382,0.364-0.716,0.641-1.004c0.276-0.287,0.604-0.515,0.985-0.682s0.801-0.25,1.26-0.25
				c0.458,0,0.876,0.085,1.253,0.256s0.698,0.398,0.962,0.683c0.266,0.283,0.469,0.613,0.612,0.99s0.216,0.769,0.216,1.173
				c0,0.085-0.002,0.162-0.006,0.232s-0.01,0.125-0.018,0.164h-5.049c0.022,0.303,0.094,0.579,0.209,0.828
				c0.117,0.249,0.27,0.463,0.455,0.642c0.187,0.18,0.398,0.319,0.637,0.419c0.236,0.102,0.486,0.152,0.752,0.152
				c0.187,0,0.369-0.025,0.548-0.076s0.346-0.119,0.501-0.204c0.154-0.085,0.294-0.189,0.414-0.314
				c0.119-0.125,0.212-0.265,0.273-0.42l0.887,0.245c-0.102,0.226-0.239,0.431-0.414,0.617c-0.176,0.188-0.377,0.349-0.606,0.484
				s-0.483,0.243-0.764,0.321C147.546,33.324,147.254,33.363,146.951,33.363z M149.038,29.795c-0.022-0.288-0.097-0.554-0.216-0.799
				c-0.12-0.245-0.272-0.453-0.454-0.624c-0.185-0.171-0.396-0.306-0.636-0.402c-0.241-0.097-0.498-0.146-0.771-0.146
				s-0.528,0.049-0.771,0.146c-0.24,0.098-0.453,0.233-0.635,0.408c-0.184,0.175-0.33,0.383-0.443,0.624
				c-0.112,0.241-0.182,0.505-0.204,0.793H149.038z"/>
		</g>
		<path fill="none" stroke="#FB4C52" stroke-width="2" d="M170.15,22.574c0,10.6-8.592,19.191-19.191,19.191h-44.615
			c-10.6,0-19.192-8.593-19.192-19.191l0,0c0-10.601,8.593-19.193,19.192-19.193h44.615C161.559,3.381,170.15,11.974,170.15,22.574
			L170.15,22.574z"/>
	</g>
	<g>
		<g>
			<path fill="#FBC15E" d="M180.43,102.135v-8.278h3.545c0.364,0,0.7,0.076,1.008,0.228s0.57,0.354,0.793,0.606
				c0.222,0.252,0.395,0.535,0.52,0.852c0.124,0.314,0.188,0.636,0.188,0.962c0,0.287-0.041,0.564-0.123,0.834
				c-0.082,0.268-0.198,0.511-0.351,0.729c-0.151,0.219-0.334,0.404-0.548,0.561s-0.453,0.269-0.717,0.339l2.005,3.171h-1.188
				l-1.89-2.974h-2.192v2.974h-1.049V102.135z M181.479,98.229h2.508c0.217,0,0.412-0.046,0.588-0.14s0.324-0.22,0.449-0.379
				c0.123-0.159,0.222-0.344,0.291-0.555c0.069-0.21,0.104-0.428,0.104-0.652c0-0.232-0.041-0.453-0.122-0.658
				c-0.082-0.207-0.189-0.389-0.326-0.549c-0.137-0.159-0.296-0.283-0.479-0.373c-0.184-0.089-0.375-0.134-0.577-0.134h-2.438v3.439
				H181.479z"/>
			<path fill="#FBC15E" d="M190.421,102.251c-0.459,0-0.879-0.083-1.26-0.25c-0.382-0.168-0.707-0.396-0.979-0.684
				c-0.271-0.286-0.482-0.624-0.635-1.009s-0.229-0.791-0.229-1.219c0-0.427,0.076-0.831,0.229-1.212
				c0.151-0.381,0.365-0.716,0.641-1.003c0.276-0.287,0.604-0.516,0.985-0.683c0.382-0.168,0.802-0.251,1.261-0.251
				c0.457,0,0.875,0.085,1.252,0.258c0.377,0.171,0.698,0.397,0.963,0.682s0.469,0.614,0.611,0.991s0.217,0.768,0.217,1.172
				c0,0.085-0.002,0.163-0.006,0.232c-0.005,0.07-0.011,0.124-0.019,0.163h-5.05c0.023,0.305,0.095,0.579,0.211,0.827
				c0.117,0.25,0.269,0.463,0.455,0.644c0.187,0.178,0.397,0.317,0.636,0.419c0.235,0.101,0.487,0.15,0.752,0.15
				c0.187,0,0.369-0.024,0.548-0.074c0.18-0.052,0.346-0.118,0.501-0.204s0.294-0.19,0.414-0.314c0.12-0.125,0.212-0.265,0.274-0.42
				l0.886,0.244c-0.101,0.227-0.239,0.432-0.414,0.618c-0.175,0.186-0.377,0.349-0.606,0.482c-0.229,0.138-0.482,0.244-0.764,0.321
				C191.016,102.212,190.725,102.251,190.421,102.251z M192.508,98.684c-0.023-0.288-0.096-0.554-0.216-0.799
				s-0.272-0.452-0.454-0.624c-0.184-0.171-0.396-0.305-0.636-0.402c-0.241-0.097-0.498-0.146-0.771-0.146
				c-0.271,0-0.529,0.049-0.77,0.146c-0.241,0.099-0.453,0.233-0.637,0.408c-0.183,0.175-0.33,0.383-0.442,0.624
				s-0.181,0.505-0.204,0.793H192.508L192.508,98.684z"/>
			<path fill="#FBC15E" d="M196.753,102.251c-0.489,0-0.972-0.075-1.446-0.228c-0.474-0.151-0.882-0.371-1.225-0.658l0.443-0.688
				c0.356,0.272,0.715,0.477,1.072,0.613c0.357,0.135,0.734,0.203,1.131,0.203c0.443,0,0.795-0.087,1.056-0.263
				s0.391-0.422,0.391-0.739c0-0.148-0.034-0.274-0.104-0.38c-0.069-0.104-0.174-0.196-0.313-0.273
				c-0.141-0.077-0.319-0.147-0.536-0.21c-0.219-0.063-0.471-0.129-0.759-0.198c-0.364-0.093-0.68-0.183-0.944-0.269
				c-0.265-0.085-0.481-0.187-0.652-0.304c-0.172-0.116-0.295-0.257-0.373-0.42c-0.077-0.163-0.116-0.364-0.116-0.605
				c0-0.304,0.062-0.573,0.181-0.811c0.12-0.237,0.286-0.436,0.496-0.596c0.209-0.158,0.456-0.279,0.74-0.361
				c0.283-0.082,0.589-0.122,0.915-0.122c0.459,0,0.886,0.073,1.282,0.223c0.396,0.146,0.73,0.342,1.003,0.583l-0.466,0.618
				c-0.258-0.227-0.545-0.396-0.863-0.509c-0.318-0.111-0.646-0.169-0.979-0.169c-0.373,0-0.689,0.08-0.951,0.239
				c-0.26,0.159-0.391,0.414-0.391,0.764c0,0.141,0.025,0.257,0.076,0.351s0.135,0.175,0.25,0.245
				c0.117,0.068,0.268,0.132,0.449,0.187s0.402,0.113,0.658,0.175c0.404,0.094,0.757,0.188,1.056,0.286s0.548,0.211,0.746,0.344
				s0.346,0.287,0.442,0.468c0.098,0.178,0.146,0.396,0.146,0.651c0,0.567-0.218,1.02-0.652,1.354
				C198.078,102.085,197.491,102.251,196.753,102.251z"/>
			<path fill="#FBC15E" d="M203.654,102.251c-0.506,0-0.949-0.124-1.334-0.373c-0.385-0.248-0.69-0.562-0.916-0.944v3.686h-1.025
				v-8.57h0.909v1.143c0.241-0.373,0.554-0.674,0.938-0.902c0.383-0.229,0.811-0.345,1.276-0.345c0.419,0,0.804,0.085,1.154,0.258
				c0.35,0.171,0.651,0.401,0.909,0.692c0.257,0.291,0.455,0.628,0.601,1.009c0.144,0.382,0.216,0.777,0.216,1.188
				c0,0.436-0.066,0.846-0.197,1.23c-0.134,0.385-0.319,0.719-0.561,1.003c-0.241,0.283-0.529,0.509-0.863,0.677
				C204.43,102.168,204.061,102.251,203.654,102.251z M203.34,101.365c0.305,0,0.577-0.063,0.822-0.192s0.455-0.299,0.63-0.514
				c0.175-0.214,0.31-0.456,0.401-0.729c0.094-0.271,0.141-0.551,0.141-0.84c0-0.303-0.055-0.592-0.163-0.868
				s-0.257-0.517-0.442-0.723c-0.187-0.206-0.406-0.369-0.658-0.489c-0.254-0.121-0.527-0.182-0.822-0.182
				c-0.188,0-0.379,0.037-0.577,0.11c-0.198,0.074-0.385,0.171-0.56,0.291c-0.176,0.121-0.327,0.266-0.455,0.433
				c-0.129,0.168-0.213,0.344-0.252,0.53v1.736c0.087,0.203,0.195,0.391,0.328,0.566c0.131,0.174,0.283,0.325,0.453,0.454
				c0.172,0.128,0.354,0.229,0.549,0.304C202.928,101.329,203.131,101.365,203.34,101.365z"/>
			<path fill="#FBC15E" d="M210.301,102.251c-0.459,0-0.877-0.086-1.254-0.256c-0.377-0.172-0.699-0.4-0.968-0.688
				s-0.476-0.623-0.623-1.004s-0.222-0.781-0.222-1.201c0-0.427,0.074-0.831,0.228-1.212c0.151-0.381,0.36-0.716,0.629-1.003
				s0.591-0.517,0.968-0.688c0.377-0.173,0.791-0.258,1.242-0.258s0.866,0.085,1.248,0.258c0.381,0.171,0.705,0.399,0.975,0.688
				c0.268,0.287,0.478,0.622,0.629,1.003c0.152,0.381,0.228,0.785,0.228,1.212c0,0.42-0.073,0.82-0.222,1.201
				s-0.357,0.716-0.629,1.004c-0.272,0.287-0.598,0.517-0.975,0.688C211.177,102.165,210.76,102.251,210.301,102.251z
				 M208.283,99.115c0,0.318,0.053,0.614,0.158,0.887c0.104,0.271,0.248,0.51,0.431,0.711c0.183,0.203,0.396,0.361,0.642,0.479
				c0.246,0.118,0.508,0.176,0.787,0.176c0.28,0,0.542-0.059,0.787-0.176c0.245-0.116,0.461-0.276,0.646-0.483
				c0.188-0.205,0.332-0.447,0.438-0.724c0.105-0.274,0.158-0.572,0.158-0.893c0-0.311-0.053-0.604-0.158-0.88
				c-0.104-0.275-0.25-0.518-0.438-0.724c-0.187-0.205-0.401-0.366-0.646-0.482c-0.245-0.117-0.507-0.176-0.787-0.176
				c-0.279,0-0.542,0.061-0.787,0.182c-0.244,0.12-0.459,0.283-0.642,0.489s-0.326,0.445-0.431,0.723
				C208.336,98.499,208.283,98.796,208.283,99.115z"/>
			<path fill="#FBC15E" d="M219.908,102.135h-1.025V98.73c0-0.651-0.1-1.127-0.298-1.422s-0.499-0.442-0.903-0.442
				c-0.209,0-0.42,0.041-0.63,0.123c-0.21,0.08-0.407,0.19-0.595,0.331s-0.35,0.308-0.489,0.503
				c-0.14,0.192-0.245,0.406-0.315,0.641v3.673h-1.024v-6.087h0.933v1.307c0.241-0.428,0.59-0.77,1.045-1.025
				c0.453-0.257,0.949-0.386,1.485-0.386c0.351,0,0.642,0.063,0.874,0.192c0.233,0.129,0.42,0.307,0.561,0.536
				c0.141,0.229,0.238,0.499,0.298,0.811c0.059,0.312,0.087,0.649,0.087,1.016v3.636H219.908z"/>
			<path fill="#FBC15E" d="M223.641,102.251c-0.49,0-0.972-0.075-1.445-0.228c-0.475-0.151-0.883-0.371-1.225-0.658l0.442-0.688
				c0.356,0.272,0.715,0.477,1.073,0.613c0.356,0.135,0.734,0.203,1.131,0.203c0.443,0,0.795-0.087,1.055-0.263
				c0.262-0.176,0.391-0.422,0.391-0.739c0-0.148-0.033-0.274-0.104-0.38c-0.07-0.104-0.175-0.196-0.314-0.273
				c-0.141-0.077-0.318-0.147-0.537-0.21c-0.217-0.063-0.469-0.129-0.758-0.198c-0.365-0.093-0.68-0.183-0.943-0.269
				c-0.266-0.085-0.482-0.187-0.653-0.304c-0.171-0.116-0.295-0.257-0.373-0.42c-0.077-0.163-0.116-0.364-0.116-0.605
				c0-0.304,0.062-0.573,0.182-0.811c0.119-0.237,0.285-0.436,0.496-0.596c0.209-0.158,0.455-0.279,0.74-0.361
				c0.282-0.082,0.588-0.122,0.914-0.122c0.459,0,0.887,0.073,1.282,0.223c0.396,0.146,0.729,0.342,1.003,0.583l-0.466,0.618
				c-0.257-0.227-0.545-0.396-0.863-0.509c-0.317-0.111-0.646-0.169-0.979-0.169c-0.372,0-0.688,0.08-0.949,0.239
				c-0.262,0.159-0.391,0.414-0.391,0.764c0,0.141,0.024,0.257,0.076,0.351c0.049,0.094,0.133,0.175,0.25,0.245
				c0.116,0.068,0.267,0.132,0.448,0.187c0.183,0.055,0.402,0.113,0.659,0.175c0.402,0.094,0.756,0.188,1.055,0.286
				s0.549,0.211,0.746,0.344c0.198,0.133,0.346,0.287,0.443,0.468c0.097,0.178,0.146,0.396,0.146,0.651
				c0,0.567-0.219,1.02-0.652,1.354C224.966,102.085,224.379,102.251,223.641,102.251z"/>
			<path fill="#FBC15E" d="M229.96,102.251c-0.459,0-0.879-0.083-1.26-0.25c-0.382-0.168-0.707-0.396-0.979-0.684
				c-0.271-0.286-0.482-0.624-0.635-1.009s-0.229-0.791-0.229-1.219c0-0.427,0.076-0.831,0.229-1.212
				c0.15-0.381,0.365-0.716,0.641-1.003c0.276-0.287,0.604-0.516,0.985-0.683c0.381-0.168,0.802-0.251,1.261-0.251
				c0.457,0,0.875,0.085,1.252,0.258c0.377,0.171,0.698,0.397,0.963,0.682s0.469,0.614,0.611,0.991s0.217,0.768,0.217,1.172
				c0,0.085-0.002,0.163-0.007,0.232c-0.004,0.07-0.01,0.124-0.018,0.163h-5.05c0.023,0.305,0.095,0.579,0.211,0.827
				c0.117,0.25,0.269,0.463,0.455,0.644c0.187,0.178,0.397,0.317,0.636,0.419c0.235,0.101,0.487,0.15,0.752,0.15
				c0.187,0,0.369-0.024,0.548-0.074c0.18-0.052,0.346-0.118,0.501-0.204s0.294-0.19,0.414-0.314c0.12-0.125,0.212-0.265,0.274-0.42
				l0.886,0.244c-0.101,0.227-0.239,0.432-0.414,0.618c-0.175,0.186-0.377,0.349-0.606,0.482c-0.229,0.138-0.482,0.244-0.764,0.321
				C230.555,102.212,230.264,102.251,229.96,102.251z M232.047,98.684c-0.023-0.288-0.096-0.554-0.216-0.799
				s-0.272-0.452-0.454-0.624c-0.184-0.171-0.396-0.305-0.636-0.402c-0.241-0.097-0.498-0.146-0.771-0.146
				c-0.271,0-0.529,0.049-0.77,0.146c-0.241,0.099-0.453,0.233-0.637,0.408c-0.183,0.175-0.33,0.383-0.442,0.624
				s-0.181,0.505-0.204,0.793H232.047L232.047,98.684z"/>
			<path fill="#FBC15E" d="M187.25,116.135l-2.402-6.087h1.062l1.924,5.188l1.936-5.188h0.979l-2.401,6.087H187.25z"/>
			<path fill="#FBC15E" d="M193.174,116.251c-0.287,0-0.557-0.049-0.805-0.146c-0.249-0.097-0.465-0.23-0.646-0.401
				c-0.183-0.171-0.326-0.371-0.433-0.602c-0.104-0.229-0.157-0.479-0.157-0.752c0-0.279,0.062-0.534,0.188-0.764
				c0.123-0.229,0.302-0.426,0.529-0.589c0.229-0.163,0.502-0.292,0.816-0.386c0.314-0.093,0.659-0.14,1.031-0.14
				c0.296,0,0.596,0.027,0.898,0.082s0.57,0.128,0.805,0.221v-0.488c0-0.497-0.141-0.889-0.42-1.172
				c-0.279-0.284-0.676-0.427-1.189-0.427c-0.613,0-1.259,0.237-1.936,0.712l-0.338-0.665c0.784-0.527,1.573-0.793,2.366-0.793
				c0.802,0,1.425,0.215,1.871,0.643c0.447,0.428,0.671,1.028,0.671,1.807v2.484c0,0.24,0.108,0.365,0.326,0.373v0.886
				c-0.107,0.016-0.197,0.027-0.268,0.035c-0.07,0.007-0.146,0.012-0.223,0.012c-0.201,0-0.363-0.061-0.484-0.181
				c-0.119-0.121-0.191-0.268-0.215-0.438l-0.023-0.432c-0.271,0.365-0.615,0.644-1.031,0.834
				C194.092,116.154,193.646,116.251,193.174,116.251z M193.441,115.481c0.365,0,0.705-0.066,1.021-0.203
				c0.313-0.137,0.554-0.316,0.718-0.543c0.146-0.146,0.221-0.299,0.221-0.454v-0.897c-0.496-0.194-1.015-0.292-1.551-0.292
				c-0.513,0-0.931,0.109-1.252,0.327c-0.324,0.218-0.484,0.501-0.484,0.851c0,0.172,0.033,0.331,0.1,0.479
				c0.064,0.147,0.159,0.275,0.279,0.385c0.121,0.109,0.263,0.194,0.426,0.257C193.08,115.45,193.255,115.481,193.441,115.481z"/>
			<path fill="#FBC15E" d="M201.288,110.946c-0.513,0.017-0.966,0.147-1.358,0.396c-0.393,0.248-0.67,0.594-0.834,1.037v3.755
				h-1.025v-6.087h0.957v1.411c0.209-0.419,0.484-0.76,0.828-1.021c0.342-0.26,0.707-0.405,1.096-0.438c0.076,0,0.145,0,0.197,0
				c0.055,0,0.102,0.004,0.141,0.012L201.288,110.946L201.288,110.946z"/>
			<path fill="#FBC15E" d="M202.303,108.906v-1.282h1.025v1.282H202.303z M202.303,116.135v-6.087h1.025v6.087H202.303z"/>
			<path fill="#FBC15E" d="M206.547,116.251c-0.288,0-0.557-0.049-0.805-0.146c-0.249-0.097-0.465-0.23-0.646-0.401
				c-0.183-0.171-0.326-0.371-0.433-0.602c-0.104-0.229-0.157-0.479-0.157-0.752c0-0.279,0.062-0.534,0.188-0.764
				c0.123-0.229,0.302-0.426,0.529-0.589c0.229-0.163,0.502-0.292,0.816-0.386c0.314-0.093,0.658-0.14,1.031-0.14
				c0.296,0,0.596,0.027,0.897,0.082c0.304,0.055,0.571,0.128,0.806,0.221v-0.488c0-0.497-0.141-0.889-0.42-1.172
				c-0.279-0.284-0.677-0.427-1.189-0.427c-0.613,0-1.26,0.237-1.936,0.712l-0.338-0.665c0.784-0.527,1.573-0.793,2.366-0.793
				c0.802,0,1.425,0.215,1.871,0.643c0.447,0.428,0.671,1.028,0.671,1.807v2.484c0,0.24,0.108,0.365,0.326,0.373v0.886
				c-0.107,0.016-0.198,0.027-0.268,0.035c-0.07,0.007-0.146,0.012-0.223,0.012c-0.201,0-0.363-0.061-0.484-0.181
				c-0.119-0.121-0.191-0.268-0.215-0.438l-0.023-0.432c-0.271,0.365-0.615,0.644-1.031,0.834
				C207.465,116.154,207.021,116.251,206.547,116.251z M206.814,115.481c0.365,0,0.705-0.066,1.021-0.203
				c0.313-0.137,0.554-0.316,0.717-0.543c0.147-0.146,0.222-0.299,0.222-0.454v-0.897c-0.496-0.194-1.015-0.292-1.551-0.292
				c-0.513,0-0.931,0.109-1.252,0.327c-0.324,0.218-0.484,0.501-0.484,0.851c0,0.172,0.033,0.331,0.1,0.479
				c0.064,0.147,0.159,0.275,0.279,0.385c0.121,0.109,0.263,0.194,0.426,0.257C206.453,115.45,206.628,115.481,206.814,115.481z"/>
			<path fill="#FBC15E" d="M214.568,116.251c-0.475,0-0.905-0.116-1.295-0.351c-0.389-0.231-0.694-0.535-0.92-0.908v1.143h-0.91
				v-8.512h1.025v3.638c0.258-0.396,0.571-0.715,0.945-0.956c0.373-0.241,0.809-0.361,1.307-0.361c0.42,0,0.797,0.09,1.131,0.27
				c0.334,0.179,0.619,0.414,0.856,0.705c0.235,0.291,0.419,0.629,0.548,1.014c0.128,0.385,0.192,0.78,0.192,1.185
				c0,0.428-0.074,0.832-0.222,1.213c-0.148,0.381-0.351,0.713-0.606,0.997c-0.257,0.283-0.562,0.509-0.915,0.677
				C215.352,116.168,214.973,116.251,214.568,116.251z M214.312,115.365c0.303,0,0.582-0.062,0.84-0.188
				c0.256-0.125,0.478-0.291,0.664-0.502c0.187-0.209,0.33-0.448,0.432-0.717s0.15-0.55,0.15-0.847c0-0.295-0.049-0.579-0.146-0.855
				c-0.099-0.276-0.233-0.52-0.407-0.729c-0.176-0.21-0.386-0.38-0.631-0.507c-0.244-0.129-0.515-0.192-0.811-0.192
				c-0.217,0-0.424,0.039-0.617,0.116c-0.194,0.078-0.375,0.182-0.543,0.31c-0.167,0.129-0.314,0.278-0.442,0.449
				c-0.129,0.171-0.239,0.354-0.333,0.548v1.761c0.039,0.194,0.123,0.373,0.252,0.536c0.127,0.163,0.279,0.306,0.454,0.426
				s0.361,0.216,0.56,0.286C213.934,115.33,214.126,115.365,214.312,115.365z"/>
			<path fill="#FBC15E" d="M218.73,107.623h1.025v6.938c0,0.227,0.061,0.402,0.182,0.53c0.121,0.129,0.289,0.193,0.508,0.193
				c0.084,0,0.187-0.015,0.303-0.041c0.117-0.027,0.227-0.062,0.327-0.101l0.163,0.828c-0.172,0.07-0.373,0.128-0.606,0.175
				c-0.233,0.046-0.438,0.069-0.618,0.069c-0.396,0-0.709-0.111-0.938-0.338c-0.229-0.226-0.344-0.54-0.344-0.944v-7.31H218.73z"/>
			<path fill="#FBC15E" d="M224.736,116.251c-0.459,0-0.879-0.083-1.26-0.25c-0.381-0.168-0.707-0.396-0.979-0.684
				c-0.271-0.286-0.483-0.624-0.636-1.009c-0.151-0.385-0.228-0.791-0.228-1.219c0-0.427,0.075-0.831,0.228-1.212
				s0.365-0.716,0.642-1.003s0.604-0.516,0.985-0.683c0.381-0.168,0.801-0.251,1.26-0.251c0.458,0,0.876,0.085,1.253,0.258
				c0.377,0.171,0.698,0.397,0.962,0.682c0.266,0.284,0.469,0.614,0.612,0.991c0.143,0.377,0.216,0.768,0.216,1.172
				c0,0.085-0.002,0.163-0.006,0.232c-0.004,0.07-0.01,0.124-0.018,0.163h-5.05c0.023,0.305,0.095,0.579,0.21,0.827
				c0.117,0.25,0.27,0.463,0.455,0.644c0.188,0.178,0.398,0.317,0.637,0.419c0.235,0.101,0.486,0.15,0.752,0.15
				c0.187,0,0.369-0.024,0.547-0.074c0.18-0.052,0.347-0.118,0.502-0.204c0.154-0.086,0.294-0.19,0.414-0.314
				c0.119-0.125,0.212-0.265,0.273-0.42l0.887,0.244c-0.102,0.227-0.239,0.432-0.414,0.618c-0.176,0.186-0.377,0.349-0.606,0.482
				c-0.229,0.138-0.483,0.244-0.765,0.321C225.331,116.212,225.039,116.251,224.736,116.251z M226.823,112.684
				c-0.023-0.288-0.097-0.554-0.216-0.799c-0.121-0.245-0.272-0.452-0.455-0.624c-0.184-0.171-0.396-0.305-0.635-0.402
				c-0.242-0.097-0.498-0.146-0.771-0.146s-0.529,0.049-0.771,0.146c-0.24,0.099-0.453,0.233-0.636,0.408s-0.33,0.383-0.442,0.624
				s-0.182,0.505-0.205,0.793H226.823L226.823,112.684z"/>
		</g>
		<path fill="none" stroke="#FBC15E" stroke-width="2" d="M247.884,105.462c0,10.6-8.593,19.191-19.192,19.191h-44.614
			c-10.601,0-19.192-8.593-19.192-19.191l0,0c0-10.601,8.594-19.193,19.192-19.193h44.614
			C239.291,86.269,247.884,94.862,247.884,105.462L247.884,105.462z"/>
	</g>
	<line fill="none" stroke="#000000" stroke-width="2" stroke-linecap="round" x1="70.714" y1="55.795" x2="93.366" y2="70.305"/>
	<line fill="none" stroke="#000000" stroke-width="2" stroke-linecap="round" x1="68.639" y1="61.896" x2="95.441" y2="64.203"/>
	<g>
		<path d="M3.797,37.246v-8.279h3.544c0.365,0,0.702,0.076,1.009,0.228c0.307,0.152,0.571,0.354,0.793,0.606
			c0.221,0.252,0.395,0.536,0.519,0.851c0.124,0.315,0.187,0.636,0.187,0.963c0,0.287-0.041,0.564-0.122,0.834
			c-0.082,0.268-0.198,0.511-0.351,0.729c-0.15,0.218-0.333,0.404-0.547,0.56c-0.214,0.156-0.453,0.269-0.717,0.339l2.005,3.171
			H8.928l-1.889-2.974H4.847v2.974H3.797L3.797,37.246z M4.847,33.34h2.507c0.218,0,0.414-0.046,0.589-0.14
			c0.175-0.095,0.325-0.221,0.449-0.38c0.125-0.158,0.222-0.344,0.292-0.554c0.07-0.209,0.105-0.427,0.105-0.652
			c0-0.233-0.041-0.453-0.122-0.659c-0.082-0.206-0.191-0.39-0.327-0.548c-0.136-0.16-0.295-0.284-0.478-0.374
			C7.678,29.945,7.486,29.9,7.284,29.9H4.847V33.34z"/>
		<path d="M13.977,28.967h0.886l3.382,8.279h-1.119l-0.979-2.426h-3.475l-0.968,2.426h-1.12L13.977,28.967z M15.912,34.004
			L14.42,30.18l-1.539,3.824H15.912z"/>
		<path d="M20.4,30.926v6.32h-1.049v-8.279h0.816l5.13,6.448v-6.438h1.05v8.268H25.46L20.4,30.926z"/>
		<path d="M28.33,37.246v-8.279h2.868c0.661,0,1.242,0.109,1.743,0.327c0.502,0.218,0.919,0.513,1.254,0.886
			c0.334,0.373,0.584,0.812,0.752,1.312c0.167,0.501,0.25,1.035,0.25,1.604c0,0.629-0.093,1.199-0.279,1.708
			c-0.187,0.509-0.455,0.944-0.805,1.306c-0.35,0.361-0.771,0.642-1.265,0.84c-0.494,0.197-1.044,0.297-1.65,0.297H28.33z
			 M34.137,33.095c0-0.466-0.064-0.896-0.192-1.289c-0.128-0.393-0.319-0.729-0.571-1.008c-0.253-0.28-0.562-0.5-0.927-0.659
			C32.08,29.98,31.665,29.9,31.198,29.9h-1.819v6.413h1.819c0.475,0,0.896-0.082,1.266-0.245c0.369-0.162,0.676-0.389,0.921-0.676
			c0.245-0.287,0.432-0.627,0.56-1.02C34.073,33.979,34.137,33.554,34.137,33.095z"/>
		<path d="M40.036,37.304c-0.583,0-1.114-0.118-1.592-0.354c-0.479-0.237-0.889-0.553-1.23-0.944
			c-0.341-0.393-0.606-0.841-0.793-1.347c-0.187-0.507-0.279-1.022-0.279-1.552c0-0.552,0.099-1.081,0.297-1.586
			c0.198-0.505,0.473-0.952,0.822-1.341c0.349-0.389,0.764-0.698,1.241-0.927c0.479-0.229,0.997-0.344,1.557-0.344
			c0.583,0,1.112,0.123,1.586,0.366c0.475,0.245,0.883,0.565,1.225,0.962c0.342,0.397,0.606,0.847,0.793,1.348
			s0.279,1.013,0.279,1.534c0,0.552-0.099,1.081-0.297,1.585c-0.198,0.505-0.471,0.949-0.816,1.335
			c-0.345,0.385-0.758,0.691-1.235,0.921C41.114,37.19,40.596,37.304,40.036,37.304z M37.202,33.107
			c0,0.419,0.068,0.826,0.204,1.219c0.136,0.392,0.328,0.739,0.577,1.043c0.249,0.303,0.548,0.544,0.898,0.723
			c0.35,0.179,0.738,0.268,1.166,0.268c0.442,0,0.839-0.095,1.188-0.285c0.351-0.19,0.647-0.439,0.893-0.746
			c0.244-0.308,0.432-0.655,0.56-1.043c0.128-0.389,0.192-0.781,0.192-1.179c0-0.42-0.068-0.825-0.204-1.219
			c-0.136-0.392-0.33-0.738-0.583-1.038c-0.253-0.3-0.552-0.538-0.897-0.717c-0.347-0.179-0.729-0.268-1.148-0.268
			c-0.443,0-0.84,0.093-1.189,0.279c-0.351,0.188-0.647,0.433-0.893,0.735c-0.244,0.303-0.434,0.648-0.565,1.038
			C37.27,32.306,37.202,32.703,37.202,33.107z"/>
		<path d="M52.559,37.246v-6.401l-2.752,4.909h-0.595l-2.764-4.909v6.401h-1.049v-8.279h1.107l2.997,5.375l3.008-5.375h1.097v8.279
			H52.559z"/>
		<path d="M55.591,37.246v-8.279h1.049v8.279H55.591z"/>
		<path d="M58.004,36.43l5.341-6.529H58.11v-0.933h6.459v0.816l-5.247,6.529h5.247v0.934h-6.564L58.004,36.43L58.004,36.43z"/>
		<path d="M71.6,36.313v0.934h-5.62v-8.279h5.515V29.9h-4.466v2.683h3.883v0.875h-3.883v2.856L71.6,36.313L71.6,36.313z"/>
		<path d="M73.033,37.246v-8.279h2.868c0.661,0,1.242,0.109,1.743,0.327c0.502,0.218,0.919,0.513,1.254,0.886
			c0.334,0.373,0.584,0.812,0.752,1.312c0.167,0.501,0.25,1.035,0.25,1.604c0,0.629-0.093,1.199-0.279,1.708
			c-0.187,0.509-0.455,0.944-0.805,1.306s-0.771,0.642-1.265,0.84c-0.494,0.197-1.044,0.297-1.65,0.297H73.033z M78.84,33.095
			c0-0.466-0.064-0.896-0.192-1.289c-0.128-0.393-0.319-0.729-0.571-1.008c-0.253-0.28-0.562-0.5-0.927-0.659
			c-0.366-0.159-0.781-0.239-1.248-0.239h-1.819v6.413h1.819c0.475,0,0.896-0.082,1.266-0.245c0.369-0.162,0.676-0.389,0.921-0.676
			s0.432-0.627,0.56-1.02C78.777,33.979,78.84,33.554,78.84,33.095z"/>
		<path d="M11.948,50.313v0.934h-5.62v-8.279h5.515V43.9H7.377v2.683h3.882v0.875H7.377v2.856L11.948,50.313L11.948,50.313z"/>
		<path d="M13.592,42.967l2.519,3.452l2.519-3.452h1.154l-3.113,4.198l3.02,4.081h-1.154l-2.425-3.335l-2.426,3.335H12.52
			l3.021-4.081l-3.113-4.198H13.592z"/>
		<path d="M20.81,51.246v-8.279h3.451c0.365,0,0.701,0.076,1.009,0.228c0.307,0.152,0.571,0.354,0.793,0.606
			s0.395,0.536,0.519,0.851c0.124,0.315,0.187,0.636,0.187,0.963c0,0.342-0.059,0.672-0.175,0.99
			c-0.116,0.319-0.282,0.604-0.495,0.852c-0.214,0.249-0.471,0.446-0.77,0.595c-0.3,0.148-0.632,0.222-0.997,0.222h-2.473v2.974
			H20.81L20.81,51.246z M21.858,47.34h2.414c0.218,0,0.414-0.044,0.589-0.134c0.175-0.09,0.324-0.214,0.449-0.373
			c0.124-0.16,0.222-0.344,0.291-0.555c0.07-0.21,0.105-0.431,0.105-0.664c0-0.241-0.041-0.467-0.123-0.677
			c-0.081-0.21-0.19-0.393-0.326-0.548c-0.136-0.156-0.296-0.275-0.479-0.362c-0.183-0.085-0.375-0.128-0.577-0.128h-2.344
			L21.858,47.34L21.858,47.34z"/>
		<path d="M33.693,50.313v0.934h-5.62v-8.279h5.515V43.9h-4.466v2.683h3.883v0.875h-3.883v2.856L33.693,50.313L33.693,50.313z"/>
		<path d="M35.128,51.246v-8.279h3.545c0.365,0,0.701,0.076,1.008,0.228c0.308,0.152,0.571,0.354,0.793,0.606
			c0.222,0.252,0.395,0.536,0.52,0.851c0.124,0.315,0.187,0.636,0.187,0.963c0,0.287-0.041,0.564-0.123,0.834
			c-0.081,0.268-0.198,0.511-0.35,0.729s-0.334,0.404-0.548,0.56c-0.214,0.156-0.453,0.269-0.717,0.339l2.005,3.171h-1.189
			l-1.889-2.974h-2.192v2.974H35.128L35.128,51.246z M36.177,47.34h2.508c0.217,0,0.413-0.046,0.588-0.14
			c0.176-0.094,0.325-0.221,0.449-0.38c0.124-0.158,0.222-0.344,0.292-0.554c0.069-0.209,0.104-0.427,0.104-0.652
			c0-0.233-0.041-0.453-0.122-0.659c-0.082-0.206-0.19-0.39-0.327-0.548c-0.136-0.16-0.295-0.284-0.478-0.374
			s-0.375-0.135-0.577-0.135h-2.438L36.177,47.34L36.177,47.34z"/>
		<path d="M42.788,51.246v-8.279h1.049v8.279H42.788z"/>
		<path d="M52.979,51.246v-6.401l-2.752,4.909h-0.595l-2.764-4.909v6.401h-1.049v-8.279h1.107l2.997,5.375l3.008-5.375h1.097v8.279
			H52.979z"/>
		<path d="M61.631,50.313v0.934h-5.62v-8.279h5.515V43.9H57.06v2.683h3.883v0.875H57.06v2.856L61.631,50.313L61.631,50.313z"/>
		<path d="M64.113,44.926v6.32h-1.049v-8.279h0.816l5.13,6.448v-6.438h1.05v8.268h-0.887L64.113,44.926z"/>
		<path d="M78.013,43.9h-2.856v7.347h-1.05V43.9H71.25v-0.933h6.763V43.9z"/>
	</g>
</g>
<g id="layer2">
</g>
</svg>
