<?xml version="1.0" encoding="utf-8" standalone="no"?>
<!DOCTYPE svg PUBLIC "-//W3C//DTD SVG 1.1//EN"
  "http://www.w3.org/Graphics/SVG/1.1/DTD/svg11.dtd">
<!-- Created with matplotlib (http://matplotlib.org/) -->
<svg height="288pt" version="1.1" viewBox="0 0 432 288" width="432pt" xmlns="http://www.w3.org/2000/svg" xmlns:xlink="http://www.w3.org/1999/xlink">
 <defs>
  <style type="text/css">
*{stroke-linecap:butt;stroke-linejoin:round;}
  </style>
 </defs>
 <g id="figure_1">
  <g id="patch_1">
   <path d="M 0 288 
L 432 288 
L 432 0 
L 0 0 
z
" style="fill:none;"/>
  </g>
  <g id="axes_1">
   <g id="patch_2">
    <path d="M 4.32 244.8 
L 427.68 244.8 
L 427.68 43.2 
L 4.32 43.2 
z
" style="fill:none;"/>
   </g>
   <g id="patch_3">
    <path clip-path="url(#p4eb3bd56d0)" d="M 168.623315 244.8 
L 171.511004 244.8 
L 171.511004 243.700763 
L 168.623315 243.700763 
z
" style="fill:#fb4c52;"/>
   </g>
   <g id="patch_4">
    <path clip-path="url(#p4eb3bd56d0)" d="M 171.511004 244.8 
L 174.398693 244.8 
L 174.398693 242.601527 
L 171.511004 242.601527 
z
" style="fill:#fb4c52;"/>
   </g>
   <g id="patch_5">
    <path clip-path="url(#p4eb3bd56d0)" d="M 174.398693 244.8 
L 177.286382 244.8 
L 177.286382 244.067176 
L 174.398693 244.067176 
z
" style="fill:#fb4c52;"/>
   </g>
   <g id="patch_6">
    <path clip-path="url(#p4eb3bd56d0)" d="M 177.286382 244.8 
L 180.174071 244.8 
L 180.174071 242.601527 
L 177.286382 242.601527 
z
" style="fill:#fb4c52;"/>
   </g>
   <g id="patch_7">
    <path clip-path="url(#p4eb3bd56d0)" d="M 180.174071 244.8 
L 183.06176 244.8 
L 183.06176 242.235115 
L 180.174071 242.235115 
z
" style="fill:#fb4c52;"/>
   </g>
   <g id="patch_8">
    <path clip-path="url(#p4eb3bd56d0)" d="M 183.06176 244.8 
L 185.94945 244.8 
L 185.94945 240.403053 
L 183.06176 240.403053 
z
" style="fill:#fb4c52;"/>
   </g>
   <g id="patch_9">
    <path clip-path="url(#p4eb3bd56d0)" d="M 185.94945 244.8 
L 188.837139 244.8 
L 188.837139 239.670229 
L 185.94945 239.670229 
z
" style="fill:#fb4c52;"/>
   </g>
   <g id="patch_10">
    <path clip-path="url(#p4eb3bd56d0)" d="M 188.837139 244.8 
L 191.724828 244.8 
L 191.724828 236.006107 
L 188.837139 236.006107 
z
" style="fill:#fb4c52;"/>
   </g>
   <g id="patch_11">
    <path clip-path="url(#p4eb3bd56d0)" d="M 191.724828 244.8 
L 194.612517 244.8 
L 194.612517 234.174046 
L 191.724828 234.174046 
z
" style="fill:#fb4c52;"/>
   </g>
   <g id="patch_12">
    <path clip-path="url(#p4eb3bd56d0)" d="M 194.612517 244.8 
L 197.500206 244.8 
L 197.500206 229.044275 
L 194.612517 229.044275 
z
" style="fill:#fb4c52;"/>
   </g>
   <g id="patch_13">
    <path clip-path="url(#p4eb3bd56d0)" d="M 197.500206 244.8 
L 200.387895 244.8 
L 200.387895 227.212214 
L 197.500206 227.212214 
z
" style="fill:#fb4c52;"/>
   </g>
   <g id="patch_14">
    <path clip-path="url(#p4eb3bd56d0)" d="M 200.387895 244.8 
L 203.275584 244.8 
L 203.275584 222.815267 
L 200.387895 222.815267 
z
" style="fill:#fb4c52;"/>
   </g>
   <g id="patch_15">
    <path clip-path="url(#p4eb3bd56d0)" d="M 203.275584 244.8 
L 206.163273 244.8 
L 206.163273 212.922137 
L 203.275584 212.922137 
z
" style="fill:#fb4c52;"/>
   </g>
   <g id="patch_16">
    <path clip-path="url(#p4eb3bd56d0)" d="M 206.163273 244.8 
L 209.050962 244.8 
L 209.050962 210.357252 
L 206.163273 210.357252 
z
" style="fill:#fb4c52;"/>
   </g>
   <g id="patch_17">
    <path clip-path="url(#p4eb3bd56d0)" d="M 209.050962 244.8 
L 211.938651 244.8 
L 211.938651 202.662595 
L 209.050962 202.662595 
z
" style="fill:#fb4c52;"/>
   </g>
   <g id="patch_18">
    <path clip-path="url(#p4eb3bd56d0)" d="M 211.938651 244.8 
L 214.82634 244.8 
L 214.82634 199.731298 
L 211.938651 199.731298 
z
" style="fill:#fb4c52;"/>
   </g>
   <g id="patch_19">
    <path clip-path="url(#p4eb3bd56d0)" d="M 214.82634 244.8 
L 217.714029 244.8 
L 217.714029 185.441221 
L 214.82634 185.441221 
z
" style="fill:#fb4c52;"/>
   </g>
   <g id="patch_20">
    <path clip-path="url(#p4eb3bd56d0)" d="M 217.714029 244.8 
L 220.601718 244.8 
L 220.601718 174.448855 
L 217.714029 174.448855 
z
" style="fill:#fb4c52;"/>
   </g>
   <g id="patch_21">
    <path clip-path="url(#p4eb3bd56d0)" d="M 220.601718 244.8 
L 223.489408 244.8 
L 223.489408 152.830534 
L 220.601718 152.830534 
z
" style="fill:#fb4c52;"/>
   </g>
   <g id="patch_22">
    <path clip-path="url(#p4eb3bd56d0)" d="M 223.489408 244.8 
L 226.377097 244.8 
L 226.377097 147.334351 
L 223.489408 147.334351 
z
" style="fill:#fb4c52;"/>
   </g>
   <g id="patch_23">
    <path clip-path="url(#p4eb3bd56d0)" d="M 226.377097 244.8 
L 229.264786 244.8 
L 229.264786 118.021374 
L 226.377097 118.021374 
z
" style="fill:#fb4c52;"/>
   </g>
   <g id="patch_24">
    <path clip-path="url(#p4eb3bd56d0)" d="M 229.264786 244.8 
L 232.152475 244.8 
L 232.152475 111.059542 
L 229.264786 111.059542 
z
" style="fill:#fb4c52;"/>
   </g>
   <g id="patch_25">
    <path clip-path="url(#p4eb3bd56d0)" d="M 232.152475 244.8 
L 235.040164 244.8 
L 235.040164 86.876336 
L 232.152475 86.876336 
z
" style="fill:#fb4c52;"/>
   </g>
   <g id="patch_26">
    <path clip-path="url(#p4eb3bd56d0)" d="M 235.040164 244.8 
L 237.927853 244.8 
L 237.927853 98.601527 
L 235.040164 98.601527 
z
" style="fill:#fb4c52;"/>
   </g>
   <g id="patch_27">
    <path clip-path="url(#p4eb3bd56d0)" d="M 237.927853 244.8 
L 240.815542 244.8 
L 240.815542 95.670229 
L 237.927853 95.670229 
z
" style="fill:#fb4c52;"/>
   </g>
   <g id="patch_28">
    <path clip-path="url(#p4eb3bd56d0)" d="M 240.815542 244.8 
L 243.703231 244.8 
L 243.703231 85.044275 
L 240.815542 85.044275 
z
" style="fill:#fb4c52;"/>
   </g>
   <g id="patch_29">
    <path clip-path="url(#p4eb3bd56d0)" d="M 243.703231 244.8 
L 246.59092 244.8 
L 246.59092 72.58626 
L 243.703231 72.58626 
z
" style="fill:#fb4c52;"/>
   </g>
   <g id="patch_30">
    <path clip-path="url(#p4eb3bd56d0)" d="M 246.59092 244.8 
L 249.478609 244.8 
L 249.478609 65.624427 
L 246.59092 65.624427 
z
" style="fill:#fb4c52;"/>
   </g>
   <g id="patch_31">
    <path clip-path="url(#p4eb3bd56d0)" d="M 249.478609 244.8 
L 252.366298 244.8 
L 252.366298 71.853435 
L 249.478609 71.853435 
z
" style="fill:#fb4c52;"/>
   </g>
   <g id="patch_32">
    <path clip-path="url(#p4eb3bd56d0)" d="M 252.366298 244.8 
L 255.253987 244.8 
L 255.253987 71.853435 
L 252.366298 71.853435 
z
" style="fill:#fb4c52;"/>
   </g>
   <g id="patch_33">
    <path clip-path="url(#p4eb3bd56d0)" d="M 255.253987 244.8 
L 258.141677 244.8 
L 258.141677 52.8 
L 255.253987 52.8 
z
" style="fill:#fb4c52;"/>
   </g>
   <g id="patch_34">
    <path clip-path="url(#p4eb3bd56d0)" d="M 258.141677 244.8 
L 261.029366 244.8 
L 261.029366 72.952672 
L 258.141677 72.952672 
z
" style="fill:#fb4c52;"/>
   </g>
   <g id="patch_35">
    <path clip-path="url(#p4eb3bd56d0)" d="M 261.029366 244.8 
L 263.917055 244.8 
L 263.917055 83.945038 
L 261.029366 83.945038 
z
" style="fill:#fb4c52;"/>
   </g>
   <g id="patch_36">
    <path clip-path="url(#p4eb3bd56d0)" d="M 263.917055 244.8 
L 266.804744 244.8 
L 266.804744 92.372519 
L 263.917055 92.372519 
z
" style="fill:#fb4c52;"/>
   </g>
   <g id="patch_37">
    <path clip-path="url(#p4eb3bd56d0)" d="M 266.804744 244.8 
L 269.692433 244.8 
L 269.692433 100.067176 
L 266.804744 100.067176 
z
" style="fill:#fb4c52;"/>
   </g>
   <g id="patch_38">
    <path clip-path="url(#p4eb3bd56d0)" d="M 269.692433 244.8 
L 272.580122 244.8 
L 272.580122 120.952672 
L 269.692433 120.952672 
z
" style="fill:#fb4c52;"/>
   </g>
   <g id="patch_39">
    <path clip-path="url(#p4eb3bd56d0)" d="M 272.580122 244.8 
L 275.467811 244.8 
L 275.467811 134.876336 
L 272.580122 134.876336 
z
" style="fill:#fb4c52;"/>
   </g>
   <g id="patch_40">
    <path clip-path="url(#p4eb3bd56d0)" d="M 275.467811 244.8 
L 278.3555 244.8 
L 278.3555 140.372519 
L 275.467811 140.372519 
z
" style="fill:#fb4c52;"/>
   </g>
   <g id="patch_41">
    <path clip-path="url(#p4eb3bd56d0)" d="M 278.3555 244.8 
L 281.243189 244.8 
L 281.243189 164.189313 
L 278.3555 164.189313 
z
" style="fill:#fb4c52;"/>
   </g>
   <g id="patch_42">
    <path clip-path="url(#p4eb3bd56d0)" d="M 281.243189 244.8 
L 284.130878 244.8 
L 284.130878 176.647328 
L 281.243189 176.647328 
z
" style="fill:#fb4c52;"/>
   </g>
   <g id="patch_43">
    <path clip-path="url(#p4eb3bd56d0)" d="M 284.130878 244.8 
L 287.018567 244.8 
L 287.018567 188.738931 
L 284.130878 188.738931 
z
" style="fill:#fb4c52;"/>
   </g>
   <g id="patch_44">
    <path clip-path="url(#p4eb3bd56d0)" d="M 287.018567 244.8 
L 289.906256 244.8 
L 289.906256 194.601527 
L 287.018567 194.601527 
z
" style="fill:#fb4c52;"/>
   </g>
   <g id="patch_45">
    <path clip-path="url(#p4eb3bd56d0)" d="M 289.906256 244.8 
L 292.793945 244.8 
L 292.793945 216.58626 
L 289.906256 216.58626 
z
" style="fill:#fb4c52;"/>
   </g>
   <g id="patch_46">
    <path clip-path="url(#p4eb3bd56d0)" d="M 292.793945 244.8 
L 295.681635 244.8 
L 295.681635 220.250382 
L 292.793945 220.250382 
z
" style="fill:#fb4c52;"/>
   </g>
   <g id="patch_47">
    <path clip-path="url(#p4eb3bd56d0)" d="M 295.681635 244.8 
L 298.569324 244.8 
L 298.569324 226.112977 
L 295.681635 226.112977 
z
" style="fill:#fb4c52;"/>
   </g>
   <g id="patch_48">
    <path clip-path="url(#p4eb3bd56d0)" d="M 298.569324 244.8 
L 301.457013 244.8 
L 301.457013 235.273282 
L 298.569324 235.273282 
z
" style="fill:#fb4c52;"/>
   </g>
   <g id="patch_49">
    <path clip-path="url(#p4eb3bd56d0)" d="M 301.457013 244.8 
L 304.344702 244.8 
L 304.344702 233.074809 
L 301.457013 233.074809 
z
" style="fill:#fb4c52;"/>
   </g>
   <g id="patch_50">
    <path clip-path="url(#p4eb3bd56d0)" d="M 304.344702 244.8 
L 307.232391 244.8 
L 307.232391 235.639695 
L 304.344702 235.639695 
z
" style="fill:#fb4c52;"/>
   </g>
   <g id="patch_51">
    <path clip-path="url(#p4eb3bd56d0)" d="M 307.232391 244.8 
L 310.12008 244.8 
L 310.12008 241.50229 
L 307.232391 241.50229 
z
" style="fill:#fb4c52;"/>
   </g>
   <g id="patch_52">
    <path clip-path="url(#p4eb3bd56d0)" d="M 310.12008 244.8 
L 313.007769 244.8 
L 313.007769 240.403053 
L 310.12008 240.403053 
z
" style="fill:#fb4c52;"/>
   </g>
   <g id="patch_53">
    <path clip-path="url(#p4eb3bd56d0)" d="M 313.007769 244.8 
L 315.895458 244.8 
L 315.895458 244.8 
L 313.007769 244.8 
z
" style="fill:#fb4c52;"/>
   </g>
   <g id="patch_54">
    <path clip-path="url(#p4eb3bd56d0)" d="M 315.895458 244.8 
L 318.783147 244.8 
L 318.783147 243.700763 
L 315.895458 243.700763 
z
" style="fill:#fb4c52;"/>
   </g>
   <g id="patch_55">
    <path clip-path="url(#p4eb3bd56d0)" d="M 318.783147 244.8 
L 321.670836 244.8 
L 321.670836 244.067176 
L 318.783147 244.067176 
z
" style="fill:#fb4c52;"/>
   </g>
   <g id="patch_56">
    <path clip-path="url(#p4eb3bd56d0)" d="M 321.670836 244.8 
L 324.558525 244.8 
L 324.558525 243.700763 
L 321.670836 243.700763 
z
" style="fill:#fb4c52;"/>
   </g>
   <g id="matplotlib.axis_1">
    <g id="xtick_1">
     <g id="line2d_1">
      <defs>
       <path d="M 0 0 
L 0 4 
" id="md13c130270" style="stroke:#222222;"/>
      </defs>
      <g>
       <use style="fill:#222222;stroke:#222222;" x="44.259623" xlink:href="#md13c130270" y="244.8"/>
      </g>
     </g>
     <g id="text_1">
      <!-- 70 -->
      <defs>
       <path d="M 8.203125 72.90625 
L 55.078125 72.90625 
L 55.078125 68.703125 
L 28.609375 0 
L 18.3125 0 
L 43.21875 64.59375 
L 8.203125 64.59375 
z
" id="DejaVuSans-37"/>
       <path d="M 31.78125 66.40625 
Q 24.171875 66.40625 20.328125 58.90625 
Q 16.5 51.421875 16.5 36.375 
Q 16.5 21.390625 20.328125 13.890625 
Q 24.171875 6.390625 31.78125 6.390625 
Q 39.453125 6.390625 43.28125 13.890625 
Q 47.125 21.390625 47.125 36.375 
Q 47.125 51.421875 43.28125 58.90625 
Q 39.453125 66.40625 31.78125 66.40625 
z
M 31.78125 74.21875 
Q 44.046875 74.21875 50.515625 64.515625 
Q 56.984375 54.828125 56.984375 36.375 
Q 56.984375 17.96875 50.515625 8.265625 
Q 44.046875 -1.421875 31.78125 -1.421875 
Q 19.53125 -1.421875 13.0625 8.265625 
Q 6.59375 17.96875 6.59375 36.375 
Q 6.59375 54.828125 13.0625 64.515625 
Q 19.53125 74.21875 31.78125 74.21875 
z
" id="DejaVuSans-30"/>
      </defs>
      <g style="fill:#222222;" transform="translate(36.624623 261.918125)scale(0.12 -0.12)">
       <use xlink:href="#DejaVuSans-37"/>
       <use x="63.623047" xlink:href="#DejaVuSans-30"/>
      </g>
     </g>
    </g>
    <g id="xtick_2">
     <g id="line2d_2">
      <g>
       <use style="fill:#222222;stroke:#222222;" x="124.138868" xlink:href="#md13c130270" y="244.8"/>
      </g>
     </g>
     <g id="text_2">
      <!-- 80 -->
      <defs>
       <path d="M 31.78125 34.625 
Q 24.75 34.625 20.71875 30.859375 
Q 16.703125 27.09375 16.703125 20.515625 
Q 16.703125 13.921875 20.71875 10.15625 
Q 24.75 6.390625 31.78125 6.390625 
Q 38.8125 6.390625 42.859375 10.171875 
Q 46.921875 13.96875 46.921875 20.515625 
Q 46.921875 27.09375 42.890625 30.859375 
Q 38.875 34.625 31.78125 34.625 
z
M 21.921875 38.8125 
Q 15.578125 40.375 12.03125 44.71875 
Q 8.5 49.078125 8.5 55.328125 
Q 8.5 64.0625 14.71875 69.140625 
Q 20.953125 74.21875 31.78125 74.21875 
Q 42.671875 74.21875 48.875 69.140625 
Q 55.078125 64.0625 55.078125 55.328125 
Q 55.078125 49.078125 51.53125 44.71875 
Q 48 40.375 41.703125 38.8125 
Q 48.828125 37.15625 52.796875 32.3125 
Q 56.78125 27.484375 56.78125 20.515625 
Q 56.78125 9.90625 50.3125 4.234375 
Q 43.84375 -1.421875 31.78125 -1.421875 
Q 19.734375 -1.421875 13.25 4.234375 
Q 6.78125 9.90625 6.78125 20.515625 
Q 6.78125 27.484375 10.78125 32.3125 
Q 14.796875 37.15625 21.921875 38.8125 
z
M 18.3125 54.390625 
Q 18.3125 48.734375 21.84375 45.5625 
Q 25.390625 42.390625 31.78125 42.390625 
Q 38.140625 42.390625 41.71875 45.5625 
Q 45.3125 48.734375 45.3125 54.390625 
Q 45.3125 60.0625 41.71875 63.234375 
Q 38.140625 66.40625 31.78125 66.40625 
Q 25.390625 66.40625 21.84375 63.234375 
Q 18.3125 60.0625 18.3125 54.390625 
z
" id="DejaVuSans-38"/>
      </defs>
      <g style="fill:#222222;" transform="translate(116.503868 261.918125)scale(0.12 -0.12)">
       <use xlink:href="#DejaVuSans-38"/>
       <use x="63.623047" xlink:href="#DejaVuSans-30"/>
      </g>
     </g>
    </g>
    <g id="xtick_3">
     <g id="line2d_3">
      <g>
       <use style="fill:#222222;stroke:#222222;" x="204.018113" xlink:href="#md13c130270" y="244.8"/>
      </g>
     </g>
     <g id="text_3">
      <!-- 90 -->
      <defs>
       <path d="M 10.984375 1.515625 
L 10.984375 10.5 
Q 14.703125 8.734375 18.5 7.8125 
Q 22.3125 6.890625 25.984375 6.890625 
Q 35.75 6.890625 40.890625 13.453125 
Q 46.046875 20.015625 46.78125 33.40625 
Q 43.953125 29.203125 39.59375 26.953125 
Q 35.25 24.703125 29.984375 24.703125 
Q 19.046875 24.703125 12.671875 31.3125 
Q 6.296875 37.9375 6.296875 49.421875 
Q 6.296875 60.640625 12.9375 67.421875 
Q 19.578125 74.21875 30.609375 74.21875 
Q 43.265625 74.21875 49.921875 64.515625 
Q 56.59375 54.828125 56.59375 36.375 
Q 56.59375 19.140625 48.40625 8.859375 
Q 40.234375 -1.421875 26.421875 -1.421875 
Q 22.703125 -1.421875 18.890625 -0.6875 
Q 15.09375 0.046875 10.984375 1.515625 
z
M 30.609375 32.421875 
Q 37.25 32.421875 41.125 36.953125 
Q 45.015625 41.5 45.015625 49.421875 
Q 45.015625 57.28125 41.125 61.84375 
Q 37.25 66.40625 30.609375 66.40625 
Q 23.96875 66.40625 20.09375 61.84375 
Q 16.21875 57.28125 16.21875 49.421875 
Q 16.21875 41.5 20.09375 36.953125 
Q 23.96875 32.421875 30.609375 32.421875 
z
" id="DejaVuSans-39"/>
      </defs>
      <g style="fill:#222222;" transform="translate(196.383113 261.918125)scale(0.12 -0.12)">
       <use xlink:href="#DejaVuSans-39"/>
       <use x="63.623047" xlink:href="#DejaVuSans-30"/>
      </g>
     </g>
    </g>
    <g id="xtick_4">
     <g id="line2d_4">
      <g>
       <use style="fill:#222222;stroke:#222222;" x="283.897358" xlink:href="#md13c130270" y="244.8"/>
      </g>
     </g>
     <g id="text_4">
      <!-- 100 -->
      <defs>
       <path d="M 12.40625 8.296875 
L 28.515625 8.296875 
L 28.515625 63.921875 
L 10.984375 60.40625 
L 10.984375 69.390625 
L 28.421875 72.90625 
L 38.28125 72.90625 
L 38.28125 8.296875 
L 54.390625 8.296875 
L 54.390625 0 
L 12.40625 0 
z
" id="DejaVuSans-31"/>
      </defs>
      <g style="fill:#222222;" transform="translate(272.444858 261.918125)scale(0.12 -0.12)">
       <use xlink:href="#DejaVuSans-31"/>
       <use x="63.623047" xlink:href="#DejaVuSans-30"/>
       <use x="127.246094" xlink:href="#DejaVuSans-30"/>
      </g>
     </g>
    </g>
    <g id="xtick_5">
     <g id="line2d_5">
      <g>
       <use style="fill:#222222;stroke:#222222;" x="363.776604" xlink:href="#md13c130270" y="244.8"/>
      </g>
     </g>
     <g id="text_5">
      <!-- 110 -->
      <g style="fill:#222222;" transform="translate(352.324104 261.918125)scale(0.12 -0.12)">
       <use xlink:href="#DejaVuSans-31"/>
       <use x="63.623047" xlink:href="#DejaVuSans-31"/>
       <use x="127.246094" xlink:href="#DejaVuSans-30"/>
      </g>
     </g>
    </g>
    <g id="text_6">
     <!-- Statistic of interest, ($\bar{x}$) -->
     <defs>
      <path d="M 53.515625 70.515625 
L 53.515625 60.890625 
Q 47.90625 63.578125 42.921875 64.890625 
Q 37.9375 66.21875 33.296875 66.21875 
Q 25.25 66.21875 20.875 63.09375 
Q 16.5 59.96875 16.5 54.203125 
Q 16.5 49.359375 19.40625 46.890625 
Q 22.3125 44.4375 30.421875 42.921875 
L 36.375 41.703125 
Q 47.40625 39.59375 52.65625 34.296875 
Q 57.90625 29 57.90625 20.125 
Q 57.90625 9.515625 50.796875 4.046875 
Q 43.703125 -1.421875 29.984375 -1.421875 
Q 24.8125 -1.421875 18.96875 -0.25 
Q 13.140625 0.921875 6.890625 3.21875 
L 6.890625 13.375 
Q 12.890625 10.015625 18.65625 8.296875 
Q 24.421875 6.59375 29.984375 6.59375 
Q 38.421875 6.59375 43.015625 9.90625 
Q 47.609375 13.234375 47.609375 19.390625 
Q 47.609375 24.75 44.3125 27.78125 
Q 41.015625 30.8125 33.5 32.328125 
L 27.484375 33.5 
Q 16.453125 35.6875 11.515625 40.375 
Q 6.59375 45.0625 6.59375 53.421875 
Q 6.59375 63.09375 13.40625 68.65625 
Q 20.21875 74.21875 32.171875 74.21875 
Q 37.3125 74.21875 42.625 73.28125 
Q 47.953125 72.359375 53.515625 70.515625 
z
" id="DejaVuSans-53"/>
      <path d="M 18.3125 70.21875 
L 18.3125 54.6875 
L 36.8125 54.6875 
L 36.8125 47.703125 
L 18.3125 47.703125 
L 18.3125 18.015625 
Q 18.3125 11.328125 20.140625 9.421875 
Q 21.96875 7.515625 27.59375 7.515625 
L 36.8125 7.515625 
L 36.8125 0 
L 27.59375 0 
Q 17.1875 0 13.234375 3.875 
Q 9.28125 7.765625 9.28125 18.015625 
L 9.28125 47.703125 
L 2.6875 47.703125 
L 2.6875 54.6875 
L 9.28125 54.6875 
L 9.28125 70.21875 
z
" id="DejaVuSans-74"/>
      <path d="M 34.28125 27.484375 
Q 23.390625 27.484375 19.1875 25 
Q 14.984375 22.515625 14.984375 16.5 
Q 14.984375 11.71875 18.140625 8.90625 
Q 21.296875 6.109375 26.703125 6.109375 
Q 34.1875 6.109375 38.703125 11.40625 
Q 43.21875 16.703125 43.21875 25.484375 
L 43.21875 27.484375 
z
M 52.203125 31.203125 
L 52.203125 0 
L 43.21875 0 
L 43.21875 8.296875 
Q 40.140625 3.328125 35.546875 0.953125 
Q 30.953125 -1.421875 24.3125 -1.421875 
Q 15.921875 -1.421875 10.953125 3.296875 
Q 6 8.015625 6 15.921875 
Q 6 25.140625 12.171875 29.828125 
Q 18.359375 34.515625 30.609375 34.515625 
L 43.21875 34.515625 
L 43.21875 35.40625 
Q 43.21875 41.609375 39.140625 45 
Q 35.0625 48.390625 27.6875 48.390625 
Q 23 48.390625 18.546875 47.265625 
Q 14.109375 46.140625 10.015625 43.890625 
L 10.015625 52.203125 
Q 14.9375 54.109375 19.578125 55.046875 
Q 24.21875 56 28.609375 56 
Q 40.484375 56 46.34375 49.84375 
Q 52.203125 43.703125 52.203125 31.203125 
z
" id="DejaVuSans-61"/>
      <path d="M 9.421875 54.6875 
L 18.40625 54.6875 
L 18.40625 0 
L 9.421875 0 
z
M 9.421875 75.984375 
L 18.40625 75.984375 
L 18.40625 64.59375 
L 9.421875 64.59375 
z
" id="DejaVuSans-69"/>
      <path d="M 44.28125 53.078125 
L 44.28125 44.578125 
Q 40.484375 46.53125 36.375 47.5 
Q 32.28125 48.484375 27.875 48.484375 
Q 21.1875 48.484375 17.84375 46.4375 
Q 14.5 44.390625 14.5 40.28125 
Q 14.5 37.15625 16.890625 35.375 
Q 19.28125 33.59375 26.515625 31.984375 
L 29.59375 31.296875 
Q 39.15625 29.25 43.1875 25.515625 
Q 47.21875 21.78125 47.21875 15.09375 
Q 47.21875 7.46875 41.1875 3.015625 
Q 35.15625 -1.421875 24.609375 -1.421875 
Q 20.21875 -1.421875 15.453125 -0.5625 
Q 10.6875 0.296875 5.421875 2 
L 5.421875 11.28125 
Q 10.40625 8.6875 15.234375 7.390625 
Q 20.0625 6.109375 24.8125 6.109375 
Q 31.15625 6.109375 34.5625 8.28125 
Q 37.984375 10.453125 37.984375 14.40625 
Q 37.984375 18.0625 35.515625 20.015625 
Q 33.0625 21.96875 24.703125 23.78125 
L 21.578125 24.515625 
Q 13.234375 26.265625 9.515625 29.90625 
Q 5.8125 33.546875 5.8125 39.890625 
Q 5.8125 47.609375 11.28125 51.796875 
Q 16.75 56 26.8125 56 
Q 31.78125 56 36.171875 55.265625 
Q 40.578125 54.546875 44.28125 53.078125 
z
" id="DejaVuSans-73"/>
      <path d="M 48.78125 52.59375 
L 48.78125 44.1875 
Q 44.96875 46.296875 41.140625 47.34375 
Q 37.3125 48.390625 33.40625 48.390625 
Q 24.65625 48.390625 19.8125 42.84375 
Q 14.984375 37.3125 14.984375 27.296875 
Q 14.984375 17.28125 19.8125 11.734375 
Q 24.65625 6.203125 33.40625 6.203125 
Q 37.3125 6.203125 41.140625 7.25 
Q 44.96875 8.296875 48.78125 10.40625 
L 48.78125 2.09375 
Q 45.015625 0.34375 40.984375 -0.53125 
Q 36.96875 -1.421875 32.421875 -1.421875 
Q 20.0625 -1.421875 12.78125 6.34375 
Q 5.515625 14.109375 5.515625 27.296875 
Q 5.515625 40.671875 12.859375 48.328125 
Q 20.21875 56 33.015625 56 
Q 37.15625 56 41.109375 55.140625 
Q 45.0625 54.296875 48.78125 52.59375 
z
" id="DejaVuSans-63"/>
      <path id="DejaVuSans-20"/>
      <path d="M 30.609375 48.390625 
Q 23.390625 48.390625 19.1875 42.75 
Q 14.984375 37.109375 14.984375 27.296875 
Q 14.984375 17.484375 19.15625 11.84375 
Q 23.34375 6.203125 30.609375 6.203125 
Q 37.796875 6.203125 41.984375 11.859375 
Q 46.1875 17.53125 46.1875 27.296875 
Q 46.1875 37.015625 41.984375 42.703125 
Q 37.796875 48.390625 30.609375 48.390625 
z
M 30.609375 56 
Q 42.328125 56 49.015625 48.375 
Q 55.71875 40.765625 55.71875 27.296875 
Q 55.71875 13.875 49.015625 6.21875 
Q 42.328125 -1.421875 30.609375 -1.421875 
Q 18.84375 -1.421875 12.171875 6.21875 
Q 5.515625 13.875 5.515625 27.296875 
Q 5.515625 40.765625 12.171875 48.375 
Q 18.84375 56 30.609375 56 
z
" id="DejaVuSans-6f"/>
      <path d="M 37.109375 75.984375 
L 37.109375 68.5 
L 28.515625 68.5 
Q 23.6875 68.5 21.796875 66.546875 
Q 19.921875 64.59375 19.921875 59.515625 
L 19.921875 54.6875 
L 34.71875 54.6875 
L 34.71875 47.703125 
L 19.921875 47.703125 
L 19.921875 0 
L 10.890625 0 
L 10.890625 47.703125 
L 2.296875 47.703125 
L 2.296875 54.6875 
L 10.890625 54.6875 
L 10.890625 58.5 
Q 10.890625 67.625 15.140625 71.796875 
Q 19.390625 75.984375 28.609375 75.984375 
z
" id="DejaVuSans-66"/>
      <path d="M 54.890625 33.015625 
L 54.890625 0 
L 45.90625 0 
L 45.90625 32.71875 
Q 45.90625 40.484375 42.875 44.328125 
Q 39.84375 48.1875 33.796875 48.1875 
Q 26.515625 48.1875 22.3125 43.546875 
Q 18.109375 38.921875 18.109375 30.90625 
L 18.109375 0 
L 9.078125 0 
L 9.078125 54.6875 
L 18.109375 54.6875 
L 18.109375 46.1875 
Q 21.34375 51.125 25.703125 53.5625 
Q 30.078125 56 35.796875 56 
Q 45.21875 56 50.046875 50.171875 
Q 54.890625 44.34375 54.890625 33.015625 
z
" id="DejaVuSans-6e"/>
      <path d="M 56.203125 29.59375 
L 56.203125 25.203125 
L 14.890625 25.203125 
Q 15.484375 15.921875 20.484375 11.0625 
Q 25.484375 6.203125 34.421875 6.203125 
Q 39.59375 6.203125 44.453125 7.46875 
Q 49.3125 8.734375 54.109375 11.28125 
L 54.109375 2.78125 
Q 49.265625 0.734375 44.1875 -0.34375 
Q 39.109375 -1.421875 33.890625 -1.421875 
Q 20.796875 -1.421875 13.15625 6.1875 
Q 5.515625 13.8125 5.515625 26.8125 
Q 5.515625 40.234375 12.765625 48.109375 
Q 20.015625 56 32.328125 56 
Q 43.359375 56 49.78125 48.890625 
Q 56.203125 41.796875 56.203125 29.59375 
z
M 47.21875 32.234375 
Q 47.125 39.59375 43.09375 43.984375 
Q 39.0625 48.390625 32.421875 48.390625 
Q 24.90625 48.390625 20.390625 44.140625 
Q 15.875 39.890625 15.1875 32.171875 
z
" id="DejaVuSans-65"/>
      <path d="M 41.109375 46.296875 
Q 39.59375 47.171875 37.8125 47.578125 
Q 36.03125 48 33.890625 48 
Q 26.265625 48 22.1875 43.046875 
Q 18.109375 38.09375 18.109375 28.8125 
L 18.109375 0 
L 9.078125 0 
L 9.078125 54.6875 
L 18.109375 54.6875 
L 18.109375 46.1875 
Q 20.953125 51.171875 25.484375 53.578125 
Q 30.03125 56 36.53125 56 
Q 37.453125 56 38.578125 55.875 
Q 39.703125 55.765625 41.0625 55.515625 
z
" id="DejaVuSans-72"/>
      <path d="M 11.71875 12.40625 
L 22.015625 12.40625 
L 22.015625 4 
L 14.015625 -11.625 
L 7.71875 -11.625 
L 11.71875 4 
z
" id="DejaVuSans-2c"/>
      <path d="M 31 75.875 
Q 24.46875 64.65625 21.28125 53.65625 
Q 18.109375 42.671875 18.109375 31.390625 
Q 18.109375 20.125 21.3125 9.0625 
Q 24.515625 -2 31 -13.1875 
L 23.1875 -13.1875 
Q 15.875 -1.703125 12.234375 9.375 
Q 8.59375 20.453125 8.59375 31.390625 
Q 8.59375 42.28125 12.203125 53.3125 
Q 15.828125 64.359375 23.1875 75.875 
z
" id="DejaVuSans-28"/>
      <path d="M -39.34375 74.515625 
L -10.15625 74.515625 
L -10.15625 67.28125 
L -39.34375 67.28125 
z
" id="DejaVuSans-304"/>
      <path d="M 60.015625 54.6875 
L 34.90625 27.875 
L 50.296875 0 
L 39.984375 0 
L 28.421875 21.6875 
L 8.296875 0 
L -2.59375 0 
L 24.3125 28.8125 
L 10.015625 54.6875 
L 20.3125 54.6875 
L 30.8125 34.90625 
L 49.125 54.6875 
z
" id="DejaVuSans-Oblique-78"/>
      <path d="M 8.015625 75.875 
L 15.828125 75.875 
Q 23.140625 64.359375 26.78125 53.3125 
Q 30.421875 42.28125 30.421875 31.390625 
Q 30.421875 20.453125 26.78125 9.375 
Q 23.140625 -1.703125 15.828125 -13.1875 
L 8.015625 -13.1875 
Q 14.5 -2 17.703125 9.0625 
Q 20.90625 20.125 20.90625 31.390625 
Q 20.90625 42.671875 17.703125 53.65625 
Q 14.5 64.65625 8.015625 75.875 
z
" id="DejaVuSans-29"/>
     </defs>
     <g style="fill:#222222;" transform="translate(129.6 283.811406)scale(0.15 -0.15)">
      <use transform="translate(0 0.015625)" xlink:href="#DejaVuSans-53"/>
      <use transform="translate(63.476562 0.015625)" xlink:href="#DejaVuSans-74"/>
      <use transform="translate(102.685547 0.015625)" xlink:href="#DejaVuSans-61"/>
      <use transform="translate(163.964844 0.015625)" xlink:href="#DejaVuSans-74"/>
      <use transform="translate(203.173828 0.015625)" xlink:href="#DejaVuSans-69"/>
      <use transform="translate(230.957031 0.015625)" xlink:href="#DejaVuSans-73"/>
      <use transform="translate(283.056641 0.015625)" xlink:href="#DejaVuSans-74"/>
      <use transform="translate(322.265625 0.015625)" xlink:href="#DejaVuSans-69"/>
      <use transform="translate(350.048828 0.015625)" xlink:href="#DejaVuSans-63"/>
      <use transform="translate(405.029297 0.015625)" xlink:href="#DejaVuSans-20"/>
      <use transform="translate(436.816406 0.015625)" xlink:href="#DejaVuSans-6f"/>
      <use transform="translate(497.998047 0.015625)" xlink:href="#DejaVuSans-66"/>
      <use transform="translate(533.203125 0.015625)" xlink:href="#DejaVuSans-20"/>
      <use transform="translate(564.990234 0.015625)" xlink:href="#DejaVuSans-69"/>
      <use transform="translate(592.773438 0.015625)" xlink:href="#DejaVuSans-6e"/>
      <use transform="translate(656.152344 0.015625)" xlink:href="#DejaVuSans-74"/>
      <use transform="translate(695.361328 0.015625)" xlink:href="#DejaVuSans-65"/>
      <use transform="translate(756.884766 0.015625)" xlink:href="#DejaVuSans-72"/>
      <use transform="translate(797.998047 0.015625)" xlink:href="#DejaVuSans-65"/>
      <use transform="translate(859.521484 0.015625)" xlink:href="#DejaVuSans-73"/>
      <use transform="translate(911.621094 0.015625)" xlink:href="#DejaVuSans-74"/>
      <use transform="translate(950.830078 0.015625)" xlink:href="#DejaVuSans-2c"/>
      <use transform="translate(982.617188 0.015625)" xlink:href="#DejaVuSans-20"/>
      <use transform="translate(1014.404297 0.015625)" xlink:href="#DejaVuSans-28"/>
      <use transform="translate(1115.556641 -0.078125)" xlink:href="#DejaVuSans-304"/>
      <use transform="translate(1053.417969 0.015625)" xlink:href="#DejaVuSans-Oblique-78"/>
      <use transform="translate(1112.597656 0.015625)" xlink:href="#DejaVuSans-29"/>
     </g>
    </g>
   </g>
   <g id="matplotlib.axis_2"/>
   <g id="line2d_6">
    <path clip-path="url(#p4eb3bd56d0)" d="M 203.234599 244.8 
L 203.234599 93.6 
" style="fill:none;stroke:#fbc15e;stroke-dasharray:7.4,3.2;stroke-dashoffset:0;stroke-width:2;"/>
   </g>
   <g id="line2d_7">
    <path clip-path="url(#p4eb3bd56d0)" d="M 292.241003 244.8 
L 292.241003 93.6 
" style="fill:none;stroke:#fbc15e;stroke-dasharray:7.4,3.2;stroke-dashoffset:0;stroke-width:2;"/>
   </g>
   <g id="line2d_8">
    <path clip-path="url(#p4eb3bd56d0)" d="M 249.337584 244.8 
L 249.337584 43.2 
" style="fill:none;stroke:#222222;stroke-dasharray:7.4,3.2;stroke-dashoffset:0;stroke-width:2;"/>
   </g>
   <g id="patch_57">
    <path d="M 4.32 244.8 
L 427.68 244.8 
" style="fill:none;stroke:#222222;stroke-linecap:square;stroke-linejoin:miter;"/>
   </g>
   <g id="text_7">
    <!-- 2.5% -->
    <defs>
     <path d="M 19.1875 8.296875 
L 53.609375 8.296875 
L 53.609375 0 
L 7.328125 0 
L 7.328125 8.296875 
Q 12.9375 14.109375 22.625 23.890625 
Q 32.328125 33.6875 34.8125 36.53125 
Q 39.546875 41.84375 41.421875 45.53125 
Q 43.3125 49.21875 43.3125 52.78125 
Q 43.3125 58.59375 39.234375 62.25 
Q 35.15625 65.921875 28.609375 65.921875 
Q 23.96875 65.921875 18.8125 64.3125 
Q 13.671875 62.703125 7.8125 59.421875 
L 7.8125 69.390625 
Q 13.765625 71.78125 18.9375 73 
Q 24.125 74.21875 28.421875 74.21875 
Q 39.75 74.21875 46.484375 68.546875 
Q 53.21875 62.890625 53.21875 53.421875 
Q 53.21875 48.921875 51.53125 44.890625 
Q 49.859375 40.875 45.40625 35.40625 
Q 44.1875 33.984375 37.640625 27.21875 
Q 31.109375 20.453125 19.1875 8.296875 
z
" id="DejaVuSans-32"/>
     <path d="M 10.6875 12.40625 
L 21 12.40625 
L 21 0 
L 10.6875 0 
z
" id="DejaVuSans-2e"/>
     <path d="M 10.796875 72.90625 
L 49.515625 72.90625 
L 49.515625 64.59375 
L 19.828125 64.59375 
L 19.828125 46.734375 
Q 21.96875 47.46875 24.109375 47.828125 
Q 26.265625 48.1875 28.421875 48.1875 
Q 40.625 48.1875 47.75 41.5 
Q 54.890625 34.8125 54.890625 23.390625 
Q 54.890625 11.625 47.5625 5.09375 
Q 40.234375 -1.421875 26.90625 -1.421875 
Q 22.3125 -1.421875 17.546875 -0.640625 
Q 12.796875 0.140625 7.71875 1.703125 
L 7.71875 11.625 
Q 12.109375 9.234375 16.796875 8.0625 
Q 21.484375 6.890625 26.703125 6.890625 
Q 35.15625 6.890625 40.078125 11.328125 
Q 45.015625 15.765625 45.015625 23.390625 
Q 45.015625 31 40.078125 35.4375 
Q 35.15625 39.890625 26.703125 39.890625 
Q 22.75 39.890625 18.8125 39.015625 
Q 14.890625 38.140625 10.796875 36.28125 
z
" id="DejaVuSans-35"/>
     <path d="M 72.703125 32.078125 
Q 68.453125 32.078125 66.03125 28.46875 
Q 63.625 24.859375 63.625 18.40625 
Q 63.625 12.0625 66.03125 8.421875 
Q 68.453125 4.78125 72.703125 4.78125 
Q 76.859375 4.78125 79.265625 8.421875 
Q 81.6875 12.0625 81.6875 18.40625 
Q 81.6875 24.8125 79.265625 28.4375 
Q 76.859375 32.078125 72.703125 32.078125 
z
M 72.703125 38.28125 
Q 80.421875 38.28125 84.953125 32.90625 
Q 89.5 27.546875 89.5 18.40625 
Q 89.5 9.28125 84.9375 3.921875 
Q 80.375 -1.421875 72.703125 -1.421875 
Q 64.890625 -1.421875 60.34375 3.921875 
Q 55.8125 9.28125 55.8125 18.40625 
Q 55.8125 27.59375 60.375 32.9375 
Q 64.9375 38.28125 72.703125 38.28125 
z
M 22.3125 68.015625 
Q 18.109375 68.015625 15.6875 64.375 
Q 13.28125 60.75 13.28125 54.390625 
Q 13.28125 47.953125 15.671875 44.328125 
Q 18.0625 40.71875 22.3125 40.71875 
Q 26.5625 40.71875 28.96875 44.328125 
Q 31.390625 47.953125 31.390625 54.390625 
Q 31.390625 60.6875 28.953125 64.34375 
Q 26.515625 68.015625 22.3125 68.015625 
z
M 66.40625 74.21875 
L 74.21875 74.21875 
L 28.609375 -1.421875 
L 20.796875 -1.421875 
z
M 22.3125 74.21875 
Q 30.03125 74.21875 34.609375 68.875 
Q 39.203125 63.53125 39.203125 54.390625 
Q 39.203125 45.171875 34.640625 39.84375 
Q 30.078125 34.515625 22.3125 34.515625 
Q 14.546875 34.515625 10.03125 39.859375 
Q 5.515625 45.21875 5.515625 54.390625 
Q 5.515625 63.484375 10.046875 68.84375 
Q 14.59375 74.21875 22.3125 74.21875 
z
" id="DejaVuSans-25"/>
    </defs>
    <g style="fill:#fbc15e;" transform="translate(184.181083 83.52)scale(0.15 -0.15)">
     <use xlink:href="#DejaVuSans-32"/>
     <use x="63.623047" xlink:href="#DejaVuSans-2e"/>
     <use x="95.410156" xlink:href="#DejaVuSans-35"/>
     <use x="159.033203" xlink:href="#DejaVuSans-25"/>
    </g>
   </g>
   <g id="text_8">
    <!-- 97.5% -->
    <g style="fill:#fbc15e;" transform="translate(268.415613 83.52)scale(0.15 -0.15)">
     <use xlink:href="#DejaVuSans-39"/>
     <use x="63.623047" xlink:href="#DejaVuSans-37"/>
     <use x="127.246094" xlink:href="#DejaVuSans-2e"/>
     <use x="159.033203" xlink:href="#DejaVuSans-35"/>
     <use x="222.65625" xlink:href="#DejaVuSans-25"/>
    </g>
   </g>
   <g id="text_9">
    <!-- Observed sample -->
    <defs>
     <path d="M 39.40625 66.21875 
Q 28.65625 66.21875 22.328125 58.203125 
Q 16.015625 50.203125 16.015625 36.375 
Q 16.015625 22.609375 22.328125 14.59375 
Q 28.65625 6.59375 39.40625 6.59375 
Q 50.140625 6.59375 56.421875 14.59375 
Q 62.703125 22.609375 62.703125 36.375 
Q 62.703125 50.203125 56.421875 58.203125 
Q 50.140625 66.21875 39.40625 66.21875 
z
M 39.40625 74.21875 
Q 54.734375 74.21875 63.90625 63.9375 
Q 73.09375 53.65625 73.09375 36.375 
Q 73.09375 19.140625 63.90625 8.859375 
Q 54.734375 -1.421875 39.40625 -1.421875 
Q 24.03125 -1.421875 14.8125 8.828125 
Q 5.609375 19.09375 5.609375 36.375 
Q 5.609375 53.65625 14.8125 63.9375 
Q 24.03125 74.21875 39.40625 74.21875 
z
" id="DejaVuSans-4f"/>
     <path d="M 48.6875 27.296875 
Q 48.6875 37.203125 44.609375 42.84375 
Q 40.53125 48.484375 33.40625 48.484375 
Q 26.265625 48.484375 22.1875 42.84375 
Q 18.109375 37.203125 18.109375 27.296875 
Q 18.109375 17.390625 22.1875 11.75 
Q 26.265625 6.109375 33.40625 6.109375 
Q 40.53125 6.109375 44.609375 11.75 
Q 48.6875 17.390625 48.6875 27.296875 
z
M 18.109375 46.390625 
Q 20.953125 51.265625 25.265625 53.625 
Q 29.59375 56 35.59375 56 
Q 45.5625 56 51.78125 48.09375 
Q 58.015625 40.1875 58.015625 27.296875 
Q 58.015625 14.40625 51.78125 6.484375 
Q 45.5625 -1.421875 35.59375 -1.421875 
Q 29.59375 -1.421875 25.265625 0.953125 
Q 20.953125 3.328125 18.109375 8.203125 
L 18.109375 0 
L 9.078125 0 
L 9.078125 75.984375 
L 18.109375 75.984375 
z
" id="DejaVuSans-62"/>
     <path d="M 2.984375 54.6875 
L 12.5 54.6875 
L 29.59375 8.796875 
L 46.6875 54.6875 
L 56.203125 54.6875 
L 35.6875 0 
L 23.484375 0 
z
" id="DejaVuSans-76"/>
     <path d="M 45.40625 46.390625 
L 45.40625 75.984375 
L 54.390625 75.984375 
L 54.390625 0 
L 45.40625 0 
L 45.40625 8.203125 
Q 42.578125 3.328125 38.25 0.953125 
Q 33.9375 -1.421875 27.875 -1.421875 
Q 17.96875 -1.421875 11.734375 6.484375 
Q 5.515625 14.40625 5.515625 27.296875 
Q 5.515625 40.1875 11.734375 48.09375 
Q 17.96875 56 27.875 56 
Q 33.9375 56 38.25 53.625 
Q 42.578125 51.265625 45.40625 46.390625 
z
M 14.796875 27.296875 
Q 14.796875 17.390625 18.875 11.75 
Q 22.953125 6.109375 30.078125 6.109375 
Q 37.203125 6.109375 41.296875 11.75 
Q 45.40625 17.390625 45.40625 27.296875 
Q 45.40625 37.203125 41.296875 42.84375 
Q 37.203125 48.484375 30.078125 48.484375 
Q 22.953125 48.484375 18.875 42.84375 
Q 14.796875 37.203125 14.796875 27.296875 
z
" id="DejaVuSans-64"/>
     <path d="M 52 44.1875 
Q 55.375 50.25 60.0625 53.125 
Q 64.75 56 71.09375 56 
Q 79.640625 56 84.28125 50.015625 
Q 88.921875 44.046875 88.921875 33.015625 
L 88.921875 0 
L 79.890625 0 
L 79.890625 32.71875 
Q 79.890625 40.578125 77.09375 44.375 
Q 74.3125 48.1875 68.609375 48.1875 
Q 61.625 48.1875 57.5625 43.546875 
Q 53.515625 38.921875 53.515625 30.90625 
L 53.515625 0 
L 44.484375 0 
L 44.484375 32.71875 
Q 44.484375 40.625 41.703125 44.40625 
Q 38.921875 48.1875 33.109375 48.1875 
Q 26.21875 48.1875 22.15625 43.53125 
Q 18.109375 38.875 18.109375 30.90625 
L 18.109375 0 
L 9.078125 0 
L 9.078125 54.6875 
L 18.109375 54.6875 
L 18.109375 46.1875 
Q 21.1875 51.21875 25.484375 53.609375 
Q 29.78125 56 35.6875 56 
Q 41.65625 56 45.828125 52.96875 
Q 50 49.953125 52 44.1875 
z
" id="DejaVuSans-6d"/>
     <path d="M 18.109375 8.203125 
L 18.109375 -20.796875 
L 9.078125 -20.796875 
L 9.078125 54.6875 
L 18.109375 54.6875 
L 18.109375 46.390625 
Q 20.953125 51.265625 25.265625 53.625 
Q 29.59375 56 35.59375 56 
Q 45.5625 56 51.78125 48.09375 
Q 58.015625 40.1875 58.015625 27.296875 
Q 58.015625 14.40625 51.78125 6.484375 
Q 45.5625 -1.421875 35.59375 -1.421875 
Q 29.59375 -1.421875 25.265625 0.953125 
Q 20.953125 3.328125 18.109375 8.203125 
z
M 48.6875 27.296875 
Q 48.6875 37.203125 44.609375 42.84375 
Q 40.53125 48.484375 33.40625 48.484375 
Q 26.265625 48.484375 22.1875 42.84375 
Q 18.109375 37.203125 18.109375 27.296875 
Q 18.109375 17.390625 22.1875 11.75 
Q 26.265625 6.109375 33.40625 6.109375 
Q 40.53125 6.109375 44.609375 11.75 
Q 48.6875 17.390625 48.6875 27.296875 
z
" id="DejaVuSans-70"/>
     <path d="M 9.421875 75.984375 
L 18.40625 75.984375 
L 18.40625 0 
L 9.421875 0 
z
" id="DejaVuSans-6c"/>
    </defs>
    <g transform="translate(249.337584 16.323281)scale(0.15 -0.15)">
     <use xlink:href="#DejaVuSans-4f"/>
     <use x="78.710938" xlink:href="#DejaVuSans-62"/>
     <use x="142.1875" xlink:href="#DejaVuSans-73"/>
     <use x="194.287109" xlink:href="#DejaVuSans-65"/>
     <use x="255.810547" xlink:href="#DejaVuSans-72"/>
     <use x="296.923828" xlink:href="#DejaVuSans-76"/>
     <use x="356.103516" xlink:href="#DejaVuSans-65"/>
     <use x="417.626953" xlink:href="#DejaVuSans-64"/>
     <use x="481.103516" xlink:href="#DejaVuSans-20"/>
     <use x="512.890625" xlink:href="#DejaVuSans-73"/>
     <use x="564.990234" xlink:href="#DejaVuSans-61"/>
     <use x="626.269531" xlink:href="#DejaVuSans-6d"/>
     <use x="723.681641" xlink:href="#DejaVuSans-70"/>
     <use x="787.158203" xlink:href="#DejaVuSans-6c"/>
     <use x="814.941406" xlink:href="#DejaVuSans-65"/>
    </g>
    <!-- statistic ($\bar{x}$) -->
    <g transform="translate(249.337584 33.12)scale(0.15 -0.15)">
     <use transform="translate(0 0.015625)" xlink:href="#DejaVuSans-73"/>
     <use transform="translate(52.099609 0.015625)" xlink:href="#DejaVuSans-74"/>
     <use transform="translate(91.308594 0.015625)" xlink:href="#DejaVuSans-61"/>
     <use transform="translate(152.587891 0.015625)" xlink:href="#DejaVuSans-74"/>
     <use transform="translate(191.796875 0.015625)" xlink:href="#DejaVuSans-69"/>
     <use transform="translate(219.580078 0.015625)" xlink:href="#DejaVuSans-73"/>
     <use transform="translate(271.679688 0.015625)" xlink:href="#DejaVuSans-74"/>
     <use transform="translate(310.888672 0.015625)" xlink:href="#DejaVuSans-69"/>
     <use transform="translate(338.671875 0.015625)" xlink:href="#DejaVuSans-63"/>
     <use transform="translate(393.652344 0.015625)" xlink:href="#DejaVuSans-20"/>
     <use transform="translate(425.439453 0.015625)" xlink:href="#DejaVuSans-28"/>
     <use transform="translate(526.591797 -0.078125)" xlink:href="#DejaVuSans-304"/>
     <use transform="translate(464.453125 0.015625)" xlink:href="#DejaVuSans-Oblique-78"/>
     <use transform="translate(523.632812 0.015625)" xlink:href="#DejaVuSans-29"/>
    </g>
   </g>
   <g id="text_10">
    <!-- Original sample -->
    <defs>
     <path d="M 45.40625 27.984375 
Q 45.40625 37.75 41.375 43.109375 
Q 37.359375 48.484375 30.078125 48.484375 
Q 22.859375 48.484375 18.828125 43.109375 
Q 14.796875 37.75 14.796875 27.984375 
Q 14.796875 18.265625 18.828125 12.890625 
Q 22.859375 7.515625 30.078125 7.515625 
Q 37.359375 7.515625 41.375 12.890625 
Q 45.40625 18.265625 45.40625 27.984375 
z
M 54.390625 6.78125 
Q 54.390625 -7.171875 48.1875 -13.984375 
Q 42 -20.796875 29.203125 -20.796875 
Q 24.46875 -20.796875 20.265625 -20.09375 
Q 16.0625 -19.390625 12.109375 -17.921875 
L 12.109375 -9.1875 
Q 16.0625 -11.328125 19.921875 -12.34375 
Q 23.78125 -13.375 27.78125 -13.375 
Q 36.625 -13.375 41.015625 -8.765625 
Q 45.40625 -4.15625 45.40625 5.171875 
L 45.40625 9.625 
Q 42.625 4.78125 38.28125 2.390625 
Q 33.9375 0 27.875 0 
Q 17.828125 0 11.671875 7.65625 
Q 5.515625 15.328125 5.515625 27.984375 
Q 5.515625 40.671875 11.671875 48.328125 
Q 17.828125 56 27.875 56 
Q 33.9375 56 38.28125 53.609375 
Q 42.625 51.21875 45.40625 46.390625 
L 45.40625 54.6875 
L 54.390625 54.6875 
z
" id="DejaVuSans-67"/>
    </defs>
    <g style="fill:#fb4c52;" transform="translate(4.32 66.723281)scale(0.15 -0.15)">
     <use xlink:href="#DejaVuSans-4f"/>
     <use x="78.710938" xlink:href="#DejaVuSans-72"/>
     <use x="119.824219" xlink:href="#DejaVuSans-69"/>
     <use x="147.607422" xlink:href="#DejaVuSans-67"/>
     <use x="211.083984" xlink:href="#DejaVuSans-69"/>
     <use x="238.867188" xlink:href="#DejaVuSans-6e"/>
     <use x="302.246094" xlink:href="#DejaVuSans-61"/>
     <use x="363.525391" xlink:href="#DejaVuSans-6c"/>
     <use x="391.308594" xlink:href="#DejaVuSans-20"/>
     <use x="423.095703" xlink:href="#DejaVuSans-73"/>
     <use x="475.195312" xlink:href="#DejaVuSans-61"/>
     <use x="536.474609" xlink:href="#DejaVuSans-6d"/>
     <use x="633.886719" xlink:href="#DejaVuSans-70"/>
     <use x="697.363281" xlink:href="#DejaVuSans-6c"/>
     <use x="725.146484" xlink:href="#DejaVuSans-65"/>
    </g>
    <!-- n=16 -->
    <defs>
     <path d="M 10.59375 45.40625 
L 73.1875 45.40625 
L 73.1875 37.203125 
L 10.59375 37.203125 
z
M 10.59375 25.484375 
L 73.1875 25.484375 
L 73.1875 17.1875 
L 10.59375 17.1875 
z
" id="DejaVuSans-3d"/>
     <path d="M 33.015625 40.375 
Q 26.375 40.375 22.484375 35.828125 
Q 18.609375 31.296875 18.609375 23.390625 
Q 18.609375 15.53125 22.484375 10.953125 
Q 26.375 6.390625 33.015625 6.390625 
Q 39.65625 6.390625 43.53125 10.953125 
Q 47.40625 15.53125 47.40625 23.390625 
Q 47.40625 31.296875 43.53125 35.828125 
Q 39.65625 40.375 33.015625 40.375 
z
M 52.59375 71.296875 
L 52.59375 62.3125 
Q 48.875 64.0625 45.09375 64.984375 
Q 41.3125 65.921875 37.59375 65.921875 
Q 27.828125 65.921875 22.671875 59.328125 
Q 17.53125 52.734375 16.796875 39.40625 
Q 19.671875 43.65625 24.015625 45.921875 
Q 28.375 48.1875 33.59375 48.1875 
Q 44.578125 48.1875 50.953125 41.515625 
Q 57.328125 34.859375 57.328125 23.390625 
Q 57.328125 12.15625 50.6875 5.359375 
Q 44.046875 -1.421875 33.015625 -1.421875 
Q 20.359375 -1.421875 13.671875 8.265625 
Q 6.984375 17.96875 6.984375 36.375 
Q 6.984375 53.65625 15.1875 63.9375 
Q 23.390625 74.21875 37.203125 74.21875 
Q 40.921875 74.21875 44.703125 73.484375 
Q 48.484375 72.75 52.59375 71.296875 
z
" id="DejaVuSans-36"/>
    </defs>
    <g style="fill:#fb4c52;" transform="translate(4.32 83.52)scale(0.15 -0.15)">
     <use xlink:href="#DejaVuSans-6e"/>
     <use x="63.378906" xlink:href="#DejaVuSans-3d"/>
     <use x="147.167969" xlink:href="#DejaVuSans-31"/>
     <use x="210.791016" xlink:href="#DejaVuSans-36"/>
    </g>
   </g>
  </g>
  <g id="axes_2">
   <g id="patch_58">
    <path clip-path="url(#p4eb3bd56d0)" d="M 90.875839 244.8 
L 94.471294 244.8 
L 94.471294 244.433588 
L 90.875839 244.433588 
z
" style="fill:#b4b4b4;opacity:0.6;"/>
   </g>
   <g id="patch_59">
    <path clip-path="url(#p4eb3bd56d0)" d="M 94.471294 244.8 
L 98.066748 244.8 
L 98.066748 244.8 
L 94.471294 244.8 
z
" style="fill:#b4b4b4;opacity:0.6;"/>
   </g>
   <g id="patch_60">
    <path clip-path="url(#p4eb3bd56d0)" d="M 98.066748 244.8 
L 101.662203 244.8 
L 101.662203 244.8 
L 98.066748 244.8 
z
" style="fill:#b4b4b4;opacity:0.6;"/>
   </g>
   <g id="patch_61">
    <path clip-path="url(#p4eb3bd56d0)" d="M 101.662203 244.8 
L 105.257657 244.8 
L 105.257657 244.8 
L 101.662203 244.8 
z
" style="fill:#b4b4b4;opacity:0.6;"/>
   </g>
   <g id="patch_62">
    <path clip-path="url(#p4eb3bd56d0)" d="M 105.257657 244.8 
L 108.853112 244.8 
L 108.853112 244.8 
L 105.257657 244.8 
z
" style="fill:#b4b4b4;opacity:0.6;"/>
   </g>
   <g id="patch_63">
    <path clip-path="url(#p4eb3bd56d0)" d="M 108.853112 244.8 
L 112.448567 244.8 
L 112.448567 244.8 
L 108.853112 244.8 
z
" style="fill:#b4b4b4;opacity:0.6;"/>
   </g>
   <g id="patch_64">
    <path clip-path="url(#p4eb3bd56d0)" d="M 112.448567 244.8 
L 116.044021 244.8 
L 116.044021 244.067176 
L 112.448567 244.067176 
z
" style="fill:#b4b4b4;opacity:0.6;"/>
   </g>
   <g id="patch_65">
    <path clip-path="url(#p4eb3bd56d0)" d="M 116.044021 244.8 
L 119.639476 244.8 
L 119.639476 244.067176 
L 116.044021 244.067176 
z
" style="fill:#b4b4b4;opacity:0.6;"/>
   </g>
   <g id="patch_66">
    <path clip-path="url(#p4eb3bd56d0)" d="M 119.639476 244.8 
L 123.234931 244.8 
L 123.234931 244.433588 
L 119.639476 244.433588 
z
" style="fill:#b4b4b4;opacity:0.6;"/>
   </g>
   <g id="patch_67">
    <path clip-path="url(#p4eb3bd56d0)" d="M 123.234931 244.8 
L 126.830385 244.8 
L 126.830385 244.433588 
L 123.234931 244.433588 
z
" style="fill:#b4b4b4;opacity:0.6;"/>
   </g>
   <g id="patch_68">
    <path clip-path="url(#p4eb3bd56d0)" d="M 126.830385 244.8 
L 130.42584 244.8 
L 130.42584 244.067176 
L 126.830385 244.067176 
z
" style="fill:#b4b4b4;opacity:0.6;"/>
   </g>
   <g id="patch_69">
    <path clip-path="url(#p4eb3bd56d0)" d="M 130.42584 244.8 
L 134.021294 244.8 
L 134.021294 241.868702 
L 130.42584 241.868702 
z
" style="fill:#b4b4b4;opacity:0.6;"/>
   </g>
   <g id="patch_70">
    <path clip-path="url(#p4eb3bd56d0)" d="M 134.021294 244.8 
L 137.616749 244.8 
L 137.616749 241.50229 
L 134.021294 241.50229 
z
" style="fill:#b4b4b4;opacity:0.6;"/>
   </g>
   <g id="patch_71">
    <path clip-path="url(#p4eb3bd56d0)" d="M 137.616749 244.8 
L 141.212204 244.8 
L 141.212204 240.769466 
L 137.616749 240.769466 
z
" style="fill:#b4b4b4;opacity:0.6;"/>
   </g>
   <g id="patch_72">
    <path clip-path="url(#p4eb3bd56d0)" d="M 141.212204 244.8 
L 144.807658 244.8 
L 144.807658 240.036641 
L 141.212204 240.036641 
z
" style="fill:#b4b4b4;opacity:0.6;"/>
   </g>
   <g id="patch_73">
    <path clip-path="url(#p4eb3bd56d0)" d="M 144.807658 244.8 
L 148.403113 244.8 
L 148.403113 238.20458 
L 144.807658 238.20458 
z
" style="fill:#b4b4b4;opacity:0.6;"/>
   </g>
   <g id="patch_74">
    <path clip-path="url(#p4eb3bd56d0)" d="M 148.403113 244.8 
L 151.998568 244.8 
L 151.998568 238.570992 
L 148.403113 238.570992 
z
" style="fill:#b4b4b4;opacity:0.6;"/>
   </g>
   <g id="patch_75">
    <path clip-path="url(#p4eb3bd56d0)" d="M 151.998568 244.8 
L 155.594022 244.8 
L 155.594022 235.639695 
L 151.998568 235.639695 
z
" style="fill:#b4b4b4;opacity:0.6;"/>
   </g>
   <g id="patch_76">
    <path clip-path="url(#p4eb3bd56d0)" d="M 155.594022 244.8 
L 159.189477 244.8 
L 159.189477 237.471756 
L 155.594022 237.471756 
z
" style="fill:#b4b4b4;opacity:0.6;"/>
   </g>
   <g id="patch_77">
    <path clip-path="url(#p4eb3bd56d0)" d="M 159.189477 244.8 
L 162.784931 244.8 
L 162.784931 229.410687 
L 159.189477 229.410687 
z
" style="fill:#b4b4b4;opacity:0.6;"/>
   </g>
   <g id="patch_78">
    <path clip-path="url(#p4eb3bd56d0)" d="M 162.784931 244.8 
L 166.380386 244.8 
L 166.380386 229.044275 
L 162.784931 229.044275 
z
" style="fill:#b4b4b4;opacity:0.6;"/>
   </g>
   <g id="patch_79">
    <path clip-path="url(#p4eb3bd56d0)" d="M 166.380386 244.8 
L 169.975841 244.8 
L 169.975841 223.914504 
L 166.380386 223.914504 
z
" style="fill:#b4b4b4;opacity:0.6;"/>
   </g>
   <g id="patch_80">
    <path clip-path="url(#p4eb3bd56d0)" d="M 169.975841 244.8 
L 173.571295 244.8 
L 173.571295 220.250382 
L 169.975841 220.250382 
z
" style="fill:#b4b4b4;opacity:0.6;"/>
   </g>
   <g id="patch_81">
    <path clip-path="url(#p4eb3bd56d0)" d="M 173.571295 244.8 
L 177.16675 244.8 
L 177.16675 209.624427 
L 173.571295 209.624427 
z
" style="fill:#b4b4b4;opacity:0.6;"/>
   </g>
   <g id="patch_82">
    <path clip-path="url(#p4eb3bd56d0)" d="M 177.16675 244.8 
L 180.762205 244.8 
L 180.762205 200.464122 
L 177.16675 200.464122 
z
" style="fill:#b4b4b4;opacity:0.6;"/>
   </g>
   <g id="patch_83">
    <path clip-path="url(#p4eb3bd56d0)" d="M 180.762205 244.8 
L 184.357659 244.8 
L 184.357659 197.166412 
L 180.762205 197.166412 
z
" style="fill:#b4b4b4;opacity:0.6;"/>
   </g>
   <g id="patch_84">
    <path clip-path="url(#p4eb3bd56d0)" d="M 184.357659 244.8 
L 187.953114 244.8 
L 187.953114 193.50229 
L 184.357659 193.50229 
z
" style="fill:#b4b4b4;opacity:0.6;"/>
   </g>
   <g id="patch_85">
    <path clip-path="url(#p4eb3bd56d0)" d="M 187.953114 244.8 
L 191.548568 244.8 
L 191.548568 182.143511 
L 187.953114 182.143511 
z
" style="fill:#b4b4b4;opacity:0.6;"/>
   </g>
   <g id="patch_86">
    <path clip-path="url(#p4eb3bd56d0)" d="M 191.548568 244.8 
L 195.144023 244.8 
L 195.144023 174.082443 
L 191.548568 174.082443 
z
" style="fill:#b4b4b4;opacity:0.6;"/>
   </g>
   <g id="patch_87">
    <path clip-path="url(#p4eb3bd56d0)" d="M 195.144023 244.8 
L 198.739478 244.8 
L 198.739478 158.69313 
L 195.144023 158.69313 
z
" style="fill:#b4b4b4;opacity:0.6;"/>
   </g>
   <g id="patch_88">
    <path clip-path="url(#p4eb3bd56d0)" d="M 198.739478 244.8 
L 202.334932 244.8 
L 202.334932 149.532824 
L 198.739478 149.532824 
z
" style="fill:#b4b4b4;opacity:0.6;"/>
   </g>
   <g id="patch_89">
    <path clip-path="url(#p4eb3bd56d0)" d="M 202.334932 244.8 
L 205.930387 244.8 
L 205.930387 131.578626 
L 202.334932 131.578626 
z
" style="fill:#b4b4b4;opacity:0.6;"/>
   </g>
   <g id="patch_90">
    <path clip-path="url(#p4eb3bd56d0)" d="M 205.930387 244.8 
L 209.525842 244.8 
L 209.525842 115.822901 
L 205.930387 115.822901 
z
" style="fill:#b4b4b4;opacity:0.6;"/>
   </g>
   <g id="patch_91">
    <path clip-path="url(#p4eb3bd56d0)" d="M 209.525842 244.8 
L 213.121296 244.8 
L 213.121296 120.952672 
L 209.525842 120.952672 
z
" style="fill:#b4b4b4;opacity:0.6;"/>
   </g>
   <g id="patch_92">
    <path clip-path="url(#p4eb3bd56d0)" d="M 213.121296 244.8 
L 216.716751 244.8 
L 216.716751 101.532824 
L 213.121296 101.532824 
z
" style="fill:#b4b4b4;opacity:0.6;"/>
   </g>
   <g id="patch_93">
    <path clip-path="url(#p4eb3bd56d0)" d="M 216.716751 244.8 
L 220.312205 244.8 
L 220.312205 91.273282 
L 216.716751 91.273282 
z
" style="fill:#b4b4b4;opacity:0.6;"/>
   </g>
   <g id="patch_94">
    <path clip-path="url(#p4eb3bd56d0)" d="M 220.312205 244.8 
L 223.90766 244.8 
L 223.90766 80.280916 
L 220.312205 80.280916 
z
" style="fill:#b4b4b4;opacity:0.6;"/>
   </g>
   <g id="patch_95">
    <path clip-path="url(#p4eb3bd56d0)" d="M 223.90766 244.8 
L 227.503115 244.8 
L 227.503115 69.28855 
L 223.90766 69.28855 
z
" style="fill:#b4b4b4;opacity:0.6;"/>
   </g>
   <g id="patch_96">
    <path clip-path="url(#p4eb3bd56d0)" d="M 227.503115 244.8 
L 231.098569 244.8 
L 231.098569 60.861069 
L 227.503115 60.861069 
z
" style="fill:#b4b4b4;opacity:0.6;"/>
   </g>
   <g id="patch_97">
    <path clip-path="url(#p4eb3bd56d0)" d="M 231.098569 244.8 
L 234.694024 244.8 
L 234.694024 49.50229 
L 231.098569 49.50229 
z
" style="fill:#b4b4b4;opacity:0.6;"/>
   </g>
   <g id="patch_98">
    <path clip-path="url(#p4eb3bd56d0)" d="M 234.694024 244.8 
L 238.289478 244.8 
L 238.289478 60.861069 
L 234.694024 60.861069 
z
" style="fill:#b4b4b4;opacity:0.6;"/>
   </g>
   <g id="patch_99">
    <path clip-path="url(#p4eb3bd56d0)" d="M 238.289478 244.8 
L 241.884933 244.8 
L 241.884933 71.120611 
L 238.289478 71.120611 
z
" style="fill:#b4b4b4;opacity:0.6;"/>
   </g>
   <g id="patch_100">
    <path clip-path="url(#p4eb3bd56d0)" d="M 241.884933 244.8 
L 245.480388 244.8 
L 245.480388 68.555725 
L 241.884933 68.555725 
z
" style="fill:#b4b4b4;opacity:0.6;"/>
   </g>
   <g id="patch_101">
    <path clip-path="url(#p4eb3bd56d0)" d="M 245.480388 244.8 
L 249.075842 244.8 
L 249.075842 74.051908 
L 245.480388 74.051908 
z
" style="fill:#b4b4b4;opacity:0.6;"/>
   </g>
   <g id="patch_102">
    <path clip-path="url(#p4eb3bd56d0)" d="M 249.075842 244.8 
L 252.671297 244.8 
L 252.671297 87.975573 
L 249.075842 87.975573 
z
" style="fill:#b4b4b4;opacity:0.6;"/>
   </g>
   <g id="patch_103">
    <path clip-path="url(#p4eb3bd56d0)" d="M 252.671297 244.8 
L 256.266752 244.8 
L 256.266752 116.555725 
L 252.671297 116.555725 
z
" style="fill:#b4b4b4;opacity:0.6;"/>
   </g>
   <g id="patch_104">
    <path clip-path="url(#p4eb3bd56d0)" d="M 256.266752 244.8 
L 259.862206 244.8 
L 259.862206 125.349618 
L 256.266752 125.349618 
z
" style="fill:#b4b4b4;opacity:0.6;"/>
   </g>
   <g id="patch_105">
    <path clip-path="url(#p4eb3bd56d0)" d="M 259.862206 244.8 
L 263.457661 244.8 
L 263.457661 133.410687 
L 259.862206 133.410687 
z
" style="fill:#b4b4b4;opacity:0.6;"/>
   </g>
   <g id="patch_106">
    <path clip-path="url(#p4eb3bd56d0)" d="M 263.457661 244.8 
L 267.053115 244.8 
L 267.053115 145.135878 
L 263.457661 145.135878 
z
" style="fill:#b4b4b4;opacity:0.6;"/>
   </g>
   <g id="patch_107">
    <path clip-path="url(#p4eb3bd56d0)" d="M 267.053115 244.8 
L 270.64857 244.8 
L 270.64857 172.616794 
L 267.053115 172.616794 
z
" style="fill:#b4b4b4;opacity:0.6;"/>
   </g>
   <g id="patch_108">
    <path clip-path="url(#p4eb3bd56d0)" d="M 270.64857 244.8 
L 274.244025 244.8 
L 274.244025 176.647328 
L 270.64857 176.647328 
z
" style="fill:#b4b4b4;opacity:0.6;"/>
   </g>
   <g id="patch_109">
    <path clip-path="url(#p4eb3bd56d0)" d="M 274.244025 244.8 
L 277.839479 244.8 
L 277.839479 185.807634 
L 274.244025 185.807634 
z
" style="fill:#b4b4b4;opacity:0.6;"/>
   </g>
   <g id="patch_110">
    <path clip-path="url(#p4eb3bd56d0)" d="M 277.839479 244.8 
L 281.434934 244.8 
L 281.434934 201.563359 
L 277.839479 201.563359 
z
" style="fill:#b4b4b4;opacity:0.6;"/>
   </g>
   <g id="patch_111">
    <path clip-path="url(#p4eb3bd56d0)" d="M 281.434934 244.8 
L 285.030389 244.8 
L 285.030389 215.853435 
L 281.434934 215.853435 
z
" style="fill:#b4b4b4;opacity:0.6;"/>
   </g>
   <g id="patch_112">
    <path clip-path="url(#p4eb3bd56d0)" d="M 285.030389 244.8 
L 288.625843 244.8 
L 288.625843 223.914504 
L 285.030389 223.914504 
z
" style="fill:#b4b4b4;opacity:0.6;"/>
   </g>
   <g id="patch_113">
    <path clip-path="url(#p4eb3bd56d0)" d="M 288.625843 244.8 
L 292.221298 244.8 
L 292.221298 231.242748 
L 288.625843 231.242748 
z
" style="fill:#b4b4b4;opacity:0.6;"/>
   </g>
   <g id="patch_114">
    <path clip-path="url(#p4eb3bd56d0)" d="M 292.221298 244.8 
L 295.816752 244.8 
L 295.816752 231.242748 
L 292.221298 231.242748 
z
" style="fill:#b4b4b4;opacity:0.6;"/>
   </g>
   <g id="patch_115">
    <path clip-path="url(#p4eb3bd56d0)" d="M 295.816752 244.8 
L 299.412207 244.8 
L 299.412207 235.273282 
L 295.816752 235.273282 
z
" style="fill:#b4b4b4;opacity:0.6;"/>
   </g>
   <g id="patch_116">
    <path clip-path="url(#p4eb3bd56d0)" d="M 299.412207 244.8 
L 303.007662 244.8 
L 303.007662 238.20458 
L 299.412207 238.20458 
z
" style="fill:#b4b4b4;opacity:0.6;"/>
   </g>
   <g id="patch_117">
    <path clip-path="url(#p4eb3bd56d0)" d="M 303.007662 244.8 
L 306.603116 244.8 
L 306.603116 241.135878 
L 303.007662 241.135878 
z
" style="fill:#b4b4b4;opacity:0.6;"/>
   </g>
   <g id="patch_118">
    <path clip-path="url(#p4eb3bd56d0)" d="M 306.603116 244.8 
L 310.198571 244.8 
L 310.198571 242.967939 
L 306.603116 242.967939 
z
" style="fill:#b4b4b4;opacity:0.6;"/>
   </g>
   <g id="patch_119">
    <path clip-path="url(#p4eb3bd56d0)" d="M 310.198571 244.8 
L 313.794026 244.8 
L 313.794026 243.700763 
L 310.198571 243.700763 
z
" style="fill:#b4b4b4;opacity:0.6;"/>
   </g>
   <g id="patch_120">
    <path clip-path="url(#p4eb3bd56d0)" d="M 313.794026 244.8 
L 317.38948 244.8 
L 317.38948 242.967939 
L 313.794026 242.967939 
z
" style="fill:#b4b4b4;opacity:0.6;"/>
   </g>
   <g id="patch_121">
    <path clip-path="url(#p4eb3bd56d0)" d="M 317.38948 244.8 
L 320.984935 244.8 
L 320.984935 244.8 
L 317.38948 244.8 
z
" style="fill:#b4b4b4;opacity:0.6;"/>
   </g>
   <g id="patch_122">
    <path clip-path="url(#p4eb3bd56d0)" d="M 320.984935 244.8 
L 324.580389 244.8 
L 324.580389 244.433588 
L 320.984935 244.433588 
z
" style="fill:#b4b4b4;opacity:0.6;"/>
   </g>
   <g id="line2d_9">
    <path clip-path="url(#p4eb3bd56d0)" d="M 229.717743 244.8 
L 229.717743 43.2 
" style="fill:none;stroke:#00bfff;stroke-dasharray:7.4,3.2;stroke-dashoffset:0;stroke-width:2;"/>
   </g>
   <g id="text_11">
    <!-- True sampling -->
    <defs>
     <path d="M -0.296875 72.90625 
L 61.375 72.90625 
L 61.375 64.59375 
L 35.5 64.59375 
L 35.5 0 
L 25.59375 0 
L 25.59375 64.59375 
L -0.296875 64.59375 
z
" id="DejaVuSans-54"/>
     <path d="M 8.5 21.578125 
L 8.5 54.6875 
L 17.484375 54.6875 
L 17.484375 21.921875 
Q 17.484375 14.15625 20.5 10.265625 
Q 23.53125 6.390625 29.59375 6.390625 
Q 36.859375 6.390625 41.078125 11.03125 
Q 45.3125 15.671875 45.3125 23.6875 
L 45.3125 54.6875 
L 54.296875 54.6875 
L 54.296875 0 
L 45.3125 0 
L 45.3125 8.40625 
Q 42.046875 3.421875 37.71875 1 
Q 33.40625 -1.421875 27.6875 -1.421875 
Q 18.265625 -1.421875 13.375 4.4375 
Q 8.5 10.296875 8.5 21.578125 
z
M 31.109375 56 
z
" id="DejaVuSans-75"/>
    </defs>
    <g style="fill:#b4b4b4;" transform="translate(4.32 145.317656)scale(0.15 -0.15)">
     <use xlink:href="#DejaVuSans-54"/>
     <use x="60.865234" xlink:href="#DejaVuSans-72"/>
     <use x="101.978516" xlink:href="#DejaVuSans-75"/>
     <use x="165.357422" xlink:href="#DejaVuSans-65"/>
     <use x="226.880859" xlink:href="#DejaVuSans-20"/>
     <use x="258.667969" xlink:href="#DejaVuSans-73"/>
     <use x="310.767578" xlink:href="#DejaVuSans-61"/>
     <use x="372.046875" xlink:href="#DejaVuSans-6d"/>
     <use x="469.458984" xlink:href="#DejaVuSans-70"/>
     <use x="532.935547" xlink:href="#DejaVuSans-6c"/>
     <use x="560.71875" xlink:href="#DejaVuSans-69"/>
     <use x="588.501953" xlink:href="#DejaVuSans-6e"/>
     <use x="651.880859" xlink:href="#DejaVuSans-67"/>
    </g>
    <!-- distribution -->
    <g style="fill:#b4b4b4;" transform="translate(4.32 162.114375)scale(0.15 -0.15)">
     <use xlink:href="#DejaVuSans-64"/>
     <use x="63.476562" xlink:href="#DejaVuSans-69"/>
     <use x="91.259766" xlink:href="#DejaVuSans-73"/>
     <use x="143.359375" xlink:href="#DejaVuSans-74"/>
     <use x="182.568359" xlink:href="#DejaVuSans-72"/>
     <use x="223.681641" xlink:href="#DejaVuSans-69"/>
     <use x="251.464844" xlink:href="#DejaVuSans-62"/>
     <use x="314.941406" xlink:href="#DejaVuSans-75"/>
     <use x="378.320312" xlink:href="#DejaVuSans-74"/>
     <use x="417.529297" xlink:href="#DejaVuSans-69"/>
     <use x="445.3125" xlink:href="#DejaVuSans-6f"/>
     <use x="506.494141" xlink:href="#DejaVuSans-6e"/>
    </g>
    <!-- (we don't know -->
    <defs>
     <path d="M 4.203125 54.6875 
L 13.1875 54.6875 
L 24.421875 12.015625 
L 35.59375 54.6875 
L 46.1875 54.6875 
L 57.421875 12.015625 
L 68.609375 54.6875 
L 77.59375 54.6875 
L 63.28125 0 
L 52.6875 0 
L 40.921875 44.828125 
L 29.109375 0 
L 18.5 0 
z
" id="DejaVuSans-77"/>
     <path d="M 17.921875 72.90625 
L 17.921875 45.796875 
L 9.625 45.796875 
L 9.625 72.90625 
z
" id="DejaVuSans-27"/>
     <path d="M 9.078125 75.984375 
L 18.109375 75.984375 
L 18.109375 31.109375 
L 44.921875 54.6875 
L 56.390625 54.6875 
L 27.390625 29.109375 
L 57.625 0 
L 45.90625 0 
L 18.109375 26.703125 
L 18.109375 0 
L 9.078125 0 
z
" id="DejaVuSans-6b"/>
    </defs>
    <g style="fill:#b4b4b4;" transform="translate(4.32 178.911094)scale(0.15 -0.15)">
     <use xlink:href="#DejaVuSans-28"/>
     <use x="39.013672" xlink:href="#DejaVuSans-77"/>
     <use x="120.800781" xlink:href="#DejaVuSans-65"/>
     <use x="182.324219" xlink:href="#DejaVuSans-20"/>
     <use x="214.111328" xlink:href="#DejaVuSans-64"/>
     <use x="277.587891" xlink:href="#DejaVuSans-6f"/>
     <use x="338.769531" xlink:href="#DejaVuSans-6e"/>
     <use x="402.148438" xlink:href="#DejaVuSans-27"/>
     <use x="429.638672" xlink:href="#DejaVuSans-74"/>
     <use x="468.847656" xlink:href="#DejaVuSans-20"/>
     <use x="500.634766" xlink:href="#DejaVuSans-6b"/>
     <use x="558.544922" xlink:href="#DejaVuSans-6e"/>
     <use x="621.923828" xlink:href="#DejaVuSans-6f"/>
     <use x="683.105469" xlink:href="#DejaVuSans-77"/>
    </g>
    <!-- about it) -->
    <g style="fill:#b4b4b4;" transform="translate(4.32 195.707812)scale(0.15 -0.15)">
     <use xlink:href="#DejaVuSans-61"/>
     <use x="61.279297" xlink:href="#DejaVuSans-62"/>
     <use x="124.755859" xlink:href="#DejaVuSans-6f"/>
     <use x="185.9375" xlink:href="#DejaVuSans-75"/>
     <use x="249.316406" xlink:href="#DejaVuSans-74"/>
     <use x="288.525391" xlink:href="#DejaVuSans-20"/>
     <use x="320.3125" xlink:href="#DejaVuSans-69"/>
     <use x="348.095703" xlink:href="#DejaVuSans-74"/>
     <use x="387.304688" xlink:href="#DejaVuSans-29"/>
    </g>
   </g>
   <g id="text_12">
    <!-- True parameter -->
    <g style="fill:#00bfff;" transform="translate(111.728681 16.323281)scale(0.15 -0.15)">
     <use xlink:href="#DejaVuSans-54"/>
     <use x="60.865234" xlink:href="#DejaVuSans-72"/>
     <use x="101.978516" xlink:href="#DejaVuSans-75"/>
     <use x="165.357422" xlink:href="#DejaVuSans-65"/>
     <use x="226.880859" xlink:href="#DejaVuSans-20"/>
     <use x="258.667969" xlink:href="#DejaVuSans-70"/>
     <use x="322.144531" xlink:href="#DejaVuSans-61"/>
     <use x="383.423828" xlink:href="#DejaVuSans-72"/>
     <use x="424.537109" xlink:href="#DejaVuSans-61"/>
     <use x="485.816406" xlink:href="#DejaVuSans-6d"/>
     <use x="583.228516" xlink:href="#DejaVuSans-65"/>
     <use x="644.751953" xlink:href="#DejaVuSans-74"/>
     <use x="683.960938" xlink:href="#DejaVuSans-65"/>
     <use x="745.484375" xlink:href="#DejaVuSans-72"/>
    </g>
    <!-- $\mu$ -->
    <defs>
     <path d="M -1.3125 -20.796875 
L 13.375 54.6875 
L 22.40625 54.6875 
L 15.765625 20.65625 
Q 15.578125 19.625 15.421875 18.359375 
Q 15.28125 17.09375 15.28125 15.828125 
Q 15.28125 11.28125 18.140625 8.828125 
Q 21 6.390625 26.3125 6.390625 
Q 33.546875 6.390625 37.984375 10.484375 
Q 42.4375 14.59375 44 22.796875 
L 50.203125 54.6875 
L 59.1875 54.6875 
L 51.03125 12.640625 
Q 50.828125 11.71875 50.75 11.03125 
Q 50.6875 10.359375 50.6875 9.8125 
Q 50.6875 8.296875 51.296875 7.59375 
Q 51.90625 6.890625 53.21875 6.890625 
Q 53.71875 6.890625 54.5625 7.125 
Q 55.421875 7.375 56.984375 8.015625 
L 55.609375 0.78125 
Q 53.46875 -0.296875 51.515625 -0.859375 
Q 49.5625 -1.421875 47.703125 -1.421875 
Q 44.484375 -1.421875 42.65625 0.625 
Q 40.828125 2.6875 40.828125 6.296875 
Q 38.09375 2.390625 34.296875 0.484375 
Q 30.515625 -1.421875 25.390625 -1.421875 
Q 20.84375 -1.421875 17.453125 0.671875 
Q 14.0625 2.78125 12.984375 6.203125 
L 7.71875 -20.796875 
z
" id="DejaVuSans-Oblique-3bc"/>
    </defs>
    <g style="fill:#00bfff;" transform="translate(220.117743 33.12)scale(0.15 -0.15)">
     <use transform="translate(0 0.3125)" xlink:href="#DejaVuSans-Oblique-3bc"/>
    </g>
   </g>
  </g>
 </g>
 <defs>
  <clipPath id="p4eb3bd56d0">
   <rect height="201.6" width="423.36" x="4.32" y="43.2"/>
  </clipPath>
 </defs>
</svg>
