<?xml version="1.0" encoding="utf-8"?>
<!-- Generator: Adobe Illustrator 16.0.4, SVG Export Plug-In . SVG Version: 6.00 Build 0)  -->
<!DOCTYPE svg PUBLIC "-//W3C//DTD SVG 1.1//EN" "http://www.w3.org/Graphics/SVG/1.1/DTD/svg11.dtd">
<svg version="1.1" id="Layer_1" xmlns="http://www.w3.org/2000/svg" xmlns:xlink="http://www.w3.org/1999/xlink" x="0px" y="0px"
	 width="345.6px" height="338.4px" viewBox="0 0 345.6 338.4" enable-background="new 0 0 345.6 338.4" xml:space="preserve">
<circle fill="#FB4C52" cx="175.865" cy="285.398" r="49.6"/>
<circle fill="none" stroke="#FFFFFF" stroke-width="2" cx="175.865" cy="285.398" r="49.6"/>
<path fill="none" stroke="#FFFFFF" stroke-width="2" d="M154.493,320.746c0.027,0.105,0.05,0.215,0.074,0.32
	c0.269-0.07,0.582-0.078,0.804-0.219c3.313-2.109,6.688-4.082,10.375-5.488c2.649-1.017,5.332-1.938,7.754-3.496
	c1.681-1.086,3.465-2.039,5.276-2.883c2.57-1.191,4.888-2.707,6.863-4.73c2.973-3.047,6.242-5.733,9.688-8.227
	c1.285-0.935,2.484-1.992,3.691-3.031c0.281-0.242,0.438-0.633,0.648-0.953c0.473-0.729,0.816-1.602,1.445-2.156
	c1.445-1.276,1.781-2.797,1.406-4.582c-0.315-1.483-0.668-2.961-0.949-4.452c-0.402-2.164-0.996-4.246-2.316-6.052
	c-0.449-0.616-0.684-1.246-0.68-2.03c0.003-0.509-0.219-1.06-0.469-1.521c-1.211-2.203-2.681-4.223-4.465-5.996
	c-0.349-0.348-0.375-0.621-0.298-1.078c0.13-0.729,0.363-1.578,0.117-2.207c-0.801-2.051-2.172-3.582-4.483-4.039
	c-2.388-0.473-4.777-0.34-7.177-0.12c-0.297,0.026-0.672,0.008-0.896-0.152c-0.862-0.621-1.805-0.646-2.741-0.359
	c-2.195,0.668-4.082,1.879-5.734,3.465c-0.156,0.152-0.312,0.324-0.406,0.521c-1.152,2.352-2.977,4.19-4.692,6.102
	c-2.918,3.238-4.882,6.953-5.867,11.199c-0.554,2.387-1.129,4.766-1.722,7.141c-0.172,0.685-0.321,1.438-0.715,1.988
	c-1.715,2.383-3.887,4.195-6.782,5.004c-1.46,0.41-2.957,0.728-4.367,1.267c-3.312,1.272-6.586,2.651-9.867,4.008
	c-0.176,0.07-0.273,0.32-0.41,0.488c0.066,0.059,0.129,0.116,0.191,0.176c0.223-0.086,0.45-0.164,0.672-0.258
	c2.145-0.898,4.27-1.853,6.438-2.688c2.125-0.812,4.246-1.695,6.449-2.203c3.102-0.715,5.508-2.379,7.508-4.723
	c0.519-0.609,0.906-1.402,1.148-2.176c0.446-1.396,0.723-2.845,1.086-4.271c0.559-2.18,1.012-4.395,1.723-6.522
	c1.16-3.474,3.254-6.396,5.734-9.066c1.113-1.199,2.285-2.426,3.062-3.84c1.527-2.777,3.98-4.164,6.785-5.146
	c0.767-0.27,1.527-0.168,2.246,0.316c0.293,0.195,0.724,0.273,1.086,0.266c1.691-0.047,3.379-0.229,5.066-0.194
	c2.348,0.051,4.398,0.737,5.73,2.944c0.723,1.195,0.703,2.281,0.141,3.488c-1.043-0.422-2.117-0.668-2.895-1.625
	c-0.336-0.414-1.056-0.703-1.613-0.723c-1.191-0.039-2.387,0.125-3.583,0.219c-0.464,0.035-0.925,0.102-1.386,0.152
	c-0.004,0.09-0.008,0.18-0.013,0.27c0.277,0.039,0.56,0.125,0.832,0.103c1.074-0.095,2.146-0.238,3.216-0.336
	c1.262-0.117,2.25,0.348,2.922,1.444c0.27,0.438,0.556,0.867,0.848,1.289c0.211,0.301,0.422,0.609,0.684,0.859
	c0.121,0.117,0.363,0.104,0.551,0.151c-0.065-0.159-0.104-0.332-0.203-0.473c-0.289-0.418-0.598-0.82-0.897-1.229
	c0.052-0.06,0.108-0.121,0.164-0.185c0.656,0.355,1.44,0.578,1.953,1.082c1.828,1.797,3.331,3.855,4.521,6.129
	c0.211,0.402,0.254,0.892,0.371,1.336c-0.103,0.056-0.203,0.113-0.302,0.168c-0.547-0.655-1.215-1.25-1.612-1.983
	c-0.605-1.117-1.438-1.738-2.673-1.938c-0.987-0.164-1.957-0.422-2.938-0.629c-0.082-0.02-0.176,0.027-0.495,0.086
	c0.327,0.246,0.491,0.453,0.694,0.504c0.758,0.185,1.523,0.383,2.301,0.461c1.384,0.138,2.32,0.789,2.832,2.095
	c0.26,0.655,0.595,1.288,0.931,1.913c0.121,0.228,0.349,0.398,0.522,0.595c0.066-0.039,0.138-0.082,0.203-0.121
	c-0.117-0.301-0.233-0.599-0.367-0.945c1.422,1.129,3.199,4.18,3.259,5.642c-0.181-0.294-0.316-0.517-0.457-0.742
	c-0.087,0.026-0.173,0.055-0.259,0.082c0.074,0.285,0.074,0.629,0.23,0.854c0.844,1.191,1.305,2.449,0.984,3.935
	c-0.094,0.438,0.016,0.793,0.617,0.479c0.141,0.621,0.254,1.172,0.387,1.719c0.43,1.777,0.07,3.273-1.422,4.47
	c-0.478,0.383-0.945,0.94-1.113,1.512c-0.301,0.984-0.922,1.647-1.668,2.258c-0.625,0.512-1.238,1.047-1.895,1.516
	c-3.97,2.853-7.738,5.941-11.164,9.438c-1.504,1.535-3.28,2.703-5.219,3.652c-2.021,0.987-3.978,2.108-5.974,3.145
	c-1.738,0.898-3.472,1.801-5.242,2.625c-1.152,0.535-2.367,0.938-3.555,1.396C161.09,316.621,157.835,318.758,154.493,320.746z"/>
<path fill="none" stroke="#FFFFFF" stroke-width="2" d="M154.493,320.746c3.343-1.983,6.597-4.121,10.257-5.527
	c1.188-0.456,2.403-0.858,3.555-1.395c1.77-0.824,3.504-1.727,5.242-2.625c1.996-1.035,3.953-2.156,5.974-3.145
	c1.938-0.949,3.715-2.117,5.219-3.652c3.426-3.496,7.195-6.582,11.164-9.438c0.656-0.469,1.27-1.004,1.895-1.516
	c0.746-0.609,1.367-1.27,1.668-2.258c0.172-0.57,0.637-1.129,1.112-1.512c1.493-1.195,1.853-2.688,1.423-4.47
	c-0.133-0.547-0.246-1.098-0.387-1.719c-0.602,0.312-0.711-0.043-0.617-0.479c0.32-1.48-0.141-2.742-0.984-3.935
	c-0.156-0.227-0.156-0.565-0.229-0.854c0.086-0.027,0.173-0.052,0.258-0.078c0.142,0.223,0.276,0.444,0.457,0.737
	c-0.06-1.461-1.836-4.508-3.258-5.641c0.133,0.348,0.25,0.646,0.366,0.945c-0.065,0.043-0.137,0.082-0.203,0.125
	c-0.176-0.199-0.401-0.371-0.522-0.595c-0.336-0.625-0.672-1.258-0.93-1.918c-0.513-1.305-1.449-1.957-2.832-2.094
	c-0.777-0.078-1.543-0.272-2.302-0.461c-0.202-0.051-0.361-0.254-0.694-0.504c0.319-0.059,0.418-0.104,0.5-0.086
	c0.978,0.207,1.944,0.465,2.935,0.629c1.233,0.199,2.065,0.824,2.672,1.938c0.397,0.733,1.065,1.327,1.612,1.983
	c0.099-0.055,0.199-0.113,0.302-0.168c-0.117-0.445-0.16-0.934-0.371-1.332c-1.188-2.272-2.692-4.336-4.521-6.133
	c-0.512-0.5-1.296-0.727-1.953-1.082c-0.055,0.062-0.108,0.125-0.163,0.184c0.301,0.41,0.608,0.816,0.897,1.23
	c0.098,0.141,0.137,0.316,0.202,0.473c-0.188-0.047-0.43-0.035-0.551-0.151c-0.262-0.25-0.473-0.56-0.684-0.859
	c-0.293-0.422-0.578-0.848-0.848-1.289c-0.672-1.094-1.66-1.559-2.922-1.445c-1.07,0.099-2.142,0.242-3.215,0.341
	c-0.273,0.022-0.556-0.066-0.832-0.105c0.004-0.09,0.008-0.176,0.012-0.266c0.461-0.056,0.922-0.121,1.387-0.156
	c1.191-0.094,2.391-0.258,3.582-0.215c0.559,0.016,1.277,0.305,1.613,0.723c0.777,0.953,1.852,1.199,2.895,1.621
	c0.562-1.207,0.582-2.293-0.141-3.488c-1.332-2.207-3.383-2.895-5.73-2.944c-1.688-0.035-3.375,0.151-5.066,0.194
	c-0.362,0.008-0.793-0.069-1.086-0.266c-0.719-0.484-1.479-0.582-2.246-0.316c-2.805,0.98-5.257,2.367-6.784,5.146
	c-0.777,1.414-1.95,2.641-3.062,3.84c-2.48,2.672-4.57,5.594-5.734,9.066c-0.711,2.129-1.164,4.344-1.723,6.522
	c-0.363,1.426-0.644,2.875-1.086,4.273c-0.242,0.77-0.625,1.562-1.148,2.172c-2,2.344-4.407,4.008-7.508,4.723
	c-2.203,0.508-4.324,1.392-6.449,2.203c-2.168,0.836-4.293,1.789-6.438,2.688c-0.223,0.094-0.449,0.172-0.672,0.258
	c-0.062-0.06-0.125-0.117-0.191-0.177c0.137-0.163,0.234-0.413,0.41-0.487c3.281-1.355,6.555-2.734,9.867-4.004
	c1.41-0.543,2.906-0.855,4.367-1.267c2.895-0.812,5.067-2.621,6.782-5.008c0.394-0.551,0.543-1.305,0.714-1.984
	c0.594-2.379,1.168-4.758,1.723-7.145c0.985-4.246,2.949-7.957,5.867-11.199c1.715-1.91,3.543-3.75,4.692-6.102
	c0.094-0.195,0.25-0.367,0.406-0.521c1.652-1.586,3.54-2.797,5.734-3.465c0.938-0.285,1.879-0.262,2.742,0.359
	c0.224,0.16,0.599,0.18,0.896,0.151c2.398-0.219,4.785-0.352,7.176,0.121c2.312,0.457,3.684,1.988,4.484,4.039
	c0.245,0.629,0.012,1.48-0.117,2.207c-0.078,0.457-0.052,0.73,0.297,1.078c1.785,1.777,3.254,3.797,4.465,6
	c0.25,0.457,0.473,1.012,0.468,1.517c-0.003,0.784,0.231,1.413,0.681,2.03c1.316,1.806,1.914,3.888,2.316,6.051
	c0.281,1.492,0.633,2.97,0.949,4.453c0.379,1.785,0.039,3.306-1.406,4.582c-0.629,0.556-0.973,1.431-1.445,2.156
	c-0.211,0.324-0.367,0.711-0.648,0.953c-1.207,1.039-2.405,2.098-3.69,3.031c-3.444,2.492-6.719,5.184-9.688,8.227
	c-1.977,2.027-4.293,3.539-6.862,4.73c-1.812,0.844-3.599,1.797-5.277,2.883c-2.422,1.562-5.105,2.483-7.754,3.496
	c-3.687,1.406-7.062,3.379-10.375,5.487c-0.222,0.146-0.535,0.152-0.804,0.22C154.542,320.961,154.52,320.852,154.493,320.746z"/>
<path fill="#FB4C52" d="M204.664,202.598c0,15.905-12.896,28.801-28.797,28.801c-15.907,0-28.801-12.896-28.801-28.801
	c0-15.906,12.894-28.802,28.801-28.802C191.771,173.797,204.664,186.691,204.664,202.598z"/>
<path fill="none" stroke="#FFFFFF" stroke-width="2" d="M204.664,202.598c0,15.905-12.896,28.801-28.797,28.801
	c-15.907,0-28.801-12.896-28.801-28.801c0-15.906,12.894-28.802,28.801-28.802C191.771,173.797,204.664,186.691,204.664,202.598z"/>
<path fill="none" stroke="#FFFFFF" stroke-width="2" d="M192.272,216.223c-8.598,3.379-7.703,1.969-9.746,2.789
	c-0.297,0.116-6.383-3.212-8.69-3.41c-2.308-0.199-11.14,1.694-15.855-2.465c-4.715-4.16-2.024-12.806-2.024-12.806
	s0.313-11.315,9.106-14.742c7.32-2.854,10.34-1.602,10.34-1.602l10.367,3.141l3.324,2.656c0,0,5.336,8.059,6.172,9.074
	C196.099,199.875,202.31,212.277,192.272,216.223z"/>
<path fill="#FBC15E" d="M101.465,78.199c0,27.39-22.207,49.597-49.597,49.597c-27.395,0-49.602-22.207-49.602-49.597
	c0-27.395,22.207-49.602,49.602-49.602C79.258,28.598,101.465,50.805,101.465,78.199z"/>
<path fill="none" stroke="#FFFFFF" stroke-width="2" d="M101.465,78.199c0,27.39-22.207,49.597-49.597,49.597
	c-27.395,0-49.602-22.207-49.602-49.597c0-27.395,22.207-49.602,49.602-49.602C79.258,28.598,101.465,50.805,101.465,78.199z"/>
<path fill="none" stroke="#FFFFFF" stroke-width="2" d="M33.828,111.339c0.028,0.103,0.059,0.2,0.086,0.302
	c0.278-0.055,0.586-0.048,0.829-0.173c1.257-0.663,2.492-1.366,3.746-2.03c0.32-0.168,0.679-0.273,1.031-0.375
	c0.836-0.246,1.746-0.34,2.512-0.727c1.769-0.891,3.511-1.852,5.191-2.906c4.406-2.759,8.121-6.398,12.121-9.673
	c0.192-0.155,0.36-0.44,0.387-0.683c0.082-0.754,0.562-1.184,1.164-1.496c0.828-0.426,1.66-0.855,2.523-1.196
	c2.989-1.179,4.227-5.265,1.922-7.515c-0.367-0.36-0.308-0.703-0.039-1.11c0.449-0.671,0.883-1.354,1.262-2.065
	c0.48-0.902,0.601-1.867,0.246-2.849c-0.477-1.315-1.508-2.147-2.648-2.851c-0.883-0.551-1.79-1.035-2.899-0.571
	c-0.144,0.06-0.406-0.16-0.613-0.25c0.086-0.183,0.121-0.429,0.265-0.539c0.446-0.343,0.907-0.675,1.399-0.944
	c3.242-1.77,6.457-3.52,9.371-5.888c3.262-2.644,6.914-4.812,10.394-7.194c0.872-0.595,1.758-1.168,2.579-1.828
	c0.312-0.25,0.582-0.691,0.656-1.086c0.398-2.021-1.488-4.469-3.918-3.767c-2.41,0.696-4.758,1.509-6.91,2.832
	c-1.082,0.664-2.235,1.22-3.356,1.821c-4.121,2.211-8.383,4.183-12.058,7.145c-0.684,0.551-1.457,0.991-2.192,1.484
	c-0.511,0.339-0.855,0.188-1.097-0.348c-0.524-1.16-0.477-2.328-0.075-3.508c0.739-2.156,1.344-4.363,2.231-6.453
	c1.558-3.676,3.293-7.271,4.93-10.91c0.46-1.024,0.933-2.059,1.214-3.141c0.309-1.191-0.054-2.312-1.062-3.086
	c-0.984-0.762-2.106-0.669-3.109-0.062c-0.653,0.394-1.286,0.938-1.723,1.558c-3.594,5.082-7.25,10.129-9.785,15.868
	c-0.762,1.727-1.524,3.457-2.403,5.121c-0.515,0.98-1.175,1.922-1.929,2.738c-0.895,0.969-1.606,2.008-2.188,3.19
	c-0.461,0.927-1.082,1.793-1.738,2.603c-1.031,1.277-2.219,2.433-3.223,3.729c-3.761,4.871-7.461,9.789-11.222,14.664
	c-0.43,0.56-1.024,1.067-1.645,1.399c-1.949,1.031-3.949,1.965-5.926,2.937c-0.168,0.082-0.324,0.188-0.488,0.282
	c0.016,0.086,0.027,0.168,0.039,0.25c0.215-0.016,0.457,0.031,0.637-0.055c1.98-0.961,3.949-1.957,5.933-2.914
	c0.797-0.387,1.414-0.935,1.926-1.652c0.914-1.277,1.867-2.523,2.801-3.786c3.656-4.922,7.269-9.879,11.449-14.382
	c0.832-0.895,1.473-1.868,2-2.965c0.418-0.871,0.91-1.774,1.586-2.438c1.195-1.18,2.106-2.505,2.781-4.02
	c0.379-0.852,0.817-1.676,1.172-2.535c2.571-6.297,6.434-11.825,10.317-17.336c0.496-0.704,1.14-1.395,1.875-1.816
	c1.722-0.996,3.371-0.07,3.507,1.909c0.036,0.539-0.109,1.134-0.32,1.638c-0.492,1.176-1.031,2.332-1.629,3.453
	c-2.801,5.23-4.703,10.816-6.582,16.409c-0.414,1.243-0.328,2.478,0.274,3.642c0.418,0.805,0.828,0.957,1.605,0.492
	c0.945-0.562,1.852-1.199,2.742-1.848c2.141-1.559,4.321-3.031,6.715-4.215c2.895-1.43,5.723-3.004,8.535-4.598
	c2.086-1.185,4.313-1.953,6.594-2.638c1.762-0.53,3.449,1.278,3.262,2.957c-0.043,0.41-0.317,0.907-0.645,1.153
	c-1.137,0.852-2.347,1.602-3.519,2.41c-3.246,2.238-6.602,4.347-9.696,6.785c-2.195,1.729-4.472,3.246-6.949,4.504
	c-0.762,0.387-1.527,0.781-2.262,1.223c-0.5,0.3-0.98,0.652-1.406,1.05c-0.176,0.164-0.328,0.582-0.238,0.755
	c0.148,0.288,0.469,0.534,0.773,0.688c0.184,0.093,0.473-0.055,0.715-0.047c0.473,0.012,1.035-0.09,1.406,0.129
	c0.918,0.539,1.832,1.14,2.594,1.875c1.043,1.011,1.168,2.297,0.492,3.586c-0.437,0.84-0.972,1.629-1.515,2.52
	c-0.852-0.699-1.641-1.345-2.434-1.98c-0.098-0.078-0.234-0.11-0.351-0.16c-0.012,0.148-0.094,0.363-0.024,0.438
	c0.277,0.305,0.602,0.562,0.903,0.844c0.828,0.785,1.746,1.504,2.46,2.383c1.352,1.656,1.055,4.136-0.55,5.547
	c-0.125,0.109-0.289,0.273-0.422,0.262c-1.266-0.121-2.309,0.352-3.11,1.27c-0.679,0.781-1.8,1.246-1.863,2.512
	c-0.008,0.167-0.25,0.348-0.414,0.484c-2.152,1.824-4.262,3.703-6.477,5.449c-4.097,3.215-8.136,6.487-13.417,7.762
	C37.114,109.214,35.516,110.464,33.828,111.339z"/>
<path fill="none" stroke="#FFFFFF" stroke-width="2" d="M33.828,111.339c1.684-0.875,3.286-2.125,5.079-2.558
	c5.285-1.274,9.324-4.547,13.418-7.762c2.218-1.742,4.324-3.625,6.476-5.449c0.164-0.137,0.41-0.317,0.418-0.484
	c0.059-1.262,1.18-1.73,1.863-2.512c0.801-0.914,1.844-1.391,3.106-1.27c0.133,0.016,0.297-0.148,0.422-0.262
	c1.605-1.411,1.902-3.891,0.551-5.547c-0.715-0.879-1.629-1.598-2.461-2.383c-0.297-0.281-0.625-0.539-0.903-0.844
	c-0.066-0.074,0.016-0.285,0.028-0.438c0.117,0.054,0.253,0.082,0.351,0.16c0.793,0.636,1.578,1.281,2.434,1.98
	c0.539-0.891,1.074-1.68,1.515-2.52c0.676-1.289,0.551-2.571-0.496-3.582c-0.761-0.739-1.675-1.34-2.593-1.879
	c-0.368-0.219-0.93-0.114-1.407-0.129c-0.238-0.008-0.531,0.14-0.715,0.047c-0.304-0.149-0.625-0.395-0.773-0.688
	c-0.086-0.173,0.063-0.587,0.242-0.755c0.426-0.394,0.906-0.75,1.406-1.047c0.735-0.444,1.497-0.835,2.262-1.226
	c2.473-1.258,4.75-2.774,6.949-4.504c3.09-2.438,6.446-4.543,9.696-6.785c1.168-0.809,2.382-1.555,3.515-2.41
	c0.328-0.243,0.602-0.743,0.649-1.148c0.183-1.684-1.504-3.492-3.262-2.961C79.312,55.07,77.09,55.839,75,57.023
	c-2.812,1.594-5.64,3.168-8.535,4.598c-2.39,1.184-4.57,2.656-6.715,4.215c-0.886,0.652-1.796,1.285-2.742,1.848
	c-0.777,0.465-1.187,0.316-1.601-0.488c-0.606-1.168-0.688-2.402-0.274-3.641c1.875-5.598,3.781-11.184,6.578-16.414
	c0.602-1.121,1.141-2.277,1.629-3.449c0.215-0.508,0.356-1.103,0.321-1.642c-0.137-1.979-1.786-2.905-3.508-1.909
	c-0.731,0.426-1.379,1.112-1.871,1.816c-3.883,5.516-7.75,11.039-10.321,17.336c-0.351,0.859-0.789,1.684-1.168,2.535
	c-0.675,1.515-1.586,2.84-2.781,4.02c-0.68,0.668-1.172,1.566-1.59,2.438c-0.523,1.097-1.168,2.07-1.996,2.968
	c-4.183,4.5-7.797,9.457-11.449,14.383c-0.938,1.259-1.891,2.505-2.805,3.782c-0.511,0.718-1.125,1.27-1.922,1.652
	c-1.988,0.957-3.953,1.953-5.937,2.918c-0.18,0.086-0.422,0.039-0.633,0.051c-0.016-0.082-0.027-0.164-0.039-0.246
	c0.16-0.098,0.32-0.204,0.488-0.286c1.977-0.972,3.977-1.905,5.922-2.937c0.625-0.332,1.215-0.84,1.649-1.399
	c3.757-4.875,7.461-9.793,11.222-14.664c1-1.297,2.188-2.448,3.219-3.726c0.656-0.813,1.281-1.676,1.738-2.606
	c0.582-1.179,1.293-2.222,2.188-3.19c0.754-0.816,1.414-1.754,1.929-2.738c0.879-1.664,1.645-3.395,2.407-5.121
	c2.535-5.734,6.191-10.786,9.785-15.868c0.437-0.621,1.07-1.164,1.723-1.558c1-0.606,2.121-0.699,3.109,0.062
	c1.004,0.774,1.371,1.896,1.058,3.091c-0.277,1.078-0.75,2.112-1.21,3.141c-1.637,3.636-3.375,7.234-4.934,10.906
	c-0.883,2.09-1.488,4.301-2.227,6.453c-0.406,1.18-0.453,2.348,0.071,3.508c0.242,0.535,0.59,0.69,1.097,0.348
	c0.735-0.493,1.508-0.93,2.192-1.484c3.679-2.962,7.937-4.934,12.058-7.145c1.121-0.602,2.274-1.153,3.356-1.821
	c2.152-1.323,4.504-2.136,6.91-2.832c2.434-0.702,4.32,1.746,3.922,3.767c-0.078,0.395-0.348,0.836-0.66,1.086
	c-0.817,0.66-1.707,1.233-2.578,1.828c-3.477,2.383-7.129,4.551-10.391,7.199c-2.918,2.363-6.129,4.116-9.375,5.887
	c-0.492,0.266-0.953,0.598-1.398,0.94c-0.141,0.114-0.18,0.356-0.266,0.539c0.207,0.09,0.469,0.31,0.617,0.25
	c1.106-0.461,2.012,0.024,2.899,0.571c1.136,0.707,2.171,1.535,2.648,2.855c0.355,0.977,0.23,1.941-0.246,2.844
	c-0.383,0.711-0.817,1.397-1.266,2.065c-0.269,0.407-0.328,0.75,0.039,1.11c2.305,2.25,1.071,6.34-1.922,7.515
	c-0.863,0.341-1.695,0.771-2.519,1.196c-0.606,0.312-1.082,0.742-1.168,1.5c-0.027,0.242-0.191,0.523-0.383,0.679
	c-4.004,3.274-7.719,6.914-12.125,9.677c-1.68,1.051-3.422,2.012-5.187,2.902c-0.766,0.387-1.676,0.484-2.516,0.727
	c-0.352,0.102-0.711,0.207-1.027,0.375c-1.258,0.668-2.493,1.371-3.75,2.03c-0.239,0.125-0.547,0.118-0.825,0.177
	C33.887,111.54,33.855,111.441,33.828,111.339z"/>
<path fill="#FBC15E" d="M151.266,120.796c0,15.907-12.895,28.802-28.801,28.802c-15.906,0-28.801-12.895-28.801-28.802
	c0-15.901,12.895-28.796,28.801-28.796C138.371,92,151.266,104.895,151.266,120.796z"/>
<path fill="none" stroke="#FFFFFF" stroke-width="2" d="M151.266,120.796c0,15.907-12.895,28.802-28.801,28.802
	c-15.906,0-28.801-12.895-28.801-28.802c0-15.901,12.895-28.796,28.801-28.796C138.371,92,151.266,104.895,151.266,120.796z"/>
<path fill="none" stroke="#FFFFFF" stroke-width="2" d="M123.309,139.036c-0.008,1.52,1.328,2.922,2.793,2.933
	c1.445,0.013,2.555-1.175,2.547-2.729c-0.004-1.617-1.215-2.977-2.649-2.981C124.547,136.25,123.312,137.527,123.309,139.036z
	 M140.84,122.406c1.715,0,3-1.176,3-2.738c0-1.411-1.465-2.738-3.015-2.734c-1.555,0-2.848,1.293-2.86,2.852
	C137.957,121.266,139.207,122.406,140.84,122.406z M146.128,120.425c-0.086,0.22-0.187,0.431-0.258,0.649
	c-0.863,2.621-3.433,4.023-6.117,3.328c-2.008-0.521-3.992-1.121-6.011-1.563c-2.454-0.539-4.856-0.034-7.215,0.646
	c-0.192,0.055-0.414,0.397-0.426,0.617c-0.195,3.387,0.457,6.578,2.242,9.5c0.617,1.008,1.188,2.043,1.813,3.047
	c1.718,2.776,0.363,6.711-2.985,7.453c-0.101,0.023-0.188,0.09-0.281,0.137h-1.105c-1.536-0.461-2.903-1.149-3.856-2.531
	c-1.687-2.465-1.102-5.52,1.41-6.934c0.442-0.246,0.977-0.359,1.485-0.457c0.929-0.176,1.238-0.582,0.953-1.488
	c-0.215-0.672-0.524-1.317-0.782-1.977c-0.8-2.052-1.628-4.095-2.386-6.164c-0.203-0.562-0.477-0.773-1.062-0.802
	c-4.695-0.211-9.39-0.429-14.082-0.687c-1.332-0.078-2.679-0.18-3.972-0.481c-2.063-0.479-3.614-1.909-4.161-3.668
	c7.258,0.243,14.465,0.481,21.821,0.724c-2.028-7.021-4.008-13.888-6.02-20.845c1.852,0.224,3.192,1.095,4.133,2.489
	c0.594,0.878,1.086,1.871,1.406,2.878c1.571,4.927,3.074,9.875,4.574,14.825c0.18,0.586,0.434,0.808,1.071,0.879
	c2.554,0.281,5.101,0.648,7.648,0.984c0.313,0.039,0.629,0.086,0.942,0.082c0.816-0.013,1.16-0.388,1.066-1.191
	c-0.43-3.836,3.191-5.93,6.441-4.719c1.813,0.672,3.043,1.914,3.543,3.82c0.036,0.125,0.114,0.23,0.172,0.348L146.128,120.425
	L146.128,120.425z"/>
<path fill="#00BFFF" d="M343.066,78.199c0,27.39-22.207,49.597-49.603,49.597c-27.391,0-49.598-22.207-49.598-49.597
	c0-27.395,22.207-49.602,49.598-49.602C320.859,28.598,343.066,50.805,343.066,78.199z"/>
<path fill="none" stroke="#FFFFFF" stroke-width="2" d="M343.066,78.199c0,27.39-22.207,49.597-49.603,49.597
	c-27.391,0-49.598-22.207-49.598-49.597c0-27.395,22.207-49.602,49.598-49.602C320.859,28.598,343.066,50.805,343.066,78.199z"/>
<path fill="none" stroke="#FFFFFF" stroke-width="2" d="M316.969,48.507c-0.078-0.64-0.012-1.312-0.25-1.847
	c-0.819-1.84-2.457-2.391-4.5-1.562c-2.362,0.957-4.469,2.379-6.405,3.991c-2.978,2.478-5.824,5.103-8.75,7.638
	c-1.113,0.965-2.285,1.862-3.474,2.828c-0.194-1.492-0.875-2.059-2.271-1.781c-0.952,0.187-1.858,0.59-2.784,0.897
	c-1.617,0.543-3.203,1.293-4.867,1.582c-2.021,0.356-3.453,1.29-4.556,2.978c-2.043,3.133-4.444,5.979-6.965,8.733
	c-0.315,0.353-0.569,0.802-0.727,1.25c-1.043,3.009-2.086,6.017-3.07,9.043c-0.84,2.595-2.168,5.063-2.094,7.907
	c0.008,0.227-0.305,0.55-0.547,0.679c-1.293,0.696-2.617,1.337-3.918,2.021c-0.172,0.09-0.281,0.305-0.418,0.465
	c0.207,0,0.449,0.074,0.613-0.008c1.254-0.617,2.477-1.297,3.742-1.887c0.703-0.328,1.043-0.777,1.082-1.566
	c0.051-0.922,0.074-1.891,0.358-2.754c1.527-4.603,3.134-9.176,4.724-13.758c0.108-0.316,0.258-0.648,0.479-0.892
	c2.789-3.007,5.332-6.214,7.646-9.601c0.75-1.098,1.727-1.746,3.055-1.942c2.098-0.315,4.078-1,5.992-1.925
	c0.758-0.368,1.613-0.571,2.44-0.743c0.517-0.101,1.125-0.097,1.423,0.493c0.319,0.632,0.125,1.281-0.474,1.789
	c-0.301,0.258-0.586,0.531-0.906,0.754c-3.495,2.438-7.026,4.828-10.491,7.312c-2.509,1.797-4.935,3.715-7.384,5.59
	c-0.198,0.151-0.327,0.395-0.487,0.598c0.059,0.059,0.117,0.121,0.176,0.179c0.184-0.112,0.383-0.215,0.547-0.351
	c0.488-0.41,0.934-0.879,1.453-1.242c3.402-2.407,6.77-4.859,10.242-7.157c4.531-3.004,8.676-6.479,12.77-10.03
	c1.387-1.203,2.781-2.398,4.172-3.595c0.855-0.733,1.742-1.437,2.562-2.207c1.926-1.815,4.121-3.237,6.452-4.452
	c0.578-0.302,1.23-0.48,1.867-0.641c0.941-0.238,1.73,0.074,2.371,0.8c0.656,0.75,0.906,1.578,0.392,2.493
	c-0.246,0.438-0.543,0.871-0.91,1.21c-4.513,4.188-9.238,8.138-13.477,12.622c-1.56,1.648-3.398,3.027-5.103,4.535
	c-0.117,0.102-0.185,0.257-0.272,0.39c0.051,0.056,0.104,0.114,0.155,0.168c0.281-0.151,0.604-0.258,0.84-0.465
	c1.634-1.444,3.341-2.815,4.849-4.386c5.383-5.594,11.245-10.657,17.176-15.645c0.729-0.613,1.594-0.88,2.516-0.902
	c1.824-0.047,3.074,2.129,2.228,3.937c-0.328,0.696-0.82,1.336-1.328,1.927c-1.414,1.655-2.867,3.28-4.32,4.901
	c-4.141,4.618-8.176,9.336-13.004,13.286c-0.69,0.566-1.228,1.328-1.81,2.02c-0.168,0.202-0.233,0.487-0.344,0.737
	c0.059,0.047,0.125,0.099,0.188,0.146c0.133-0.117,0.284-0.219,0.401-0.353c0.728-0.823,1.344-1.784,2.188-2.457
	c3.441-2.729,6.328-6.011,9.301-9.198c2.137-2.298,4.164-4.699,6.25-7.048c0.672-0.758,1.484-0.933,2.31-0.543
	c1.495,0.716,2.141,2.97,1.229,4.345c-2.262,3.41-4.52,6.815-7.027,10.059c-2.051,2.652-4.18,5.184-6.69,7.406
	c-0.805,0.711-1.57,1.496-2.207,2.358c-1.031,1.396-1.953,2.875-2.902,4.332c-0.09,0.142-0.039,0.375-0.059,0.567
	c0.16-0.11,0.354-0.196,0.473-0.344c0.18-0.231,0.305-0.5,0.453-0.754c1.266-2.145,2.777-4.082,4.559-5.836
	c2.896-2.855,5.712-5.789,8.56-8.691c0.461-0.473,0.875-1.004,1.375-1.434c0.75-0.645,1.824-0.591,2.277,0.112
	c0.469,0.735,0.858,1.567,0.551,2.431c-0.418,1.168-0.898,2.332-1.521,3.401c-1.91,3.282-4.487,6.067-6.949,8.927
	c-2.926,3.398-5.983,6.688-8.198,10.641c-0.41,0.738-0.988,1.422-1.617,1.988c-3.771,3.362-7.522,6.746-11.384,10.008
	c-3.737,3.156-7.737,5.934-12.461,7.5c-1.055,0.352-2.047,0.906-3.065,1.367c0.022,0.09,0.047,0.18,0.069,0.27
	c0.31-0.051,0.642-0.043,0.923-0.161c1.237-0.526,2.43-1.175,3.698-1.621c2.785-0.979,5.25-2.507,7.613-4.233
	c4.703-3.438,9.021-7.332,13.34-11.22c1.867-1.679,3.367-3.597,4.685-5.722c0.922-1.493,1.996-2.907,3.117-4.262
	c1.953-2.363,4-4.649,5.996-6.978c2.059-2.405,4.062-4.858,5.479-7.715c0.349-0.694,0.621-1.444,0.797-2.199
	c0.277-1.183-0.448-2.858-1.328-3.284c-0.938-0.453-2.008-0.091-3.034,1.034c-0.355,0.388-0.707,0.778-1.06,1.164
	c-0.051-0.147-0.016-0.222,0.031-0.293c1.969-2.839,3.93-5.679,5.906-8.511c0.573-0.825,0.75-1.688,0.43-2.645
	c-0.504-1.517-1.332-2.66-3.191-2.724c0.211-0.25,0.388-0.417,0.513-0.617c0.477-0.761,1.09-1.483,1.366-2.315
	c0.832-2.469-1.145-4.656-3.663-4.06c-0.798,0.192-1.556,0.677-2.25,1.146C318.156,47.378,317.555,48,316.969,48.507z"/>
<path fill="none" stroke="#FFFFFF" stroke-width="2" d="M316.969,48.507c0.586-0.507,1.188-1.129,1.888-1.601
	c0.694-0.469,1.448-0.953,2.25-1.146c2.52-0.597,4.495,1.591,3.663,4.06c-0.276,0.832-0.891,1.555-1.366,2.315
	c-0.125,0.2-0.302,0.367-0.513,0.617c1.859,0.063,2.688,1.207,3.191,2.724c0.316,0.957,0.145,1.819-0.43,2.645
	c-1.978,2.832-3.938,5.672-5.906,8.511c-0.047,0.067-0.082,0.146-0.031,0.293c0.353-0.386,0.703-0.776,1.06-1.164
	c1.026-1.125,2.098-1.487,3.034-1.034c0.879,0.426,1.605,2.102,1.328,3.284c-0.176,0.755-0.449,1.509-0.797,2.199
	c-1.418,2.856-3.422,5.31-5.479,7.715c-1.996,2.328-4.043,4.614-5.996,6.978c-1.121,1.354-2.195,2.769-3.117,4.262
	c-1.316,2.125-2.816,4.043-4.684,5.722c-4.32,3.888-8.638,7.782-13.34,11.22c-2.359,1.727-4.824,3.254-7.613,4.233
	c-1.271,0.45-2.461,1.095-3.699,1.621c-0.281,0.118-0.617,0.11-0.922,0.161c-0.023-0.09-0.047-0.18-0.07-0.27
	c1.02-0.461,2.012-1.016,3.066-1.367c4.723-1.566,8.723-4.344,12.461-7.5c3.859-3.262,7.613-6.646,11.383-10.008
	c0.629-0.566,1.207-1.25,1.617-1.988c2.215-3.953,5.272-7.242,8.198-10.641c2.462-2.859,5.039-5.645,6.949-8.927
	c0.621-1.069,1.103-2.233,1.521-3.401c0.309-0.863-0.082-1.695-0.552-2.431c-0.452-0.703-1.526-0.757-2.276-0.112
	c-0.5,0.43-0.914,0.961-1.375,1.434c-2.849,2.902-5.664,5.836-8.56,8.691c-1.78,1.754-3.293,3.691-4.559,5.836
	c-0.152,0.254-0.273,0.522-0.453,0.754c-0.117,0.147-0.312,0.233-0.473,0.344c0.021-0.192-0.031-0.426,0.059-0.567
	c0.949-1.457,1.871-2.937,2.902-4.332c0.637-0.862,1.402-1.647,2.207-2.358c2.512-2.223,4.641-4.754,6.69-7.406
	c2.509-3.246,4.767-6.648,7.027-10.059c0.91-1.375,0.266-3.629-1.229-4.345c-0.82-0.39-1.638-0.215-2.31,0.543
	c-2.086,2.349-4.113,4.75-6.25,7.048c-2.973,3.188-5.858,6.469-9.301,9.198c-0.844,0.673-1.461,1.634-2.188,2.457
	c-0.117,0.134-0.271,0.235-0.402,0.353c-0.062-0.047-0.129-0.099-0.188-0.146c0.108-0.25,0.176-0.535,0.344-0.737
	c0.582-0.691,1.117-1.453,1.809-2.02c4.828-3.95,8.863-8.668,13.004-13.286c1.453-1.621,2.906-3.246,4.32-4.901
	c0.508-0.591,1-1.23,1.328-1.927c0.848-1.808-0.402-3.983-2.228-3.937c-0.922,0.022-1.785,0.289-2.516,0.902
	c-5.931,4.987-11.793,10.051-17.177,15.645c-1.508,1.57-3.215,2.941-4.848,4.386c-0.234,0.207-0.559,0.313-0.84,0.465
	c-0.051-0.054-0.105-0.112-0.156-0.168c0.09-0.133,0.156-0.288,0.273-0.39c1.703-1.508,3.543-2.887,5.102-4.535
	c4.238-4.484,8.965-8.434,13.478-12.622c0.367-0.336,0.664-0.772,0.91-1.21c0.516-0.915,0.266-1.743-0.392-2.493
	c-0.641-0.726-1.43-1.038-2.371-0.8c-0.637,0.16-1.289,0.339-1.866,0.641c-2.332,1.215-4.527,2.637-6.454,4.453
	c-0.819,0.77-1.707,1.473-2.562,2.206c-1.391,1.196-2.784,2.392-4.172,3.595c-4.094,3.551-8.237,7.026-12.771,10.03
	c-3.473,2.298-6.84,4.75-10.242,7.157c-0.52,0.363-0.965,0.832-1.452,1.242c-0.164,0.136-0.363,0.238-0.548,0.351
	c-0.059-0.058-0.116-0.12-0.176-0.179c0.16-0.203,0.289-0.446,0.488-0.598c2.449-1.875,4.875-3.793,7.383-5.59
	c3.465-2.484,6.996-4.875,10.492-7.312c0.32-0.223,0.605-0.5,0.906-0.754c0.598-0.508,0.793-1.157,0.473-1.789
	c-0.297-0.59-0.906-0.598-1.422-0.493c-0.828,0.172-1.684,0.375-2.441,0.743c-1.914,0.925-3.895,1.609-5.991,1.925
	c-1.328,0.2-2.306,0.845-3.056,1.942c-2.312,3.387-4.854,6.594-7.645,9.601c-0.223,0.243-0.371,0.575-0.48,0.892
	c-1.59,4.582-3.194,9.155-4.723,13.758c-0.285,0.863-0.312,1.832-0.359,2.754c-0.039,0.789-0.379,1.238-1.082,1.566
	c-1.266,0.59-2.487,1.27-3.742,1.887c-0.163,0.082-0.405,0.008-0.612,0.008c0.138-0.16,0.246-0.375,0.418-0.465
	c1.301-0.684,2.625-1.324,3.918-2.021c0.242-0.129,0.552-0.452,0.547-0.679c-0.073-2.844,1.255-5.312,2.095-7.907
	c0.983-3.026,2.026-6.034,3.069-9.043c0.156-0.448,0.41-0.897,0.728-1.25c2.52-2.754,4.922-5.604,6.965-8.733
	c1.102-1.688,2.535-2.621,4.555-2.978c1.664-0.289,3.25-1.039,4.867-1.582c0.926-0.308,1.832-0.711,2.785-0.897
	c1.395-0.277,2.074,0.289,2.27,1.781c1.188-0.966,2.359-1.863,3.473-2.828c2.926-2.535,5.773-5.16,8.75-7.638
	c1.938-1.612,4.044-3.034,6.406-3.991c2.043-0.828,3.681-0.277,4.5,1.562C316.957,47.195,316.891,47.868,316.969,48.507z"/>
<path fill="#00BFFF" d="M252.664,122.199c0,15.906-12.896,28.801-28.797,28.801c-15.906,0-28.802-12.895-28.802-28.801
	s12.896-28.801,28.802-28.801C239.771,93.398,252.664,106.293,252.664,122.199z"/>
<path fill="none" stroke="#FFFFFF" stroke-width="2" d="M252.664,122.199c0,15.906-12.896,28.801-28.797,28.801
	c-15.906,0-28.802-12.895-28.802-28.801s12.896-28.801,28.802-28.801C239.771,93.398,252.664,106.293,252.664,122.199z"/>
<path fill="none" stroke="#FFFFFF" stroke-width="2" d="M227.651,101.503v15.665c4.293-0.633,8.586-1.266,12.923-1.911v26.657
	h-30.656v-40.411C215.819,101.503,221.729,101.503,227.651,101.503z"/>
<line fill="none" stroke="#FFFFFF" stroke-width="2" x1="240.574" y1="115.257" x2="227.651" y2="101.503"/>
<g>
	<g>
		<path d="M98.493,26.726c0,0,0.482-0.271,1.387-0.777c0.901-0.512,2.232-1.249,3.946-2.164c1.712-0.915,3.795-2.016,6.229-3.193
			c2.423-1.2,5.196-2.477,8.244-3.822c3.062-1.312,6.396-2.71,9.991-4.02c1.786-0.687,3.654-1.297,5.552-1.962
			c1.917-0.605,3.87-1.246,5.885-1.802c4.015-1.17,8.218-2.207,12.533-3.069c4.311-0.887,8.738-1.578,13.195-2.052
			c4.454-0.507,8.94-0.755,13.364-0.816c4.425-0.092,8.783,0.122,12.998,0.424c2.104,0.2,4.18,0.368,6.189,0.688
			c1.01,0.14,2.006,0.282,2.988,0.443c0.979,0.186,1.943,0.368,2.896,0.549c3.807,0.753,7.348,1.729,10.577,2.73
			c3.214,1.062,6.13,2.108,8.663,3.16c2.551,1.013,4.688,2.092,6.477,2.899c1.771,0.847,3.111,1.621,4.049,2.096
			c0.928,0.491,1.423,0.753,1.423,0.753l-1.433,2.944c0,0-2.033-0.803-5.59-2.208c-1.802-0.638-3.947-1.509-6.486-2.281
			c-2.502-0.877-5.369-1.724-8.512-2.566c-3.141-0.846-6.561-1.691-10.209-2.424c-0.912-0.189-1.836-0.383-2.771-0.578
			c-0.94-0.164-1.894-0.331-2.856-0.5c-1.922-0.376-3.906-0.614-5.918-0.927c-4.035-0.513-8.234-0.928-12.521-1.011
			c-4.284-0.139-8.65-0.049-13.003,0.279c-4.356,0.297-8.704,0.808-12.954,1.517c-4.255,0.686-8.417,1.545-12.407,2.547
			c-3.995,0.983-7.828,2.071-11.43,3.215c-3.611,1.121-6.974,2.345-10.07,3.498c-3.083,1.188-5.896,2.321-8.36,3.397
			c-2.47,1.061-4.607,2.033-6.357,2.846c-1.751,0.812-3.121,1.472-4.051,1.935c-0.932,0.454-1.429,0.697-1.429,0.697L98.493,26.726z
			"/>
		<g>
			<polygon points="249.735,26.947 223.054,23.781 233.142,17.752 232.903,6.004 			"/>
		</g>
	</g>
</g>
<g>
	<g>
		<path d="M106.02,271.974c0,0-0.469-0.294-1.347-0.846c-0.882-0.545-2.167-1.358-3.792-2.425c-1.624-1.062-3.588-2.363-5.79-3.934
			c-2.215-1.551-4.666-3.371-7.309-5.4c-2.621-2.058-5.446-4.312-8.318-6.839c-1.459-1.238-2.891-2.584-4.385-3.931
			c-1.452-1.392-2.949-2.799-4.404-4.301c-2.952-2.961-5.878-6.151-8.704-9.523c-2.846-3.356-5.576-6.91-8.129-10.594
			c-2.581-3.665-4.951-7.482-7.126-11.335c-2.203-3.84-4.106-7.768-5.864-11.609c-0.832-1.942-1.68-3.844-2.366-5.761
			c-0.361-0.952-0.714-1.896-1.043-2.835c-0.307-0.946-0.609-1.883-0.908-2.806c-1.165-3.7-2.007-7.275-2.677-10.592
			c-0.61-3.328-1.09-6.39-1.382-9.117c-0.336-2.723-0.412-5.114-0.562-7.072c-0.107-1.961-0.071-3.509-0.103-4.559
			c-0.014-1.05-0.021-1.609-0.021-1.609l3.27-0.155c0,0,0.271,2.169,0.744,5.964c0.305,1.886,0.569,4.187,1.11,6.786
			c0.43,2.615,1.062,5.537,1.829,8.698c0.766,3.161,1.663,6.566,2.771,10.121c0.27,0.892,0.544,1.794,0.821,2.707
			c0.307,0.905,0.618,1.821,0.932,2.747c0.591,1.866,1.333,3.723,2.024,5.638c1.485,3.787,3.136,7.671,5.118,11.472
			c1.933,3.825,4.105,7.613,6.481,11.276c2.35,3.68,4.884,7.249,7.545,10.639c2.641,3.405,5.394,6.645,8.186,9.665
			c2.778,3.034,5.571,5.875,8.303,8.486c2.715,2.632,5.401,4.995,7.899,7.158c2.521,2.137,4.865,4.062,6.991,5.706
			c2.116,1.659,3.993,3.067,5.546,4.214c1.552,1.147,2.789,2.032,3.639,2.628c0.847,0.6,1.298,0.919,1.298,0.919L106.02,271.974z"/>
		<g>
			<polygon points="33.671,139.159 43.691,164.09 33.562,158.129 23.367,163.973 			"/>
		</g>
	</g>
</g>
<g>
	<g>
		<path d="M317.282,138.962c0,0-0.005,0.554-0.015,1.59c-0.002,1.037-0.021,2.559-0.076,4.5c-0.055,1.94-0.132,4.296-0.314,6.993
			c-0.159,2.7-0.426,5.741-0.768,9.057c-0.379,3.31-0.817,6.897-1.465,10.668c-0.288,1.892-0.685,3.815-1.048,5.795
			c-0.423,1.965-0.837,3.979-1.353,6.004c-0.976,4.065-2.158,8.229-3.549,12.405c-1.366,4.184-2.962,8.37-4.761,12.477
			c-1.768,4.119-3.775,8.139-5.916,12.011c-2.115,3.889-4.461,7.568-6.812,11.08c-1.219,1.728-2.393,3.445-3.666,5.034
			c-0.621,0.807-1.239,1.602-1.866,2.375c-0.646,0.757-1.282,1.505-1.913,2.243c-2.541,2.933-5.145,5.522-7.615,7.832
			c-2.516,2.264-4.871,4.277-7.041,5.956c-2.143,1.714-4.141,3.033-5.729,4.187c-1.613,1.12-2.95,1.899-3.827,2.479
			c-0.887,0.562-1.36,0.861-1.36,0.861l-1.846-2.703c0,0,1.705-1.367,4.689-3.761c1.445-1.248,3.267-2.679,5.197-4.502
			c2-1.736,4.158-3.808,6.447-6.117c2.291-2.31,4.723-4.858,7.167-7.666c0.617-0.696,1.242-1.402,1.875-2.118
			c0.61-0.735,1.228-1.48,1.851-2.232c1.279-1.482,2.472-3.087,3.74-4.68c2.445-3.25,4.889-6.691,7.086-10.372
			c2.244-3.651,4.33-7.487,6.205-11.432c1.9-3.931,3.612-7.959,5.104-12.002c1.516-4.034,2.831-8.076,3.938-12.038
			c1.127-3.957,2.083-7.823,2.875-11.521c0.817-3.691,1.423-7.218,1.955-10.479c0.497-3.267,0.907-6.271,1.194-8.944
			c0.304-2.671,0.519-5.009,0.681-6.933c0.164-1.923,0.27-3.439,0.329-4.476c0.067-1.035,0.104-1.587,0.104-1.587L317.282,138.962z"
			/>
		<g>
			<polygon points="242.104,270.197 258.083,248.596 258.317,260.346 268.638,265.965 			"/>
		</g>
	</g>
</g>
<g>
	<path d="M139.923,25.776c-0.194-0.227-0.452-0.443-0.774-0.653c-0.323-0.209-0.686-0.398-1.088-0.567
		c-0.402-0.17-0.842-0.307-1.317-0.411c-0.476-0.104-0.972-0.157-1.487-0.157c-1.338,0-2.317,0.25-2.938,0.75
		c-0.621,0.5-0.931,1.185-0.931,2.056c0,0.467,0.088,0.854,0.266,1.161c0.178,0.307,0.456,0.568,0.834,0.786
		c0.378,0.218,0.85,0.407,1.415,0.568c0.564,0.16,1.233,0.331,2.007,0.508c0.886,0.192,1.688,0.415,2.406,0.665
		c0.718,0.25,1.33,0.56,1.838,0.931c0.508,0.371,0.895,0.822,1.161,1.354c0.266,0.531,0.399,1.185,0.399,1.958
		c0,0.821-0.161,1.535-0.483,2.14c-0.323,0.604-0.762,1.104-1.318,1.499s-1.213,0.686-1.971,0.871
		c-0.758,0.185-1.58,0.278-2.466,0.278c-1.322,0-2.575-0.206-3.76-0.617c-1.185-0.411-2.261-1.013-3.228-1.802l1.04-1.838
		c0.257,0.274,0.592,0.549,1.003,0.822c0.411,0.274,0.878,0.521,1.402,0.737c0.523,0.218,1.088,0.395,1.692,0.532
		c0.604,0.137,1.237,0.204,1.898,0.204c1.225,0,2.176-0.217,2.853-0.652c0.677-0.436,1.016-1.088,1.016-1.958
		c0-0.483-0.109-0.892-0.326-1.222c-0.218-0.329-0.536-0.615-0.956-0.857c-0.419-0.242-0.939-0.455-1.56-0.641
		c-0.621-0.186-1.326-0.375-2.116-0.568c-0.87-0.209-1.636-0.436-2.297-0.677c-0.661-0.242-1.213-0.532-1.656-0.871
		c-0.444-0.338-0.778-0.75-1.004-1.233c-0.226-0.482-0.338-1.063-0.338-1.741c0-0.821,0.153-1.547,0.459-2.176
		c0.306-0.629,0.733-1.161,1.282-1.596c0.548-0.437,1.201-0.762,1.958-0.979c0.757-0.218,1.58-0.327,2.466-0.327
		c1.161,0,2.208,0.179,3.144,0.532c0.935,0.354,1.765,0.831,2.49,1.428L139.923,25.776z"/>
	<path d="M143.38,33.006c0-0.886,0.153-1.725,0.459-2.515c0.306-0.79,0.741-1.479,1.306-2.067c0.564-0.588,1.237-1.056,2.019-1.401
		c0.782-0.348,1.656-0.521,2.624-0.521c1.257,0,2.341,0.278,3.252,0.834c0.911,0.557,1.6,1.303,2.067,2.236l-2.079,0.653
		c-0.323-0.597-0.774-1.061-1.354-1.392c-0.58-0.33-1.225-0.496-1.934-0.496c-0.581,0-1.128,0.117-1.645,0.352
		c-0.516,0.233-0.959,0.56-1.33,0.979c-0.371,0.419-0.665,0.911-0.883,1.476c-0.218,0.563-0.326,1.185-0.326,1.861
		c0,0.662,0.112,1.282,0.338,1.862s0.528,1.084,0.907,1.511c0.378,0.428,0.822,0.763,1.33,1.003
		c0.508,0.241,1.052,0.363,1.632,0.363c0.371,0,0.738-0.052,1.101-0.157c0.362-0.104,0.693-0.246,0.991-0.423
		s0.56-0.383,0.786-0.617c0.226-0.232,0.387-0.486,0.484-0.762l2.08,0.629c-0.194,0.468-0.464,0.896-0.81,1.282
		c-0.347,0.387-0.754,0.717-1.221,0.991c-0.468,0.273-0.988,0.492-1.56,0.652c-0.573,0.161-1.173,0.242-1.802,0.242
		c-0.951,0-1.822-0.177-2.611-0.532c-0.79-0.354-1.467-0.83-2.031-1.427c-0.564-0.596-1.003-1.293-1.318-2.092
		C143.538,34.735,143.38,33.893,143.38,33.006z"/>
	<path d="M157.622,24.35v-2.66h2.128v2.66H157.622z M157.622,39.341V26.719h2.128v12.622H157.622z"/>
	<path d="M167.608,39.583c-1.016,0-2.015-0.157-2.998-0.471c-0.983-0.314-1.83-0.771-2.539-1.366l0.919-1.427
		c0.741,0.563,1.483,0.987,2.225,1.27c0.741,0.282,1.523,0.424,2.345,0.424c0.919,0,1.648-0.182,2.188-0.545
		c0.54-0.362,0.81-0.874,0.81-1.534c0-0.307-0.073-0.568-0.218-0.786s-0.363-0.407-0.653-0.568s-0.661-0.306-1.112-0.435
		c-0.451-0.129-0.976-0.267-1.572-0.411c-0.758-0.193-1.411-0.378-1.958-0.557c-0.548-0.177-1-0.387-1.354-0.628
		c-0.355-0.241-0.613-0.531-0.774-0.871c-0.161-0.339-0.242-0.758-0.242-1.257c0-0.629,0.125-1.188,0.375-1.681
		s0.592-0.903,1.027-1.233c0.436-0.33,0.947-0.58,1.536-0.75c0.588-0.169,1.221-0.254,1.898-0.254c0.951,0,1.838,0.153,2.66,0.459
		c0.822,0.308,1.515,0.709,2.079,1.209l-0.967,1.282c-0.532-0.467-1.129-0.818-1.79-1.052c-0.661-0.233-1.338-0.352-2.031-0.352
		c-0.773,0-1.431,0.166-1.971,0.496c-0.54,0.331-0.81,0.858-0.81,1.583c0,0.291,0.052,0.532,0.157,0.727
		c0.105,0.193,0.278,0.362,0.52,0.508c0.242,0.145,0.552,0.274,0.931,0.387c0.379,0.113,0.834,0.234,1.366,0.363
		c0.838,0.193,1.568,0.391,2.188,0.592c0.621,0.202,1.137,0.439,1.547,0.713c0.411,0.274,0.717,0.598,0.919,0.967
		c0.201,0.371,0.303,0.822,0.303,1.354c0,1.177-0.452,2.112-1.354,2.805C170.357,39.237,169.14,39.583,167.608,39.583z"/>
	<path d="M179.554,39.583c-1.017,0-2.016-0.157-2.998-0.471c-0.984-0.314-1.83-0.771-2.539-1.366l0.918-1.427
		c0.741,0.563,1.482,0.987,2.226,1.27c0.741,0.282,1.522,0.424,2.346,0.424c0.919,0,1.647-0.182,2.188-0.545
		c0.541-0.362,0.811-0.874,0.811-1.534c0-0.307-0.072-0.568-0.218-0.786s-0.362-0.407-0.652-0.568s-0.661-0.306-1.112-0.435
		s-0.976-0.267-1.571-0.411c-0.759-0.193-1.41-0.378-1.958-0.557c-0.549-0.177-1-0.387-1.354-0.628
		c-0.354-0.241-0.613-0.531-0.773-0.871c-0.162-0.338-0.242-0.758-0.242-1.257c0-0.629,0.125-1.188,0.375-1.681
		s0.592-0.903,1.027-1.233s0.947-0.58,1.535-0.75c0.588-0.169,1.222-0.254,1.897-0.254c0.951,0,1.838,0.153,2.66,0.459
		c0.821,0.308,1.515,0.709,2.079,1.209l-0.967,1.282c-0.532-0.467-1.129-0.818-1.791-1.052c-0.66-0.233-1.338-0.352-2.029-0.352
		c-0.773,0-1.432,0.166-1.971,0.496c-0.541,0.331-0.812,0.858-0.812,1.583c0,0.291,0.054,0.532,0.157,0.727
		c0.104,0.193,0.277,0.362,0.52,0.508c0.242,0.145,0.553,0.274,0.932,0.387c0.379,0.113,0.835,0.234,1.367,0.363
		c0.838,0.193,1.566,0.391,2.188,0.592c0.62,0.202,1.137,0.439,1.547,0.713c0.411,0.274,0.717,0.598,0.919,0.967
		c0.201,0.371,0.304,0.822,0.304,1.354c0,1.177-0.453,2.112-1.354,2.805C182.301,39.237,181.084,39.583,179.554,39.583z"/>
	<path d="M192.585,39.583c-0.951,0-1.816-0.177-2.6-0.532c-0.781-0.354-1.45-0.829-2.006-1.427c-0.558-0.596-0.988-1.29-1.295-2.08
		s-0.459-1.62-0.459-2.489c0-0.888,0.156-1.726,0.471-2.516s0.75-1.482,1.307-2.079c0.557-0.596,1.227-1.071,2.007-1.427
		c0.782-0.354,1.642-0.532,2.575-0.532c0.936,0,1.798,0.179,2.588,0.532c0.789,0.354,1.463,0.831,2.02,1.427
		c0.557,0.597,0.99,1.29,1.306,2.079c0.313,0.79,0.472,1.628,0.472,2.516c0,0.869-0.152,1.7-0.459,2.489
		c-0.307,0.79-0.742,1.483-1.306,2.08c-0.563,0.598-1.237,1.072-2.021,1.427C194.401,39.406,193.536,39.583,192.585,39.583z
		 M188.401,33.079c0,0.661,0.108,1.273,0.326,1.838c0.219,0.565,0.517,1.057,0.896,1.476s0.821,0.75,1.33,0.991
		c0.508,0.242,1.052,0.363,1.632,0.363c0.581,0,1.125-0.121,1.633-0.363c0.508-0.241,0.955-0.575,1.342-1.003
		c0.387-0.427,0.689-0.927,0.906-1.5c0.219-0.571,0.327-1.188,0.327-1.85c0-0.646-0.108-1.253-0.327-1.826
		c-0.217-0.572-0.52-1.072-0.906-1.499s-0.834-0.762-1.342-1.003s-1.052-0.363-1.633-0.363c-0.58,0-1.124,0.125-1.632,0.375
		c-0.509,0.25-0.951,0.59-1.33,1.017c-0.379,0.428-0.677,0.927-0.896,1.5C188.51,31.804,188.401,32.418,188.401,33.079z"/>
	<path d="M208.229,28.581c-1.063,0.033-2.002,0.308-2.816,0.822c-0.812,0.516-1.391,1.232-1.729,2.152v7.785h-2.129V26.719h1.982
		v2.927c0.436-0.871,1.008-1.576,1.717-2.116c0.71-0.54,1.467-0.842,2.273-0.907c0.16,0,0.298,0,0.41,0s0.209,0.008,0.291,0.024
		V28.581L208.229,28.581z"/>
	<path d="M214.759,39.583c-1.016,0-2.015-0.157-2.998-0.471c-0.982-0.314-1.83-0.771-2.539-1.366l0.92-1.427
		c0.74,0.563,1.481,0.987,2.225,1.27c0.74,0.282,1.523,0.424,2.346,0.424c0.919,0,1.646-0.182,2.188-0.545
		c0.541-0.362,0.812-0.874,0.812-1.534c0-0.307-0.071-0.568-0.218-0.786c-0.145-0.218-0.362-0.407-0.652-0.568
		c-0.291-0.161-0.66-0.306-1.111-0.435c-0.453-0.129-0.977-0.267-1.572-0.411c-0.758-0.193-1.41-0.378-1.958-0.557
		c-0.55-0.177-1-0.387-1.354-0.628c-0.354-0.241-0.613-0.531-0.772-0.871c-0.162-0.338-0.242-0.758-0.242-1.257
		c0-0.629,0.125-1.188,0.375-1.681s0.592-0.903,1.026-1.233c0.437-0.33,0.947-0.58,1.535-0.75c0.59-0.169,1.223-0.254,1.898-0.254
		c0.951,0,1.838,0.153,2.66,0.459c0.822,0.308,1.515,0.709,2.078,1.209l-0.967,1.282c-0.531-0.467-1.129-0.818-1.789-1.052
		c-0.662-0.233-1.338-0.352-2.03-0.352c-0.774,0-1.433,0.166-1.972,0.496c-0.541,0.331-0.811,0.858-0.811,1.583
		c0,0.291,0.053,0.532,0.157,0.727c0.104,0.193,0.278,0.362,0.521,0.508c0.241,0.145,0.553,0.274,0.932,0.387
		c0.378,0.113,0.834,0.234,1.365,0.363c0.838,0.193,1.567,0.391,2.188,0.592c0.62,0.202,1.136,0.439,1.547,0.713
		c0.411,0.274,0.718,0.598,0.919,0.967c0.201,0.371,0.303,0.822,0.303,1.354c0,1.177-0.451,2.112-1.354,2.805
		C217.507,39.237,216.29,39.583,214.759,39.583z"/>
</g>
<g>
	<path d="M137.243,57.929c-0.61,0-1.165-0.15-1.665-0.45s-0.895-0.69-1.185-1.17v1.47h-1.17v-10.95h1.32v4.68
		c0.33-0.51,0.735-0.92,1.215-1.229c0.48-0.311,1.04-0.465,1.68-0.465c0.54,0,1.025,0.115,1.455,0.345
		c0.43,0.23,0.797,0.533,1.103,0.908c0.306,0.375,0.54,0.81,0.705,1.305s0.248,1.003,0.248,1.523c0,0.55-0.095,1.069-0.285,1.56
		s-0.45,0.918-0.78,1.283c-0.33,0.365-0.723,0.655-1.178,0.87S137.763,57.929,137.243,57.929z M136.913,56.789
		c0.39,0,0.75-0.08,1.08-0.24c0.33-0.159,0.615-0.375,0.855-0.645c0.24-0.271,0.425-0.578,0.555-0.922
		c0.13-0.345,0.195-0.708,0.195-1.087c0-0.38-0.062-0.748-0.188-1.104c-0.126-0.354-0.3-0.667-0.525-0.938
		c-0.225-0.271-0.495-0.488-0.81-0.653c-0.315-0.165-0.663-0.248-1.042-0.248c-0.28,0-0.545,0.05-0.795,0.15
		c-0.25,0.1-0.482,0.231-0.698,0.396c-0.215,0.165-0.405,0.357-0.57,0.577c-0.165,0.22-0.308,0.456-0.428,0.705v2.265
		c0.05,0.25,0.158,0.48,0.323,0.69c0.165,0.21,0.36,0.393,0.585,0.547c0.225,0.155,0.465,0.278,0.72,0.368
		C136.426,56.744,136.673,56.789,136.913,56.789z"/>
	<path d="M146.033,57.929c-0.59,0-1.13-0.107-1.62-0.322c-0.49-0.215-0.91-0.507-1.26-0.877c-0.35-0.37-0.623-0.804-0.817-1.298
		c-0.195-0.495-0.292-1.018-0.292-1.567s0.098-1.07,0.292-1.56c0.195-0.49,0.47-0.921,0.825-1.29
		c0.354-0.37,0.777-0.662,1.267-0.877c0.49-0.216,1.03-0.322,1.62-0.322c0.59,0,1.127,0.109,1.613,0.33
		c0.485,0.22,0.897,0.512,1.237,0.877s0.603,0.79,0.788,1.274c0.185,0.485,0.277,0.988,0.277,1.508c0,0.109-0.002,0.21-0.007,0.3
		s-0.013,0.16-0.022,0.21h-6.495c0.03,0.39,0.12,0.745,0.27,1.064c0.15,0.32,0.345,0.596,0.585,0.825
		c0.24,0.23,0.512,0.41,0.817,0.54c0.305,0.13,0.627,0.195,0.968,0.195c0.24,0,0.475-0.033,0.705-0.099
		c0.23-0.064,0.445-0.151,0.645-0.263c0.2-0.11,0.377-0.245,0.533-0.405c0.155-0.159,0.272-0.34,0.353-0.54l1.14,0.315
		c-0.13,0.29-0.308,0.555-0.533,0.795s-0.485,0.448-0.78,0.623s-0.623,0.313-0.983,0.413
		C146.798,57.879,146.423,57.929,146.033,57.929z M148.718,53.339c-0.03-0.37-0.123-0.712-0.277-1.026
		c-0.155-0.315-0.35-0.583-0.585-0.804c-0.235-0.22-0.508-0.392-0.817-0.518c-0.31-0.125-0.64-0.188-0.99-0.188
		c-0.35,0-0.68,0.062-0.99,0.188c-0.31,0.125-0.583,0.3-0.818,0.525c-0.235,0.225-0.425,0.492-0.57,0.803
		c-0.145,0.31-0.232,0.649-0.263,1.02H148.718z"/>
	<path d="M153.443,57.929c-0.37,0-0.715-0.062-1.035-0.188c-0.32-0.125-0.598-0.297-0.833-0.518
		c-0.235-0.221-0.42-0.478-0.555-0.772c-0.135-0.295-0.202-0.617-0.202-0.967c0-0.36,0.08-0.688,0.24-0.982
		c0.16-0.295,0.388-0.548,0.683-0.758c0.295-0.21,0.645-0.375,1.05-0.495s0.848-0.18,1.328-0.18c0.38,0,0.765,0.035,1.155,0.104
		c0.39,0.07,0.735,0.165,1.035,0.285v-0.63c0-0.64-0.18-1.142-0.54-1.507s-0.87-0.547-1.53-0.547c-0.79,0-1.62,0.305-2.49,0.915
		l-0.435-0.855c1.01-0.68,2.025-1.02,3.045-1.02c1.03,0,1.832,0.274,2.407,0.825c0.575,0.55,0.862,1.324,0.862,2.324v3.195
		c0,0.311,0.14,0.47,0.42,0.48v1.14c-0.14,0.02-0.255,0.035-0.345,0.045c-0.09,0.01-0.185,0.015-0.285,0.015
		c-0.26,0-0.467-0.077-0.622-0.231c-0.155-0.155-0.248-0.343-0.278-0.562l-0.03-0.555c-0.35,0.47-0.793,0.828-1.328,1.073
		C154.625,57.807,154.053,57.929,153.443,57.929z M153.788,56.939c0.47,0,0.908-0.087,1.312-0.264
		c0.405-0.175,0.712-0.406,0.922-0.696c0.19-0.19,0.285-0.386,0.285-0.585v-1.155c-0.64-0.25-1.305-0.375-1.995-0.375
		c-0.66,0-1.197,0.14-1.612,0.42s-0.623,0.646-0.623,1.095c0,0.221,0.042,0.426,0.127,0.615c0.085,0.19,0.205,0.355,0.36,0.495
		s0.338,0.25,0.548,0.33S153.548,56.939,153.788,56.939z"/>
	<path d="M163.732,57.389c-0.081,0.04-0.186,0.088-0.315,0.143c-0.13,0.055-0.277,0.11-0.442,0.165s-0.345,0.1-0.54,0.135
		s-0.397,0.052-0.607,0.052c-0.48,0-0.895-0.132-1.245-0.396s-0.525-0.677-0.525-1.237v-5.265h-1.065V49.95h1.065v-2.61h1.32v2.61
		h1.755v1.035h-1.755v4.859c0.02,0.29,0.115,0.5,0.285,0.631c0.17,0.13,0.37,0.194,0.6,0.194c0.26,0,0.498-0.042,0.712-0.127
		s0.362-0.151,0.442-0.203L163.732,57.389z"/>
	<path d="M167.707,57.929c-0.63,0-1.25-0.098-1.86-0.292c-0.61-0.195-1.135-0.479-1.575-0.849l0.57-0.885
		c0.46,0.35,0.92,0.613,1.38,0.788c0.459,0.175,0.945,0.262,1.455,0.262c0.57,0,1.022-0.112,1.358-0.337
		c0.335-0.225,0.502-0.542,0.502-0.953c0-0.188-0.045-0.352-0.135-0.487c-0.09-0.135-0.225-0.252-0.405-0.353
		c-0.18-0.1-0.41-0.19-0.69-0.27c-0.28-0.08-0.605-0.165-0.975-0.256c-0.47-0.119-0.875-0.234-1.215-0.345
		c-0.34-0.11-0.621-0.24-0.84-0.39c-0.22-0.15-0.38-0.33-0.48-0.54c-0.1-0.21-0.15-0.47-0.15-0.78c0-0.39,0.077-0.737,0.232-1.042
		c0.155-0.305,0.368-0.56,0.638-0.765s0.587-0.36,0.952-0.465c0.365-0.105,0.758-0.157,1.178-0.157c0.59,0,1.14,0.095,1.65,0.285
		c0.51,0.189,0.94,0.439,1.29,0.75l-0.6,0.795c-0.33-0.29-0.7-0.508-1.11-0.653c-0.41-0.145-0.83-0.217-1.26-0.217
		c-0.48,0-0.888,0.103-1.223,0.308s-0.502,0.532-0.502,0.982c0,0.18,0.032,0.33,0.097,0.45c0.065,0.119,0.173,0.225,0.323,0.314
		s0.342,0.17,0.578,0.24c0.235,0.07,0.517,0.145,0.847,0.225c0.52,0.12,0.973,0.243,1.357,0.367c0.385,0.125,0.705,0.273,0.96,0.443
		c0.255,0.17,0.445,0.37,0.57,0.6c0.125,0.23,0.188,0.51,0.188,0.84c0,0.73-0.28,1.311-0.84,1.74
		C169.412,57.714,168.657,57.929,167.707,57.929z"/>
	<path d="M180.382,57.929c-0.65,0-1.223-0.16-1.718-0.48s-0.888-0.725-1.179-1.215v4.74h-1.318V49.949h1.17v1.47
		c0.311-0.479,0.712-0.868,1.207-1.163s1.043-0.441,1.643-0.441c0.541,0,1.035,0.109,1.485,0.33c0.449,0.22,0.841,0.517,1.17,0.892
		c0.33,0.375,0.587,0.808,0.772,1.298c0.185,0.49,0.277,1,0.277,1.53c0,0.56-0.086,1.087-0.256,1.583s-0.41,0.925-0.72,1.29
		c-0.312,0.365-0.681,0.655-1.11,0.87C181.377,57.822,180.901,57.929,180.382,57.929z M179.978,56.789
		c0.39,0,0.742-0.082,1.058-0.247c0.313-0.165,0.585-0.385,0.81-0.66c0.227-0.274,0.397-0.587,0.518-0.938
		c0.121-0.352,0.182-0.71,0.182-1.08c0-0.39-0.07-0.762-0.21-1.118c-0.142-0.354-0.33-0.665-0.569-0.93
		c-0.24-0.266-0.522-0.476-0.849-0.63c-0.325-0.155-0.679-0.233-1.058-0.233c-0.24,0-0.487,0.048-0.742,0.144
		c-0.256,0.095-0.495,0.22-0.721,0.375c-0.226,0.154-0.42,0.34-0.586,0.555c-0.164,0.215-0.271,0.441-0.322,0.683v2.235
		c0.111,0.26,0.25,0.502,0.421,0.728c0.17,0.227,0.364,0.42,0.585,0.585c0.22,0.165,0.455,0.295,0.705,0.391
		C179.448,56.742,179.707,56.789,179.978,56.789z"/>
	<path d="M187.521,57.929c-0.369,0-0.715-0.062-1.035-0.188c-0.319-0.126-0.598-0.297-0.832-0.518s-0.42-0.478-0.555-0.772
		c-0.136-0.295-0.203-0.617-0.203-0.967c0-0.36,0.08-0.688,0.24-0.982c0.159-0.295,0.387-0.548,0.682-0.758
		c0.296-0.21,0.646-0.375,1.052-0.495c0.403-0.12,0.847-0.18,1.327-0.18c0.38,0,0.765,0.035,1.154,0.104
		c0.391,0.07,0.734,0.165,1.035,0.285v-0.63c0-0.64-0.181-1.142-0.539-1.507c-0.361-0.365-0.871-0.547-1.531-0.547
		c-0.789,0-1.619,0.305-2.489,0.915l-0.435-0.855c1.01-0.68,2.023-1.02,3.045-1.02c1.028,0,1.832,0.274,2.406,0.825
		c0.575,0.55,0.862,1.324,0.862,2.324v3.195c0,0.311,0.142,0.47,0.42,0.48v1.14c-0.14,0.02-0.255,0.035-0.345,0.045
		s-0.186,0.015-0.285,0.015c-0.26,0-0.469-0.077-0.622-0.231c-0.155-0.155-0.248-0.343-0.276-0.562l-0.031-0.555
		c-0.351,0.47-0.793,0.828-1.326,1.073C188.704,57.807,188.131,57.929,187.521,57.929z M187.866,56.939
		c0.47,0,0.906-0.087,1.312-0.264c0.404-0.175,0.713-0.406,0.922-0.696c0.189-0.19,0.285-0.386,0.285-0.585v-1.155
		c-0.641-0.25-1.306-0.375-1.994-0.375c-0.66,0-1.199,0.14-1.613,0.42c-0.416,0.28-0.622,0.646-0.622,1.095
		c0,0.221,0.042,0.426,0.128,0.615c0.084,0.19,0.203,0.355,0.359,0.495c0.154,0.14,0.338,0.25,0.547,0.33
		C187.401,56.899,187.626,56.939,187.866,56.939z"/>
	<path d="M198.036,57.929c-0.65,0-1.223-0.16-1.719-0.48c-0.494-0.32-0.887-0.725-1.178-1.215v4.74h-1.318V49.949h1.17v1.47
		c0.31-0.479,0.712-0.868,1.207-1.163c0.494-0.295,1.043-0.441,1.643-0.441c0.54,0,1.035,0.109,1.485,0.33
		c0.448,0.22,0.84,0.517,1.17,0.892s0.587,0.808,0.772,1.298c0.185,0.49,0.276,1,0.276,1.53c0,0.56-0.085,1.087-0.255,1.583
		s-0.41,0.925-0.721,1.29s-0.68,0.655-1.109,0.87S198.556,57.929,198.036,57.929z M197.631,56.789c0.39,0,0.742-0.082,1.058-0.247
		c0.314-0.165,0.586-0.385,0.811-0.66c0.227-0.274,0.396-0.587,0.518-0.938c0.121-0.352,0.182-0.71,0.182-1.08
		c0-0.39-0.07-0.762-0.211-1.118c-0.141-0.354-0.329-0.665-0.569-0.93c-0.24-0.266-0.522-0.476-0.849-0.63
		c-0.324-0.155-0.678-0.233-1.057-0.233c-0.24,0-0.488,0.048-0.742,0.144c-0.256,0.095-0.496,0.22-0.721,0.375
		c-0.226,0.154-0.421,0.34-0.586,0.555c-0.164,0.215-0.271,0.441-0.322,0.683v2.235c0.11,0.26,0.25,0.502,0.42,0.728
		c0.17,0.227,0.365,0.42,0.586,0.585c0.22,0.165,0.455,0.295,0.705,0.391C197.103,56.742,197.36,56.789,197.631,56.789z"/>
	<path d="M206.631,57.929c-0.591,0-1.131-0.107-1.62-0.322c-0.49-0.215-0.91-0.507-1.26-0.877c-0.352-0.37-0.623-0.804-0.818-1.298
		c-0.193-0.495-0.291-1.018-0.291-1.567s0.098-1.07,0.291-1.56c0.195-0.49,0.471-0.921,0.825-1.29
		c0.354-0.37,0.777-0.662,1.269-0.877c0.49-0.216,1.029-0.322,1.619-0.322s1.127,0.109,1.612,0.33
		c0.485,0.22,0.897,0.512,1.237,0.877s0.604,0.79,0.788,1.274c0.185,0.485,0.276,0.988,0.276,1.508c0,0.109-0.002,0.21-0.008,0.3
		c-0.005,0.09-0.013,0.16-0.021,0.21h-6.495c0.03,0.39,0.12,0.745,0.271,1.064c0.151,0.32,0.346,0.596,0.586,0.825
		c0.239,0.23,0.512,0.41,0.816,0.54s0.628,0.195,0.968,0.195c0.24,0,0.476-0.033,0.705-0.099c0.229-0.064,0.444-0.151,0.646-0.263
		c0.199-0.11,0.377-0.245,0.531-0.405c0.155-0.159,0.272-0.34,0.354-0.54l1.141,0.315c-0.13,0.29-0.308,0.555-0.531,0.795
		c-0.227,0.24-0.485,0.448-0.78,0.623c-0.296,0.175-0.623,0.313-0.982,0.413C207.396,57.879,207.021,57.929,206.631,57.929z
		 M209.315,53.339c-0.03-0.37-0.123-0.712-0.277-1.026c-0.155-0.315-0.352-0.583-0.585-0.804c-0.235-0.22-0.509-0.392-0.817-0.518
		c-0.311-0.125-0.641-0.188-0.99-0.188c-0.349,0-0.68,0.062-0.99,0.188c-0.309,0.125-0.581,0.3-0.816,0.525
		c-0.234,0.225-0.425,0.492-0.568,0.803c-0.146,0.31-0.233,0.649-0.264,1.02H209.315z"/>
	<path d="M216.171,51.104c-0.66,0.02-1.242,0.189-1.748,0.51c-0.505,0.32-0.861,0.765-1.072,1.335v4.83h-1.318v-7.83h1.229v1.815
		c0.271-0.54,0.625-0.978,1.065-1.312c0.438-0.335,0.909-0.521,1.409-0.562c0.101,0,0.186,0,0.256,0c0.068,0,0.13,0.005,0.18,0.015
		V51.104L216.171,51.104z"/>
</g>
<g>
	<path d="M76.683,172.985l14.671-8.917l3.818,6.281c0.394,0.646,0.62,1.322,0.684,2.031c0.062,0.707-0.013,1.395-0.222,2.058
		c-0.209,0.666-0.525,1.276-0.949,1.838c-0.424,0.559-0.925,1.014-1.504,1.365c-0.51,0.311-1.045,0.538-1.609,0.682
		c-0.562,0.145-1.119,0.199-1.668,0.166c-0.549-0.034-1.076-0.156-1.582-0.368c-0.506-0.212-0.963-0.515-1.371-0.907l-3.461,6.972
		l-1.281-2.108l3.235-6.55l-2.361-3.885l-5.269,3.203L76.683,172.985z M84.735,170.638l2.7,4.44
		c0.234,0.387,0.528,0.685,0.882,0.894s0.738,0.339,1.155,0.389c0.416,0.047,0.849,0.021,1.295-0.08
		c0.448-0.103,0.871-0.275,1.271-0.518c0.413-0.253,0.758-0.562,1.035-0.928c0.277-0.365,0.483-0.757,0.62-1.169
		c0.136-0.412,0.185-0.83,0.146-1.25c-0.039-0.419-0.166-0.809-0.384-1.166l-2.625-4.317L84.735,170.638z"/>
	<path d="M87.202,190.756c-0.494-0.812-0.793-1.645-0.896-2.497c-0.103-0.852-0.044-1.671,0.178-2.454
		c0.221-0.785,0.589-1.516,1.104-2.187c0.516-0.673,1.146-1.235,1.89-1.688c0.757-0.461,1.555-0.762,2.394-0.902
		c0.838-0.144,1.657-0.13,2.456,0.035c0.798,0.166,1.552,0.49,2.261,0.974c0.709,0.485,1.307,1.126,1.792,1.925
		c0.486,0.801,0.782,1.629,0.89,2.487c0.106,0.858,0.05,1.683-0.171,2.466c-0.221,0.786-0.587,1.519-1.099,2.195
		c-0.512,0.68-1.146,1.25-1.904,1.71c-0.743,0.452-1.533,0.753-2.366,0.901c-0.834,0.147-1.653,0.137-2.455-0.035
		c-0.804-0.173-1.559-0.501-2.268-0.984C88.297,192.217,87.695,191.568,87.202,190.756z M90.587,183.804
		c-0.564,0.344-1.031,0.754-1.4,1.231c-0.369,0.48-0.635,0.99-0.796,1.531c-0.162,0.542-0.214,1.092-0.156,1.65
		c0.057,0.561,0.236,1.088,0.538,1.583c0.301,0.496,0.687,0.898,1.157,1.207c0.47,0.31,0.988,0.517,1.555,0.625
		c0.565,0.109,1.149,0.107,1.752-0.004c0.602-0.11,1.186-0.338,1.751-0.682c0.551-0.334,1.014-0.744,1.39-1.229
		c0.376-0.481,0.646-1.001,0.811-1.553c0.163-0.553,0.217-1.107,0.16-1.668c-0.058-0.56-0.236-1.087-0.538-1.583
		c-0.301-0.496-0.69-0.896-1.168-1.2c-0.477-0.304-0.997-0.507-1.559-0.608c-0.562-0.103-1.144-0.098-1.746,0.014
		C91.735,183.233,91.152,183.46,90.587,183.804z"/>
	<path d="M97.042,194.284c0.757-0.461,1.553-0.766,2.387-0.914c0.834-0.147,1.649-0.135,2.445,0.042s1.545,0.509,2.247,0.997
		c0.702,0.487,1.305,1.146,1.807,1.972c0.653,1.074,0.979,2.146,0.977,3.213c-0.002,1.067-0.281,2.044-0.838,2.929l-1.638-1.438
		c0.342-0.586,0.504-1.213,0.484-1.881c-0.019-0.666-0.212-1.303-0.581-1.91c-0.301-0.496-0.686-0.902-1.153-1.223
		c-0.468-0.32-0.977-0.529-1.527-0.629c-0.551-0.099-1.123-0.095-1.719,0.013c-0.596,0.106-1.182,0.336-1.761,0.688
		c-0.565,0.343-1.036,0.762-1.415,1.256c-0.379,0.494-0.652,1.014-0.82,1.56s-0.225,1.1-0.167,1.658s0.236,1.087,0.538,1.583
		c0.192,0.317,0.428,0.603,0.705,0.858c0.277,0.255,0.57,0.465,0.877,0.627c0.307,0.163,0.617,0.279,0.936,0.353
		c0.316,0.071,0.617,0.077,0.901,0.018l0.543,2.103c-0.5,0.078-1.005,0.07-1.516-0.025c-0.511-0.095-1.005-0.271-1.481-0.528
		c-0.478-0.256-0.934-0.588-1.368-0.993c-0.434-0.405-0.815-0.877-1.142-1.413c-0.494-0.813-0.795-1.649-0.902-2.508
		c-0.107-0.859-0.053-1.687,0.164-2.478c0.217-0.793,0.584-1.528,1.104-2.214C95.646,195.315,96.284,194.744,97.042,194.284z"/>
	<path d="M103.646,217.349l3.009-6.923l-3.198-0.887l-3.327,2.022l-1.105-1.818l15.084-9.168l1.105,1.818l-9.918,6.027l8.966,2.136
		l1.218,2.004l-7.076-1.586l-3.563,8.336L103.646,217.349z"/>
</g>
<g>
	<path d="M51.335,167.065c-0.316-0.521-0.477-1.073-0.479-1.657c-0.004-0.583,0.124-1.123,0.384-1.62l-1.256,0.764l-0.607-1
		l9.356-5.687l0.686,1.127l-3.999,2.431c0.607,0.018,1.168,0.151,1.682,0.399c0.515,0.25,0.938,0.647,1.271,1.195
		c0.28,0.462,0.434,0.935,0.461,1.422c0.026,0.486-0.041,0.958-0.203,1.414s-0.411,0.883-0.749,1.279
		c-0.338,0.398-0.729,0.732-1.172,1.002c-0.471,0.286-0.964,0.476-1.482,0.567c-0.517,0.091-1.017,0.092-1.501-0.001
		c-0.483-0.092-0.935-0.277-1.354-0.554C51.95,167.871,51.604,167.51,51.335,167.065z M52.138,166.191
		c0.203,0.333,0.458,0.6,0.766,0.798c0.309,0.199,0.641,0.332,0.996,0.396s0.714,0.063,1.076-0.006
		c0.363-0.066,0.706-0.199,1.031-0.396c0.324-0.197,0.605-0.442,0.845-0.733c0.237-0.292,0.414-0.604,0.528-0.936
		c0.113-0.332,0.159-0.676,0.137-1.03c-0.023-0.355-0.133-0.695-0.33-1.021c-0.146-0.239-0.326-0.438-0.541-0.602
		s-0.449-0.291-0.702-0.389c-0.253-0.1-0.516-0.161-0.79-0.188c-0.273-0.026-0.549-0.026-0.824,0l-1.936,1.176
		c-0.188,0.174-0.328,0.386-0.422,0.635c-0.094,0.251-0.148,0.513-0.164,0.786c-0.016,0.272,0.005,0.542,0.061,0.806
		C51.923,165.751,52.013,165.986,52.138,166.191z"/>
	<path d="M55.901,174.577c-0.308-0.505-0.496-1.022-0.566-1.553c-0.071-0.53-0.039-1.041,0.096-1.531
		c0.133-0.492,0.361-0.949,0.684-1.373c0.323-0.424,0.717-0.779,1.188-1.063c0.47-0.286,0.965-0.473,1.484-0.562
		c0.52-0.087,1.031-0.075,1.531,0.035c0.501,0.112,0.97,0.32,1.408,0.627s0.811,0.712,1.117,1.217
		c0.307,0.504,0.491,1.021,0.555,1.548c0.064,0.529,0.029,1.034-0.106,1.515c-0.136,0.479-0.362,0.925-0.681,1.336
		c-0.318,0.409-0.7,0.75-1.145,1.02c-0.094,0.058-0.181,0.107-0.26,0.15c-0.08,0.041-0.144,0.072-0.191,0.089l-3.373-5.551
		c-0.317,0.229-0.574,0.491-0.77,0.785c-0.195,0.295-0.33,0.604-0.401,0.929c-0.072,0.324-0.084,0.649-0.037,0.979
		c0.048,0.328,0.16,0.639,0.336,0.929c0.125,0.205,0.274,0.389,0.45,0.553c0.174,0.162,0.36,0.301,0.559,0.414
		c0.199,0.113,0.406,0.195,0.623,0.244c0.217,0.051,0.432,0.057,0.645,0.021l0.322,1.14c-0.314,0.04-0.634,0.024-0.955-0.042
		c-0.322-0.068-0.635-0.183-0.938-0.345c-0.303-0.16-0.591-0.369-0.863-0.625C56.341,175.204,56.103,174.91,55.901,174.577z
		 M61.217,174.487c0.301-0.219,0.546-0.475,0.734-0.771c0.188-0.296,0.315-0.602,0.382-0.916c0.066-0.315,0.072-0.638,0.018-0.968
		c-0.054-0.33-0.172-0.644-0.354-0.941c-0.182-0.299-0.407-0.55-0.675-0.75c-0.268-0.199-0.559-0.342-0.874-0.427
		c-0.313-0.084-0.641-0.106-0.98-0.068c-0.341,0.036-0.677,0.138-1.009,0.306L61.217,174.487z"/>
	<path d="M59.749,180.909c-0.191-0.316-0.318-0.643-0.377-0.982c-0.06-0.338-0.057-0.664,0.009-0.979
		c0.066-0.314,0.19-0.606,0.372-0.875c0.183-0.269,0.423-0.493,0.722-0.676c0.308-0.188,0.63-0.288,0.965-0.306
		c0.335-0.017,0.669,0.048,1.001,0.189c0.333,0.143,0.656,0.357,0.969,0.641c0.313,0.284,0.594,0.63,0.844,1.041
		c0.197,0.324,0.367,0.672,0.51,1.041s0.24,0.714,0.294,1.033l0.538-0.328c0.547-0.332,0.883-0.747,1.009-1.243
		c0.124-0.499,0.016-1.027-0.327-1.593c-0.41-0.676-1.103-1.226-2.075-1.651l0.505-0.816c1.105,0.511,1.923,1.201,2.453,2.073
		c0.535,0.879,0.717,1.708,0.545,2.484c-0.172,0.777-0.684,1.427-1.539,1.944l-2.729,1.659c-0.266,0.162-0.329,0.365-0.192,0.607
		l-0.975,0.593c-0.09-0.108-0.162-0.2-0.217-0.271c-0.056-0.072-0.109-0.151-0.162-0.236c-0.135-0.222-0.176-0.438-0.123-0.651
		c0.051-0.213,0.163-0.391,0.336-0.529l0.459-0.313c-0.584-0.056-1.119-0.247-1.605-0.576
		C60.469,181.856,60.065,181.43,59.749,180.909z M60.774,180.689c0.244,0.4,0.546,0.729,0.905,0.984
		c0.36,0.257,0.719,0.397,1.076,0.428c0.261,0.062,0.477,0.043,0.647-0.062l0.987-0.6c-0.119-0.676-0.357-1.311-0.716-1.899
		c-0.343-0.562-0.742-0.95-1.197-1.16c-0.454-0.209-0.874-0.196-1.259,0.037c-0.188,0.114-0.341,0.257-0.458,0.43
		c-0.119,0.171-0.198,0.358-0.236,0.563c-0.04,0.205-0.039,0.418,0.002,0.639C60.567,180.271,60.649,180.483,60.774,180.689z"/>
	<path d="M65.555,189.422c-0.075-0.048-0.171-0.111-0.285-0.195c-0.114-0.081-0.238-0.18-0.371-0.292
		c-0.133-0.112-0.265-0.242-0.396-0.392c-0.131-0.148-0.251-0.312-0.36-0.492c-0.249-0.408-0.353-0.833-0.308-1.271
		c0.045-0.437,0.307-0.799,0.785-1.09l4.5-2.735l-0.554-0.911l0.885-0.537l0.553,0.911l2.23-1.355l0.686,1.127l-2.23,1.355
		l0.911,1.5l-0.885,0.537l-0.91-1.5l-4.153,2.524c-0.238,0.168-0.368,0.357-0.391,0.57c-0.022,0.213,0.026,0.417,0.146,0.612
		c0.135,0.226,0.294,0.404,0.479,0.544c0.184,0.141,0.318,0.23,0.402,0.272L65.555,189.422z"/>
	<path d="M67.158,193.099c-0.327-0.538-0.566-1.119-0.716-1.741s-0.182-1.218-0.094-1.786L67.4,189.6
		c-0.06,0.573-0.045,1.104,0.044,1.588c0.09,0.483,0.266,0.943,0.531,1.38c0.296,0.486,0.627,0.813,0.994,0.983
		c0.366,0.171,0.724,0.148,1.074-0.064c0.162-0.099,0.278-0.222,0.347-0.368c0.069-0.146,0.099-0.324,0.091-0.529
		s-0.051-0.448-0.127-0.729c-0.078-0.28-0.174-0.604-0.289-0.967c-0.142-0.464-0.254-0.87-0.336-1.218
		c-0.083-0.347-0.117-0.654-0.104-0.921c0.015-0.266,0.084-0.495,0.212-0.688c0.128-0.195,0.323-0.373,0.589-0.533
		c0.333-0.203,0.67-0.317,1.012-0.344c0.342-0.025,0.669,0.022,0.985,0.146c0.315,0.124,0.612,0.315,0.892,0.573
		c0.279,0.257,0.528,0.565,0.746,0.924c0.307,0.504,0.511,1.023,0.613,1.56c0.103,0.532,0.112,1.03,0.029,1.491l-0.991-0.101
		c0.076-0.433,0.07-0.862-0.019-1.287c-0.089-0.426-0.246-0.823-0.469-1.189c-0.249-0.41-0.549-0.705-0.897-0.886
		c-0.35-0.18-0.716-0.151-1.101,0.082c-0.154,0.095-0.266,0.198-0.334,0.316c-0.069,0.117-0.104,0.264-0.102,0.438
		c0.001,0.176,0.032,0.382,0.094,0.617c0.063,0.238,0.146,0.519,0.249,0.842c0.167,0.507,0.298,0.957,0.391,1.352
		c0.093,0.394,0.134,0.744,0.12,1.05c-0.013,0.307-0.084,0.572-0.216,0.8c-0.132,0.227-0.339,0.425-0.62,0.598
		c-0.625,0.379-1.266,0.438-1.924,0.186C68.228,194.444,67.651,193.911,67.158,193.099z"/>
	<path d="M72.978,202.674c-0.326-0.538-0.565-1.118-0.716-1.74c-0.15-0.623-0.182-1.22-0.094-1.785l1.053,0.026
		c-0.061,0.574-0.046,1.104,0.044,1.589c0.089,0.483,0.266,0.942,0.531,1.381c0.295,0.485,0.627,0.813,0.993,0.982
		c0.366,0.17,0.724,0.147,1.074-0.064c0.163-0.1,0.278-0.223,0.347-0.368c0.068-0.147,0.1-0.323,0.092-0.53
		c-0.009-0.205-0.052-0.449-0.128-0.729c-0.077-0.281-0.174-0.604-0.289-0.968c-0.142-0.463-0.254-0.868-0.337-1.217
		c-0.082-0.348-0.116-0.654-0.102-0.92c0.014-0.266,0.084-0.496,0.212-0.689c0.127-0.194,0.323-0.373,0.589-0.534
		c0.333-0.202,0.67-0.316,1.011-0.343c0.341-0.025,0.67,0.022,0.985,0.146c0.314,0.124,0.612,0.314,0.892,0.572
		c0.28,0.258,0.528,0.565,0.747,0.925c0.307,0.504,0.51,1.022,0.613,1.558s0.111,1.031,0.029,1.492l-0.992-0.1
		c0.076-0.434,0.07-0.861-0.018-1.287c-0.09-0.426-0.246-0.822-0.47-1.189c-0.249-0.409-0.548-0.706-0.897-0.886
		s-0.716-0.152-1.1,0.081c-0.154,0.094-0.266,0.199-0.335,0.317c-0.068,0.116-0.103,0.263-0.102,0.438s0.033,0.382,0.095,0.618
		c0.062,0.237,0.146,0.518,0.248,0.842c0.167,0.505,0.298,0.957,0.391,1.352c0.094,0.394,0.134,0.744,0.121,1.051
		c-0.014,0.306-0.086,0.572-0.217,0.799c-0.132,0.226-0.338,0.425-0.62,0.596c-0.624,0.38-1.266,0.44-1.924,0.188
		C74.047,204.019,73.472,203.486,72.978,202.674z"/>
	<path d="M78.614,204.094c0.471-0.285,0.964-0.476,1.481-0.566c0.517-0.091,1.022-0.082,1.517,0.024
		c0.494,0.11,0.958,0.316,1.395,0.619c0.435,0.304,0.809,0.711,1.121,1.225c0.404,0.666,0.606,1.331,0.605,1.992
		c-0.002,0.662-0.176,1.268-0.52,1.816l-1.017-0.893c0.212-0.362,0.312-0.751,0.301-1.166c-0.012-0.413-0.132-0.811-0.36-1.186
		c-0.188-0.308-0.426-0.561-0.716-0.759s-0.606-0.328-0.948-0.39c-0.341-0.062-0.696-0.061-1.065,0.007
		c-0.37,0.065-0.733,0.209-1.093,0.428c-0.351,0.213-0.643,0.473-0.878,0.778c-0.234,0.308-0.404,0.63-0.509,0.968
		c-0.104,0.339-0.139,0.682-0.104,1.029c0.035,0.347,0.146,0.674,0.334,0.981c0.119,0.195,0.265,0.373,0.438,0.532
		c0.172,0.158,0.354,0.288,0.545,0.389c0.189,0.102,0.382,0.175,0.579,0.22c0.196,0.044,0.383,0.048,0.56,0.011l0.337,1.305
		c-0.311,0.048-0.623,0.043-0.94-0.018c-0.316-0.06-0.623-0.168-0.919-0.326c-0.296-0.16-0.579-0.366-0.849-0.617
		c-0.271-0.252-0.506-0.544-0.709-0.877c-0.307-0.505-0.493-1.022-0.559-1.555c-0.067-0.533-0.033-1.047,0.102-1.537
		c0.134-0.492,0.362-0.949,0.684-1.373C77.749,204.733,78.145,204.38,78.614,204.094z"/>
	<path d="M79.845,213.685l6.691-4.066l0.686,1.127l-6.691,4.066L79.845,213.685z M87.792,208.854l1.41-0.857l0.686,1.127
		l-1.41,0.857L87.792,208.854z"/>
	<path d="M82.935,219.056c-0.328-0.538-0.566-1.119-0.716-1.741c-0.151-0.622-0.183-1.218-0.095-1.786l1.053,0.028
		c-0.061,0.573-0.046,1.104,0.043,1.588c0.09,0.483,0.268,0.941,0.532,1.38c0.296,0.485,0.628,0.813,0.993,0.983
		c0.366,0.17,0.725,0.146,1.075-0.065c0.162-0.1,0.277-0.221,0.347-0.368c0.068-0.146,0.099-0.323,0.091-0.528
		c-0.009-0.205-0.052-0.448-0.128-0.729c-0.077-0.281-0.174-0.604-0.288-0.966c-0.142-0.464-0.254-0.87-0.337-1.218
		c-0.082-0.349-0.117-0.654-0.103-0.921c0.014-0.266,0.085-0.496,0.212-0.689c0.128-0.194,0.324-0.372,0.589-0.532
		c0.333-0.203,0.67-0.318,1.012-0.344c0.341-0.025,0.669,0.021,0.984,0.146c0.315,0.124,0.612,0.315,0.893,0.571
		c0.279,0.259,0.528,0.566,0.746,0.926c0.306,0.504,0.511,1.023,0.614,1.56c0.102,0.532,0.111,1.03,0.028,1.491l-0.991-0.102
		c0.076-0.433,0.07-0.861-0.019-1.286c-0.089-0.426-0.246-0.823-0.469-1.189c-0.249-0.41-0.549-0.705-0.898-0.887
		c-0.349-0.18-0.716-0.151-1.101,0.081c-0.153,0.095-0.265,0.199-0.333,0.318c-0.069,0.117-0.104,0.264-0.103,0.438
		c0.002,0.175,0.033,0.382,0.096,0.617c0.062,0.238,0.145,0.519,0.248,0.841c0.167,0.508,0.297,0.958,0.391,1.352
		c0.093,0.395,0.133,0.744,0.121,1.051c-0.014,0.306-0.086,0.572-0.218,0.799c-0.132,0.228-0.338,0.425-0.62,0.597
		c-0.623,0.38-1.265,0.44-1.923,0.187C84.003,220.401,83.428,219.867,82.935,219.056z"/>
	<path d="M86.783,225.388c-0.327-0.538-0.566-1.119-0.716-1.741c-0.151-0.622-0.182-1.218-0.094-1.786l1.052,0.028
		c-0.06,0.573-0.046,1.104,0.044,1.588c0.09,0.483,0.266,0.943,0.531,1.38c0.296,0.485,0.627,0.813,0.994,0.983
		c0.366,0.169,0.724,0.148,1.074-0.064c0.162-0.1,0.277-0.222,0.347-0.368c0.068-0.147,0.099-0.324,0.091-0.529
		s-0.051-0.448-0.128-0.729c-0.077-0.282-0.173-0.604-0.288-0.967c-0.142-0.465-0.254-0.87-0.337-1.218
		c-0.082-0.347-0.116-0.654-0.103-0.921c0.013-0.266,0.084-0.495,0.212-0.689s0.323-0.372,0.589-0.532
		c0.333-0.203,0.67-0.318,1.012-0.344c0.341-0.025,0.669,0.022,0.985,0.146c0.314,0.124,0.612,0.315,0.892,0.571
		c0.279,0.259,0.527,0.567,0.746,0.926c0.307,0.504,0.51,1.023,0.613,1.56c0.103,0.532,0.112,1.03,0.029,1.491l-0.991-0.101
		c0.076-0.433,0.069-0.862-0.019-1.287c-0.089-0.426-0.246-0.823-0.469-1.189c-0.249-0.41-0.549-0.705-0.898-0.886
		c-0.349-0.18-0.716-0.152-1.1,0.08c-0.154,0.094-0.266,0.2-0.334,0.318c-0.069,0.117-0.104,0.264-0.102,0.438
		c0.001,0.175,0.032,0.382,0.094,0.617c0.062,0.238,0.146,0.519,0.249,0.842c0.167,0.507,0.298,0.957,0.391,1.351
		c0.093,0.395,0.134,0.744,0.12,1.051c-0.013,0.307-0.085,0.572-0.217,0.8c-0.132,0.227-0.338,0.425-0.619,0.598
		c-0.625,0.379-1.266,0.438-1.924,0.186C87.853,226.733,87.276,226.2,86.783,225.388z"/>
	<path d="M90.982,232.298c-0.307-0.505-0.491-1.021-0.556-1.551c-0.064-0.526-0.027-1.035,0.109-1.521
		c0.136-0.487,0.365-0.939,0.686-1.356c0.321-0.417,0.711-0.766,1.173-1.046c0.47-0.286,0.965-0.472,1.484-0.561
		c0.521-0.088,1.028-0.079,1.523,0.021c0.495,0.104,0.963,0.305,1.403,0.605c0.438,0.299,0.811,0.696,1.111,1.192
		c0.301,0.495,0.484,1.01,0.551,1.543c0.067,0.533,0.031,1.043-0.104,1.529c-0.138,0.487-0.365,0.94-0.683,1.362
		c-0.316,0.421-0.711,0.773-1.181,1.061c-0.461,0.28-0.951,0.466-1.469,0.558c-0.517,0.094-1.024,0.087-1.522-0.021
		s-0.967-0.312-1.407-0.609C91.662,233.203,91.289,232.802,90.982,232.298z M93.082,227.983c-0.351,0.213-0.64,0.468-0.868,0.766
		c-0.229,0.297-0.395,0.613-0.494,0.95c-0.1,0.335-0.133,0.677-0.097,1.024c0.035,0.347,0.146,0.674,0.333,0.981
		c0.188,0.308,0.427,0.558,0.719,0.747c0.291,0.191,0.613,0.321,0.965,0.389c0.351,0.067,0.713,0.066,1.086-0.003
		c0.373-0.067,0.735-0.21,1.086-0.423c0.342-0.208,0.629-0.462,0.863-0.761c0.232-0.3,0.4-0.621,0.502-0.964
		c0.102-0.343,0.135-0.688,0.1-1.035c-0.035-0.347-0.146-0.675-0.334-0.981c-0.187-0.309-0.429-0.557-0.725-0.743
		c-0.296-0.189-0.618-0.315-0.967-0.379c-0.349-0.062-0.709-0.061-1.083,0.01C93.794,227.63,93.433,227.771,93.082,227.983z"/>
	<path d="M101.855,237.046c-0.36-0.553-0.809-0.964-1.344-1.229c-0.536-0.267-1.102-0.34-1.697-0.225l-4.128,2.51L94,236.975
		l6.691-4.066l0.639,1.051l-1.551,0.942c0.602-0.05,1.159,0.026,1.674,0.229c0.516,0.201,0.919,0.507,1.213,0.912
		c0.053,0.086,0.097,0.158,0.133,0.22c0.036,0.06,0.063,0.113,0.081,0.16L101.855,237.046z"/>
	<path d="M98.126,244.052c-0.326-0.537-0.565-1.118-0.715-1.74c-0.151-0.622-0.183-1.219-0.094-1.786l1.052,0.028
		c-0.06,0.573-0.046,1.104,0.044,1.588c0.09,0.483,0.266,0.941,0.531,1.38c0.296,0.485,0.627,0.813,0.994,0.983
		c0.365,0.169,0.724,0.146,1.074-0.065c0.162-0.1,0.277-0.222,0.347-0.368c0.068-0.146,0.099-0.323,0.091-0.528
		c-0.009-0.205-0.051-0.449-0.128-0.729c-0.077-0.281-0.173-0.604-0.289-0.966c-0.141-0.465-0.253-0.87-0.336-1.218
		c-0.082-0.349-0.116-0.654-0.103-0.921c0.013-0.266,0.084-0.496,0.212-0.689c0.128-0.194,0.323-0.372,0.589-0.532
		c0.333-0.203,0.67-0.318,1.012-0.344c0.341-0.025,0.669,0.021,0.984,0.146c0.315,0.124,0.613,0.315,0.893,0.571
		c0.279,0.259,0.527,0.565,0.746,0.926c0.307,0.504,0.51,1.023,0.613,1.56c0.103,0.532,0.112,1.03,0.029,1.491l-0.991-0.102
		c0.076-0.433,0.069-0.861-0.019-1.286c-0.089-0.426-0.246-0.823-0.469-1.19c-0.249-0.409-0.549-0.704-0.898-0.886
		c-0.349-0.18-0.716-0.151-1.1,0.081c-0.154,0.094-0.266,0.199-0.334,0.318c-0.069,0.117-0.104,0.264-0.102,0.438
		c0.001,0.174,0.032,0.381,0.094,0.617c0.062,0.238,0.146,0.519,0.249,0.841c0.167,0.507,0.298,0.958,0.39,1.352
		c0.094,0.395,0.134,0.744,0.121,1.051c-0.013,0.306-0.085,0.572-0.217,0.799c-0.132,0.228-0.338,0.425-0.619,0.596
		c-0.625,0.381-1.266,0.441-1.924,0.188S98.62,244.863,98.126,244.052z"/>
</g>
<g>
	<path d="M245.963,220.859l-14.918-8.496l3.542-6.22c0.375-0.658,0.855-1.188,1.445-1.584c0.589-0.397,1.224-0.667,1.906-0.808
		c0.682-0.14,1.371-0.16,2.065-0.062c0.694,0.1,1.336,0.315,1.925,0.651c0.616,0.351,1.152,0.795,1.606,1.331
		c0.455,0.537,0.797,1.127,1.024,1.768c0.229,0.641,0.322,1.307,0.282,1.998c-0.042,0.689-0.249,1.364-0.624,2.022l-2.537,4.454
		l5.357,3.052L245.963,220.859z M240.001,214.959l2.479-4.349c0.223-0.394,0.345-0.792,0.361-1.199
		c0.02-0.406-0.052-0.804-0.212-1.19c-0.157-0.389-0.392-0.753-0.698-1.095s-0.668-0.632-1.09-0.871
		c-0.434-0.247-0.883-0.404-1.344-0.474c-0.463-0.068-0.903-0.06-1.323,0.026c-0.42,0.085-0.801,0.249-1.142,0.489
		c-0.342,0.241-0.617,0.544-0.824,0.908l-2.404,4.225L240.001,214.959z"/>
	<path d="M254.993,205.494c-0.295,0.52-0.659,0.951-1.09,1.301c-0.43,0.35-0.893,0.601-1.389,0.753
		c-0.494,0.153-1.004,0.207-1.524,0.161c-0.521-0.047-1.025-0.209-1.517-0.487c-0.505-0.287-0.899-0.66-1.186-1.12
		c-0.286-0.459-0.458-0.979-0.518-1.562c-0.06-0.58-0.012-1.202,0.145-1.866c0.154-0.661,0.425-1.33,0.809-2.003
		c0.303-0.531,0.658-1.044,1.067-1.532c0.409-0.491,0.817-0.897,1.226-1.224l-0.883-0.503c-0.896-0.51-1.744-0.659-2.542-0.446
		c-0.799,0.215-1.461,0.782-1.987,1.707c-0.631,1.106-0.865,2.514-0.705,4.218l-1.545-0.072c-0.146-1.957,0.187-3.65,1-5.079
		c0.821-1.442,1.849-2.348,3.076-2.714c1.229-0.366,2.545-0.151,3.945,0.646l4.477,2.549c0.434,0.247,0.771,0.18,1.006-0.205
		l1.598,0.908c-0.083,0.213-0.154,0.386-0.212,0.521s-0.127,0.271-0.206,0.411c-0.208,0.363-0.48,0.593-0.823,0.687
		c-0.34,0.094-0.677,0.074-1.009-0.061l-0.801-0.4c0.379,0.866,0.525,1.771,0.441,2.715
		C255.765,203.74,255.479,204.641,254.993,205.494z M253.881,204.221c0.375-0.658,0.603-1.342,0.681-2.049
		c0.076-0.707-0.002-1.321-0.242-1.849c-0.113-0.417-0.312-0.706-0.592-0.865l-1.617-0.922c-0.86,0.697-1.565,1.529-2.116,2.496
		c-0.526,0.924-0.759,1.789-0.698,2.594c0.062,0.806,0.407,1.388,1.036,1.744c0.31,0.177,0.63,0.28,0.963,0.312
		c0.335,0.032,0.662-0.003,0.981-0.108c0.32-0.106,0.619-0.274,0.898-0.505C253.454,204.841,253.688,204.557,253.881,204.221z"/>
	<path d="M263.382,190.766c-0.52,0.91-1.199,1.585-2.043,2.021c-0.843,0.438-1.724,0.666-2.643,0.681l6.641,3.781l-1.053,1.851
		l-15.443-8.797l0.934-1.64l2.061,1.174c-0.426-0.816-0.646-1.689-0.666-2.619c-0.018-0.929,0.212-1.812,0.689-2.653
		c0.432-0.756,0.98-1.361,1.647-1.816s1.396-0.764,2.185-0.928c0.789-0.162,1.6-0.178,2.434-0.047
		c0.834,0.133,1.623,0.41,2.365,0.833c0.783,0.446,1.455,0.985,2.014,1.619c0.557,0.634,0.969,1.312,1.23,2.038
		c0.266,0.726,0.375,1.475,0.334,2.248C264.024,189.286,263.797,190.037,263.382,190.766z M261.461,190.424
		c0.312-0.547,0.478-1.104,0.497-1.679c0.021-0.573-0.072-1.127-0.277-1.661c-0.205-0.535-0.506-1.024-0.9-1.473
		c-0.395-0.447-0.852-0.819-1.368-1.114c-0.547-0.312-1.124-0.51-1.733-0.598c-0.607-0.087-1.193-0.067-1.757,0.057
		c-0.562,0.126-1.082,0.354-1.56,0.686c-0.477,0.332-0.865,0.764-1.17,1.296c-0.19,0.336-0.322,0.721-0.393,1.152
		c-0.07,0.435-0.087,0.869-0.049,1.309c0.037,0.438,0.143,0.859,0.311,1.263c0.17,0.403,0.402,0.734,0.698,0.996l3.13,1.783
		c0.453,0.054,0.904,0.051,1.354-0.008c0.45-0.06,0.879-0.178,1.286-0.354c0.406-0.176,0.777-0.399,1.109-0.676
		C260.972,191.129,261.246,190.802,261.461,190.424z"/>
	<path d="M270.239,178.727c-0.471,0.826-1.053,1.497-1.746,2.012c-0.691,0.515-1.436,0.87-2.233,1.065
		c-0.797,0.194-1.62,0.23-2.47,0.108c-0.85-0.121-1.658-0.4-2.43-0.841c-0.771-0.438-1.42-0.99-1.951-1.654
		c-0.53-0.664-0.913-1.393-1.148-2.185c-0.234-0.792-0.308-1.617-0.218-2.477c0.09-0.856,0.369-1.698,0.84-2.525
		c0.472-0.826,1.054-1.491,1.75-1.996c0.694-0.503,1.435-0.849,2.216-1.033c0.782-0.185,1.588-0.213,2.414-0.085
		c0.827,0.128,1.604,0.398,2.334,0.813c0.153,0.088,0.291,0.171,0.414,0.25c0.121,0.078,0.213,0.146,0.275,0.198l-5.182,9.099
		c0.568,0.269,1.14,0.427,1.705,0.472c0.569,0.045,1.11-0.009,1.623-0.162c0.515-0.152,0.983-0.391,1.409-0.714
		c0.425-0.323,0.773-0.724,1.046-1.2c0.19-0.336,0.332-0.688,0.426-1.063c0.092-0.374,0.142-0.745,0.146-1.113
		c0.005-0.367-0.042-0.724-0.143-1.068c-0.102-0.344-0.26-0.651-0.478-0.925l1.353-1.346c0.303,0.414,0.531,0.873,0.688,1.38
		c0.156,0.507,0.238,1.037,0.249,1.59c0.01,0.553-0.059,1.121-0.206,1.705S270.551,178.18,270.239,178.727z M265.951,171.304
		c-0.542-0.254-1.097-0.396-1.66-0.432c-0.565-0.034-1.097,0.025-1.591,0.179c-0.496,0.154-0.956,0.398-1.379,0.732
		c-0.422,0.335-0.772,0.747-1.053,1.237c-0.279,0.489-0.455,1.002-0.526,1.536c-0.072,0.533-0.044,1.056,0.084,1.562
		c0.127,0.509,0.351,0.989,0.669,1.439c0.318,0.449,0.727,0.844,1.22,1.182L265.951,171.304z"/>
	<path d="M268.289,159.919c-0.498,0.94-0.726,1.893-0.681,2.854c0.047,0.962,0.384,1.817,1.016,2.566l6.766,3.854l-1.054,1.849
		l-10.968-6.247l0.98-1.723l2.543,1.448c-0.541-0.81-0.869-1.655-0.99-2.539c-0.115-0.883-0.006-1.691,0.339-2.424
		c0.079-0.141,0.147-0.26,0.202-0.357c0.057-0.098,0.111-0.178,0.166-0.24L268.289,159.919z"/>
</g>
<g>
	<path d="M261.681,230.823c-0.302,0.53-0.707,0.938-1.215,1.224c-0.509,0.286-1.044,0.438-1.604,0.451l1.277,0.728l-0.58,1.018
		l-9.516-5.42l0.652-1.146l4.068,2.316c-0.281-0.54-0.437-1.094-0.469-1.665c-0.031-0.57,0.109-1.134,0.428-1.688
		c0.268-0.471,0.607-0.834,1.021-1.096c0.413-0.259,0.856-0.429,1.334-0.508c0.478-0.08,0.972-0.068,1.483,0.033
		c0.511,0.101,0.992,0.281,1.444,0.538c0.478,0.271,0.884,0.612,1.216,1.02c0.332,0.408,0.573,0.846,0.729,1.312
		c0.152,0.468,0.211,0.952,0.173,1.454S261.938,230.371,261.681,230.823z M260.524,230.545c0.193-0.339,0.304-0.69,0.328-1.057
		c0.023-0.366-0.022-0.721-0.139-1.062c-0.115-0.341-0.291-0.653-0.527-0.938c-0.234-0.283-0.518-0.52-0.848-0.707
		c-0.33-0.188-0.682-0.315-1.051-0.383c-0.37-0.067-0.729-0.069-1.074-0.008c-0.347,0.062-0.669,0.188-0.968,0.381
		c-0.3,0.191-0.543,0.453-0.731,0.783c-0.139,0.243-0.226,0.498-0.264,0.766c-0.036,0.267-0.036,0.534,0.001,0.803
		c0.037,0.27,0.11,0.529,0.22,0.781c0.11,0.252,0.242,0.492,0.4,0.721l1.968,1.12c0.243,0.081,0.495,0.102,0.761,0.062
		c0.265-0.039,0.52-0.118,0.766-0.237c0.246-0.118,0.472-0.268,0.676-0.444C260.246,230.946,260.407,230.754,260.524,230.545z"/>
	<path d="M266.03,223.186c-0.293,0.513-0.653,0.928-1.082,1.248c-0.43,0.318-0.891,0.539-1.387,0.659
		c-0.494,0.121-1.006,0.145-1.531,0.068c-0.526-0.076-1.029-0.25-1.508-0.521c-0.478-0.272-0.881-0.614-1.211-1.026
		c-0.328-0.412-0.564-0.864-0.713-1.355c-0.146-0.49-0.19-1.003-0.135-1.535c0.057-0.531,0.229-1.055,0.521-1.566
		c0.291-0.512,0.654-0.925,1.084-1.238c0.433-0.312,0.891-0.524,1.375-0.642c0.484-0.114,0.983-0.132,1.498-0.053
		c0.514,0.079,0.996,0.248,1.447,0.505c0.096,0.055,0.182,0.105,0.258,0.154c0.076,0.05,0.133,0.091,0.172,0.124l-3.215,5.644
		c0.353,0.167,0.707,0.266,1.059,0.293c0.354,0.027,0.688-0.005,1.006-0.101c0.318-0.095,0.609-0.241,0.874-0.442
		s0.479-0.449,0.647-0.744c0.119-0.209,0.209-0.429,0.265-0.661c0.06-0.23,0.089-0.462,0.092-0.689
		c0.003-0.229-0.026-0.449-0.089-0.664c-0.062-0.213-0.16-0.404-0.294-0.572l0.837-0.835c0.188,0.257,0.331,0.542,0.428,0.854
		c0.098,0.315,0.149,0.645,0.155,0.987c0.006,0.342-0.036,0.695-0.128,1.057C266.365,222.496,266.224,222.847,266.03,223.186z
		 M263.37,218.58c-0.335-0.156-0.68-0.246-1.03-0.268c-0.349-0.021-0.679,0.017-0.985,0.11c-0.308,0.097-0.592,0.247-0.854,0.455
		c-0.264,0.207-0.479,0.463-0.652,0.768s-0.283,0.622-0.328,0.953c-0.043,0.332-0.026,0.654,0.053,0.97
		c0.08,0.315,0.218,0.614,0.414,0.894c0.197,0.278,0.451,0.523,0.757,0.732L263.37,218.58z"/>
	<path d="M269.696,216.746c-0.182,0.322-0.406,0.591-0.674,0.808s-0.556,0.371-0.861,0.468c-0.309,0.096-0.623,0.128-0.945,0.101
		c-0.324-0.029-0.638-0.131-0.941-0.304c-0.312-0.179-0.558-0.409-0.734-0.694c-0.178-0.285-0.284-0.606-0.32-0.969
		c-0.037-0.359-0.008-0.746,0.09-1.157c0.096-0.411,0.264-0.825,0.5-1.242c0.188-0.33,0.409-0.646,0.664-0.951
		c0.252-0.305,0.506-0.558,0.758-0.759l-0.547-0.312c-0.556-0.316-1.082-0.409-1.576-0.276c-0.496,0.132-0.905,0.485-1.232,1.06
		c-0.391,0.687-0.537,1.559-0.438,2.615l-0.959-0.045c-0.09-1.214,0.115-2.264,0.621-3.149c0.51-0.896,1.146-1.456,1.908-1.685
		c0.764-0.229,1.578-0.094,2.446,0.4l2.776,1.582c0.27,0.153,0.479,0.111,0.625-0.127l0.99,0.562
		c-0.053,0.133-0.096,0.238-0.132,0.321c-0.036,0.084-0.077,0.169-0.128,0.256c-0.129,0.227-0.299,0.367-0.511,0.426
		c-0.211,0.06-0.419,0.047-0.626-0.036l-0.496-0.249c0.234,0.536,0.326,1.099,0.273,1.685
		C270.176,215.66,270,216.217,269.696,216.746z M269.008,215.957c0.232-0.408,0.373-0.832,0.421-1.271
		c0.051-0.438-0.001-0.821-0.148-1.147c-0.07-0.259-0.192-0.438-0.366-0.536l-1.004-0.571c-0.534,0.433-0.972,0.947-1.313,1.548
		c-0.326,0.574-0.471,1.109-0.433,1.608s0.253,0.859,0.644,1.082c0.191,0.109,0.392,0.174,0.598,0.194
		c0.207,0.021,0.41-0.002,0.609-0.068c0.197-0.063,0.383-0.169,0.557-0.312C268.744,216.341,268.89,216.165,269.008,215.957z"/>
	<path d="M274.321,207.538c-0.006,0.089-0.018,0.204-0.032,0.345c-0.017,0.141-0.042,0.295-0.075,0.467
		c-0.033,0.171-0.085,0.35-0.15,0.535c-0.064,0.188-0.15,0.371-0.254,0.555c-0.238,0.417-0.56,0.712-0.963,0.885
		c-0.404,0.174-0.848,0.121-1.334-0.156l-4.576-2.604l-0.526,0.926l-0.899-0.513l0.527-0.927l-2.268-1.291l0.652-1.146l2.268,1.292
		l0.869-1.525l0.898,0.514l-0.868,1.524l4.224,2.405c0.263,0.126,0.492,0.146,0.688,0.062c0.196-0.083,0.353-0.226,0.466-0.425
		c0.129-0.227,0.209-0.453,0.242-0.682c0.032-0.229,0.047-0.392,0.042-0.485L274.321,207.538z"/>
	<path d="M276.758,204.352c-0.312,0.547-0.704,1.038-1.175,1.471c-0.473,0.434-0.977,0.75-1.518,0.949l-0.485-0.934
		c0.532-0.226,0.987-0.497,1.367-0.81c0.38-0.313,0.694-0.691,0.946-1.135c0.282-0.495,0.408-0.943,0.379-1.347
		c-0.028-0.402-0.223-0.706-0.578-0.907c-0.164-0.095-0.328-0.137-0.489-0.124c-0.162,0.011-0.33,0.069-0.509,0.177
		c-0.176,0.106-0.366,0.263-0.575,0.467c-0.207,0.203-0.442,0.443-0.703,0.721c-0.337,0.351-0.638,0.645-0.901,0.886
		c-0.263,0.24-0.517,0.42-0.754,0.537c-0.24,0.116-0.477,0.167-0.707,0.148c-0.231-0.017-0.481-0.102-0.752-0.256
		c-0.339-0.192-0.604-0.432-0.791-0.718c-0.188-0.285-0.306-0.598-0.35-0.934c-0.045-0.335-0.021-0.688,0.066-1.058
		c0.09-0.369,0.237-0.736,0.445-1.101c0.292-0.514,0.647-0.944,1.064-1.294c0.418-0.349,0.848-0.599,1.291-0.748l0.394,0.913
		c-0.415,0.145-0.788,0.357-1.116,0.643c-0.328,0.284-0.6,0.614-0.812,0.987c-0.237,0.417-0.352,0.821-0.339,1.215
		c0.013,0.393,0.215,0.698,0.604,0.922c0.156,0.089,0.303,0.136,0.439,0.139c0.136,0.003,0.279-0.039,0.433-0.125
		s0.317-0.213,0.495-0.383c0.178-0.169,0.383-0.377,0.614-0.625c0.36-0.393,0.692-0.725,0.991-0.997
		c0.3-0.271,0.587-0.478,0.859-0.615c0.273-0.137,0.543-0.204,0.803-0.197c0.263,0.005,0.537,0.088,0.824,0.252
		c0.633,0.36,1,0.892,1.096,1.592C277.414,202.764,277.228,203.526,276.758,204.352z"/>
	<path d="M277.062,190.025c-0.31,0.583-0.449,1.173-0.422,1.771c0.028,0.599,0.237,1.128,0.631,1.594l4.196,2.391l-0.653,1.146
		l-6.805-3.875l0.608-1.067l1.577,0.897c-0.336-0.502-0.539-1.026-0.612-1.574c-0.073-0.549-0.004-1.05,0.208-1.505
		c0.05-0.087,0.092-0.159,0.127-0.222c0.034-0.061,0.068-0.108,0.102-0.147L277.062,190.025z"/>
	<path d="M285.242,189.453c-0.292,0.514-0.653,0.926-1.084,1.238c-0.433,0.312-0.894,0.526-1.386,0.644s-0.998,0.138-1.52,0.06
		c-0.52-0.077-1.014-0.249-1.482-0.518c-0.479-0.271-0.883-0.612-1.211-1.024c-0.33-0.412-0.568-0.86-0.721-1.344
		c-0.15-0.482-0.201-0.988-0.152-1.52s0.217-1.048,0.504-1.552s0.647-0.914,1.082-1.231c0.434-0.315,0.896-0.534,1.388-0.649
		c0.493-0.116,1-0.14,1.522-0.065c0.521,0.074,1.021,0.246,1.5,0.518c0.469,0.269,0.869,0.605,1.201,1.014
		c0.331,0.407,0.572,0.854,0.721,1.342c0.147,0.487,0.197,0.997,0.148,1.527C285.704,188.421,285.534,188.941,285.242,189.453z
		 M280.452,189.712c0.355,0.203,0.72,0.332,1.091,0.389s0.728,0.047,1.069-0.029c0.342-0.075,0.656-0.213,0.943-0.412
		c0.285-0.2,0.518-0.456,0.694-0.77c0.179-0.312,0.281-0.644,0.308-0.99c0.025-0.348-0.018-0.691-0.131-1.031
		c-0.109-0.34-0.287-0.656-0.529-0.949c-0.239-0.293-0.539-0.541-0.896-0.744c-0.347-0.196-0.709-0.325-1.085-0.385
		c-0.374-0.059-0.736-0.049-1.086,0.029c-0.35,0.077-0.667,0.215-0.953,0.415c-0.286,0.199-0.518,0.456-0.695,0.769
		c-0.179,0.312-0.277,0.646-0.301,0.994c-0.021,0.353,0.025,0.694,0.141,1.029c0.113,0.336,0.291,0.648,0.533,0.941
		C279.796,189.26,280.097,189.509,280.452,189.712z"/>
	<path d="M284.192,183.055c-0.479-0.272-0.883-0.612-1.217-1.021c-0.33-0.407-0.568-0.854-0.713-1.339
		c-0.145-0.484-0.188-0.991-0.137-1.52c0.055-0.526,0.229-1.053,0.525-1.573c0.386-0.679,0.867-1.178,1.449-1.497
		c0.578-0.319,1.192-0.462,1.84-0.427l-0.287,1.319c-0.42-0.008-0.81,0.092-1.166,0.304c-0.354,0.212-0.643,0.509-0.859,0.891
		c-0.178,0.312-0.283,0.645-0.316,0.994c-0.031,0.35,0.008,0.688,0.121,1.018c0.11,0.329,0.286,0.639,0.522,0.929
		c0.237,0.291,0.539,0.54,0.903,0.748c0.356,0.203,0.726,0.332,1.106,0.39c0.384,0.057,0.747,0.049,1.093-0.024
		c0.348-0.073,0.664-0.21,0.95-0.409c0.286-0.198,0.519-0.455,0.695-0.769c0.114-0.199,0.198-0.414,0.254-0.643
		c0.055-0.227,0.08-0.447,0.077-0.662c-0.006-0.217-0.035-0.42-0.092-0.613c-0.058-0.193-0.145-0.358-0.264-0.494l0.979-0.929
		c0.193,0.249,0.341,0.523,0.441,0.83c0.102,0.306,0.155,0.627,0.159,0.963c0.005,0.337-0.037,0.684-0.126,1.041
		c-0.09,0.357-0.23,0.706-0.423,1.046c-0.292,0.512-0.655,0.927-1.088,1.244c-0.435,0.315-0.899,0.535-1.394,0.655
		c-0.494,0.122-1.006,0.146-1.531,0.068C285.172,183.5,284.67,183.327,284.192,183.055z"/>
	<path d="M294.711,172.526l-4.66,0.453l0.483,2.001l2.099,1.194l-0.653,1.147l-9.516-5.42l0.653-1.146l6.257,3.563l-1.544-5.506
		l0.721-1.265l1.271,4.315l5.595-0.577L294.711,172.526z"/>
</g>
</svg>
