<?xml version="1.0" encoding="utf-8" standalone="no"?>
<!DOCTYPE svg PUBLIC "-//W3C//DTD SVG 1.1//EN"
  "http://www.w3.org/Graphics/SVG/1.1/DTD/svg11.dtd">
<!-- Created with matplotlib (http://matplotlib.org/) -->
<svg height="576pt" version="1.1" viewBox="0 0 360 576" width="360pt" xmlns="http://www.w3.org/2000/svg" xmlns:xlink="http://www.w3.org/1999/xlink">
 <defs>
  <style type="text/css">
*{stroke-linecap:butt;stroke-linejoin:round;}
  </style>
 </defs>
 <g id="figure_1">
  <g id="patch_1">
   <path d="M 0 576 
L 360 576 
L 360 0 
L 0 0 
z
" style="fill:none;"/>
  </g>
  <g id="axes_1">
   <g id="patch_2">
    <path d="M 18 115.2 
L 342 115.2 
L 342 28.8 
L 18 28.8 
z
" style="fill:none;"/>
   </g>
   <g id="matplotlib.axis_1">
    <g id="xtick_1">
     <g id="line2d_1">
      <defs>
       <path d="M 0 0 
L 0 3 
" id="m540c8b5480" style="stroke:#222222;"/>
      </defs>
      <g>
       <use style="fill:#222222;stroke:#222222;" x="50.4" xlink:href="#m540c8b5480" y="115.2"/>
      </g>
     </g>
     <g id="text_1">
      <!-- 30 -->
      <defs>
       <path d="M 40.578125 39.3125 
Q 47.65625 37.796875 51.625 33 
Q 55.609375 28.21875 55.609375 21.1875 
Q 55.609375 10.40625 48.1875 4.484375 
Q 40.765625 -1.421875 27.09375 -1.421875 
Q 22.515625 -1.421875 17.65625 -0.515625 
Q 12.796875 0.390625 7.625 2.203125 
L 7.625 11.71875 
Q 11.71875 9.328125 16.59375 8.109375 
Q 21.484375 6.890625 26.8125 6.890625 
Q 36.078125 6.890625 40.9375 10.546875 
Q 45.796875 14.203125 45.796875 21.1875 
Q 45.796875 27.640625 41.28125 31.265625 
Q 36.765625 34.90625 28.71875 34.90625 
L 20.21875 34.90625 
L 20.21875 43.015625 
L 29.109375 43.015625 
Q 36.375 43.015625 40.234375 45.921875 
Q 44.09375 48.828125 44.09375 54.296875 
Q 44.09375 59.90625 40.109375 62.90625 
Q 36.140625 65.921875 28.71875 65.921875 
Q 24.65625 65.921875 20.015625 65.03125 
Q 15.375 64.15625 9.8125 62.3125 
L 9.8125 71.09375 
Q 15.4375 72.65625 20.34375 73.4375 
Q 25.25 74.21875 29.59375 74.21875 
Q 40.828125 74.21875 47.359375 69.109375 
Q 53.90625 64.015625 53.90625 55.328125 
Q 53.90625 49.265625 50.4375 45.09375 
Q 46.96875 40.921875 40.578125 39.3125 
z
" id="DejaVuSans-33"/>
       <path d="M 31.78125 66.40625 
Q 24.171875 66.40625 20.328125 58.90625 
Q 16.5 51.421875 16.5 36.375 
Q 16.5 21.390625 20.328125 13.890625 
Q 24.171875 6.390625 31.78125 6.390625 
Q 39.453125 6.390625 43.28125 13.890625 
Q 47.125 21.390625 47.125 36.375 
Q 47.125 51.421875 43.28125 58.90625 
Q 39.453125 66.40625 31.78125 66.40625 
z
M 31.78125 74.21875 
Q 44.046875 74.21875 50.515625 64.515625 
Q 56.984375 54.828125 56.984375 36.375 
Q 56.984375 17.96875 50.515625 8.265625 
Q 44.046875 -1.421875 31.78125 -1.421875 
Q 19.53125 -1.421875 13.0625 8.265625 
Q 6.59375 17.96875 6.59375 36.375 
Q 6.59375 54.828125 13.0625 64.515625 
Q 19.53125 74.21875 31.78125 74.21875 
z
" id="DejaVuSans-30"/>
      </defs>
      <g style="fill:#222222;" transform="translate(42.765 128.318125)scale(0.12 -0.12)">
       <use xlink:href="#DejaVuSans-33"/>
       <use x="63.623047" xlink:href="#DejaVuSans-30"/>
      </g>
     </g>
    </g>
    <g id="xtick_2">
     <g id="line2d_2">
      <g>
       <use style="fill:#222222;stroke:#222222;" x="115.2" xlink:href="#m540c8b5480" y="115.2"/>
      </g>
     </g>
     <g id="text_2">
      <!-- 40 -->
      <defs>
       <path d="M 37.796875 64.3125 
L 12.890625 25.390625 
L 37.796875 25.390625 
z
M 35.203125 72.90625 
L 47.609375 72.90625 
L 47.609375 25.390625 
L 58.015625 25.390625 
L 58.015625 17.1875 
L 47.609375 17.1875 
L 47.609375 0 
L 37.796875 0 
L 37.796875 17.1875 
L 4.890625 17.1875 
L 4.890625 26.703125 
z
" id="DejaVuSans-34"/>
      </defs>
      <g style="fill:#222222;" transform="translate(107.565 128.318125)scale(0.12 -0.12)">
       <use xlink:href="#DejaVuSans-34"/>
       <use x="63.623047" xlink:href="#DejaVuSans-30"/>
      </g>
     </g>
    </g>
    <g id="xtick_3">
     <g id="line2d_3">
      <g>
       <use style="fill:#222222;stroke:#222222;" x="180" xlink:href="#m540c8b5480" y="115.2"/>
      </g>
     </g>
     <g id="text_3">
      <!-- 50 -->
      <defs>
       <path d="M 10.796875 72.90625 
L 49.515625 72.90625 
L 49.515625 64.59375 
L 19.828125 64.59375 
L 19.828125 46.734375 
Q 21.96875 47.46875 24.109375 47.828125 
Q 26.265625 48.1875 28.421875 48.1875 
Q 40.625 48.1875 47.75 41.5 
Q 54.890625 34.8125 54.890625 23.390625 
Q 54.890625 11.625 47.5625 5.09375 
Q 40.234375 -1.421875 26.90625 -1.421875 
Q 22.3125 -1.421875 17.546875 -0.640625 
Q 12.796875 0.140625 7.71875 1.703125 
L 7.71875 11.625 
Q 12.109375 9.234375 16.796875 8.0625 
Q 21.484375 6.890625 26.703125 6.890625 
Q 35.15625 6.890625 40.078125 11.328125 
Q 45.015625 15.765625 45.015625 23.390625 
Q 45.015625 31 40.078125 35.4375 
Q 35.15625 39.890625 26.703125 39.890625 
Q 22.75 39.890625 18.8125 39.015625 
Q 14.890625 38.140625 10.796875 36.28125 
z
" id="DejaVuSans-35"/>
      </defs>
      <g style="fill:#222222;" transform="translate(172.365 128.318125)scale(0.12 -0.12)">
       <use xlink:href="#DejaVuSans-35"/>
       <use x="63.623047" xlink:href="#DejaVuSans-30"/>
      </g>
     </g>
    </g>
    <g id="xtick_4">
     <g id="line2d_4">
      <g>
       <use style="fill:#222222;stroke:#222222;" x="244.8" xlink:href="#m540c8b5480" y="115.2"/>
      </g>
     </g>
     <g id="text_4">
      <!-- 60 -->
      <defs>
       <path d="M 33.015625 40.375 
Q 26.375 40.375 22.484375 35.828125 
Q 18.609375 31.296875 18.609375 23.390625 
Q 18.609375 15.53125 22.484375 10.953125 
Q 26.375 6.390625 33.015625 6.390625 
Q 39.65625 6.390625 43.53125 10.953125 
Q 47.40625 15.53125 47.40625 23.390625 
Q 47.40625 31.296875 43.53125 35.828125 
Q 39.65625 40.375 33.015625 40.375 
z
M 52.59375 71.296875 
L 52.59375 62.3125 
Q 48.875 64.0625 45.09375 64.984375 
Q 41.3125 65.921875 37.59375 65.921875 
Q 27.828125 65.921875 22.671875 59.328125 
Q 17.53125 52.734375 16.796875 39.40625 
Q 19.671875 43.65625 24.015625 45.921875 
Q 28.375 48.1875 33.59375 48.1875 
Q 44.578125 48.1875 50.953125 41.515625 
Q 57.328125 34.859375 57.328125 23.390625 
Q 57.328125 12.15625 50.6875 5.359375 
Q 44.046875 -1.421875 33.015625 -1.421875 
Q 20.359375 -1.421875 13.671875 8.265625 
Q 6.984375 17.96875 6.984375 36.375 
Q 6.984375 53.65625 15.1875 63.9375 
Q 23.390625 74.21875 37.203125 74.21875 
Q 40.921875 74.21875 44.703125 73.484375 
Q 48.484375 72.75 52.59375 71.296875 
z
" id="DejaVuSans-36"/>
      </defs>
      <g style="fill:#222222;" transform="translate(237.165 128.318125)scale(0.12 -0.12)">
       <use xlink:href="#DejaVuSans-36"/>
       <use x="63.623047" xlink:href="#DejaVuSans-30"/>
      </g>
     </g>
    </g>
    <g id="xtick_5">
     <g id="line2d_5">
      <g>
       <use style="fill:#222222;stroke:#222222;" x="309.6" xlink:href="#m540c8b5480" y="115.2"/>
      </g>
     </g>
     <g id="text_5">
      <!-- 70 -->
      <defs>
       <path d="M 8.203125 72.90625 
L 55.078125 72.90625 
L 55.078125 68.703125 
L 28.609375 0 
L 18.3125 0 
L 43.21875 64.59375 
L 8.203125 64.59375 
z
" id="DejaVuSans-37"/>
      </defs>
      <g style="fill:#222222;" transform="translate(301.965 128.318125)scale(0.12 -0.12)">
       <use xlink:href="#DejaVuSans-37"/>
       <use x="63.623047" xlink:href="#DejaVuSans-30"/>
      </g>
     </g>
    </g>
   </g>
   <g id="matplotlib.axis_2"/>
   <g id="line2d_6">
    <path clip-path="url(#p8d9b5a8b70)" d="M 25.503623 111.467128 
L 28.006948 109.857254 
L 30.510272 107.796919 
L 33.013597 105.245178 
L 35.516921 102.180447 
L 38.020245 98.60425 
L 40.52357 94.543068 
L 43.026894 90.048083 
L 45.530219 85.192916 
L 48.033543 80.069677 
L 50.536868 74.783805 
L 53.040192 69.448259 
L 55.543516 64.177613 
L 58.046841 59.082527 
L 60.550165 54.264985 
L 63.05349 49.814529 
L 65.556814 45.805609 
L 68.060139 42.296058 
L 70.563463 39.326595 
L 73.066787 36.921226 
L 75.570112 35.088346 
L 78.073436 33.822364 
L 80.576761 33.105663 
L 83.080085 32.910722 
L 85.58341 33.20228 
L 88.086734 33.939408 
L 90.590058 35.077433 
L 93.093383 36.569648 
L 95.596707 38.368781 
L 98.100032 40.428218 
L 100.603356 42.702976 
L 103.106681 45.150453 
L 105.610005 47.73096 
L 108.113329 50.408085 
L 110.616654 53.148886 
L 113.119978 55.923967 
L 115.623303 58.70745 
L 118.126627 61.476859 
L 120.629952 64.21296 
L 123.133276 66.899545 
L 125.6366 69.523201 
L 128.139925 72.073059 
L 130.643249 74.54054 
L 133.146574 76.919101 
L 135.649898 79.203999 
L 138.153223 81.392056 
L 140.656547 83.481445 
L 143.159871 85.471494 
L 145.663196 87.362503 
L 148.16652 89.155584 
L 150.669845 90.852515 
L 153.173169 92.455611 
L 155.676494 93.96761 
L 158.179818 95.391577 
L 160.683142 96.730817 
L 163.186467 97.988804 
L 165.689791 99.169118 
L 168.193116 100.275392 
L 170.69644 101.31127 
L 173.199765 102.280371 
L 175.703089 103.186259 
L 178.206413 104.032421 
L 180.709738 104.822248 
L 183.213062 105.55902 
L 185.716387 106.245895 
L 188.219711 106.885907 
L 190.723036 107.481953 
L 193.22636 108.036798 
L 195.729685 108.55307 
L 198.233009 109.033262 
L 200.736333 109.479732 
L 203.239658 109.894709 
L 205.742982 110.280297 
L 208.246307 110.638472 
L 210.749631 110.971097 
L 213.252956 111.279918 
L 215.75628 111.566574 
L 218.259604 111.832601 
L 220.762929 112.079435 
L 223.266253 112.30842 
L 225.769578 112.520812 
L 228.272902 112.717783 
L 230.776227 112.900427 
L 233.279551 113.069765 
L 235.782875 113.226745 
L 238.2862 113.372255 
L 240.789524 113.507118 
L 243.292849 113.632101 
L 245.796173 113.747918 
L 248.299498 113.855233 
L 250.802822 113.954662 
L 253.306146 114.046777 
L 255.809471 114.132112 
L 258.312795 114.211161 
L 260.81612 114.284383 
L 263.319444 114.352203 
L 265.822769 114.415018 
L 268.326093 114.473194 
L 270.829417 114.527072 
L 273.332742 114.576967 
" style="fill:none;stroke:#000000;stroke-dasharray:5.55,2.4;stroke-dashoffset:0;stroke-width:1.5;"/>
   </g>
   <g id="line2d_7">
    <path clip-path="url(#p8d9b5a8b70)" d="M 70.609652 115.12517 
L 71.932101 115.070159 
L 73.25455 114.979821 
L 74.576999 114.835105 
L 75.899448 114.609001 
L 77.221897 114.264522 
L 78.544346 113.752868 
L 79.866795 113.012188 
L 81.189243 111.967491 
L 82.511692 110.532363 
L 83.834141 108.613084 
L 85.15659 106.11563 
L 86.479039 102.955666 
L 87.801488 99.071158 
L 89.123937 94.436581 
L 90.446386 89.077051 
L 91.768835 83.080171 
L 93.091284 76.603147 
L 94.413733 69.872867 
L 95.736182 63.177376 
L 97.058631 56.848244 
L 98.38108 51.234873 
L 99.703529 46.673228 
L 101.025978 43.452802 
L 102.348427 41.786272 
L 103.670876 41.786272 
L 104.993325 43.452802 
L 106.315774 46.673228 
L 107.638223 51.234873 
L 108.960672 56.848244 
L 110.283121 63.177376 
L 111.60557 69.872867 
L 112.928019 76.603147 
L 114.250468 83.080171 
L 115.572917 89.077051 
L 116.895366 94.436581 
L 118.217815 99.071158 
L 119.540264 102.955666 
L 120.862713 106.11563 
L 122.185162 108.613084 
L 123.507611 110.532363 
L 124.83006 111.967491 
L 126.152509 113.012188 
L 127.474958 113.752868 
L 128.797407 114.264522 
L 130.119856 114.609001 
L 131.442305 114.835105 
L 132.764754 114.979821 
L 134.087203 115.070159 
L 135.409652 115.12517 
" style="fill:none;stroke:#9fc857;stroke-linecap:square;stroke-width:1.5;"/>
   </g>
   <g id="line2d_8">
    <path clip-path="url(#p8d9b5a8b70)" d="M 103.009652 115.2 
L 103.009652 31.392 
" style="fill:none;stroke:#fbc15e;stroke-linecap:square;stroke-width:1.5;"/>
   </g>
   <g id="patch_3">
    <path d="M 18 115.2 
L 342 115.2 
" style="fill:none;stroke:#222222;stroke-linecap:square;stroke-linejoin:miter;"/>
   </g>
   <g id="text_6">
    <!-- $\mu$ -->
    <defs>
     <path d="M -1.3125 -20.796875 
L 13.375 54.6875 
L 22.40625 54.6875 
L 15.765625 20.65625 
Q 15.578125 19.625 15.421875 18.359375 
Q 15.28125 17.09375 15.28125 15.828125 
Q 15.28125 11.28125 18.140625 8.828125 
Q 21 6.390625 26.3125 6.390625 
Q 33.546875 6.390625 37.984375 10.484375 
Q 42.4375 14.59375 44 22.796875 
L 50.203125 54.6875 
L 59.1875 54.6875 
L 51.03125 12.640625 
Q 50.828125 11.71875 50.75 11.03125 
Q 50.6875 10.359375 50.6875 9.8125 
Q 50.6875 8.296875 51.296875 7.59375 
Q 51.90625 6.890625 53.21875 6.890625 
Q 53.71875 6.890625 54.5625 7.125 
Q 55.421875 7.375 56.984375 8.015625 
L 55.609375 0.78125 
Q 53.46875 -0.296875 51.515625 -0.859375 
Q 49.5625 -1.421875 47.703125 -1.421875 
Q 44.484375 -1.421875 42.65625 0.625 
Q 40.828125 2.6875 40.828125 6.296875 
Q 38.09375 2.390625 34.296875 0.484375 
Q 30.515625 -1.421875 25.390625 -1.421875 
Q 20.84375 -1.421875 17.453125 0.671875 
Q 14.0625 2.78125 12.984375 6.203125 
L 7.71875 -20.796875 
z
" id="DejaVuSans-Oblique-3bc"/>
    </defs>
    <g style="fill:#fbc15e;" transform="translate(97.249652 26.208)scale(0.18 -0.18)">
     <use transform="translate(0 0.3125)" xlink:href="#DejaVuSans-Oblique-3bc"/>
    </g>
   </g>
   <g id="text_7">
    <!-- Population -->
    <defs>
     <path d="M 19.671875 64.796875 
L 19.671875 37.40625 
L 32.078125 37.40625 
Q 38.96875 37.40625 42.71875 40.96875 
Q 46.484375 44.53125 46.484375 51.125 
Q 46.484375 57.671875 42.71875 61.234375 
Q 38.96875 64.796875 32.078125 64.796875 
z
M 9.8125 72.90625 
L 32.078125 72.90625 
Q 44.34375 72.90625 50.609375 67.359375 
Q 56.890625 61.8125 56.890625 51.125 
Q 56.890625 40.328125 50.609375 34.8125 
Q 44.34375 29.296875 32.078125 29.296875 
L 19.671875 29.296875 
L 19.671875 0 
L 9.8125 0 
z
" id="DejaVuSans-50"/>
     <path d="M 30.609375 48.390625 
Q 23.390625 48.390625 19.1875 42.75 
Q 14.984375 37.109375 14.984375 27.296875 
Q 14.984375 17.484375 19.15625 11.84375 
Q 23.34375 6.203125 30.609375 6.203125 
Q 37.796875 6.203125 41.984375 11.859375 
Q 46.1875 17.53125 46.1875 27.296875 
Q 46.1875 37.015625 41.984375 42.703125 
Q 37.796875 48.390625 30.609375 48.390625 
z
M 30.609375 56 
Q 42.328125 56 49.015625 48.375 
Q 55.71875 40.765625 55.71875 27.296875 
Q 55.71875 13.875 49.015625 6.21875 
Q 42.328125 -1.421875 30.609375 -1.421875 
Q 18.84375 -1.421875 12.171875 6.21875 
Q 5.515625 13.875 5.515625 27.296875 
Q 5.515625 40.765625 12.171875 48.375 
Q 18.84375 56 30.609375 56 
z
" id="DejaVuSans-6f"/>
     <path d="M 18.109375 8.203125 
L 18.109375 -20.796875 
L 9.078125 -20.796875 
L 9.078125 54.6875 
L 18.109375 54.6875 
L 18.109375 46.390625 
Q 20.953125 51.265625 25.265625 53.625 
Q 29.59375 56 35.59375 56 
Q 45.5625 56 51.78125 48.09375 
Q 58.015625 40.1875 58.015625 27.296875 
Q 58.015625 14.40625 51.78125 6.484375 
Q 45.5625 -1.421875 35.59375 -1.421875 
Q 29.59375 -1.421875 25.265625 0.953125 
Q 20.953125 3.328125 18.109375 8.203125 
z
M 48.6875 27.296875 
Q 48.6875 37.203125 44.609375 42.84375 
Q 40.53125 48.484375 33.40625 48.484375 
Q 26.265625 48.484375 22.1875 42.84375 
Q 18.109375 37.203125 18.109375 27.296875 
Q 18.109375 17.390625 22.1875 11.75 
Q 26.265625 6.109375 33.40625 6.109375 
Q 40.53125 6.109375 44.609375 11.75 
Q 48.6875 17.390625 48.6875 27.296875 
z
" id="DejaVuSans-70"/>
     <path d="M 8.5 21.578125 
L 8.5 54.6875 
L 17.484375 54.6875 
L 17.484375 21.921875 
Q 17.484375 14.15625 20.5 10.265625 
Q 23.53125 6.390625 29.59375 6.390625 
Q 36.859375 6.390625 41.078125 11.03125 
Q 45.3125 15.671875 45.3125 23.6875 
L 45.3125 54.6875 
L 54.296875 54.6875 
L 54.296875 0 
L 45.3125 0 
L 45.3125 8.40625 
Q 42.046875 3.421875 37.71875 1 
Q 33.40625 -1.421875 27.6875 -1.421875 
Q 18.265625 -1.421875 13.375 4.4375 
Q 8.5 10.296875 8.5 21.578125 
z
M 31.109375 56 
z
" id="DejaVuSans-75"/>
     <path d="M 9.421875 75.984375 
L 18.40625 75.984375 
L 18.40625 0 
L 9.421875 0 
z
" id="DejaVuSans-6c"/>
     <path d="M 34.28125 27.484375 
Q 23.390625 27.484375 19.1875 25 
Q 14.984375 22.515625 14.984375 16.5 
Q 14.984375 11.71875 18.140625 8.90625 
Q 21.296875 6.109375 26.703125 6.109375 
Q 34.1875 6.109375 38.703125 11.40625 
Q 43.21875 16.703125 43.21875 25.484375 
L 43.21875 27.484375 
z
M 52.203125 31.203125 
L 52.203125 0 
L 43.21875 0 
L 43.21875 8.296875 
Q 40.140625 3.328125 35.546875 0.953125 
Q 30.953125 -1.421875 24.3125 -1.421875 
Q 15.921875 -1.421875 10.953125 3.296875 
Q 6 8.015625 6 15.921875 
Q 6 25.140625 12.171875 29.828125 
Q 18.359375 34.515625 30.609375 34.515625 
L 43.21875 34.515625 
L 43.21875 35.40625 
Q 43.21875 41.609375 39.140625 45 
Q 35.0625 48.390625 27.6875 48.390625 
Q 23 48.390625 18.546875 47.265625 
Q 14.109375 46.140625 10.015625 43.890625 
L 10.015625 52.203125 
Q 14.9375 54.109375 19.578125 55.046875 
Q 24.21875 56 28.609375 56 
Q 40.484375 56 46.34375 49.84375 
Q 52.203125 43.703125 52.203125 31.203125 
z
" id="DejaVuSans-61"/>
     <path d="M 18.3125 70.21875 
L 18.3125 54.6875 
L 36.8125 54.6875 
L 36.8125 47.703125 
L 18.3125 47.703125 
L 18.3125 18.015625 
Q 18.3125 11.328125 20.140625 9.421875 
Q 21.96875 7.515625 27.59375 7.515625 
L 36.8125 7.515625 
L 36.8125 0 
L 27.59375 0 
Q 17.1875 0 13.234375 3.875 
Q 9.28125 7.765625 9.28125 18.015625 
L 9.28125 47.703125 
L 2.6875 47.703125 
L 2.6875 54.6875 
L 9.28125 54.6875 
L 9.28125 70.21875 
z
" id="DejaVuSans-74"/>
     <path d="M 9.421875 54.6875 
L 18.40625 54.6875 
L 18.40625 0 
L 9.421875 0 
z
M 9.421875 75.984375 
L 18.40625 75.984375 
L 18.40625 64.59375 
L 9.421875 64.59375 
z
" id="DejaVuSans-69"/>
     <path d="M 54.890625 33.015625 
L 54.890625 0 
L 45.90625 0 
L 45.90625 32.71875 
Q 45.90625 40.484375 42.875 44.328125 
Q 39.84375 48.1875 33.796875 48.1875 
Q 26.515625 48.1875 22.3125 43.546875 
Q 18.109375 38.921875 18.109375 30.90625 
L 18.109375 0 
L 9.078125 0 
L 9.078125 54.6875 
L 18.109375 54.6875 
L 18.109375 46.1875 
Q 21.34375 51.125 25.703125 53.5625 
Q 30.078125 56 35.796875 56 
Q 45.21875 56 50.046875 50.171875 
Q 54.890625 44.34375 54.890625 33.015625 
z
" id="DejaVuSans-6e"/>
    </defs>
    <g transform="translate(213.398438 102.24)scale(0.18 -0.18)">
     <use xlink:href="#DejaVuSans-50"/>
     <use x="60.255859" xlink:href="#DejaVuSans-6f"/>
     <use x="121.4375" xlink:href="#DejaVuSans-70"/>
     <use x="184.914062" xlink:href="#DejaVuSans-75"/>
     <use x="248.292969" xlink:href="#DejaVuSans-6c"/>
     <use x="276.076172" xlink:href="#DejaVuSans-61"/>
     <use x="337.355469" xlink:href="#DejaVuSans-74"/>
     <use x="376.564453" xlink:href="#DejaVuSans-69"/>
     <use x="404.347656" xlink:href="#DejaVuSans-6f"/>
     <use x="465.529297" xlink:href="#DejaVuSans-6e"/>
    </g>
   </g>
   <g id="text_8">
    <!-- Sampling distribution -->
    <defs>
     <path d="M 53.515625 70.515625 
L 53.515625 60.890625 
Q 47.90625 63.578125 42.921875 64.890625 
Q 37.9375 66.21875 33.296875 66.21875 
Q 25.25 66.21875 20.875 63.09375 
Q 16.5 59.96875 16.5 54.203125 
Q 16.5 49.359375 19.40625 46.890625 
Q 22.3125 44.4375 30.421875 42.921875 
L 36.375 41.703125 
Q 47.40625 39.59375 52.65625 34.296875 
Q 57.90625 29 57.90625 20.125 
Q 57.90625 9.515625 50.796875 4.046875 
Q 43.703125 -1.421875 29.984375 -1.421875 
Q 24.8125 -1.421875 18.96875 -0.25 
Q 13.140625 0.921875 6.890625 3.21875 
L 6.890625 13.375 
Q 12.890625 10.015625 18.65625 8.296875 
Q 24.421875 6.59375 29.984375 6.59375 
Q 38.421875 6.59375 43.015625 9.90625 
Q 47.609375 13.234375 47.609375 19.390625 
Q 47.609375 24.75 44.3125 27.78125 
Q 41.015625 30.8125 33.5 32.328125 
L 27.484375 33.5 
Q 16.453125 35.6875 11.515625 40.375 
Q 6.59375 45.0625 6.59375 53.421875 
Q 6.59375 63.09375 13.40625 68.65625 
Q 20.21875 74.21875 32.171875 74.21875 
Q 37.3125 74.21875 42.625 73.28125 
Q 47.953125 72.359375 53.515625 70.515625 
z
" id="DejaVuSans-53"/>
     <path d="M 52 44.1875 
Q 55.375 50.25 60.0625 53.125 
Q 64.75 56 71.09375 56 
Q 79.640625 56 84.28125 50.015625 
Q 88.921875 44.046875 88.921875 33.015625 
L 88.921875 0 
L 79.890625 0 
L 79.890625 32.71875 
Q 79.890625 40.578125 77.09375 44.375 
Q 74.3125 48.1875 68.609375 48.1875 
Q 61.625 48.1875 57.5625 43.546875 
Q 53.515625 38.921875 53.515625 30.90625 
L 53.515625 0 
L 44.484375 0 
L 44.484375 32.71875 
Q 44.484375 40.625 41.703125 44.40625 
Q 38.921875 48.1875 33.109375 48.1875 
Q 26.21875 48.1875 22.15625 43.53125 
Q 18.109375 38.875 18.109375 30.90625 
L 18.109375 0 
L 9.078125 0 
L 9.078125 54.6875 
L 18.109375 54.6875 
L 18.109375 46.1875 
Q 21.1875 51.21875 25.484375 53.609375 
Q 29.78125 56 35.6875 56 
Q 41.65625 56 45.828125 52.96875 
Q 50 49.953125 52 44.1875 
z
" id="DejaVuSans-6d"/>
     <path d="M 45.40625 27.984375 
Q 45.40625 37.75 41.375 43.109375 
Q 37.359375 48.484375 30.078125 48.484375 
Q 22.859375 48.484375 18.828125 43.109375 
Q 14.796875 37.75 14.796875 27.984375 
Q 14.796875 18.265625 18.828125 12.890625 
Q 22.859375 7.515625 30.078125 7.515625 
Q 37.359375 7.515625 41.375 12.890625 
Q 45.40625 18.265625 45.40625 27.984375 
z
M 54.390625 6.78125 
Q 54.390625 -7.171875 48.1875 -13.984375 
Q 42 -20.796875 29.203125 -20.796875 
Q 24.46875 -20.796875 20.265625 -20.09375 
Q 16.0625 -19.390625 12.109375 -17.921875 
L 12.109375 -9.1875 
Q 16.0625 -11.328125 19.921875 -12.34375 
Q 23.78125 -13.375 27.78125 -13.375 
Q 36.625 -13.375 41.015625 -8.765625 
Q 45.40625 -4.15625 45.40625 5.171875 
L 45.40625 9.625 
Q 42.625 4.78125 38.28125 2.390625 
Q 33.9375 0 27.875 0 
Q 17.828125 0 11.671875 7.65625 
Q 5.515625 15.328125 5.515625 27.984375 
Q 5.515625 40.671875 11.671875 48.328125 
Q 17.828125 56 27.875 56 
Q 33.9375 56 38.28125 53.609375 
Q 42.625 51.21875 45.40625 46.390625 
L 45.40625 54.6875 
L 54.390625 54.6875 
z
" id="DejaVuSans-67"/>
     <path id="DejaVuSans-20"/>
     <path d="M 45.40625 46.390625 
L 45.40625 75.984375 
L 54.390625 75.984375 
L 54.390625 0 
L 45.40625 0 
L 45.40625 8.203125 
Q 42.578125 3.328125 38.25 0.953125 
Q 33.9375 -1.421875 27.875 -1.421875 
Q 17.96875 -1.421875 11.734375 6.484375 
Q 5.515625 14.40625 5.515625 27.296875 
Q 5.515625 40.1875 11.734375 48.09375 
Q 17.96875 56 27.875 56 
Q 33.9375 56 38.25 53.625 
Q 42.578125 51.265625 45.40625 46.390625 
z
M 14.796875 27.296875 
Q 14.796875 17.390625 18.875 11.75 
Q 22.953125 6.109375 30.078125 6.109375 
Q 37.203125 6.109375 41.296875 11.75 
Q 45.40625 17.390625 45.40625 27.296875 
Q 45.40625 37.203125 41.296875 42.84375 
Q 37.203125 48.484375 30.078125 48.484375 
Q 22.953125 48.484375 18.875 42.84375 
Q 14.796875 37.203125 14.796875 27.296875 
z
" id="DejaVuSans-64"/>
     <path d="M 44.28125 53.078125 
L 44.28125 44.578125 
Q 40.484375 46.53125 36.375 47.5 
Q 32.28125 48.484375 27.875 48.484375 
Q 21.1875 48.484375 17.84375 46.4375 
Q 14.5 44.390625 14.5 40.28125 
Q 14.5 37.15625 16.890625 35.375 
Q 19.28125 33.59375 26.515625 31.984375 
L 29.59375 31.296875 
Q 39.15625 29.25 43.1875 25.515625 
Q 47.21875 21.78125 47.21875 15.09375 
Q 47.21875 7.46875 41.1875 3.015625 
Q 35.15625 -1.421875 24.609375 -1.421875 
Q 20.21875 -1.421875 15.453125 -0.5625 
Q 10.6875 0.296875 5.421875 2 
L 5.421875 11.28125 
Q 10.40625 8.6875 15.234375 7.390625 
Q 20.0625 6.109375 24.8125 6.109375 
Q 31.15625 6.109375 34.5625 8.28125 
Q 37.984375 10.453125 37.984375 14.40625 
Q 37.984375 18.0625 35.515625 20.015625 
Q 33.0625 21.96875 24.703125 23.78125 
L 21.578125 24.515625 
Q 13.234375 26.265625 9.515625 29.90625 
Q 5.8125 33.546875 5.8125 39.890625 
Q 5.8125 47.609375 11.28125 51.796875 
Q 16.75 56 26.8125 56 
Q 31.78125 56 36.171875 55.265625 
Q 40.578125 54.546875 44.28125 53.078125 
z
" id="DejaVuSans-73"/>
     <path d="M 41.109375 46.296875 
Q 39.59375 47.171875 37.8125 47.578125 
Q 36.03125 48 33.890625 48 
Q 26.265625 48 22.1875 43.046875 
Q 18.109375 38.09375 18.109375 28.8125 
L 18.109375 0 
L 9.078125 0 
L 9.078125 54.6875 
L 18.109375 54.6875 
L 18.109375 46.1875 
Q 20.953125 51.171875 25.484375 53.578125 
Q 30.03125 56 36.53125 56 
Q 37.453125 56 38.578125 55.875 
Q 39.703125 55.765625 41.0625 55.515625 
z
" id="DejaVuSans-72"/>
     <path d="M 48.6875 27.296875 
Q 48.6875 37.203125 44.609375 42.84375 
Q 40.53125 48.484375 33.40625 48.484375 
Q 26.265625 48.484375 22.1875 42.84375 
Q 18.109375 37.203125 18.109375 27.296875 
Q 18.109375 17.390625 22.1875 11.75 
Q 26.265625 6.109375 33.40625 6.109375 
Q 40.53125 6.109375 44.609375 11.75 
Q 48.6875 17.390625 48.6875 27.296875 
z
M 18.109375 46.390625 
Q 20.953125 51.265625 25.265625 53.625 
Q 29.59375 56 35.59375 56 
Q 45.5625 56 51.78125 48.09375 
Q 58.015625 40.1875 58.015625 27.296875 
Q 58.015625 14.40625 51.78125 6.484375 
Q 45.5625 -1.421875 35.59375 -1.421875 
Q 29.59375 -1.421875 25.265625 0.953125 
Q 20.953125 3.328125 18.109375 8.203125 
L 18.109375 0 
L 9.078125 0 
L 9.078125 75.984375 
L 18.109375 75.984375 
z
" id="DejaVuSans-62"/>
    </defs>
    <g style="fill:#9fc857;" transform="translate(122.605312 59.04)scale(0.18 -0.18)">
     <use xlink:href="#DejaVuSans-53"/>
     <use x="63.476562" xlink:href="#DejaVuSans-61"/>
     <use x="124.755859" xlink:href="#DejaVuSans-6d"/>
     <use x="222.167969" xlink:href="#DejaVuSans-70"/>
     <use x="285.644531" xlink:href="#DejaVuSans-6c"/>
     <use x="313.427734" xlink:href="#DejaVuSans-69"/>
     <use x="341.210938" xlink:href="#DejaVuSans-6e"/>
     <use x="404.589844" xlink:href="#DejaVuSans-67"/>
     <use x="468.066406" xlink:href="#DejaVuSans-20"/>
     <use x="499.853516" xlink:href="#DejaVuSans-64"/>
     <use x="563.330078" xlink:href="#DejaVuSans-69"/>
     <use x="591.113281" xlink:href="#DejaVuSans-73"/>
     <use x="643.212891" xlink:href="#DejaVuSans-74"/>
     <use x="682.421875" xlink:href="#DejaVuSans-72"/>
     <use x="723.535156" xlink:href="#DejaVuSans-69"/>
     <use x="751.318359" xlink:href="#DejaVuSans-62"/>
     <use x="814.794922" xlink:href="#DejaVuSans-75"/>
     <use x="878.173828" xlink:href="#DejaVuSans-74"/>
     <use x="917.382812" xlink:href="#DejaVuSans-69"/>
     <use x="945.166016" xlink:href="#DejaVuSans-6f"/>
     <use x="1006.347656" xlink:href="#DejaVuSans-6e"/>
    </g>
   </g>
  </g>
  <g id="axes_2">
   <g id="patch_4">
    <path d="M 18 535.68 
L 342 535.68 
L 342 132.48 
L 18 132.48 
z
" style="fill:none;"/>
   </g>
   <g id="matplotlib.axis_3">
    <g id="xtick_6">
     <g id="line2d_9">
      <g>
       <use style="fill:#222222;stroke:#222222;" x="50.4" xlink:href="#m540c8b5480" y="535.68"/>
      </g>
     </g>
     <g id="text_9">
      <!-- 30 -->
      <g style="fill:#222222;" transform="translate(42.765 548.798125)scale(0.12 -0.12)">
       <use xlink:href="#DejaVuSans-33"/>
       <use x="63.623047" xlink:href="#DejaVuSans-30"/>
      </g>
     </g>
    </g>
    <g id="xtick_7">
     <g id="line2d_10">
      <g>
       <use style="fill:#222222;stroke:#222222;" x="115.2" xlink:href="#m540c8b5480" y="535.68"/>
      </g>
     </g>
     <g id="text_10">
      <!-- 40 -->
      <g style="fill:#222222;" transform="translate(107.565 548.798125)scale(0.12 -0.12)">
       <use xlink:href="#DejaVuSans-34"/>
       <use x="63.623047" xlink:href="#DejaVuSans-30"/>
      </g>
     </g>
    </g>
    <g id="xtick_8">
     <g id="line2d_11">
      <g>
       <use style="fill:#222222;stroke:#222222;" x="180" xlink:href="#m540c8b5480" y="535.68"/>
      </g>
     </g>
     <g id="text_11">
      <!-- 50 -->
      <g style="fill:#222222;" transform="translate(172.365 548.798125)scale(0.12 -0.12)">
       <use xlink:href="#DejaVuSans-35"/>
       <use x="63.623047" xlink:href="#DejaVuSans-30"/>
      </g>
     </g>
    </g>
    <g id="xtick_9">
     <g id="line2d_12">
      <g>
       <use style="fill:#222222;stroke:#222222;" x="244.8" xlink:href="#m540c8b5480" y="535.68"/>
      </g>
     </g>
     <g id="text_12">
      <!-- 60 -->
      <g style="fill:#222222;" transform="translate(237.165 548.798125)scale(0.12 -0.12)">
       <use xlink:href="#DejaVuSans-36"/>
       <use x="63.623047" xlink:href="#DejaVuSans-30"/>
      </g>
     </g>
    </g>
    <g id="xtick_10">
     <g id="line2d_13">
      <g>
       <use style="fill:#222222;stroke:#222222;" x="309.6" xlink:href="#m540c8b5480" y="535.68"/>
      </g>
     </g>
     <g id="text_13">
      <!-- 70 -->
      <g style="fill:#222222;" transform="translate(301.965 548.798125)scale(0.12 -0.12)">
       <use xlink:href="#DejaVuSans-37"/>
       <use x="63.623047" xlink:href="#DejaVuSans-30"/>
      </g>
     </g>
    </g>
    <g id="text_14">
     <!-- $\bar{x}$ -->
     <defs>
      <path d="M -39.34375 74.515625 
L -10.15625 74.515625 
L -10.15625 67.28125 
L -39.34375 67.28125 
z
" id="DejaVuSans-304"/>
      <path d="M 60.015625 54.6875 
L 34.90625 27.875 
L 50.296875 0 
L 39.984375 0 
L 28.421875 21.6875 
L 8.296875 0 
L -2.59375 0 
L 24.3125 28.8125 
L 10.015625 54.6875 
L 20.3125 54.6875 
L 30.8125 34.90625 
L 49.125 54.6875 
z
" id="DejaVuSans-Oblique-78"/>
     </defs>
     <g style="fill:#222222;" transform="translate(174.6 568.970937)scale(0.18 -0.18)">
      <use transform="translate(62.138672 0.484375)" xlink:href="#DejaVuSans-304"/>
      <use transform="translate(0 0.578125)" xlink:href="#DejaVuSans-Oblique-78"/>
     </g>
    </g>
   </g>
   <g id="matplotlib.axis_4"/>
   <g id="line2d_14">
    <path clip-path="url(#p5ee229f304)" d="M 90.040737 150.807273 
L 132.36475 150.807273 
" style="fill:none;stroke:#000000;stroke-linecap:square;stroke-width:1.5;"/>
   </g>
   <g id="line2d_15">
    <defs>
     <path d="M 0 3 
C 0.795609 3 1.55874 2.683901 2.12132 2.12132 
C 2.683901 1.55874 3 0.795609 3 0 
C 3 -0.795609 2.683901 -1.55874 2.12132 -2.12132 
C 1.55874 -2.683901 0.795609 -3 0 -3 
C -0.795609 -3 -1.55874 -2.683901 -2.12132 -2.12132 
C -2.683901 -1.55874 -3 -0.795609 -3 0 
C -3 0.795609 -2.683901 1.55874 -2.12132 2.12132 
C -1.55874 2.683901 -0.795609 3 0 3 
z
" id="m69c9bc9545" style="stroke:#00bfff;"/>
    </defs>
    <g clip-path="url(#p5ee229f304)">
     <use style="fill:#00bfff;stroke:#00bfff;" x="110.740014" xlink:href="#m69c9bc9545" y="150.807273"/>
    </g>
   </g>
   <g id="line2d_16">
    <path clip-path="url(#p5ee229f304)" d="M 88.455072 158.287792 
L 119.002843 158.287792 
" style="fill:none;stroke:#000000;stroke-linecap:square;stroke-width:1.5;"/>
   </g>
   <g id="line2d_17">
    <g clip-path="url(#p5ee229f304)">
     <use style="fill:#00bfff;stroke:#00bfff;" x="103.754719" xlink:href="#m69c9bc9545" y="158.287792"/>
    </g>
   </g>
   <g id="line2d_18">
    <path clip-path="url(#p5ee229f304)" d="M 88.636964 165.768312 
L 120.619613 165.768312 
" style="fill:none;stroke:#000000;stroke-linecap:square;stroke-width:1.5;"/>
   </g>
   <g id="line2d_19">
    <g clip-path="url(#p5ee229f304)">
     <use style="fill:#00bfff;stroke:#00bfff;" x="104.229453" xlink:href="#m69c9bc9545" y="165.768312"/>
    </g>
   </g>
   <g id="line2d_20">
    <path clip-path="url(#p5ee229f304)" d="M 78.762398 173.248831 
L 104.824928 173.248831 
" style="fill:none;stroke:#000000;stroke-linecap:square;stroke-width:1.5;"/>
   </g>
   <g id="line2d_21">
    <g clip-path="url(#p5ee229f304)">
     <use style="fill:#00bfff;stroke:#00bfff;" x="91.733076" xlink:href="#m69c9bc9545" y="173.248831"/>
    </g>
   </g>
   <g id="line2d_22">
    <path clip-path="url(#p5ee229f304)" d="M 89.48588 180.729351 
L 123.378207 180.729351 
" style="fill:none;stroke:#000000;stroke-linecap:square;stroke-width:1.5;"/>
   </g>
   <g id="line2d_23">
    <g clip-path="url(#p5ee229f304)">
     <use style="fill:#00bfff;stroke:#00bfff;" x="105.949036" xlink:href="#m69c9bc9545" y="180.729351"/>
    </g>
   </g>
   <g id="line2d_24">
    <path clip-path="url(#p5ee229f304)" d="M 95.525515 188.20987 
L 135.945609 188.20987 
" style="fill:none;stroke:#000000;stroke-linecap:square;stroke-width:1.5;"/>
   </g>
   <g id="line2d_25">
    <g clip-path="url(#p5ee229f304)">
     <use style="fill:#00bfff;stroke:#00bfff;" x="115.163482" xlink:href="#m69c9bc9545" y="188.20987"/>
    </g>
   </g>
   <g id="line2d_26">
    <path clip-path="url(#p5ee229f304)" d="M 93.802531 195.69039 
L 122.146392 195.69039 
" style="fill:none;stroke:#000000;stroke-linecap:square;stroke-width:1.5;"/>
   </g>
   <g id="line2d_27">
    <g clip-path="url(#p5ee229f304)">
     <use style="fill:#00bfff;stroke:#00bfff;" x="108.00106" xlink:href="#m69c9bc9545" y="195.69039"/>
    </g>
   </g>
   <g id="line2d_28">
    <path clip-path="url(#p5ee229f304)" d="M 87.297144 203.170909 
L 114.798629 203.170909 
" style="fill:none;stroke:#000000;stroke-linecap:square;stroke-width:1.5;"/>
   </g>
   <g id="line2d_29">
    <g clip-path="url(#p5ee229f304)">
     <use style="fill:#00bfff;stroke:#00bfff;" x="100.965797" xlink:href="#m69c9bc9545" y="203.170909"/>
    </g>
   </g>
   <g id="line2d_30">
    <path clip-path="url(#p5ee229f304)" d="M 83.700532 210.651429 
L 120.724498 210.651429 
" style="fill:none;stroke:#000000;stroke-linecap:square;stroke-width:1.5;"/>
   </g>
   <g id="line2d_31">
    <g clip-path="url(#p5ee229f304)">
     <use style="fill:#00bfff;stroke:#00bfff;" x="101.765513" xlink:href="#m69c9bc9545" y="210.651429"/>
    </g>
   </g>
   <g id="line2d_32">
    <path clip-path="url(#p5ee229f304)" d="M 96.468346 218.131948 
L 130.24007 218.131948 
" style="fill:none;stroke:#000000;stroke-linecap:square;stroke-width:1.5;"/>
   </g>
   <g id="line2d_33">
    <g clip-path="url(#p5ee229f304)">
     <use style="fill:#00bfff;stroke:#00bfff;" x="113.080988" xlink:href="#m69c9bc9545" y="218.131948"/>
    </g>
   </g>
   <g id="line2d_34">
    <path clip-path="url(#p5ee229f304)" d="M 81.467674 225.612468 
L 117.900342 225.612468 
" style="fill:none;stroke:#000000;stroke-linecap:square;stroke-width:1.5;"/>
   </g>
   <g id="line2d_35">
    <g clip-path="url(#p5ee229f304)">
     <use style="fill:#00bfff;stroke:#00bfff;" x="99.030842" xlink:href="#m69c9bc9545" y="225.612468"/>
    </g>
   </g>
   <g id="line2d_36">
    <path clip-path="url(#p5ee229f304)" d="M 85.137238 233.092987 
L 117.525357 233.092987 
" style="fill:none;stroke:#000000;stroke-linecap:square;stroke-width:1.5;"/>
   </g>
   <g id="line2d_37">
    <g clip-path="url(#p5ee229f304)">
     <use style="fill:#00bfff;stroke:#00bfff;" x="101.167753" xlink:href="#m69c9bc9545" y="233.092987"/>
    </g>
   </g>
   <g id="line2d_38">
    <path clip-path="url(#p5ee229f304)" d="M 96.071494 240.573506 
L 128.37144 240.573506 
" style="fill:none;stroke:#000000;stroke-linecap:square;stroke-width:1.5;"/>
   </g>
   <g id="line2d_39">
    <g clip-path="url(#p5ee229f304)">
     <use style="fill:#00bfff;stroke:#00bfff;" x="112.201719" xlink:href="#m69c9bc9545" y="240.573506"/>
    </g>
   </g>
   <g id="line2d_40">
    <path clip-path="url(#p5ee229f304)" d="M 89.730528 248.054026 
L 125.671274 248.054026 
" style="fill:none;stroke:#000000;stroke-linecap:square;stroke-width:1.5;"/>
   </g>
   <g id="line2d_41">
    <g clip-path="url(#p5ee229f304)">
     <use style="fill:#00bfff;stroke:#00bfff;" x="106.609551" xlink:href="#m69c9bc9545" y="248.054026"/>
    </g>
   </g>
   <g id="line2d_42">
    <path clip-path="url(#p5ee229f304)" d="M 83.313074 255.534545 
L 109.972838 255.534545 
" style="fill:none;stroke:#000000;stroke-linecap:square;stroke-width:1.5;"/>
   </g>
   <g id="line2d_43">
    <g clip-path="url(#p5ee229f304)">
     <use style="fill:#00bfff;stroke:#00bfff;" x="95.807865" xlink:href="#m69c9bc9545" y="255.534545"/>
    </g>
   </g>
   <g id="line2d_44">
    <path clip-path="url(#p5ee229f304)" d="M 87.171711 263.015065 
L 124.837961 263.015065 
" style="fill:none;stroke:#000000;stroke-linecap:square;stroke-width:1.5;"/>
   </g>
   <g id="line2d_45">
    <g clip-path="url(#p5ee229f304)">
     <use style="fill:#00bfff;stroke:#00bfff;" x="105.279414" xlink:href="#m69c9bc9545" y="263.015065"/>
    </g>
   </g>
   <g id="line2d_46">
    <path clip-path="url(#p5ee229f304)" d="M 81.464033 270.495584 
L 118.289668 270.495584 
" style="fill:none;stroke:#000000;stroke-linecap:square;stroke-width:1.5;"/>
   </g>
   <g id="line2d_47">
    <g clip-path="url(#p5ee229f304)">
     <use style="fill:#00bfff;stroke:#00bfff;" x="99.98295" xlink:href="#m69c9bc9545" y="270.495584"/>
    </g>
   </g>
   <g id="line2d_48">
    <path clip-path="url(#p5ee229f304)" d="M 92.953947 277.976104 
L 126.276645 277.976104 
" style="fill:none;stroke:#000000;stroke-linecap:square;stroke-width:1.5;"/>
   </g>
   <g id="line2d_49">
    <g clip-path="url(#p5ee229f304)">
     <use style="fill:#00bfff;stroke:#00bfff;" x="109.189319" xlink:href="#m69c9bc9545" y="277.976104"/>
    </g>
   </g>
   <g id="line2d_50">
    <path clip-path="url(#p5ee229f304)" d="M 82.631653 285.456623 
L 112.574211 285.456623 
" style="fill:none;stroke:#000000;stroke-linecap:square;stroke-width:1.5;"/>
   </g>
   <g id="line2d_51">
    <g clip-path="url(#p5ee229f304)">
     <use style="fill:#00bfff;stroke:#00bfff;" x="96.523689" xlink:href="#m69c9bc9545" y="285.456623"/>
    </g>
   </g>
   <g id="line2d_52">
    <path clip-path="url(#p5ee229f304)" d="M 78.854629 292.937143 
L 115.920193 292.937143 
" style="fill:none;stroke:#000000;stroke-linecap:square;stroke-width:1.5;"/>
   </g>
   <g id="line2d_53">
    <g clip-path="url(#p5ee229f304)">
     <use style="fill:#00bfff;stroke:#00bfff;" x="96.716915" xlink:href="#m69c9bc9545" y="292.937143"/>
    </g>
   </g>
   <g id="line2d_54">
    <path clip-path="url(#p5ee229f304)" d="M 83.939401 300.417662 
L 116.423809 300.417662 
" style="fill:none;stroke:#000000;stroke-linecap:square;stroke-width:1.5;"/>
   </g>
   <g id="line2d_55">
    <g clip-path="url(#p5ee229f304)">
     <use style="fill:#00bfff;stroke:#00bfff;" x="99.307686" xlink:href="#m69c9bc9545" y="300.417662"/>
    </g>
   </g>
   <g id="line2d_56">
    <path clip-path="url(#p5ee229f304)" d="M 103.29285 307.898182 
L 135.618073 307.898182 
" style="fill:none;stroke:#fb4c52;stroke-linecap:square;stroke-width:1.5;"/>
   </g>
   <g id="line2d_57">
    <defs>
     <path d="M 0 3 
C 0.795609 3 1.55874 2.683901 2.12132 2.12132 
C 2.683901 1.55874 3 0.795609 3 0 
C 3 -0.795609 2.683901 -1.55874 2.12132 -2.12132 
C 1.55874 -2.683901 0.795609 -3 0 -3 
C -0.795609 -3 -1.55874 -2.683901 -2.12132 -2.12132 
C -2.683901 -1.55874 -3 -0.795609 -3 0 
C -3 0.795609 -2.683901 1.55874 -2.12132 2.12132 
C -1.55874 2.683901 -0.795609 3 0 3 
z
" id="ma68dd368c6" style="stroke:#fb4c52;"/>
    </defs>
    <g clip-path="url(#p5ee229f304)">
     <use style="fill:#fb4c52;stroke:#fb4c52;" x="118.544512" xlink:href="#ma68dd368c6" y="307.898182"/>
    </g>
   </g>
   <g id="line2d_58">
    <path clip-path="url(#p5ee229f304)" d="M 93.75791 315.378701 
L 120.632277 315.378701 
" style="fill:none;stroke:#000000;stroke-linecap:square;stroke-width:1.5;"/>
   </g>
   <g id="line2d_59">
    <g clip-path="url(#p5ee229f304)">
     <use style="fill:#00bfff;stroke:#00bfff;" x="106.816844" xlink:href="#m69c9bc9545" y="315.378701"/>
    </g>
   </g>
   <g id="line2d_60">
    <path clip-path="url(#p5ee229f304)" d="M 101.146065 322.859221 
L 131.798541 322.859221 
" style="fill:none;stroke:#000000;stroke-linecap:square;stroke-width:1.5;"/>
   </g>
   <g id="line2d_61">
    <g clip-path="url(#p5ee229f304)">
     <use style="fill:#00bfff;stroke:#00bfff;" x="116.07157" xlink:href="#m69c9bc9545" y="322.859221"/>
    </g>
   </g>
   <g id="line2d_62">
    <path clip-path="url(#p5ee229f304)" d="M 79.306856 330.33974 
L 106.026098 330.33974 
" style="fill:none;stroke:#000000;stroke-linecap:square;stroke-width:1.5;"/>
   </g>
   <g id="line2d_63">
    <g clip-path="url(#p5ee229f304)">
     <use style="fill:#00bfff;stroke:#00bfff;" x="92.63534" xlink:href="#m69c9bc9545" y="330.33974"/>
    </g>
   </g>
   <g id="line2d_64">
    <path clip-path="url(#p5ee229f304)" d="M 90.432843 337.82026 
L 123.803542 337.82026 
" style="fill:none;stroke:#000000;stroke-linecap:square;stroke-width:1.5;"/>
   </g>
   <g id="line2d_65">
    <g clip-path="url(#p5ee229f304)">
     <use style="fill:#00bfff;stroke:#00bfff;" x="107.075792" xlink:href="#m69c9bc9545" y="337.82026"/>
    </g>
   </g>
   <g id="line2d_66">
    <path clip-path="url(#p5ee229f304)" d="M 86.372082 345.300779 
L 117.918545 345.300779 
" style="fill:none;stroke:#000000;stroke-linecap:square;stroke-width:1.5;"/>
   </g>
   <g id="line2d_67">
    <g clip-path="url(#p5ee229f304)">
     <use style="fill:#00bfff;stroke:#00bfff;" x="101.735495" xlink:href="#m69c9bc9545" y="345.300779"/>
    </g>
   </g>
   <g id="line2d_68">
    <path clip-path="url(#p5ee229f304)" d="M 81.518879 352.781299 
L 116.760604 352.781299 
" style="fill:none;stroke:#000000;stroke-linecap:square;stroke-width:1.5;"/>
   </g>
   <g id="line2d_69">
    <g clip-path="url(#p5ee229f304)">
     <use style="fill:#00bfff;stroke:#00bfff;" x="98.993249" xlink:href="#m69c9bc9545" y="352.781299"/>
    </g>
   </g>
   <g id="line2d_70">
    <path clip-path="url(#p5ee229f304)" d="M 87.176017 360.261818 
L 126.831427 360.261818 
" style="fill:none;stroke:#000000;stroke-linecap:square;stroke-width:1.5;"/>
   </g>
   <g id="line2d_71">
    <g clip-path="url(#p5ee229f304)">
     <use style="fill:#00bfff;stroke:#00bfff;" x="106.477913" xlink:href="#m69c9bc9545" y="360.261818"/>
    </g>
   </g>
   <g id="line2d_72">
    <path clip-path="url(#p5ee229f304)" d="M 82.299126 367.742338 
L 132.632686 367.742338 
" style="fill:none;stroke:#000000;stroke-linecap:square;stroke-width:1.5;"/>
   </g>
   <g id="line2d_73">
    <g clip-path="url(#p5ee229f304)">
     <use style="fill:#00bfff;stroke:#00bfff;" x="105.33852" xlink:href="#m69c9bc9545" y="367.742338"/>
    </g>
   </g>
   <g id="line2d_74">
    <path clip-path="url(#p5ee229f304)" d="M 99.972944 375.222857 
L 144.83999 375.222857 
" style="fill:none;stroke:#000000;stroke-linecap:square;stroke-width:1.5;"/>
   </g>
   <g id="line2d_75">
    <g clip-path="url(#p5ee229f304)">
     <use style="fill:#00bfff;stroke:#00bfff;" x="121.466965" xlink:href="#m69c9bc9545" y="375.222857"/>
    </g>
   </g>
   <g id="line2d_76">
    <path clip-path="url(#p5ee229f304)" d="M 93.397795 382.703377 
L 118.718488 382.703377 
" style="fill:none;stroke:#000000;stroke-linecap:square;stroke-width:1.5;"/>
   </g>
   <g id="line2d_77">
    <g clip-path="url(#p5ee229f304)">
     <use style="fill:#00bfff;stroke:#00bfff;" x="106.139788" xlink:href="#m69c9bc9545" y="382.703377"/>
    </g>
   </g>
   <g id="line2d_78">
    <path clip-path="url(#p5ee229f304)" d="M 66.552433 390.183896 
L 83.598874 390.183896 
" style="fill:none;stroke:#fb4c52;stroke-linecap:square;stroke-width:1.5;"/>
   </g>
   <g id="line2d_79">
    <g clip-path="url(#p5ee229f304)">
     <use style="fill:#fb4c52;stroke:#fb4c52;" x="74.941469" xlink:href="#ma68dd368c6" y="390.183896"/>
    </g>
   </g>
   <g id="line2d_80">
    <path clip-path="url(#p5ee229f304)" d="M 93.590137 397.664416 
L 141.176081 397.664416 
" style="fill:none;stroke:#000000;stroke-linecap:square;stroke-width:1.5;"/>
   </g>
   <g id="line2d_81">
    <g clip-path="url(#p5ee229f304)">
     <use style="fill:#00bfff;stroke:#00bfff;" x="116.1761" xlink:href="#m69c9bc9545" y="397.664416"/>
    </g>
   </g>
   <g id="line2d_82">
    <path clip-path="url(#p5ee229f304)" d="M 87.01021 405.144935 
L 123.820104 405.144935 
" style="fill:none;stroke:#000000;stroke-linecap:square;stroke-width:1.5;"/>
   </g>
   <g id="line2d_83">
    <g clip-path="url(#p5ee229f304)">
     <use style="fill:#00bfff;stroke:#00bfff;" x="104.869272" xlink:href="#m69c9bc9545" y="405.144935"/>
    </g>
   </g>
   <g id="line2d_84">
    <path clip-path="url(#p5ee229f304)" d="M 87.156412 412.625455 
L 115.075046 412.625455 
" style="fill:none;stroke:#000000;stroke-linecap:square;stroke-width:1.5;"/>
   </g>
   <g id="line2d_85">
    <g clip-path="url(#p5ee229f304)">
     <use style="fill:#00bfff;stroke:#00bfff;" x="100.804683" xlink:href="#m69c9bc9545" y="412.625455"/>
    </g>
   </g>
   <g id="line2d_86">
    <path clip-path="url(#p5ee229f304)" d="M 89.175312 420.105974 
L 132.460987 420.105974 
" style="fill:none;stroke:#000000;stroke-linecap:square;stroke-width:1.5;"/>
   </g>
   <g id="line2d_87">
    <g clip-path="url(#p5ee229f304)">
     <use style="fill:#00bfff;stroke:#00bfff;" x="110.308689" xlink:href="#m69c9bc9545" y="420.105974"/>
    </g>
   </g>
   <g id="line2d_88">
    <path clip-path="url(#p5ee229f304)" d="M 88.112998 427.586494 
L 122.817242 427.586494 
" style="fill:none;stroke:#000000;stroke-linecap:square;stroke-width:1.5;"/>
   </g>
   <g id="line2d_89">
    <g clip-path="url(#p5ee229f304)">
     <use style="fill:#00bfff;stroke:#00bfff;" x="104.959578" xlink:href="#m69c9bc9545" y="427.586494"/>
    </g>
   </g>
   <g id="line2d_90">
    <path clip-path="url(#p5ee229f304)" d="M 81.630647 435.067013 
L 103.003748 435.067013 
" style="fill:none;stroke:#fb4c52;stroke-linecap:square;stroke-width:1.5;"/>
   </g>
   <g id="line2d_91">
    <g clip-path="url(#p5ee229f304)">
     <use style="fill:#fb4c52;stroke:#fb4c52;" x="92.142259" xlink:href="#ma68dd368c6" y="435.067013"/>
    </g>
   </g>
   <g id="line2d_92">
    <path clip-path="url(#p5ee229f304)" d="M 90.684876 442.547532 
L 115.511008 442.547532 
" style="fill:none;stroke:#000000;stroke-linecap:square;stroke-width:1.5;"/>
   </g>
   <g id="line2d_93">
    <g clip-path="url(#p5ee229f304)">
     <use style="fill:#00bfff;stroke:#00bfff;" x="103.463046" xlink:href="#m69c9bc9545" y="442.547532"/>
    </g>
   </g>
   <g id="line2d_94">
    <path clip-path="url(#p5ee229f304)" d="M 84.693468 450.028052 
L 114.783502 450.028052 
" style="fill:none;stroke:#000000;stroke-linecap:square;stroke-width:1.5;"/>
   </g>
   <g id="line2d_95">
    <g clip-path="url(#p5ee229f304)">
     <use style="fill:#00bfff;stroke:#00bfff;" x="100.105062" xlink:href="#m69c9bc9545" y="450.028052"/>
    </g>
   </g>
   <g id="line2d_96">
    <path clip-path="url(#p5ee229f304)" d="M 73.061496 457.508571 
L 102.31373 457.508571 
" style="fill:none;stroke:#fb4c52;stroke-linecap:square;stroke-width:1.5;"/>
   </g>
   <g id="line2d_97">
    <g clip-path="url(#p5ee229f304)">
     <use style="fill:#fb4c52;stroke:#fb4c52;" x="87.611253" xlink:href="#ma68dd368c6" y="457.508571"/>
    </g>
   </g>
   <g id="line2d_98">
    <path clip-path="url(#p5ee229f304)" d="M 83.282899 464.989091 
L 110.643069 464.989091 
" style="fill:none;stroke:#000000;stroke-linecap:square;stroke-width:1.5;"/>
   </g>
   <g id="line2d_99">
    <g clip-path="url(#p5ee229f304)">
     <use style="fill:#00bfff;stroke:#00bfff;" x="96.45775" xlink:href="#m69c9bc9545" y="464.989091"/>
    </g>
   </g>
   <g id="line2d_100">
    <path clip-path="url(#p5ee229f304)" d="M 78.879732 472.46961 
L 128.856391 472.46961 
" style="fill:none;stroke:#000000;stroke-linecap:square;stroke-width:1.5;"/>
   </g>
   <g id="line2d_101">
    <g clip-path="url(#p5ee229f304)">
     <use style="fill:#00bfff;stroke:#00bfff;" x="103.282335" xlink:href="#m69c9bc9545" y="472.46961"/>
    </g>
   </g>
   <g id="line2d_102">
    <path clip-path="url(#p5ee229f304)" d="M 70.971019 479.95013 
L 108.642919 479.95013 
" style="fill:none;stroke:#000000;stroke-linecap:square;stroke-width:1.5;"/>
   </g>
   <g id="line2d_103">
    <g clip-path="url(#p5ee229f304)">
     <use style="fill:#00bfff;stroke:#00bfff;" x="88.785061" xlink:href="#m69c9bc9545" y="479.95013"/>
    </g>
   </g>
   <g id="line2d_104">
    <path clip-path="url(#p5ee229f304)" d="M 89.334839 487.430649 
L 125.231982 487.430649 
" style="fill:none;stroke:#000000;stroke-linecap:square;stroke-width:1.5;"/>
   </g>
   <g id="line2d_105">
    <g clip-path="url(#p5ee229f304)">
     <use style="fill:#00bfff;stroke:#00bfff;" x="106.809471" xlink:href="#m69c9bc9545" y="487.430649"/>
    </g>
   </g>
   <g id="line2d_106">
    <path clip-path="url(#p5ee229f304)" d="M 83.798693 494.911169 
L 105.803492 494.911169 
" style="fill:none;stroke:#000000;stroke-linecap:square;stroke-width:1.5;"/>
   </g>
   <g id="line2d_107">
    <g clip-path="url(#p5ee229f304)">
     <use style="fill:#00bfff;stroke:#00bfff;" x="94.612809" xlink:href="#m69c9bc9545" y="494.911169"/>
    </g>
   </g>
   <g id="line2d_108">
    <path clip-path="url(#p5ee229f304)" d="M 96.041373 502.391688 
L 134.705812 502.391688 
" style="fill:none;stroke:#000000;stroke-linecap:square;stroke-width:1.5;"/>
   </g>
   <g id="line2d_109">
    <g clip-path="url(#p5ee229f304)">
     <use style="fill:#00bfff;stroke:#00bfff;" x="114.094287" xlink:href="#m69c9bc9545" y="502.391688"/>
    </g>
   </g>
   <g id="line2d_110">
    <path clip-path="url(#p5ee229f304)" d="M 81.005273 509.872208 
L 109.615275 509.872208 
" style="fill:none;stroke:#000000;stroke-linecap:square;stroke-width:1.5;"/>
   </g>
   <g id="line2d_111">
    <g clip-path="url(#p5ee229f304)">
     <use style="fill:#00bfff;stroke:#00bfff;" x="95.099939" xlink:href="#m69c9bc9545" y="509.872208"/>
    </g>
   </g>
   <g id="line2d_112">
    <path clip-path="url(#p5ee229f304)" d="M 82.981139 517.352727 
L 112.642735 517.352727 
" style="fill:none;stroke:#000000;stroke-linecap:square;stroke-width:1.5;"/>
   </g>
   <g id="line2d_113">
    <g clip-path="url(#p5ee229f304)">
     <use style="fill:#00bfff;stroke:#00bfff;" x="97.905536" xlink:href="#m69c9bc9545" y="517.352727"/>
    </g>
   </g>
   <g id="line2d_114">
    <path clip-path="url(#p5ee229f304)" d="M 103.009652 535.68 
L 103.009652 132.48 
" style="fill:none;stroke:#fbc15e;stroke-dasharray:5.55,2.4;stroke-dashoffset:0;stroke-width:1.5;"/>
   </g>
   <g id="patch_5">
    <path d="M 18 535.68 
L 342 535.68 
" style="fill:none;stroke:#222222;stroke-linecap:square;stroke-linejoin:miter;"/>
   </g>
  </g>
 </g>
 <defs>
  <clipPath id="p8d9b5a8b70">
   <rect height="86.4" width="324" x="18" y="28.8"/>
  </clipPath>
  <clipPath id="p5ee229f304">
   <rect height="403.2" width="324" x="18" y="132.48"/>
  </clipPath>
 </defs>
</svg>
