<?xml version="1.0" encoding="utf-8"?>
<!-- Generator: Adobe Illustrator 16.0.4, SVG Export Plug-In . SVG Version: 6.00 Build 0)  -->
<!DOCTYPE svg PUBLIC "-//W3C//DTD SVG 1.1//EN" "http://www.w3.org/Graphics/SVG/1.1/DTD/svg11.dtd">
<svg version="1.1" id="Layer_1" xmlns="http://www.w3.org/2000/svg" xmlns:xlink="http://www.w3.org/1999/xlink" x="0px" y="0px"
	 width="960px" height="556px" viewBox="0 27.5 960 556" enable-background="new 0 27.5 960 556" xml:space="preserve">
<g transform="translate(480,300)scale(1.0101009607315063,1.0101009607315063)">
	<text transform="matrix(0.9684 0.2058 -0.2058 0.9684 -378.5029 47.1449)" fill="#6B6ECF" font-family="'Impact'" font-size="100">statistics</text>
	
		<text transform="matrix(0.9684 0.2058 -0.2058 0.9684 95.8676 -111.1546)" fill="#9C9EDE" font-family="'Impact'" font-size="10.101">tools</text>
	
		<text transform="matrix(6.062002e-17 0.99 -0.99 6.062002e-17 210.9986 -67.1682)" fill="#637939" font-family="'Impact'" font-size="10.101">mathematics</text>
	
		<text transform="matrix(0.9684 0.2058 -0.2058 0.9684 26.8528 81.4517)" fill="#8CA252" font-family="'Impact'" font-size="32.3232">descriptive</text>
	
		<text transform="matrix(0.9684 0.2058 -0.2058 0.9684 3.7173 110.7997)" fill="#B5CF6B" font-family="'Impact'" font-size="32.3232">survey</text>
	
		<text transform="matrix(0.9684 0.2058 -0.2058 0.9684 42.7189 147.4617)" fill="#CEDB9C" font-family="'Impact'" font-size="32.3232">analysis</text>
	
		<text transform="matrix(0.9606 -0.2395 0.2395 0.9606 201.9842 53.2376)" fill="#8C6D31" font-family="'Impact'" font-size="10.101">organization</text>
	
		<text transform="matrix(0.9606 -0.2395 0.2395 0.9606 -240.0412 199.9404)" fill="#BD9E39" font-family="'Impact'" font-size="50.505">prediction</text>
	
		<text transform="matrix(0.9606 -0.2395 0.2395 0.9606 114.2706 204.1314)" fill="#E7BA52" font-family="'Impact'" font-size="32.3232">observation</text>
	
		<text transform="matrix(0.434 0.8898 -0.8898 0.434 -129.3371 -72.9477)" fill="#E7CB94" font-family="'Impact'" font-size="32.3232">methods</text>
	
		<text transform="matrix(0.7584 -0.6364 0.6364 0.7584 -5.1496 -102.7923)" fill="#843C39" font-family="'Impact'" font-size="32.3232">samples</text>
	
		<text transform="matrix(0.434 0.8898 -0.8898 0.434 167.5314 -62.4623)" fill="#AD494A" font-family="'Impact'" font-size="10.101">procedures</text>
	
		<text transform="matrix(0.7801 0.6095 -0.6095 0.7801 -240.4052 -77.0996)" fill="#D6616B" font-family="'Impact'" font-size="32.3232">experiments</text>
	<text transform="matrix(0.9684 0.2058 -0.2058 0.9684 139.3 -0.627)" fill="#E7969C" font-family="'Impact'" font-size="32.3232">patterns</text>
	
		<text transform="matrix(6.062002e-17 0.99 -0.99 6.062002e-17 235.0003 -177.0312)" fill="#7B4173" font-family="'Impact'" font-size="32.3232">presentation</text>
	
		<text transform="matrix(0.7801 0.6095 -0.6095 0.7801 -228.0466 -103.7567)" fill="#A55194" font-family="'Impact'" font-size="32.3232">research</text>
	
		<text transform="matrix(0.434 0.8898 -0.8898 0.434 13.3292 -110.9767)" fill="#CE6DBD" font-family="'Impact'" font-size="10.101">interpretation</text>
	
		<text transform="matrix(0.434 0.8898 -0.8898 0.434 -148.2641 -206.0012)" fill="#DE9ED6" font-family="'Impact'" font-size="32.3232">collection</text>
	
		<text transform="matrix(0.7801 0.6095 -0.6095 0.7801 -17.091 -46.1974)" fill="#CEDB9C" font-family="'Impact'" font-size="50.5051">data</text>
	
		<text transform="matrix(0.7801 0.6095 -0.6095 0.7801 136.6558 -146.3034)" fill="#393B79" font-family="'Impact'" font-size="32.3232">science</text>
	<text transform="matrix(0.434 0.8898 -0.8898 0.434 -0.0184 -17.441)" fill="#5254A3" font-family="'Impact'" font-size="10.101">planning</text>
	<text transform="matrix(0.434 0.8898 -0.8898 0.434 -111.812 -93.118)" fill="#6B6ECF" font-family="'Impact'" font-size="10.101">coefficient</text>
	
		<text transform="matrix(0.7801 0.6095 -0.6095 0.7801 97.1844 -216.3904)" fill="#9C9EDE" font-family="'Impact'" font-size="32.3232">regression</text>
	
		<text transform="matrix(0.9606 -0.2395 0.2395 0.9606 -173.9094 21.2173)" fill="#637939" font-family="'Impact'" font-size="10.101">learning</text>
	
		<text transform="matrix(0.434 0.8898 -0.8898 0.434 -297.1315 -128.8286)" fill="#8CA252" font-family="'Impact'" font-size="32.3232">computing</text>
	
		<text transform="matrix(0.7584 -0.6364 0.6364 0.7584 127.4026 -12.3948)" fill="#B5CF6B" font-family="'Impact'" font-size="10.101">generalized</text>
	
		<text transform="matrix(0.7584 -0.6364 0.6364 0.7584 123.0462 -33.8654)" fill="#CEDB9C" font-family="'Impact'" font-size="32.3232">linear</text>
	
		<text transform="matrix(0.7801 0.6095 -0.6095 0.7801 77.4501 -154.119)" fill="#8C6D31" font-family="'Impact'" font-size="32.3232">models</text>
	
		<text transform="matrix(0.9684 0.2058 -0.2058 0.9684 166.6381 17.0968)" fill="#BD9E39" font-family="'Impact'" font-size="10.101">bayesian</text>
	
		<text transform="matrix(0.7584 -0.6364 0.6364 0.7584 175.0328 141.0885)" fill="#E7BA52" font-family="'Impact'" font-size="32.3232">inference</text>
	
		<text transform="matrix(0.434 0.8898 -0.8898 0.434 -349.1993 63.0313)" fill="#E7CB94" font-family="'Impact'" font-size="32.3232">estimation</text>
	
		<text transform="matrix(0.9606 -0.2395 0.2395 0.9606 -7.4695 51.335)" fill="#843C39" font-family="'Impact'" font-size="32.3232">random</text>
	
		<text transform="matrix(0.7584 -0.6364 0.6364 0.7584 -58.8296 215.1345)" fill="#AD494A" font-family="'Impact'" font-size="32.3232">modeling</text>
	
		<text transform="matrix(0.9606 -0.2395 0.2395 0.9606 -269.8267 145.6644)" fill="#D6616B" font-family="'Impact'" font-size="32.3232">maximum</text>
	
		<text transform="matrix(0.434 0.8898 -0.8898 0.434 19.7942 156.6714)" fill="#E7969C" font-family="'Impact'" font-size="32.3232">series</text>
	
		<text transform="matrix(0.7801 0.6095 -0.6095 0.7801 39.542 -219.5156)" fill="#7B4173" font-family="'Impact'" font-size="32.3232">variance</text>
	
		<text transform="matrix(0.9606 -0.2395 0.2395 0.9606 -129.8476 198.9388)" fill="#A55194" font-family="'Impact'" font-size="32.3232">mean</text>
	
		<text transform="matrix(0.434 0.8898 -0.8898 0.434 -217.0561 -215.8239)" fill="#CE6DBD" font-family="'Impact'" font-size="32.3232">distribution</text>
	
		<text transform="matrix(0.7584 -0.6364 0.6364 0.7584 -296.2053 -19.2407)" fill="#DE9ED6" font-family="'Impact'" font-size="10.101">graphical</text>
	
		<text transform="matrix(0.7801 0.6095 -0.6095 0.7801 -377.8595 160.5443)" fill="#393B79" font-family="'Impact'" font-size="32.3232">visualization</text>
	
		<text transform="matrix(0.434 0.8898 -0.8898 0.434 -143.7202 -134.9803)" fill="#6B6ECF" font-family="'Impact'" font-size="10.101">expectation</text>
	
		<text transform="matrix(0.434 0.8898 -0.8898 0.434 69.4547 170.1272)" fill="#9C9EDE" font-family="'Impact'" font-size="32.3232">trend</text>
	
		<text transform="matrix(0.7584 -0.6364 0.6364 0.7584 -89.1856 -165.6007)" fill="#637939" font-family="'Impact'" font-size="32.3232">function</text>
	
		<text transform="matrix(6.062002e-17 0.99 -0.99 6.062002e-17 -325.9991 -154.2495)" fill="#8CA252" font-family="'Impact'" font-size="32.3232">predictive</text>
	
		<text transform="matrix(6.062002e-17 0.99 -0.99 6.062002e-17 -1.0006 171.9458)" fill="#B5CF6B" font-family="'Impact'" font-size="32.3232">normal</text>
	
		<text transform="matrix(6.062002e-17 0.99 -0.99 6.062002e-17 -358.0001 -156.4529)" fill="#CEDB9C" font-family="'Impact'" font-size="32.3232">parameter</text>
	
		<text transform="matrix(0.434 0.8898 -0.8898 0.434 162.0091 -252.9866)" fill="#8C6D31" font-family="'Impact'" font-size="32.3232">spatial</text>
	
		<text transform="matrix(0.7801 0.6095 -0.6095 0.7801 240.0808 122.7184)" fill="#BD9E39" font-family="'Impact'" font-size="32.3232">causal</text>
	
		<text transform="matrix(0.7801 0.6095 -0.6095 0.7801 255.7468 0.8633)" fill="#E7BA52" font-family="'Impact'" font-size="32.3232">equation</text>
	
		<text transform="matrix(6.062002e-17 0.99 -0.99 6.062002e-17 329 86.3282)" fill="#E7CB94" font-family="'Impact'" font-size="32.3232">formula</text>
	
		<text transform="matrix(0.7801 0.6095 -0.6095 0.7801 263.1621 -104.6258)" fill="#843C39" font-family="'Impact'" font-size="32.3232">simulation</text>
	
		<text transform="matrix(0.434 0.8898 -0.8898 0.434 233.8865 -238.6925)" fill="#5254A3" font-family="'Impact'" font-size="32.3232">likelihood</text>
	
		<text transform="matrix(0.9684 0.2058 -0.2058 0.9684 -287.5563 -142.3212)" fill="#D6616B" font-family="'Impact'" font-size="32.3232">median</text>
	
		<text transform="matrix(0.9684 0.2058 -0.2058 0.9684 285.8664 -197.9942)" fill="#E7969C" font-family="'Impact'" font-size="32.3232">minimum</text>
	
		<text transform="matrix(0.9684 0.2058 -0.2058 0.9684 281.2692 -8.1458)" fill="#7B4173" font-family="'Impact'" font-size="32.3232">sample</text>
	
		<text transform="matrix(0.434 0.8898 -0.8898 0.434 165.8385 43.1162)" fill="#9C9EDE" font-family="'Impact'" font-size="32.3232">test</text>
	
		<text transform="matrix(0.434 0.8898 -0.8898 0.434 28.4006 -124.6955)" fill="#A55194" font-family="'Impact'" font-size="50.505">probability</text>
	
		<text transform="matrix(0.434 0.8898 -0.8898 0.434 303.5781 -177.2245)" fill="#CE6DBD" font-family="'Impact'" font-size="32.3232">scientific</text>
	
		<text transform="matrix(0.434 0.8898 -0.8898 0.434 -375.7572 82.491)" fill="#DE9ED6" font-family="'Impact'" font-size="32.3232">design</text>
	
		<text transform="matrix(6.062002e-17 0.99 -0.99 6.062002e-17 -52.0011 -191.1415)" fill="#393B79" font-family="'Impact'" font-size="50.505">uncertainty</text>
</g>
</svg>
