<?xml version="1.0" encoding="utf-8"?>
<!-- Generator: Adobe Illustrator 16.0.4, SVG Export Plug-In . SVG Version: 6.00 Build 0)  -->
<!DOCTYPE svg PUBLIC "-//W3C//DTD SVG 1.1//EN" "http://www.w3.org/Graphics/SVG/1.1/DTD/svg11.dtd">
<svg version="1.1" id="Layer_1" xmlns="http://www.w3.org/2000/svg" xmlns:xlink="http://www.w3.org/1999/xlink" x="0px" y="0px"
	 width="72px" height="144px" viewBox="0 0 72 144" enable-background="new 0 0 72 144" xml:space="preserve">
<g id="Layer_6">
	<path fill="#FBC15E" d="M64.725,130.309c0,4.933-2.806,8.931-8.52,8.931H17.589c-5.712,0-8.518-3.998-8.518-8.931v-0.891
		c0-4.932,2.806-8.93,8.518-8.93h38.616c5.714,0,8.52,3.998,8.52,8.93V130.309z"/>
	<g>
		<path d="M22.795,128.025v-4.26h0.672v3.664h2.286v0.596H22.795z"/>
		<path d="M27.499,128.085c-0.248,0-0.471-0.044-0.669-0.132c-0.198-0.088-0.367-0.206-0.507-0.354
			c-0.14-0.148-0.248-0.322-0.324-0.521s-0.114-0.405-0.114-0.621c0-0.217,0.038-0.423,0.114-0.621
			c0.076-0.196,0.185-0.371,0.327-0.521c0.142-0.146,0.312-0.266,0.51-0.354c0.198-0.088,0.419-0.132,0.663-0.132
			s0.465,0.044,0.663,0.132c0.198,0.088,0.368,0.206,0.51,0.354c0.142,0.148,0.251,0.322,0.327,0.521s0.114,0.404,0.114,0.621
			c0,0.216-0.038,0.423-0.114,0.621c-0.076,0.196-0.185,0.371-0.327,0.521c-0.142,0.146-0.312,0.266-0.51,0.354
			C27.964,128.041,27.743,128.085,27.499,128.085z M26.563,126.465c0,0.152,0.024,0.292,0.072,0.42
			c0.048,0.129,0.114,0.239,0.198,0.333c0.084,0.095,0.183,0.168,0.297,0.222c0.114,0.056,0.237,0.082,0.369,0.082
			s0.255-0.026,0.369-0.082c0.114-0.054,0.213-0.129,0.297-0.225s0.15-0.208,0.198-0.336c0.048-0.128,0.072-0.268,0.072-0.42
			c0-0.148-0.024-0.287-0.072-0.417c-0.048-0.13-0.114-0.243-0.198-0.339s-0.183-0.172-0.297-0.225
			c-0.114-0.056-0.237-0.082-0.369-0.082c-0.128,0-0.249,0.027-0.363,0.084c-0.114,0.057-0.213,0.133-0.297,0.229
			s-0.151,0.209-0.201,0.339C26.588,126.178,26.563,126.316,26.563,126.465z"/>
		<path d="M31.111,128.085c-0.248,0-0.471-0.044-0.669-0.132c-0.198-0.088-0.367-0.206-0.507-0.354
			c-0.14-0.148-0.248-0.322-0.324-0.521c-0.076-0.198-0.114-0.405-0.114-0.621c0-0.217,0.038-0.423,0.114-0.621
			c0.076-0.196,0.185-0.371,0.327-0.521c0.142-0.146,0.312-0.266,0.51-0.354c0.198-0.088,0.419-0.132,0.663-0.132
			c0.244,0,0.465,0.044,0.663,0.132c0.198,0.088,0.368,0.206,0.51,0.354c0.142,0.148,0.251,0.322,0.327,0.521
			c0.076,0.198,0.114,0.404,0.114,0.621c0,0.216-0.038,0.423-0.114,0.621c-0.076,0.196-0.185,0.371-0.327,0.521
			c-0.142,0.146-0.312,0.266-0.51,0.354C31.576,128.041,31.354,128.085,31.111,128.085z M30.175,126.465
			c0,0.152,0.024,0.292,0.072,0.42c0.048,0.129,0.114,0.239,0.198,0.333c0.084,0.095,0.183,0.168,0.297,0.222
			c0.114,0.056,0.237,0.082,0.369,0.082c0.132,0,0.255-0.026,0.369-0.082c0.114-0.054,0.213-0.129,0.297-0.225
			s0.15-0.208,0.198-0.336c0.048-0.128,0.072-0.268,0.072-0.42c0-0.148-0.024-0.287-0.072-0.417
			c-0.048-0.13-0.114-0.243-0.198-0.339s-0.183-0.172-0.297-0.225c-0.114-0.056-0.237-0.082-0.369-0.082
			c-0.128,0-0.249,0.027-0.363,0.084c-0.114,0.057-0.213,0.133-0.297,0.229s-0.151,0.209-0.201,0.339S30.175,126.316,30.175,126.465
			z"/>
		<path d="M35.497,128.025l-1.002-1.446l-0.522,0.491v0.955h-0.66v-4.381h0.66v2.777l1.44-1.529h0.72l-1.218,1.313l1.284,1.817
			h-0.702V128.025z"/>
		<path d="M39.773,128.085c-0.238,0-0.457-0.058-0.65-0.171c-0.193-0.114-0.348-0.268-0.459-0.459v0.57h-0.582v-4.381h0.66v1.836
			c0.125-0.199,0.279-0.357,0.465-0.475c0.188-0.115,0.404-0.174,0.658-0.174c0.207,0,0.396,0.045,0.568,0.135
			c0.172,0.092,0.319,0.21,0.44,0.36c0.123,0.149,0.217,0.323,0.283,0.521c0.065,0.198,0.098,0.405,0.098,0.621
			c0,0.225-0.037,0.434-0.112,0.631c-0.076,0.195-0.181,0.366-0.312,0.512c-0.131,0.146-0.289,0.263-0.471,0.347
			C40.177,128.042,39.982,128.085,39.773,128.085z M39.602,127.521c0.144,0,0.275-0.029,0.396-0.088
			c0.121-0.059,0.224-0.136,0.31-0.23c0.086-0.096,0.153-0.207,0.2-0.333c0.05-0.126,0.072-0.259,0.072-0.399
			c0-0.14-0.022-0.275-0.067-0.404c-0.048-0.131-0.111-0.243-0.193-0.342s-0.18-0.178-0.293-0.238
			c-0.113-0.06-0.238-0.09-0.375-0.09c-0.205,0-0.385,0.066-0.543,0.198s-0.279,0.292-0.363,0.479v0.828
			c0.023,0.093,0.066,0.176,0.127,0.25s0.129,0.139,0.209,0.193s0.166,0.1,0.258,0.131C39.43,127.506,39.518,127.521,39.602,127.521
			z"/>
		<path d="M42.686,128.085c-0.151,0-0.293-0.024-0.424-0.075c-0.131-0.05-0.242-0.119-0.336-0.207s-0.168-0.191-0.223-0.312
			c-0.055-0.119-0.08-0.25-0.08-0.39c0-0.147,0.031-0.283,0.096-0.401c0.064-0.12,0.154-0.226,0.273-0.312
			c0.117-0.089,0.258-0.156,0.42-0.203c0.162-0.05,0.34-0.072,0.537-0.072c0.146,0,0.293,0.013,0.438,0.039
			c0.146,0.024,0.273,0.061,0.391,0.104v-0.216c0-0.231-0.065-0.413-0.198-0.543c-0.132-0.131-0.322-0.195-0.569-0.195
			c-0.168,0-0.333,0.031-0.494,0.095c-0.162,0.062-0.33,0.149-0.502,0.267l-0.203-0.421c0.403-0.271,0.823-0.407,1.26-0.407
			c0.432,0,0.768,0.11,1.008,0.33s0.359,0.536,0.359,0.948v1.134c0,0.14,0.059,0.212,0.174,0.216v0.564
			c-0.062,0.012-0.117,0.02-0.164,0.022c-0.047,0.005-0.092,0.007-0.135,0.007c-0.129,0-0.228-0.031-0.297-0.097
			c-0.07-0.065-0.113-0.146-0.129-0.246l-0.019-0.196c-0.142,0.184-0.313,0.323-0.521,0.422
			C43.141,128.037,42.92,128.085,42.686,128.085z M42.865,127.6c0.158,0,0.311-0.029,0.451-0.088
			c0.143-0.058,0.254-0.139,0.334-0.242c0.084-0.071,0.125-0.147,0.125-0.229v-0.414c-0.111-0.044-0.23-0.078-0.355-0.102
			c-0.127-0.024-0.25-0.037-0.369-0.037c-0.236,0-0.43,0.052-0.578,0.154c-0.149,0.102-0.227,0.235-0.227,0.403
			c0,0.156,0.059,0.287,0.174,0.394C42.537,127.546,42.686,127.6,42.865,127.6z"/>
		<path d="M45.031,126.453c0-0.221,0.037-0.428,0.113-0.624s0.186-0.368,0.326-0.517c0.143-0.147,0.313-0.266,0.514-0.352
			c0.199-0.086,0.425-0.129,0.673-0.129c0.323,0,0.603,0.07,0.837,0.213c0.232,0.143,0.408,0.331,0.523,0.566l-0.642,0.203
			c-0.076-0.131-0.178-0.233-0.306-0.309c-0.129-0.074-0.271-0.111-0.428-0.111c-0.131,0-0.254,0.026-0.369,0.078
			c-0.112,0.053-0.213,0.125-0.297,0.219c-0.084,0.096-0.148,0.205-0.197,0.334c-0.049,0.127-0.071,0.271-0.071,0.427
			c0,0.151,0.024,0.293,0.075,0.423c0.05,0.13,0.117,0.243,0.203,0.339c0.087,0.097,0.187,0.171,0.301,0.226
			c0.113,0.055,0.234,0.082,0.361,0.082c0.08,0,0.16-0.013,0.24-0.033c0.08-0.022,0.153-0.053,0.221-0.094
			c0.064-0.039,0.123-0.086,0.174-0.139c0.05-0.052,0.087-0.107,0.109-0.168l0.648,0.192c-0.104,0.235-0.277,0.429-0.521,0.577
			c-0.244,0.15-0.531,0.227-0.863,0.227c-0.244,0-0.467-0.044-0.666-0.132c-0.2-0.088-0.371-0.207-0.514-0.356
			c-0.143-0.15-0.252-0.322-0.33-0.521C45.07,126.881,45.031,126.673,45.031,126.453z"/>
		<path d="M50.771,128.025l-1.002-1.446l-0.521,0.491v0.955h-0.659v-4.381h0.659v2.777l1.439-1.529h0.721l-1.219,1.313l1.285,1.817
			h-0.703V128.025z"/>
		<path d="M23.122,135.285c-0.152,0-0.293-0.025-0.423-0.075c-0.13-0.05-0.242-0.118-0.336-0.207
			c-0.094-0.088-0.168-0.192-0.222-0.312c-0.054-0.121-0.081-0.25-0.081-0.392c0-0.147,0.032-0.28,0.096-0.401
			c0.064-0.119,0.155-0.224,0.273-0.312c0.118-0.088,0.258-0.154,0.42-0.204c0.162-0.048,0.341-0.071,0.537-0.071
			c0.148,0,0.294,0.014,0.438,0.039c0.144,0.025,0.274,0.062,0.39,0.104v-0.216c0-0.231-0.066-0.413-0.198-0.543
			c-0.132-0.131-0.322-0.195-0.57-0.195c-0.168,0-0.333,0.031-0.495,0.093c-0.162,0.062-0.329,0.151-0.501,0.269l-0.204-0.42
			c0.404-0.272,0.824-0.408,1.26-0.408c0.432,0,0.768,0.109,1.008,0.33c0.24,0.22,0.36,0.535,0.36,0.947v1.135
			c0,0.14,0.058,0.212,0.174,0.216v0.563c-0.064,0.012-0.119,0.021-0.165,0.023c-0.046,0.004-0.091,0.006-0.135,0.006
			c-0.128,0-0.227-0.031-0.297-0.096c-0.07-0.062-0.113-0.146-0.129-0.246l-0.018-0.198c-0.14,0.185-0.313,0.325-0.519,0.425
			C23.579,135.236,23.358,135.285,23.122,135.285z M23.302,134.799c0.16,0,0.311-0.029,0.453-0.087s0.253-0.139,0.333-0.243
			c0.084-0.072,0.126-0.146,0.126-0.228v-0.414c-0.112-0.044-0.231-0.078-0.357-0.103c-0.126-0.023-0.249-0.035-0.369-0.035
			c-0.236,0-0.429,0.051-0.579,0.151c-0.15,0.103-0.225,0.237-0.225,0.405c0,0.156,0.058,0.287,0.174,0.395
			C22.974,134.746,23.122,134.799,23.302,134.799z"/>
		<path d="M28.486,135.225h-0.66v-1.758c0-0.296-0.047-0.511-0.141-0.645c-0.094-0.135-0.233-0.201-0.417-0.201
			c-0.096,0-0.192,0.018-0.288,0.055c-0.096,0.035-0.186,0.086-0.27,0.152s-0.159,0.145-0.225,0.234
			c-0.066,0.088-0.117,0.188-0.153,0.297v1.865h-0.66v-3.139h0.6v0.63c0.12-0.211,0.294-0.379,0.522-0.5
			c0.228-0.123,0.48-0.184,0.756-0.184c0.188,0,0.342,0.032,0.462,0.102c0.12,0.068,0.215,0.162,0.285,0.279
			c0.07,0.118,0.119,0.254,0.147,0.407c0.028,0.154,0.042,0.316,0.042,0.488V135.225z"/>
		<path d="M30.532,135.285c-0.212,0-0.408-0.043-0.588-0.129c-0.18-0.086-0.336-0.203-0.468-0.352
			c-0.132-0.147-0.235-0.32-0.309-0.52c-0.074-0.198-0.111-0.411-0.111-0.641c0-0.219,0.035-0.426,0.105-0.621
			c0.07-0.192,0.168-0.363,0.294-0.512c0.126-0.147,0.274-0.266,0.444-0.352s0.357-0.129,0.561-0.129
			c0.252,0,0.474,0.061,0.666,0.184c0.192,0.121,0.342,0.276,0.45,0.465v-1.836h0.66v3.6c0,0.076,0.013,0.131,0.039,0.162
			s0.073,0.051,0.141,0.055v0.562c-0.068,0.014-0.123,0.021-0.165,0.024s-0.077,0.006-0.105,0.006c-0.132,0-0.24-0.034-0.324-0.103
			c-0.084-0.067-0.13-0.155-0.138-0.264l-0.012-0.234c-0.116,0.197-0.274,0.352-0.474,0.463
			C30.998,135.229,30.776,135.285,30.532,135.285z M30.694,134.721c0.096,0,0.192-0.016,0.288-0.047
			c0.096-0.033,0.184-0.076,0.264-0.133s0.149-0.122,0.207-0.197c0.058-0.076,0.099-0.158,0.123-0.246v-0.822
			c-0.036-0.1-0.087-0.191-0.153-0.275s-0.141-0.155-0.225-0.216c-0.084-0.062-0.173-0.105-0.267-0.14
			c-0.094-0.031-0.189-0.047-0.285-0.047c-0.132,0-0.253,0.029-0.363,0.09c-0.11,0.061-0.205,0.141-0.285,0.24
			s-0.143,0.213-0.189,0.342c-0.046,0.127-0.069,0.26-0.069,0.396c0,0.145,0.025,0.279,0.075,0.408
			c0.05,0.128,0.119,0.238,0.207,0.336c0.088,0.096,0.189,0.172,0.303,0.229C30.439,134.693,30.562,134.721,30.694,134.721z"/>
		<path d="M35.392,135.285c-0.152,0-0.293-0.025-0.423-0.075c-0.13-0.05-0.242-0.118-0.336-0.207
			c-0.094-0.088-0.168-0.192-0.222-0.312c-0.054-0.121-0.081-0.25-0.081-0.392c0-0.147,0.032-0.28,0.096-0.401
			c0.064-0.119,0.155-0.224,0.273-0.312c0.118-0.088,0.258-0.154,0.42-0.204c0.162-0.048,0.341-0.071,0.537-0.071
			c0.148,0,0.294,0.014,0.438,0.039c0.144,0.025,0.274,0.062,0.39,0.104v-0.216c0-0.231-0.066-0.413-0.198-0.543
			c-0.132-0.131-0.322-0.195-0.57-0.195c-0.168,0-0.333,0.031-0.495,0.093c-0.162,0.062-0.329,0.151-0.501,0.269l-0.204-0.42
			c0.404-0.272,0.824-0.408,1.26-0.408c0.432,0,0.768,0.109,1.008,0.33c0.239,0.22,0.36,0.535,0.36,0.947v1.135
			c0,0.14,0.058,0.212,0.174,0.216v0.563c-0.064,0.012-0.119,0.021-0.166,0.023c-0.045,0.004-0.09,0.006-0.135,0.006
			c-0.127,0-0.227-0.031-0.297-0.096c-0.07-0.062-0.113-0.146-0.129-0.246l-0.018-0.198c-0.14,0.185-0.313,0.325-0.519,0.425
			C35.849,135.236,35.627,135.285,35.392,135.285z M35.572,134.799c0.16,0,0.311-0.029,0.453-0.087s0.253-0.139,0.333-0.243
			c0.084-0.072,0.126-0.146,0.126-0.228v-0.414c-0.112-0.044-0.231-0.078-0.357-0.103c-0.126-0.023-0.249-0.035-0.369-0.035
			c-0.236,0-0.429,0.051-0.579,0.151c-0.15,0.103-0.225,0.237-0.225,0.405c0,0.156,0.058,0.287,0.174,0.395
			C35.244,134.746,35.392,134.799,35.572,134.799z"/>
		<path d="M40.756,135.225h-0.66v-1.758c0-0.287-0.051-0.5-0.152-0.639c-0.103-0.139-0.25-0.207-0.44-0.207
			c-0.093,0-0.185,0.018-0.276,0.055c-0.093,0.035-0.179,0.086-0.261,0.152s-0.155,0.145-0.219,0.234s-0.113,0.188-0.146,0.297
			v1.865h-0.66v-4.38h0.66v1.871c0.119-0.216,0.283-0.384,0.488-0.504c0.207-0.119,0.432-0.18,0.676-0.18
			c0.195,0,0.357,0.034,0.482,0.104c0.127,0.069,0.229,0.162,0.303,0.278c0.076,0.116,0.129,0.251,0.16,0.405
			c0.029,0.154,0.045,0.315,0.045,0.488V135.225z"/>
		<path d="M42.945,135.285c-0.244,0-0.467-0.043-0.666-0.129s-0.371-0.203-0.514-0.352c-0.142-0.147-0.252-0.32-0.33-0.517
			c-0.078-0.195-0.117-0.404-0.117-0.624c0-0.221,0.039-0.43,0.117-0.627c0.078-0.198,0.188-0.372,0.33-0.521
			c0.143-0.149,0.313-0.269,0.514-0.354c0.199-0.086,0.424-0.129,0.672-0.129c0.244,0,0.465,0.044,0.662,0.132
			c0.199,0.088,0.367,0.205,0.508,0.352c0.141,0.146,0.247,0.315,0.32,0.51c0.074,0.194,0.11,0.397,0.11,0.608
			c0,0.05-0.002,0.095-0.006,0.136c-0.004,0.043-0.008,0.078-0.012,0.104H42.02c0.013,0.142,0.045,0.267,0.101,0.378
			c0.053,0.111,0.123,0.21,0.209,0.291c0.086,0.082,0.185,0.146,0.295,0.188c0.108,0.045,0.226,0.066,0.344,0.066
			c0.089,0,0.177-0.011,0.263-0.033c0.086-0.021,0.164-0.054,0.235-0.096c0.072-0.042,0.138-0.093,0.193-0.152
			c0.055-0.061,0.1-0.127,0.131-0.197l0.563,0.16c-0.106,0.236-0.287,0.431-0.537,0.58C43.568,135.21,43.277,135.285,42.945,135.285
			z M43.898,133.419c-0.012-0.132-0.045-0.254-0.099-0.366c-0.055-0.111-0.123-0.207-0.207-0.285s-0.182-0.139-0.295-0.183
			c-0.11-0.044-0.229-0.065-0.354-0.065s-0.239,0.021-0.352,0.065c-0.109,0.044-0.207,0.104-0.291,0.183
			c-0.084,0.08-0.15,0.174-0.203,0.285c-0.053,0.112-0.084,0.234-0.096,0.366H43.898z"/>
		<path d="M45.928,135.285c-0.152,0-0.294-0.025-0.424-0.075s-0.242-0.118-0.336-0.207c-0.094-0.088-0.168-0.192-0.223-0.312
			c-0.053-0.121-0.08-0.25-0.08-0.392c0-0.147,0.031-0.28,0.096-0.401c0.064-0.119,0.155-0.224,0.273-0.312
			c0.117-0.088,0.258-0.154,0.42-0.204c0.162-0.048,0.341-0.071,0.537-0.071c0.146,0,0.293,0.014,0.438,0.039
			s0.273,0.062,0.391,0.104v-0.216c0-0.231-0.065-0.413-0.197-0.543c-0.133-0.131-0.322-0.195-0.57-0.195
			c-0.168,0-0.333,0.031-0.495,0.093c-0.161,0.062-0.329,0.151-0.501,0.269l-0.204-0.42c0.404-0.272,0.824-0.408,1.261-0.408
			c0.433,0,0.769,0.109,1.008,0.33c0.24,0.22,0.361,0.535,0.361,0.947v1.135c0,0.14,0.057,0.212,0.174,0.216v0.563
			c-0.064,0.012-0.119,0.021-0.166,0.023c-0.045,0.003-0.09,0.006-0.135,0.006c-0.129,0-0.228-0.031-0.298-0.096
			c-0.069-0.062-0.112-0.146-0.129-0.246l-0.019-0.198c-0.141,0.185-0.312,0.325-0.52,0.425
			C46.384,135.236,46.163,135.285,45.928,135.285z M46.107,134.799c0.16,0,0.311-0.029,0.453-0.087
			c0.142-0.058,0.252-0.139,0.332-0.243c0.084-0.072,0.127-0.146,0.127-0.228v-0.414c-0.112-0.044-0.231-0.078-0.357-0.103
			c-0.126-0.023-0.249-0.035-0.369-0.035c-0.234,0-0.43,0.051-0.579,0.151c-0.149,0.103-0.226,0.237-0.226,0.405
			c0,0.156,0.059,0.287,0.175,0.395C45.779,134.746,45.928,134.799,46.107,134.799z"/>
		<path d="M49.755,135.285c-0.212,0-0.407-0.043-0.588-0.129s-0.336-0.203-0.468-0.352c-0.133-0.147-0.235-0.32-0.311-0.52
			c-0.072-0.198-0.109-0.411-0.109-0.641c0-0.219,0.035-0.426,0.104-0.621c0.07-0.192,0.168-0.363,0.294-0.512
			c0.126-0.147,0.274-0.266,0.444-0.352s0.357-0.129,0.561-0.129c0.252,0,0.476,0.061,0.666,0.184
			c0.192,0.121,0.344,0.276,0.45,0.465v-1.836h0.66v3.6c0,0.076,0.013,0.131,0.039,0.162s0.073,0.051,0.142,0.055v0.562
			c-0.068,0.014-0.123,0.021-0.166,0.024c-0.041,0.003-0.076,0.006-0.104,0.006c-0.133,0-0.24-0.034-0.324-0.103
			c-0.084-0.067-0.13-0.155-0.138-0.264l-0.013-0.234c-0.115,0.197-0.273,0.352-0.475,0.463S49.999,135.285,49.755,135.285z
			 M49.917,134.721c0.097,0,0.192-0.016,0.288-0.047c0.096-0.033,0.184-0.076,0.264-0.133s0.149-0.122,0.207-0.197
			c0.059-0.076,0.1-0.158,0.123-0.246v-0.822c-0.035-0.1-0.087-0.191-0.152-0.275s-0.142-0.155-0.226-0.216
			c-0.084-0.062-0.173-0.105-0.267-0.14c-0.096-0.031-0.189-0.047-0.285-0.047c-0.133,0-0.253,0.029-0.363,0.09
			c-0.109,0.061-0.205,0.141-0.285,0.24s-0.143,0.213-0.188,0.342c-0.047,0.127-0.069,0.26-0.069,0.396
			c0,0.145,0.024,0.279,0.075,0.408c0.05,0.128,0.119,0.238,0.207,0.336c0.088,0.096,0.188,0.172,0.303,0.229
			C49.662,134.693,49.785,134.721,49.917,134.721z"/>
	</g>
	<g>
		<g>
			
				<line fill="none" stroke="#00BFFF" stroke-linecap="round" stroke-miterlimit="10" x1="36.898" y1="115.988" x2="36.898" y2="120.504"/>
			<g>
				<polygon fill="#00BFFF" points="35.046,119.1 36.898,119.886 38.75,119.1 36.898,123.488 				"/>
			</g>
		</g>
	</g>
</g>
<g id="Layer_5">
	<path fill="#FBC15E" d="M64.725,107.03c0,4.932-2.806,8.93-8.52,8.93H17.589c-5.712,0-8.518-3.998-8.518-8.93v-0.892
		c0-4.932,2.806-8.93,8.518-8.93h38.616c5.714,0,8.52,3.998,8.52,8.93V107.03z"/>
	<g>
		<path d="M22.777,104.746v-4.26h2.838v0.594h-2.166v1.271h1.812v0.559h-1.812v1.836H22.777z"/>
		<path d="M27.373,104.807c-0.248,0-0.471-0.045-0.669-0.133c-0.198-0.088-0.367-0.206-0.507-0.354
			c-0.14-0.148-0.248-0.322-0.324-0.521s-0.114-0.405-0.114-0.62c0-0.218,0.038-0.424,0.114-0.621s0.185-0.371,0.327-0.521
			c0.142-0.147,0.312-0.267,0.51-0.354c0.198-0.088,0.419-0.132,0.663-0.132s0.465,0.044,0.663,0.132
			c0.198,0.088,0.368,0.207,0.51,0.354s0.251,0.321,0.327,0.521c0.076,0.197,0.114,0.403,0.114,0.621
			c0,0.215-0.038,0.422-0.114,0.62c-0.076,0.197-0.185,0.371-0.327,0.521c-0.142,0.146-0.312,0.266-0.51,0.354
			C27.838,104.762,27.617,104.807,27.373,104.807z M26.437,103.186c0,0.152,0.024,0.293,0.072,0.42
			c0.048,0.129,0.114,0.239,0.198,0.334s0.183,0.168,0.297,0.222c0.114,0.055,0.237,0.082,0.369,0.082s0.255-0.027,0.369-0.082
			c0.114-0.054,0.213-0.129,0.297-0.226c0.084-0.096,0.15-0.207,0.198-0.336c0.048-0.127,0.072-0.268,0.072-0.42
			c0-0.147-0.024-0.287-0.072-0.416c-0.048-0.131-0.114-0.244-0.198-0.34s-0.183-0.172-0.297-0.225
			c-0.114-0.055-0.237-0.082-0.369-0.082c-0.128,0-0.249,0.027-0.363,0.084c-0.114,0.057-0.213,0.133-0.297,0.229
			s-0.151,0.209-0.201,0.34C26.462,102.898,26.437,103.037,26.437,103.186z"/>
		<path d="M31.339,102.178c-0.256,0.008-0.483,0.066-0.681,0.178c-0.198,0.109-0.339,0.267-0.423,0.472v1.92h-0.66v-3.14h0.612
			v0.703c0.108-0.217,0.249-0.391,0.423-0.52c0.174-0.131,0.361-0.201,0.561-0.213c0.04,0,0.073,0,0.099,0s0.049,0.002,0.069,0.006
			V102.178z"/>
		<path d="M36.619,104.746h-0.66v-1.758c0-0.293-0.048-0.508-0.144-0.644c-0.096-0.137-0.236-0.204-0.42-0.204
			c-0.188,0-0.359,0.069-0.513,0.207c-0.154,0.139-0.265,0.317-0.333,0.537v1.86h-0.66v-1.759c0-0.297-0.048-0.512-0.144-0.646
			c-0.096-0.134-0.234-0.2-0.414-0.2c-0.188,0-0.36,0.066-0.516,0.203c-0.156,0.137-0.268,0.314-0.336,0.533v1.867h-0.66v-3.139h0.6
			v0.631c0.124-0.221,0.287-0.391,0.489-0.508c0.202-0.117,0.433-0.178,0.693-0.178c0.26,0,0.465,0.067,0.615,0.204
			c0.15,0.136,0.243,0.306,0.279,0.511c0.132-0.232,0.298-0.408,0.498-0.531c0.2-0.121,0.428-0.184,0.684-0.184
			c0.184,0,0.337,0.035,0.459,0.104c0.122,0.07,0.219,0.164,0.291,0.279c0.072,0.116,0.122,0.252,0.15,0.405
			s0.042,0.317,0.042,0.489V104.746z"/>
		<path d="M38.348,104.807c-0.328,0-0.576-0.106-0.744-0.322c-0.168-0.213-0.252-0.532-0.252-0.957v-1.92h0.66v1.789
			c0,0.562,0.199,0.847,0.6,0.847c0.188,0,0.365-0.06,0.533-0.175c0.168-0.116,0.299-0.284,0.392-0.504v-1.957h0.659v2.358
			c0,0.075,0.014,0.13,0.039,0.161c0.025,0.033,0.072,0.051,0.142,0.055v0.564c-0.067,0.012-0.124,0.02-0.168,0.023
			c-0.045,0.004-0.086,0.006-0.126,0.006c-0.12,0-0.223-0.033-0.307-0.1s-0.129-0.15-0.133-0.255l-0.012-0.312
			c-0.141,0.229-0.322,0.4-0.546,0.52C38.861,104.746,38.615,104.807,38.348,104.807z"/>
		<path d="M41.041,100.365h0.66v3.475c0,0.115,0.029,0.207,0.09,0.273c0.061,0.064,0.145,0.098,0.252,0.098
			c0.043,0,0.096-0.008,0.152-0.023c0.059-0.016,0.113-0.032,0.166-0.054l0.096,0.517c-0.096,0.043-0.211,0.078-0.342,0.104
			c-0.133,0.027-0.25,0.039-0.354,0.039c-0.229,0-0.406-0.062-0.531-0.186c-0.127-0.123-0.188-0.301-0.188-0.527L41.041,100.365
			L41.041,100.365z"/>
		<path d="M43.675,104.807c-0.151,0-0.293-0.024-0.423-0.076c-0.131-0.049-0.242-0.119-0.336-0.207s-0.168-0.19-0.223-0.312
			c-0.055-0.119-0.08-0.25-0.08-0.389c0-0.148,0.031-0.283,0.096-0.402c0.064-0.12,0.154-0.226,0.273-0.312
			c0.117-0.088,0.258-0.156,0.42-0.203c0.162-0.049,0.34-0.072,0.537-0.072c0.146,0,0.293,0.014,0.438,0.039
			s0.273,0.061,0.391,0.104v-0.216c0-0.231-0.066-0.413-0.199-0.543c-0.131-0.131-0.321-0.194-0.568-0.194
			c-0.168,0-0.333,0.031-0.495,0.094s-0.329,0.15-0.501,0.267l-0.204-0.421c0.404-0.271,0.824-0.406,1.261-0.406
			c0.432,0,0.769,0.109,1.008,0.329c0.24,0.22,0.359,0.536,0.359,0.948v1.134c0,0.14,0.059,0.212,0.174,0.216v0.564
			c-0.063,0.012-0.119,0.02-0.164,0.023c-0.047,0.004-0.092,0.006-0.136,0.006c-0.128,0-0.228-0.031-0.297-0.096
			s-0.112-0.146-0.129-0.246l-0.019-0.197c-0.141,0.184-0.312,0.324-0.52,0.422S43.91,104.807,43.675,104.807z M43.855,104.32
			c0.158,0,0.311-0.029,0.451-0.088c0.143-0.059,0.254-0.14,0.334-0.242c0.084-0.072,0.125-0.148,0.125-0.229v-0.413
			c-0.111-0.045-0.23-0.078-0.355-0.103c-0.127-0.024-0.25-0.037-0.369-0.037c-0.236,0-0.43,0.052-0.579,0.153
			c-0.149,0.103-0.226,0.236-0.226,0.404c0,0.156,0.059,0.287,0.174,0.394C43.527,104.268,43.675,104.32,43.855,104.32z"/>
		<path d="M47.947,104.584c-0.084,0.039-0.199,0.084-0.348,0.135s-0.307,0.074-0.475,0.074c-0.104,0-0.202-0.014-0.294-0.041
			c-0.093-0.027-0.174-0.07-0.243-0.127c-0.07-0.055-0.125-0.129-0.165-0.219s-0.062-0.199-0.062-0.326v-1.963h-0.413v-0.51h0.413
			v-1.031h0.66v1.031h0.686v0.51h-0.686v1.752c0.008,0.111,0.043,0.193,0.105,0.244c0.062,0.049,0.139,0.074,0.23,0.074
			c0.091,0,0.181-0.017,0.265-0.049c0.084-0.031,0.146-0.058,0.187-0.078L47.947,104.584z"/>
		<path d="M49.748,104.807c-0.244,0-0.467-0.043-0.666-0.13c-0.2-0.086-0.371-0.202-0.514-0.351s-0.252-0.32-0.33-0.518
			c-0.077-0.195-0.116-0.402-0.116-0.623s0.039-0.43,0.116-0.627c0.078-0.197,0.188-0.373,0.33-0.521
			c0.143-0.15,0.312-0.27,0.514-0.354c0.199-0.086,0.424-0.129,0.672-0.129c0.244,0,0.465,0.043,0.663,0.131
			c0.196,0.088,0.366,0.205,0.507,0.353c0.141,0.146,0.247,0.315,0.321,0.51c0.073,0.193,0.11,0.396,0.11,0.609
			c0,0.047-0.002,0.092-0.006,0.135c-0.004,0.041-0.009,0.076-0.013,0.104h-2.515c0.013,0.14,0.046,0.267,0.1,0.377
			c0.055,0.112,0.124,0.209,0.21,0.291s0.185,0.146,0.294,0.189c0.11,0.044,0.225,0.066,0.346,0.066
			c0.088,0,0.174-0.012,0.261-0.033s0.165-0.055,0.237-0.098c0.071-0.041,0.135-0.092,0.191-0.152s0.1-0.125,0.132-0.197
			l0.563,0.162c-0.107,0.236-0.286,0.43-0.536,0.578C50.371,104.73,50.08,104.807,49.748,104.807z M50.702,102.939
			c-0.013-0.133-0.046-0.254-0.101-0.365c-0.054-0.113-0.123-0.207-0.207-0.285s-0.182-0.139-0.293-0.184
			c-0.113-0.045-0.229-0.066-0.354-0.066s-0.241,0.021-0.353,0.066c-0.108,0.045-0.207,0.104-0.291,0.184s-0.15,0.172-0.203,0.285
			c-0.053,0.111-0.084,0.232-0.096,0.365H50.702z"/>
		<path d="M20.125,110.374c0-0.22,0.038-0.429,0.114-0.624c0.076-0.195,0.185-0.368,0.327-0.516
			c0.142-0.148,0.313-0.267,0.513-0.353c0.2-0.086,0.424-0.129,0.672-0.129c0.324,0,0.603,0.07,0.837,0.213
			c0.234,0.144,0.409,0.331,0.525,0.566l-0.642,0.204c-0.076-0.133-0.178-0.234-0.306-0.31c-0.128-0.073-0.27-0.11-0.426-0.11
			c-0.132,0-0.255,0.025-0.369,0.078c-0.114,0.052-0.213,0.125-0.297,0.22c-0.084,0.094-0.15,0.204-0.198,0.332
			c-0.048,0.129-0.072,0.271-0.072,0.427c0,0.15,0.025,0.293,0.075,0.423c0.05,0.13,0.118,0.243,0.204,0.339
			c0.086,0.098,0.186,0.172,0.3,0.227c0.114,0.054,0.235,0.08,0.363,0.08c0.08,0,0.16-0.012,0.24-0.033s0.153-0.053,0.219-0.092
			c0.066-0.041,0.124-0.086,0.174-0.14c0.05-0.052,0.087-0.106,0.111-0.168l0.648,0.191c-0.104,0.235-0.278,0.43-0.522,0.58
			c-0.244,0.149-0.532,0.225-0.864,0.225c-0.244,0-0.466-0.044-0.666-0.132c-0.2-0.089-0.371-0.207-0.513-0.357
			c-0.142-0.148-0.252-0.322-0.33-0.519C20.164,110.802,20.125,110.594,20.125,110.374z"/>
		<path d="M25.063,112.006c-0.248,0-0.471-0.044-0.669-0.132c-0.198-0.089-0.367-0.206-0.507-0.354
			c-0.14-0.146-0.248-0.319-0.324-0.519c-0.076-0.198-0.114-0.405-0.114-0.621s0.038-0.423,0.114-0.621s0.185-0.37,0.327-0.519
			s0.312-0.268,0.51-0.354c0.198-0.088,0.419-0.132,0.663-0.132s0.465,0.044,0.663,0.132c0.198,0.089,0.368,0.206,0.51,0.354
			c0.142,0.146,0.251,0.32,0.327,0.519s0.114,0.405,0.114,0.621s-0.038,0.423-0.114,0.621s-0.185,0.371-0.327,0.519
			c-0.142,0.148-0.312,0.267-0.51,0.354C25.528,111.962,25.307,112.006,25.063,112.006z M24.127,110.386
			c0,0.152,0.024,0.292,0.072,0.421c0.048,0.127,0.114,0.238,0.198,0.332s0.183,0.168,0.297,0.223
			c0.114,0.055,0.237,0.08,0.369,0.08s0.255-0.025,0.369-0.08c0.114-0.055,0.213-0.129,0.297-0.226
			c0.084-0.096,0.15-0.208,0.198-0.336c0.048-0.128,0.073-0.269,0.073-0.42c0-0.147-0.024-0.287-0.072-0.417
			c-0.048-0.13-0.114-0.243-0.198-0.339c-0.084-0.097-0.183-0.171-0.297-0.226c-0.114-0.055-0.237-0.08-0.369-0.08
			c-0.128,0-0.249,0.026-0.363,0.084c-0.114,0.056-0.213,0.131-0.297,0.228s-0.151,0.209-0.201,0.339
			C24.152,110.1,24.127,110.238,24.127,110.386z"/>
		<path d="M30.079,111.945h-0.66v-1.758c0-0.297-0.047-0.512-0.141-0.646c-0.094-0.135-0.233-0.201-0.417-0.201
			c-0.096,0-0.192,0.019-0.288,0.056c-0.096,0.035-0.186,0.086-0.27,0.151c-0.084,0.066-0.159,0.146-0.225,0.234
			s-0.117,0.188-0.153,0.297v1.864h-0.66v-3.137h0.6v0.629c0.12-0.211,0.294-0.379,0.522-0.5c0.228-0.123,0.48-0.184,0.756-0.184
			c0.188,0,0.342,0.033,0.462,0.102s0.215,0.162,0.285,0.279c0.07,0.118,0.119,0.254,0.147,0.408
			c0.028,0.154,0.042,0.316,0.042,0.488V111.945z"/>
		<path d="M30.643,110.374c0-0.22,0.038-0.429,0.114-0.624c0.076-0.195,0.185-0.368,0.327-0.516
			c0.142-0.148,0.313-0.267,0.513-0.353c0.2-0.086,0.424-0.129,0.672-0.129c0.324,0,0.603,0.07,0.837,0.213
			c0.234,0.144,0.409,0.331,0.525,0.566l-0.642,0.204c-0.076-0.133-0.178-0.234-0.306-0.31c-0.128-0.073-0.27-0.11-0.426-0.11
			c-0.132,0-0.255,0.025-0.369,0.078c-0.114,0.052-0.213,0.125-0.297,0.22c-0.084,0.094-0.15,0.204-0.198,0.332
			c-0.048,0.129-0.072,0.271-0.072,0.427c0,0.15,0.025,0.293,0.075,0.423s0.118,0.243,0.204,0.339
			c0.086,0.098,0.186,0.172,0.3,0.227c0.114,0.054,0.235,0.08,0.363,0.08c0.08,0,0.16-0.012,0.24-0.033s0.153-0.053,0.219-0.092
			c0.066-0.041,0.124-0.086,0.174-0.14c0.05-0.052,0.087-0.106,0.111-0.168l0.648,0.191c-0.104,0.235-0.278,0.43-0.522,0.58
			c-0.244,0.149-0.532,0.225-0.864,0.225c-0.244,0-0.466-0.044-0.666-0.132c-0.2-0.089-0.371-0.207-0.513-0.357
			c-0.142-0.148-0.252-0.322-0.33-0.519C30.682,110.802,30.643,110.594,30.643,110.374z"/>
		<path d="M34.207,107.566h0.66v3.474c0,0.116,0.03,0.206,0.09,0.272c0.06,0.065,0.144,0.1,0.252,0.1
			c0.044,0,0.095-0.008,0.153-0.023c0.058-0.017,0.113-0.035,0.165-0.055l0.096,0.516c-0.096,0.045-0.21,0.08-0.342,0.105
			c-0.132,0.025-0.25,0.039-0.354,0.039c-0.228,0-0.405-0.062-0.531-0.188s-0.189-0.3-0.189-0.527V107.566z"/>
		<path d="M36.973,112.006c-0.328,0-0.576-0.107-0.744-0.32c-0.168-0.215-0.252-0.533-0.252-0.957v-1.92h0.66v1.787
			c0,0.564,0.2,0.846,0.6,0.846c0.188,0,0.367-0.058,0.535-0.174c0.168-0.115,0.297-0.283,0.39-0.504v-1.955h0.659v2.357
			c0,0.076,0.014,0.13,0.039,0.162c0.027,0.031,0.074,0.05,0.143,0.054v0.563c-0.068,0.013-0.125,0.021-0.168,0.023
			c-0.045,0.004-0.087,0.006-0.127,0.006c-0.119,0-0.223-0.031-0.307-0.099s-0.127-0.149-0.131-0.256l-0.013-0.312
			c-0.141,0.228-0.323,0.4-0.546,0.519C37.486,111.947,37.241,112.006,36.973,112.006z"/>
		<path d="M40.801,112.006c-0.252,0-0.503-0.041-0.752-0.123c-0.25-0.082-0.466-0.199-0.646-0.352l0.265-0.42
			c0.188,0.137,0.374,0.24,0.558,0.31c0.186,0.069,0.373,0.104,0.564,0.104c0.195,0,0.352-0.037,0.465-0.113
			c0.114-0.076,0.172-0.184,0.172-0.324c0-0.133-0.064-0.229-0.193-0.288c-0.127-0.06-0.326-0.126-0.6-0.198
			c-0.195-0.052-0.363-0.102-0.504-0.149c-0.141-0.047-0.254-0.104-0.342-0.168s-0.152-0.138-0.191-0.222
			c-0.041-0.084-0.061-0.187-0.061-0.307c0-0.16,0.031-0.303,0.093-0.426c0.062-0.124,0.147-0.229,0.259-0.314
			c0.109-0.086,0.238-0.151,0.387-0.195c0.147-0.045,0.309-0.065,0.479-0.065c0.235,0,0.456,0.036,0.66,0.106
			c0.204,0.072,0.386,0.178,0.546,0.312l-0.281,0.396c-0.293-0.232-0.603-0.35-0.931-0.35c-0.168,0-0.31,0.035-0.423,0.104
			c-0.114,0.069-0.172,0.182-0.172,0.334c0,0.063,0.013,0.116,0.037,0.161c0.022,0.044,0.062,0.082,0.117,0.113
			c0.053,0.032,0.123,0.062,0.209,0.088s0.192,0.056,0.32,0.086c0.212,0.054,0.396,0.104,0.551,0.156
			c0.152,0.053,0.279,0.113,0.381,0.185c0.1,0.069,0.174,0.151,0.221,0.245c0.049,0.095,0.072,0.207,0.072,0.339
			c0,0.301-0.113,0.536-0.338,0.711C41.496,111.919,41.189,112.006,40.801,112.006z"/>
		<path d="M42.637,108.292v-0.726h0.66v0.726H42.637z M42.637,111.945v-3.139h0.66v3.139H42.637z"/>
		<path d="M45.499,112.006c-0.248,0-0.472-0.044-0.669-0.132c-0.198-0.089-0.367-0.206-0.507-0.354
			c-0.14-0.146-0.248-0.319-0.323-0.519c-0.076-0.198-0.115-0.405-0.115-0.621s0.039-0.423,0.115-0.621
			c0.075-0.198,0.186-0.37,0.326-0.519c0.143-0.148,0.312-0.268,0.51-0.354c0.198-0.087,0.419-0.132,0.663-0.132
			s0.466,0.044,0.663,0.132c0.197,0.089,0.367,0.206,0.51,0.354c0.143,0.146,0.251,0.32,0.327,0.519
			c0.076,0.199,0.114,0.405,0.114,0.621s-0.038,0.423-0.114,0.621s-0.185,0.371-0.327,0.519c-0.143,0.148-0.312,0.267-0.51,0.354
			S45.743,112.006,45.499,112.006z M44.562,110.386c0,0.152,0.024,0.292,0.072,0.421c0.049,0.127,0.113,0.238,0.197,0.332
			s0.184,0.168,0.297,0.223c0.114,0.055,0.237,0.08,0.369,0.08c0.133,0,0.255-0.025,0.369-0.08c0.113-0.055,0.213-0.129,0.297-0.226
			c0.084-0.096,0.15-0.208,0.197-0.336c0.049-0.128,0.072-0.269,0.072-0.42c0-0.147-0.023-0.287-0.072-0.417
			c-0.047-0.13-0.113-0.242-0.197-0.339s-0.184-0.171-0.297-0.226c-0.114-0.055-0.236-0.08-0.369-0.08
			c-0.128,0-0.249,0.027-0.361,0.084c-0.115,0.056-0.214,0.131-0.298,0.228c-0.085,0.097-0.151,0.209-0.202,0.339
			C44.588,110.1,44.562,110.238,44.562,110.386z"/>
		<path d="M50.516,111.945h-0.66v-1.758c0-0.297-0.047-0.512-0.142-0.646c-0.094-0.135-0.233-0.201-0.417-0.201
			c-0.096,0-0.191,0.019-0.288,0.056c-0.096,0.035-0.187,0.086-0.271,0.151c-0.084,0.066-0.158,0.146-0.225,0.234
			c-0.068,0.089-0.117,0.188-0.154,0.297v1.864h-0.658v-3.137h0.6v0.629c0.12-0.211,0.295-0.379,0.521-0.5
			c0.229-0.123,0.479-0.184,0.757-0.184c0.188,0,0.342,0.033,0.462,0.102c0.12,0.069,0.215,0.162,0.285,0.279
			c0.068,0.118,0.117,0.254,0.146,0.408c0.027,0.154,0.041,0.316,0.041,0.488v1.916H50.516z"/>
		<path d="M52.423,112.006c-0.252,0-0.503-0.041-0.753-0.123s-0.465-0.199-0.646-0.352l0.266-0.42
			c0.188,0.137,0.374,0.24,0.559,0.31c0.184,0.07,0.371,0.104,0.563,0.104c0.194,0,0.351-0.037,0.465-0.113
			c0.112-0.076,0.171-0.184,0.171-0.324c0-0.133-0.064-0.229-0.191-0.288c-0.129-0.059-0.328-0.126-0.601-0.198
			c-0.196-0.052-0.364-0.102-0.504-0.149c-0.142-0.047-0.254-0.104-0.342-0.168c-0.089-0.063-0.152-0.138-0.192-0.222
			s-0.061-0.187-0.061-0.307c0-0.16,0.031-0.303,0.094-0.426c0.062-0.124,0.146-0.229,0.258-0.314
			c0.11-0.086,0.239-0.151,0.387-0.195c0.148-0.045,0.31-0.065,0.48-0.065c0.234,0,0.456,0.036,0.66,0.106
			c0.203,0.072,0.386,0.178,0.546,0.312l-0.282,0.396c-0.292-0.232-0.604-0.35-0.93-0.35c-0.168,0-0.311,0.035-0.424,0.104
			s-0.172,0.182-0.172,0.334c0,0.063,0.014,0.116,0.037,0.161c0.023,0.044,0.062,0.082,0.116,0.113
			c0.054,0.032,0.124,0.062,0.21,0.088s0.193,0.056,0.321,0.086c0.212,0.054,0.396,0.104,0.549,0.156
			c0.154,0.053,0.281,0.113,0.382,0.185c0.1,0.071,0.174,0.151,0.221,0.245c0.05,0.095,0.072,0.207,0.072,0.339
			c0,0.301-0.113,0.536-0.339,0.711C53.118,111.919,52.811,112.006,52.423,112.006z"/>
	</g>
	<g>
		<g>
			
				<line fill="none" stroke="#00BFFF" stroke-linecap="round" stroke-miterlimit="10" x1="36.898" y1="92.572" x2="36.898" y2="97.088"/>
			<g>
				<polygon fill="#00BFFF" points="35.046,95.684 36.898,96.47 38.75,95.684 36.898,100.072 				"/>
			</g>
		</g>
	</g>
</g>
<g id="Layer_4">
	<path fill="#FBC15E" d="M64.725,83.752c0,4.932-2.806,8.93-8.519,8.93H17.589c-5.712,0-8.518-3.998-8.518-8.93v-0.891
		c0-4.932,2.806-8.93,8.518-8.93h38.617c5.713,0,8.519,3.998,8.519,8.93V83.752z"/>
	<g>
		<path d="M30.069,81.467v-4.26h1.512c0.344,0,0.645,0.057,0.903,0.168c0.258,0.111,0.474,0.264,0.648,0.456
			c0.174,0.192,0.305,0.417,0.393,0.675s0.132,0.533,0.132,0.825c0,0.324-0.049,0.617-0.147,0.879
			c-0.098,0.263-0.237,0.485-0.417,0.672c-0.18,0.187-0.398,0.33-0.654,0.433c-0.256,0.102-0.542,0.152-0.858,0.152H30.069z
			 M32.973,79.331c0-0.224-0.031-0.431-0.093-0.618s-0.153-0.349-0.273-0.482c-0.12-0.135-0.266-0.239-0.438-0.315
			s-0.368-0.114-0.588-0.114h-0.84v3.072h0.84c0.224,0,0.423-0.039,0.597-0.117c0.174-0.078,0.32-0.186,0.438-0.324
			c0.118-0.138,0.207-0.301,0.267-0.488C32.943,79.755,32.973,79.551,32.973,79.331z"/>
		<path d="M36.045,78.898c-0.256,0.009-0.483,0.067-0.681,0.178c-0.198,0.109-0.339,0.267-0.423,0.471v1.92h-0.66v-3.138h0.612
			v0.702c0.108-0.217,0.249-0.389,0.423-0.52c0.174-0.13,0.361-0.201,0.561-0.213c0.04,0,0.073,0,0.099,0s0.049,0.002,0.069,0.006
			V78.898z"/>
		<path d="M37.316,81.527c-0.151,0-0.293-0.025-0.422-0.075c-0.131-0.05-0.242-0.119-0.336-0.207
			c-0.095-0.088-0.168-0.192-0.223-0.312c-0.054-0.121-0.081-0.25-0.081-0.391c0-0.148,0.032-0.282,0.096-0.402
			c0.064-0.119,0.155-0.224,0.273-0.312s0.258-0.156,0.42-0.204s0.341-0.072,0.537-0.072c0.147,0,0.294,0.014,0.438,0.039
			c0.145,0.026,0.272,0.061,0.39,0.105V79.48c0-0.231-0.065-0.412-0.198-0.543c-0.131-0.129-0.322-0.194-0.568-0.194
			c-0.168,0-0.334,0.03-0.496,0.093s-0.328,0.15-0.5,0.268l-0.205-0.42c0.404-0.272,0.824-0.408,1.26-0.408
			c0.432,0,0.769,0.109,1.008,0.33c0.24,0.22,0.36,0.535,0.36,0.947v1.135c0,0.14,0.058,0.211,0.174,0.215v0.564
			c-0.062,0.012-0.118,0.02-0.165,0.024c-0.046,0.004-0.091,0.006-0.136,0.006c-0.127,0-0.227-0.032-0.297-0.097
			c-0.069-0.063-0.112-0.146-0.129-0.245L38.5,80.958c-0.141,0.185-0.312,0.325-0.52,0.423S37.553,81.527,37.316,81.527z
			 M37.498,81.042c0.16,0,0.311-0.028,0.453-0.087c0.142-0.059,0.253-0.139,0.333-0.243c0.084-0.071,0.126-0.147,0.126-0.228V80.07
			c-0.112-0.045-0.23-0.078-0.357-0.103c-0.126-0.024-0.248-0.036-0.369-0.036c-0.235,0-0.429,0.051-0.578,0.153
			c-0.15,0.103-0.226,0.237-0.226,0.405c0,0.156,0.058,0.287,0.175,0.393C37.169,80.988,37.316,81.042,37.498,81.042z"/>
		<path d="M43.695,78.329h0.63l-1.319,3.138h-0.547l-0.582-1.458l-0.582,1.458h-0.546l-1.325-3.138h0.629l1.016,2.502l0.455-1.164
			l-0.547-1.332h0.541l0.359,0.983l0.354-0.983h0.541l-0.541,1.332l0.457,1.164L43.695,78.329z"/>
		<path d="M22.462,85.014v-0.726h0.66v0.726H22.462z M22.462,88.667v-3.138h0.66v3.138H22.462z"/>
		<path d="M26.728,88.667h-0.66V86.91c0-0.296-0.047-0.512-0.141-0.645c-0.094-0.135-0.233-0.201-0.417-0.201
			c-0.096,0-0.192,0.018-0.288,0.054c-0.096,0.036-0.186,0.087-0.27,0.153c-0.084,0.065-0.159,0.144-0.225,0.233
			c-0.066,0.091-0.117,0.188-0.153,0.297v1.866h-0.66V85.53h0.6v0.63c0.12-0.212,0.294-0.379,0.522-0.501s0.48-0.183,0.756-0.183
			c0.188,0,0.342,0.033,0.462,0.102s0.215,0.161,0.285,0.279c0.07,0.117,0.119,0.254,0.147,0.408
			c0.028,0.153,0.042,0.316,0.042,0.488V88.667z"/>
		<path d="M27.646,88.667v-2.55h-0.42v-0.51h0.42V85.48c0-0.388,0.09-0.693,0.27-0.918c0.18-0.224,0.424-0.336,0.732-0.336
			c0.128,0,0.254,0.018,0.378,0.051c0.124,0.035,0.242,0.082,0.354,0.142l-0.144,0.492c-0.06-0.036-0.131-0.066-0.213-0.091
			c-0.082-0.023-0.161-0.035-0.237-0.035c-0.156,0-0.275,0.058-0.357,0.174s-0.123,0.284-0.123,0.504v0.145h0.804v0.51h-0.804v2.55
			H27.646z"/>
		<path d="M30.868,88.729c-0.244,0-0.466-0.043-0.666-0.129c-0.2-0.086-0.371-0.203-0.513-0.352s-0.252-0.32-0.33-0.516
			c-0.078-0.196-0.117-0.404-0.117-0.625c0-0.219,0.039-0.428,0.117-0.627c0.078-0.197,0.188-0.371,0.33-0.521
			s0.313-0.268,0.513-0.354c0.2-0.086,0.424-0.129,0.672-0.129c0.244,0,0.465,0.043,0.663,0.131
			c0.198,0.088,0.367,0.205,0.507,0.352s0.247,0.316,0.321,0.51c0.074,0.194,0.111,0.397,0.111,0.609
			c0,0.048-0.002,0.093-0.006,0.135c-0.004,0.042-0.008,0.077-0.012,0.105h-2.514c0.012,0.14,0.045,0.266,0.099,0.378
			s0.124,0.209,0.21,0.29c0.086,0.082,0.184,0.146,0.294,0.189c0.11,0.045,0.225,0.066,0.345,0.066c0.088,0,0.175-0.012,0.261-0.033
			s0.165-0.054,0.237-0.096c0.072-0.042,0.136-0.094,0.192-0.153s0.1-0.126,0.132-0.198l0.564,0.162
			c-0.108,0.236-0.287,0.43-0.537,0.579S31.2,88.729,30.868,88.729z M31.822,86.861c-0.012-0.133-0.045-0.254-0.099-0.366
			c-0.054-0.112-0.123-0.207-0.207-0.285s-0.182-0.14-0.294-0.183c-0.112-0.045-0.23-0.066-0.354-0.066s-0.241,0.021-0.351,0.066
			c-0.11,0.043-0.207,0.104-0.291,0.183s-0.152,0.173-0.204,0.285c-0.052,0.112-0.084,0.233-0.096,0.366H31.822z"/>
		<path d="M34.78,86.1c-0.256,0.008-0.483,0.067-0.681,0.178c-0.198,0.109-0.339,0.267-0.423,0.471v1.92h-0.66V85.53h0.612v0.702
			c0.108-0.217,0.249-0.39,0.423-0.52c0.174-0.13,0.361-0.201,0.561-0.213c0.04,0,0.073,0,0.099,0s0.049,0.002,0.069,0.006V86.1z"/>
		<path d="M36.525,88.729c-0.243,0-0.465-0.043-0.666-0.129c-0.2-0.086-0.371-0.203-0.513-0.352c-0.142-0.148-0.252-0.32-0.33-0.516
			c-0.078-0.196-0.117-0.404-0.117-0.625c0-0.219,0.039-0.428,0.117-0.627c0.078-0.197,0.188-0.371,0.33-0.521
			c0.142-0.15,0.313-0.268,0.513-0.354c0.2-0.086,0.424-0.129,0.672-0.129c0.243,0,0.465,0.043,0.663,0.131
			c0.197,0.088,0.367,0.205,0.507,0.352s0.247,0.316,0.321,0.51c0.074,0.194,0.11,0.397,0.11,0.609c0,0.048-0.002,0.093-0.006,0.135
			s-0.008,0.077-0.012,0.105h-2.514c0.012,0.14,0.045,0.266,0.099,0.378c0.054,0.112,0.124,0.209,0.21,0.29
			c0.086,0.082,0.184,0.146,0.294,0.189c0.11,0.045,0.225,0.066,0.345,0.066c0.089,0,0.175-0.012,0.261-0.033
			s0.166-0.054,0.237-0.096c0.072-0.042,0.136-0.094,0.192-0.153c0.056-0.06,0.1-0.126,0.132-0.198l0.563,0.162
			c-0.107,0.236-0.287,0.43-0.537,0.579S36.857,88.729,36.525,88.729z M37.48,86.861c-0.013-0.133-0.045-0.254-0.1-0.366
			c-0.054-0.112-0.123-0.207-0.207-0.285s-0.182-0.14-0.294-0.183c-0.112-0.045-0.229-0.066-0.354-0.066
			c-0.124,0-0.24,0.021-0.351,0.066c-0.11,0.043-0.207,0.104-0.291,0.183s-0.152,0.173-0.204,0.285
			c-0.052,0.112-0.084,0.233-0.096,0.366H37.48z"/>
		<path d="M41.488,88.667h-0.66V86.91c0-0.296-0.047-0.512-0.141-0.645c-0.096-0.135-0.234-0.201-0.418-0.201
			c-0.097,0-0.191,0.018-0.287,0.054c-0.098,0.036-0.188,0.087-0.271,0.153c-0.084,0.065-0.159,0.144-0.227,0.233
			c-0.064,0.091-0.116,0.188-0.151,0.297v1.866h-0.66V85.53h0.601v0.63c0.121-0.212,0.295-0.379,0.521-0.501
			s0.479-0.183,0.756-0.183c0.188,0,0.344,0.033,0.463,0.102s0.215,0.161,0.284,0.279c0.07,0.117,0.119,0.254,0.146,0.408
			c0.029,0.153,0.043,0.316,0.043,0.488v1.913H41.488z"/>
		<path d="M42.052,87.096c0-0.22,0.038-0.428,0.114-0.623c0.076-0.197,0.186-0.369,0.326-0.517c0.143-0.147,0.312-0.265,0.514-0.351
			s0.424-0.129,0.672-0.129c0.324,0,0.604,0.07,0.838,0.213c0.232,0.142,0.408,0.33,0.523,0.566l-0.641,0.204
			c-0.076-0.132-0.18-0.235-0.308-0.31c-0.128-0.073-0.271-0.11-0.426-0.11c-0.133,0-0.256,0.026-0.369,0.078
			c-0.112,0.052-0.213,0.125-0.297,0.219c-0.084,0.095-0.149,0.205-0.198,0.333c-0.048,0.128-0.07,0.27-0.07,0.426
			c0,0.152,0.023,0.293,0.074,0.424c0.051,0.129,0.117,0.242,0.203,0.338c0.086,0.097,0.188,0.172,0.301,0.226
			s0.234,0.081,0.362,0.081c0.08,0,0.16-0.012,0.24-0.033s0.151-0.053,0.219-0.093s0.124-0.086,0.175-0.138
			c0.051-0.053,0.088-0.108,0.11-0.168l0.647,0.191c-0.104,0.236-0.278,0.43-0.521,0.579c-0.244,0.149-0.532,0.226-0.864,0.226
			c-0.243,0-0.466-0.045-0.665-0.133s-0.371-0.207-0.514-0.356c-0.143-0.15-0.252-0.323-0.33-0.519
			C42.091,87.523,42.052,87.314,42.052,87.096z"/>
		<path d="M47.002,88.729c-0.244,0-0.467-0.043-0.666-0.129c-0.201-0.086-0.371-0.203-0.514-0.352s-0.252-0.32-0.33-0.516
			c-0.078-0.196-0.117-0.404-0.117-0.625c0-0.219,0.039-0.428,0.117-0.627c0.078-0.197,0.188-0.371,0.33-0.521
			c0.142-0.15,0.312-0.268,0.514-0.354c0.199-0.086,0.424-0.129,0.672-0.129c0.244,0,0.465,0.043,0.662,0.131
			c0.197,0.089,0.367,0.205,0.508,0.352c0.139,0.146,0.246,0.316,0.32,0.51c0.074,0.194,0.111,0.397,0.111,0.609
			c0,0.048-0.002,0.093-0.006,0.135s-0.008,0.077-0.013,0.105h-2.516c0.014,0.14,0.047,0.266,0.1,0.378
			c0.056,0.112,0.125,0.209,0.212,0.29c0.086,0.082,0.184,0.146,0.293,0.189c0.11,0.045,0.225,0.066,0.346,0.066
			c0.088,0,0.174-0.012,0.26-0.033c0.088-0.021,0.166-0.054,0.238-0.096s0.135-0.094,0.19-0.153s0.101-0.126,0.134-0.198
			l0.562,0.162c-0.107,0.236-0.285,0.43-0.535,0.579S47.334,88.729,47.002,88.729z M47.955,86.861
			c-0.012-0.133-0.045-0.254-0.1-0.366c-0.054-0.112-0.123-0.207-0.207-0.285s-0.183-0.14-0.293-0.183
			c-0.113-0.045-0.23-0.066-0.354-0.066c-0.125,0-0.242,0.021-0.353,0.066c-0.108,0.043-0.207,0.104-0.291,0.183
			s-0.151,0.173-0.205,0.285c-0.051,0.112-0.084,0.233-0.096,0.366H47.955z"/>
		<path d="M50.289,88.729c-0.252,0-0.502-0.041-0.752-0.123s-0.465-0.199-0.646-0.352l0.267-0.42
			c0.188,0.136,0.372,0.239,0.557,0.309c0.185,0.07,0.373,0.105,0.563,0.105c0.195,0,0.353-0.038,0.466-0.114
			c0.112-0.075,0.172-0.184,0.172-0.323c0-0.133-0.063-0.229-0.192-0.289c-0.127-0.06-0.328-0.125-0.601-0.197
			c-0.195-0.053-0.363-0.102-0.504-0.15c-0.142-0.048-0.255-0.104-0.343-0.168s-0.151-0.138-0.19-0.222
			c-0.041-0.084-0.062-0.187-0.062-0.306c0-0.16,0.031-0.303,0.095-0.427c0.062-0.124,0.146-0.229,0.258-0.315
			c0.108-0.086,0.237-0.15,0.388-0.194c0.148-0.044,0.309-0.065,0.479-0.065c0.233,0,0.455,0.035,0.659,0.107
			c0.203,0.072,0.386,0.176,0.546,0.312l-0.281,0.396c-0.293-0.231-0.604-0.349-0.931-0.349c-0.168,0-0.311,0.035-0.424,0.105
			c-0.112,0.07-0.172,0.182-0.172,0.333c0,0.063,0.014,0.118,0.037,0.162s0.062,0.082,0.117,0.114
			c0.053,0.031,0.123,0.061,0.209,0.087s0.193,0.055,0.322,0.087c0.211,0.052,0.395,0.104,0.549,0.156
			c0.154,0.052,0.281,0.113,0.381,0.183c0.1,0.07,0.174,0.152,0.221,0.246c0.049,0.094,0.072,0.207,0.072,0.339
			c0,0.301-0.113,0.537-0.338,0.711C50.984,88.641,50.678,88.729,50.289,88.729z"/>
	</g>
	<g>
		<g>
			
				<line fill="none" stroke="#00BFFF" stroke-linecap="round" stroke-miterlimit="10" x1="36.898" y1="69.155" x2="36.898" y2="73.67"/>
			<g>
				<polygon fill="#00BFFF" points="35.046,72.266 36.898,73.053 38.75,72.266 36.898,76.655 				"/>
			</g>
		</g>
	</g>
</g>
<g id="Layer_3">
	<path fill="#FBC15E" d="M64.725,60.474c0,4.931-2.806,8.929-8.519,8.929H17.589c-5.712,0-8.518-3.998-8.518-8.929v-0.892
		c0-4.931,2.806-8.929,8.518-8.929h38.617c5.713,0,8.519,3.998,8.519,8.929V60.474z"/>
	<g>
		<path d="M29.503,57.594v0.594h-2.922v-4.26h2.868v0.594h-2.196v1.212h1.902v0.558h-1.902v1.302H29.503z"/>
		<path d="M30.463,55.05l0.768,1.074l0.054,0.102l0.054-0.102l0.762-1.074h0.69l-1.146,1.572l1.158,1.566h-0.69l-0.774-1.068
			l-0.054-0.096l-0.054,0.096l-0.774,1.068h-0.69l1.158-1.566l-1.146-1.572H30.463z"/>
		<path d="M35.029,58.249c-0.252,0-0.474-0.06-0.666-0.18c-0.192-0.12-0.344-0.276-0.456-0.468v1.866h-0.66V55.05h0.582v0.564
			c0.12-0.188,0.275-0.338,0.465-0.45c0.19-0.112,0.405-0.168,0.645-0.168c0.216,0,0.414,0.044,0.594,0.132
			c0.18,0.088,0.336,0.206,0.468,0.354s0.235,0.32,0.309,0.516c0.074,0.196,0.111,0.402,0.111,0.618
			c0,0.228-0.034,0.441-0.102,0.639c-0.068,0.198-0.164,0.37-0.288,0.516c-0.124,0.146-0.271,0.262-0.441,0.348
			C35.42,58.206,35.233,58.249,35.029,58.249z M34.813,57.685c0.14,0,0.267-0.03,0.381-0.09c0.114-0.06,0.212-0.14,0.294-0.24
			s0.145-0.214,0.189-0.342c0.044-0.128,0.066-0.26,0.066-0.396c0-0.144-0.025-0.28-0.075-0.408s-0.118-0.24-0.204-0.336
			c-0.086-0.096-0.189-0.172-0.309-0.228c-0.12-0.056-0.25-0.084-0.39-0.084c-0.084,0-0.172,0.016-0.264,0.048
			c-0.092,0.032-0.178,0.076-0.258,0.132c-0.08,0.056-0.15,0.121-0.21,0.195c-0.06,0.074-0.102,0.155-0.126,0.243V57
			c0.04,0.096,0.092,0.186,0.156,0.27s0.135,0.156,0.213,0.216c0.078,0.06,0.163,0.108,0.255,0.144
			C34.623,57.667,34.717,57.685,34.813,57.685z"/>
		<path d="M37.021,53.809h0.66v3.474c0,0.116,0.029,0.207,0.09,0.273c0.06,0.066,0.144,0.099,0.252,0.099
			c0.043,0,0.095-0.008,0.152-0.024c0.059-0.016,0.113-0.034,0.166-0.054l0.096,0.516c-0.096,0.044-0.211,0.079-0.342,0.105
			c-0.132,0.026-0.25,0.039-0.354,0.039c-0.229,0-0.405-0.062-0.531-0.186s-0.189-0.3-0.189-0.528V53.809L37.021,53.809z"/>
		<path d="M40.23,58.249c-0.248,0-0.472-0.044-0.668-0.132c-0.199-0.088-0.367-0.206-0.508-0.354s-0.248-0.321-0.324-0.519
			c-0.076-0.198-0.113-0.405-0.113-0.621s0.037-0.423,0.113-0.621c0.076-0.198,0.186-0.371,0.328-0.519
			c0.142-0.148,0.312-0.266,0.51-0.354c0.197-0.088,0.418-0.132,0.662-0.132s0.465,0.044,0.664,0.132
			c0.196,0.088,0.367,0.206,0.51,0.354s0.25,0.321,0.326,0.519c0.076,0.198,0.115,0.405,0.115,0.621s-0.039,0.423-0.115,0.621
			c-0.076,0.198-0.185,0.371-0.326,0.519c-0.143,0.148-0.312,0.266-0.51,0.354C40.695,58.205,40.475,58.249,40.23,58.249z
			 M39.295,56.628c0,0.152,0.023,0.292,0.072,0.42s0.113,0.239,0.197,0.333c0.084,0.094,0.184,0.168,0.297,0.222
			c0.115,0.054,0.238,0.081,0.369,0.081c0.133,0,0.256-0.027,0.369-0.081c0.114-0.054,0.213-0.129,0.297-0.225
			c0.084-0.096,0.149-0.208,0.199-0.336c0.047-0.128,0.071-0.268,0.071-0.42c0-0.148-0.024-0.287-0.071-0.417
			c-0.05-0.13-0.115-0.243-0.199-0.339c-0.084-0.096-0.183-0.171-0.297-0.225c-0.113-0.054-0.236-0.081-0.369-0.081
			c-0.127,0-0.248,0.028-0.362,0.084s-0.214,0.132-0.298,0.228c-0.084,0.096-0.15,0.209-0.2,0.339S39.295,56.48,39.295,56.628z"/>
		<path d="M44.197,55.621c-0.256,0.008-0.483,0.067-0.682,0.177c-0.197,0.11-0.339,0.267-0.423,0.471v1.92h-0.659V55.05h0.61v0.702
			c0.108-0.216,0.249-0.389,0.424-0.519s0.36-0.201,0.562-0.213c0.039,0,0.072,0,0.099,0s0.05,0.002,0.069,0.006V55.621z"/>
		<path d="M45.943,58.249c-0.243,0-0.467-0.043-0.666-0.129c-0.2-0.086-0.371-0.203-0.514-0.351s-0.252-0.32-0.33-0.516
			c-0.078-0.196-0.117-0.404-0.117-0.624c0-0.22,0.039-0.429,0.117-0.627c0.078-0.198,0.188-0.372,0.33-0.522
			c0.143-0.15,0.312-0.268,0.514-0.354c0.199-0.086,0.425-0.129,0.673-0.129c0.243,0,0.465,0.044,0.661,0.132
			c0.197,0.088,0.367,0.205,0.509,0.351c0.139,0.146,0.246,0.316,0.319,0.51c0.074,0.194,0.111,0.397,0.111,0.609
			c0,0.048-0.002,0.093-0.006,0.135s-0.008,0.077-0.012,0.105H45.02c0.013,0.14,0.045,0.266,0.1,0.378
			c0.055,0.112,0.125,0.209,0.211,0.291s0.184,0.145,0.293,0.189c0.111,0.044,0.225,0.066,0.346,0.066
			c0.088,0,0.174-0.011,0.26-0.033c0.088-0.022,0.166-0.054,0.238-0.096s0.135-0.093,0.191-0.153c0.056-0.06,0.1-0.126,0.133-0.198
			l0.562,0.162c-0.107,0.236-0.285,0.429-0.535,0.579S46.275,58.249,45.943,58.249z M46.896,56.382
			c-0.012-0.132-0.045-0.254-0.1-0.366c-0.053-0.112-0.123-0.207-0.207-0.285s-0.182-0.139-0.293-0.183
			c-0.113-0.044-0.23-0.066-0.354-0.066c-0.125,0-0.242,0.022-0.353,0.066c-0.108,0.044-0.207,0.105-0.291,0.183
			s-0.151,0.173-0.204,0.285c-0.052,0.112-0.084,0.234-0.097,0.366H46.896z"/>
		<path d="M27.238,65.227c-0.084,0.04-0.2,0.085-0.348,0.135c-0.148,0.05-0.306,0.075-0.474,0.075c-0.104,0-0.202-0.014-0.294-0.042
			c-0.092-0.028-0.173-0.07-0.243-0.126c-0.07-0.056-0.125-0.129-0.165-0.219c-0.04-0.09-0.06-0.199-0.06-0.327v-1.962H25.24v-0.51
			h0.414v-1.032h0.66v1.032h0.684v0.51h-0.684v1.752c0.008,0.112,0.043,0.193,0.105,0.243c0.062,0.05,0.139,0.075,0.231,0.075
			c0.092,0,0.18-0.016,0.264-0.048c0.084-0.032,0.146-0.058,0.186-0.078L27.238,65.227z"/>
		<path d="M30.508,65.389h-0.66v-1.758c0-0.288-0.051-0.501-0.153-0.639c-0.102-0.138-0.249-0.207-0.441-0.207
			c-0.092,0-0.184,0.018-0.276,0.054s-0.179,0.087-0.261,0.153c-0.082,0.066-0.155,0.144-0.219,0.234
			c-0.064,0.09-0.112,0.189-0.144,0.297v1.866h-0.66v-4.38h0.66v1.872c0.12-0.216,0.283-0.384,0.489-0.504
			c0.206-0.12,0.431-0.18,0.675-0.18c0.196,0,0.357,0.035,0.483,0.104c0.126,0.07,0.227,0.163,0.303,0.279
			c0.076,0.116,0.129,0.251,0.159,0.405c0.03,0.154,0.045,0.317,0.045,0.489V65.389z"/>
		<path d="M32.698,65.449c-0.244,0-0.466-0.043-0.666-0.129c-0.2-0.086-0.371-0.203-0.513-0.351c-0.142-0.148-0.252-0.32-0.33-0.516
			c-0.078-0.196-0.117-0.404-0.117-0.624c0-0.22,0.039-0.429,0.117-0.627c0.078-0.198,0.188-0.372,0.33-0.522
			s0.313-0.268,0.513-0.354c0.2-0.086,0.424-0.129,0.672-0.129c0.244,0,0.465,0.044,0.663,0.132
			c0.198,0.088,0.367,0.205,0.507,0.351s0.247,0.316,0.321,0.51c0.074,0.194,0.111,0.397,0.111,0.609
			c0,0.048-0.002,0.093-0.006,0.135c-0.004,0.042-0.008,0.077-0.012,0.105h-2.514c0.012,0.14,0.045,0.266,0.099,0.378
			c0.054,0.112,0.124,0.209,0.21,0.291s0.184,0.145,0.294,0.189s0.225,0.066,0.345,0.066c0.088,0,0.175-0.011,0.261-0.033
			s0.165-0.054,0.237-0.096c0.072-0.042,0.136-0.093,0.192-0.153c0.056-0.06,0.1-0.126,0.132-0.198l0.564,0.162
			c-0.108,0.236-0.287,0.429-0.537,0.579S33.03,65.449,32.698,65.449z M33.652,63.583c-0.012-0.132-0.045-0.254-0.099-0.366
			c-0.054-0.112-0.123-0.207-0.207-0.285c-0.084-0.078-0.182-0.139-0.294-0.183c-0.112-0.044-0.23-0.066-0.354-0.066
			c-0.124,0-0.241,0.022-0.351,0.066c-0.11,0.044-0.207,0.105-0.291,0.183c-0.084,0.078-0.152,0.173-0.204,0.285
			c-0.052,0.112-0.084,0.234-0.096,0.366H33.652z"/>
		<path d="M37.605,65.449c-0.211,0-0.407-0.043-0.588-0.129c-0.18-0.086-0.336-0.203-0.468-0.351
			c-0.132-0.148-0.235-0.321-0.309-0.519c-0.074-0.198-0.111-0.411-0.111-0.639c0-0.22,0.035-0.427,0.105-0.621
			c0.07-0.194,0.168-0.365,0.294-0.513c0.125-0.148,0.273-0.265,0.443-0.351s0.357-0.129,0.562-0.129
			c0.252,0,0.474,0.061,0.666,0.183s0.342,0.277,0.45,0.465v-1.836h0.66v3.6c0,0.076,0.013,0.13,0.039,0.162
			c0.024,0.032,0.071,0.05,0.141,0.054v0.564c-0.068,0.012-0.123,0.02-0.165,0.024s-0.077,0.006-0.104,0.006
			c-0.133,0-0.24-0.034-0.324-0.102s-0.131-0.156-0.139-0.264l-0.012-0.234c-0.116,0.196-0.273,0.35-0.475,0.462
			C38.072,65.393,37.85,65.449,37.605,65.449z M37.768,64.885c0.096,0,0.192-0.016,0.289-0.048c0.096-0.032,0.184-0.076,0.264-0.132
			c0.08-0.056,0.147-0.122,0.207-0.198c0.058-0.076,0.099-0.158,0.123-0.246v-0.822c-0.037-0.1-0.088-0.192-0.153-0.276
			s-0.142-0.156-0.226-0.216c-0.084-0.06-0.172-0.106-0.267-0.138c-0.094-0.032-0.188-0.048-0.284-0.048
			c-0.133,0-0.254,0.03-0.363,0.09c-0.11,0.06-0.205,0.14-0.285,0.24c-0.08,0.1-0.143,0.214-0.189,0.342
			c-0.046,0.128-0.068,0.26-0.068,0.396c0,0.144,0.024,0.28,0.074,0.408c0.051,0.128,0.119,0.24,0.207,0.336
			c0.088,0.096,0.189,0.172,0.303,0.228C37.514,64.857,37.637,64.885,37.768,64.885z"/>
		<path d="M40.984,65.449c-0.152,0-0.293-0.025-0.424-0.075s-0.242-0.119-0.336-0.207c-0.095-0.088-0.168-0.192-0.223-0.312
			c-0.054-0.12-0.081-0.25-0.081-0.39c0-0.148,0.032-0.282,0.097-0.402c0.063-0.12,0.154-0.224,0.272-0.312
			c0.117-0.088,0.258-0.156,0.42-0.204c0.162-0.048,0.341-0.072,0.537-0.072c0.147,0,0.294,0.013,0.438,0.039
			s0.273,0.061,0.391,0.105v-0.216c0-0.232-0.066-0.413-0.198-0.543c-0.132-0.13-0.321-0.195-0.569-0.195
			c-0.168,0-0.334,0.031-0.496,0.093s-0.328,0.151-0.5,0.267l-0.205-0.42c0.404-0.272,0.824-0.408,1.261-0.408
			c0.433,0,0.769,0.11,1.009,0.33c0.239,0.22,0.359,0.536,0.359,0.948v1.134c0,0.14,0.059,0.212,0.175,0.216v0.564
			c-0.063,0.012-0.119,0.02-0.165,0.024s-0.092,0.006-0.137,0.006c-0.127,0-0.227-0.032-0.297-0.096
			c-0.069-0.064-0.112-0.146-0.129-0.246l-0.018-0.198c-0.141,0.184-0.312,0.325-0.52,0.423
			C41.441,65.399,41.221,65.449,40.984,65.449z M41.164,64.963c0.16,0,0.311-0.029,0.453-0.087c0.142-0.058,0.252-0.139,0.332-0.243
			c0.084-0.072,0.127-0.148,0.127-0.228v-0.414c-0.112-0.044-0.23-0.078-0.357-0.102c-0.126-0.024-0.248-0.036-0.369-0.036
			c-0.236,0-0.429,0.051-0.578,0.153s-0.226,0.237-0.226,0.405c0,0.156,0.058,0.287,0.175,0.393
			C40.836,64.91,40.984,64.963,41.164,64.963z"/>
		<path d="M45.255,65.227c-0.084,0.04-0.198,0.085-0.348,0.135c-0.147,0.05-0.306,0.075-0.474,0.075
			c-0.104,0-0.201-0.014-0.295-0.042c-0.092-0.028-0.173-0.07-0.242-0.126c-0.07-0.056-0.125-0.129-0.164-0.219
			c-0.041-0.09-0.062-0.199-0.062-0.327v-1.962h-0.414v-0.51h0.414v-1.032h0.66v1.032h0.685v0.51h-0.685v1.752
			c0.008,0.112,0.043,0.193,0.104,0.243c0.062,0.05,0.14,0.075,0.23,0.075s0.18-0.016,0.264-0.048
			c0.084-0.032,0.146-0.058,0.188-0.078L45.255,65.227z"/>
		<path d="M46.546,65.449c-0.151,0-0.294-0.025-0.424-0.075s-0.242-0.119-0.336-0.207c-0.095-0.088-0.168-0.192-0.222-0.312
			c-0.055-0.12-0.082-0.25-0.082-0.39c0-0.148,0.033-0.282,0.097-0.402s0.155-0.224,0.272-0.312c0.119-0.088,0.258-0.156,0.42-0.204
			c0.162-0.048,0.342-0.072,0.537-0.072c0.147,0,0.295,0.013,0.438,0.039c0.146,0.026,0.274,0.061,0.392,0.105v-0.216
			c0-0.232-0.066-0.413-0.199-0.543c-0.131-0.13-0.321-0.195-0.569-0.195c-0.168,0-0.333,0.031-0.495,0.093
			c-0.161,0.062-0.329,0.151-0.501,0.267l-0.204-0.42c0.404-0.272,0.824-0.408,1.262-0.408c0.432,0,0.768,0.11,1.008,0.33
			c0.24,0.22,0.359,0.536,0.359,0.948v1.134c0,0.14,0.059,0.212,0.174,0.216v0.564c-0.063,0.012-0.119,0.02-0.164,0.024
			c-0.047,0.004-0.092,0.006-0.136,0.006c-0.129,0-0.228-0.032-0.298-0.096c-0.068-0.064-0.111-0.146-0.129-0.246l-0.018-0.198
			c-0.142,0.184-0.313,0.325-0.521,0.423C47.002,65.399,46.781,65.449,46.546,65.449z M46.727,64.963
			c0.16,0,0.311-0.029,0.453-0.087c0.141-0.058,0.252-0.139,0.332-0.243c0.084-0.072,0.127-0.148,0.127-0.228v-0.414
			c-0.113-0.044-0.231-0.078-0.357-0.102c-0.127-0.024-0.249-0.036-0.369-0.036c-0.235,0-0.43,0.051-0.579,0.153
			s-0.226,0.237-0.226,0.405c0,0.156,0.059,0.287,0.175,0.393S46.546,64.963,46.727,64.963z"/>
	</g>
	<g>
		<g>
			
				<line fill="none" stroke="#00BFFF" stroke-linecap="round" stroke-miterlimit="10" x1="36.898" y1="45.739" x2="36.898" y2="50.254"/>
			<g>
				<polygon fill="#00BFFF" points="35.046,48.85 36.898,49.636 38.75,48.85 36.898,53.239 				"/>
			</g>
		</g>
	</g>
</g>
<g id="Layer_2">
	<path fill="#FBC15E" d="M64.725,37.195c0,4.931-2.806,8.929-8.519,8.929H17.589c-5.712,0-8.518-3.998-8.518-8.929v-0.892
		c0-4.931,2.806-8.929,8.518-8.929h38.617c5.713,0,8.519,3.998,8.519,8.929V37.195z"/>
	<g>
		<path d="M16.492,34.91v-4.26h1.512c0.344,0,0.645,0.056,0.903,0.168c0.258,0.112,0.474,0.264,0.648,0.456
			c0.174,0.192,0.305,0.417,0.393,0.675c0.088,0.258,0.132,0.533,0.132,0.825c0,0.324-0.049,0.617-0.147,0.879
			c-0.098,0.262-0.237,0.486-0.417,0.672c-0.18,0.186-0.398,0.33-0.654,0.432c-0.256,0.102-0.542,0.153-0.858,0.153H16.492z
			 M19.396,32.774c0-0.224-0.031-0.43-0.093-0.618c-0.062-0.188-0.153-0.349-0.273-0.483c-0.12-0.134-0.266-0.239-0.438-0.315
			c-0.172-0.076-0.368-0.114-0.588-0.114h-0.84v3.072h0.84c0.224,0,0.423-0.039,0.597-0.117c0.174-0.078,0.32-0.186,0.438-0.324
			s0.207-0.301,0.267-0.489C19.366,33.198,19.396,32.994,19.396,32.774z"/>
		<path d="M22.126,34.97c-0.244,0-0.466-0.043-0.666-0.129s-0.371-0.203-0.513-0.351c-0.142-0.148-0.252-0.32-0.33-0.516
			C20.539,33.778,20.5,33.57,20.5,33.35c0-0.22,0.039-0.429,0.117-0.627c0.078-0.198,0.188-0.372,0.33-0.522
			c0.142-0.15,0.313-0.268,0.513-0.354c0.2-0.086,0.424-0.129,0.672-0.129c0.244,0,0.465,0.044,0.663,0.132
			c0.198,0.088,0.367,0.205,0.507,0.351c0.14,0.146,0.247,0.316,0.321,0.51c0.074,0.194,0.111,0.397,0.111,0.609
			c0,0.048-0.002,0.093-0.006,0.135s-0.008,0.077-0.012,0.105h-2.514c0.012,0.14,0.045,0.266,0.099,0.378
			c0.054,0.112,0.124,0.209,0.21,0.291c0.086,0.082,0.184,0.145,0.294,0.189c0.11,0.044,0.225,0.066,0.345,0.066
			c0.088,0,0.175-0.011,0.261-0.033s0.165-0.054,0.237-0.096c0.072-0.042,0.136-0.093,0.192-0.153c0.056-0.06,0.1-0.126,0.132-0.198
			l0.564,0.162c-0.108,0.236-0.287,0.429-0.537,0.579C22.749,34.895,22.458,34.97,22.126,34.97z M23.08,33.104
			c-0.012-0.132-0.045-0.254-0.099-0.366c-0.054-0.112-0.123-0.207-0.207-0.285s-0.182-0.139-0.294-0.183s-0.23-0.066-0.354-0.066
			s-0.241,0.022-0.351,0.066s-0.207,0.105-0.291,0.183s-0.152,0.173-0.204,0.285c-0.052,0.112-0.084,0.234-0.096,0.366H23.08z"/>
		<path d="M25.414,34.97c-0.252,0-0.503-0.041-0.753-0.123s-0.465-0.199-0.645-0.351l0.264-0.42
			c0.188,0.136,0.374,0.239,0.558,0.309c0.184,0.07,0.372,0.105,0.564,0.105c0.196,0,0.351-0.038,0.465-0.114
			c0.114-0.076,0.171-0.184,0.171-0.324c0-0.132-0.064-0.228-0.192-0.288c-0.128-0.06-0.328-0.126-0.6-0.198
			c-0.196-0.052-0.364-0.102-0.504-0.15c-0.14-0.048-0.254-0.104-0.342-0.168s-0.152-0.138-0.192-0.222s-0.06-0.186-0.06-0.306
			c0-0.16,0.031-0.302,0.093-0.426s0.148-0.229,0.258-0.315s0.239-0.151,0.387-0.195c0.148-0.044,0.308-0.066,0.48-0.066
			c0.236,0,0.456,0.036,0.66,0.108c0.204,0.072,0.386,0.176,0.546,0.312l-0.282,0.396c-0.292-0.232-0.602-0.348-0.93-0.348
			c-0.168,0-0.309,0.035-0.423,0.105c-0.114,0.07-0.171,0.181-0.171,0.333c0,0.064,0.012,0.118,0.036,0.162
			c0.024,0.044,0.063,0.082,0.117,0.114c0.054,0.032,0.124,0.061,0.21,0.087c0.086,0.026,0.193,0.055,0.321,0.087
			c0.212,0.052,0.395,0.104,0.549,0.156s0.281,0.113,0.381,0.183c0.1,0.07,0.174,0.152,0.222,0.246
			c0.048,0.094,0.072,0.207,0.072,0.339c0,0.3-0.113,0.537-0.339,0.711S25.802,34.97,25.414,34.97z"/>
		<path d="M27.25,31.256V30.53h0.66v0.726H27.25z M27.25,34.91v-3.138h0.66v3.138H27.25z"/>
		<path d="M29.944,34.94c-0.212,0-0.406-0.042-0.582-0.129c-0.176-0.086-0.327-0.203-0.453-0.351s-0.224-0.318-0.294-0.51
			c-0.07-0.192-0.105-0.394-0.105-0.606c0-0.224,0.036-0.435,0.108-0.633c0.072-0.198,0.172-0.37,0.3-0.516s0.281-0.262,0.459-0.348
			c0.178-0.086,0.375-0.129,0.591-0.129c0.252,0,0.473,0.06,0.663,0.18s0.347,0.276,0.471,0.468v-0.594h0.582v3.048
			c0,0.228-0.042,0.43-0.126,0.606c-0.084,0.176-0.201,0.325-0.351,0.447s-0.327,0.215-0.531,0.279
			c-0.204,0.064-0.424,0.096-0.66,0.096c-0.348,0-0.637-0.059-0.867-0.177c-0.23-0.118-0.423-0.283-0.579-0.495l0.372-0.348
			c0.12,0.168,0.275,0.296,0.465,0.384c0.19,0.088,0.393,0.132,0.609,0.132c0.136,0,0.265-0.018,0.387-0.054
			s0.229-0.092,0.321-0.168c0.092-0.076,0.165-0.172,0.219-0.288c0.054-0.116,0.081-0.254,0.081-0.414v-0.48
			c-0.112,0.192-0.266,0.34-0.462,0.444S30.16,34.94,29.944,34.94z M30.16,34.406c0.1,0,0.196-0.017,0.288-0.051
			c0.092-0.034,0.177-0.08,0.255-0.138c0.078-0.058,0.145-0.124,0.201-0.198c0.056-0.074,0.096-0.153,0.12-0.237V32.96
			c-0.04-0.1-0.092-0.191-0.156-0.273s-0.137-0.153-0.219-0.213s-0.169-0.107-0.261-0.141c-0.092-0.034-0.184-0.051-0.276-0.051
			c-0.144,0-0.273,0.031-0.387,0.093c-0.114,0.062-0.211,0.144-0.291,0.246s-0.142,0.217-0.186,0.345s-0.066,0.26-0.066,0.396
			c0,0.144,0.025,0.279,0.075,0.405c0.05,0.126,0.119,0.236,0.207,0.33c0.088,0.094,0.191,0.169,0.309,0.225
			C29.891,34.378,30.02,34.406,30.16,34.406z"/>
		<path d="M35.29,34.91h-0.66v-1.758c0-0.296-0.047-0.511-0.141-0.645c-0.094-0.134-0.233-0.201-0.417-0.201
			c-0.096,0-0.192,0.018-0.288,0.054c-0.096,0.036-0.186,0.087-0.27,0.153s-0.159,0.144-0.225,0.234s-0.117,0.189-0.153,0.297v1.866
			h-0.66v-3.138h0.6v0.63c0.12-0.212,0.294-0.379,0.522-0.501s0.48-0.183,0.756-0.183c0.188,0,0.342,0.034,0.462,0.102
			c0.12,0.068,0.215,0.161,0.285,0.279c0.07,0.118,0.119,0.254,0.147,0.408c0.028,0.154,0.042,0.317,0.042,0.489V34.91z"/>
		<path d="M38.374,34.97c-0.151,0-0.293-0.025-0.423-0.075c-0.131-0.05-0.242-0.119-0.336-0.207s-0.168-0.192-0.223-0.312
			c-0.054-0.12-0.08-0.25-0.08-0.39c0-0.148,0.031-0.282,0.096-0.402s0.154-0.224,0.273-0.312c0.117-0.088,0.258-0.156,0.42-0.204
			c0.162-0.048,0.34-0.072,0.537-0.072c0.147,0,0.293,0.013,0.438,0.039c0.146,0.026,0.272,0.061,0.39,0.105v-0.216
			c0-0.232-0.064-0.413-0.197-0.543c-0.131-0.13-0.322-0.195-0.569-0.195c-0.168,0-0.333,0.031-0.495,0.093
			s-0.329,0.151-0.501,0.267l-0.204-0.42c0.404-0.272,0.824-0.408,1.26-0.408c0.432,0,0.768,0.11,1.008,0.33
			c0.24,0.22,0.36,0.536,0.36,0.948v1.134c0,0.14,0.058,0.212,0.174,0.216v0.564c-0.063,0.012-0.118,0.02-0.165,0.024
			C40.089,34.938,40.044,34.94,40,34.94c-0.128,0-0.227-0.032-0.297-0.096c-0.07-0.063-0.113-0.146-0.129-0.246L39.557,34.4
			c-0.141,0.184-0.312,0.325-0.52,0.423C38.831,34.921,38.609,34.97,38.374,34.97z M38.555,34.484c0.159,0,0.312-0.029,0.452-0.087
			c0.142-0.058,0.253-0.139,0.333-0.243c0.084-0.072,0.126-0.148,0.126-0.228v-0.414c-0.112-0.044-0.231-0.078-0.356-0.102
			c-0.127-0.024-0.25-0.036-0.368-0.036c-0.236,0-0.431,0.051-0.579,0.153c-0.15,0.102-0.225,0.237-0.225,0.405
			c0,0.156,0.058,0.287,0.174,0.393C38.227,34.431,38.374,34.484,38.555,34.484z"/>
		<path d="M43.546,34.97c-0.252,0-0.503-0.041-0.753-0.123s-0.465-0.199-0.645-0.351l0.264-0.42
			c0.188,0.136,0.373,0.239,0.559,0.309c0.184,0.07,0.371,0.105,0.562,0.105c0.195,0,0.352-0.038,0.465-0.114
			c0.115-0.076,0.172-0.184,0.172-0.324c0-0.132-0.064-0.228-0.191-0.288c-0.129-0.06-0.328-0.126-0.601-0.198
			c-0.196-0.052-0.364-0.102-0.505-0.15c-0.139-0.048-0.254-0.104-0.342-0.168s-0.151-0.138-0.191-0.222s-0.061-0.186-0.061-0.306
			c0-0.16,0.031-0.302,0.094-0.426s0.146-0.229,0.258-0.315c0.109-0.086,0.238-0.151,0.387-0.195c0.149-0.044,0.31-0.066,0.48-0.066
			c0.236,0,0.455,0.036,0.66,0.108c0.203,0.072,0.386,0.176,0.546,0.312l-0.282,0.396c-0.292-0.232-0.602-0.348-0.93-0.348
			c-0.168,0-0.311,0.035-0.424,0.105s-0.17,0.181-0.17,0.333c0,0.064,0.012,0.118,0.035,0.162s0.062,0.082,0.116,0.114
			c0.056,0.032,0.124,0.061,0.21,0.087c0.086,0.026,0.192,0.055,0.321,0.087c0.212,0.052,0.396,0.104,0.549,0.156
			c0.154,0.052,0.281,0.113,0.382,0.183c0.1,0.07,0.174,0.152,0.221,0.246c0.05,0.094,0.072,0.207,0.072,0.339
			c0,0.3-0.113,0.537-0.339,0.711S43.934,34.97,43.546,34.97z"/>
		<path d="M47.127,34.748c-0.084,0.04-0.199,0.085-0.348,0.135c-0.148,0.05-0.307,0.075-0.475,0.075
			c-0.104,0-0.201-0.014-0.293-0.042c-0.094-0.028-0.175-0.07-0.244-0.126s-0.125-0.129-0.164-0.219
			c-0.041-0.09-0.062-0.199-0.062-0.327v-1.962h-0.414v-0.51h0.414V30.74h0.66v1.032h0.685v0.51h-0.685v1.752
			c0.008,0.112,0.043,0.193,0.104,0.243c0.062,0.05,0.139,0.075,0.23,0.075c0.091,0,0.181-0.016,0.265-0.048
			c0.085-0.032,0.146-0.058,0.187-0.078L47.127,34.748z"/>
		<path d="M48.55,34.97c-0.327,0-0.575-0.107-0.743-0.321s-0.252-0.533-0.252-0.957v-1.92h0.659v1.788
			c0,0.564,0.199,0.846,0.601,0.846c0.188,0,0.365-0.058,0.533-0.174c0.168-0.116,0.299-0.284,0.391-0.504v-1.956h0.66v2.358
			c0,0.076,0.013,0.13,0.039,0.162c0.025,0.032,0.072,0.05,0.141,0.054v0.564c-0.066,0.012-0.124,0.02-0.168,0.024
			s-0.086,0.006-0.126,0.006c-0.12,0-0.222-0.033-0.306-0.099c-0.084-0.066-0.129-0.151-0.133-0.255l-0.012-0.312
			c-0.141,0.228-0.322,0.401-0.547,0.519S48.816,34.97,48.55,34.97z"/>
		<path d="M52.516,34.97c-0.211,0-0.408-0.043-0.588-0.129s-0.336-0.203-0.468-0.351c-0.132-0.148-0.235-0.321-0.31-0.519
			c-0.073-0.198-0.11-0.411-0.11-0.639c0-0.22,0.035-0.427,0.104-0.621c0.069-0.194,0.168-0.365,0.293-0.513
			c0.127-0.148,0.274-0.265,0.444-0.351c0.17-0.086,0.356-0.129,0.562-0.129c0.252,0,0.475,0.061,0.666,0.183
			s0.343,0.277,0.449,0.465V30.53h0.66v3.6c0,0.076,0.014,0.13,0.039,0.162c0.026,0.032,0.073,0.05,0.141,0.054v0.564
			c-0.066,0.012-0.123,0.02-0.164,0.024c-0.043,0.004-0.076,0.006-0.104,0.006c-0.132,0-0.239-0.034-0.323-0.102
			c-0.084-0.068-0.131-0.156-0.139-0.264l-0.012-0.234c-0.116,0.196-0.274,0.35-0.475,0.462C52.98,34.914,52.76,34.97,52.516,34.97z
			 M52.678,34.406c0.096,0,0.192-0.016,0.288-0.048c0.097-0.032,0.185-0.076,0.265-0.132s0.148-0.122,0.207-0.198
			c0.059-0.076,0.1-0.158,0.123-0.246V32.96c-0.037-0.1-0.088-0.192-0.152-0.276c-0.066-0.084-0.143-0.156-0.227-0.216
			c-0.084-0.06-0.173-0.106-0.267-0.138c-0.095-0.032-0.188-0.048-0.285-0.048c-0.132,0-0.253,0.03-0.362,0.09
			c-0.11,0.06-0.205,0.14-0.285,0.24c-0.08,0.1-0.144,0.214-0.188,0.342s-0.069,0.26-0.069,0.396c0,0.144,0.025,0.28,0.075,0.408
			s0.119,0.24,0.207,0.336c0.089,0.096,0.188,0.172,0.304,0.229C52.425,34.378,52.546,34.406,52.678,34.406z"/>
		<path d="M55.168,35.648c0.061,0.012,0.119,0.022,0.178,0.03c0.059,0.008,0.104,0.012,0.141,0.012c0.053,0,0.098-0.011,0.136-0.033
			c0.038-0.022,0.077-0.061,0.116-0.117c0.041-0.056,0.082-0.135,0.123-0.237c0.043-0.102,0.092-0.233,0.146-0.393l-1.29-3.138
			h0.679l0.973,2.556l0.863-2.556h0.625l-1.424,3.864c-0.062,0.18-0.175,0.331-0.332,0.453c-0.158,0.122-0.36,0.183-0.608,0.183
			c-0.048,0-0.099-0.003-0.15-0.009c-0.051-0.006-0.108-0.019-0.174-0.039L55.168,35.648L55.168,35.648z"/>
		<path d="M15.031,42.17c-0.152,0-0.293-0.025-0.423-0.075c-0.13-0.05-0.242-0.119-0.336-0.207
			c-0.094-0.088-0.168-0.192-0.222-0.312c-0.054-0.12-0.081-0.25-0.081-0.39c0-0.148,0.032-0.282,0.096-0.402
			c0.064-0.12,0.155-0.224,0.273-0.312c0.118-0.088,0.258-0.156,0.42-0.204c0.162-0.048,0.341-0.072,0.537-0.072
			c0.148,0,0.294,0.013,0.438,0.039s0.274,0.061,0.39,0.105v-0.216c0-0.232-0.066-0.413-0.198-0.543
			c-0.132-0.13-0.322-0.195-0.57-0.195c-0.168,0-0.333,0.031-0.495,0.093c-0.162,0.062-0.329,0.151-0.501,0.267l-0.204-0.42
			c0.404-0.272,0.824-0.408,1.26-0.408c0.432,0,0.768,0.11,1.008,0.33c0.24,0.22,0.36,0.536,0.36,0.948v1.134
			c0,0.14,0.058,0.212,0.174,0.216v0.564c-0.064,0.012-0.119,0.02-0.165,0.024c-0.046,0.004-0.091,0.006-0.135,0.006
			c-0.128,0-0.227-0.032-0.297-0.096c-0.07-0.064-0.113-0.146-0.129-0.246L16.213,41.6c-0.14,0.184-0.313,0.325-0.519,0.423
			S15.267,42.17,15.031,42.17z M15.211,41.685c0.16,0,0.311-0.029,0.453-0.087s0.253-0.139,0.333-0.243
			c0.084-0.072,0.126-0.148,0.126-0.228v-0.414c-0.112-0.044-0.231-0.078-0.357-0.102s-0.249-0.036-0.369-0.036
			c-0.236,0-0.429,0.051-0.579,0.153s-0.225,0.237-0.225,0.405c0,0.156,0.058,0.287,0.174,0.393
			C14.883,41.631,15.031,41.685,15.211,41.685z"/>
		<path d="M20.395,42.11h-0.66v-1.758c0-0.296-0.047-0.511-0.141-0.645c-0.094-0.134-0.233-0.201-0.417-0.201
			c-0.096,0-0.192,0.018-0.288,0.054c-0.096,0.036-0.186,0.087-0.27,0.153s-0.159,0.144-0.225,0.234
			c-0.066,0.09-0.117,0.188-0.153,0.297v1.866h-0.66v-3.138h0.6v0.63c0.12-0.212,0.294-0.379,0.522-0.501s0.48-0.183,0.756-0.183
			c0.188,0,0.342,0.034,0.462,0.102s0.215,0.161,0.285,0.279c0.07,0.118,0.119,0.254,0.147,0.408
			c0.028,0.154,0.042,0.317,0.042,0.489V42.11z"/>
		<path d="M22.441,42.17c-0.212,0-0.408-0.043-0.588-0.129s-0.336-0.203-0.468-0.351c-0.132-0.148-0.235-0.321-0.309-0.519
			c-0.074-0.198-0.111-0.411-0.111-0.639c0-0.22,0.035-0.427,0.105-0.621c0.07-0.194,0.168-0.365,0.294-0.513
			c0.126-0.148,0.274-0.265,0.444-0.351s0.357-0.129,0.561-0.129c0.252,0,0.474,0.061,0.666,0.183
			c0.192,0.122,0.342,0.277,0.45,0.465V37.73h0.66v3.6c0,0.076,0.013,0.13,0.039,0.162c0.026,0.032,0.073,0.05,0.141,0.054v0.564
			c-0.068,0.012-0.123,0.02-0.165,0.024c-0.042,0.004-0.077,0.006-0.105,0.006c-0.132,0-0.24-0.034-0.324-0.102
			c-0.084-0.068-0.13-0.156-0.138-0.264l-0.012-0.234c-0.116,0.196-0.274,0.35-0.474,0.462C22.907,42.114,22.685,42.17,22.441,42.17
			z M22.603,41.606c0.096,0,0.192-0.016,0.288-0.048c0.096-0.032,0.184-0.076,0.264-0.132c0.08-0.056,0.149-0.122,0.207-0.198
			c0.058-0.076,0.099-0.158,0.123-0.246V40.16c-0.036-0.1-0.087-0.192-0.153-0.276s-0.141-0.156-0.225-0.216
			s-0.173-0.106-0.267-0.138c-0.094-0.032-0.189-0.048-0.285-0.048c-0.132,0-0.253,0.03-0.363,0.09
			c-0.11,0.06-0.205,0.14-0.285,0.24c-0.08,0.1-0.143,0.214-0.189,0.342c-0.046,0.128-0.069,0.26-0.069,0.396
			c0,0.144,0.025,0.28,0.075,0.408c0.05,0.128,0.119,0.24,0.207,0.336c0.088,0.096,0.189,0.172,0.303,0.228
			C22.348,41.579,22.471,41.606,22.603,41.606z"/>
		<path d="M26.263,40.539c0-0.22,0.038-0.428,0.114-0.624c0.076-0.196,0.185-0.368,0.327-0.516s0.313-0.265,0.513-0.351
			c0.2-0.086,0.424-0.129,0.672-0.129c0.324,0,0.603,0.071,0.837,0.213c0.234,0.142,0.409,0.331,0.525,0.567l-0.642,0.204
			c-0.076-0.132-0.178-0.235-0.306-0.309c-0.128-0.074-0.27-0.111-0.426-0.111c-0.132,0-0.255,0.026-0.369,0.078
			c-0.114,0.052-0.213,0.125-0.297,0.219c-0.084,0.094-0.15,0.205-0.198,0.333c-0.048,0.128-0.072,0.27-0.072,0.426
			c0,0.152,0.025,0.293,0.075,0.423c0.05,0.13,0.118,0.243,0.204,0.339c0.086,0.096,0.186,0.171,0.3,0.225
			c0.114,0.054,0.235,0.081,0.363,0.081c0.08,0,0.16-0.011,0.24-0.033c0.08-0.022,0.153-0.053,0.219-0.093
			c0.066-0.04,0.124-0.086,0.174-0.138c0.05-0.052,0.087-0.108,0.111-0.168l0.648,0.192c-0.104,0.236-0.278,0.429-0.522,0.579
			c-0.244,0.15-0.532,0.225-0.864,0.225c-0.244,0-0.466-0.044-0.666-0.132c-0.2-0.088-0.371-0.207-0.513-0.357
			s-0.252-0.323-0.33-0.519C26.302,40.966,26.263,40.758,26.263,40.539z"/>
		<path d="M31.201,42.17c-0.248,0-0.471-0.044-0.669-0.132c-0.198-0.088-0.367-0.206-0.507-0.354s-0.248-0.321-0.324-0.519
			c-0.076-0.198-0.114-0.405-0.114-0.621s0.038-0.423,0.114-0.621c0.076-0.198,0.185-0.371,0.327-0.519
			c0.142-0.148,0.312-0.266,0.51-0.354c0.198-0.088,0.419-0.132,0.663-0.132c0.244,0,0.465,0.044,0.663,0.132
			c0.198,0.088,0.368,0.206,0.51,0.354s0.251,0.321,0.327,0.519c0.076,0.198,0.114,0.405,0.114,0.621s-0.038,0.423-0.114,0.621
			c-0.076,0.198-0.185,0.371-0.327,0.519s-0.312,0.266-0.51,0.354C31.666,42.126,31.445,42.17,31.201,42.17z M30.265,40.55
			c0,0.152,0.024,0.292,0.072,0.42c0.048,0.128,0.114,0.239,0.198,0.333c0.084,0.094,0.183,0.168,0.297,0.222
			c0.114,0.054,0.237,0.081,0.369,0.081c0.132,0,0.255-0.027,0.369-0.081c0.114-0.054,0.213-0.129,0.297-0.225
			c0.084-0.096,0.15-0.208,0.198-0.336s0.072-0.268,0.072-0.42c0-0.148-0.024-0.287-0.072-0.417s-0.114-0.243-0.198-0.339
			c-0.084-0.096-0.183-0.171-0.297-0.225c-0.114-0.054-0.237-0.081-0.369-0.081c-0.128,0-0.249,0.028-0.363,0.084
			c-0.114,0.056-0.213,0.132-0.297,0.228c-0.084,0.096-0.151,0.209-0.201,0.339C30.29,40.263,30.265,40.402,30.265,40.55z"/>
		<path d="M33.409,37.73h0.66v3.474c0,0.116,0.03,0.207,0.09,0.273s0.144,0.099,0.252,0.099c0.044,0,0.095-0.008,0.153-0.024
			c0.058-0.016,0.113-0.034,0.165-0.054l0.096,0.516c-0.096,0.044-0.21,0.079-0.342,0.105c-0.132,0.026-0.25,0.039-0.354,0.039
			c-0.228,0-0.405-0.062-0.531-0.186s-0.189-0.3-0.189-0.528V37.73z"/>
		<path d="M35.215,37.73h0.66v3.474c0,0.116,0.03,0.207,0.09,0.273s0.144,0.099,0.252,0.099c0.044,0,0.095-0.008,0.153-0.024
			c0.058-0.016,0.113-0.034,0.165-0.054l0.096,0.516c-0.096,0.044-0.21,0.079-0.342,0.105c-0.132,0.026-0.25,0.039-0.354,0.039
			c-0.228,0-0.405-0.062-0.531-0.186s-0.189-0.3-0.189-0.528V37.73z"/>
		<path d="M38.438,42.17c-0.244,0-0.465-0.043-0.666-0.129s-0.371-0.203-0.514-0.351c-0.142-0.148-0.252-0.32-0.33-0.516
			c-0.078-0.196-0.117-0.404-0.117-0.624c0-0.22,0.039-0.429,0.117-0.627c0.078-0.198,0.188-0.372,0.33-0.522
			c0.143-0.15,0.312-0.268,0.514-0.354c0.199-0.086,0.424-0.129,0.672-0.129c0.244,0,0.465,0.044,0.662,0.132
			c0.199,0.088,0.367,0.205,0.508,0.351c0.14,0.146,0.246,0.316,0.32,0.51c0.073,0.194,0.11,0.397,0.11,0.609
			c0,0.048-0.002,0.093-0.006,0.135c-0.004,0.042-0.009,0.077-0.013,0.105h-2.514c0.012,0.14,0.045,0.266,0.1,0.378
			c0.054,0.112,0.123,0.209,0.209,0.291c0.087,0.082,0.185,0.145,0.295,0.189c0.109,0.044,0.226,0.066,0.345,0.066
			c0.088,0,0.177-0.011,0.263-0.033s0.164-0.054,0.235-0.096s0.138-0.093,0.192-0.153s0.1-0.126,0.132-0.198l0.563,0.162
			c-0.107,0.236-0.287,0.429-0.537,0.579S38.77,42.17,38.438,42.17z M39.391,40.304c-0.012-0.132-0.045-0.254-0.099-0.366
			s-0.123-0.207-0.207-0.285c-0.084-0.078-0.183-0.139-0.294-0.183c-0.111-0.044-0.23-0.066-0.354-0.066
			c-0.125,0-0.242,0.022-0.353,0.066c-0.11,0.044-0.207,0.105-0.291,0.183c-0.084,0.078-0.151,0.173-0.204,0.285
			c-0.052,0.112-0.084,0.234-0.096,0.366H39.391z"/>
		<path d="M40.381,40.539c0-0.22,0.038-0.428,0.114-0.624c0.075-0.196,0.185-0.368,0.327-0.516c0.142-0.148,0.312-0.265,0.513-0.351
			s0.424-0.129,0.672-0.129c0.324,0,0.603,0.071,0.837,0.213c0.234,0.142,0.409,0.331,0.525,0.567l-0.643,0.204
			c-0.076-0.132-0.179-0.235-0.307-0.309c-0.128-0.074-0.271-0.111-0.426-0.111c-0.133,0-0.256,0.026-0.369,0.078
			c-0.113,0.052-0.213,0.125-0.297,0.219c-0.084,0.094-0.148,0.205-0.198,0.333c-0.048,0.128-0.071,0.27-0.071,0.426
			c0,0.152,0.024,0.293,0.074,0.423c0.051,0.13,0.118,0.243,0.204,0.339c0.086,0.096,0.187,0.171,0.302,0.225
			c0.112,0.054,0.233,0.081,0.361,0.081c0.08,0,0.16-0.011,0.238-0.033c0.08-0.022,0.154-0.053,0.221-0.093s0.124-0.086,0.174-0.138
			c0.051-0.052,0.088-0.108,0.111-0.168l0.646,0.192c-0.104,0.236-0.277,0.429-0.521,0.579c-0.244,0.15-0.532,0.225-0.864,0.225
			c-0.244,0-0.466-0.044-0.666-0.132c-0.199-0.088-0.371-0.207-0.513-0.357c-0.144-0.15-0.252-0.323-0.33-0.519
			C40.42,40.966,40.381,40.758,40.381,40.539z"/>
		<path d="M45.686,41.948c-0.084,0.04-0.199,0.085-0.349,0.135c-0.147,0.05-0.308,0.075-0.476,0.075c-0.104,0-0.2-0.014-0.293-0.042
			c-0.092-0.028-0.172-0.07-0.242-0.126c-0.07-0.056-0.125-0.129-0.165-0.219s-0.06-0.199-0.06-0.327v-1.962h-0.414v-0.51h0.414
			V37.94h0.658v1.032h0.684v0.51H44.76v1.752c0.008,0.112,0.043,0.193,0.105,0.243c0.062,0.05,0.139,0.075,0.23,0.075
			c0.09,0,0.18-0.016,0.264-0.048c0.084-0.032,0.146-0.058,0.187-0.078L45.686,41.948z"/>
		<path d="M48.9,42.17c-0.213,0-0.408-0.043-0.588-0.129c-0.181-0.086-0.336-0.203-0.469-0.351c-0.132-0.148-0.234-0.321-0.31-0.519
			c-0.073-0.198-0.11-0.411-0.11-0.639c0-0.22,0.035-0.427,0.104-0.621c0.07-0.194,0.168-0.365,0.295-0.513
			c0.126-0.148,0.273-0.265,0.443-0.351s0.357-0.129,0.562-0.129c0.252,0,0.475,0.061,0.666,0.183
			c0.192,0.122,0.343,0.277,0.45,0.465V37.73h0.66v3.6c0,0.076,0.013,0.13,0.039,0.162c0.025,0.032,0.072,0.05,0.141,0.054v0.564
			c-0.067,0.012-0.123,0.02-0.165,0.024c-0.042,0.004-0.076,0.006-0.104,0.006c-0.132,0-0.24-0.034-0.324-0.102
			c-0.084-0.068-0.129-0.156-0.138-0.264L50.04,41.54c-0.116,0.196-0.274,0.35-0.476,0.462C49.363,42.114,49.145,42.17,48.9,42.17z
			 M49.062,41.606c0.096,0,0.191-0.016,0.287-0.048c0.096-0.032,0.185-0.076,0.264-0.132c0.08-0.056,0.15-0.122,0.207-0.198
			c0.06-0.076,0.101-0.158,0.123-0.246V40.16c-0.035-0.1-0.086-0.192-0.151-0.276s-0.142-0.156-0.226-0.216
			s-0.174-0.106-0.268-0.138c-0.095-0.032-0.189-0.048-0.285-0.048c-0.132,0-0.252,0.03-0.363,0.09
			c-0.109,0.06-0.205,0.14-0.284,0.24c-0.08,0.1-0.144,0.214-0.188,0.342c-0.045,0.128-0.068,0.26-0.068,0.396
			c0,0.144,0.024,0.28,0.074,0.408c0.051,0.128,0.119,0.24,0.207,0.336c0.088,0.096,0.188,0.172,0.303,0.228
			C48.809,41.578,48.932,41.606,49.062,41.606z"/>
		<path d="M52.279,42.17c-0.152,0-0.295-0.025-0.424-0.075c-0.131-0.05-0.242-0.119-0.336-0.207
			c-0.095-0.088-0.168-0.192-0.223-0.312c-0.054-0.12-0.081-0.25-0.081-0.39c0-0.148,0.032-0.282,0.097-0.402
			c0.063-0.12,0.154-0.224,0.272-0.312c0.118-0.088,0.258-0.156,0.42-0.204c0.162-0.048,0.341-0.072,0.537-0.072
			c0.147,0,0.294,0.013,0.438,0.039s0.273,0.061,0.391,0.105v-0.216c0-0.232-0.066-0.413-0.198-0.543s-0.321-0.195-0.569-0.195
			c-0.168,0-0.334,0.031-0.496,0.093c-0.16,0.062-0.328,0.151-0.5,0.267l-0.205-0.42c0.404-0.272,0.824-0.408,1.262-0.408
			c0.432,0,0.768,0.11,1.008,0.33c0.24,0.22,0.36,0.536,0.36,0.948v1.134c0,0.14,0.058,0.212,0.174,0.216v0.564
			c-0.063,0.012-0.119,0.02-0.165,0.024c-0.046,0.004-0.091,0.006-0.135,0.006c-0.129,0-0.229-0.032-0.299-0.096
			c-0.068-0.064-0.111-0.146-0.129-0.246L53.461,41.6c-0.141,0.184-0.312,0.325-0.52,0.423S52.516,42.17,52.279,42.17z
			 M52.459,41.685c0.16,0,0.311-0.029,0.453-0.087s0.253-0.139,0.333-0.243c0.084-0.072,0.126-0.148,0.126-0.228v-0.414
			c-0.112-0.044-0.23-0.078-0.357-0.102c-0.125-0.024-0.248-0.036-0.369-0.036c-0.234,0-0.429,0.051-0.578,0.153
			s-0.226,0.237-0.226,0.405c0,0.156,0.058,0.287,0.175,0.393C52.131,41.632,52.279,41.685,52.459,41.685z"/>
		<path d="M56.551,41.948c-0.084,0.04-0.199,0.085-0.348,0.135s-0.307,0.075-0.475,0.075c-0.104,0-0.201-0.014-0.293-0.042
			c-0.094-0.028-0.174-0.07-0.244-0.126c-0.069-0.056-0.125-0.129-0.164-0.219c-0.041-0.09-0.062-0.199-0.062-0.327v-1.962h-0.414
			v-0.51h0.414V37.94h0.66v1.032h0.685v0.51h-0.685v1.752c0.008,0.112,0.043,0.193,0.104,0.243c0.062,0.05,0.14,0.075,0.23,0.075
			s0.182-0.016,0.266-0.048c0.084-0.032,0.146-0.058,0.186-0.078L56.551,41.948z"/>
		<path d="M57.842,42.17c-0.152,0-0.294-0.025-0.424-0.075c-0.13-0.05-0.242-0.119-0.336-0.207
			c-0.094-0.088-0.168-0.192-0.223-0.312c-0.053-0.12-0.08-0.25-0.08-0.39c0-0.148,0.031-0.282,0.096-0.402
			c0.064-0.12,0.154-0.224,0.273-0.312c0.117-0.088,0.258-0.156,0.42-0.204c0.162-0.048,0.341-0.072,0.537-0.072
			c0.146,0,0.293,0.013,0.438,0.039s0.273,0.061,0.391,0.105v-0.216c0-0.232-0.065-0.413-0.197-0.543
			c-0.133-0.13-0.322-0.195-0.57-0.195c-0.168,0-0.333,0.031-0.495,0.093c-0.161,0.062-0.329,0.151-0.501,0.267l-0.204-0.42
			c0.404-0.272,0.824-0.408,1.261-0.408c0.433,0,0.769,0.11,1.008,0.33c0.24,0.22,0.361,0.536,0.361,0.948v1.134
			c0,0.14,0.057,0.212,0.174,0.216v0.564c-0.064,0.012-0.119,0.02-0.166,0.024c-0.045,0.004-0.09,0.006-0.135,0.006
			c-0.129,0-0.228-0.032-0.298-0.096c-0.069-0.064-0.112-0.146-0.129-0.246L59.023,41.6c-0.141,0.184-0.312,0.325-0.52,0.423
			C58.298,42.121,58.077,42.17,57.842,42.17z M58.021,41.685c0.16,0,0.311-0.029,0.453-0.087c0.142-0.058,0.252-0.139,0.332-0.243
			c0.084-0.072,0.127-0.148,0.127-0.228v-0.414c-0.113-0.044-0.231-0.078-0.357-0.102s-0.249-0.036-0.369-0.036
			c-0.234,0-0.43,0.051-0.579,0.153s-0.226,0.237-0.226,0.405c0,0.156,0.059,0.287,0.175,0.393S57.842,41.685,58.021,41.685z"/>
	</g>
	<g>
		<g>
			
				<line fill="none" stroke="#00BFFF" stroke-linecap="round" stroke-miterlimit="10" x1="36.898" y1="22.322" x2="36.898" y2="26.837"/>
			<g>
				<polygon fill="#00BFFF" points="35.046,25.433 36.898,26.22 38.75,25.433 36.898,29.822 				"/>
			</g>
		</g>
	</g>
</g>
<g id="Layer_1_1_">
	<path fill="#FBC15E" d="M64.725,13.917c0,4.931-2.806,8.929-8.519,8.929H17.589c-5.712,0-8.518-3.998-8.518-8.929v-0.892
		c0-4.931,2.806-8.929,8.518-8.929h38.617c5.713,0,8.519,3.998,8.519,8.929V13.917z"/>
	<g>
		<path d="M30.318,7.372h0.588l1.68,4.26h-0.708l-0.45-1.158h-1.644l-0.444,1.158h-0.714L30.318,7.372z M31.296,9.976l-0.684-1.83
			l-0.708,1.83H31.296z"/>
		<path d="M34.134,11.691c-0.252,0-0.503-0.041-0.753-0.123s-0.465-0.199-0.645-0.351L33,10.797
			c0.188,0.136,0.374,0.239,0.558,0.309s0.372,0.105,0.564,0.105c0.196,0,0.351-0.038,0.465-0.114
			c0.114-0.076,0.171-0.184,0.171-0.324c0-0.132-0.064-0.228-0.192-0.288s-0.328-0.126-0.6-0.198
			c-0.196-0.052-0.364-0.102-0.504-0.15c-0.14-0.048-0.254-0.104-0.342-0.168c-0.088-0.063-0.152-0.138-0.192-0.222
			c-0.04-0.084-0.06-0.186-0.06-0.306c0-0.16,0.031-0.302,0.093-0.426s0.148-0.229,0.258-0.315c0.11-0.086,0.239-0.151,0.387-0.195
			s0.308-0.066,0.48-0.066c0.236,0,0.456,0.036,0.66,0.108c0.204,0.072,0.386,0.176,0.546,0.312L35.01,9.255
			c-0.292-0.232-0.602-0.348-0.93-0.348c-0.168,0-0.309,0.035-0.423,0.105c-0.114,0.07-0.171,0.181-0.171,0.333
			c0,0.064,0.012,0.118,0.036,0.162s0.063,0.082,0.117,0.114c0.054,0.032,0.124,0.061,0.21,0.087s0.193,0.055,0.321,0.087
			c0.212,0.052,0.395,0.104,0.549,0.156c0.154,0.052,0.281,0.113,0.381,0.183c0.1,0.07,0.174,0.152,0.222,0.246
			c0.048,0.094,0.072,0.207,0.072,0.339c0,0.3-0.113,0.537-0.339,0.711C34.829,11.604,34.522,11.691,34.134,11.691z"/>
		<path d="M38.154,11.631l-1.002-1.446l-0.522,0.492v0.954h-0.66v-4.38h0.66v2.778l1.44-1.53h0.72l-1.218,1.314l1.283,1.818H38.154z
			"/>
		<path d="M41.574,11.691c-0.152,0-0.293-0.025-0.424-0.075c-0.129-0.05-0.241-0.119-0.336-0.207
			c-0.094-0.088-0.168-0.192-0.222-0.312c-0.055-0.12-0.081-0.25-0.081-0.39c0-0.148,0.032-0.282,0.096-0.402
			c0.063-0.12,0.156-0.224,0.272-0.312c0.118-0.088,0.259-0.156,0.42-0.204c0.162-0.048,0.343-0.072,0.537-0.072
			c0.147,0,0.295,0.013,0.438,0.039c0.143,0.026,0.273,0.061,0.39,0.105V9.646c0-0.232-0.065-0.413-0.197-0.543
			c-0.133-0.13-0.321-0.195-0.569-0.195c-0.168,0-0.334,0.031-0.496,0.093c-0.161,0.062-0.328,0.151-0.5,0.267l-0.204-0.42
			c0.403-0.272,0.823-0.408,1.26-0.408c0.433,0,0.769,0.11,1.009,0.33c0.239,0.22,0.359,0.536,0.359,0.948v1.134
			c0,0.14,0.059,0.212,0.174,0.216v0.564c-0.064,0.012-0.119,0.02-0.164,0.024c-0.047,0.004-0.092,0.006-0.136,0.006
			c-0.128,0-0.228-0.032-0.298-0.096c-0.069-0.064-0.112-0.146-0.129-0.246l-0.019-0.198c-0.14,0.184-0.312,0.325-0.519,0.423
			C42.031,11.642,41.811,11.691,41.574,11.691z M41.754,11.206c0.16,0,0.312-0.029,0.453-0.087c0.143-0.058,0.253-0.139,0.333-0.243
			c0.084-0.072,0.126-0.148,0.126-0.228v-0.414c-0.111-0.044-0.23-0.078-0.357-0.102c-0.125-0.024-0.248-0.036-0.367-0.036
			c-0.236,0-0.43,0.051-0.58,0.153c-0.149,0.102-0.225,0.237-0.225,0.405c0,0.156,0.059,0.287,0.174,0.393
			C41.426,11.152,41.574,11.206,41.754,11.206z"/>
		<path d="M13.603,16.264c-0.256,0.008-0.483,0.067-0.681,0.177c-0.198,0.11-0.339,0.267-0.423,0.471v1.92h-0.66v-3.138h0.612v0.702
			c0.108-0.216,0.249-0.389,0.423-0.519s0.361-0.201,0.561-0.213c0.04,0,0.073,0,0.099,0c0.026,0,0.049,0.002,0.069,0.006V16.264z"
			/>
		<path d="M15.349,18.892c-0.244,0-0.466-0.043-0.666-0.129c-0.2-0.086-0.371-0.203-0.513-0.351s-0.252-0.32-0.33-0.516
			c-0.078-0.196-0.117-0.404-0.117-0.624s0.039-0.429,0.117-0.627c0.078-0.198,0.188-0.372,0.33-0.522s0.313-0.268,0.513-0.354
			c0.2-0.086,0.424-0.129,0.672-0.129c0.244,0,0.465,0.044,0.663,0.132c0.198,0.088,0.367,0.205,0.507,0.351s0.247,0.316,0.321,0.51
			c0.074,0.194,0.111,0.397,0.111,0.609c0,0.048-0.002,0.093-0.006,0.135c-0.004,0.042-0.008,0.077-0.012,0.105h-2.514
			c0.012,0.14,0.045,0.266,0.099,0.378c0.054,0.112,0.124,0.209,0.21,0.291s0.184,0.145,0.294,0.189
			c0.11,0.044,0.225,0.066,0.345,0.066c0.088,0,0.175-0.011,0.261-0.033c0.086-0.022,0.165-0.054,0.237-0.096
			c0.072-0.042,0.136-0.093,0.192-0.153s0.1-0.126,0.132-0.198l0.564,0.162c-0.108,0.236-0.287,0.429-0.537,0.579
			S15.681,18.892,15.349,18.892z M16.303,17.025c-0.012-0.132-0.045-0.254-0.099-0.366c-0.054-0.112-0.123-0.207-0.207-0.285
			s-0.182-0.139-0.294-0.183c-0.112-0.044-0.23-0.066-0.354-0.066s-0.241,0.022-0.351,0.066s-0.207,0.105-0.291,0.183
			s-0.152,0.173-0.204,0.285c-0.052,0.112-0.084,0.234-0.096,0.366H16.303z"/>
		<path d="M18.637,18.892c-0.252,0-0.503-0.041-0.753-0.123s-0.465-0.199-0.645-0.351l0.264-0.42
			c0.188,0.136,0.374,0.239,0.558,0.309c0.184,0.07,0.372,0.105,0.564,0.105c0.196,0,0.351-0.038,0.465-0.114
			c0.114-0.076,0.171-0.184,0.171-0.324c0-0.132-0.064-0.228-0.192-0.288s-0.328-0.126-0.6-0.198
			c-0.196-0.052-0.364-0.102-0.504-0.15c-0.14-0.048-0.254-0.104-0.342-0.168s-0.152-0.138-0.192-0.222s-0.06-0.186-0.06-0.306
			c0-0.16,0.031-0.302,0.093-0.426s0.148-0.229,0.258-0.315c0.11-0.086,0.239-0.151,0.387-0.195s0.308-0.066,0.48-0.066
			c0.236,0,0.456,0.036,0.66,0.108c0.204,0.072,0.386,0.176,0.546,0.312l-0.282,0.396c-0.292-0.232-0.602-0.348-0.93-0.348
			c-0.168,0-0.309,0.035-0.423,0.105c-0.114,0.07-0.171,0.181-0.171,0.333c0,0.064,0.012,0.118,0.036,0.162s0.063,0.082,0.117,0.114
			c0.054,0.032,0.124,0.061,0.21,0.087c0.086,0.026,0.193,0.055,0.321,0.087c0.212,0.052,0.395,0.104,0.549,0.156
			c0.154,0.052,0.281,0.113,0.381,0.183c0.1,0.07,0.174,0.152,0.222,0.246c0.048,0.094,0.072,0.207,0.072,0.339
			c0,0.3-0.113,0.537-0.339,0.711C19.332,18.805,19.025,18.892,18.637,18.892z"/>
		<path d="M21.895,18.892c-0.244,0-0.466-0.043-0.666-0.129c-0.2-0.086-0.371-0.203-0.513-0.351c-0.142-0.148-0.252-0.32-0.33-0.516
			c-0.078-0.196-0.117-0.404-0.117-0.624s0.039-0.429,0.117-0.627c0.078-0.198,0.188-0.372,0.33-0.522
			c0.142-0.15,0.313-0.268,0.513-0.354s0.424-0.129,0.672-0.129c0.244,0,0.465,0.044,0.663,0.132
			c0.198,0.088,0.367,0.205,0.507,0.351c0.14,0.146,0.247,0.316,0.321,0.51c0.074,0.194,0.111,0.397,0.111,0.609
			c0,0.048-0.002,0.093-0.006,0.135s-0.008,0.077-0.012,0.105h-2.514c0.012,0.14,0.045,0.266,0.099,0.378
			c0.054,0.112,0.124,0.209,0.21,0.291c0.086,0.082,0.184,0.145,0.294,0.189c0.11,0.044,0.225,0.066,0.345,0.066
			c0.088,0,0.175-0.011,0.261-0.033s0.165-0.054,0.237-0.096s0.136-0.093,0.192-0.153c0.056-0.06,0.1-0.126,0.132-0.198l0.564,0.162
			c-0.108,0.236-0.287,0.429-0.537,0.579S22.227,18.892,21.895,18.892z M22.849,17.025c-0.012-0.132-0.045-0.254-0.099-0.366
			c-0.054-0.112-0.123-0.207-0.207-0.285s-0.182-0.139-0.294-0.183s-0.23-0.066-0.354-0.066s-0.241,0.022-0.351,0.066
			s-0.207,0.105-0.291,0.183s-0.152,0.173-0.204,0.285c-0.052,0.112-0.084,0.234-0.096,0.366H22.849z"/>
		<path d="M24.877,18.892c-0.152,0-0.293-0.025-0.423-0.075c-0.13-0.05-0.242-0.119-0.336-0.207
			c-0.094-0.088-0.168-0.192-0.222-0.312s-0.081-0.25-0.081-0.39c0-0.148,0.032-0.282,0.096-0.402s0.155-0.224,0.273-0.312
			c0.118-0.088,0.258-0.156,0.42-0.204c0.162-0.048,0.341-0.072,0.537-0.072c0.148,0,0.294,0.013,0.438,0.039
			s0.274,0.061,0.39,0.105v-0.216c0-0.232-0.066-0.413-0.198-0.543c-0.132-0.13-0.322-0.195-0.57-0.195
			c-0.168,0-0.333,0.031-0.495,0.093s-0.329,0.151-0.501,0.267l-0.204-0.42c0.404-0.272,0.824-0.408,1.26-0.408
			c0.432,0,0.768,0.11,1.008,0.33c0.24,0.22,0.36,0.536,0.36,0.948v1.134c0,0.14,0.058,0.212,0.174,0.216v0.564
			c-0.064,0.012-0.119,0.02-0.165,0.024c-0.046,0.004-0.091,0.006-0.135,0.006c-0.128,0-0.227-0.032-0.297-0.096
			s-0.113-0.146-0.129-0.246l-0.018-0.198c-0.14,0.184-0.313,0.325-0.519,0.423C25.334,18.842,25.113,18.892,24.877,18.892z
			 M25.057,18.406c0.16,0,0.311-0.029,0.453-0.087c0.142-0.058,0.253-0.139,0.333-0.243c0.084-0.072,0.126-0.148,0.126-0.228v-0.414
			c-0.112-0.044-0.231-0.078-0.357-0.102s-0.249-0.036-0.369-0.036c-0.236,0-0.429,0.051-0.579,0.153
			c-0.15,0.102-0.225,0.237-0.225,0.405c0,0.156,0.058,0.287,0.174,0.393C24.729,18.353,24.877,18.406,25.057,18.406z"/>
		<path d="M29.191,16.264c-0.256,0.008-0.483,0.067-0.681,0.177c-0.198,0.11-0.339,0.267-0.423,0.471v1.92h-0.66v-3.138h0.612v0.702
			c0.108-0.216,0.249-0.389,0.423-0.519c0.174-0.13,0.361-0.201,0.561-0.213c0.04,0,0.073,0,0.099,0s0.049,0.002,0.069,0.006V16.264
			z"/>
		<path d="M29.311,17.26c0-0.22,0.038-0.428,0.114-0.624c0.076-0.196,0.185-0.368,0.327-0.516s0.313-0.265,0.513-0.351
			c0.2-0.086,0.424-0.129,0.672-0.129c0.324,0,0.603,0.071,0.837,0.213s0.409,0.331,0.525,0.567l-0.642,0.204
			c-0.076-0.132-0.178-0.235-0.306-0.309c-0.128-0.074-0.27-0.111-0.426-0.111c-0.132,0-0.255,0.026-0.369,0.078
			c-0.114,0.052-0.213,0.125-0.297,0.219s-0.15,0.205-0.198,0.333s-0.072,0.27-0.072,0.426c0,0.152,0.025,0.293,0.075,0.423
			c0.05,0.13,0.118,0.243,0.204,0.339s0.186,0.171,0.3,0.225c0.114,0.054,0.235,0.081,0.363,0.081c0.08,0,0.16-0.011,0.24-0.033
			s0.153-0.053,0.219-0.093s0.124-0.086,0.174-0.138c0.05-0.052,0.087-0.108,0.111-0.168l0.648,0.192
			c-0.104,0.236-0.278,0.429-0.522,0.579c-0.244,0.15-0.532,0.225-0.864,0.225c-0.244,0-0.466-0.044-0.666-0.132
			c-0.2-0.088-0.371-0.207-0.513-0.357c-0.142-0.15-0.252-0.323-0.33-0.519C29.35,17.688,29.311,17.479,29.311,17.26z"/>
		<path d="M35.683,18.832h-0.66v-1.758c0-0.288-0.051-0.501-0.153-0.639s-0.249-0.207-0.441-0.207c-0.092,0-0.184,0.018-0.276,0.054
			c-0.092,0.036-0.179,0.087-0.261,0.153s-0.155,0.144-0.219,0.234s-0.112,0.189-0.144,0.297v1.866h-0.66v-4.38h0.66v1.872
			c0.12-0.216,0.283-0.384,0.489-0.504c0.206-0.12,0.431-0.18,0.675-0.18c0.196,0,0.357,0.035,0.483,0.105
			c0.126,0.07,0.227,0.163,0.303,0.279c0.076,0.116,0.129,0.251,0.159,0.405c0.03,0.154,0.045,0.317,0.045,0.489V18.832z"/>
		<path d="M39.127,18.892c-0.204,0-0.393-0.044-0.562-0.132c-0.17-0.088-0.314-0.206-0.438-0.354
			c-0.122-0.148-0.216-0.321-0.284-0.519c-0.067-0.198-0.102-0.407-0.102-0.627c0-0.224,0.036-0.434,0.11-0.63
			c0.074-0.196,0.178-0.368,0.31-0.516c0.133-0.148,0.289-0.264,0.469-0.348c0.181-0.084,0.375-0.126,0.588-0.126
			c0.24,0,0.456,0.058,0.648,0.174c0.19,0.116,0.346,0.266,0.461,0.45v-0.57h0.582V19.3c0,0.076,0.016,0.129,0.045,0.159
			c0.03,0.03,0.08,0.049,0.147,0.057v0.564c-0.061,0.008-0.121,0.014-0.184,0.018c-0.062,0.004-0.119,0.006-0.172,0.006
			c-0.137,0-0.252-0.046-0.352-0.138c-0.099-0.092-0.146-0.206-0.146-0.342v-1.38c-0.127,0.216-0.287,0.378-0.477,0.486
			C39.581,18.838,39.367,18.892,39.127,18.892z M39.367,18.328c0.199,0,0.373-0.057,0.52-0.171c0.146-0.114,0.266-0.257,0.361-0.429
			V16.9c-0.02-0.096-0.061-0.186-0.119-0.27c-0.061-0.084-0.131-0.157-0.213-0.219s-0.172-0.112-0.268-0.15
			c-0.097-0.038-0.189-0.057-0.281-0.057c-0.141,0-0.27,0.03-0.385,0.09s-0.217,0.14-0.301,0.24c-0.084,0.1-0.148,0.215-0.197,0.345
			s-0.072,0.263-0.072,0.399c0,0.144,0.023,0.28,0.072,0.408s0.113,0.239,0.197,0.333c0.084,0.094,0.186,0.169,0.301,0.225
			C39.1,18.3,39.227,18.328,39.367,18.328z"/>
		<path d="M42.666,18.892c-0.327,0-0.575-0.107-0.743-0.321c-0.168-0.214-0.252-0.533-0.252-0.957v-1.92h0.659v1.788
			c0,0.564,0.201,0.846,0.602,0.846c0.188,0,0.365-0.058,0.533-0.174c0.168-0.116,0.299-0.284,0.391-0.504v-1.956h0.66v2.358
			c0,0.076,0.012,0.13,0.039,0.162c0.025,0.032,0.072,0.05,0.141,0.054v0.564c-0.067,0.012-0.125,0.02-0.168,0.024
			c-0.045,0.004-0.086,0.006-0.127,0.006c-0.118,0-0.221-0.033-0.305-0.099s-0.129-0.151-0.133-0.255l-0.012-0.312
			c-0.141,0.228-0.322,0.401-0.547,0.519C43.182,18.833,42.936,18.892,42.666,18.892z"/>
		<path d="M46.777,18.892c-0.244,0-0.467-0.043-0.666-0.129c-0.199-0.086-0.371-0.203-0.514-0.351
			c-0.142-0.148-0.252-0.32-0.33-0.516c-0.076-0.196-0.115-0.404-0.115-0.624s0.039-0.429,0.115-0.627
			c0.078-0.198,0.188-0.372,0.33-0.522c0.143-0.15,0.313-0.268,0.514-0.354c0.199-0.086,0.424-0.129,0.672-0.129
			c0.244,0,0.465,0.044,0.664,0.132c0.197,0.088,0.365,0.205,0.506,0.351s0.248,0.316,0.322,0.51
			c0.072,0.194,0.108,0.397,0.108,0.609c0,0.048-0.002,0.093-0.006,0.135s-0.008,0.077-0.012,0.105h-2.515
			c0.012,0.14,0.045,0.266,0.101,0.378c0.053,0.112,0.123,0.209,0.209,0.291s0.185,0.145,0.295,0.189
			c0.108,0.044,0.226,0.066,0.344,0.066c0.089,0,0.177-0.011,0.263-0.033s0.164-0.054,0.235-0.096
			c0.072-0.042,0.138-0.093,0.193-0.153c0.055-0.06,0.1-0.126,0.131-0.198l0.563,0.162c-0.106,0.236-0.287,0.429-0.537,0.579
			S47.109,18.892,46.777,18.892z M47.732,17.025c-0.015-0.132-0.047-0.254-0.101-0.366c-0.055-0.112-0.123-0.207-0.207-0.285
			s-0.182-0.139-0.295-0.183c-0.11-0.044-0.229-0.066-0.354-0.066c-0.123,0-0.239,0.022-0.352,0.066
			c-0.109,0.044-0.207,0.105-0.291,0.183s-0.15,0.173-0.203,0.285c-0.053,0.112-0.084,0.234-0.096,0.366H47.732z"/>
		<path d="M50.066,18.892c-0.252,0-0.504-0.041-0.754-0.123s-0.465-0.199-0.646-0.351l0.265-0.42
			c0.188,0.136,0.375,0.239,0.559,0.309c0.184,0.07,0.371,0.105,0.564,0.105c0.194,0,0.35-0.038,0.465-0.114
			c0.112-0.076,0.17-0.184,0.17-0.324c0-0.132-0.064-0.228-0.191-0.288c-0.129-0.06-0.328-0.126-0.6-0.198
			c-0.197-0.052-0.365-0.102-0.504-0.15c-0.142-0.048-0.254-0.104-0.343-0.168c-0.09-0.064-0.151-0.138-0.192-0.222
			c-0.039-0.084-0.062-0.186-0.062-0.306c0-0.16,0.031-0.302,0.095-0.426c0.062-0.124,0.147-0.229,0.258-0.315
			c0.111-0.086,0.24-0.151,0.387-0.195c0.148-0.044,0.309-0.066,0.48-0.066c0.235,0,0.457,0.036,0.659,0.108
			c0.203,0.072,0.388,0.176,0.548,0.312l-0.283,0.396c-0.291-0.232-0.603-0.348-0.93-0.348c-0.169,0-0.31,0.035-0.425,0.105
			c-0.112,0.07-0.17,0.181-0.17,0.333c0,0.064,0.013,0.118,0.035,0.162c0.024,0.044,0.063,0.082,0.116,0.114
			c0.056,0.032,0.125,0.061,0.211,0.087c0.087,0.026,0.193,0.055,0.32,0.087c0.213,0.052,0.396,0.104,0.549,0.156
			c0.154,0.052,0.281,0.113,0.381,0.183c0.101,0.07,0.175,0.152,0.224,0.246c0.049,0.094,0.072,0.207,0.072,0.339
			c0,0.3-0.113,0.537-0.341,0.711C50.762,18.805,50.453,18.892,50.066,18.892z"/>
		<path d="M53.646,18.669c-0.084,0.04-0.199,0.085-0.349,0.135c-0.147,0.05-0.305,0.075-0.473,0.075
			c-0.104,0-0.203-0.014-0.296-0.042c-0.092-0.028-0.174-0.07-0.241-0.126c-0.07-0.056-0.125-0.129-0.166-0.219
			c-0.039-0.09-0.062-0.199-0.062-0.327v-1.962h-0.414v-0.51h0.414v-1.032h0.66v1.032h0.687v0.51h-0.687v1.752
			c0.008,0.112,0.043,0.193,0.105,0.243c0.062,0.05,0.139,0.075,0.23,0.075c0.09,0,0.182-0.016,0.266-0.048
			c0.084-0.032,0.145-0.058,0.186-0.078L53.646,18.669z"/>
		<path d="M54.104,15.178v-0.726h0.66v0.726H54.104z M54.104,18.832v-3.138h0.66v3.138H54.104z"/>
		<path d="M56.965,18.892c-0.248,0-0.471-0.044-0.668-0.132c-0.197-0.088-0.367-0.206-0.508-0.354
			c-0.139-0.148-0.248-0.321-0.324-0.519c-0.076-0.198-0.113-0.405-0.113-0.621c0-0.216,0.037-0.423,0.113-0.621
			s0.186-0.371,0.328-0.519s0.312-0.266,0.51-0.354c0.198-0.088,0.418-0.132,0.662-0.132s0.467,0.044,0.664,0.132
			s0.367,0.206,0.51,0.354c0.144,0.148,0.25,0.321,0.326,0.519s0.115,0.405,0.115,0.621c0,0.216-0.039,0.423-0.115,0.621
			c-0.076,0.198-0.184,0.371-0.326,0.519c-0.142,0.148-0.312,0.266-0.51,0.354C57.432,18.848,57.209,18.892,56.965,18.892z
			 M56.029,17.271c0,0.152,0.022,0.292,0.072,0.42c0.049,0.128,0.112,0.239,0.196,0.333c0.084,0.094,0.185,0.168,0.298,0.222
			c0.114,0.054,0.237,0.081,0.368,0.081c0.134,0,0.257-0.027,0.369-0.081c0.115-0.054,0.213-0.129,0.297-0.225
			s0.149-0.208,0.199-0.336c0.047-0.128,0.071-0.268,0.071-0.42c0-0.148-0.024-0.287-0.071-0.417
			c-0.05-0.13-0.115-0.243-0.199-0.339c-0.084-0.096-0.182-0.171-0.297-0.225c-0.112-0.054-0.235-0.081-0.369-0.081
			c-0.127,0-0.248,0.028-0.36,0.084c-0.115,0.056-0.213,0.132-0.297,0.228c-0.086,0.096-0.152,0.209-0.201,0.339
			C56.055,16.984,56.029,17.124,56.029,17.271z"/>
		<path d="M61.982,18.832h-0.66v-1.758c0-0.296-0.047-0.511-0.141-0.645c-0.095-0.134-0.234-0.201-0.418-0.201
			c-0.097,0-0.191,0.018-0.287,0.054c-0.097,0.036-0.188,0.087-0.271,0.153s-0.158,0.144-0.225,0.234
			c-0.067,0.09-0.117,0.189-0.152,0.297v1.866h-0.66v-3.138h0.6v0.63c0.121-0.212,0.295-0.379,0.521-0.501
			c0.229-0.122,0.48-0.183,0.758-0.183c0.188,0,0.342,0.034,0.461,0.102c0.121,0.068,0.215,0.161,0.285,0.279
			s0.119,0.254,0.146,0.408c0.028,0.154,0.043,0.317,0.043,0.489V18.832z"/>
	</g>
</g>
</svg>
