<?xml version="1.0" encoding="utf-8"?>
<!-- Generator: Adobe Illustrator 16.0.4, SVG Export Plug-In . SVG Version: 6.00 Build 0)  -->
<!DOCTYPE svg PUBLIC "-//W3C//DTD SVG 1.1//EN" "http://www.w3.org/Graphics/SVG/1.1/DTD/svg11.dtd">
<svg version="1.1" id="Layer_1" xmlns="http://www.w3.org/2000/svg" xmlns:xlink="http://www.w3.org/1999/xlink" x="0px" y="0px"
	 width="396.85px" height="716.872px" viewBox="0 -86.128 396.85 716.872" enable-background="new 0 -86.128 396.85 716.872"
	 xml:space="preserve">
<g id="layer1">
	<text transform="matrix(1 0 0 1 299.8652 160.5332)" fill="#B4B4B4" font-family="'MyriadPro-It'" font-size="18">Repeat</text>
	<text transform="matrix(1 0 0 1 309.0537 182.1328)" fill="#B4B4B4" font-family="'MyriadPro-It'" font-size="18">a lot</text>
	<g>
		<g>
			<g>
				<path fill="none" stroke="#000000" stroke-width="3" stroke-linecap="round" stroke-linejoin="round" d="M71.311,244.322
					c0,14.971,3.891,15.805,15.841,15.805c5.177,0,18.414,0,26.387,0c11.006,0,14.317,2.255,15.237,12.574"/>
				<g>
					<polygon points="129.102,283.293 122.437,268.613 128.666,271.919 134.623,268.146 					"/>
				</g>
			</g>
		</g>
		<g>
			<g>
				<path fill="none" stroke="#000000" stroke-width="3" stroke-linecap="round" stroke-linejoin="round" d="M201.41,244.322
					c0,14.971-3.892,15.805-15.839,15.805c-5.178,0-18.414,0-26.387,0c-11.005,0-14.317,2.255-15.237,12.574"/>
				<g>
					<polygon points="143.621,283.293 138.099,268.146 144.057,271.919 150.285,268.613 					"/>
				</g>
			</g>
		</g>
	</g>
	<g>
		<g>
			
				<polyline fill="none" stroke="#B4B4B4" stroke-width="3" stroke-linecap="round" stroke-linejoin="round" stroke-dasharray="5,6" points="
				324.966,141.21 324.966,48.787 299.558,48.787 			"/>
			<g>
				<polygon fill="#B4B4B4" points="288.966,48.787 303.89,42.688 300.349,48.787 303.89,54.883 				"/>
			</g>
		</g>
	</g>
	
		<polyline fill="none" stroke="#B4B4B4" stroke-width="3" stroke-linecap="round" stroke-linejoin="round" stroke-miterlimit="10" stroke-dasharray="5,6" points="
		226.966,321.79 324.966,321.79 324.966,193.21 	"/>
	<g>
		<g>
			
				<rect x="6.316" y="10.306" fill="none" stroke="#000000" stroke-width="2" stroke-linecap="round" stroke-linejoin="round" stroke-miterlimit="10" stroke-dasharray="5,6" width="125.412" height="241.438"/>
			<g>
				<g>
					<path fill="#FB7FC0" stroke="#000000" stroke-linecap="round" stroke-linejoin="round" stroke-miterlimit="10" d="
						M128.022,58.493c0,15.655-12.689,28.347-28.346,28.347H38.369c-15.655,0-28.347-12.691-28.347-28.347V49.08
						c0-15.655,12.691-28.347,28.347-28.347h61.308c15.656,0,28.346,12.691,28.346,28.347L128.022,58.493L128.022,58.493z"/>
					<text transform="matrix(1 0 0 1 37.6846 48.2686)" fill="#FFFFFF" font-family="'MyriadPro-Semibold'" font-size="18">Original</text>
					<text transform="matrix(1 0 0 1 34.1562 69.8691)" fill="#FFFFFF" font-family="'MyriadPro-Semibold'" font-size="18">sample 1</text>
				</g>
				<g>
					<path fill="#FB7FC0" stroke="#000000" stroke-linecap="round" stroke-linejoin="round" stroke-miterlimit="10" d="
						M128.022,212.559c0,15.655-12.689,28.347-28.346,28.347H38.369c-15.655,0-28.347-12.691-28.347-28.347v-9.413
						c0-15.655,12.691-28.347,28.347-28.347h61.308c15.656,0,28.346,12.691,28.346,28.347L128.022,212.559L128.022,212.559z"/>
					<text transform="matrix(1 0 0 1 30.8486 202.334)" fill="#FFFFFF" font-family="'MyriadPro-Semibold'" font-size="18">Bootstrap</text>
					<text transform="matrix(1 0 0 1 34.1562 223.9346)" fill="#FFFFFF" font-family="'MyriadPro-Semibold'" font-size="18">sample 1</text>
				</g>
				<g>
					<text transform="matrix(1 0 0 1 37.9346 124.8379)" font-family="'MyriadPro-It'" font-size="16">Resample</text>
					<text transform="matrix(1 0 0 1 33.0625 139.8379)" font-family="'MyriadPro-It'" font-size="16">(Bootstrap)</text>
					<g>
						<g>
							
								<line fill="none" stroke="#000000" stroke-width="3" stroke-linecap="round" stroke-linejoin="round" x1="69.022" y1="143.744" x2="69.022" y2="162.208"/>
							<g>
								<polygon points="69.022,172.799 62.924,157.875 69.022,161.416 75.119,157.875 								"/>
							</g>
						</g>
					</g>
					
						<line fill="none" stroke="#000000" stroke-width="3" stroke-linecap="round" stroke-linejoin="round" stroke-miterlimit="10" x1="69.022" y1="89.999" x2="69.022" y2="112.744"/>
				</g>
			</g>
		</g>
		<g>
			
				<rect x="140.993" y="10.306" fill="none" stroke="#000000" stroke-width="2" stroke-linecap="round" stroke-linejoin="round" stroke-miterlimit="10" stroke-dasharray="5,6" width="125.413" height="241.438"/>
			<g>
				<g>
					<path fill="#FB7FC0" stroke="#000000" stroke-linecap="round" stroke-linejoin="round" stroke-miterlimit="10" d="
						M262.699,58.493c0,15.655-12.691,28.347-28.347,28.347h-61.307c-15.657,0-28.348-12.691-28.348-28.347V49.08
						c0-15.655,12.691-28.347,28.348-28.347h61.307c15.653,0,28.347,12.691,28.347,28.347V58.493z"/>
					<text transform="matrix(1 0 0 1 172.3618 48.2686)" fill="#FFFFFF" font-family="'MyriadPro-Semibold'" font-size="18">Original</text>
					<text transform="matrix(1 0 0 1 168.834 69.8691)" fill="#FFFFFF" font-family="'MyriadPro-Semibold'" font-size="18">sample 2</text>
				</g>
				<g>
					<path fill="#FB7FC0" stroke="#000000" stroke-linecap="round" stroke-linejoin="round" stroke-miterlimit="10" d="
						M262.699,212.559c0,15.655-12.691,28.347-28.347,28.347h-61.307c-15.657,0-28.348-12.691-28.348-28.347v-9.413
						c0-15.655,12.691-28.347,28.348-28.347h61.307c15.653,0,28.347,12.691,28.347,28.347V212.559z"/>
					<text transform="matrix(1 0 0 1 165.5269 202.334)" fill="#FFFFFF" font-family="'MyriadPro-Semibold'" font-size="18">Bootstrap</text>
					<text transform="matrix(1 0 0 1 168.834 223.9346)" fill="#FFFFFF" font-family="'MyriadPro-Semibold'" font-size="18">sample 2</text>
				</g>
				<g>
					<text transform="matrix(1 0 0 1 172.6113 126.6494)" font-family="'MyriadPro-It'" font-size="16">Resample</text>
					<text transform="matrix(1 0 0 1 167.7393 141.6494)" font-family="'MyriadPro-It'" font-size="16">(Bootstrap)</text>
					<g>
						<g>
							
								<line fill="none" stroke="#000000" stroke-width="3" stroke-linecap="round" stroke-linejoin="round" x1="203.699" y1="145.556" x2="203.699" y2="164.02"/>
							<g>
								<polygon points="203.699,174.61 197.601,159.687 203.699,163.228 209.796,159.687 								"/>
							</g>
						</g>
					</g>
					
						<line fill="none" stroke="#000000" stroke-width="3" stroke-linecap="round" stroke-linejoin="round" stroke-miterlimit="10" x1="203.699" y1="91.81" x2="203.699" y2="114.556"/>
				</g>
			</g>
		</g>
	</g>
</g>
<g id="layer2">
	<g>
		<g>
			<g>
				<path fill="#FB7FC0" stroke="#000000" stroke-linecap="round" stroke-linejoin="round" stroke-miterlimit="10" d="
					M127.984,58.493c0,15.655-12.69,28.347-28.346,28.347H38.331c-15.656,0-28.348-12.69-28.348-28.347V49.08
					c0-15.654,12.691-28.347,28.348-28.347h61.307c15.655,0,28.346,12.69,28.346,28.347V58.493z"/>
				<text transform="matrix(1 0 0 1 26.3242 48.2705)" fill="#FFFFFF" font-family="'MyriadPro-Semibold'" font-size="18">Recentered</text>
				<text transform="matrix(1 0 0 1 34.1182 69.8691)" fill="#FFFFFF" font-family="'MyriadPro-Semibold'" font-size="18">sample 1</text>
			</g>
			<g>
				<path fill="#FB7FC0" stroke="#000000" stroke-linecap="round" stroke-linejoin="round" stroke-miterlimit="10" d="
					M260.731,58.493c0,15.655-12.691,28.347-28.346,28.347h-61.312c-15.656,0-28.348-12.69-28.348-28.347V49.08
					c0.006-15.654,12.697-28.347,28.354-28.347h61.307c15.653,0,28.352,12.69,28.352,28.347L260.731,58.493L260.731,58.493z"/>
				<text transform="matrix(1 0 0 1 159.0723 48.2705)" fill="#FFFFFF" font-family="'MyriadPro-Semibold'" font-size="18">Recentered</text>
				<text transform="matrix(1 0 0 1 166.8662 69.8691)" fill="#FFFFFF" font-family="'MyriadPro-Semibold'" font-size="18">sample 2</text>
			</g>
		</g>
		<g>
			<g>
				<path fill="#FB7FC0" stroke="#000000" stroke-linecap="round" stroke-linejoin="round" stroke-miterlimit="10" d="
					M127.984-38.507c0,15.655-12.69,28.347-28.346,28.347H38.331c-15.656,0-28.348-12.691-28.348-28.347v-9.413
					c0-15.655,12.691-28.347,28.348-28.347h61.307c15.655,0,28.346,12.691,28.346,28.347V-38.507z"/>
				<text transform="matrix(1 0 0 1 37.6465 -48.7295)" fill="#FFFFFF" font-family="'MyriadPro-Semibold'" font-size="18">Original</text>
				<text transform="matrix(1 0 0 1 34.1182 -27.1299)" fill="#FFFFFF" font-family="'MyriadPro-Semibold'" font-size="18">sample 1</text>
			</g>
			<g>
				<path fill="#FB7FC0" stroke="#000000" stroke-linecap="round" stroke-linejoin="round" stroke-miterlimit="10" d="
					M260.731-38.507c0,15.655-12.691,28.347-28.346,28.347h-61.312c-15.656,0-28.348-12.691-28.348-28.347v-9.413
					c0.006-15.655,12.697-28.347,28.354-28.347h61.307c15.653,0,28.346,12.691,28.346,28.347V-38.507z"/>
				<text transform="matrix(1 0 0 1 170.3945 -48.7295)" fill="#FFFFFF" font-family="'MyriadPro-Semibold'" font-size="18">Original</text>
				<text transform="matrix(1 0 0 1 166.8667 -27.1299)" fill="#FFFFFF" font-family="'MyriadPro-Semibold'" font-size="18">sample 2</text>
			</g>
		</g>
		<g>
			<g>
				<g>
					<path d="M68.923-6.916c0,0,0.113,1.696,0.283,4.241c0.078,1.272,0.168,2.756,0.265,4.347c0.08,1.59,0.165,3.286,0.249,4.982
						c0.164,3.393,0.309,6.785,0.492,9.329c0.093,1.272,0.121,2.333,0.122,3.075c-0.004,0.742-0.015,1.166-0.015,1.166
						c-0.021,0.854-0.731,1.529-1.585,1.507c-0.827-0.021-1.485-0.69-1.507-1.507c0,0-0.011-0.424-0.015-1.166
						c0.001-0.742,0.029-1.803,0.122-3.075c0.183-2.544,0.329-5.937,0.492-9.329c0.084-1.696,0.169-3.393,0.249-4.982
						c0.097-1.59,0.188-3.075,0.265-4.347c0.17-2.544,0.283-4.241,0.283-4.241c0.005-0.083,0.077-0.146,0.16-0.14
						C68.859-7.05,68.918-6.99,68.923-6.916z"/>
					<g>
						<polygon points="68.773,30.815 62.675,15.892 68.773,19.434 74.869,15.892 						"/>
					</g>
				</g>
			</g>
			<g>
				<g>
					<path d="M200.581-6.916c0,0,0.113,1.696,0.283,4.241c0.077,1.272,0.168,2.756,0.266,4.347c0.08,1.59,0.164,3.286,0.248,4.982
						c0.163,3.393,0.312,6.785,0.492,9.329c0.094,1.272,0.12,2.333,0.122,3.075c-0.004,0.742-0.015,1.166-0.015,1.166
						c-0.021,0.854-0.731,1.529-1.586,1.507c-0.826-0.021-1.485-0.69-1.508-1.507c0,0-0.018-0.424-0.021-1.166
						c0.002-0.742,0.025-1.803,0.122-3.075c0.188-2.544,0.329-5.937,0.491-9.329c0.086-1.696,0.17-3.393,0.246-4.982
						c0.101-1.59,0.188-3.075,0.269-4.347c0.17-2.544,0.283-4.241,0.283-4.241c0.006-0.083,0.073-0.146,0.157-0.14
						S200.576-6.99,200.581-6.916z"/>
					<g>
						<polygon points="200.431,30.815 194.333,15.892 200.431,19.434 206.527,15.892 						"/>
					</g>
				</g>
			</g>
		</g>
	</g>
</g>
<g>
	
		<rect x="60.327" y="291.621" fill="#00BFFF" stroke="#000000" stroke-linecap="round" stroke-linejoin="round" stroke-miterlimit="10" width="158" height="67.17"/>
	<text transform="matrix(1 0 0 1 69.3691 314.3555)" font-family="'MyriadPro-Semibold'" font-size="18">Calculate statistic </text>
	<text transform="matrix(1 0 0 1 99.5005 335.9551)" font-family="'MyriadPro-Semibold'" font-size="18">of interest</text>
	<text transform="matrix(1 0 0 1 75.7178 352.7559)" font-family="'MyriadPro-Semibold'" font-size="14">(difference in means)</text>
</g>
<g>
	
		<rect x="46.828" y="529.32" fill="#9FC857" stroke="#000000" stroke-linecap="round" stroke-linejoin="round" stroke-miterlimit="10" width="184.999" height="95.672"/>
	<text transform="matrix(1 0 0 1 60.8574 552.0547)" font-family="'MyriadPro-Semibold'" font-size="18">Calculate % of these</text>
	<text transform="matrix(1 0 0 1 52.2715 573.6543)" font-family="'MyriadPro-Semibold'" font-size="18">values that are at least</text>
	<text transform="matrix(1 0 0 1 54.6387 595.2539)" font-family="'MyriadPro-Semibold'" font-size="18">as extreme as original</text>
	<text transform="matrix(1 0 0 1 67.4365 616.8535)" font-family="'MyriadPro-Semibold'" font-size="18">statistic of interest</text>
</g>
<g>
	<g>
		<path d="M139.477,361.061c0,0,0.121,2.197,0.301,5.49c0.178,3.295,0.385,7.688,0.541,12.074c0.089,2.195,0.178,4.396,0.261,6.451
			c0.101,2.062,0.195,3.98,0.275,5.629c0.051,1.646,0.036,3.021-0.006,3.979c-0.023,0.961-0.072,1.512-0.072,1.512
			c-0.071,0.801-0.778,1.396-1.579,1.32c-0.714-0.062-1.261-0.633-1.322-1.32c0,0-0.048-0.551-0.072-1.512
			c-0.042-0.961-0.057-2.334-0.006-3.979c0.081-1.646,0.175-3.564,0.275-5.629c0.083-2.061,0.172-4.256,0.261-6.451
			c0.156-4.393,0.363-8.779,0.541-12.074c0.18-3.293,0.301-5.49,0.301-5.49c0.004-0.082,0.075-0.146,0.158-0.146
			C139.412,360.924,139.472,360.984,139.477,361.061z"/>
		<g>
			<polygon points="139.327,406.791 133.229,391.867 139.327,395.408 145.423,391.867 			"/>
		</g>
	</g>
</g>
<g>
	<g>
		<path d="M235.591,577.006c0,0,2.196-0.113,5.49-0.301c3.295-0.178,7.688-0.385,12.08-0.539c2.195-0.09,4.393-0.178,6.451-0.262
			c2.059-0.102,3.979-0.195,5.628-0.275c1.646-0.051,3.02-0.029,3.979,0.006c0.962,0.023,1.511,0.072,1.511,0.072
			c0.807,0.07,1.396,0.777,1.32,1.578c-0.062,0.713-0.632,1.262-1.32,1.322c0,0-0.549,0.049-1.511,0.07
			c-0.961,0.041-2.334,0.059-3.979,0.006c-1.647-0.08-3.569-0.174-5.628-0.273c-2.062-0.084-4.256-0.174-6.451-0.262
			c-4.393-0.156-8.785-0.363-12.08-0.541c-3.294-0.188-5.49-0.301-5.49-0.301c-0.083-0.012-0.146-0.076-0.142-0.158
			C235.453,577.072,235.517,577.012,235.591,577.006z"/>
		<g>
			<polygon points="281.321,577.156 266.397,583.254 269.938,577.156 266.397,571.061 			"/>
		</g>
	</g>
</g>
<g>
	<g>
		<path d="M139.477,479.561c0,0,0.121,2.197,0.301,5.49c0.178,3.295,0.385,7.688,0.541,12.074c0.089,2.195,0.178,4.396,0.261,6.451
			c0.101,2.062,0.195,3.98,0.275,5.629c0.051,1.646,0.036,3.021-0.006,3.98c-0.023,0.961-0.072,1.51-0.072,1.51
			c-0.071,0.801-0.778,1.396-1.579,1.32c-0.714-0.062-1.261-0.635-1.322-1.32c0,0-0.048-0.549-0.072-1.51
			c-0.042-0.963-0.057-2.336-0.006-3.98c0.081-1.646,0.175-3.564,0.275-5.629c0.083-2.061,0.172-4.256,0.261-6.451
			c0.156-4.393,0.363-8.779,0.541-12.074c0.18-3.299,0.301-5.49,0.301-5.49c0.004-0.082,0.075-0.146,0.158-0.146
			C139.412,479.424,139.472,479.486,139.477,479.561z"/>
		<g>
			<polygon points="139.327,525.291 133.229,510.367 139.327,513.908 145.423,510.367 			"/>
		</g>
	</g>
</g>
<path fill="#FBC15E" stroke="#000000" stroke-linecap="round" stroke-linejoin="round" stroke-miterlimit="10" d="M218.327,449.51
	c0,15.648-12.691,28.348-28.346,28.348H88.673c-15.656,0-28.347-12.691-28.347-28.348v-10.674c0-15.65,12.691-28.348,28.347-28.348
	h101.308c15.654,0,28.346,12.691,28.346,28.348V449.51z"/>
<text transform="matrix(1 0 0 1 65.5645 438.6562)" fill="#FFFFFF" font-family="'MyriadPro-Semibold'" font-size="18">Null distribution of</text>
<text transform="matrix(1 0 0 1 67.2021 460.2559)" fill="#FFFFFF" font-family="'MyriadPro-Semibold'" font-size="18">statistic of interest</text>
<g>
	<path fill="#FB4C52" stroke="#000000" stroke-miterlimit="10" d="M387.815,577.156c0,12.428-10.072,22.5-22.5,22.5H307.59
		c-12.426,0-22.493-10.072-22.493-22.5l0,0c0-12.428,10.067-22.5,22.493-22.5h57.726
		C377.743,554.656,387.815,564.729,387.815,577.156L387.815,577.156z"/>
	<text transform="matrix(1 0 0 1 304.1377 583.0273)" fill="#FFFFFF" font-family="'MyriadPro-Semibold'" font-size="20">P-value</text>
</g>
<text transform="matrix(1 0 0 1 225.7764 433.373)" fill="#B4B4B4" font-family="'MyriadPro-It'" font-size="18">Centered at null value</text>
<text transform="matrix(1 0 0 1 229.8984 454.9727)" fill="#B4B4B4" font-family="'MyriadPro-It'" font-size="18">of statistic of interest</text>
</svg>
