<?xml version="1.0" encoding="utf-8"?>
<!-- Generator: Adobe Illustrator 16.0.4, SVG Export Plug-In . SVG Version: 6.00 Build 0)  -->
<!DOCTYPE svg PUBLIC "-//W3C//DTD SVG 1.1//EN" "http://www.w3.org/Graphics/SVG/1.1/DTD/svg11.dtd">
<svg version="1.1" id="layer1" xmlns="http://www.w3.org/2000/svg" xmlns:xlink="http://www.w3.org/1999/xlink" x="0px" y="0px"
	 width="620.5px" height="197px" viewBox="0 0 620.5 197" enable-background="new 0 0 620.5 197" xml:space="preserve">
<circle fill="#FB4C52" cx="290.824" cy="72.922" r="6.037"/>
<circle fill="#FB4C52" cx="221.668" cy="114.937" r="6.038"/>
<circle fill="#FB4C52" cx="221.668" cy="87.263" r="6.038"/>
<circle fill="#FB4C52" cx="207.836" cy="143.306" r="6.038"/>
<circle fill="#FB4C52" cx="249.331" cy="72.922" r="6.037"/>
<circle fill="#FB4C52" cx="290.824" cy="87.262" r="6.037"/>
<circle fill="#FB4C52" cx="235.5" cy="129.494" r="6.038"/>
<circle fill="#FB4C52" cx="276.994" cy="129.494" r="6.038"/>
<circle fill="#FB4C52" cx="290.825" cy="157.381" r="6.038"/>
<circle fill="#FB4C52" cx="194.006" cy="114.936" r="6.037"/>
<circle fill="#FB4C52" cx="221.667" cy="171.242" r="6.038"/>
<circle fill="#FB4C52" cx="235.5" cy="171.242" r="6.037"/>
<circle fill="#FB4C52" cx="249.331" cy="101.207" r="6.037"/>
<circle fill="#FB4C52" cx="304.656" cy="114.937" r="6.038"/>
<circle fill="#00BFFF" cx="18.74" cy="71.947" r="6.037"/>
<circle fill="#00BFFF" cx="129.39" cy="71.947" r="6.037"/>
<circle fill="#00BFFF" cx="115.559" cy="71.947" r="6.037"/>
<circle fill="#00BFFF" cx="101.728" cy="71.947" r="6.037"/>
<circle fill="#00BFFF" cx="87.896" cy="71.947" r="6.037"/>
<circle fill="#00BFFF" cx="74.065" cy="71.947" r="6.037"/>
<circle fill="#00BFFF" cx="60.234" cy="71.947" r="6.037"/>
<circle fill="#00BFFF" cx="46.403" cy="71.947" r="6.038"/>
<circle fill="#00BFFF" cx="32.572" cy="71.947" r="6.037"/>
<circle fill="#00BFFF" cx="18.74" cy="86.288" r="6.037"/>
<circle fill="#00BFFF" cx="129.39" cy="86.288" r="6.037"/>
<circle fill="#00BFFF" cx="115.559" cy="86.288" r="6.037"/>
<circle fill="#00BFFF" cx="101.728" cy="86.288" r="6.037"/>
<circle fill="#00BFFF" cx="87.896" cy="86.288" r="6.037"/>
<circle fill="#00BFFF" cx="74.065" cy="86.288" r="6.037"/>
<circle fill="#00BFFF" cx="60.234" cy="86.288" r="6.037"/>
<circle fill="#00BFFF" cx="46.403" cy="86.288" r="6.038"/>
<circle fill="#00BFFF" cx="32.572" cy="86.288" r="6.037"/>
<circle fill="#00BFFF" cx="18.74" cy="100.232" r="6.037"/>
<circle fill="#00BFFF" cx="129.39" cy="100.232" r="6.037"/>
<circle fill="#00BFFF" cx="115.559" cy="100.232" r="6.037"/>
<circle fill="#00BFFF" cx="101.728" cy="100.232" r="6.037"/>
<circle fill="#00BFFF" cx="87.896" cy="100.232" r="6.037"/>
<circle fill="#00BFFF" cx="74.065" cy="100.232" r="6.037"/>
<circle fill="#00BFFF" cx="60.234" cy="100.232" r="6.037"/>
<circle fill="#00BFFF" cx="46.403" cy="100.232" r="6.038"/>
<circle fill="#00BFFF" cx="32.572" cy="100.232" r="6.037"/>
<circle fill="#00BFFF" cx="18.74" cy="113.961" r="6.037"/>
<circle fill="#00BFFF" cx="129.39" cy="113.961" r="6.037"/>
<circle fill="#00BFFF" cx="115.559" cy="113.961" r="6.037"/>
<circle fill="#00BFFF" cx="101.728" cy="113.961" r="6.037"/>
<circle fill="#00BFFF" cx="87.896" cy="113.961" r="6.037"/>
<circle fill="#00BFFF" cx="74.065" cy="113.961" r="6.037"/>
<circle fill="#00BFFF" cx="60.234" cy="113.961" r="6.037"/>
<circle fill="#00BFFF" cx="46.403" cy="113.961" r="6.038"/>
<circle fill="#00BFFF" cx="32.572" cy="113.961" r="6.037"/>
<circle fill="#00BFFF" cx="18.74" cy="128.52" r="6.037"/>
<circle fill="#00BFFF" cx="129.39" cy="128.52" r="6.037"/>
<circle fill="#00BFFF" cx="115.559" cy="128.52" r="6.037"/>
<circle fill="#00BFFF" cx="101.728" cy="128.52" r="6.037"/>
<circle fill="#00BFFF" cx="87.896" cy="128.52" r="6.037"/>
<circle fill="#00BFFF" cx="74.065" cy="128.52" r="6.037"/>
<circle fill="#00BFFF" cx="60.234" cy="128.52" r="6.037"/>
<circle fill="#00BFFF" cx="46.403" cy="128.521" r="6.038"/>
<circle fill="#00BFFF" cx="32.572" cy="128.52" r="6.037"/>
<circle fill="#00BFFF" cx="18.74" cy="142.331" r="6.037"/>
<circle fill="#00BFFF" cx="129.39" cy="142.331" r="6.037"/>
<circle fill="#00BFFF" cx="115.559" cy="142.331" r="6.037"/>
<circle fill="#00BFFF" cx="101.728" cy="142.331" r="6.037"/>
<circle fill="#00BFFF" cx="87.896" cy="142.331" r="6.037"/>
<circle fill="#00BFFF" cx="74.065" cy="142.331" r="6.037"/>
<circle fill="#00BFFF" cx="60.234" cy="142.331" r="6.037"/>
<circle fill="#00BFFF" cx="46.403" cy="142.331" r="6.038"/>
<circle fill="#00BFFF" cx="32.572" cy="142.331" r="6.037"/>
<circle fill="#00BFFF" cx="18.74" cy="156.406" r="6.037"/>
<circle fill="#00BFFF" cx="129.39" cy="156.406" r="6.037"/>
<circle fill="#00BFFF" cx="115.559" cy="156.406" r="6.037"/>
<circle fill="#00BFFF" cx="101.728" cy="156.406" r="6.037"/>
<circle fill="#00BFFF" cx="87.896" cy="156.406" r="6.037"/>
<circle fill="#00BFFF" cx="74.065" cy="156.406" r="6.037"/>
<circle fill="#00BFFF" cx="60.234" cy="156.406" r="6.037"/>
<circle fill="#00BFFF" cx="46.403" cy="156.406" r="6.038"/>
<circle fill="#00BFFF" cx="32.572" cy="156.406" r="6.037"/>
<circle fill="#00BFFF" cx="18.74" cy="170.268" r="6.037"/>
<circle fill="#00BFFF" cx="129.39" cy="170.268" r="6.037"/>
<circle fill="#00BFFF" cx="115.559" cy="170.268" r="6.037"/>
<circle fill="#00BFFF" cx="101.728" cy="170.268" r="6.037"/>
<circle fill="#00BFFF" cx="87.896" cy="170.268" r="6.037"/>
<circle fill="#00BFFF" cx="74.065" cy="170.268" r="6.037"/>
<circle fill="#00BFFF" cx="60.234" cy="170.268" r="6.037"/>
<circle fill="#00BFFF" cx="46.403" cy="170.269" r="6.038"/>
<circle fill="#00BFFF" cx="32.572" cy="170.268" r="6.037"/>
<circle fill="#FB4C52" cx="18.74" cy="43.715" r="6.037"/>
<circle fill="#FB4C52" cx="32.572" cy="43.715" r="6.037"/>
<circle fill="#FB4C52" cx="46.403" cy="43.715" r="6.038"/>
<circle fill="#FB4C52" cx="60.234" cy="43.715" r="6.037"/>
<circle fill="#FB4C52" cx="74.065" cy="43.715" r="6.037"/>
<circle fill="#FB4C52" cx="87.896" cy="43.715" r="6.037"/>
<circle fill="#FB4C52" cx="101.728" cy="43.715" r="6.037"/>
<circle fill="#FB4C52" cx="115.559" cy="43.715" r="6.037"/>
<circle fill="#FB4C52" cx="129.39" cy="43.715" r="6.037"/>
<circle fill="#FB4C52" cx="18.74" cy="58.016" r="6.037"/>
<circle fill="#FB4C52" cx="32.572" cy="58.016" r="6.037"/>
<circle fill="#FB4C52" cx="46.403" cy="58.016" r="6.038"/>
<circle fill="#FB4C52" cx="60.234" cy="58.016" r="6.037"/>
<circle fill="#FB4C52" cx="74.065" cy="58.016" r="6.037"/>
<circle fill="#FB4C52" cx="87.896" cy="58.016" r="6.037"/>
<circle fill="#FB4C52" cx="101.728" cy="58.016" r="6.037"/>
<circle fill="#FB4C52" cx="115.559" cy="58.016" r="6.037"/>
<circle fill="#FB4C52" cx="129.39" cy="58.016" r="6.037"/>
<path fill="none" stroke="#636C72" stroke-width="2" d="M139.315,169.76c0,6.251-4.783,11.32-10.684,11.32H19.499
	c-5.9,0-10.684-5.069-10.684-11.32V44.14c0-6.253,4.783-11.321,10.684-11.321h109.133c5.9,0,10.684,5.068,10.684,11.321
	L139.315,169.76L139.315,169.76z"/>
<circle fill="#00BFFF" cx="194.006" cy="72.921" r="6.037"/>
<circle fill="#00BFFF" cx="304.656" cy="72.921" r="6.038"/>
<circle fill="#00BFFF" cx="276.993" cy="72.921" r="6.037"/>
<circle fill="#00BFFF" cx="304.655" cy="43.931" r="6.037"/>
<circle fill="#00BFFF" cx="290.824" cy="43.931" r="6.037"/>
<circle fill="#00BFFF" cx="263.162" cy="72.921" r="6.037"/>
<circle fill="#00BFFF" cx="263.162" cy="43.931" r="6.037"/>
<circle fill="#00BFFF" cx="249.331" cy="43.931" r="6.037"/>
<circle fill="#00BFFF" cx="235.5" cy="72.921" r="6.037"/>
<circle fill="#00BFFF" cx="221.668" cy="43.931" r="6.037"/>
<circle fill="#00BFFF" cx="207.837" cy="43.931" r="6.037"/>
<circle fill="#00BFFF" cx="194.006" cy="43.931" r="6.037"/>
<circle fill="#00BFFF" cx="221.668" cy="72.921" r="6.038"/>
<circle fill="#00BFFF" cx="207.837" cy="72.921" r="6.038"/>
<circle fill="#00BFFF" cx="206.959" cy="58.99" r="6.037"/>
<circle fill="#00BFFF" cx="248.453" cy="58.99" r="6.037"/>
<circle fill="#00BFFF" cx="234.622" cy="58.99" r="6.038"/>
<circle fill="#00BFFF" cx="220.791" cy="58.99" r="6.038"/>
<circle fill="#00BFFF" cx="194.006" cy="87.262" r="6.037"/>
<circle fill="#00BFFF" cx="304.656" cy="87.262" r="6.038"/>
<circle fill="#00BFFF" cx="276.993" cy="87.262" r="6.037"/>
<circle fill="#00BFFF" cx="263.162" cy="87.262" r="6.037"/>
<circle fill="#00BFFF" cx="249.331" cy="87.262" r="6.038"/>
<circle fill="#00BFFF" cx="235.5" cy="87.262" r="6.037"/>
<circle fill="#00BFFF" cx="207.837" cy="87.262" r="6.038"/>
<circle fill="#00BFFF" cx="194.006" cy="101.207" r="6.037"/>
<circle fill="#00BFFF" cx="304.656" cy="101.207" r="6.038"/>
<circle fill="#00BFFF" cx="290.824" cy="101.207" r="6.037"/>
<circle fill="#00BFFF" cx="276.993" cy="101.207" r="6.037"/>
<circle fill="#00BFFF" cx="263.162" cy="101.207" r="6.037"/>
<circle fill="#00BFFF" cx="304.655" cy="59.317" r="6.037"/>
<circle fill="#00BFFF" cx="290.824" cy="59.317" r="6.037"/>
<circle fill="#00BFFF" cx="276.993" cy="59.317" r="6.037"/>
<circle fill="#00BFFF" cx="235.5" cy="101.207" r="6.037"/>
<circle fill="#00BFFF" cx="221.668" cy="101.207" r="6.038"/>
<circle fill="#00BFFF" cx="207.837" cy="101.207" r="6.038"/>
<circle fill="#00BFFF" cx="290.824" cy="114.936" r="6.037"/>
<circle fill="#00BFFF" cx="276.993" cy="114.936" r="6.037"/>
<circle fill="#00BFFF" cx="263.162" cy="114.936" r="6.037"/>
<circle fill="#00BFFF" cx="249.331" cy="114.937" r="6.038"/>
<circle fill="#00BFFF" cx="235.5" cy="114.936" r="6.037"/>
<circle fill="#00BFFF" cx="207.837" cy="114.937" r="6.038"/>
<circle fill="#00BFFF" cx="194.006" cy="129.494" r="6.037"/>
<circle fill="#00BFFF" cx="304.656" cy="129.494" r="6.038"/>
<circle fill="#00BFFF" cx="290.824" cy="129.494" r="6.037"/>
<circle fill="#00BFFF" cx="263.162" cy="129.494" r="6.037"/>
<circle fill="#00BFFF" cx="249.331" cy="129.494" r="6.038"/>
<circle fill="#00BFFF" cx="221.668" cy="129.494" r="6.038"/>
<circle fill="#00BFFF" cx="207.837" cy="129.494" r="6.038"/>
<circle fill="#00BFFF" cx="194.006" cy="143.305" r="6.037"/>
<circle fill="#00BFFF" cx="304.656" cy="143.305" r="6.038"/>
<circle fill="#00BFFF" cx="290.824" cy="143.305" r="6.037"/>
<circle fill="#00BFFF" cx="276.993" cy="143.305" r="6.037"/>
<circle fill="#00BFFF" cx="263.162" cy="143.305" r="6.037"/>
<circle fill="#00BFFF" cx="249.331" cy="143.305" r="6.038"/>
<circle fill="#00BFFF" cx="235.5" cy="143.305" r="6.037"/>
<circle fill="#00BFFF" cx="221.668" cy="143.305" r="6.038"/>
<circle fill="#00BFFF" cx="194.006" cy="157.381" r="6.037"/>
<circle fill="#00BFFF" cx="304.656" cy="157.381" r="6.038"/>
<circle fill="#00BFFF" cx="276.993" cy="157.381" r="6.037"/>
<circle fill="#00BFFF" cx="263.162" cy="157.381" r="6.037"/>
<circle fill="#00BFFF" cx="249.331" cy="157.381" r="6.038"/>
<circle fill="#00BFFF" cx="235.5" cy="157.381" r="6.037"/>
<circle fill="#00BFFF" cx="221.668" cy="157.381" r="6.038"/>
<circle fill="#00BFFF" cx="207.837" cy="157.381" r="6.038"/>
<circle fill="#00BFFF" cx="194.006" cy="171.242" r="6.037"/>
<circle fill="#00BFFF" cx="304.656" cy="171.242" r="6.038"/>
<circle fill="#00BFFF" cx="290.824" cy="171.242" r="6.037"/>
<circle fill="#00BFFF" cx="276.993" cy="171.242" r="6.037"/>
<circle fill="#00BFFF" cx="263.162" cy="171.242" r="6.037"/>
<circle fill="#00BFFF" cx="249.331" cy="171.242" r="6.038"/>
<circle fill="#00BFFF" cx="207.837" cy="171.242" r="6.038"/>
<circle fill="#FB4C52" cx="235.5" cy="43.931" r="6.037"/>
<circle fill="#FB4C52" cx="276.993" cy="43.931" r="6.037"/>
<circle fill="#FB4C52" cx="194.006" cy="58.99" r="6.037"/>
<circle fill="#FB4C52" cx="263.162" cy="58.99" r="6.037"/>
<path fill="none" stroke="#636C72" stroke-width="2" d="M314.581,170.734c0,6.25-4.783,11.32-10.684,11.32H194.765
	c-5.9,0-10.684-5.07-10.684-11.32V45.114c0-6.253,4.783-11.321,10.684-11.321h109.133c5.9,0,10.684,5.068,10.684,11.321
	L314.581,170.734L314.581,170.734z"/>
<g>
	<g>
		<path d="M142.359,114.141c0,0,1.837-0.05,4.594-0.125c2.756-0.086,6.432-0.166,10.106-0.213c1.838-0.033,3.676-0.066,5.397-0.098
			c1.725-0.049,3.331-0.096,4.708-0.091c1.379,0.016,2.525,0.075,3.328,0.133c0.802,0.054,1.262,0.084,1.262,0.084l-0.031,1.797
			c0,0-0.458,0.015-1.263,0.041c-0.806,0.032-1.954,0.052-3.331,0.024c-1.377-0.045-2.982-0.143-4.702-0.248
			c-1.722-0.088-3.556-0.184-5.392-0.276c-3.67-0.17-7.342-0.37-10.094-0.549c-2.752-0.167-4.588-0.277-4.588-0.277L142.359,114.141
			z"/>
		<g>
			<polygon points="178.8,114.846 168.786,118.746 171.212,114.721 168.919,110.616 			"/>
		</g>
	</g>
</g>
<g>
	<g>
		<path d="M320.75,109.204c0,0,1.892-1.854,4.729-4.636c1.421-1.387,3.078-3.008,4.854-4.741c1.788-1.723,3.693-3.561,5.602-5.398
			c1.9-1.842,3.804-3.686,5.587-5.413c1.764-1.746,3.44-3.345,4.926-4.662c2.981-2.624,5.054-4.282,5.054-4.282l1.034,1.126
			c0,0-1.829,1.922-4.697,4.67c-1.438,1.366-3.175,2.901-5.063,4.513c-1.875,1.629-3.873,3.364-5.871,5.104
			c-1.994,1.742-3.986,3.484-5.855,5.119c-1.88,1.621-3.635,3.136-5.139,4.433c-3.013,2.592-5.021,4.317-5.021,4.317L320.75,109.204
			z"/>
		<g>
			<polygon points="357.217,75.858 352.637,85.581 351.628,80.99 347.139,79.593 			"/>
		</g>
	</g>
</g>
<g>
	<g>
		<path d="M320.812,115.482c0,0,1.892,1.854,4.729,4.635c1.42,1.388,3.078,3.008,4.854,4.742c1.788,1.723,3.693,3.561,5.603,5.397
			c1.9,1.843,3.803,3.687,5.586,5.413c1.764,1.746,3.441,3.346,4.926,4.662c2.982,2.624,5.054,4.282,5.054,4.282l1.034-1.126
			c0,0-1.829-1.922-4.696-4.67c-1.439-1.366-3.176-2.901-5.064-4.514c-1.875-1.629-3.873-3.363-5.871-5.104
			c-1.994-1.742-3.986-3.484-5.854-5.119c-1.88-1.621-3.636-3.135-5.14-4.432c-3.012-2.592-5.021-4.318-5.021-4.318L320.812,115.482
			z"/>
		<g>
			<polygon points="357.278,148.828 352.698,139.105 351.689,143.695 347.2,145.094 			"/>
		</g>
	</g>
</g>
<g>
	<g>
		<path d="M536.851,64.162c0,0,1.333,1.307,3.333,3.266c1,0.979,2.17,2.119,3.42,3.341c1.261,1.214,2.604,2.509,3.947,3.804
			c1.339,1.298,2.68,2.597,3.937,3.814c1.243,1.23,2.425,2.356,3.471,3.285c2.102,1.849,3.562,3.017,3.562,3.017l0.729-0.793
			c0,0-1.289-1.354-3.31-3.291c-1.016-0.962-2.237-2.044-3.569-3.18c-1.32-1.148-2.729-2.371-4.137-3.596
			c-1.405-1.228-2.81-2.456-4.126-3.607c-1.324-1.142-2.562-2.209-3.621-3.123c-2.122-1.826-3.538-3.043-3.538-3.043L536.851,64.162
			z"/>
		<g>
			<polygon points="562.547,87.659 559.319,80.808 558.608,84.043 555.445,85.028 			"/>
		</g>
	</g>
</g>
<g>
	<g>
		<path d="M536.851,128.018c0,0,1.333-1.307,3.333-3.266c1-0.979,2.17-2.119,3.42-3.342c1.261-1.215,2.604-2.51,3.947-3.805
			c1.339-1.297,2.68-2.598,3.937-3.814c1.243-1.229,2.425-2.355,3.471-3.285c2.102-1.848,3.562-3.017,3.562-3.017l0.729,0.794
			c0,0-1.289,1.354-3.31,3.29c-1.016,0.962-2.237,2.044-3.569,3.18c-1.32,1.147-2.729,2.37-4.137,3.597
			c-1.405,1.228-2.81,2.455-4.126,3.607c-1.324,1.143-2.562,2.209-3.621,3.122c-2.122,1.826-3.538,3.043-3.538,3.043
			L536.851,128.018z"/>
		<g>
			<polygon points="562.547,104.521 559.319,111.371 558.608,108.137 555.445,107.152 			"/>
		</g>
	</g>
</g>
<g>
	<path d="M337.738,75.858h-1.145v-3.796c0-0.728-0.109-1.257-0.331-1.586c-0.222-0.33-0.558-0.494-1.008-0.494
		c-0.233,0-0.468,0.045-0.702,0.137c-0.233,0.091-0.455,0.214-0.663,0.37c-0.208,0.156-0.39,0.343-0.546,0.559
		c-0.155,0.217-0.272,0.455-0.351,0.715v4.095h-1.146v-6.786h1.04v1.456c0.27-0.477,0.656-0.858,1.164-1.144
		c0.507-0.286,1.06-0.429,1.657-0.429c0.39,0,0.715,0.071,0.975,0.214c0.261,0.143,0.469,0.342,0.624,0.598
		c0.156,0.255,0.268,0.557,0.332,0.903c0.064,0.347,0.098,0.724,0.098,1.131L337.738,75.858L337.738,75.858z"/>
	<path d="M341.825,79.581v0.606h-2.722v-0.606h1.076v-2.956c-0.046,0.061-0.115,0.125-0.212,0.193s-0.204,0.131-0.321,0.189
		c-0.119,0.058-0.241,0.107-0.368,0.147c-0.126,0.041-0.237,0.061-0.333,0.061V76.58c0.11,0,0.234-0.032,0.371-0.095
		s0.267-0.137,0.391-0.22s0.229-0.164,0.318-0.242c0.088-0.079,0.141-0.133,0.154-0.163h0.684v3.721H341.825z"/>
</g>
<g>
	<circle fill="#FB4C52" cx="468.588" cy="71.649" r="6.037"/>
	<circle fill="#FB4C52" cx="427.095" cy="71.649" r="6.037"/>
	<circle fill="#00BFFF" cx="371.77" cy="71.648" r="6.037"/>
	<circle fill="#00BFFF" cx="482.419" cy="71.648" r="6.038"/>
	<circle fill="#00BFFF" cx="454.757" cy="71.648" r="6.037"/>
	<circle fill="#00BFFF" cx="482.419" cy="42.658" r="6.037"/>
	<circle fill="#00BFFF" cx="468.588" cy="42.658" r="6.037"/>
	<circle fill="#00BFFF" cx="440.926" cy="71.648" r="6.037"/>
	<circle fill="#00BFFF" cx="440.926" cy="42.658" r="6.037"/>
	<circle fill="#00BFFF" cx="427.095" cy="42.658" r="6.037"/>
	<circle fill="#00BFFF" cx="413.264" cy="71.648" r="6.037"/>
	<circle fill="#00BFFF" cx="399.432" cy="42.658" r="6.037"/>
	<circle fill="#00BFFF" cx="385.601" cy="42.658" r="6.037"/>
	<circle fill="#00BFFF" cx="371.77" cy="42.658" r="6.037"/>
	<circle fill="#00BFFF" cx="399.432" cy="71.648" r="6.038"/>
	<circle fill="#00BFFF" cx="385.601" cy="71.648" r="6.038"/>
	<circle fill="#00BFFF" cx="384.723" cy="57.717" r="6.037"/>
	<circle fill="#00BFFF" cx="426.217" cy="57.717" r="6.037"/>
	<circle fill="#00BFFF" cx="412.385" cy="57.717" r="6.038"/>
	<circle fill="#00BFFF" cx="398.554" cy="57.717" r="6.038"/>
	<circle fill="#00BFFF" cx="482.419" cy="58.044" r="6.037"/>
	<circle fill="#00BFFF" cx="468.588" cy="58.044" r="6.037"/>
	<circle fill="#00BFFF" cx="454.757" cy="58.044" r="6.037"/>
	<circle fill="#FB4C52" cx="413.264" cy="42.658" r="6.037"/>
	<circle fill="#FB4C52" cx="454.757" cy="42.658" r="6.037"/>
	<circle fill="#FB4C52" cx="371.77" cy="57.717" r="6.037"/>
	<circle fill="#FB4C52" cx="440.926" cy="57.717" r="6.037"/>
	<path fill="none" stroke="#636C72" stroke-width="2" d="M492.688,71.005c0,6.262-5.075,11.338-11.339,11.338h-108.51
		c-6.263,0-11.339-5.077-11.339-11.338v-27.92c0-6.262,5.076-11.338,11.339-11.338H481.35c6.264,0,11.34,5.077,11.34,11.338v27.92
		H492.688z"/>
</g>
<g>
	<circle fill="#FB4C52" cx="399.431" cy="124.015" r="6.038"/>
	<circle fill="#FB4C52" cx="399.431" cy="96.342" r="6.038"/>
	<circle fill="#FB4C52" cx="385.599" cy="152.385" r="6.038"/>
	<circle fill="#FB4C52" cx="468.587" cy="96.342" r="6.037"/>
	<circle fill="#FB4C52" cx="413.262" cy="138.573" r="6.038"/>
	<circle fill="#FB4C52" cx="454.756" cy="138.573" r="6.038"/>
	<circle fill="#FB4C52" cx="468.587" cy="166.46" r="6.038"/>
	<circle fill="#FB4C52" cx="371.769" cy="124.015" r="6.037"/>
	<circle fill="#FB4C52" cx="399.43" cy="180.321" r="6.038"/>
	<circle fill="#FB4C52" cx="413.263" cy="180.321" r="6.037"/>
	<circle fill="#FB4C52" cx="427.094" cy="110.286" r="6.037"/>
	<circle fill="#FB4C52" cx="482.418" cy="124.015" r="6.038"/>
	<circle fill="#00BFFF" cx="371.769" cy="96.342" r="6.038"/>
	<circle fill="#00BFFF" cx="482.418" cy="96.342" r="6.038"/>
	<circle fill="#00BFFF" cx="454.756" cy="96.342" r="6.037"/>
	<circle fill="#00BFFF" cx="440.925" cy="96.342" r="6.037"/>
	<circle fill="#00BFFF" cx="427.093" cy="96.342" r="6.038"/>
	<circle fill="#00BFFF" cx="413.263" cy="96.342" r="6.037"/>
	<circle fill="#00BFFF" cx="385.6" cy="96.342" r="6.038"/>
	<circle fill="#00BFFF" cx="371.769" cy="110.286" r="6.038"/>
	<circle fill="#00BFFF" cx="482.418" cy="110.286" r="6.038"/>
	<circle fill="#00BFFF" cx="468.587" cy="110.286" r="6.037"/>
	<circle fill="#00BFFF" cx="454.756" cy="110.286" r="6.037"/>
	<circle fill="#00BFFF" cx="440.925" cy="110.286" r="6.037"/>
	<circle fill="#00BFFF" cx="413.263" cy="110.286" r="6.037"/>
	<circle fill="#00BFFF" cx="399.431" cy="110.286" r="6.038"/>
	<circle fill="#00BFFF" cx="385.6" cy="110.286" r="6.038"/>
	<circle fill="#00BFFF" cx="468.587" cy="124.015" r="6.037"/>
	<circle fill="#00BFFF" cx="454.756" cy="124.015" r="6.037"/>
	<circle fill="#00BFFF" cx="440.925" cy="124.015" r="6.037"/>
	<circle fill="#00BFFF" cx="427.093" cy="124.015" r="6.038"/>
	<circle fill="#00BFFF" cx="413.263" cy="124.015" r="6.037"/>
	<circle fill="#00BFFF" cx="385.6" cy="124.015" r="6.038"/>
	<circle fill="#00BFFF" cx="371.769" cy="138.573" r="6.038"/>
	<circle fill="#00BFFF" cx="482.418" cy="138.573" r="6.038"/>
	<circle fill="#00BFFF" cx="468.587" cy="138.573" r="6.037"/>
	<circle fill="#00BFFF" cx="440.925" cy="138.573" r="6.037"/>
	<circle fill="#00BFFF" cx="427.093" cy="138.573" r="6.038"/>
	<circle fill="#00BFFF" cx="399.431" cy="138.573" r="6.038"/>
	<circle fill="#00BFFF" cx="385.6" cy="138.573" r="6.038"/>
	<circle fill="#00BFFF" cx="371.769" cy="152.384" r="6.038"/>
	<circle fill="#00BFFF" cx="482.418" cy="152.384" r="6.038"/>
	<circle fill="#00BFFF" cx="468.587" cy="152.384" r="6.037"/>
	<circle fill="#00BFFF" cx="454.756" cy="152.384" r="6.037"/>
	<circle fill="#00BFFF" cx="440.925" cy="152.384" r="6.037"/>
	<circle fill="#00BFFF" cx="427.093" cy="152.384" r="6.038"/>
	<circle fill="#00BFFF" cx="413.263" cy="152.384" r="6.037"/>
	<circle fill="#00BFFF" cx="399.431" cy="152.384" r="6.038"/>
	<circle fill="#00BFFF" cx="371.769" cy="166.46" r="6.038"/>
	<circle fill="#00BFFF" cx="482.418" cy="166.46" r="6.038"/>
	<circle fill="#00BFFF" cx="454.756" cy="166.46" r="6.037"/>
	<circle fill="#00BFFF" cx="440.925" cy="166.46" r="6.037"/>
	<circle fill="#00BFFF" cx="427.093" cy="166.46" r="6.038"/>
	<circle fill="#00BFFF" cx="413.263" cy="166.46" r="6.037"/>
	<circle fill="#00BFFF" cx="399.431" cy="166.46" r="6.038"/>
	<circle fill="#00BFFF" cx="385.6" cy="166.46" r="6.038"/>
	<circle fill="#00BFFF" cx="371.769" cy="180.321" r="6.038"/>
	<circle fill="#00BFFF" cx="482.418" cy="180.321" r="6.038"/>
	<circle fill="#00BFFF" cx="468.587" cy="180.321" r="6.037"/>
	<circle fill="#00BFFF" cx="454.756" cy="180.321" r="6.037"/>
	<circle fill="#00BFFF" cx="440.925" cy="180.321" r="6.037"/>
	<circle fill="#00BFFF" cx="427.093" cy="180.321" r="6.038"/>
	<circle fill="#00BFFF" cx="385.6" cy="180.321" r="6.038"/>
	<path fill="none" stroke="#636C72" stroke-width="2" d="M493.422,179.161c0,6.263-5.076,11.339-11.339,11.339H372.104
		c-6.263,0-11.339-5.076-11.339-11.339V97.589c0-6.263,5.076-11.339,11.339-11.339h109.979c6.263,0,11.339,5.076,11.339,11.339
		V179.161z"/>
</g>
<g>
	<circle fill="#FB4C52" cx="526.188" cy="46.831" r="6.038"/>
	<g>
		<path d="M504.054,60.092c-0.562,0-1.06-0.138-1.487-0.416c-0.431-0.277-0.771-0.628-1.021-1.053v4.108H500.4v-9.555h1.014v1.274
			c0.269-0.416,0.618-0.751,1.047-1.007c0.429-0.255,0.903-0.383,1.424-0.383c0.468,0,0.896,0.095,1.287,0.286
			c0.391,0.191,0.729,0.449,1.014,0.774c0.286,0.325,0.51,0.7,0.671,1.124c0.159,0.425,0.239,0.867,0.239,1.326
			c0,0.485-0.073,0.942-0.221,1.372c-0.147,0.429-0.355,0.802-0.624,1.118c-0.27,0.316-0.59,0.567-0.963,0.754
			C504.916,59.999,504.504,60.092,504.054,60.092z M503.702,59.104c0.339,0,0.644-0.072,0.917-0.214
			c0.271-0.143,0.507-0.334,0.702-0.572c0.193-0.238,0.345-0.509,0.447-0.812c0.104-0.303,0.156-0.615,0.156-0.936
			c0-0.338-0.061-0.661-0.183-0.968c-0.121-0.308-0.285-0.577-0.493-0.806s-0.453-0.412-0.735-0.546
			c-0.28-0.134-0.587-0.202-0.916-0.202c-0.208,0-0.423,0.042-0.644,0.124c-0.221,0.083-0.429,0.191-0.624,0.325
			c-0.195,0.134-0.364,0.294-0.507,0.481c-0.145,0.187-0.236,0.383-0.279,0.591v1.937c0.095,0.226,0.216,0.436,0.363,0.63
			c0.146,0.195,0.315,0.364,0.508,0.507c0.19,0.143,0.394,0.255,0.61,0.338C503.241,59.064,503.469,59.104,503.702,59.104z"/>
		<path d="M510.805,63.685v0.606h-2.721v-0.606h1.076v-2.956c-0.046,0.061-0.116,0.125-0.212,0.193
			c-0.098,0.068-0.204,0.131-0.322,0.189c-0.119,0.058-0.241,0.107-0.368,0.147c-0.126,0.041-0.237,0.061-0.333,0.061v-0.636
			c0.111,0,0.235-0.032,0.371-0.095c0.137-0.063,0.267-0.137,0.391-0.22s0.229-0.164,0.318-0.242
			c0.088-0.079,0.141-0.133,0.155-0.163h0.683v3.721L510.805,63.685L510.805,63.685z"/>
		<path d="M511.858,55.894v-0.78h3.965v0.78H511.858z M511.858,57.635v-0.78h3.965v0.78H511.858z"/>
	</g>
	<g>
		<path d="M527.963,67.317h-1.144v-3.796c0-0.728-0.11-1.257-0.331-1.586c-0.223-0.33-0.559-0.494-1.008-0.494
			c-0.234,0-0.469,0.045-0.702,0.137c-0.234,0.091-0.455,0.214-0.663,0.37c-0.208,0.156-0.391,0.343-0.546,0.559
			c-0.156,0.217-0.273,0.455-0.352,0.715v4.095h-1.145v-6.786h1.04v1.456c0.269-0.477,0.655-0.858,1.164-1.144
			c0.507-0.286,1.059-0.429,1.656-0.429c0.391,0,0.715,0.071,0.976,0.214c0.26,0.143,0.468,0.342,0.624,0.598
			c0.155,0.255,0.267,0.557,0.332,0.903c0.063,0.347,0.097,0.724,0.097,1.131L527.963,67.317L527.963,67.317z"/>
		<path d="M532.05,71.04v0.606h-2.721V71.04h1.076v-2.956c-0.046,0.061-0.116,0.125-0.212,0.193
			c-0.098,0.068-0.204,0.131-0.322,0.189c-0.119,0.058-0.241,0.107-0.368,0.147c-0.126,0.041-0.237,0.061-0.333,0.061v-0.636
			c0.111,0,0.235-0.032,0.371-0.095c0.137-0.063,0.267-0.137,0.391-0.22s0.229-0.164,0.318-0.242
			c0.088-0.079,0.141-0.133,0.155-0.163h0.683v3.721L532.05,71.04L532.05,71.04z"/>
	</g>
	<g>
		<path d="M500.184,50.658l2.574-5.291h0.962l2.562,5.291h-0.976l-2.066-4.264l-2.105,4.264H500.184z"/>
	</g>
	<line fill="none" stroke="#000000" x1="534" y1="56.968" x2="519.15" y2="56.968"/>
</g>
<g>
	<g>
		<path d="M527.963,147.348h-1.144v-3.796c0-0.728-0.11-1.257-0.331-1.586c-0.223-0.329-0.559-0.493-1.008-0.493
			c-0.234,0-0.469,0.045-0.702,0.137c-0.234,0.091-0.455,0.214-0.663,0.369c-0.208,0.156-0.391,0.344-0.546,0.56
			c-0.156,0.217-0.273,0.455-0.352,0.715v4.097h-1.145v-6.787h1.04v1.457c0.269-0.478,0.655-0.857,1.164-1.146
			c0.507-0.285,1.059-0.429,1.656-0.429c0.391,0,0.715,0.07,0.976,0.215c0.26,0.145,0.468,0.343,0.624,0.599
			c0.155,0.255,0.267,0.558,0.332,0.902c0.063,0.348,0.097,0.725,0.097,1.131L527.963,147.348L527.963,147.348z"/>
		<path d="M529.146,151.677c0-0.202,0.017-0.392,0.05-0.567c0.032-0.176,0.095-0.348,0.186-0.508
			c0.091-0.162,0.216-0.315,0.375-0.463c0.159-0.146,0.368-0.293,0.626-0.438c0.151-0.082,0.307-0.161,0.462-0.239
			c0.156-0.078,0.3-0.161,0.429-0.25c0.13-0.089,0.234-0.184,0.318-0.284c0.083-0.102,0.125-0.221,0.125-0.356
			c0-0.086-0.021-0.172-0.061-0.258c-0.041-0.086-0.1-0.16-0.176-0.228c-0.075-0.065-0.171-0.118-0.283-0.158
			c-0.113-0.04-0.244-0.061-0.392-0.061c-0.15,0-0.289,0.021-0.413,0.063c-0.123,0.043-0.232,0.096-0.328,0.158
			c-0.098,0.062-0.181,0.131-0.25,0.201c-0.071,0.07-0.13,0.134-0.176,0.189l-0.432-0.485c0.04-0.046,0.107-0.106,0.204-0.187
			c0.097-0.078,0.218-0.156,0.364-0.238c0.146-0.08,0.314-0.15,0.508-0.209c0.19-0.058,0.406-0.086,0.645-0.086
			c0.231,0,0.441,0.031,0.629,0.095s0.346,0.149,0.475,0.261s0.229,0.242,0.299,0.391c0.071,0.149,0.105,0.308,0.105,0.476
			c0,0.196-0.043,0.368-0.129,0.515c-0.086,0.147-0.189,0.275-0.313,0.387c-0.124,0.112-0.257,0.207-0.398,0.285
			c-0.141,0.077-0.268,0.146-0.379,0.2c-0.11,0.056-0.235,0.122-0.375,0.201c-0.139,0.078-0.271,0.166-0.396,0.265
			c-0.127,0.1-0.236,0.209-0.33,0.329c-0.095,0.121-0.152,0.255-0.179,0.396h2.584v0.605L529.146,151.677L529.146,151.677z"/>
	</g>
	<circle fill="#FB4C52" cx="526.188" cy="126.787" r="6.038"/>
	<g>
		<path d="M504.054,140.049c-0.562,0-1.06-0.138-1.487-0.416c-0.431-0.277-0.771-0.627-1.021-1.053v4.107H500.4v-9.556h1.014v1.274
			c0.269-0.416,0.618-0.751,1.047-1.008c0.429-0.256,0.903-0.383,1.424-0.383c0.468,0,0.896,0.094,1.287,0.285
			c0.391,0.19,0.729,0.448,1.014,0.773c0.286,0.324,0.51,0.699,0.671,1.124c0.159,0.425,0.239,0.866,0.239,1.325
			c0,0.485-0.073,0.942-0.221,1.373c-0.147,0.429-0.355,0.801-0.624,1.117c-0.27,0.315-0.59,0.567-0.963,0.754
			C504.916,139.956,504.504,140.049,504.054,140.049z M503.702,139.062c0.339,0,0.644-0.071,0.917-0.215
			c0.271-0.144,0.507-0.334,0.702-0.572c0.193-0.237,0.345-0.51,0.447-0.812c0.104-0.304,0.156-0.614,0.156-0.937
			c0-0.338-0.061-0.661-0.183-0.969c-0.121-0.309-0.285-0.576-0.493-0.807s-0.453-0.412-0.735-0.546
			c-0.28-0.134-0.587-0.202-0.916-0.202c-0.208,0-0.423,0.042-0.644,0.124c-0.221,0.083-0.429,0.19-0.624,0.325
			s-0.364,0.295-0.507,0.48c-0.145,0.188-0.236,0.383-0.279,0.592v1.938c0.095,0.225,0.216,0.436,0.363,0.63
			c0.146,0.195,0.315,0.364,0.508,0.507c0.19,0.145,0.394,0.256,0.61,0.338C503.243,139.021,503.469,139.062,503.702,139.062z"/>
		<path d="M507.902,144.248c0-0.201,0.016-0.391,0.049-0.568c0.033-0.176,0.095-0.346,0.186-0.508
			c0.092-0.16,0.217-0.314,0.375-0.462c0.159-0.147,0.368-0.293,0.626-0.438c0.151-0.082,0.307-0.162,0.462-0.239
			c0.156-0.078,0.301-0.161,0.43-0.25s0.233-0.183,0.317-0.283c0.083-0.103,0.125-0.222,0.125-0.356
			c0-0.086-0.021-0.172-0.061-0.259c-0.041-0.086-0.099-0.161-0.175-0.227c-0.076-0.066-0.171-0.119-0.284-0.159
			s-0.244-0.061-0.392-0.061c-0.15,0-0.288,0.021-0.412,0.062c-0.123,0.044-0.233,0.098-0.329,0.16
			c-0.098,0.062-0.181,0.13-0.25,0.201c-0.071,0.07-0.129,0.133-0.175,0.188l-0.433-0.485c0.04-0.045,0.108-0.106,0.204-0.187
			c0.097-0.078,0.218-0.157,0.364-0.237c0.146-0.08,0.314-0.15,0.508-0.209c0.191-0.058,0.406-0.086,0.645-0.086
			c0.231,0,0.441,0.03,0.63,0.094c0.187,0.062,0.345,0.149,0.474,0.262c0.129,0.111,0.229,0.242,0.299,0.391
			c0.071,0.148,0.106,0.307,0.106,0.475c0,0.195-0.043,0.367-0.129,0.515c-0.087,0.147-0.19,0.274-0.314,0.387
			s-0.257,0.207-0.398,0.285c-0.141,0.078-0.268,0.146-0.379,0.2c-0.109,0.056-0.234,0.122-0.375,0.201
			c-0.139,0.078-0.271,0.166-0.396,0.265c-0.127,0.101-0.236,0.209-0.33,0.33s-0.152,0.253-0.178,0.396h2.584v0.604L507.902,144.248
			L507.902,144.248z"/>
		<path d="M512.502,135.852v-0.781h3.965v0.781H512.502z M512.502,137.592v-0.779h3.965v0.779H512.502z"/>
	</g>
	<g>
		<path d="M500.184,130.615l2.574-5.291h0.962l2.562,5.291h-0.976l-2.066-4.264l-2.105,4.264H500.184z"/>
	</g>
	<line fill="none" stroke="#000000" x1="534" y1="136.926" x2="519.15" y2="136.926"/>
</g>
<g>
	<path d="M589.377,99.154c-0.562,0-1.059-0.139-1.488-0.417c-0.429-0.277-0.77-0.629-1.02-1.053v4.107h-1.146v-9.555h1.015v1.274
		c0.268-0.416,0.617-0.751,1.047-1.007c0.428-0.255,0.901-0.383,1.424-0.383c0.467,0,0.896,0.095,1.287,0.286
		c0.389,0.191,0.727,0.449,1.014,0.774c0.285,0.325,0.508,0.7,0.67,1.124c0.16,0.425,0.24,0.867,0.24,1.326
		c0,0.485-0.074,0.942-0.221,1.371c-0.148,0.43-0.355,0.803-0.625,1.119c-0.271,0.316-0.59,0.566-0.963,0.754
		C590.24,99.061,589.828,99.154,589.377,99.154z M589.025,98.166c0.34,0,0.645-0.072,0.918-0.215
		c0.271-0.143,0.506-0.334,0.701-0.572c0.194-0.238,0.346-0.508,0.448-0.812c0.104-0.303,0.156-0.615,0.156-0.936
		c0-0.338-0.061-0.66-0.184-0.969c-0.121-0.307-0.285-0.576-0.492-0.806c-0.209-0.229-0.453-0.411-0.736-0.546
		c-0.281-0.135-0.586-0.201-0.916-0.201c-0.207,0-0.422,0.041-0.643,0.123c-0.222,0.082-0.431,0.191-0.625,0.325
		c-0.195,0.134-0.363,0.294-0.507,0.481c-0.145,0.186-0.235,0.383-0.278,0.591v1.937c0.094,0.227,0.215,0.436,0.362,0.631
		c0.146,0.195,0.316,0.364,0.509,0.508c0.188,0.143,0.393,0.255,0.608,0.338C588.566,98.125,588.793,98.166,589.025,98.166z"/>
	<path d="M596.129,102.746v0.607h-2.721v-0.607h1.076v-2.955c-0.047,0.061-0.117,0.125-0.213,0.193
		c-0.097,0.067-0.203,0.131-0.322,0.188s-0.24,0.107-0.367,0.147c-0.127,0.039-0.238,0.061-0.334,0.061v-0.636
		c0.111,0,0.236-0.032,0.371-0.097c0.137-0.062,0.268-0.137,0.391-0.219c0.125-0.084,0.23-0.164,0.318-0.242
		c0.088-0.08,0.141-0.133,0.156-0.164h0.682v3.722L596.129,102.746L596.129,102.746z"/>
	<path d="M597.143,95.995v-1.04h3.836v1.04H597.143z"/>
</g>
<g>
	<path d="M585.508,89.72l2.574-5.291h0.961l2.561,5.291h-0.975l-2.066-4.264l-2.104,4.264H585.508z"/>
</g>
<g>
	<path d="M609.727,99.154c-0.562,0-1.059-0.139-1.487-0.417c-0.429-0.277-0.771-0.629-1.021-1.053v4.107h-1.145v-9.555h1.014v1.274
		c0.268-0.416,0.617-0.751,1.047-1.007c0.428-0.255,0.902-0.383,1.424-0.383c0.468,0,0.896,0.095,1.287,0.286
		c0.39,0.191,0.728,0.449,1.015,0.774c0.284,0.325,0.508,0.7,0.67,1.124c0.159,0.425,0.239,0.867,0.239,1.326
		c0,0.485-0.073,0.942-0.221,1.371c-0.148,0.43-0.354,0.803-0.625,1.119c-0.27,0.316-0.59,0.566-0.963,0.754
		C610.59,99.061,610.178,99.154,609.727,99.154z M609.375,98.166c0.34,0,0.645-0.072,0.918-0.215
		c0.271-0.143,0.506-0.334,0.701-0.572c0.195-0.238,0.346-0.508,0.449-0.812c0.104-0.303,0.155-0.615,0.155-0.936
		c0-0.338-0.061-0.66-0.184-0.969c-0.121-0.307-0.285-0.576-0.492-0.806c-0.209-0.229-0.453-0.411-0.736-0.546
		c-0.28-0.135-0.586-0.201-0.916-0.201c-0.206,0-0.422,0.041-0.643,0.123s-0.43,0.191-0.625,0.325
		c-0.195,0.134-0.363,0.294-0.506,0.481c-0.146,0.186-0.236,0.383-0.279,0.591v1.937c0.094,0.227,0.215,0.436,0.363,0.631
		c0.146,0.195,0.315,0.364,0.508,0.508c0.189,0.143,0.394,0.255,0.609,0.338C608.916,98.125,609.143,98.166,609.375,98.166z"/>
	<path d="M613.576,103.354c0-0.203,0.016-0.393,0.049-0.567c0.033-0.179,0.094-0.347,0.186-0.509
		c0.091-0.161,0.216-0.315,0.375-0.463c0.158-0.146,0.367-0.293,0.625-0.438c0.152-0.081,0.308-0.16,0.464-0.237
		c0.155-0.078,0.299-0.162,0.428-0.25c0.129-0.09,0.233-0.185,0.317-0.285c0.084-0.102,0.125-0.221,0.125-0.355
		c0-0.086-0.02-0.172-0.061-0.258s-0.098-0.162-0.174-0.229s-0.172-0.117-0.285-0.158s-0.244-0.062-0.391-0.062
		c-0.15,0-0.289,0.021-0.412,0.063s-0.234,0.097-0.33,0.158c-0.096,0.064-0.18,0.131-0.25,0.201
		c-0.07,0.071-0.129,0.135-0.174,0.189l-0.433-0.484c0.039-0.046,0.107-0.107,0.203-0.186c0.099-0.078,0.219-0.158,0.365-0.239
		c0.146-0.081,0.313-0.15,0.508-0.208c0.191-0.059,0.406-0.088,0.646-0.088c0.229,0,0.44,0.032,0.629,0.096
		c0.186,0.062,0.344,0.15,0.473,0.262c0.129,0.11,0.229,0.24,0.299,0.391c0.072,0.148,0.107,0.307,0.107,0.474
		c0,0.197-0.043,0.369-0.129,0.517c-0.086,0.146-0.191,0.274-0.314,0.387c-0.125,0.111-0.258,0.205-0.397,0.283
		c-0.142,0.078-0.269,0.146-0.38,0.201c-0.11,0.056-0.235,0.123-0.375,0.2c-0.139,0.078-0.271,0.166-0.397,0.267
		c-0.127,0.098-0.236,0.207-0.33,0.328s-0.152,0.254-0.178,0.395h2.584v0.607h-3.372V103.354z"/>
</g>
<g>
	<path d="M567.789,99.154c-0.467,0-0.9-0.096-1.299-0.286c-0.399-0.19-0.742-0.446-1.027-0.767s-0.51-0.693-0.67-1.119
		c-0.16-0.424-0.24-0.871-0.24-1.338c0-0.477,0.076-0.93,0.229-1.359c0.149-0.429,0.362-0.804,0.637-1.124
		c0.271-0.321,0.599-0.574,0.976-0.761c0.377-0.186,0.791-0.279,1.239-0.279c0.547,0,1.035,0.143,1.463,0.429
		c0.431,0.286,0.771,0.633,1.021,1.04v-4.056h1.145v8.086c0,0.269,0.121,0.407,0.363,0.416v0.987
		c-0.121,0.018-0.219,0.031-0.293,0.039s-0.146,0.014-0.215,0.014c-0.226,0-0.422-0.076-0.592-0.228
		c-0.168-0.151-0.252-0.327-0.252-0.526V97.75c-0.271,0.441-0.628,0.787-1.072,1.033C568.754,99.03,568.283,99.154,567.789,99.154z
		 M568.062,98.166c0.209,0,0.422-0.039,0.645-0.117c0.221-0.078,0.428-0.186,0.623-0.324s0.363-0.302,0.508-0.488
		c0.144-0.186,0.236-0.383,0.279-0.592v-1.949c-0.078-0.217-0.195-0.423-0.353-0.617c-0.155-0.195-0.332-0.365-0.524-0.508
		c-0.195-0.143-0.404-0.256-0.625-0.338c-0.222-0.082-0.439-0.123-0.656-0.123c-0.338,0-0.645,0.071-0.916,0.214
		c-0.273,0.144-0.508,0.334-0.703,0.572s-0.344,0.511-0.447,0.819c-0.104,0.307-0.155,0.621-0.155,0.941
		c0,0.339,0.061,0.662,0.182,0.969c0.121,0.309,0.285,0.574,0.494,0.8c0.207,0.226,0.453,0.405,0.733,0.54
		C567.428,98.1,567.732,98.166,568.062,98.166z"/>
	<path d="M576.408,94.955v-0.78h3.965v0.78H576.408z M576.408,96.697v-0.78h3.965v0.78H576.408z"/>
</g>
<g>
	<path d="M568.617,114.518c0-0.441,0.049-0.879,0.145-1.312c0.095-0.434,0.228-0.864,0.396-1.294
		c0.168-0.429,0.363-0.854,0.584-1.279c0.221-0.426,0.461-0.854,0.721-1.287l0.885,0.39c-0.164,0.252-0.344,0.563-0.539,0.937
		c-0.194,0.373-0.375,0.776-0.539,1.209c-0.166,0.435-0.305,0.882-0.416,1.347c-0.112,0.463-0.17,0.907-0.17,1.332
		c0,0.685,0.146,1.42,0.441,2.203c0.295,0.784,0.693,1.57,1.197,2.359l-0.847,0.441c-0.545-0.814-0.991-1.648-1.338-2.502
		C568.791,116.205,568.617,115.357,568.617,114.518z"/>
	<path d="M575.365,119.145c-0.513,0-0.978-0.095-1.398-0.285c-0.42-0.19-0.779-0.445-1.078-0.768
		c-0.299-0.32-0.53-0.693-0.694-1.117c-0.166-0.425-0.248-0.871-0.248-1.34c0-0.477,0.086-0.927,0.254-1.352
		c0.17-0.426,0.401-0.797,0.703-1.118c0.299-0.319,0.657-0.576,1.078-0.767c0.42-0.191,0.881-0.287,1.385-0.287
		c0.502,0,0.967,0.096,1.391,0.287c0.424,0.189,0.787,0.445,1.086,0.767s0.533,0.692,0.701,1.118
		c0.17,0.425,0.254,0.875,0.254,1.352c0,0.469-0.082,0.915-0.246,1.34c-0.166,0.424-0.399,0.797-0.703,1.117
		c-0.303,0.321-0.663,0.576-1.086,0.768C576.342,119.05,575.877,119.145,575.365,119.145z M573.115,115.648
		c0,0.354,0.059,0.685,0.176,0.987c0.117,0.304,0.277,0.567,0.482,0.794c0.202,0.225,0.44,0.401,0.715,0.531
		c0.271,0.13,0.563,0.195,0.877,0.195c0.312,0,0.604-0.065,0.877-0.195c0.272-0.13,0.514-0.311,0.723-0.539
		c0.207-0.229,0.369-0.499,0.486-0.806c0.117-0.31,0.176-0.64,0.176-0.995c0-0.348-0.059-0.674-0.176-0.98
		c-0.117-0.308-0.279-0.576-0.486-0.808c-0.209-0.229-0.449-0.408-0.723-0.539c-0.273-0.13-0.564-0.194-0.877-0.194
		c-0.313,0-0.605,0.067-0.877,0.201c-0.273,0.135-0.513,0.316-0.715,0.547c-0.205,0.229-0.365,0.497-0.482,0.807
		C573.174,114.961,573.115,115.293,573.115,115.648z"/>
	<path d="M583.775,113.23c-0.57,0.018-1.076,0.164-1.515,0.44c-0.438,0.277-0.748,0.663-0.93,1.157v4.188h-1.146v-6.787h1.066v1.573
		c0.234-0.469,0.541-0.848,0.924-1.139c0.381-0.289,0.787-0.452,1.222-0.486c0.088,0,0.159,0,0.223,0
		c0.061,0,0.111,0.005,0.154,0.013L583.775,113.23L583.775,113.23z"/>
	<path d="M588.078,119.016v-9.229h3.951c0.408,0,0.783,0.084,1.125,0.254c0.342,0.168,0.637,0.396,0.885,0.676
		c0.246,0.281,0.439,0.599,0.578,0.949s0.207,0.708,0.207,1.071c0,0.32-0.045,0.632-0.135,0.931
		c-0.093,0.299-0.224,0.569-0.392,0.812c-0.17,0.242-0.373,0.45-0.611,0.623c-0.237,0.174-0.504,0.301-0.799,0.377l2.236,3.537
		h-1.326l-2.106-3.314h-2.443v3.314H588.078z M589.248,114.66h2.795c0.242,0,0.461-0.053,0.656-0.156
		c0.194-0.104,0.36-0.244,0.5-0.422c0.139-0.178,0.248-0.384,0.326-0.617c0.077-0.234,0.116-0.477,0.116-0.729
		c0-0.26-0.047-0.506-0.137-0.734c-0.092-0.23-0.213-0.434-0.363-0.611c-0.151-0.178-0.33-0.315-0.532-0.416
		c-0.205-0.1-0.42-0.148-0.646-0.148h-2.717L589.248,114.66L589.248,114.66z"/>
	<path d="M596.619,119.016v-9.229h3.951c0.408,0,0.783,0.084,1.125,0.254c0.342,0.168,0.637,0.396,0.885,0.676
		c0.246,0.281,0.439,0.599,0.578,0.949s0.207,0.708,0.207,1.071c0,0.32-0.045,0.632-0.135,0.931
		c-0.093,0.299-0.224,0.569-0.392,0.812c-0.17,0.242-0.373,0.45-0.611,0.623c-0.237,0.174-0.504,0.301-0.799,0.377l2.236,3.537
		h-1.326l-2.106-3.314h-2.443v3.314H596.619z M597.789,114.66h2.795c0.242,0,0.461-0.053,0.656-0.156
		c0.194-0.104,0.36-0.244,0.5-0.422c0.139-0.178,0.248-0.384,0.326-0.617c0.077-0.234,0.116-0.477,0.116-0.729
		c0-0.26-0.047-0.506-0.137-0.734c-0.092-0.23-0.213-0.434-0.363-0.611c-0.151-0.178-0.33-0.315-0.532-0.416
		c-0.205-0.1-0.42-0.148-0.646-0.148h-2.717L597.789,114.66L597.789,114.66z"/>
	<path d="M607.188,114.518c0,0.84-0.172,1.688-0.52,2.541c-0.346,0.854-0.793,1.688-1.338,2.502l-0.846-0.44
		c0.502-0.789,0.899-1.575,1.194-2.359s0.443-1.52,0.443-2.202c0-0.426-0.058-0.869-0.17-1.334
		c-0.113-0.464-0.252-0.912-0.416-1.346s-0.344-0.836-0.539-1.209c-0.195-0.372-0.375-0.686-0.539-0.938l0.883-0.389
		c0.26,0.434,0.5,0.861,0.724,1.287c0.221,0.424,0.416,0.852,0.584,1.279c0.17,0.43,0.301,0.861,0.396,1.294
		C607.141,113.639,607.188,114.075,607.188,114.518z"/>
</g>
<g>
	<path d="M605.857,89.72l2.573-5.291h0.961l2.562,5.291h-0.976l-2.065-4.264l-2.105,4.264H605.857z"/>
</g>
<g>
	<path d="M337.738,146.348h-1.145v-3.797c0-0.729-0.109-1.257-0.331-1.586c-0.222-0.33-0.558-0.494-1.008-0.494
		c-0.233,0-0.468,0.045-0.702,0.137c-0.233,0.092-0.455,0.216-0.663,0.371s-0.39,0.342-0.546,0.56
		c-0.155,0.217-0.272,0.455-0.351,0.715v4.095h-1.146v-6.785h1.04v1.455c0.27-0.477,0.656-0.857,1.164-1.144
		c0.507-0.286,1.06-0.431,1.657-0.431c0.39,0,0.715,0.072,0.975,0.216c0.261,0.143,0.469,0.342,0.624,0.598
		c0.156,0.257,0.268,0.558,0.332,0.904c0.064,0.346,0.098,0.723,0.098,1.131L337.738,146.348L337.738,146.348z"/>
	<path d="M338.923,150.676c0-0.201,0.017-0.392,0.049-0.568c0.033-0.176,0.096-0.346,0.187-0.508s0.216-0.315,0.375-0.463
		c0.159-0.146,0.368-0.293,0.626-0.438c0.15-0.08,0.306-0.16,0.462-0.238s0.3-0.162,0.429-0.25s0.234-0.185,0.318-0.284
		c0.083-0.101,0.125-0.22,0.125-0.355c0-0.086-0.021-0.172-0.062-0.258c-0.041-0.086-0.099-0.162-0.175-0.228
		s-0.171-0.119-0.284-0.16c-0.112-0.04-0.243-0.061-0.391-0.061c-0.151,0-0.289,0.021-0.413,0.063
		c-0.123,0.043-0.233,0.096-0.329,0.159c-0.097,0.063-0.18,0.13-0.25,0.201c-0.071,0.071-0.129,0.134-0.175,0.188l-0.432-0.484
		c0.04-0.045,0.107-0.107,0.204-0.186s0.218-0.158,0.363-0.238c0.146-0.082,0.315-0.15,0.508-0.209
		c0.191-0.059,0.406-0.088,0.646-0.088c0.23,0,0.441,0.032,0.629,0.096c0.188,0.062,0.345,0.15,0.474,0.262
		c0.129,0.112,0.229,0.241,0.3,0.391c0.07,0.148,0.105,0.308,0.105,0.474c0,0.196-0.043,0.368-0.129,0.516s-0.19,0.275-0.313,0.388
		c-0.124,0.111-0.258,0.205-0.398,0.283c-0.141,0.079-0.268,0.146-0.379,0.2c-0.11,0.058-0.235,0.123-0.375,0.201
		c-0.139,0.078-0.271,0.167-0.397,0.267c-0.127,0.098-0.235,0.209-0.33,0.329c-0.094,0.121-0.151,0.253-0.178,0.394h2.584v0.606
		L338.923,150.676L338.923,150.676z"/>
</g>
<g>
	<path d="M328.121,16.325V5.977h4.373c0.446,0,0.856,0.095,1.23,0.284c0.374,0.189,0.697,0.438,0.97,0.743
		c0.271,0.306,0.482,0.654,0.635,1.042c0.149,0.389,0.226,0.783,0.226,1.181c0,0.379-0.056,0.741-0.168,1.086
		c-0.11,0.345-0.267,0.656-0.466,0.933c-0.199,0.277-0.439,0.51-0.722,0.7c-0.282,0.189-0.599,0.318-0.947,0.386l2.536,3.994h-1.151
		l-2.435-3.819h-3.062v3.819L328.121,16.325L328.121,16.325z M329.142,11.603h3.383c0.301,0,0.574-0.066,0.822-0.197
		c0.248-0.131,0.459-0.309,0.635-0.532c0.175-0.223,0.311-0.476,0.407-0.758c0.098-0.282,0.146-0.578,0.146-0.889
		s-0.057-0.609-0.167-0.896c-0.112-0.286-0.263-0.537-0.452-0.75s-0.413-0.384-0.671-0.51c-0.257-0.126-0.526-0.19-0.81-0.19h-3.294
		V11.603z"/>
	<path d="M340.495,16.471c-0.554,0-1.062-0.104-1.522-0.313c-0.462-0.209-0.861-0.496-1.201-0.86
		c-0.342-0.365-0.605-0.785-0.796-1.261c-0.189-0.476-0.283-0.986-0.283-1.531c0-0.534,0.095-1.037,0.283-1.508
		c0.189-0.471,0.452-0.884,0.787-1.239c0.335-0.355,0.736-0.636,1.202-0.846c0.467-0.208,0.972-0.313,1.518-0.313
		c0.554,0,1.061,0.104,1.521,0.313c0.462,0.209,0.857,0.494,1.188,0.853c0.329,0.359,0.587,0.772,0.771,1.239
		c0.185,0.466,0.276,0.962,0.276,1.487c0,0.078,0,0.155,0,0.233c0,0.078-0.005,0.131-0.016,0.16h-6.5
		c0.029,0.408,0.124,0.785,0.284,1.13c0.16,0.345,0.366,0.644,0.619,0.896s0.542,0.449,0.867,0.59s0.673,0.211,1.042,0.211
		c0.243,0,0.485-0.034,0.729-0.102s0.468-0.16,0.671-0.277c0.204-0.117,0.39-0.26,0.555-0.43c0.165-0.17,0.292-0.357,0.379-0.562
		l0.859,0.233c-0.116,0.282-0.281,0.537-0.495,0.765c-0.215,0.229-0.462,0.428-0.743,0.598c-0.282,0.17-0.594,0.301-0.934,0.394
		C341.218,16.424,340.864,16.471,340.495,16.471z M343.294,12.127c-0.029-0.408-0.124-0.78-0.284-1.115
		c-0.16-0.335-0.363-0.625-0.611-0.867s-0.534-0.432-0.859-0.568c-0.326-0.136-0.674-0.204-1.043-0.204s-0.719,0.068-1.049,0.204
		c-0.331,0.136-0.619,0.326-0.867,0.568s-0.447,0.534-0.598,0.875c-0.151,0.341-0.24,0.709-0.271,1.107H343.294z"/>
	<path d="M349.648,16.471c-0.642,0-1.207-0.163-1.697-0.488c-0.491-0.326-0.887-0.736-1.188-1.232v4.679h-0.99V8.731h0.89v1.472
		c0.311-0.476,0.714-0.862,1.21-1.159c0.495-0.296,1.034-0.444,1.617-0.444c0.523,0,1.006,0.109,1.442,0.328
		c0.438,0.219,0.816,0.51,1.138,0.875c0.319,0.365,0.569,0.785,0.751,1.261c0.179,0.477,0.27,0.967,0.27,1.472
		c0,0.535-0.083,1.04-0.248,1.516c-0.165,0.477-0.4,0.896-0.707,1.254c-0.306,0.359-0.671,0.644-1.093,0.853
		C350.618,16.366,350.154,16.471,349.648,16.471z M349.372,15.597c0.408,0,0.779-0.088,1.115-0.263
		c0.335-0.175,0.621-0.405,0.858-0.692c0.238-0.286,0.42-0.612,0.547-0.977c0.126-0.364,0.189-0.741,0.189-1.129
		c0-0.408-0.073-0.796-0.219-1.166c-0.146-0.369-0.346-0.694-0.599-0.977c-0.253-0.282-0.552-0.505-0.896-0.67
		c-0.345-0.165-0.717-0.248-1.115-0.248c-0.252,0-0.517,0.051-0.794,0.153s-0.534,0.238-0.771,0.408
		c-0.238,0.17-0.442,0.369-0.612,0.598c-0.17,0.229-0.274,0.469-0.313,0.721v2.332c0.117,0.272,0.266,0.525,0.444,0.758
		c0.18,0.233,0.384,0.435,0.612,0.605s0.474,0.304,0.735,0.401C348.817,15.548,349.09,15.597,349.372,15.597z"/>
	<path d="M358.043,16.471c-0.554,0-1.062-0.104-1.521-0.313c-0.463-0.209-0.862-0.496-1.202-0.86
		c-0.342-0.365-0.605-0.785-0.795-1.261c-0.19-0.476-0.284-0.986-0.284-1.531c0-0.534,0.095-1.037,0.284-1.508
		c0.188-0.471,0.451-0.884,0.786-1.239c0.335-0.355,0.736-0.636,1.202-0.846c0.468-0.208,0.973-0.313,1.518-0.313
		c0.554,0,1.061,0.104,1.521,0.313c0.462,0.209,0.857,0.494,1.188,0.853c0.33,0.359,0.587,0.772,0.771,1.239
		c0.185,0.466,0.276,0.962,0.276,1.487c0,0.078,0,0.155,0,0.233c0,0.078-0.005,0.131-0.015,0.16h-6.5
		c0.028,0.408,0.123,0.785,0.283,1.13c0.16,0.345,0.366,0.644,0.619,0.896s0.542,0.449,0.867,0.59s0.673,0.211,1.042,0.211
		c0.243,0,0.486-0.034,0.729-0.102c0.243-0.068,0.468-0.16,0.672-0.277c0.203-0.117,0.389-0.26,0.554-0.43
		c0.165-0.17,0.292-0.357,0.379-0.562l0.86,0.233c-0.117,0.282-0.282,0.537-0.496,0.765c-0.214,0.229-0.461,0.428-0.743,0.598
		s-0.593,0.301-0.934,0.394C358.766,16.424,358.412,16.471,358.043,16.471z M360.842,12.127c-0.028-0.408-0.124-0.78-0.284-1.115
		c-0.159-0.335-0.363-0.625-0.611-0.867s-0.534-0.432-0.859-0.568c-0.326-0.136-0.674-0.204-1.043-0.204s-0.719,0.068-1.049,0.204
		c-0.331,0.136-0.619,0.326-0.867,0.568s-0.447,0.534-0.598,0.875c-0.151,0.341-0.24,0.709-0.271,1.107H360.842z"/>
	<path d="M365.229,16.471c-0.359,0-0.691-0.061-0.998-0.182s-0.573-0.289-0.803-0.502c-0.229-0.213-0.404-0.464-0.53-0.751
		c-0.128-0.286-0.189-0.595-0.189-0.925c0-0.33,0.077-0.636,0.232-0.918c0.154-0.282,0.374-0.524,0.655-0.729
		c0.281-0.204,0.617-0.362,1.006-0.474c0.39-0.112,0.816-0.168,1.282-0.168c0.39,0,0.782,0.034,1.182,0.102
		c0.397,0.068,0.753,0.166,1.063,0.292V11.53c0-0.67-0.188-1.202-0.569-1.596c-0.379-0.394-0.902-0.59-1.572-0.59
		c-0.39,0-0.787,0.078-1.195,0.233c-0.408,0.155-0.821,0.379-1.239,0.67l-0.35-0.656c0.98-0.661,1.934-0.991,2.855-0.991
		c0.952,0,1.7,0.267,2.245,0.801c0.544,0.535,0.815,1.273,0.815,2.216v3.425c0,0.272,0.122,0.408,0.365,0.408v0.875
		c-0.166,0.029-0.292,0.044-0.379,0.044c-0.254,0-0.45-0.063-0.592-0.189c-0.141-0.126-0.216-0.301-0.226-0.525l-0.029-0.598
		c-0.35,0.457-0.79,0.807-1.318,1.049C366.411,16.348,365.841,16.471,365.229,16.471z M365.462,15.713
		c0.516,0,0.989-0.097,1.421-0.292c0.434-0.194,0.761-0.452,0.984-0.772c0.087-0.087,0.152-0.182,0.196-0.284
		c0.044-0.102,0.065-0.197,0.065-0.284v-1.239c-0.331-0.126-0.674-0.224-1.028-0.292c-0.354-0.068-0.717-0.102-1.086-0.102
		c-0.698,0-1.268,0.146-1.705,0.437c-0.437,0.292-0.654,0.676-0.654,1.152c0,0.233,0.046,0.452,0.138,0.656
		c0.093,0.204,0.219,0.381,0.379,0.532c0.161,0.151,0.354,0.27,0.576,0.357S365.209,15.713,365.462,15.713z"/>
	<path d="M374.849,15.961c-0.059,0.029-0.144,0.068-0.256,0.117c-0.11,0.048-0.24,0.097-0.386,0.146
		c-0.146,0.049-0.312,0.092-0.496,0.131c-0.185,0.039-0.379,0.058-0.583,0.058c-0.214,0-0.417-0.029-0.611-0.087
		c-0.194-0.058-0.364-0.148-0.511-0.27c-0.146-0.122-0.262-0.274-0.35-0.459s-0.131-0.398-0.131-0.642V9.519h-1.051V8.731h1.051
		V6.167h0.99v2.565h1.749v0.787h-1.749v5.16c0.02,0.282,0.118,0.488,0.3,0.62c0.18,0.131,0.386,0.197,0.618,0.197
		c0.281,0,0.529-0.046,0.743-0.139c0.214-0.093,0.351-0.158,0.408-0.197L374.849,15.961z"/>
	<path d="M384.628,15.421v0.904h-4.94v-0.904h2.069V9.184c-0.077,0.116-0.211,0.243-0.399,0.379
		c-0.189,0.136-0.398,0.262-0.627,0.379c-0.229,0.117-0.465,0.214-0.707,0.292c-0.243,0.078-0.457,0.117-0.642,0.117V9.388
		c0.224,0,0.468-0.063,0.735-0.189s0.52-0.272,0.758-0.438c0.238-0.165,0.439-0.321,0.605-0.466
		c0.164-0.146,0.257-0.243,0.275-0.292h1.021v7.418H384.628z"/>
	<path d="M393.067,12.055c0,0.641-0.094,1.231-0.276,1.771c-0.186,0.539-0.44,1.005-0.766,1.399c-0.326,0.394-0.713,0.7-1.159,0.918
		c-0.446,0.219-0.934,0.328-1.457,0.328c-0.524,0-1.011-0.109-1.457-0.328c-0.447-0.219-0.834-0.525-1.159-0.918
		s-0.581-0.86-0.766-1.399c-0.186-0.54-0.276-1.13-0.276-1.771c0-0.641,0.092-1.231,0.276-1.771
		c0.185-0.539,0.439-1.005,0.766-1.399c0.326-0.394,0.712-0.702,1.159-0.926c0.446-0.223,0.933-0.335,1.457-0.335
		c0.523,0,1.011,0.112,1.457,0.335c0.446,0.224,0.834,0.532,1.159,0.926c0.324,0.394,0.58,0.86,0.766,1.399
		C392.975,10.823,393.067,11.414,393.067,12.055z M392.062,12.055c0-0.525-0.065-1-0.196-1.428
		c-0.132-0.428-0.313-0.794-0.547-1.101c-0.234-0.307-0.514-0.544-0.838-0.714c-0.326-0.17-0.684-0.255-1.071-0.255
		c-0.398,0-0.761,0.085-1.086,0.255s-0.604,0.408-0.838,0.714c-0.234,0.306-0.415,0.673-0.547,1.101
		c-0.132,0.428-0.196,0.903-0.196,1.428s0.064,1.001,0.196,1.428c0.132,0.428,0.312,0.794,0.547,1.101
		c0.233,0.307,0.513,0.542,0.838,0.707s0.688,0.248,1.086,0.248c0.389,0,0.745-0.083,1.071-0.248
		c0.324-0.165,0.604-0.401,0.838-0.707c0.233-0.306,0.415-0.673,0.547-1.101C391.996,13.056,392.062,12.58,392.062,12.055z"/>
	<path d="M401.987,12.055c0,0.641-0.094,1.231-0.276,1.771c-0.186,0.539-0.439,1.005-0.766,1.399s-0.712,0.7-1.159,0.918
		c-0.446,0.219-0.934,0.328-1.457,0.328c-0.524,0-1.011-0.109-1.457-0.328c-0.447-0.219-0.834-0.525-1.159-0.918
		s-0.581-0.86-0.766-1.399c-0.186-0.54-0.276-1.13-0.276-1.771c0-0.641,0.092-1.231,0.276-1.771
		c0.185-0.539,0.439-1.005,0.766-1.399c0.326-0.394,0.712-0.702,1.159-0.926c0.446-0.223,0.933-0.335,1.457-0.335
		c0.523,0,1.011,0.112,1.457,0.335c0.447,0.224,0.834,0.532,1.159,0.926c0.324,0.394,0.58,0.86,0.766,1.399
		C401.895,10.823,401.987,11.414,401.987,12.055z M400.981,12.055c0-0.525-0.065-1-0.196-1.428
		c-0.132-0.428-0.313-0.794-0.547-1.101c-0.234-0.307-0.514-0.544-0.838-0.714c-0.326-0.17-0.684-0.255-1.071-0.255
		c-0.398,0-0.761,0.085-1.086,0.255s-0.604,0.408-0.838,0.714c-0.234,0.306-0.415,0.673-0.547,1.101
		c-0.132,0.428-0.196,0.903-0.196,1.428s0.064,1.001,0.196,1.428c0.132,0.428,0.312,0.794,0.547,1.101
		c0.233,0.307,0.513,0.542,0.838,0.707s0.688,0.248,1.086,0.248c0.389,0,0.745-0.083,1.071-0.248
		c0.324-0.165,0.604-0.401,0.838-0.707c0.233-0.306,0.415-0.673,0.547-1.101C400.916,13.056,400.981,12.58,400.981,12.055z"/>
	<path d="M410.907,12.055c0,0.641-0.093,1.231-0.276,1.771c-0.186,0.539-0.439,1.005-0.766,1.399s-0.712,0.7-1.159,0.918
		c-0.446,0.219-0.933,0.328-1.457,0.328s-1.011-0.109-1.457-0.328c-0.447-0.219-0.834-0.525-1.159-0.918s-0.581-0.86-0.766-1.399
		c-0.186-0.54-0.276-1.13-0.276-1.771c0-0.641,0.092-1.231,0.276-1.771c0.185-0.539,0.439-1.005,0.766-1.399
		c0.326-0.394,0.712-0.702,1.159-0.926c0.446-0.223,0.933-0.335,1.457-0.335s1.011,0.112,1.457,0.335
		c0.447,0.224,0.834,0.532,1.159,0.926c0.325,0.394,0.58,0.86,0.766,1.399C410.814,10.823,410.907,11.414,410.907,12.055z
		 M409.901,12.055c0-0.525-0.065-1-0.196-1.428c-0.132-0.428-0.313-0.794-0.547-1.101c-0.234-0.307-0.514-0.544-0.838-0.714
		c-0.326-0.17-0.684-0.255-1.071-0.255c-0.398,0-0.761,0.085-1.086,0.255s-0.604,0.408-0.838,0.714
		c-0.234,0.306-0.415,0.673-0.547,1.101c-0.132,0.428-0.196,0.903-0.196,1.428s0.064,1.001,0.196,1.428
		c0.132,0.428,0.312,0.794,0.547,1.101c0.233,0.307,0.513,0.542,0.838,0.707s0.688,0.248,1.086,0.248
		c0.389,0,0.745-0.083,1.071-0.248c0.324-0.165,0.604-0.401,0.838-0.707c0.233-0.306,0.415-0.673,0.547-1.101
		C409.836,13.056,409.901,12.58,409.901,12.055z"/>
	<path d="M419.827,12.055c0,0.641-0.093,1.231-0.276,1.771c-0.186,0.539-0.439,1.005-0.766,1.399s-0.712,0.7-1.159,0.918
		c-0.446,0.219-0.933,0.328-1.457,0.328s-1.011-0.109-1.457-0.328c-0.447-0.219-0.834-0.525-1.159-0.918
		c-0.324-0.393-0.581-0.86-0.766-1.399c-0.186-0.54-0.276-1.13-0.276-1.771c0-0.641,0.093-1.231,0.276-1.771
		c0.185-0.539,0.439-1.005,0.766-1.399c0.326-0.394,0.712-0.702,1.159-0.926c0.446-0.223,0.933-0.335,1.457-0.335
		s1.011,0.112,1.457,0.335c0.447,0.224,0.834,0.532,1.159,0.926c0.325,0.394,0.58,0.86,0.766,1.399
		C419.734,10.823,419.827,11.414,419.827,12.055z M418.821,12.055c0-0.525-0.065-1-0.196-1.428
		c-0.132-0.428-0.312-0.794-0.547-1.101s-0.513-0.544-0.838-0.714c-0.326-0.17-0.684-0.255-1.071-0.255
		c-0.398,0-0.761,0.085-1.086,0.255s-0.604,0.408-0.838,0.714c-0.234,0.306-0.415,0.673-0.547,1.101
		c-0.131,0.428-0.196,0.903-0.196,1.428s0.065,1.001,0.196,1.428c0.132,0.428,0.312,0.794,0.547,1.101
		c0.233,0.307,0.513,0.542,0.838,0.707s0.688,0.248,1.086,0.248c0.389,0,0.745-0.083,1.071-0.248
		c0.325-0.165,0.604-0.401,0.838-0.707s0.415-0.673,0.547-1.101C418.756,13.056,418.821,12.58,418.821,12.055z"/>
	<path d="M429.083,15.961c-0.059,0.029-0.144,0.068-0.256,0.117c-0.111,0.048-0.24,0.097-0.386,0.146
		c-0.146,0.049-0.312,0.092-0.496,0.131c-0.186,0.039-0.379,0.058-0.583,0.058c-0.214,0-0.417-0.029-0.611-0.087
		c-0.195-0.058-0.365-0.148-0.511-0.27c-0.146-0.122-0.262-0.274-0.351-0.459c-0.088-0.185-0.131-0.398-0.131-0.642V9.519h-1.05
		V8.731h1.05V6.167h0.991v2.565h1.749v0.787h-1.749v5.16c0.019,0.282,0.118,0.488,0.299,0.62c0.18,0.131,0.386,0.197,0.619,0.197
		c0.281,0,0.529-0.046,0.743-0.139c0.214-0.093,0.35-0.158,0.408-0.197L429.083,15.961z"/>
	<path d="M430.321,7.143V5.686h0.991v1.458L430.321,7.143L430.321,7.143z M430.321,16.325V8.731h0.991v7.594H430.321z"/>
	<path d="M444.794,16.325h-0.991v-4.241c0-0.884-0.141-1.535-0.423-1.953c-0.281-0.417-0.699-0.627-1.253-0.627
		c-0.292,0-0.566,0.054-0.823,0.161c-0.258,0.107-0.496,0.257-0.715,0.452c-0.219,0.195-0.41,0.425-0.575,0.692
		c-0.166,0.267-0.292,0.561-0.379,0.882v4.635h-0.991v-4.241c0-0.904-0.137-1.56-0.407-1.968c-0.272-0.408-0.69-0.612-1.254-0.612
		c-0.573,0-1.083,0.199-1.53,0.598c-0.446,0.398-0.769,0.923-0.962,1.574v4.649h-0.991V8.731h0.904v1.72
		c0.311-0.583,0.719-1.037,1.224-1.363c0.506-0.326,1.064-0.488,1.677-0.488c0.642,0,1.153,0.18,1.537,0.539
		c0.384,0.36,0.62,0.831,0.707,1.414c0.709-1.302,1.687-1.953,2.93-1.953c0.429,0,0.789,0.078,1.087,0.233
		c0.296,0.156,0.533,0.377,0.714,0.663c0.18,0.287,0.312,0.632,0.394,1.035c0.083,0.403,0.124,0.853,0.124,1.348v4.446H444.794z"/>
	<path d="M450.172,16.471c-0.554,0-1.062-0.104-1.521-0.313c-0.463-0.209-0.862-0.496-1.202-0.86
		c-0.341-0.365-0.605-0.785-0.795-1.261c-0.19-0.476-0.284-0.986-0.284-1.531c0-0.534,0.095-1.037,0.284-1.508
		c0.188-0.471,0.452-0.884,0.787-1.239c0.335-0.355,0.735-0.636,1.201-0.846c0.468-0.208,0.973-0.313,1.518-0.313
		c0.554,0,1.061,0.104,1.521,0.313c0.462,0.209,0.857,0.494,1.188,0.853c0.33,0.359,0.587,0.772,0.771,1.239
		c0.185,0.466,0.276,0.962,0.276,1.487c0,0.078,0,0.155,0,0.233c0,0.078-0.005,0.131-0.015,0.16h-6.5
		c0.028,0.408,0.124,0.785,0.283,1.13c0.16,0.345,0.366,0.644,0.619,0.896s0.542,0.449,0.867,0.59s0.673,0.211,1.042,0.211
		c0.243,0,0.486-0.034,0.729-0.102c0.242-0.068,0.467-0.16,0.671-0.277s0.389-0.26,0.554-0.43c0.165-0.17,0.292-0.357,0.379-0.562
		l0.86,0.233c-0.117,0.282-0.282,0.537-0.496,0.765c-0.214,0.229-0.461,0.428-0.743,0.598s-0.593,0.301-0.934,0.394
		C450.895,16.424,450.541,16.471,450.172,16.471z M452.971,12.127c-0.028-0.408-0.124-0.78-0.283-1.115
		c-0.16-0.335-0.364-0.625-0.612-0.867s-0.534-0.432-0.859-0.568c-0.326-0.136-0.674-0.204-1.043-0.204s-0.719,0.068-1.049,0.204
		c-0.331,0.136-0.619,0.326-0.867,0.568s-0.447,0.534-0.598,0.875c-0.151,0.341-0.24,0.709-0.271,1.107H452.971z"/>
	<path d="M457.97,16.471c-0.593,0-1.171-0.097-1.733-0.291c-0.563-0.194-1.05-0.476-1.457-0.846l0.451-0.67
		c0.428,0.35,0.861,0.612,1.305,0.787c0.442,0.175,0.916,0.262,1.421,0.262c0.612,0,1.101-0.124,1.465-0.372s0.547-0.6,0.547-1.057
		c0-0.213-0.049-0.391-0.146-0.532c-0.099-0.141-0.24-0.265-0.431-0.372c-0.189-0.106-0.428-0.201-0.715-0.284
		c-0.286-0.083-0.619-0.167-0.998-0.255c-0.438-0.107-0.815-0.214-1.137-0.321c-0.321-0.106-0.586-0.228-0.795-0.364
		c-0.209-0.136-0.364-0.304-0.466-0.503c-0.104-0.199-0.153-0.449-0.153-0.75c0-0.379,0.075-0.714,0.226-1.006
		c0.151-0.292,0.354-0.532,0.612-0.721c0.258-0.189,0.56-0.333,0.904-0.43c0.345-0.097,0.711-0.146,1.1-0.146
		c0.583,0,1.113,0.095,1.589,0.284c0.478,0.189,0.86,0.439,1.151,0.75l-0.48,0.583c-0.281-0.292-0.625-0.51-1.027-0.656
		c-0.403-0.146-0.823-0.219-1.26-0.219c-0.264,0-0.507,0.027-0.729,0.08c-0.224,0.054-0.42,0.139-0.59,0.255
		c-0.17,0.116-0.304,0.265-0.401,0.444c-0.097,0.18-0.146,0.391-0.146,0.634c0,0.204,0.034,0.37,0.103,0.496
		c0.067,0.126,0.181,0.236,0.335,0.328c0.155,0.092,0.353,0.175,0.59,0.248c0.238,0.073,0.527,0.148,0.867,0.226
		c0.486,0.117,0.913,0.233,1.283,0.35c0.369,0.117,0.678,0.253,0.925,0.408c0.248,0.156,0.437,0.345,0.562,0.568
		c0.126,0.224,0.188,0.496,0.188,0.816c0,0.7-0.268,1.253-0.802,1.662C459.594,16.266,458.874,16.471,457.97,16.471z"/>
</g>
<g>
	<path d="M25.746,24.825V14.477h4.285c0.447,0,0.857,0.095,1.231,0.284c0.374,0.189,0.697,0.438,0.97,0.743
		c0.271,0.306,0.485,0.654,0.642,1.042c0.155,0.389,0.232,0.783,0.232,1.181c0,0.428-0.072,0.838-0.219,1.232
		c-0.146,0.393-0.35,0.741-0.611,1.042c-0.263,0.301-0.576,0.544-0.94,0.729c-0.364,0.185-0.771,0.277-1.217,0.277h-3.353v3.819
		L25.746,24.825L25.746,24.825z M26.767,20.103h3.309c0.301,0,0.576-0.066,0.823-0.197c0.248-0.131,0.459-0.306,0.634-0.525
		c0.176-0.219,0.312-0.471,0.408-0.758c0.098-0.287,0.146-0.585,0.146-0.896c0-0.32-0.057-0.624-0.168-0.911
		c-0.112-0.287-0.263-0.537-0.452-0.751c-0.189-0.213-0.413-0.381-0.67-0.502c-0.258-0.122-0.527-0.183-0.81-0.183h-3.221
		L26.767,20.103L26.767,20.103z"/>
	<path d="M37.713,24.971c-0.554,0-1.06-0.104-1.517-0.313c-0.456-0.209-0.853-0.493-1.188-0.853
		c-0.335-0.36-0.595-0.777-0.779-1.254c-0.185-0.476-0.277-0.976-0.277-1.501c0-0.534,0.095-1.04,0.284-1.516
		c0.189-0.476,0.452-0.894,0.787-1.253c0.335-0.359,0.731-0.646,1.188-0.86c0.457-0.213,0.957-0.32,1.502-0.32
		c0.544,0,1.047,0.107,1.508,0.32c0.462,0.214,0.86,0.501,1.195,0.86c0.335,0.359,0.598,0.777,0.787,1.253
		c0.189,0.476,0.284,0.981,0.284,1.516c0,0.525-0.092,1.025-0.276,1.501c-0.186,0.477-0.445,0.895-0.78,1.254
		c-0.335,0.359-0.733,0.644-1.195,0.853C38.774,24.866,38.267,24.971,37.713,24.971z M34.958,21.065
		c0,0.428,0.073,0.823,0.219,1.188c0.146,0.364,0.342,0.685,0.59,0.962c0.248,0.277,0.539,0.493,0.875,0.648
		c0.335,0.155,0.692,0.233,1.071,0.233s0.735-0.081,1.071-0.241c0.335-0.16,0.629-0.379,0.882-0.656
		c0.252-0.277,0.451-0.6,0.598-0.969c0.146-0.369,0.218-0.768,0.218-1.195c0-0.417-0.072-0.813-0.218-1.188
		c-0.146-0.374-0.346-0.699-0.598-0.977c-0.253-0.277-0.547-0.495-0.882-0.656c-0.336-0.16-0.692-0.24-1.071-0.24
		s-0.734,0.08-1.064,0.24c-0.33,0.161-0.622,0.381-0.874,0.663c-0.253,0.282-0.452,0.61-0.598,0.984
		C35.031,20.237,34.958,20.637,34.958,21.065z"/>
	<path d="M46.385,24.971c-0.554,0-1.06-0.104-1.517-0.313c-0.456-0.209-0.853-0.493-1.188-0.853
		c-0.335-0.36-0.595-0.777-0.779-1.254c-0.185-0.476-0.277-0.976-0.277-1.501c0-0.534,0.095-1.04,0.284-1.516
		c0.189-0.476,0.452-0.894,0.787-1.253c0.335-0.359,0.731-0.646,1.188-0.86c0.457-0.213,0.957-0.32,1.502-0.32
		c0.544,0,1.047,0.107,1.508,0.32c0.462,0.214,0.86,0.501,1.195,0.86c0.335,0.359,0.598,0.777,0.787,1.253
		c0.189,0.476,0.284,0.981,0.284,1.516c0,0.525-0.092,1.025-0.276,1.501c-0.186,0.477-0.445,0.895-0.78,1.254
		c-0.335,0.359-0.733,0.644-1.195,0.853C47.446,24.866,46.938,24.971,46.385,24.971z M43.63,21.065c0,0.428,0.073,0.823,0.219,1.188
		c0.146,0.364,0.342,0.685,0.59,0.962c0.248,0.277,0.539,0.493,0.875,0.648c0.335,0.155,0.692,0.233,1.071,0.233
		c0.379,0,0.735-0.081,1.071-0.241c0.335-0.16,0.629-0.379,0.882-0.656c0.252-0.277,0.451-0.6,0.598-0.969
		c0.146-0.369,0.218-0.768,0.218-1.195c0-0.417-0.072-0.813-0.218-1.188c-0.146-0.374-0.346-0.699-0.598-0.977
		c-0.253-0.277-0.547-0.495-0.882-0.656c-0.336-0.16-0.692-0.24-1.071-0.24c-0.379,0-0.734,0.08-1.064,0.24
		c-0.33,0.161-0.622,0.381-0.874,0.663c-0.253,0.282-0.452,0.61-0.598,0.984C43.703,20.237,43.63,20.637,43.63,21.065z"/>
	<path d="M51.864,14.186h0.991v8.92c0,0.282,0.078,0.503,0.233,0.663c0.155,0.16,0.374,0.24,0.655,0.24
		c0.107,0,0.233-0.014,0.379-0.043c0.146-0.029,0.282-0.068,0.408-0.117l0.175,0.802c-0.185,0.078-0.41,0.141-0.678,0.189
		c-0.267,0.048-0.498,0.073-0.691,0.073c-0.457,0-0.816-0.128-1.079-0.386c-0.263-0.257-0.394-0.62-0.394-1.086L51.864,14.186
		L51.864,14.186z"/>
	<path d="M59.063,24.971c-0.554,0-1.062-0.104-1.522-0.313c-0.462-0.209-0.862-0.496-1.202-0.86
		c-0.341-0.365-0.605-0.785-0.795-1.261s-0.284-0.986-0.284-1.531c0-0.534,0.095-1.037,0.284-1.508
		c0.189-0.471,0.452-0.884,0.787-1.239c0.335-0.355,0.736-0.636,1.202-0.846C58,17.205,58.505,17.1,59.05,17.1
		c0.554,0,1.061,0.104,1.522,0.313c0.462,0.209,0.857,0.494,1.188,0.853c0.33,0.359,0.587,0.772,0.772,1.239
		c0.184,0.466,0.276,0.962,0.276,1.487c0,0.078,0,0.155,0,0.233c0,0.078-0.005,0.131-0.015,0.16h-6.5
		c0.029,0.408,0.124,0.785,0.284,1.13c0.16,0.345,0.366,0.644,0.619,0.896c0.253,0.252,0.542,0.449,0.867,0.59
		s0.673,0.211,1.042,0.211c0.243,0,0.486-0.034,0.729-0.102s0.467-0.16,0.671-0.277s0.389-0.26,0.554-0.43
		c0.165-0.17,0.292-0.357,0.379-0.562l0.86,0.233c-0.117,0.282-0.282,0.537-0.496,0.765c-0.214,0.229-0.461,0.428-0.743,0.598
		c-0.282,0.17-0.593,0.301-0.933,0.394C59.786,24.924,59.433,24.971,59.063,24.971z M61.862,20.627
		c-0.029-0.408-0.124-0.78-0.284-1.115c-0.16-0.335-0.364-0.625-0.612-0.867s-0.534-0.432-0.859-0.568
		c-0.326-0.136-0.674-0.204-1.043-0.204s-0.719,0.068-1.049,0.204c-0.331,0.136-0.619,0.326-0.867,0.568S56.7,19.18,56.55,19.52
		c-0.15,0.34-0.24,0.709-0.27,1.107H61.862z"/>
	<path d="M67.459,24.971c-0.524,0-1.011-0.109-1.457-0.328c-0.447-0.219-0.831-0.508-1.151-0.867
		c-0.321-0.359-0.571-0.775-0.751-1.246c-0.18-0.471-0.27-0.964-0.27-1.479c0-0.534,0.088-1.042,0.263-1.523
		c0.175-0.481,0.415-0.901,0.721-1.261c0.307-0.359,0.671-0.644,1.094-0.853c0.423-0.208,0.887-0.313,1.392-0.313
		c0.642,0,1.21,0.167,1.705,0.503c0.496,0.335,0.885,0.741,1.166,1.217v-4.635h0.991v9.357c0,0.272,0.117,0.408,0.35,0.408v0.875
		c-0.146,0.029-0.262,0.044-0.35,0.044c-0.233,0-0.438-0.075-0.612-0.226c-0.175-0.15-0.262-0.333-0.262-0.546v-0.744
		c-0.302,0.496-0.71,0.889-1.225,1.181C68.547,24.825,68.013,24.971,67.459,24.971z M67.678,24.097c0.243,0,0.503-0.049,0.78-0.146
		c0.276-0.097,0.536-0.23,0.779-0.401c0.243-0.17,0.449-0.369,0.619-0.598c0.17-0.228,0.274-0.474,0.313-0.736V19.87
		c-0.097-0.262-0.238-0.507-0.423-0.736c-0.185-0.229-0.396-0.43-0.634-0.605c-0.238-0.175-0.493-0.311-0.765-0.408
		c-0.272-0.097-0.54-0.146-0.802-0.146c-0.408,0-0.777,0.087-1.107,0.262c-0.331,0.175-0.615,0.406-0.854,0.692
		c-0.237,0.287-0.42,0.615-0.546,0.984c-0.127,0.369-0.189,0.748-0.189,1.137c0,0.408,0.072,0.797,0.219,1.166
		c0.146,0.369,0.345,0.692,0.598,0.969c0.252,0.277,0.551,0.498,0.896,0.663C66.907,24.014,67.279,24.097,67.678,24.097z"/>
	<path d="M80.169,24.927c-0.525,0-1.004-0.109-1.436-0.328c-0.433-0.218-0.807-0.507-1.123-0.867
		c-0.315-0.359-0.561-0.772-0.735-1.239c-0.174-0.467-0.263-0.947-0.263-1.443c0-0.525,0.085-1.027,0.255-1.508
		c0.17-0.481,0.41-0.901,0.722-1.261c0.311-0.359,0.683-0.646,1.115-0.86c0.432-0.213,0.911-0.32,1.436-0.32
		c0.65,0,1.214,0.163,1.69,0.488c0.476,0.326,0.884,0.736,1.225,1.231v-1.589h0.889v7.623c0,0.524-0.1,0.988-0.299,1.392
		c-0.199,0.404-0.466,0.741-0.802,1.013c-0.335,0.272-0.729,0.476-1.181,0.612c-0.451,0.136-0.93,0.204-1.436,0.204
		c-0.874,0-1.579-0.155-2.113-0.466c-0.534-0.311-0.967-0.729-1.297-1.253l0.612-0.481c0.301,0.486,0.699,0.843,1.195,1.071
		c0.495,0.228,1.029,0.343,1.603,0.343c0.369,0,0.72-0.051,1.05-0.153c0.33-0.102,0.619-0.253,0.867-0.452
		c0.248-0.199,0.444-0.452,0.59-0.758c0.146-0.306,0.219-0.664,0.219-1.071v-1.501c-0.291,0.486-0.689,0.87-1.195,1.151
		C81.252,24.787,80.723,24.927,80.169,24.927z M80.445,24.097c0.292,0,0.578-0.054,0.86-0.161c0.281-0.107,0.536-0.25,0.765-0.43
		c0.229-0.18,0.421-0.381,0.576-0.605s0.257-0.452,0.306-0.685V19.87c-0.106-0.272-0.253-0.524-0.437-0.758
		c-0.186-0.233-0.394-0.432-0.627-0.598c-0.233-0.165-0.483-0.296-0.751-0.394c-0.268-0.098-0.537-0.146-0.809-0.146
		c-0.428,0-0.81,0.09-1.145,0.27c-0.335,0.18-0.619,0.416-0.853,0.707s-0.41,0.622-0.532,0.991c-0.121,0.37-0.182,0.744-0.182,1.123
		c0,0.408,0.072,0.797,0.219,1.166c0.146,0.369,0.347,0.692,0.604,0.969c0.257,0.277,0.557,0.496,0.896,0.656
		S80.047,24.097,80.445,24.097z"/>
	<path d="M89.919,18.106c-0.671,0.02-1.254,0.204-1.749,0.554c-0.496,0.35-0.846,0.831-1.05,1.443v4.722h-0.991v-7.594h0.934v1.822
		c0.281-0.583,0.66-1.04,1.137-1.37c0.476-0.331,0.985-0.496,1.53-0.496c0.077,0,0.141,0.005,0.189,0.015V18.106z"/>
	<path d="M94.103,24.971c-0.554,0-1.06-0.104-1.517-0.313c-0.456-0.209-0.853-0.493-1.188-0.853
		c-0.335-0.36-0.595-0.777-0.779-1.254c-0.185-0.476-0.277-0.976-0.277-1.501c0-0.534,0.095-1.04,0.284-1.516
		c0.189-0.476,0.452-0.894,0.787-1.253c0.335-0.359,0.731-0.646,1.188-0.86c0.457-0.213,0.957-0.32,1.502-0.32
		c0.544,0,1.047,0.107,1.508,0.32c0.462,0.214,0.86,0.501,1.195,0.86c0.335,0.359,0.598,0.777,0.787,1.253
		c0.189,0.476,0.284,0.981,0.284,1.516c0,0.525-0.092,1.025-0.276,1.501c-0.186,0.477-0.445,0.895-0.78,1.254
		c-0.335,0.359-0.733,0.644-1.195,0.853C95.164,24.866,94.656,24.971,94.103,24.971z M91.348,21.065
		c0,0.428,0.073,0.823,0.219,1.188c0.146,0.364,0.342,0.685,0.59,0.962c0.248,0.277,0.539,0.493,0.875,0.648
		c0.335,0.155,0.692,0.233,1.071,0.233s0.735-0.081,1.071-0.241c0.335-0.16,0.629-0.379,0.882-0.656
		c0.252-0.277,0.451-0.6,0.598-0.969c0.146-0.369,0.218-0.768,0.218-1.195c0-0.417-0.072-0.813-0.218-1.188
		c-0.146-0.374-0.346-0.699-0.598-0.977c-0.253-0.277-0.547-0.495-0.882-0.656c-0.336-0.16-0.692-0.24-1.071-0.24
		s-0.734,0.08-1.064,0.24c-0.33,0.161-0.622,0.381-0.874,0.663c-0.253,0.282-0.452,0.61-0.598,0.984
		C91.421,20.237,91.348,20.637,91.348,21.065z"/>
	<path d="M101.914,24.971c-0.826,0-1.44-0.274-1.844-0.823c-0.404-0.549-0.604-1.368-0.604-2.456v-4.46h0.991v4.285
		c0,1.72,0.588,2.58,1.764,2.58c0.291,0,0.577-0.049,0.859-0.146c0.282-0.097,0.542-0.238,0.78-0.423
		c0.237-0.184,0.451-0.403,0.641-0.656c0.189-0.252,0.343-0.539,0.459-0.86v-4.781h0.991v6.311c0,0.272,0.117,0.408,0.35,0.408
		v0.875c-0.116,0.02-0.211,0.029-0.284,0.029c-0.072,0-0.123,0-0.152,0c-0.233-0.01-0.423-0.092-0.568-0.248
		c-0.146-0.155-0.219-0.364-0.219-0.626v-0.875c-0.331,0.593-0.78,1.052-1.349,1.377C103.16,24.808,102.556,24.971,101.914,24.971z"
		/>
	<path d="M112.072,24.971c-0.641,0-1.207-0.163-1.697-0.488c-0.491-0.326-0.887-0.736-1.188-1.232v4.679h-0.991V17.231h0.89v1.472
		c0.311-0.476,0.714-0.862,1.21-1.159c0.495-0.296,1.034-0.444,1.617-0.444c0.524,0,1.006,0.109,1.443,0.328
		c0.437,0.219,0.816,0.51,1.137,0.875c0.32,0.365,0.57,0.785,0.751,1.261c0.179,0.477,0.27,0.967,0.27,1.472
		c0,0.535-0.083,1.04-0.248,1.516c-0.165,0.477-0.401,0.896-0.707,1.254s-0.671,0.644-1.093,0.853
		C113.042,24.866,112.578,24.971,112.072,24.971z M111.796,24.097c0.408,0,0.779-0.088,1.115-0.263
		c0.335-0.175,0.621-0.405,0.859-0.692c0.238-0.286,0.42-0.612,0.547-0.977c0.126-0.364,0.189-0.741,0.189-1.129
		c0-0.408-0.073-0.796-0.219-1.166c-0.146-0.369-0.345-0.694-0.598-0.977c-0.253-0.282-0.552-0.505-0.896-0.67
		c-0.345-0.165-0.717-0.248-1.115-0.248c-0.252,0-0.517,0.051-0.794,0.153c-0.277,0.102-0.534,0.238-0.772,0.408
		c-0.238,0.17-0.442,0.369-0.612,0.598c-0.17,0.229-0.274,0.469-0.313,0.721v2.332c0.117,0.272,0.265,0.525,0.444,0.758
		c0.18,0.233,0.384,0.435,0.612,0.605c0.229,0.17,0.474,0.304,0.736,0.401C111.241,24.048,111.514,24.097,111.796,24.097z"/>
</g>
<polyline fill="none" stroke="#000000" stroke-width="1.5" stroke-linecap="round" stroke-linejoin="round" points="174.5,28.5 
	174.5,22.5 589.499,22.5 589.499,28.5 "/>
<g>
	<path fill="none" stroke="#000000" stroke-miterlimit="10" stroke-dasharray="3.9638,2.9729" d="M53.625,142.163
		c0,3.978-3.224,7.2-7.2,7.2H18.903c-3.977,0-7.2-3.225-7.2-7.2V43.134c0-3.977,3.224-7.2,7.2-7.2h27.522c3.977,0,7.2,3.224,7.2,7.2
		V142.163z"/>
</g>
</svg>
