<?xml version="1.0" encoding="utf-8" standalone="no"?>
<!DOCTYPE svg PUBLIC "-//W3C//DTD SVG 1.1//EN"
  "http://www.w3.org/Graphics/SVG/1.1/DTD/svg11.dtd">
<!-- Created with matplotlib (http://matplotlib.org/) -->
<svg height="288pt" version="1.1" viewBox="0 0 864 288" width="864pt" xmlns="http://www.w3.org/2000/svg" xmlns:xlink="http://www.w3.org/1999/xlink">
 <defs>
  <style type="text/css">
*{stroke-linecap:butt;stroke-linejoin:round;}
  </style>
 </defs>
 <g id="figure_1">
  <g id="patch_1">
   <path d="M 0 288 
L 864 288 
L 864 0 
L 0 0 
z
" style="fill:none;"/>
  </g>
  <g id="axes_1">
   <g id="patch_2">
    <path d="M 66.425 234.2 
L 276.599831 234.2 
L 276.599831 14.8 
L 66.425 14.8 
z
" style="fill:none;"/>
   </g>
   <g id="patch_3">
    <path clip-path="url(#p425ab1ed17)" d="M 75.978401 234.2 
L 76.758349 234.2 
L 76.758349 83.024827 
L 75.978401 83.024827 
z
" style="fill:#00bfff;"/>
   </g>
   <g id="patch_4">
    <path clip-path="url(#p425ab1ed17)" d="M 76.758349 234.2 
L 77.538297 234.2 
L 77.538297 25.247619 
L 76.758349 25.247619 
z
" style="fill:#00bfff;"/>
   </g>
   <g id="patch_5">
    <path clip-path="url(#p425ab1ed17)" d="M 77.538297 234.2 
L 78.318245 234.2 
L 78.318245 25.418053 
L 77.538297 25.418053 
z
" style="fill:#00bfff;"/>
   </g>
   <g id="patch_6">
    <path clip-path="url(#p425ab1ed17)" d="M 78.318245 234.2 
L 79.098193 234.2 
L 79.098193 39.393661 
L 78.318245 39.393661 
z
" style="fill:#00bfff;"/>
   </g>
   <g id="patch_7">
    <path clip-path="url(#p425ab1ed17)" d="M 79.098193 234.2 
L 79.878141 234.2 
L 79.878141 69.730956 
L 79.098193 69.730956 
z
" style="fill:#00bfff;"/>
   </g>
   <g id="patch_8">
    <path clip-path="url(#p425ab1ed17)" d="M 79.878141 234.2 
L 80.658089 234.2 
L 80.658089 101.431725 
L 79.878141 101.431725 
z
" style="fill:#00bfff;"/>
   </g>
   <g id="patch_9">
    <path clip-path="url(#p425ab1ed17)" d="M 80.658089 234.2 
L 81.438037 234.2 
L 81.438037 117.28211 
L 80.658089 117.28211 
z
" style="fill:#00bfff;"/>
   </g>
   <g id="patch_10">
    <path clip-path="url(#p425ab1ed17)" d="M 81.438037 234.2 
L 82.217985 234.2 
L 82.217985 135.34814 
L 81.438037 135.34814 
z
" style="fill:#00bfff;"/>
   </g>
   <g id="patch_11">
    <path clip-path="url(#p425ab1ed17)" d="M 82.217985 234.2 
L 82.997932 234.2 
L 82.997932 153.073301 
L 82.217985 153.073301 
z
" style="fill:#00bfff;"/>
   </g>
   <g id="patch_12">
    <path clip-path="url(#p425ab1ed17)" d="M 82.997932 234.2 
L 83.77788 234.2 
L 83.77788 172.33237 
L 82.997932 172.33237 
z
" style="fill:#00bfff;"/>
   </g>
   <g id="patch_13">
    <path clip-path="url(#p425ab1ed17)" d="M 83.77788 234.2 
L 84.557828 234.2 
L 84.557828 177.786266 
L 83.77788 177.786266 
z
" style="fill:#00bfff;"/>
   </g>
   <g id="patch_14">
    <path clip-path="url(#p425ab1ed17)" d="M 84.557828 234.2 
L 85.337776 234.2 
L 85.337776 188.694057 
L 84.557828 188.694057 
z
" style="fill:#00bfff;"/>
   </g>
   <g id="patch_15">
    <path clip-path="url(#p425ab1ed17)" d="M 85.337776 234.2 
L 86.117724 234.2 
L 86.117724 200.45402 
L 85.337776 200.45402 
z
" style="fill:#00bfff;"/>
   </g>
   <g id="patch_16">
    <path clip-path="url(#p425ab1ed17)" d="M 86.117724 234.2 
L 86.897672 234.2 
L 86.897672 204.203573 
L 86.117724 204.203573 
z
" style="fill:#00bfff;"/>
   </g>
   <g id="patch_17">
    <path clip-path="url(#p425ab1ed17)" d="M 86.897672 234.2 
L 87.67762 234.2 
L 87.67762 209.827903 
L 86.897672 209.827903 
z
" style="fill:#00bfff;"/>
   </g>
   <g id="patch_18">
    <path clip-path="url(#p425ab1ed17)" d="M 87.67762 234.2 
L 88.457568 234.2 
L 88.457568 216.815707 
L 87.67762 216.815707 
z
" style="fill:#00bfff;"/>
   </g>
   <g id="patch_19">
    <path clip-path="url(#p425ab1ed17)" d="M 88.457568 234.2 
L 89.237515 234.2 
L 89.237515 217.156576 
L 88.457568 217.156576 
z
" style="fill:#00bfff;"/>
   </g>
   <g id="patch_20">
    <path clip-path="url(#p425ab1ed17)" d="M 89.237515 234.2 
L 90.017463 234.2 
L 90.017463 222.269603 
L 89.237515 222.269603 
z
" style="fill:#00bfff;"/>
   </g>
   <g id="patch_21">
    <path clip-path="url(#p425ab1ed17)" d="M 90.017463 234.2 
L 90.797411 234.2 
L 90.797411 224.996551 
L 90.017463 224.996551 
z
" style="fill:#00bfff;"/>
   </g>
   <g id="patch_22">
    <path clip-path="url(#p425ab1ed17)" d="M 90.797411 234.2 
L 91.577359 234.2 
L 91.577359 228.405236 
L 90.797411 228.405236 
z
" style="fill:#00bfff;"/>
   </g>
   <g id="patch_23">
    <path clip-path="url(#p425ab1ed17)" d="M 91.577359 234.2 
L 92.357307 234.2 
L 92.357307 227.212196 
L 91.577359 227.212196 
z
" style="fill:#00bfff;"/>
   </g>
   <g id="patch_24">
    <path clip-path="url(#p425ab1ed17)" d="M 92.357307 234.2 
L 93.137255 234.2 
L 93.137255 228.57567 
L 92.357307 228.57567 
z
" style="fill:#00bfff;"/>
   </g>
   <g id="patch_25">
    <path clip-path="url(#p425ab1ed17)" d="M 93.137255 234.2 
L 93.917203 234.2 
L 93.917203 230.620881 
L 93.137255 230.620881 
z
" style="fill:#00bfff;"/>
   </g>
   <g id="patch_26">
    <path clip-path="url(#p425ab1ed17)" d="M 93.917203 234.2 
L 94.697151 234.2 
L 94.697151 231.473052 
L 93.917203 231.473052 
z
" style="fill:#00bfff;"/>
   </g>
   <g id="patch_27">
    <path clip-path="url(#p425ab1ed17)" d="M 94.697151 234.2 
L 95.477099 234.2 
L 95.477099 231.643486 
L 94.697151 231.643486 
z
" style="fill:#00bfff;"/>
   </g>
   <g id="patch_28">
    <path clip-path="url(#p425ab1ed17)" d="M 95.477099 234.2 
L 96.257046 234.2 
L 96.257046 231.132184 
L 95.477099 231.132184 
z
" style="fill:#00bfff;"/>
   </g>
   <g id="patch_29">
    <path clip-path="url(#p425ab1ed17)" d="M 96.257046 234.2 
L 97.036994 234.2 
L 97.036994 232.495658 
L 96.257046 232.495658 
z
" style="fill:#00bfff;"/>
   </g>
   <g id="patch_30">
    <path clip-path="url(#p425ab1ed17)" d="M 97.036994 234.2 
L 97.816942 234.2 
L 97.816942 232.495658 
L 97.036994 232.495658 
z
" style="fill:#00bfff;"/>
   </g>
   <g id="patch_31">
    <path clip-path="url(#p425ab1ed17)" d="M 97.816942 234.2 
L 98.59689 234.2 
L 98.59689 233.347829 
L 97.816942 233.347829 
z
" style="fill:#00bfff;"/>
   </g>
   <g id="patch_32">
    <path clip-path="url(#p425ab1ed17)" d="M 98.59689 234.2 
L 99.376838 234.2 
L 99.376838 233.518263 
L 98.59689 233.518263 
z
" style="fill:#00bfff;"/>
   </g>
   <g id="patch_33">
    <path clip-path="url(#p425ab1ed17)" d="M 99.376838 234.2 
L 100.156786 234.2 
L 100.156786 233.688697 
L 99.376838 233.688697 
z
" style="fill:#00bfff;"/>
   </g>
   <g id="patch_34">
    <path clip-path="url(#p425ab1ed17)" d="M 100.156786 234.2 
L 100.936734 234.2 
L 100.936734 234.029566 
L 100.156786 234.029566 
z
" style="fill:#00bfff;"/>
   </g>
   <g id="patch_35">
    <path clip-path="url(#p425ab1ed17)" d="M 100.936734 234.2 
L 101.716682 234.2 
L 101.716682 233.859132 
L 100.936734 233.859132 
z
" style="fill:#00bfff;"/>
   </g>
   <g id="patch_36">
    <path clip-path="url(#p425ab1ed17)" d="M 101.716682 234.2 
L 102.49663 234.2 
L 102.49663 233.859132 
L 101.716682 233.859132 
z
" style="fill:#00bfff;"/>
   </g>
   <g id="patch_37">
    <path clip-path="url(#p425ab1ed17)" d="M 102.49663 234.2 
L 103.276577 234.2 
L 103.276577 233.859132 
L 102.49663 233.859132 
z
" style="fill:#00bfff;"/>
   </g>
   <g id="patch_38">
    <path clip-path="url(#p425ab1ed17)" d="M 103.276577 234.2 
L 104.056525 234.2 
L 104.056525 234.029566 
L 103.276577 234.029566 
z
" style="fill:#00bfff;"/>
   </g>
   <g id="patch_39">
    <path clip-path="url(#p425ab1ed17)" d="M 104.056525 234.2 
L 104.836473 234.2 
L 104.836473 234.029566 
L 104.056525 234.029566 
z
" style="fill:#00bfff;"/>
   </g>
   <g id="patch_40">
    <path clip-path="url(#p425ab1ed17)" d="M 104.836473 234.2 
L 105.616421 234.2 
L 105.616421 233.518263 
L 104.836473 233.518263 
z
" style="fill:#00bfff;"/>
   </g>
   <g id="patch_41">
    <path clip-path="url(#p425ab1ed17)" d="M 105.616421 234.2 
L 106.396369 234.2 
L 106.396369 233.688697 
L 105.616421 233.688697 
z
" style="fill:#00bfff;"/>
   </g>
   <g id="patch_42">
    <path clip-path="url(#p425ab1ed17)" d="M 106.396369 234.2 
L 107.176317 234.2 
L 107.176317 234.029566 
L 106.396369 234.029566 
z
" style="fill:#00bfff;"/>
   </g>
   <g id="patch_43">
    <path clip-path="url(#p425ab1ed17)" d="M 107.176317 234.2 
L 107.956265 234.2 
L 107.956265 234.2 
L 107.176317 234.2 
z
" style="fill:#00bfff;"/>
   </g>
   <g id="patch_44">
    <path clip-path="url(#p425ab1ed17)" d="M 107.956265 234.2 
L 108.736213 234.2 
L 108.736213 234.2 
L 107.956265 234.2 
z
" style="fill:#00bfff;"/>
   </g>
   <g id="patch_45">
    <path clip-path="url(#p425ab1ed17)" d="M 108.736213 234.2 
L 109.51616 234.2 
L 109.51616 234.2 
L 108.736213 234.2 
z
" style="fill:#00bfff;"/>
   </g>
   <g id="patch_46">
    <path clip-path="url(#p425ab1ed17)" d="M 109.51616 234.2 
L 110.296108 234.2 
L 110.296108 234.2 
L 109.51616 234.2 
z
" style="fill:#00bfff;"/>
   </g>
   <g id="patch_47">
    <path clip-path="url(#p425ab1ed17)" d="M 110.296108 234.2 
L 111.076056 234.2 
L 111.076056 234.2 
L 110.296108 234.2 
z
" style="fill:#00bfff;"/>
   </g>
   <g id="patch_48">
    <path clip-path="url(#p425ab1ed17)" d="M 111.076056 234.2 
L 111.856004 234.2 
L 111.856004 234.029566 
L 111.076056 234.029566 
z
" style="fill:#00bfff;"/>
   </g>
   <g id="patch_49">
    <path clip-path="url(#p425ab1ed17)" d="M 111.856004 234.2 
L 112.635952 234.2 
L 112.635952 234.2 
L 111.856004 234.2 
z
" style="fill:#00bfff;"/>
   </g>
   <g id="patch_50">
    <path clip-path="url(#p425ab1ed17)" d="M 112.635952 234.2 
L 113.4159 234.2 
L 113.4159 234.2 
L 112.635952 234.2 
z
" style="fill:#00bfff;"/>
   </g>
   <g id="patch_51">
    <path clip-path="url(#p425ab1ed17)" d="M 113.4159 234.2 
L 114.195848 234.2 
L 114.195848 234.2 
L 113.4159 234.2 
z
" style="fill:#00bfff;"/>
   </g>
   <g id="patch_52">
    <path clip-path="url(#p425ab1ed17)" d="M 114.195848 234.2 
L 114.975796 234.2 
L 114.975796 234.029566 
L 114.195848 234.029566 
z
" style="fill:#00bfff;"/>
   </g>
   <g id="matplotlib.axis_1">
    <g id="xtick_1">
     <g id="line2d_1">
      <defs>
       <path d="M 0 0 
L 0 4 
" id="m65e1e8ad57" style="stroke:#222222;"/>
      </defs>
      <g>
       <use style="fill:#222222;stroke:#222222;" x="75.968539" xlink:href="#m65e1e8ad57" y="234.2"/>
      </g>
     </g>
     <g id="text_1">
      <!-- 0 -->
      <defs>
       <path d="M 31.78125 66.40625 
Q 24.171875 66.40625 20.328125 58.90625 
Q 16.5 51.421875 16.5 36.375 
Q 16.5 21.390625 20.328125 13.890625 
Q 24.171875 6.390625 31.78125 6.390625 
Q 39.453125 6.390625 43.28125 13.890625 
Q 47.125 21.390625 47.125 36.375 
Q 47.125 51.421875 43.28125 58.90625 
Q 39.453125 66.40625 31.78125 66.40625 
z
M 31.78125 74.21875 
Q 44.046875 74.21875 50.515625 64.515625 
Q 56.984375 54.828125 56.984375 36.375 
Q 56.984375 17.96875 50.515625 8.265625 
Q 44.046875 -1.421875 31.78125 -1.421875 
Q 19.53125 -1.421875 13.0625 8.265625 
Q 6.59375 17.96875 6.59375 36.375 
Q 6.59375 54.828125 13.0625 64.515625 
Q 19.53125 74.21875 31.78125 74.21875 
z
" id="DejaVuSans-30"/>
      </defs>
      <g style="fill:#222222;" transform="translate(71.832914 252.077969)scale(0.13 -0.13)">
       <use xlink:href="#DejaVuSans-30"/>
      </g>
     </g>
    </g>
    <g id="xtick_2">
     <g id="line2d_2">
      <g>
       <use style="fill:#222222;stroke:#222222;" x="120.366581" xlink:href="#m65e1e8ad57" y="234.2"/>
      </g>
     </g>
     <g id="text_2">
      <!-- 10 -->
      <defs>
       <path d="M 12.40625 8.296875 
L 28.515625 8.296875 
L 28.515625 63.921875 
L 10.984375 60.40625 
L 10.984375 69.390625 
L 28.421875 72.90625 
L 38.28125 72.90625 
L 38.28125 8.296875 
L 54.390625 8.296875 
L 54.390625 0 
L 12.40625 0 
z
" id="DejaVuSans-31"/>
      </defs>
      <g style="fill:#222222;" transform="translate(112.095331 252.077969)scale(0.13 -0.13)">
       <use xlink:href="#DejaVuSans-31"/>
       <use x="63.623047" xlink:href="#DejaVuSans-30"/>
      </g>
     </g>
    </g>
    <g id="xtick_3">
     <g id="line2d_3">
      <g>
       <use style="fill:#222222;stroke:#222222;" x="164.764622" xlink:href="#m65e1e8ad57" y="234.2"/>
      </g>
     </g>
     <g id="text_3">
      <!-- 20 -->
      <defs>
       <path d="M 19.1875 8.296875 
L 53.609375 8.296875 
L 53.609375 0 
L 7.328125 0 
L 7.328125 8.296875 
Q 12.9375 14.109375 22.625 23.890625 
Q 32.328125 33.6875 34.8125 36.53125 
Q 39.546875 41.84375 41.421875 45.53125 
Q 43.3125 49.21875 43.3125 52.78125 
Q 43.3125 58.59375 39.234375 62.25 
Q 35.15625 65.921875 28.609375 65.921875 
Q 23.96875 65.921875 18.8125 64.3125 
Q 13.671875 62.703125 7.8125 59.421875 
L 7.8125 69.390625 
Q 13.765625 71.78125 18.9375 73 
Q 24.125 74.21875 28.421875 74.21875 
Q 39.75 74.21875 46.484375 68.546875 
Q 53.21875 62.890625 53.21875 53.421875 
Q 53.21875 48.921875 51.53125 44.890625 
Q 49.859375 40.875 45.40625 35.40625 
Q 44.1875 33.984375 37.640625 27.21875 
Q 31.109375 20.453125 19.1875 8.296875 
z
" id="DejaVuSans-32"/>
      </defs>
      <g style="fill:#222222;" transform="translate(156.493372 252.077969)scale(0.13 -0.13)">
       <use xlink:href="#DejaVuSans-32"/>
       <use x="63.623047" xlink:href="#DejaVuSans-30"/>
      </g>
     </g>
    </g>
    <g id="xtick_4">
     <g id="line2d_4">
      <g>
       <use style="fill:#222222;stroke:#222222;" x="209.162663" xlink:href="#m65e1e8ad57" y="234.2"/>
      </g>
     </g>
     <g id="text_4">
      <!-- 30 -->
      <defs>
       <path d="M 40.578125 39.3125 
Q 47.65625 37.796875 51.625 33 
Q 55.609375 28.21875 55.609375 21.1875 
Q 55.609375 10.40625 48.1875 4.484375 
Q 40.765625 -1.421875 27.09375 -1.421875 
Q 22.515625 -1.421875 17.65625 -0.515625 
Q 12.796875 0.390625 7.625 2.203125 
L 7.625 11.71875 
Q 11.71875 9.328125 16.59375 8.109375 
Q 21.484375 6.890625 26.8125 6.890625 
Q 36.078125 6.890625 40.9375 10.546875 
Q 45.796875 14.203125 45.796875 21.1875 
Q 45.796875 27.640625 41.28125 31.265625 
Q 36.765625 34.90625 28.71875 34.90625 
L 20.21875 34.90625 
L 20.21875 43.015625 
L 29.109375 43.015625 
Q 36.375 43.015625 40.234375 45.921875 
Q 44.09375 48.828125 44.09375 54.296875 
Q 44.09375 59.90625 40.109375 62.90625 
Q 36.140625 65.921875 28.71875 65.921875 
Q 24.65625 65.921875 20.015625 65.03125 
Q 15.375 64.15625 9.8125 62.3125 
L 9.8125 71.09375 
Q 15.4375 72.65625 20.34375 73.4375 
Q 25.25 74.21875 29.59375 74.21875 
Q 40.828125 74.21875 47.359375 69.109375 
Q 53.90625 64.015625 53.90625 55.328125 
Q 53.90625 49.265625 50.4375 45.09375 
Q 46.96875 40.921875 40.578125 39.3125 
z
" id="DejaVuSans-33"/>
      </defs>
      <g style="fill:#222222;" transform="translate(200.891413 252.077969)scale(0.13 -0.13)">
       <use xlink:href="#DejaVuSans-33"/>
       <use x="63.623047" xlink:href="#DejaVuSans-30"/>
      </g>
     </g>
    </g>
    <g id="xtick_5">
     <g id="line2d_5">
      <g>
       <use style="fill:#222222;stroke:#222222;" x="253.560704" xlink:href="#m65e1e8ad57" y="234.2"/>
      </g>
     </g>
     <g id="text_5">
      <!-- 40 -->
      <defs>
       <path d="M 37.796875 64.3125 
L 12.890625 25.390625 
L 37.796875 25.390625 
z
M 35.203125 72.90625 
L 47.609375 72.90625 
L 47.609375 25.390625 
L 58.015625 25.390625 
L 58.015625 17.1875 
L 47.609375 17.1875 
L 47.609375 0 
L 37.796875 0 
L 37.796875 17.1875 
L 4.890625 17.1875 
L 4.890625 26.703125 
z
" id="DejaVuSans-34"/>
      </defs>
      <g style="fill:#222222;" transform="translate(245.289454 252.077969)scale(0.13 -0.13)">
       <use xlink:href="#DejaVuSans-34"/>
       <use x="63.623047" xlink:href="#DejaVuSans-30"/>
      </g>
     </g>
    </g>
    <g id="text_6">
     <!-- $F$ Factor 1 (Noise) -->
     <defs>
      <path d="M 16.890625 72.90625 
L 58.6875 72.90625 
L 57.078125 64.59375 
L 25.09375 64.59375 
L 20.90625 43.109375 
L 49.8125 43.109375 
L 48.1875 34.8125 
L 19.28125 34.8125 
L 12.5 0 
L 2.6875 0 
z
" id="DejaVuSans-Oblique-46"/>
      <path id="DejaVuSans-20"/>
      <path d="M 9.8125 72.90625 
L 51.703125 72.90625 
L 51.703125 64.59375 
L 19.671875 64.59375 
L 19.671875 43.109375 
L 48.578125 43.109375 
L 48.578125 34.8125 
L 19.671875 34.8125 
L 19.671875 0 
L 9.8125 0 
z
" id="DejaVuSans-46"/>
      <path d="M 34.28125 27.484375 
Q 23.390625 27.484375 19.1875 25 
Q 14.984375 22.515625 14.984375 16.5 
Q 14.984375 11.71875 18.140625 8.90625 
Q 21.296875 6.109375 26.703125 6.109375 
Q 34.1875 6.109375 38.703125 11.40625 
Q 43.21875 16.703125 43.21875 25.484375 
L 43.21875 27.484375 
z
M 52.203125 31.203125 
L 52.203125 0 
L 43.21875 0 
L 43.21875 8.296875 
Q 40.140625 3.328125 35.546875 0.953125 
Q 30.953125 -1.421875 24.3125 -1.421875 
Q 15.921875 -1.421875 10.953125 3.296875 
Q 6 8.015625 6 15.921875 
Q 6 25.140625 12.171875 29.828125 
Q 18.359375 34.515625 30.609375 34.515625 
L 43.21875 34.515625 
L 43.21875 35.40625 
Q 43.21875 41.609375 39.140625 45 
Q 35.0625 48.390625 27.6875 48.390625 
Q 23 48.390625 18.546875 47.265625 
Q 14.109375 46.140625 10.015625 43.890625 
L 10.015625 52.203125 
Q 14.9375 54.109375 19.578125 55.046875 
Q 24.21875 56 28.609375 56 
Q 40.484375 56 46.34375 49.84375 
Q 52.203125 43.703125 52.203125 31.203125 
z
" id="DejaVuSans-61"/>
      <path d="M 48.78125 52.59375 
L 48.78125 44.1875 
Q 44.96875 46.296875 41.140625 47.34375 
Q 37.3125 48.390625 33.40625 48.390625 
Q 24.65625 48.390625 19.8125 42.84375 
Q 14.984375 37.3125 14.984375 27.296875 
Q 14.984375 17.28125 19.8125 11.734375 
Q 24.65625 6.203125 33.40625 6.203125 
Q 37.3125 6.203125 41.140625 7.25 
Q 44.96875 8.296875 48.78125 10.40625 
L 48.78125 2.09375 
Q 45.015625 0.34375 40.984375 -0.53125 
Q 36.96875 -1.421875 32.421875 -1.421875 
Q 20.0625 -1.421875 12.78125 6.34375 
Q 5.515625 14.109375 5.515625 27.296875 
Q 5.515625 40.671875 12.859375 48.328125 
Q 20.21875 56 33.015625 56 
Q 37.15625 56 41.109375 55.140625 
Q 45.0625 54.296875 48.78125 52.59375 
z
" id="DejaVuSans-63"/>
      <path d="M 18.3125 70.21875 
L 18.3125 54.6875 
L 36.8125 54.6875 
L 36.8125 47.703125 
L 18.3125 47.703125 
L 18.3125 18.015625 
Q 18.3125 11.328125 20.140625 9.421875 
Q 21.96875 7.515625 27.59375 7.515625 
L 36.8125 7.515625 
L 36.8125 0 
L 27.59375 0 
Q 17.1875 0 13.234375 3.875 
Q 9.28125 7.765625 9.28125 18.015625 
L 9.28125 47.703125 
L 2.6875 47.703125 
L 2.6875 54.6875 
L 9.28125 54.6875 
L 9.28125 70.21875 
z
" id="DejaVuSans-74"/>
      <path d="M 30.609375 48.390625 
Q 23.390625 48.390625 19.1875 42.75 
Q 14.984375 37.109375 14.984375 27.296875 
Q 14.984375 17.484375 19.15625 11.84375 
Q 23.34375 6.203125 30.609375 6.203125 
Q 37.796875 6.203125 41.984375 11.859375 
Q 46.1875 17.53125 46.1875 27.296875 
Q 46.1875 37.015625 41.984375 42.703125 
Q 37.796875 48.390625 30.609375 48.390625 
z
M 30.609375 56 
Q 42.328125 56 49.015625 48.375 
Q 55.71875 40.765625 55.71875 27.296875 
Q 55.71875 13.875 49.015625 6.21875 
Q 42.328125 -1.421875 30.609375 -1.421875 
Q 18.84375 -1.421875 12.171875 6.21875 
Q 5.515625 13.875 5.515625 27.296875 
Q 5.515625 40.765625 12.171875 48.375 
Q 18.84375 56 30.609375 56 
z
" id="DejaVuSans-6f"/>
      <path d="M 41.109375 46.296875 
Q 39.59375 47.171875 37.8125 47.578125 
Q 36.03125 48 33.890625 48 
Q 26.265625 48 22.1875 43.046875 
Q 18.109375 38.09375 18.109375 28.8125 
L 18.109375 0 
L 9.078125 0 
L 9.078125 54.6875 
L 18.109375 54.6875 
L 18.109375 46.1875 
Q 20.953125 51.171875 25.484375 53.578125 
Q 30.03125 56 36.53125 56 
Q 37.453125 56 38.578125 55.875 
Q 39.703125 55.765625 41.0625 55.515625 
z
" id="DejaVuSans-72"/>
      <path d="M 31 75.875 
Q 24.46875 64.65625 21.28125 53.65625 
Q 18.109375 42.671875 18.109375 31.390625 
Q 18.109375 20.125 21.3125 9.0625 
Q 24.515625 -2 31 -13.1875 
L 23.1875 -13.1875 
Q 15.875 -1.703125 12.234375 9.375 
Q 8.59375 20.453125 8.59375 31.390625 
Q 8.59375 42.28125 12.203125 53.3125 
Q 15.828125 64.359375 23.1875 75.875 
z
" id="DejaVuSans-28"/>
      <path d="M 9.8125 72.90625 
L 23.09375 72.90625 
L 55.421875 11.921875 
L 55.421875 72.90625 
L 64.984375 72.90625 
L 64.984375 0 
L 51.703125 0 
L 19.390625 60.984375 
L 19.390625 0 
L 9.8125 0 
z
" id="DejaVuSans-4e"/>
      <path d="M 9.421875 54.6875 
L 18.40625 54.6875 
L 18.40625 0 
L 9.421875 0 
z
M 9.421875 75.984375 
L 18.40625 75.984375 
L 18.40625 64.59375 
L 9.421875 64.59375 
z
" id="DejaVuSans-69"/>
      <path d="M 44.28125 53.078125 
L 44.28125 44.578125 
Q 40.484375 46.53125 36.375 47.5 
Q 32.28125 48.484375 27.875 48.484375 
Q 21.1875 48.484375 17.84375 46.4375 
Q 14.5 44.390625 14.5 40.28125 
Q 14.5 37.15625 16.890625 35.375 
Q 19.28125 33.59375 26.515625 31.984375 
L 29.59375 31.296875 
Q 39.15625 29.25 43.1875 25.515625 
Q 47.21875 21.78125 47.21875 15.09375 
Q 47.21875 7.46875 41.1875 3.015625 
Q 35.15625 -1.421875 24.609375 -1.421875 
Q 20.21875 -1.421875 15.453125 -0.5625 
Q 10.6875 0.296875 5.421875 2 
L 5.421875 11.28125 
Q 10.40625 8.6875 15.234375 7.390625 
Q 20.0625 6.109375 24.8125 6.109375 
Q 31.15625 6.109375 34.5625 8.28125 
Q 37.984375 10.453125 37.984375 14.40625 
Q 37.984375 18.0625 35.515625 20.015625 
Q 33.0625 21.96875 24.703125 23.78125 
L 21.578125 24.515625 
Q 13.234375 26.265625 9.515625 29.90625 
Q 5.8125 33.546875 5.8125 39.890625 
Q 5.8125 47.609375 11.28125 51.796875 
Q 16.75 56 26.8125 56 
Q 31.78125 56 36.171875 55.265625 
Q 40.578125 54.546875 44.28125 53.078125 
z
" id="DejaVuSans-73"/>
      <path d="M 56.203125 29.59375 
L 56.203125 25.203125 
L 14.890625 25.203125 
Q 15.484375 15.921875 20.484375 11.0625 
Q 25.484375 6.203125 34.421875 6.203125 
Q 39.59375 6.203125 44.453125 7.46875 
Q 49.3125 8.734375 54.109375 11.28125 
L 54.109375 2.78125 
Q 49.265625 0.734375 44.1875 -0.34375 
Q 39.109375 -1.421875 33.890625 -1.421875 
Q 20.796875 -1.421875 13.15625 6.1875 
Q 5.515625 13.8125 5.515625 26.8125 
Q 5.515625 40.234375 12.765625 48.109375 
Q 20.015625 56 32.328125 56 
Q 43.359375 56 49.78125 48.890625 
Q 56.203125 41.796875 56.203125 29.59375 
z
M 47.21875 32.234375 
Q 47.125 39.59375 43.09375 43.984375 
Q 39.0625 48.390625 32.421875 48.390625 
Q 24.90625 48.390625 20.390625 44.140625 
Q 15.875 39.890625 15.1875 32.171875 
z
" id="DejaVuSans-65"/>
      <path d="M 8.015625 75.875 
L 15.828125 75.875 
Q 23.140625 64.359375 26.78125 53.3125 
Q 30.421875 42.28125 30.421875 31.390625 
Q 30.421875 20.453125 26.78125 9.375 
Q 23.140625 -1.703125 15.828125 -13.1875 
L 8.015625 -13.1875 
Q 14.5 -2 17.703125 9.0625 
Q 20.90625 20.125 20.90625 31.390625 
Q 20.90625 42.671875 17.703125 53.65625 
Q 14.5 64.65625 8.015625 75.875 
z
" id="DejaVuSans-29"/>
     </defs>
     <g style="fill:#222222;" transform="translate(100.472416 270.939062)scale(0.16 -0.16)">
      <use transform="translate(0 0.015625)" xlink:href="#DejaVuSans-Oblique-46"/>
      <use transform="translate(57.519531 0.015625)" xlink:href="#DejaVuSans-20"/>
      <use transform="translate(89.306641 0.015625)" xlink:href="#DejaVuSans-46"/>
      <use transform="translate(146.826172 0.015625)" xlink:href="#DejaVuSans-61"/>
      <use transform="translate(208.105469 0.015625)" xlink:href="#DejaVuSans-63"/>
      <use transform="translate(263.085938 0.015625)" xlink:href="#DejaVuSans-74"/>
      <use transform="translate(302.294922 0.015625)" xlink:href="#DejaVuSans-6f"/>
      <use transform="translate(363.476562 0.015625)" xlink:href="#DejaVuSans-72"/>
      <use transform="translate(404.589844 0.015625)" xlink:href="#DejaVuSans-20"/>
      <use transform="translate(436.376953 0.015625)" xlink:href="#DejaVuSans-31"/>
      <use transform="translate(500 0.015625)" xlink:href="#DejaVuSans-20"/>
      <use transform="translate(531.787109 0.015625)" xlink:href="#DejaVuSans-28"/>
      <use transform="translate(570.800781 0.015625)" xlink:href="#DejaVuSans-4e"/>
      <use transform="translate(645.605469 0.015625)" xlink:href="#DejaVuSans-6f"/>
      <use transform="translate(706.787109 0.015625)" xlink:href="#DejaVuSans-69"/>
      <use transform="translate(734.570312 0.015625)" xlink:href="#DejaVuSans-73"/>
      <use transform="translate(786.669922 0.015625)" xlink:href="#DejaVuSans-65"/>
      <use transform="translate(848.193359 0.015625)" xlink:href="#DejaVuSans-29"/>
     </g>
    </g>
   </g>
   <g id="matplotlib.axis_2">
    <g id="ytick_1">
     <g id="line2d_6">
      <defs>
       <path d="M 0 0 
L -4 0 
" id="m6744012c67" style="stroke:#222222;"/>
      </defs>
      <g>
       <use style="fill:#222222;stroke:#222222;" x="66.425" xlink:href="#m6744012c67" y="234.2"/>
      </g>
     </g>
     <g id="text_7">
      <!-- 0 -->
      <g style="fill:#222222;" transform="translate(50.15375 239.138984)scale(0.13 -0.13)">
       <use xlink:href="#DejaVuSans-30"/>
      </g>
     </g>
    </g>
    <g id="ytick_2">
     <g id="line2d_7">
      <g>
       <use style="fill:#222222;stroke:#222222;" x="66.425" xlink:href="#m6744012c67" y="200.113152"/>
      </g>
     </g>
     <g id="text_8">
      <!-- 200 -->
      <g style="fill:#222222;" transform="translate(33.61125 205.052136)scale(0.13 -0.13)">
       <use xlink:href="#DejaVuSans-32"/>
       <use x="63.623047" xlink:href="#DejaVuSans-30"/>
       <use x="127.246094" xlink:href="#DejaVuSans-30"/>
      </g>
     </g>
    </g>
    <g id="ytick_3">
     <g id="line2d_8">
      <g>
       <use style="fill:#222222;stroke:#222222;" x="66.425" xlink:href="#m6744012c67" y="166.026303"/>
      </g>
     </g>
     <g id="text_9">
      <!-- 400 -->
      <g style="fill:#222222;" transform="translate(33.61125 170.965287)scale(0.13 -0.13)">
       <use xlink:href="#DejaVuSans-34"/>
       <use x="63.623047" xlink:href="#DejaVuSans-30"/>
       <use x="127.246094" xlink:href="#DejaVuSans-30"/>
      </g>
     </g>
    </g>
    <g id="ytick_4">
     <g id="line2d_9">
      <g>
       <use style="fill:#222222;stroke:#222222;" x="66.425" xlink:href="#m6744012c67" y="131.939455"/>
      </g>
     </g>
     <g id="text_10">
      <!-- 600 -->
      <defs>
       <path d="M 33.015625 40.375 
Q 26.375 40.375 22.484375 35.828125 
Q 18.609375 31.296875 18.609375 23.390625 
Q 18.609375 15.53125 22.484375 10.953125 
Q 26.375 6.390625 33.015625 6.390625 
Q 39.65625 6.390625 43.53125 10.953125 
Q 47.40625 15.53125 47.40625 23.390625 
Q 47.40625 31.296875 43.53125 35.828125 
Q 39.65625 40.375 33.015625 40.375 
z
M 52.59375 71.296875 
L 52.59375 62.3125 
Q 48.875 64.0625 45.09375 64.984375 
Q 41.3125 65.921875 37.59375 65.921875 
Q 27.828125 65.921875 22.671875 59.328125 
Q 17.53125 52.734375 16.796875 39.40625 
Q 19.671875 43.65625 24.015625 45.921875 
Q 28.375 48.1875 33.59375 48.1875 
Q 44.578125 48.1875 50.953125 41.515625 
Q 57.328125 34.859375 57.328125 23.390625 
Q 57.328125 12.15625 50.6875 5.359375 
Q 44.046875 -1.421875 33.015625 -1.421875 
Q 20.359375 -1.421875 13.671875 8.265625 
Q 6.984375 17.96875 6.984375 36.375 
Q 6.984375 53.65625 15.1875 63.9375 
Q 23.390625 74.21875 37.203125 74.21875 
Q 40.921875 74.21875 44.703125 73.484375 
Q 48.484375 72.75 52.59375 71.296875 
z
" id="DejaVuSans-36"/>
      </defs>
      <g style="fill:#222222;" transform="translate(33.61125 136.878439)scale(0.13 -0.13)">
       <use xlink:href="#DejaVuSans-36"/>
       <use x="63.623047" xlink:href="#DejaVuSans-30"/>
       <use x="127.246094" xlink:href="#DejaVuSans-30"/>
      </g>
     </g>
    </g>
    <g id="ytick_5">
     <g id="line2d_10">
      <g>
       <use style="fill:#222222;stroke:#222222;" x="66.425" xlink:href="#m6744012c67" y="97.852606"/>
      </g>
     </g>
     <g id="text_11">
      <!-- 800 -->
      <defs>
       <path d="M 31.78125 34.625 
Q 24.75 34.625 20.71875 30.859375 
Q 16.703125 27.09375 16.703125 20.515625 
Q 16.703125 13.921875 20.71875 10.15625 
Q 24.75 6.390625 31.78125 6.390625 
Q 38.8125 6.390625 42.859375 10.171875 
Q 46.921875 13.96875 46.921875 20.515625 
Q 46.921875 27.09375 42.890625 30.859375 
Q 38.875 34.625 31.78125 34.625 
z
M 21.921875 38.8125 
Q 15.578125 40.375 12.03125 44.71875 
Q 8.5 49.078125 8.5 55.328125 
Q 8.5 64.0625 14.71875 69.140625 
Q 20.953125 74.21875 31.78125 74.21875 
Q 42.671875 74.21875 48.875 69.140625 
Q 55.078125 64.0625 55.078125 55.328125 
Q 55.078125 49.078125 51.53125 44.71875 
Q 48 40.375 41.703125 38.8125 
Q 48.828125 37.15625 52.796875 32.3125 
Q 56.78125 27.484375 56.78125 20.515625 
Q 56.78125 9.90625 50.3125 4.234375 
Q 43.84375 -1.421875 31.78125 -1.421875 
Q 19.734375 -1.421875 13.25 4.234375 
Q 6.78125 9.90625 6.78125 20.515625 
Q 6.78125 27.484375 10.78125 32.3125 
Q 14.796875 37.15625 21.921875 38.8125 
z
M 18.3125 54.390625 
Q 18.3125 48.734375 21.84375 45.5625 
Q 25.390625 42.390625 31.78125 42.390625 
Q 38.140625 42.390625 41.71875 45.5625 
Q 45.3125 48.734375 45.3125 54.390625 
Q 45.3125 60.0625 41.71875 63.234375 
Q 38.140625 66.40625 31.78125 66.40625 
Q 25.390625 66.40625 21.84375 63.234375 
Q 18.3125 60.0625 18.3125 54.390625 
z
" id="DejaVuSans-38"/>
      </defs>
      <g style="fill:#222222;" transform="translate(33.61125 102.791591)scale(0.13 -0.13)">
       <use xlink:href="#DejaVuSans-38"/>
       <use x="63.623047" xlink:href="#DejaVuSans-30"/>
       <use x="127.246094" xlink:href="#DejaVuSans-30"/>
      </g>
     </g>
    </g>
    <g id="ytick_6">
     <g id="line2d_11">
      <g>
       <use style="fill:#222222;stroke:#222222;" x="66.425" xlink:href="#m6744012c67" y="63.765758"/>
      </g>
     </g>
     <g id="text_12">
      <!-- 1000 -->
      <g style="fill:#222222;" transform="translate(25.34 68.704742)scale(0.13 -0.13)">
       <use xlink:href="#DejaVuSans-31"/>
       <use x="63.623047" xlink:href="#DejaVuSans-30"/>
       <use x="127.246094" xlink:href="#DejaVuSans-30"/>
       <use x="190.869141" xlink:href="#DejaVuSans-30"/>
      </g>
     </g>
    </g>
    <g id="ytick_7">
     <g id="line2d_12">
      <g>
       <use style="fill:#222222;stroke:#222222;" x="66.425" xlink:href="#m6744012c67" y="29.678909"/>
      </g>
     </g>
     <g id="text_13">
      <!-- 1200 -->
      <g style="fill:#222222;" transform="translate(25.34 34.617894)scale(0.13 -0.13)">
       <use xlink:href="#DejaVuSans-31"/>
       <use x="63.623047" xlink:href="#DejaVuSans-32"/>
       <use x="127.246094" xlink:href="#DejaVuSans-30"/>
       <use x="190.869141" xlink:href="#DejaVuSans-30"/>
      </g>
     </g>
    </g>
    <g id="text_14">
     <!-- Frequency -->
     <defs>
      <path d="M 14.796875 27.296875 
Q 14.796875 17.390625 18.875 11.75 
Q 22.953125 6.109375 30.078125 6.109375 
Q 37.203125 6.109375 41.296875 11.75 
Q 45.40625 17.390625 45.40625 27.296875 
Q 45.40625 37.203125 41.296875 42.84375 
Q 37.203125 48.484375 30.078125 48.484375 
Q 22.953125 48.484375 18.875 42.84375 
Q 14.796875 37.203125 14.796875 27.296875 
z
M 45.40625 8.203125 
Q 42.578125 3.328125 38.25 0.953125 
Q 33.9375 -1.421875 27.875 -1.421875 
Q 17.96875 -1.421875 11.734375 6.484375 
Q 5.515625 14.40625 5.515625 27.296875 
Q 5.515625 40.1875 11.734375 48.09375 
Q 17.96875 56 27.875 56 
Q 33.9375 56 38.25 53.625 
Q 42.578125 51.265625 45.40625 46.390625 
L 45.40625 54.6875 
L 54.390625 54.6875 
L 54.390625 -20.796875 
L 45.40625 -20.796875 
z
" id="DejaVuSans-71"/>
      <path d="M 8.5 21.578125 
L 8.5 54.6875 
L 17.484375 54.6875 
L 17.484375 21.921875 
Q 17.484375 14.15625 20.5 10.265625 
Q 23.53125 6.390625 29.59375 6.390625 
Q 36.859375 6.390625 41.078125 11.03125 
Q 45.3125 15.671875 45.3125 23.6875 
L 45.3125 54.6875 
L 54.296875 54.6875 
L 54.296875 0 
L 45.3125 0 
L 45.3125 8.40625 
Q 42.046875 3.421875 37.71875 1 
Q 33.40625 -1.421875 27.6875 -1.421875 
Q 18.265625 -1.421875 13.375 4.4375 
Q 8.5 10.296875 8.5 21.578125 
z
M 31.109375 56 
z
" id="DejaVuSans-75"/>
      <path d="M 54.890625 33.015625 
L 54.890625 0 
L 45.90625 0 
L 45.90625 32.71875 
Q 45.90625 40.484375 42.875 44.328125 
Q 39.84375 48.1875 33.796875 48.1875 
Q 26.515625 48.1875 22.3125 43.546875 
Q 18.109375 38.921875 18.109375 30.90625 
L 18.109375 0 
L 9.078125 0 
L 9.078125 54.6875 
L 18.109375 54.6875 
L 18.109375 46.1875 
Q 21.34375 51.125 25.703125 53.5625 
Q 30.078125 56 35.796875 56 
Q 45.21875 56 50.046875 50.171875 
Q 54.890625 44.34375 54.890625 33.015625 
z
" id="DejaVuSans-6e"/>
      <path d="M 32.171875 -5.078125 
Q 28.375 -14.84375 24.75 -17.8125 
Q 21.140625 -20.796875 15.09375 -20.796875 
L 7.90625 -20.796875 
L 7.90625 -13.28125 
L 13.1875 -13.28125 
Q 16.890625 -13.28125 18.9375 -11.515625 
Q 21 -9.765625 23.484375 -3.21875 
L 25.09375 0.875 
L 2.984375 54.6875 
L 12.5 54.6875 
L 29.59375 11.921875 
L 46.6875 54.6875 
L 56.203125 54.6875 
z
" id="DejaVuSans-79"/>
     </defs>
     <g style="fill:#222222;" transform="translate(22.5125 166.57625)rotate(-90)scale(0.16 -0.16)">
      <use xlink:href="#DejaVuSans-46"/>
      <use x="57.410156" xlink:href="#DejaVuSans-72"/>
      <use x="98.492188" xlink:href="#DejaVuSans-65"/>
      <use x="160.015625" xlink:href="#DejaVuSans-71"/>
      <use x="223.492188" xlink:href="#DejaVuSans-75"/>
      <use x="286.871094" xlink:href="#DejaVuSans-65"/>
      <use x="348.394531" xlink:href="#DejaVuSans-6e"/>
      <use x="411.773438" xlink:href="#DejaVuSans-63"/>
      <use x="466.753906" xlink:href="#DejaVuSans-79"/>
     </g>
    </g>
   </g>
   <g id="line2d_13">
    <path clip-path="url(#p425ab1ed17)" d="M 267.04643 234.2 
L 267.04643 36.74 
" style="fill:none;stroke:#ff8b22;stroke-linecap:square;stroke-width:1.5;"/>
   </g>
   <g id="patch_53">
    <path d="M 66.425 234.2 
L 66.425 14.8 
" style="fill:none;stroke:#222222;stroke-linecap:square;stroke-linejoin:miter;"/>
   </g>
   <g id="patch_54">
    <path d="M 66.425 234.2 
L 276.599831 234.2 
" style="fill:none;stroke:#222222;stroke-linecap:square;stroke-linejoin:miter;"/>
   </g>
   <g id="text_15">
    <!-- Observed $F$ -->
    <defs>
     <path d="M 39.40625 66.21875 
Q 28.65625 66.21875 22.328125 58.203125 
Q 16.015625 50.203125 16.015625 36.375 
Q 16.015625 22.609375 22.328125 14.59375 
Q 28.65625 6.59375 39.40625 6.59375 
Q 50.140625 6.59375 56.421875 14.59375 
Q 62.703125 22.609375 62.703125 36.375 
Q 62.703125 50.203125 56.421875 58.203125 
Q 50.140625 66.21875 39.40625 66.21875 
z
M 39.40625 74.21875 
Q 54.734375 74.21875 63.90625 63.9375 
Q 73.09375 53.65625 73.09375 36.375 
Q 73.09375 19.140625 63.90625 8.859375 
Q 54.734375 -1.421875 39.40625 -1.421875 
Q 24.03125 -1.421875 14.8125 8.828125 
Q 5.609375 19.09375 5.609375 36.375 
Q 5.609375 53.65625 14.8125 63.9375 
Q 24.03125 74.21875 39.40625 74.21875 
z
" id="DejaVuSans-4f"/>
     <path d="M 48.6875 27.296875 
Q 48.6875 37.203125 44.609375 42.84375 
Q 40.53125 48.484375 33.40625 48.484375 
Q 26.265625 48.484375 22.1875 42.84375 
Q 18.109375 37.203125 18.109375 27.296875 
Q 18.109375 17.390625 22.1875 11.75 
Q 26.265625 6.109375 33.40625 6.109375 
Q 40.53125 6.109375 44.609375 11.75 
Q 48.6875 17.390625 48.6875 27.296875 
z
M 18.109375 46.390625 
Q 20.953125 51.265625 25.265625 53.625 
Q 29.59375 56 35.59375 56 
Q 45.5625 56 51.78125 48.09375 
Q 58.015625 40.1875 58.015625 27.296875 
Q 58.015625 14.40625 51.78125 6.484375 
Q 45.5625 -1.421875 35.59375 -1.421875 
Q 29.59375 -1.421875 25.265625 0.953125 
Q 20.953125 3.328125 18.109375 8.203125 
L 18.109375 0 
L 9.078125 0 
L 9.078125 75.984375 
L 18.109375 75.984375 
z
" id="DejaVuSans-62"/>
     <path d="M 2.984375 54.6875 
L 12.5 54.6875 
L 29.59375 8.796875 
L 46.6875 54.6875 
L 56.203125 54.6875 
L 35.6875 0 
L 23.484375 0 
z
" id="DejaVuSans-76"/>
     <path d="M 45.40625 46.390625 
L 45.40625 75.984375 
L 54.390625 75.984375 
L 54.390625 0 
L 45.40625 0 
L 45.40625 8.203125 
Q 42.578125 3.328125 38.25 0.953125 
Q 33.9375 -1.421875 27.875 -1.421875 
Q 17.96875 -1.421875 11.734375 6.484375 
Q 5.515625 14.40625 5.515625 27.296875 
Q 5.515625 40.1875 11.734375 48.09375 
Q 17.96875 56 27.875 56 
Q 33.9375 56 38.25 53.625 
Q 42.578125 51.265625 45.40625 46.390625 
z
M 14.796875 27.296875 
Q 14.796875 17.390625 18.875 11.75 
Q 22.953125 6.109375 30.078125 6.109375 
Q 37.203125 6.109375 41.296875 11.75 
Q 45.40625 17.390625 45.40625 27.296875 
Q 45.40625 37.203125 41.296875 42.84375 
Q 37.203125 48.484375 30.078125 48.484375 
Q 22.953125 48.484375 18.875 42.84375 
Q 14.796875 37.203125 14.796875 27.296875 
z
" id="DejaVuSans-64"/>
    </defs>
    <g style="fill:#ff8b22;" transform="translate(227.07643 13.7635)scale(0.14 -0.14)">
     <use transform="translate(0 0.015625)" xlink:href="#DejaVuSans-4f"/>
     <use transform="translate(78.710938 0.015625)" xlink:href="#DejaVuSans-62"/>
     <use transform="translate(142.1875 0.015625)" xlink:href="#DejaVuSans-73"/>
     <use transform="translate(194.287109 0.015625)" xlink:href="#DejaVuSans-65"/>
     <use transform="translate(255.810547 0.015625)" xlink:href="#DejaVuSans-72"/>
     <use transform="translate(296.923828 0.015625)" xlink:href="#DejaVuSans-76"/>
     <use transform="translate(356.103516 0.015625)" xlink:href="#DejaVuSans-65"/>
     <use transform="translate(417.626953 0.015625)" xlink:href="#DejaVuSans-64"/>
     <use transform="translate(481.103516 0.015625)" xlink:href="#DejaVuSans-20"/>
     <use transform="translate(512.890625 0.015625)" xlink:href="#DejaVuSans-Oblique-46"/>
    </g>
    <!-- 43.04 -->
    <defs>
     <path d="M 10.6875 12.40625 
L 21 12.40625 
L 21 0 
L 10.6875 0 
z
" id="DejaVuSans-2e"/>
    </defs>
    <g style="fill:#ff8b22;" transform="translate(247.006743 29.440437)scale(0.14 -0.14)">
     <use xlink:href="#DejaVuSans-34"/>
     <use x="63.623047" xlink:href="#DejaVuSans-33"/>
     <use x="127.246094" xlink:href="#DejaVuSans-2e"/>
     <use x="159.033203" xlink:href="#DejaVuSans-30"/>
     <use x="222.65625" xlink:href="#DejaVuSans-34"/>
    </g>
   </g>
   <g id="text_16">
    <!-- 0 simulations -->
    <defs>
     <path d="M 52 44.1875 
Q 55.375 50.25 60.0625 53.125 
Q 64.75 56 71.09375 56 
Q 79.640625 56 84.28125 50.015625 
Q 88.921875 44.046875 88.921875 33.015625 
L 88.921875 0 
L 79.890625 0 
L 79.890625 32.71875 
Q 79.890625 40.578125 77.09375 44.375 
Q 74.3125 48.1875 68.609375 48.1875 
Q 61.625 48.1875 57.5625 43.546875 
Q 53.515625 38.921875 53.515625 30.90625 
L 53.515625 0 
L 44.484375 0 
L 44.484375 32.71875 
Q 44.484375 40.625 41.703125 44.40625 
Q 38.921875 48.1875 33.109375 48.1875 
Q 26.21875 48.1875 22.15625 43.53125 
Q 18.109375 38.875 18.109375 30.90625 
L 18.109375 0 
L 9.078125 0 
L 9.078125 54.6875 
L 18.109375 54.6875 
L 18.109375 46.1875 
Q 21.1875 51.21875 25.484375 53.609375 
Q 29.78125 56 35.6875 56 
Q 41.65625 56 45.828125 52.96875 
Q 50 49.953125 52 44.1875 
z
" id="DejaVuSans-6d"/>
     <path d="M 9.421875 75.984375 
L 18.40625 75.984375 
L 18.40625 0 
L 9.421875 0 
z
" id="DejaVuSans-6c"/>
    </defs>
    <g transform="translate(168.979438 86.883062)scale(0.14 -0.14)">
     <use xlink:href="#DejaVuSans-30"/>
     <use x="63.623047" xlink:href="#DejaVuSans-20"/>
     <use x="95.410156" xlink:href="#DejaVuSans-73"/>
     <use x="147.509766" xlink:href="#DejaVuSans-69"/>
     <use x="175.292969" xlink:href="#DejaVuSans-6d"/>
     <use x="272.705078" xlink:href="#DejaVuSans-75"/>
     <use x="336.083984" xlink:href="#DejaVuSans-6c"/>
     <use x="363.867188" xlink:href="#DejaVuSans-61"/>
     <use x="425.146484" xlink:href="#DejaVuSans-74"/>
     <use x="464.355469" xlink:href="#DejaVuSans-69"/>
     <use x="492.138672" xlink:href="#DejaVuSans-6f"/>
     <use x="553.320312" xlink:href="#DejaVuSans-6e"/>
     <use x="616.699219" xlink:href="#DejaVuSans-73"/>
    </g>
    <!-- with $F\geq$43.04 -->
    <defs>
     <path d="M 4.203125 54.6875 
L 13.1875 54.6875 
L 24.421875 12.015625 
L 35.59375 54.6875 
L 46.1875 54.6875 
L 57.421875 12.015625 
L 68.609375 54.6875 
L 77.59375 54.6875 
L 63.28125 0 
L 52.6875 0 
L 40.921875 44.828125 
L 29.109375 0 
L 18.5 0 
z
" id="DejaVuSans-77"/>
     <path d="M 54.890625 33.015625 
L 54.890625 0 
L 45.90625 0 
L 45.90625 32.71875 
Q 45.90625 40.484375 42.875 44.328125 
Q 39.84375 48.1875 33.796875 48.1875 
Q 26.515625 48.1875 22.3125 43.546875 
Q 18.109375 38.921875 18.109375 30.90625 
L 18.109375 0 
L 9.078125 0 
L 9.078125 75.984375 
L 18.109375 75.984375 
L 18.109375 46.1875 
Q 21.34375 51.125 25.703125 53.5625 
Q 30.078125 56 35.796875 56 
Q 45.21875 56 50.046875 50.171875 
Q 54.890625 44.34375 54.890625 33.015625 
z
" id="DejaVuSans-68"/>
     <path d="M 10.59375 49.609375 
L 10.59375 58.203125 
L 73.1875 40.28125 
L 73.1875 31.984375 
L 10.59375 14.015625 
L 10.59375 22.703125 
L 57.515625 36.078125 
z
M 73.1875 8.296875 
L 73.1875 0 
L 10.59375 0 
L 10.59375 8.296875 
z
" id="DejaVuSans-2265"/>
    </defs>
    <g transform="translate(163.066626 102.56)scale(0.14 -0.14)">
     <use transform="translate(0 0.015625)" xlink:href="#DejaVuSans-77"/>
     <use transform="translate(81.787109 0.015625)" xlink:href="#DejaVuSans-69"/>
     <use transform="translate(109.570312 0.015625)" xlink:href="#DejaVuSans-74"/>
     <use transform="translate(148.779297 0.015625)" xlink:href="#DejaVuSans-68"/>
     <use transform="translate(212.158203 0.015625)" xlink:href="#DejaVuSans-20"/>
     <use transform="translate(243.945312 0.015625)" xlink:href="#DejaVuSans-Oblique-46"/>
     <use transform="translate(320.947266 0.015625)" xlink:href="#DejaVuSans-2265"/>
     <use transform="translate(424.21875 0.015625)" xlink:href="#DejaVuSans-34"/>
     <use transform="translate(487.841797 0.015625)" xlink:href="#DejaVuSans-33"/>
     <use transform="translate(551.464844 0.015625)" xlink:href="#DejaVuSans-2e"/>
     <use transform="translate(583.251953 0.015625)" xlink:href="#DejaVuSans-30"/>
     <use transform="translate(646.875 0.015625)" xlink:href="#DejaVuSans-34"/>
    </g>
   </g>
   <g id="text_17">
    <!-- p-value = 0.000 -->
    <defs>
     <path d="M 18.109375 8.203125 
L 18.109375 -20.796875 
L 9.078125 -20.796875 
L 9.078125 54.6875 
L 18.109375 54.6875 
L 18.109375 46.390625 
Q 20.953125 51.265625 25.265625 53.625 
Q 29.59375 56 35.59375 56 
Q 45.5625 56 51.78125 48.09375 
Q 58.015625 40.1875 58.015625 27.296875 
Q 58.015625 14.40625 51.78125 6.484375 
Q 45.5625 -1.421875 35.59375 -1.421875 
Q 29.59375 -1.421875 25.265625 0.953125 
Q 20.953125 3.328125 18.109375 8.203125 
z
M 48.6875 27.296875 
Q 48.6875 37.203125 44.609375 42.84375 
Q 40.53125 48.484375 33.40625 48.484375 
Q 26.265625 48.484375 22.1875 42.84375 
Q 18.109375 37.203125 18.109375 27.296875 
Q 18.109375 17.390625 22.1875 11.75 
Q 26.265625 6.109375 33.40625 6.109375 
Q 40.53125 6.109375 44.609375 11.75 
Q 48.6875 17.390625 48.6875 27.296875 
z
" id="DejaVuSans-70"/>
     <path d="M 4.890625 31.390625 
L 31.203125 31.390625 
L 31.203125 23.390625 
L 4.890625 23.390625 
z
" id="DejaVuSans-2d"/>
     <path d="M 10.59375 45.40625 
L 73.1875 45.40625 
L 73.1875 37.203125 
L 10.59375 37.203125 
z
M 10.59375 25.484375 
L 73.1875 25.484375 
L 73.1875 17.1875 
L 10.59375 17.1875 
z
" id="DejaVuSans-3d"/>
    </defs>
    <g style="fill:#fb4c52;" transform="translate(149.720688 146.44)scale(0.14 -0.14)">
     <use xlink:href="#DejaVuSans-70"/>
     <use x="63.476562" xlink:href="#DejaVuSans-2d"/>
     <use x="99.529297" xlink:href="#DejaVuSans-76"/>
     <use x="158.708984" xlink:href="#DejaVuSans-61"/>
     <use x="219.988281" xlink:href="#DejaVuSans-6c"/>
     <use x="247.771484" xlink:href="#DejaVuSans-75"/>
     <use x="311.150391" xlink:href="#DejaVuSans-65"/>
     <use x="372.673828" xlink:href="#DejaVuSans-20"/>
     <use x="404.460938" xlink:href="#DejaVuSans-3d"/>
     <use x="488.25" xlink:href="#DejaVuSans-20"/>
     <use x="520.037109" xlink:href="#DejaVuSans-30"/>
     <use x="583.660156" xlink:href="#DejaVuSans-2e"/>
     <use x="615.447266" xlink:href="#DejaVuSans-30"/>
     <use x="679.070312" xlink:href="#DejaVuSans-30"/>
     <use x="742.693359" xlink:href="#DejaVuSans-30"/>
    </g>
   </g>
  </g>
  <g id="axes_2">
   <g id="patch_55">
    <path d="M 347.024831 234.2 
L 557.199663 234.2 
L 557.199663 14.8 
L 347.024831 14.8 
z
" style="fill:none;"/>
   </g>
   <g id="patch_56">
    <path clip-path="url(#p3c943876b9)" d="M 356.578233 234.2 
L 360.399593 234.2 
L 360.399593 25.247619 
L 356.578233 25.247619 
z
" style="fill:#00bfff;"/>
   </g>
   <g id="patch_57">
    <path clip-path="url(#p3c943876b9)" d="M 360.399593 234.2 
L 364.220954 234.2 
L 364.220954 164.641581 
L 360.399593 164.641581 
z
" style="fill:#00bfff;"/>
   </g>
   <g id="patch_58">
    <path clip-path="url(#p3c943876b9)" d="M 364.220954 234.2 
L 368.042315 234.2 
L 368.042315 187.827721 
L 364.220954 187.827721 
z
" style="fill:#00bfff;"/>
   </g>
   <g id="patch_59">
    <path clip-path="url(#p3c943876b9)" d="M 368.042315 234.2 
L 371.863675 234.2 
L 371.863675 203.762418 
L 368.042315 203.762418 
z
" style="fill:#00bfff;"/>
   </g>
   <g id="patch_60">
    <path clip-path="url(#p3c943876b9)" d="M 371.863675 234.2 
L 375.685036 234.2 
L 375.685036 210.921485 
L 371.863675 210.921485 
z
" style="fill:#00bfff;"/>
   </g>
   <g id="patch_61">
    <path clip-path="url(#p3c943876b9)" d="M 375.685036 234.2 
L 379.506396 234.2 
L 379.506396 217.711052 
L 375.685036 217.711052 
z
" style="fill:#00bfff;"/>
   </g>
   <g id="patch_62">
    <path clip-path="url(#p3c943876b9)" d="M 379.506396 234.2 
L 383.327757 234.2 
L 383.327757 220.759429 
L 379.506396 220.759429 
z
" style="fill:#00bfff;"/>
   </g>
   <g id="patch_63">
    <path clip-path="url(#p3c943876b9)" d="M 383.327757 234.2 
L 387.149118 234.2 
L 387.149118 223.669243 
L 383.327757 223.669243 
z
" style="fill:#00bfff;"/>
   </g>
   <g id="patch_64">
    <path clip-path="url(#p3c943876b9)" d="M 387.149118 234.2 
L 390.970478 234.2 
L 390.970478 226.117182 
L 387.149118 226.117182 
z
" style="fill:#00bfff;"/>
   </g>
   <g id="patch_65">
    <path clip-path="url(#p3c943876b9)" d="M 390.970478 234.2 
L 394.791839 234.2 
L 394.791839 227.733746 
L 390.970478 227.733746 
z
" style="fill:#00bfff;"/>
   </g>
   <g id="patch_66">
    <path clip-path="url(#p3c943876b9)" d="M 394.791839 234.2 
L 398.613199 234.2 
L 398.613199 229.026997 
L 394.791839 229.026997 
z
" style="fill:#00bfff;"/>
   </g>
   <g id="patch_67">
    <path clip-path="url(#p3c943876b9)" d="M 398.613199 234.2 
L 402.43456 234.2 
L 402.43456 230.181685 
L 398.613199 230.181685 
z
" style="fill:#00bfff;"/>
   </g>
   <g id="patch_68">
    <path clip-path="url(#p3c943876b9)" d="M 402.43456 234.2 
L 406.25592 234.2 
L 406.25592 230.966873 
L 402.43456 230.966873 
z
" style="fill:#00bfff;"/>
   </g>
   <g id="patch_69">
    <path clip-path="url(#p3c943876b9)" d="M 406.25592 234.2 
L 410.077281 234.2 
L 410.077281 231.613498 
L 406.25592 231.613498 
z
" style="fill:#00bfff;"/>
   </g>
   <g id="patch_70">
    <path clip-path="url(#p3c943876b9)" d="M 410.077281 234.2 
L 413.898642 234.2 
L 413.898642 231.844436 
L 410.077281 231.844436 
z
" style="fill:#00bfff;"/>
   </g>
   <g id="patch_71">
    <path clip-path="url(#p3c943876b9)" d="M 413.898642 234.2 
L 417.720002 234.2 
L 417.720002 232.398686 
L 413.898642 232.398686 
z
" style="fill:#00bfff;"/>
   </g>
   <g id="patch_72">
    <path clip-path="url(#p3c943876b9)" d="M 417.720002 234.2 
L 421.541363 234.2 
L 421.541363 232.768187 
L 417.720002 232.768187 
z
" style="fill:#00bfff;"/>
   </g>
   <g id="patch_73">
    <path clip-path="url(#p3c943876b9)" d="M 421.541363 234.2 
L 425.362723 234.2 
L 425.362723 233.230062 
L 421.541363 233.230062 
z
" style="fill:#00bfff;"/>
   </g>
   <g id="patch_74">
    <path clip-path="url(#p3c943876b9)" d="M 425.362723 234.2 
L 429.184084 234.2 
L 429.184084 233.045312 
L 425.362723 233.045312 
z
" style="fill:#00bfff;"/>
   </g>
   <g id="patch_75">
    <path clip-path="url(#p3c943876b9)" d="M 429.184084 234.2 
L 433.005444 234.2 
L 433.005444 233.276249 
L 429.184084 233.276249 
z
" style="fill:#00bfff;"/>
   </g>
   <g id="patch_76">
    <path clip-path="url(#p3c943876b9)" d="M 433.005444 234.2 
L 436.826805 234.2 
L 436.826805 233.507187 
L 433.005444 233.507187 
z
" style="fill:#00bfff;"/>
   </g>
   <g id="patch_77">
    <path clip-path="url(#p3c943876b9)" d="M 436.826805 234.2 
L 440.648166 234.2 
L 440.648166 233.599562 
L 436.826805 233.599562 
z
" style="fill:#00bfff;"/>
   </g>
   <g id="patch_78">
    <path clip-path="url(#p3c943876b9)" d="M 440.648166 234.2 
L 444.469526 234.2 
L 444.469526 233.599562 
L 440.648166 233.599562 
z
" style="fill:#00bfff;"/>
   </g>
   <g id="patch_79">
    <path clip-path="url(#p3c943876b9)" d="M 444.469526 234.2 
L 448.290887 234.2 
L 448.290887 233.738125 
L 444.469526 233.738125 
z
" style="fill:#00bfff;"/>
   </g>
   <g id="patch_80">
    <path clip-path="url(#p3c943876b9)" d="M 448.290887 234.2 
L 452.112247 234.2 
L 452.112247 233.8305 
L 448.290887 233.8305 
z
" style="fill:#00bfff;"/>
   </g>
   <g id="patch_81">
    <path clip-path="url(#p3c943876b9)" d="M 452.112247 234.2 
L 455.933608 234.2 
L 455.933608 233.784312 
L 452.112247 233.784312 
z
" style="fill:#00bfff;"/>
   </g>
   <g id="patch_82">
    <path clip-path="url(#p3c943876b9)" d="M 455.933608 234.2 
L 459.754968 234.2 
L 459.754968 233.922875 
L 455.933608 233.922875 
z
" style="fill:#00bfff;"/>
   </g>
   <g id="patch_83">
    <path clip-path="url(#p3c943876b9)" d="M 459.754968 234.2 
L 463.576329 234.2 
L 463.576329 234.107625 
L 459.754968 234.107625 
z
" style="fill:#00bfff;"/>
   </g>
   <g id="patch_84">
    <path clip-path="url(#p3c943876b9)" d="M 463.576329 234.2 
L 467.39769 234.2 
L 467.39769 234.153812 
L 463.576329 234.153812 
z
" style="fill:#00bfff;"/>
   </g>
   <g id="patch_85">
    <path clip-path="url(#p3c943876b9)" d="M 467.39769 234.2 
L 471.21905 234.2 
L 471.21905 234.01525 
L 467.39769 234.01525 
z
" style="fill:#00bfff;"/>
   </g>
   <g id="patch_86">
    <path clip-path="url(#p3c943876b9)" d="M 471.21905 234.2 
L 475.040411 234.2 
L 475.040411 234.01525 
L 471.21905 234.01525 
z
" style="fill:#00bfff;"/>
   </g>
   <g id="patch_87">
    <path clip-path="url(#p3c943876b9)" d="M 475.040411 234.2 
L 478.861771 234.2 
L 478.861771 234.107625 
L 475.040411 234.107625 
z
" style="fill:#00bfff;"/>
   </g>
   <g id="patch_88">
    <path clip-path="url(#p3c943876b9)" d="M 478.861771 234.2 
L 482.683132 234.2 
L 482.683132 234.2 
L 478.861771 234.2 
z
" style="fill:#00bfff;"/>
   </g>
   <g id="patch_89">
    <path clip-path="url(#p3c943876b9)" d="M 482.683132 234.2 
L 486.504492 234.2 
L 486.504492 234.153812 
L 482.683132 234.153812 
z
" style="fill:#00bfff;"/>
   </g>
   <g id="patch_90">
    <path clip-path="url(#p3c943876b9)" d="M 486.504492 234.2 
L 490.325853 234.2 
L 490.325853 234.2 
L 486.504492 234.2 
z
" style="fill:#00bfff;"/>
   </g>
   <g id="patch_91">
    <path clip-path="url(#p3c943876b9)" d="M 490.325853 234.2 
L 494.147214 234.2 
L 494.147214 234.2 
L 490.325853 234.2 
z
" style="fill:#00bfff;"/>
   </g>
   <g id="patch_92">
    <path clip-path="url(#p3c943876b9)" d="M 494.147214 234.2 
L 497.968574 234.2 
L 497.968574 234.153812 
L 494.147214 234.153812 
z
" style="fill:#00bfff;"/>
   </g>
   <g id="patch_93">
    <path clip-path="url(#p3c943876b9)" d="M 497.968574 234.2 
L 501.789935 234.2 
L 501.789935 234.107625 
L 497.968574 234.107625 
z
" style="fill:#00bfff;"/>
   </g>
   <g id="patch_94">
    <path clip-path="url(#p3c943876b9)" d="M 501.789935 234.2 
L 505.611295 234.2 
L 505.611295 234.107625 
L 501.789935 234.107625 
z
" style="fill:#00bfff;"/>
   </g>
   <g id="patch_95">
    <path clip-path="url(#p3c943876b9)" d="M 505.611295 234.2 
L 509.432656 234.2 
L 509.432656 234.153812 
L 505.611295 234.153812 
z
" style="fill:#00bfff;"/>
   </g>
   <g id="patch_96">
    <path clip-path="url(#p3c943876b9)" d="M 509.432656 234.2 
L 513.254016 234.2 
L 513.254016 234.107625 
L 509.432656 234.107625 
z
" style="fill:#00bfff;"/>
   </g>
   <g id="patch_97">
    <path clip-path="url(#p3c943876b9)" d="M 513.254016 234.2 
L 517.075377 234.2 
L 517.075377 234.2 
L 513.254016 234.2 
z
" style="fill:#00bfff;"/>
   </g>
   <g id="patch_98">
    <path clip-path="url(#p3c943876b9)" d="M 517.075377 234.2 
L 520.896738 234.2 
L 520.896738 234.153812 
L 517.075377 234.153812 
z
" style="fill:#00bfff;"/>
   </g>
   <g id="patch_99">
    <path clip-path="url(#p3c943876b9)" d="M 520.896738 234.2 
L 524.718098 234.2 
L 524.718098 234.2 
L 520.896738 234.2 
z
" style="fill:#00bfff;"/>
   </g>
   <g id="patch_100">
    <path clip-path="url(#p3c943876b9)" d="M 524.718098 234.2 
L 528.539459 234.2 
L 528.539459 234.153812 
L 524.718098 234.153812 
z
" style="fill:#00bfff;"/>
   </g>
   <g id="patch_101">
    <path clip-path="url(#p3c943876b9)" d="M 528.539459 234.2 
L 532.360819 234.2 
L 532.360819 234.153812 
L 528.539459 234.153812 
z
" style="fill:#00bfff;"/>
   </g>
   <g id="patch_102">
    <path clip-path="url(#p3c943876b9)" d="M 532.360819 234.2 
L 536.18218 234.2 
L 536.18218 234.2 
L 532.360819 234.2 
z
" style="fill:#00bfff;"/>
   </g>
   <g id="patch_103">
    <path clip-path="url(#p3c943876b9)" d="M 536.18218 234.2 
L 540.00354 234.2 
L 540.00354 234.2 
L 536.18218 234.2 
z
" style="fill:#00bfff;"/>
   </g>
   <g id="patch_104">
    <path clip-path="url(#p3c943876b9)" d="M 540.00354 234.2 
L 543.824901 234.2 
L 543.824901 234.2 
L 540.00354 234.2 
z
" style="fill:#00bfff;"/>
   </g>
   <g id="patch_105">
    <path clip-path="url(#p3c943876b9)" d="M 543.824901 234.2 
L 547.646262 234.2 
L 547.646262 234.153812 
L 543.824901 234.153812 
z
" style="fill:#00bfff;"/>
   </g>
   <g id="matplotlib.axis_3">
    <g id="xtick_6">
     <g id="line2d_14">
      <g>
       <use style="fill:#222222;stroke:#222222;" x="356.578233" xlink:href="#m65e1e8ad57" y="234.2"/>
      </g>
     </g>
     <g id="text_18">
      <!-- 0 -->
      <g style="fill:#222222;" transform="translate(352.442608 252.077969)scale(0.13 -0.13)">
       <use xlink:href="#DejaVuSans-30"/>
      </g>
     </g>
    </g>
    <g id="xtick_7">
     <g id="line2d_15">
      <g>
       <use style="fill:#222222;stroke:#222222;" x="408.980028" xlink:href="#m65e1e8ad57" y="234.2"/>
      </g>
     </g>
     <g id="text_19">
      <!-- 5 -->
      <defs>
       <path d="M 10.796875 72.90625 
L 49.515625 72.90625 
L 49.515625 64.59375 
L 19.828125 64.59375 
L 19.828125 46.734375 
Q 21.96875 47.46875 24.109375 47.828125 
Q 26.265625 48.1875 28.421875 48.1875 
Q 40.625 48.1875 47.75 41.5 
Q 54.890625 34.8125 54.890625 23.390625 
Q 54.890625 11.625 47.5625 5.09375 
Q 40.234375 -1.421875 26.90625 -1.421875 
Q 22.3125 -1.421875 17.546875 -0.640625 
Q 12.796875 0.140625 7.71875 1.703125 
L 7.71875 11.625 
Q 12.109375 9.234375 16.796875 8.0625 
Q 21.484375 6.890625 26.703125 6.890625 
Q 35.15625 6.890625 40.078125 11.328125 
Q 45.015625 15.765625 45.015625 23.390625 
Q 45.015625 31 40.078125 35.4375 
Q 35.15625 39.890625 26.703125 39.890625 
Q 22.75 39.890625 18.8125 39.015625 
Q 14.890625 38.140625 10.796875 36.28125 
z
" id="DejaVuSans-35"/>
      </defs>
      <g style="fill:#222222;" transform="translate(404.844403 252.077969)scale(0.13 -0.13)">
       <use xlink:href="#DejaVuSans-35"/>
      </g>
     </g>
    </g>
    <g id="xtick_8">
     <g id="line2d_16">
      <g>
       <use style="fill:#222222;stroke:#222222;" x="461.381822" xlink:href="#m65e1e8ad57" y="234.2"/>
      </g>
     </g>
     <g id="text_20">
      <!-- 10 -->
      <g style="fill:#222222;" transform="translate(453.110572 252.077969)scale(0.13 -0.13)">
       <use xlink:href="#DejaVuSans-31"/>
       <use x="63.623047" xlink:href="#DejaVuSans-30"/>
      </g>
     </g>
    </g>
    <g id="xtick_9">
     <g id="line2d_17">
      <g>
       <use style="fill:#222222;stroke:#222222;" x="513.783617" xlink:href="#m65e1e8ad57" y="234.2"/>
      </g>
     </g>
     <g id="text_21">
      <!-- 15 -->
      <g style="fill:#222222;" transform="translate(505.512367 252.077969)scale(0.13 -0.13)">
       <use xlink:href="#DejaVuSans-31"/>
       <use x="63.623047" xlink:href="#DejaVuSans-35"/>
      </g>
     </g>
    </g>
    <g id="text_22">
     <!-- $F$ Factor 2 (Gender) -->
     <defs>
      <path d="M 59.515625 10.40625 
L 59.515625 29.984375 
L 43.40625 29.984375 
L 43.40625 38.09375 
L 69.28125 38.09375 
L 69.28125 6.78125 
Q 63.578125 2.734375 56.6875 0.65625 
Q 49.8125 -1.421875 42 -1.421875 
Q 24.90625 -1.421875 15.25 8.5625 
Q 5.609375 18.5625 5.609375 36.375 
Q 5.609375 54.25 15.25 64.234375 
Q 24.90625 74.21875 42 74.21875 
Q 49.125 74.21875 55.546875 72.453125 
Q 61.96875 70.703125 67.390625 67.28125 
L 67.390625 56.78125 
Q 61.921875 61.421875 55.765625 63.765625 
Q 49.609375 66.109375 42.828125 66.109375 
Q 29.4375 66.109375 22.71875 58.640625 
Q 16.015625 51.171875 16.015625 36.375 
Q 16.015625 21.625 22.71875 14.15625 
Q 29.4375 6.6875 42.828125 6.6875 
Q 48.046875 6.6875 52.140625 7.59375 
Q 56.25 8.5 59.515625 10.40625 
z
" id="DejaVuSans-47"/>
     </defs>
     <g style="fill:#222222;" transform="translate(373.792247 270.939062)scale(0.16 -0.16)">
      <use transform="translate(0 0.015625)" xlink:href="#DejaVuSans-Oblique-46"/>
      <use transform="translate(57.519531 0.015625)" xlink:href="#DejaVuSans-20"/>
      <use transform="translate(89.306641 0.015625)" xlink:href="#DejaVuSans-46"/>
      <use transform="translate(146.826172 0.015625)" xlink:href="#DejaVuSans-61"/>
      <use transform="translate(208.105469 0.015625)" xlink:href="#DejaVuSans-63"/>
      <use transform="translate(263.085938 0.015625)" xlink:href="#DejaVuSans-74"/>
      <use transform="translate(302.294922 0.015625)" xlink:href="#DejaVuSans-6f"/>
      <use transform="translate(363.476562 0.015625)" xlink:href="#DejaVuSans-72"/>
      <use transform="translate(404.589844 0.015625)" xlink:href="#DejaVuSans-20"/>
      <use transform="translate(436.376953 0.015625)" xlink:href="#DejaVuSans-32"/>
      <use transform="translate(500 0.015625)" xlink:href="#DejaVuSans-20"/>
      <use transform="translate(531.787109 0.015625)" xlink:href="#DejaVuSans-28"/>
      <use transform="translate(570.800781 0.015625)" xlink:href="#DejaVuSans-47"/>
      <use transform="translate(648.291016 0.015625)" xlink:href="#DejaVuSans-65"/>
      <use transform="translate(709.814453 0.015625)" xlink:href="#DejaVuSans-6e"/>
      <use transform="translate(773.193359 0.015625)" xlink:href="#DejaVuSans-64"/>
      <use transform="translate(836.669922 0.015625)" xlink:href="#DejaVuSans-65"/>
      <use transform="translate(898.193359 0.015625)" xlink:href="#DejaVuSans-72"/>
      <use transform="translate(939.306641 0.015625)" xlink:href="#DejaVuSans-29"/>
     </g>
    </g>
   </g>
   <g id="matplotlib.axis_4">
    <g id="ytick_8">
     <g id="line2d_18">
      <g>
       <use style="fill:#222222;stroke:#222222;" x="347.024831" xlink:href="#m6744012c67" y="234.2"/>
      </g>
     </g>
     <g id="text_23">
      <!-- 0 -->
      <g style="fill:#222222;" transform="translate(330.753581 239.138984)scale(0.13 -0.13)">
       <use xlink:href="#DejaVuSans-30"/>
      </g>
     </g>
    </g>
    <g id="ytick_9">
     <g id="line2d_19">
      <g>
       <use style="fill:#222222;stroke:#222222;" x="347.024831" xlink:href="#m6744012c67" y="188.012471"/>
      </g>
     </g>
     <g id="text_24">
      <!-- 1000 -->
      <g style="fill:#222222;" transform="translate(305.939831 192.951455)scale(0.13 -0.13)">
       <use xlink:href="#DejaVuSans-31"/>
       <use x="63.623047" xlink:href="#DejaVuSans-30"/>
       <use x="127.246094" xlink:href="#DejaVuSans-30"/>
       <use x="190.869141" xlink:href="#DejaVuSans-30"/>
      </g>
     </g>
    </g>
    <g id="ytick_10">
     <g id="line2d_20">
      <g>
       <use style="fill:#222222;stroke:#222222;" x="347.024831" xlink:href="#m6744012c67" y="141.824942"/>
      </g>
     </g>
     <g id="text_25">
      <!-- 2000 -->
      <g style="fill:#222222;" transform="translate(305.939831 146.763926)scale(0.13 -0.13)">
       <use xlink:href="#DejaVuSans-32"/>
       <use x="63.623047" xlink:href="#DejaVuSans-30"/>
       <use x="127.246094" xlink:href="#DejaVuSans-30"/>
       <use x="190.869141" xlink:href="#DejaVuSans-30"/>
      </g>
     </g>
    </g>
    <g id="ytick_11">
     <g id="line2d_21">
      <g>
       <use style="fill:#222222;stroke:#222222;" x="347.024831" xlink:href="#m6744012c67" y="95.637413"/>
      </g>
     </g>
     <g id="text_26">
      <!-- 3000 -->
      <g style="fill:#222222;" transform="translate(305.939831 100.576398)scale(0.13 -0.13)">
       <use xlink:href="#DejaVuSans-33"/>
       <use x="63.623047" xlink:href="#DejaVuSans-30"/>
       <use x="127.246094" xlink:href="#DejaVuSans-30"/>
       <use x="190.869141" xlink:href="#DejaVuSans-30"/>
      </g>
     </g>
    </g>
    <g id="ytick_12">
     <g id="line2d_22">
      <g>
       <use style="fill:#222222;stroke:#222222;" x="347.024831" xlink:href="#m6744012c67" y="49.449884"/>
      </g>
     </g>
     <g id="text_27">
      <!-- 4000 -->
      <g style="fill:#222222;" transform="translate(305.939831 54.388869)scale(0.13 -0.13)">
       <use xlink:href="#DejaVuSans-34"/>
       <use x="63.623047" xlink:href="#DejaVuSans-30"/>
       <use x="127.246094" xlink:href="#DejaVuSans-30"/>
       <use x="190.869141" xlink:href="#DejaVuSans-30"/>
      </g>
     </g>
    </g>
    <g id="text_28">
     <!-- Frequency -->
     <g style="fill:#222222;" transform="translate(303.112331 166.57625)rotate(-90)scale(0.16 -0.16)">
      <use xlink:href="#DejaVuSans-46"/>
      <use x="57.410156" xlink:href="#DejaVuSans-72"/>
      <use x="98.492188" xlink:href="#DejaVuSans-65"/>
      <use x="160.015625" xlink:href="#DejaVuSans-71"/>
      <use x="223.492188" xlink:href="#DejaVuSans-75"/>
      <use x="286.871094" xlink:href="#DejaVuSans-65"/>
      <use x="348.394531" xlink:href="#DejaVuSans-6e"/>
      <use x="411.773438" xlink:href="#DejaVuSans-63"/>
      <use x="466.753906" xlink:href="#DejaVuSans-79"/>
     </g>
    </g>
   </g>
   <g id="line2d_23">
    <path clip-path="url(#p3c943876b9)" d="M 358.684184 234.2 
L 358.684184 36.74 
" style="fill:none;stroke:#ff8b22;stroke-linecap:square;stroke-width:1.5;"/>
   </g>
   <g id="patch_106">
    <path d="M 347.024831 234.2 
L 347.024831 14.8 
" style="fill:none;stroke:#222222;stroke-linecap:square;stroke-linejoin:miter;"/>
   </g>
   <g id="patch_107">
    <path d="M 347.024831 234.2 
L 557.199663 234.2 
" style="fill:none;stroke:#222222;stroke-linecap:square;stroke-linejoin:miter;"/>
   </g>
   <g id="text_29">
    <!-- Observed $F$ -->
    <g style="fill:#ff8b22;" transform="translate(363.924364 13.7635)scale(0.14 -0.14)">
     <use transform="translate(0 0.015625)" xlink:href="#DejaVuSans-4f"/>
     <use transform="translate(78.710938 0.015625)" xlink:href="#DejaVuSans-62"/>
     <use transform="translate(142.1875 0.015625)" xlink:href="#DejaVuSans-73"/>
     <use transform="translate(194.287109 0.015625)" xlink:href="#DejaVuSans-65"/>
     <use transform="translate(255.810547 0.015625)" xlink:href="#DejaVuSans-72"/>
     <use transform="translate(296.923828 0.015625)" xlink:href="#DejaVuSans-76"/>
     <use transform="translate(356.103516 0.015625)" xlink:href="#DejaVuSans-65"/>
     <use transform="translate(417.626953 0.015625)" xlink:href="#DejaVuSans-64"/>
     <use transform="translate(481.103516 0.015625)" xlink:href="#DejaVuSans-20"/>
     <use transform="translate(512.890625 0.015625)" xlink:href="#DejaVuSans-Oblique-46"/>
    </g>
    <!-- 0.20 -->
    <g style="fill:#ff8b22;" transform="translate(363.924364 29.440437)scale(0.14 -0.14)">
     <use xlink:href="#DejaVuSans-30"/>
     <use x="63.623047" xlink:href="#DejaVuSans-2e"/>
     <use x="95.410156" xlink:href="#DejaVuSans-32"/>
     <use x="159.033203" xlink:href="#DejaVuSans-30"/>
    </g>
   </g>
   <g id="text_30">
    <!-- 6559 simulations -->
    <defs>
     <path d="M 10.984375 1.515625 
L 10.984375 10.5 
Q 14.703125 8.734375 18.5 7.8125 
Q 22.3125 6.890625 25.984375 6.890625 
Q 35.75 6.890625 40.890625 13.453125 
Q 46.046875 20.015625 46.78125 33.40625 
Q 43.953125 29.203125 39.59375 26.953125 
Q 35.25 24.703125 29.984375 24.703125 
Q 19.046875 24.703125 12.671875 31.3125 
Q 6.296875 37.9375 6.296875 49.421875 
Q 6.296875 60.640625 12.9375 67.421875 
Q 19.578125 74.21875 30.609375 74.21875 
Q 43.265625 74.21875 49.921875 64.515625 
Q 56.59375 54.828125 56.59375 36.375 
Q 56.59375 19.140625 48.40625 8.859375 
Q 40.234375 -1.421875 26.421875 -1.421875 
Q 22.703125 -1.421875 18.890625 -0.6875 
Q 15.09375 0.046875 10.984375 1.515625 
z
M 30.609375 32.421875 
Q 37.25 32.421875 41.125 36.953125 
Q 45.015625 41.5 45.015625 49.421875 
Q 45.015625 57.28125 41.125 61.84375 
Q 37.25 66.40625 30.609375 66.40625 
Q 23.96875 66.40625 20.09375 61.84375 
Q 16.21875 57.28125 16.21875 49.421875 
Q 16.21875 41.5 20.09375 36.953125 
Q 23.96875 32.421875 30.609375 32.421875 
z
" id="DejaVuSans-39"/>
    </defs>
    <g transform="translate(414.394647 86.883062)scale(0.14 -0.14)">
     <use xlink:href="#DejaVuSans-36"/>
     <use x="63.623047" xlink:href="#DejaVuSans-35"/>
     <use x="127.246094" xlink:href="#DejaVuSans-35"/>
     <use x="190.869141" xlink:href="#DejaVuSans-39"/>
     <use x="254.492188" xlink:href="#DejaVuSans-20"/>
     <use x="286.279297" xlink:href="#DejaVuSans-73"/>
     <use x="338.378906" xlink:href="#DejaVuSans-69"/>
     <use x="366.162109" xlink:href="#DejaVuSans-6d"/>
     <use x="463.574219" xlink:href="#DejaVuSans-75"/>
     <use x="526.953125" xlink:href="#DejaVuSans-6c"/>
     <use x="554.736328" xlink:href="#DejaVuSans-61"/>
     <use x="616.015625" xlink:href="#DejaVuSans-74"/>
     <use x="655.224609" xlink:href="#DejaVuSans-69"/>
     <use x="683.007812" xlink:href="#DejaVuSans-6f"/>
     <use x="744.189453" xlink:href="#DejaVuSans-6e"/>
     <use x="807.568359" xlink:href="#DejaVuSans-73"/>
    </g>
    <!-- with $F\geq$0.20 -->
    <g transform="translate(444.164335 102.56)scale(0.14 -0.14)">
     <use transform="translate(0 0.015625)" xlink:href="#DejaVuSans-77"/>
     <use transform="translate(81.787109 0.015625)" xlink:href="#DejaVuSans-69"/>
     <use transform="translate(109.570312 0.015625)" xlink:href="#DejaVuSans-74"/>
     <use transform="translate(148.779297 0.015625)" xlink:href="#DejaVuSans-68"/>
     <use transform="translate(212.158203 0.015625)" xlink:href="#DejaVuSans-20"/>
     <use transform="translate(243.945312 0.015625)" xlink:href="#DejaVuSans-Oblique-46"/>
     <use transform="translate(320.947266 0.015625)" xlink:href="#DejaVuSans-2265"/>
     <use transform="translate(424.21875 0.015625)" xlink:href="#DejaVuSans-30"/>
     <use transform="translate(487.841797 0.015625)" xlink:href="#DejaVuSans-2e"/>
     <use transform="translate(519.550781 0.015625)" xlink:href="#DejaVuSans-32"/>
     <use transform="translate(583.173828 0.015625)" xlink:href="#DejaVuSans-30"/>
    </g>
   </g>
   <g id="text_31">
    <!-- p-value = 0.656 -->
    <g style="fill:#fb4c52;" transform="translate(421.858397 146.44)scale(0.14 -0.14)">
     <use xlink:href="#DejaVuSans-70"/>
     <use x="63.476562" xlink:href="#DejaVuSans-2d"/>
     <use x="99.529297" xlink:href="#DejaVuSans-76"/>
     <use x="158.708984" xlink:href="#DejaVuSans-61"/>
     <use x="219.988281" xlink:href="#DejaVuSans-6c"/>
     <use x="247.771484" xlink:href="#DejaVuSans-75"/>
     <use x="311.150391" xlink:href="#DejaVuSans-65"/>
     <use x="372.673828" xlink:href="#DejaVuSans-20"/>
     <use x="404.460938" xlink:href="#DejaVuSans-3d"/>
     <use x="488.25" xlink:href="#DejaVuSans-20"/>
     <use x="520.037109" xlink:href="#DejaVuSans-30"/>
     <use x="583.660156" xlink:href="#DejaVuSans-2e"/>
     <use x="615.447266" xlink:href="#DejaVuSans-36"/>
     <use x="679.070312" xlink:href="#DejaVuSans-35"/>
     <use x="742.693359" xlink:href="#DejaVuSans-36"/>
    </g>
   </g>
  </g>
  <g id="axes_3">
   <g id="patch_108">
    <path d="M 627.624663 234.2 
L 837.799494 234.2 
L 837.799494 14.8 
L 627.624663 14.8 
z
" style="fill:none;"/>
   </g>
   <g id="patch_109">
    <path clip-path="url(#pfe99176e52)" d="M 637.178064 234.2 
L 640.999425 234.2 
L 640.999425 87.461739 
L 637.178064 87.461739 
z
" style="fill:#00bfff;"/>
   </g>
   <g id="patch_110">
    <path clip-path="url(#pfe99176e52)" d="M 640.999425 234.2 
L 644.820786 234.2 
L 644.820786 33.228439 
L 640.999425 33.228439 
z
" style="fill:#00bfff;"/>
   </g>
   <g id="patch_111">
    <path clip-path="url(#pfe99176e52)" d="M 644.820786 234.2 
L 648.642146 234.2 
L 648.642146 25.247619 
L 644.820786 25.247619 
z
" style="fill:#00bfff;"/>
   </g>
   <g id="patch_112">
    <path clip-path="url(#pfe99176e52)" d="M 648.642146 234.2 
L 652.463507 234.2 
L 652.463507 39.214054 
L 648.642146 39.214054 
z
" style="fill:#00bfff;"/>
   </g>
   <g id="patch_113">
    <path clip-path="url(#pfe99176e52)" d="M 652.463507 234.2 
L 656.284867 234.2 
L 656.284867 62.249603 
L 652.463507 62.249603 
z
" style="fill:#00bfff;"/>
   </g>
   <g id="patch_114">
    <path clip-path="url(#pfe99176e52)" d="M 656.284867 234.2 
L 660.106228 234.2 
L 660.106228 90.545238 
L 656.284867 90.545238 
z
" style="fill:#00bfff;"/>
   </g>
   <g id="patch_115">
    <path clip-path="url(#pfe99176e52)" d="M 660.106228 234.2 
L 663.927588 234.2 
L 663.927588 100.884028 
L 660.106228 100.884028 
z
" style="fill:#00bfff;"/>
   </g>
   <g id="patch_116">
    <path clip-path="url(#pfe99176e52)" d="M 663.927588 234.2 
L 667.748949 234.2 
L 667.748949 126.277546 
L 663.927588 126.277546 
z
" style="fill:#00bfff;"/>
   </g>
   <g id="patch_117">
    <path clip-path="url(#pfe99176e52)" d="M 667.748949 234.2 
L 671.57031 234.2 
L 671.57031 144.234392 
L 667.748949 144.234392 
z
" style="fill:#00bfff;"/>
   </g>
   <g id="patch_118">
    <path clip-path="url(#pfe99176e52)" d="M 671.57031 234.2 
L 675.39167 234.2 
L 675.39167 166.907176 
L 671.57031 166.907176 
z
" style="fill:#00bfff;"/>
   </g>
   <g id="patch_119">
    <path clip-path="url(#pfe99176e52)" d="M 675.39167 234.2 
L 679.213031 234.2 
L 679.213031 169.62791 
L 675.39167 169.62791 
z
" style="fill:#00bfff;"/>
   </g>
   <g id="patch_120">
    <path clip-path="url(#pfe99176e52)" d="M 679.213031 234.2 
L 683.034391 234.2 
L 683.034391 184.682639 
L 679.213031 184.682639 
z
" style="fill:#00bfff;"/>
   </g>
   <g id="patch_121">
    <path clip-path="url(#pfe99176e52)" d="M 683.034391 234.2 
L 686.855752 234.2 
L 686.855752 193.207606 
L 683.034391 193.207606 
z
" style="fill:#00bfff;"/>
   </g>
   <g id="patch_122">
    <path clip-path="url(#pfe99176e52)" d="M 686.855752 234.2 
L 690.677112 234.2 
L 690.677112 197.742163 
L 686.855752 197.742163 
z
" style="fill:#00bfff;"/>
   </g>
   <g id="patch_123">
    <path clip-path="url(#pfe99176e52)" d="M 690.677112 234.2 
L 694.498473 234.2 
L 694.498473 203.365013 
L 690.677112 203.365013 
z
" style="fill:#00bfff;"/>
   </g>
   <g id="patch_124">
    <path clip-path="url(#pfe99176e52)" d="M 694.498473 234.2 
L 698.319834 234.2 
L 698.319834 210.801687 
L 694.498473 210.801687 
z
" style="fill:#00bfff;"/>
   </g>
   <g id="patch_125">
    <path clip-path="url(#pfe99176e52)" d="M 698.319834 234.2 
L 702.141194 234.2 
L 702.141194 216.424537 
L 698.319834 216.424537 
z
" style="fill:#00bfff;"/>
   </g>
   <g id="patch_126">
    <path clip-path="url(#pfe99176e52)" d="M 702.141194 234.2 
L 705.962555 234.2 
L 705.962555 218.782507 
L 702.141194 218.782507 
z
" style="fill:#00bfff;"/>
   </g>
   <g id="patch_127">
    <path clip-path="url(#pfe99176e52)" d="M 705.962555 234.2 
L 709.783915 234.2 
L 709.783915 222.954299 
L 705.962555 222.954299 
z
" style="fill:#00bfff;"/>
   </g>
   <g id="patch_128">
    <path clip-path="url(#pfe99176e52)" d="M 709.783915 234.2 
L 713.605276 234.2 
L 713.605276 224.223975 
L 709.783915 224.223975 
z
" style="fill:#00bfff;"/>
   </g>
   <g id="patch_129">
    <path clip-path="url(#pfe99176e52)" d="M 713.605276 234.2 
L 717.426636 234.2 
L 717.426636 227.126091 
L 713.605276 227.126091 
z
" style="fill:#00bfff;"/>
   </g>
   <g id="patch_130">
    <path clip-path="url(#pfe99176e52)" d="M 717.426636 234.2 
L 721.247997 234.2 
L 721.247997 227.670238 
L 717.426636 227.670238 
z
" style="fill:#00bfff;"/>
   </g>
   <g id="patch_131">
    <path clip-path="url(#pfe99176e52)" d="M 721.247997 234.2 
L 725.069358 234.2 
L 725.069358 228.577149 
L 721.247997 228.577149 
z
" style="fill:#00bfff;"/>
   </g>
   <g id="patch_132">
    <path clip-path="url(#pfe99176e52)" d="M 725.069358 234.2 
L 728.890718 234.2 
L 728.890718 230.20959 
L 725.069358 230.20959 
z
" style="fill:#00bfff;"/>
   </g>
   <g id="patch_133">
    <path clip-path="url(#pfe99176e52)" d="M 728.890718 234.2 
L 732.712079 234.2 
L 732.712079 230.20959 
L 728.890718 230.20959 
z
" style="fill:#00bfff;"/>
   </g>
   <g id="patch_134">
    <path clip-path="url(#pfe99176e52)" d="M 732.712079 234.2 
L 736.533439 234.2 
L 736.533439 230.753737 
L 732.712079 230.753737 
z
" style="fill:#00bfff;"/>
   </g>
   <g id="patch_135">
    <path clip-path="url(#pfe99176e52)" d="M 736.533439 234.2 
L 740.3548 234.2 
L 740.3548 232.204795 
L 736.533439 232.204795 
z
" style="fill:#00bfff;"/>
   </g>
   <g id="patch_136">
    <path clip-path="url(#pfe99176e52)" d="M 740.3548 234.2 
L 744.17616 234.2 
L 744.17616 231.297884 
L 740.3548 231.297884 
z
" style="fill:#00bfff;"/>
   </g>
   <g id="patch_137">
    <path clip-path="url(#pfe99176e52)" d="M 744.17616 234.2 
L 747.997521 234.2 
L 747.997521 232.748942 
L 744.17616 232.748942 
z
" style="fill:#00bfff;"/>
   </g>
   <g id="patch_138">
    <path clip-path="url(#pfe99176e52)" d="M 747.997521 234.2 
L 751.818882 234.2 
L 751.818882 231.84203 
L 747.997521 231.84203 
z
" style="fill:#00bfff;"/>
   </g>
   <g id="patch_139">
    <path clip-path="url(#pfe99176e52)" d="M 751.818882 234.2 
L 755.640242 234.2 
L 755.640242 232.748942 
L 751.818882 232.748942 
z
" style="fill:#00bfff;"/>
   </g>
   <g id="patch_140">
    <path clip-path="url(#pfe99176e52)" d="M 755.640242 234.2 
L 759.461603 234.2 
L 759.461603 233.474471 
L 755.640242 233.474471 
z
" style="fill:#00bfff;"/>
   </g>
   <g id="patch_141">
    <path clip-path="url(#pfe99176e52)" d="M 759.461603 234.2 
L 763.282963 234.2 
L 763.282963 233.655853 
L 759.461603 233.655853 
z
" style="fill:#00bfff;"/>
   </g>
   <g id="patch_142">
    <path clip-path="url(#pfe99176e52)" d="M 763.282963 234.2 
L 767.104324 234.2 
L 767.104324 232.930324 
L 763.282963 232.930324 
z
" style="fill:#00bfff;"/>
   </g>
   <g id="patch_143">
    <path clip-path="url(#pfe99176e52)" d="M 767.104324 234.2 
L 770.925684 234.2 
L 770.925684 233.293089 
L 767.104324 233.293089 
z
" style="fill:#00bfff;"/>
   </g>
   <g id="patch_144">
    <path clip-path="url(#pfe99176e52)" d="M 770.925684 234.2 
L 774.747045 234.2 
L 774.747045 233.293089 
L 770.925684 233.293089 
z
" style="fill:#00bfff;"/>
   </g>
   <g id="patch_145">
    <path clip-path="url(#pfe99176e52)" d="M 774.747045 234.2 
L 778.568406 234.2 
L 778.568406 233.293089 
L 774.747045 233.293089 
z
" style="fill:#00bfff;"/>
   </g>
   <g id="patch_146">
    <path clip-path="url(#pfe99176e52)" d="M 778.568406 234.2 
L 782.389766 234.2 
L 782.389766 233.837235 
L 778.568406 233.837235 
z
" style="fill:#00bfff;"/>
   </g>
   <g id="patch_147">
    <path clip-path="url(#pfe99176e52)" d="M 782.389766 234.2 
L 786.211127 234.2 
L 786.211127 233.837235 
L 782.389766 233.837235 
z
" style="fill:#00bfff;"/>
   </g>
   <g id="patch_148">
    <path clip-path="url(#pfe99176e52)" d="M 786.211127 234.2 
L 790.032487 234.2 
L 790.032487 233.837235 
L 786.211127 233.837235 
z
" style="fill:#00bfff;"/>
   </g>
   <g id="patch_149">
    <path clip-path="url(#pfe99176e52)" d="M 790.032487 234.2 
L 793.853848 234.2 
L 793.853848 234.2 
L 790.032487 234.2 
z
" style="fill:#00bfff;"/>
   </g>
   <g id="patch_150">
    <path clip-path="url(#pfe99176e52)" d="M 793.853848 234.2 
L 797.675208 234.2 
L 797.675208 234.018618 
L 793.853848 234.018618 
z
" style="fill:#00bfff;"/>
   </g>
   <g id="patch_151">
    <path clip-path="url(#pfe99176e52)" d="M 797.675208 234.2 
L 801.496569 234.2 
L 801.496569 234.2 
L 797.675208 234.2 
z
" style="fill:#00bfff;"/>
   </g>
   <g id="patch_152">
    <path clip-path="url(#pfe99176e52)" d="M 801.496569 234.2 
L 805.31793 234.2 
L 805.31793 234.2 
L 801.496569 234.2 
z
" style="fill:#00bfff;"/>
   </g>
   <g id="patch_153">
    <path clip-path="url(#pfe99176e52)" d="M 805.31793 234.2 
L 809.13929 234.2 
L 809.13929 234.018618 
L 805.31793 234.018618 
z
" style="fill:#00bfff;"/>
   </g>
   <g id="patch_154">
    <path clip-path="url(#pfe99176e52)" d="M 809.13929 234.2 
L 812.960651 234.2 
L 812.960651 234.2 
L 809.13929 234.2 
z
" style="fill:#00bfff;"/>
   </g>
   <g id="patch_155">
    <path clip-path="url(#pfe99176e52)" d="M 812.960651 234.2 
L 816.782011 234.2 
L 816.782011 234.2 
L 812.960651 234.2 
z
" style="fill:#00bfff;"/>
   </g>
   <g id="patch_156">
    <path clip-path="url(#pfe99176e52)" d="M 816.782011 234.2 
L 820.603372 234.2 
L 820.603372 234.2 
L 816.782011 234.2 
z
" style="fill:#00bfff;"/>
   </g>
   <g id="patch_157">
    <path clip-path="url(#pfe99176e52)" d="M 820.603372 234.2 
L 824.424732 234.2 
L 824.424732 234.2 
L 820.603372 234.2 
z
" style="fill:#00bfff;"/>
   </g>
   <g id="patch_158">
    <path clip-path="url(#pfe99176e52)" d="M 824.424732 234.2 
L 828.246093 234.2 
L 828.246093 233.837235 
L 824.424732 233.837235 
z
" style="fill:#00bfff;"/>
   </g>
   <g id="matplotlib.axis_5">
    <g id="xtick_10">
     <g id="line2d_24">
      <g>
       <use style="fill:#222222;stroke:#222222;" x="637.164423" xlink:href="#m65e1e8ad57" y="234.2"/>
      </g>
     </g>
     <g id="text_32">
      <!-- 0 -->
      <g style="fill:#222222;" transform="translate(633.028798 252.077969)scale(0.13 -0.13)">
       <use xlink:href="#DejaVuSans-30"/>
      </g>
     </g>
    </g>
    <g id="xtick_11">
     <g id="line2d_25">
      <g>
       <use style="fill:#222222;stroke:#222222;" x="684.188453" xlink:href="#m65e1e8ad57" y="234.2"/>
      </g>
     </g>
     <g id="text_33">
      <!-- 2 -->
      <g style="fill:#222222;" transform="translate(680.052828 252.077969)scale(0.13 -0.13)">
       <use xlink:href="#DejaVuSans-32"/>
      </g>
     </g>
    </g>
    <g id="xtick_12">
     <g id="line2d_26">
      <g>
       <use style="fill:#222222;stroke:#222222;" x="731.212483" xlink:href="#m65e1e8ad57" y="234.2"/>
      </g>
     </g>
     <g id="text_34">
      <!-- 4 -->
      <g style="fill:#222222;" transform="translate(727.076858 252.077969)scale(0.13 -0.13)">
       <use xlink:href="#DejaVuSans-34"/>
      </g>
     </g>
    </g>
    <g id="xtick_13">
     <g id="line2d_27">
      <g>
       <use style="fill:#222222;stroke:#222222;" x="778.236513" xlink:href="#m65e1e8ad57" y="234.2"/>
      </g>
     </g>
     <g id="text_35">
      <!-- 6 -->
      <g style="fill:#222222;" transform="translate(774.100888 252.077969)scale(0.13 -0.13)">
       <use xlink:href="#DejaVuSans-36"/>
      </g>
     </g>
    </g>
    <g id="xtick_14">
     <g id="line2d_28">
      <g>
       <use style="fill:#222222;stroke:#222222;" x="825.260543" xlink:href="#m65e1e8ad57" y="234.2"/>
      </g>
     </g>
     <g id="text_36">
      <!-- 8 -->
      <g style="fill:#222222;" transform="translate(821.124918 252.077969)scale(0.13 -0.13)">
       <use xlink:href="#DejaVuSans-38"/>
      </g>
     </g>
    </g>
    <g id="text_37">
     <!-- $F$ Interaction (Noise.Gender) -->
     <defs>
      <path d="M 9.8125 72.90625 
L 19.671875 72.90625 
L 19.671875 0 
L 9.8125 0 
z
" id="DejaVuSans-49"/>
     </defs>
     <g style="fill:#222222;" transform="translate(619.112079 270.939062)scale(0.16 -0.16)">
      <use transform="translate(0 0.015625)" xlink:href="#DejaVuSans-Oblique-46"/>
      <use transform="translate(57.519531 0.015625)" xlink:href="#DejaVuSans-20"/>
      <use transform="translate(89.306641 0.015625)" xlink:href="#DejaVuSans-49"/>
      <use transform="translate(118.798828 0.015625)" xlink:href="#DejaVuSans-6e"/>
      <use transform="translate(182.177734 0.015625)" xlink:href="#DejaVuSans-74"/>
      <use transform="translate(221.386719 0.015625)" xlink:href="#DejaVuSans-65"/>
      <use transform="translate(282.910156 0.015625)" xlink:href="#DejaVuSans-72"/>
      <use transform="translate(324.023438 0.015625)" xlink:href="#DejaVuSans-61"/>
      <use transform="translate(385.302734 0.015625)" xlink:href="#DejaVuSans-63"/>
      <use transform="translate(440.283203 0.015625)" xlink:href="#DejaVuSans-74"/>
      <use transform="translate(479.492188 0.015625)" xlink:href="#DejaVuSans-69"/>
      <use transform="translate(507.275391 0.015625)" xlink:href="#DejaVuSans-6f"/>
      <use transform="translate(568.457031 0.015625)" xlink:href="#DejaVuSans-6e"/>
      <use transform="translate(631.835938 0.015625)" xlink:href="#DejaVuSans-20"/>
      <use transform="translate(663.623047 0.015625)" xlink:href="#DejaVuSans-28"/>
      <use transform="translate(702.636719 0.015625)" xlink:href="#DejaVuSans-4e"/>
      <use transform="translate(777.441406 0.015625)" xlink:href="#DejaVuSans-6f"/>
      <use transform="translate(838.623047 0.015625)" xlink:href="#DejaVuSans-69"/>
      <use transform="translate(866.40625 0.015625)" xlink:href="#DejaVuSans-73"/>
      <use transform="translate(918.505859 0.015625)" xlink:href="#DejaVuSans-65"/>
      <use transform="translate(980.029297 0.015625)" xlink:href="#DejaVuSans-2e"/>
      <use transform="translate(1011.816406 0.015625)" xlink:href="#DejaVuSans-47"/>
      <use transform="translate(1089.306641 0.015625)" xlink:href="#DejaVuSans-65"/>
      <use transform="translate(1150.830078 0.015625)" xlink:href="#DejaVuSans-6e"/>
      <use transform="translate(1214.208984 0.015625)" xlink:href="#DejaVuSans-64"/>
      <use transform="translate(1277.685547 0.015625)" xlink:href="#DejaVuSans-65"/>
      <use transform="translate(1339.208984 0.015625)" xlink:href="#DejaVuSans-72"/>
      <use transform="translate(1380.322266 0.015625)" xlink:href="#DejaVuSans-29"/>
     </g>
    </g>
   </g>
   <g id="matplotlib.axis_6">
    <g id="ytick_13">
     <g id="line2d_29">
      <g>
       <use style="fill:#222222;stroke:#222222;" x="627.624663" xlink:href="#m6744012c67" y="234.2"/>
      </g>
     </g>
     <g id="text_38">
      <!-- 0 -->
      <g style="fill:#222222;" transform="translate(611.353413 239.138984)scale(0.13 -0.13)">
       <use xlink:href="#DejaVuSans-30"/>
      </g>
     </g>
    </g>
    <g id="ytick_14">
     <g id="line2d_30">
      <g>
       <use style="fill:#222222;stroke:#222222;" x="627.624663" xlink:href="#m6744012c67" y="197.923545"/>
      </g>
     </g>
     <g id="text_39">
      <!-- 200 -->
      <g style="fill:#222222;" transform="translate(594.810913 202.862529)scale(0.13 -0.13)">
       <use xlink:href="#DejaVuSans-32"/>
       <use x="63.623047" xlink:href="#DejaVuSans-30"/>
       <use x="127.246094" xlink:href="#DejaVuSans-30"/>
      </g>
     </g>
    </g>
    <g id="ytick_15">
     <g id="line2d_31">
      <g>
       <use style="fill:#222222;stroke:#222222;" x="627.624663" xlink:href="#m6744012c67" y="161.64709"/>
      </g>
     </g>
     <g id="text_40">
      <!-- 400 -->
      <g style="fill:#222222;" transform="translate(594.810913 166.586074)scale(0.13 -0.13)">
       <use xlink:href="#DejaVuSans-34"/>
       <use x="63.623047" xlink:href="#DejaVuSans-30"/>
       <use x="127.246094" xlink:href="#DejaVuSans-30"/>
      </g>
     </g>
    </g>
    <g id="ytick_16">
     <g id="line2d_32">
      <g>
       <use style="fill:#222222;stroke:#222222;" x="627.624663" xlink:href="#m6744012c67" y="125.370635"/>
      </g>
     </g>
     <g id="text_41">
      <!-- 600 -->
      <g style="fill:#222222;" transform="translate(594.810913 130.309619)scale(0.13 -0.13)">
       <use xlink:href="#DejaVuSans-36"/>
       <use x="63.623047" xlink:href="#DejaVuSans-30"/>
       <use x="127.246094" xlink:href="#DejaVuSans-30"/>
      </g>
     </g>
    </g>
    <g id="ytick_17">
     <g id="line2d_33">
      <g>
       <use style="fill:#222222;stroke:#222222;" x="627.624663" xlink:href="#m6744012c67" y="89.09418"/>
      </g>
     </g>
     <g id="text_42">
      <!-- 800 -->
      <g style="fill:#222222;" transform="translate(594.810913 94.033164)scale(0.13 -0.13)">
       <use xlink:href="#DejaVuSans-38"/>
       <use x="63.623047" xlink:href="#DejaVuSans-30"/>
       <use x="127.246094" xlink:href="#DejaVuSans-30"/>
      </g>
     </g>
    </g>
    <g id="ytick_18">
     <g id="line2d_34">
      <g>
       <use style="fill:#222222;stroke:#222222;" x="627.624663" xlink:href="#m6744012c67" y="52.817725"/>
      </g>
     </g>
     <g id="text_43">
      <!-- 1000 -->
      <g style="fill:#222222;" transform="translate(586.539663 57.756709)scale(0.13 -0.13)">
       <use xlink:href="#DejaVuSans-31"/>
       <use x="63.623047" xlink:href="#DejaVuSans-30"/>
       <use x="127.246094" xlink:href="#DejaVuSans-30"/>
       <use x="190.869141" xlink:href="#DejaVuSans-30"/>
      </g>
     </g>
    </g>
    <g id="ytick_19">
     <g id="line2d_35">
      <g>
       <use style="fill:#222222;stroke:#222222;" x="627.624663" xlink:href="#m6744012c67" y="16.54127"/>
      </g>
     </g>
     <g id="text_44">
      <!-- 1200 -->
      <g style="fill:#222222;" transform="translate(586.539663 21.480254)scale(0.13 -0.13)">
       <use xlink:href="#DejaVuSans-31"/>
       <use x="63.623047" xlink:href="#DejaVuSans-32"/>
       <use x="127.246094" xlink:href="#DejaVuSans-30"/>
       <use x="190.869141" xlink:href="#DejaVuSans-30"/>
      </g>
     </g>
    </g>
    <g id="text_45">
     <!-- Frequency -->
     <g style="fill:#222222;" transform="translate(583.712163 166.57625)rotate(-90)scale(0.16 -0.16)">
      <use xlink:href="#DejaVuSans-46"/>
      <use x="57.410156" xlink:href="#DejaVuSans-72"/>
      <use x="98.492188" xlink:href="#DejaVuSans-65"/>
      <use x="160.015625" xlink:href="#DejaVuSans-71"/>
      <use x="223.492188" xlink:href="#DejaVuSans-75"/>
      <use x="286.871094" xlink:href="#DejaVuSans-65"/>
      <use x="348.394531" xlink:href="#DejaVuSans-6e"/>
      <use x="411.773438" xlink:href="#DejaVuSans-63"/>
      <use x="466.753906" xlink:href="#DejaVuSans-79"/>
     </g>
    </g>
   </g>
   <g id="line2d_36">
    <path clip-path="url(#pfe99176e52)" d="M 728.303082 234.2 
L 728.303082 36.74 
" style="fill:none;stroke:#ff8b22;stroke-linecap:square;stroke-width:1.5;"/>
   </g>
   <g id="patch_159">
    <path d="M 627.624663 234.2 
L 627.624663 14.8 
" style="fill:none;stroke:#222222;stroke-linecap:square;stroke-linejoin:miter;"/>
   </g>
   <g id="patch_160">
    <path d="M 627.624663 234.2 
L 837.799494 234.2 
" style="fill:none;stroke:#222222;stroke-linecap:square;stroke-linejoin:miter;"/>
   </g>
   <g id="text_46">
    <!-- Observed $F$ -->
    <g style="fill:#ff8b22;" transform="translate(688.333082 13.7635)scale(0.14 -0.14)">
     <use transform="translate(0 0.015625)" xlink:href="#DejaVuSans-4f"/>
     <use transform="translate(78.710938 0.015625)" xlink:href="#DejaVuSans-62"/>
     <use transform="translate(142.1875 0.015625)" xlink:href="#DejaVuSans-73"/>
     <use transform="translate(194.287109 0.015625)" xlink:href="#DejaVuSans-65"/>
     <use transform="translate(255.810547 0.015625)" xlink:href="#DejaVuSans-72"/>
     <use transform="translate(296.923828 0.015625)" xlink:href="#DejaVuSans-76"/>
     <use transform="translate(356.103516 0.015625)" xlink:href="#DejaVuSans-65"/>
     <use transform="translate(417.626953 0.015625)" xlink:href="#DejaVuSans-64"/>
     <use transform="translate(481.103516 0.015625)" xlink:href="#DejaVuSans-20"/>
     <use transform="translate(512.890625 0.015625)" xlink:href="#DejaVuSans-Oblique-46"/>
    </g>
    <!-- 3.88 -->
    <g style="fill:#ff8b22;" transform="translate(712.717145 29.440437)scale(0.14 -0.14)">
     <use xlink:href="#DejaVuSans-33"/>
     <use x="63.623047" xlink:href="#DejaVuSans-2e"/>
     <use x="95.410156" xlink:href="#DejaVuSans-38"/>
     <use x="159.033203" xlink:href="#DejaVuSans-38"/>
    </g>
   </g>
   <g id="text_47">
    <!-- 140 simulations -->
    <g transform="translate(733.005485 86.883062)scale(0.14 -0.14)">
     <use xlink:href="#DejaVuSans-31"/>
     <use x="63.623047" xlink:href="#DejaVuSans-34"/>
     <use x="127.246094" xlink:href="#DejaVuSans-30"/>
     <use x="190.869141" xlink:href="#DejaVuSans-20"/>
     <use x="222.65625" xlink:href="#DejaVuSans-73"/>
     <use x="274.755859" xlink:href="#DejaVuSans-69"/>
     <use x="302.539062" xlink:href="#DejaVuSans-6d"/>
     <use x="399.951172" xlink:href="#DejaVuSans-75"/>
     <use x="463.330078" xlink:href="#DejaVuSans-6c"/>
     <use x="491.113281" xlink:href="#DejaVuSans-61"/>
     <use x="552.392578" xlink:href="#DejaVuSans-74"/>
     <use x="591.601562" xlink:href="#DejaVuSans-69"/>
     <use x="619.384766" xlink:href="#DejaVuSans-6f"/>
     <use x="680.566406" xlink:href="#DejaVuSans-6e"/>
     <use x="743.945312" xlink:href="#DejaVuSans-73"/>
    </g>
    <!-- with $F\geq$3.88 -->
    <g transform="translate(733.005485 102.56)scale(0.14 -0.14)">
     <use transform="translate(0 0.015625)" xlink:href="#DejaVuSans-77"/>
     <use transform="translate(81.787109 0.015625)" xlink:href="#DejaVuSans-69"/>
     <use transform="translate(109.570312 0.015625)" xlink:href="#DejaVuSans-74"/>
     <use transform="translate(148.779297 0.015625)" xlink:href="#DejaVuSans-68"/>
     <use transform="translate(212.158203 0.015625)" xlink:href="#DejaVuSans-20"/>
     <use transform="translate(243.945312 0.015625)" xlink:href="#DejaVuSans-Oblique-46"/>
     <use transform="translate(320.947266 0.015625)" xlink:href="#DejaVuSans-2265"/>
     <use transform="translate(424.21875 0.015625)" xlink:href="#DejaVuSans-33"/>
     <use transform="translate(487.841797 0.015625)" xlink:href="#DejaVuSans-2e"/>
     <use transform="translate(519.597656 0.015625)" xlink:href="#DejaVuSans-38"/>
     <use transform="translate(583.220703 0.015625)" xlink:href="#DejaVuSans-38"/>
    </g>
   </g>
   <g id="text_48">
    <!-- p-value = 0.014 -->
    <g style="fill:#fb4c52;" transform="translate(733.005485 146.44)scale(0.14 -0.14)">
     <use xlink:href="#DejaVuSans-70"/>
     <use x="63.476562" xlink:href="#DejaVuSans-2d"/>
     <use x="99.529297" xlink:href="#DejaVuSans-76"/>
     <use x="158.708984" xlink:href="#DejaVuSans-61"/>
     <use x="219.988281" xlink:href="#DejaVuSans-6c"/>
     <use x="247.771484" xlink:href="#DejaVuSans-75"/>
     <use x="311.150391" xlink:href="#DejaVuSans-65"/>
     <use x="372.673828" xlink:href="#DejaVuSans-20"/>
     <use x="404.460938" xlink:href="#DejaVuSans-3d"/>
     <use x="488.25" xlink:href="#DejaVuSans-20"/>
     <use x="520.037109" xlink:href="#DejaVuSans-30"/>
     <use x="583.660156" xlink:href="#DejaVuSans-2e"/>
     <use x="615.447266" xlink:href="#DejaVuSans-30"/>
     <use x="679.070312" xlink:href="#DejaVuSans-31"/>
     <use x="742.693359" xlink:href="#DejaVuSans-34"/>
    </g>
   </g>
  </g>
 </g>
 <defs>
  <clipPath id="p425ab1ed17">
   <rect height="219.4" width="210.174831" x="66.425" y="14.8"/>
  </clipPath>
  <clipPath id="p3c943876b9">
   <rect height="219.4" width="210.174831" x="347.024831" y="14.8"/>
  </clipPath>
  <clipPath id="pfe99176e52">
   <rect height="219.4" width="210.174831" x="627.624663" y="14.8"/>
  </clipPath>
 </defs>
</svg>
