<?xml version="1.0" encoding="utf-8"?>
<!-- Generator: Adobe Illustrator 16.0.4, SVG Export Plug-In . SVG Version: 6.00 Build 0)  -->
<!DOCTYPE svg PUBLIC "-//W3C//DTD SVG 1.1//EN" "http://www.w3.org/Graphics/SVG/1.1/DTD/svg11.dtd">
<svg version="1.1" id="Layer_1" xmlns="http://www.w3.org/2000/svg" xmlns:xlink="http://www.w3.org/1999/xlink" x="0px" y="0px"
	 width="477px" height="253px" viewBox="6.618 27.406 477 253" enable-background="new 6.618 27.406 477 253" xml:space="preserve">
<g>
	<g>
		<path fill="#1EA6C6" d="M129.163,219.272c0,0.007,0,0.014,0,0.022c-6.847,6.209-15.936,9.991-25.905,9.991
			c-9.971,0-19.06-3.782-25.907-9.991c0-0.009,0-0.016,0-0.022c0-10.327,6.043-19.242,14.785-23.401
			c3.285,3.275,7.132,5.041,11.123,5.041c3.992,0,7.837-1.766,11.124-5.041C123.123,200.03,129.163,208.945,129.163,219.272z"/>
		<path fill="#FCD09F" d="M103.258,163.252c7.914,0,14.33,6.413,14.33,14.327c0,7.916-6.417,18.74-14.33,18.74
			s-14.33-10.824-14.33-18.74C88.928,169.665,95.344,163.252,103.258,163.252z"/>
	</g>
	<g id="XMLID_27_">
		<g>
			<path fill="#EF806F" d="M91.181,191.281c0.439,0.626,0.894,1.212,1.363,1.764l-1.429,0.68
				c-4.759,2.266-8.786,5.808-11.647,10.246c-2.327,3.61-3.786,7.682-4.292,11.925c-5.171-1.408-9.846-4.023-13.704-7.522v-0.018
				c0-8.999,5.266-16.768,12.883-20.394c2.863,2.856,6.214,4.395,9.691,4.395c2.278,0,4.503-0.659,6.571-1.918
				C90.797,190.723,90.987,191.005,91.181,191.281z"/>
			<path fill="#EFC59C" d="M86.554,177.579c0,2.975,0.773,6.248,2.15,9.324c-1.439,0.913-3.012,1.45-4.659,1.45
				c-6.896,0-12.486-9.432-12.486-16.33c0-6.896,5.59-12.483,12.486-12.483c3.824,0,7.249,1.72,9.539,4.428
				C89.333,167,86.554,171.972,86.554,177.579z"/>
		</g>
	</g>
	<g id="XMLID_22_">
		<g>
			<path fill="#79B900" d="M115.294,191.281c-0.439,0.626-0.895,1.212-1.364,1.764l1.43,0.68c4.759,2.266,8.786,5.808,11.646,10.246
				c2.328,3.61,3.786,7.682,4.293,11.925c5.171-1.408,9.846-4.023,13.704-7.522v-0.018c0-8.999-5.266-16.768-12.883-20.394
				c-2.863,2.856-6.214,4.395-9.691,4.395c-2.278,0-4.503-0.659-6.57-1.918C115.677,190.723,115.487,191.005,115.294,191.281z"/>
			<path fill="#EFC59C" d="M119.92,177.579c0,2.975-0.773,6.248-2.151,9.324c1.44,0.913,3.013,1.45,4.659,1.45
				c6.896,0,12.486-9.432,12.486-16.33c0-6.896-5.59-12.483-12.486-12.483c-3.825,0-7.249,1.72-9.539,4.428
				C117.142,167,119.92,171.972,119.92,177.579z"/>
		</g>
	</g>
</g>
<g>
	<g>
		<path fill="#1EA6C6" d="M259.879,220.729c0,0.007,0,0.014,0,0.022c-6.847,6.209-15.936,9.991-25.905,9.991
			c-9.971,0-19.06-3.782-25.907-9.991c0-0.009,0-0.016,0-0.022c0-10.327,6.043-19.242,14.785-23.401
			c3.285,3.275,7.132,5.041,11.123,5.041c3.992,0,7.837-1.766,11.124-5.041C253.839,201.487,259.879,210.402,259.879,220.729z"/>
		<path fill="#FCD09F" d="M233.974,164.709c7.914,0,14.33,6.413,14.33,14.327c0,7.916-6.417,18.74-14.33,18.74
			s-14.33-10.824-14.33-18.74C219.644,171.122,226.06,164.709,233.974,164.709z"/>
	</g>
	<g id="XMLID_2_">
		<g>
			<path fill="#EF806F" d="M221.897,192.739c0.439,0.626,0.894,1.212,1.363,1.764l-1.429,0.68
				c-4.759,2.266-8.786,5.808-11.647,10.246c-2.327,3.61-3.786,7.682-4.292,11.925c-5.171-1.408-9.846-4.023-13.704-7.522v-0.018
				c0-8.999,5.266-16.768,12.883-20.394c2.863,2.856,6.214,4.395,9.691,4.395c2.278,0,4.503-0.659,6.571-1.918
				C221.513,192.18,221.703,192.462,221.897,192.739z"/>
			<path fill="#EFC59C" d="M217.27,179.036c0,2.975,0.773,6.248,2.15,9.324c-1.439,0.913-3.012,1.45-4.659,1.45
				c-6.896,0-12.486-9.432-12.486-16.33c0-6.896,5.59-12.483,12.486-12.483c3.824,0,7.249,1.72,9.539,4.428
				C220.048,168.457,217.27,173.429,217.27,179.036z"/>
		</g>
	</g>
	<g id="XMLID_1_">
		<g>
			<path fill="#79B900" d="M246.01,192.739c-0.439,0.626-0.895,1.212-1.364,1.764l1.43,0.68c4.759,2.266,8.786,5.808,11.646,10.246
				c2.328,3.61,3.786,7.682,4.293,11.925c5.172-1.408,9.846-4.023,13.704-7.522v-0.018c0-8.999-5.267-16.768-12.883-20.394
				c-2.862,2.856-6.214,4.395-9.691,4.395c-2.278,0-4.503-0.659-6.57-1.918C246.393,192.18,246.203,192.462,246.01,192.739z"/>
			<path fill="#EFC59C" d="M250.636,179.036c0,2.975-0.773,6.248-2.151,9.324c1.44,0.913,3.013,1.45,4.659,1.45
				c6.896,0,12.486-9.432,12.486-16.33c0-6.896-5.591-12.483-12.486-12.483c-3.825,0-7.249,1.72-9.539,4.428
				C247.858,168.457,250.636,173.429,250.636,179.036z"/>
		</g>
	</g>
</g>
<g>
	<g>
		<path fill="#1EA6C6" d="M391.726,220.729c0,0.007,0,0.014,0,0.022c-6.848,6.209-15.936,9.991-25.906,9.991
			s-19.061-3.782-25.906-9.991c0-0.009,0-0.016,0-0.022c0-10.327,6.043-19.242,14.783-23.401c3.285,3.275,7.133,5.041,11.123,5.041
			c3.992,0,7.838-1.766,11.125-5.041C385.685,201.487,391.726,210.402,391.726,220.729z"/>
		<path fill="#FCD09F" d="M365.819,164.709c7.914,0,14.33,6.413,14.33,14.327c0,7.916-6.416,18.74-14.33,18.74
			s-14.33-10.824-14.33-18.74C351.489,171.122,357.905,164.709,365.819,164.709z"/>
	</g>
	<g id="XMLID_4_">
		<g>
			<path fill="#EF806F" d="M353.743,192.739c0.439,0.626,0.895,1.212,1.363,1.764l-1.43,0.68c-4.76,2.266-8.785,5.808-11.646,10.246
				c-2.328,3.61-3.785,7.682-4.293,11.925c-5.172-1.408-9.846-4.023-13.703-7.522v-0.018c0-8.999,5.266-16.768,12.883-20.394
				c2.861,2.856,6.213,4.395,9.691,4.395c2.277,0,4.502-0.659,6.57-1.918C353.358,192.18,353.55,192.462,353.743,192.739z"/>
			<path fill="#EFC59C" d="M349.116,179.036c0,2.975,0.773,6.248,2.15,9.324c-1.439,0.913-3.012,1.45-4.658,1.45
				c-6.896,0-12.486-9.432-12.486-16.33c0-6.896,5.59-12.483,12.486-12.483c3.824,0,7.248,1.72,9.537,4.428
				C351.894,168.457,349.116,173.429,349.116,179.036z"/>
		</g>
	</g>
	<g id="XMLID_3_">
		<g>
			<path fill="#79B900" d="M377.856,192.739c-0.439,0.626-0.896,1.212-1.365,1.764l1.43,0.68c4.76,2.266,8.787,5.808,11.646,10.246
				c2.328,3.61,3.787,7.682,4.293,11.925c5.172-1.408,9.846-4.023,13.705-7.522v-0.018c0-8.999-5.268-16.768-12.883-20.394
				c-2.863,2.856-6.215,4.395-9.691,4.395c-2.279,0-4.504-0.659-6.57-1.918C378.239,192.18,378.048,192.462,377.856,192.739z"/>
			<path fill="#EFC59C" d="M382.481,179.036c0,2.975-0.773,6.248-2.15,9.324c1.439,0.913,3.014,1.45,4.66,1.45
				c6.895,0,12.486-9.432,12.486-16.33c0-6.896-5.592-12.483-12.486-12.483c-3.826,0-7.25,1.72-9.539,4.428
				C379.704,168.457,382.481,173.429,382.481,179.036z"/>
		</g>
	</g>
</g>
<path fill="#E8586B" d="M207.646,75.108"/>
<g>
	<g>
		<polygon fill="#B4B4B4" points="11.618,77.44 451.318,73.635 451.318,81.244 		"/>
		<g>
			<polygon fill="#B4B4B4" points="473.912,77.44 442.074,90.449 449.629,77.44 442.074,64.433 			"/>
		</g>
	</g>
</g>
<g>
	<path d="M391.765,78.268c0,15.991-12.966,28.958-28.967,28.958c-15.994,0-28.962-12.968-28.962-28.958
		c0-16.001,12.968-28.963,28.962-28.963C378.799,49.304,391.765,62.267,391.765,78.268z"/>
	<path fill="#FFFFFF" d="M387.5,78.268c0,13.643-11.056,24.706-24.702,24.706c-13.641,0-24.7-11.063-24.7-24.706
		c0-13.646,11.06-24.708,24.7-24.708C376.444,53.56,387.5,64.62,387.5,78.268z"/>
	<path fill="#E8586B" d="M362.724,55.275v23.037h-23.06c0.025,12.676,10.309,22.943,22.99,22.943
		c12.697,0,22.991-10.293,22.991-22.991C385.646,65.591,375.39,55.313,362.724,55.275z"/>
	<path d="M368.763,41.968c0,3.29-2.67,5.962-5.965,5.962c-3.292,0-5.96-2.673-5.96-5.962c0-3.297,2.668-5.963,5.96-5.963
		C366.094,36.004,368.763,38.67,368.763,41.968z"/>
	<path fill="#FFFFFF" d="M367.329,41.968c0,2.497-2.026,4.529-4.531,4.529c-2.498,0-4.533-2.032-4.533-4.529
		c0-2.506,2.035-4.536,4.533-4.536C365.303,37.432,367.329,39.462,367.329,41.968z"/>
	<rect x="361.879" y="40.133" width="1.838" height="10.55"/>
	<path d="M364.918,43.399c0,1.166-0.949,2.114-2.12,2.114l0,0c-1.164,0-2.113-0.949-2.113-2.114v-1.896
		c0-1.171,0.949-2.118,2.113-2.118l0,0c1.171,0,2.12,0.947,2.12,2.118V43.399z"/>
	<polygon points="372.565,54.084 370.902,53.49 374.312,43.916 375.981,44.51 	"/>
	<path d="M376.018,47.865c-0.384,1.061-1.551,1.611-2.61,1.237l0,0c-1.062-0.384-1.619-1.548-1.241-2.614l0.612-1.714
		c0.381-1.061,1.548-1.618,2.614-1.239l0,0c1.058,0.381,1.609,1.546,1.232,2.607L376.018,47.865z"/>
	<rect x="361.9" y="55.252" width="1.51" height="25.825"/>
	<g>
		<rect x="361.9" y="55.134" width="1.51" height="5.213"/>
		<rect x="380.385" y="77.276" width="5.215" height="1.502"/>
		<polygon points="378.488,70.171 377.813,68.826 382.527,66.448 383.206,67.792 		"/>
		<polygon points="372.089,63.047 370.748,62.356 373.151,57.7 374.493,58.394 		"/>
	</g>
	<rect x="339.785" y="77.3" width="5.21" height="1.507"/>
	<polygon points="363.577,82.776 361.771,82.776 361.921,55.107 363.43,55.107 	"/>
	<polygon points="354.822,62.223 353.476,62.903 351.103,58.182 352.446,57.507 	"/>
	<polygon points="347.699,68.625 347.005,69.96 342.347,67.556 343.038,66.214 	"/>
	<g>
		<rect x="361.974" y="95.663" width="1.514" height="5.22"/>
		<rect x="339.785" y="77.234" width="5.21" height="1.51"/>
		<polygon points="346.898,85.84 347.578,87.178 342.858,89.566 342.179,88.22 		"/>
		<polygon points="353.3,92.965 354.636,93.657 352.225,98.312 350.892,97.62 		"/>
	</g>
	<g>
		<rect x="380.385" y="77.213" width="5.215" height="1.502"/>
		<rect x="361.956" y="95.691" width="1.509" height="5.214"/>
		<polygon points="370.56,93.79 371.904,93.113 374.284,97.829 372.941,98.512 		"/>
		<polygon points="377.688,87.389 378.376,86.054 383.038,88.462 382.346,89.8 		"/>
	</g>
	<path d="M361.121,78.073c0-0.884,0.716-1.601,1.601-1.601c0.877,0,1.59,0.716,1.59,1.601c0,0.88-0.713,1.59-1.59,1.59
		C361.837,79.662,361.121,78.952,361.121,78.073z"/>
</g>
<g>
	<path d="M132.967,78.268c0,15.991-12.965,28.958-28.966,28.958c-15.994,0-28.962-12.968-28.962-28.958
		c0-16.001,12.968-28.963,28.962-28.963C120.001,49.304,132.967,62.267,132.967,78.268z"/>
	<path fill="#FFFFFF" d="M128.703,78.268c0,13.643-11.057,24.706-24.702,24.706C90.36,102.974,79.3,91.91,79.3,78.268
		C79.3,64.621,90.36,53.56,104,53.56C117.646,53.56,128.703,64.62,128.703,78.268z"/>
	<g id="XMLID_99_">
		<g>
			<path fill="#E8586B" d="M124.25,67.186c0,0,0,0,0,0.004l-20.188,10.891V55.13C112.784,55.13,120.373,60.008,124.25,67.186z"/>
		</g>
	</g>
	<path d="M109.965,41.968c0,3.29-2.669,5.962-5.965,5.962c-3.292,0-5.959-2.673-5.959-5.962c0-3.297,2.667-5.963,5.959-5.963
		C107.296,36.004,109.965,38.67,109.965,41.968z"/>
	<path fill="#FFFFFF" d="M108.532,41.968c0,2.497-2.027,4.529-4.532,4.529c-2.499,0-4.533-2.032-4.533-4.529
		c0-2.506,2.034-4.536,4.533-4.536C106.505,37.432,108.532,39.462,108.532,41.968z"/>
	<rect x="103.081" y="40.133" width="1.838" height="10.55"/>
	<path d="M106.121,43.399c0,1.166-0.951,2.114-2.121,2.114l0,0c-1.164,0-2.114-0.949-2.114-2.114v-1.896
		c0-1.171,0.95-2.118,2.114-2.118l0,0c1.171,0,2.121,0.947,2.121,2.118V43.399z"/>
	<polygon points="113.767,54.084 112.104,53.49 115.515,43.916 117.185,44.51 	"/>
	<path d="M117.22,47.865c-0.384,1.061-1.551,1.611-2.61,1.237l0,0c-1.062-0.384-1.618-1.548-1.24-2.614l0.611-1.714
		c0.381-1.061,1.549-1.618,2.615-1.239l0,0c1.058,0.381,1.61,1.546,1.233,2.607L117.22,47.865z"/>
	<rect x="103.102" y="55.252" width="1.51" height="25.825"/>
	<g>
		<rect x="103.102" y="55.134" width="1.51" height="5.213"/>
		<rect x="121.588" y="77.276" width="5.214" height="1.502"/>
		<polygon points="119.691,70.171 119.016,68.826 123.73,66.448 124.408,67.792 		"/>
		<polygon points="113.292,63.047 111.95,62.356 114.354,57.7 115.696,58.394 		"/>
	</g>
	<rect x="80.987" y="77.3" width="5.21" height="1.507"/>
	<polygon points="104.779,82.776 102.973,82.776 103.123,55.107 104.632,55.107 	"/>
	<polygon points="96.024,62.223 94.679,62.903 92.306,58.182 93.648,57.507 	"/>
	<polygon points="88.901,68.625 88.207,69.96 83.549,67.556 84.241,66.214 	"/>
	<g>
		<rect x="103.176" y="95.663" width="1.513" height="5.22"/>
		<rect x="80.987" y="77.234" width="5.21" height="1.51"/>
		<polygon points="88.101,85.84 88.78,87.178 84.061,89.566 83.381,88.22 		"/>
		<polygon points="94.502,92.965 95.837,93.657 93.427,98.312 92.094,97.62 		"/>
	</g>
	<g>
		<rect x="121.588" y="77.213" width="5.214" height="1.502"/>
		<rect x="103.158" y="95.691" width="1.509" height="5.213"/>
		<polygon points="111.762,93.79 113.107,93.113 115.487,97.829 114.145,98.512 		"/>
		<polygon points="118.89,87.389 119.579,86.054 124.24,88.462 123.548,89.8 		"/>
	</g>
	<path d="M102.323,78.073c0-0.884,0.716-1.601,1.6-1.601c0.877,0,1.591,0.716,1.591,1.601c0,0.88-0.713,1.59-1.591,1.59
		C103.039,79.662,102.323,78.952,102.323,78.073z"/>
</g>
<g>
	<path d="M262.365,78.268c0,15.991-12.965,28.958-28.966,28.958c-15.994,0-28.962-12.968-28.962-28.958
		c0-16.001,12.968-28.963,28.962-28.963C249.4,49.304,262.365,62.267,262.365,78.268z"/>
	<path fill="#FFFFFF" d="M258.102,78.268c0,13.643-11.057,24.706-24.702,24.706c-13.641,0-24.7-11.063-24.7-24.706
		c0-13.646,11.06-24.708,24.7-24.708C247.045,53.56,258.102,64.62,258.102,78.268z"/>
	<path fill="#E8586B" d="M233.401,55.134v22.488l10.675,20.831c7.287-3.856,12.256-11.51,12.256-20.329
		C256.332,65.446,246.071,55.166,233.401,55.134z"/>
	<path d="M239.363,41.968c0,3.29-2.669,5.962-5.964,5.962c-3.292,0-5.96-2.673-5.96-5.962c0-3.297,2.668-5.963,5.96-5.963
		C236.695,36.004,239.363,38.67,239.363,41.968z"/>
	<path fill="#FFFFFF" d="M237.932,41.968c0,2.497-2.027,4.529-4.532,4.529c-2.498,0-4.532-2.032-4.532-4.529
		c0-2.506,2.034-4.536,4.532-4.536C235.904,37.432,237.932,39.462,237.932,41.968z"/>
	<rect x="232.48" y="40.133" width="1.838" height="10.55"/>
	<path d="M235.521,43.399c0,1.166-0.951,2.114-2.121,2.114l0,0c-1.164,0-2.114-0.949-2.114-2.114v-1.896
		c0-1.171,0.95-2.118,2.114-2.118l0,0c1.171,0,2.121,0.947,2.121,2.118V43.399z"/>
	<polygon points="243.166,54.084 241.503,53.49 244.914,43.916 246.584,44.51 	"/>
	<path d="M246.619,47.865c-0.384,1.061-1.552,1.611-2.61,1.237l0,0c-1.063-0.384-1.619-1.548-1.24-2.614l0.61-1.714
		c0.382-1.061,1.549-1.618,2.614-1.239l0,0c1.059,0.381,1.61,1.546,1.233,2.607L246.619,47.865z"/>
	<rect x="232.501" y="55.252" width="1.511" height="25.825"/>
	<g>
		<rect x="232.501" y="55.134" width="1.511" height="5.213"/>
		<rect x="250.986" y="77.276" width="5.215" height="1.502"/>
		<polygon points="249.09,70.171 248.415,68.826 253.129,66.448 253.807,67.792 		"/>
		<polygon points="242.69,63.047 241.349,62.356 243.753,57.7 245.096,58.394 		"/>
	</g>
	<rect x="210.386" y="77.3" width="5.211" height="1.507"/>
	<polygon points="234.179,82.776 232.372,82.776 232.521,55.107 234.031,55.107 	"/>
	<polygon points="225.424,62.223 224.078,62.903 221.705,58.182 223.047,57.507 	"/>
	<polygon points="218.3,68.625 217.606,69.96 212.948,67.556 213.64,66.214 	"/>
	<g>
		<rect x="232.575" y="95.663" width="1.513" height="5.22"/>
		<rect x="210.386" y="77.234" width="5.211" height="1.51"/>
		<polygon points="217.5,85.84 218.18,87.178 213.46,89.566 212.78,88.22 		"/>
		<polygon points="223.901,92.965 225.236,93.657 222.826,98.312 221.493,97.62 		"/>
	</g>
	<g>
		<rect x="250.986" y="77.213" width="5.215" height="1.502"/>
		<rect x="232.558" y="95.691" width="1.509" height="5.213"/>
		<polygon points="241.161,93.79 242.506,93.113 244.886,97.829 243.543,98.512 		"/>
		<polygon points="248.289,87.389 248.978,86.054 253.639,88.462 252.947,89.8 		"/>
	</g>
	<path d="M231.722,78.073c0-0.884,0.717-1.601,1.601-1.601c0.878,0,1.591,0.716,1.591,1.601c0,0.88-0.713,1.59-1.591,1.59
		C232.438,79.662,231.722,78.952,231.722,78.073z"/>
</g>
<text transform="matrix(1 0 0 1 89.0044 127.6067)" enable-background="new    "><tspan x="0" y="0" font-family="'Helvetica'" font-size="15">Data</tspan><tspan x="-15.425" y="18" font-family="'Helvetica'" font-size="15">collection</tspan></text>
<text transform="matrix(1 0 0 1 79.0527 267.6067)" font-family="'Helvetica'" font-size="15">Level 1</text>
<text transform="matrix(1 0 0 1 209.7686 267.6067)" font-family="'Helvetica'" font-size="15">Level 2</text>
<text transform="matrix(1 0 0 1 341.6143 267.6067)" font-family="'Helvetica'" font-size="15">Level 3</text>
<text transform="matrix(1 0 0 1 215.8794 127.6067)" enable-background="new    "><tspan x="0" y="0" font-family="'Helvetica'" font-size="15">Data</tspan><tspan x="-15.425" y="18" font-family="'Helvetica'" font-size="15">collection</tspan></text>
<text transform="matrix(1 0 0 1 345.9287 127.6067)" enable-background="new    "><tspan x="0" y="0" font-family="'Helvetica'" font-size="15">Data</tspan><tspan x="-15.426" y="18" font-family="'Helvetica'" font-size="15">collection</tspan></text>
<g>
	<path fill="#B4B4B4" d="M54.857,235.035c0.258,4.17,0.464,8.341,0.623,12.511l-0.623-0.623c4.032-0.179,8.063-0.275,12.095-0.409
		c4.031-0.085,8.063-0.202,12.095-0.26c4.032-0.049,8.063-0.128,12.095-0.151l12.095-0.056l12.095,0.054
		c4.032,0.019,8.063,0.103,12.095,0.15l12.095,0.259c4.032,0.133,8.063,0.229,12.095,0.41l-0.626,0.626
		c0.16-4.17,0.366-8.341,0.626-12.511c0.26,4.17,0.466,8.341,0.626,12.511c0.013,0.33-0.244,0.608-0.574,0.624l-0.052,0.002
		c-4.032,0.181-8.063,0.277-12.095,0.41l-12.095,0.259c-4.032,0.048-8.063,0.132-12.095,0.15l-12.095,0.054l-12.095-0.056
		c-4.032-0.023-8.063-0.103-12.095-0.151c-4.032-0.058-8.063-0.175-12.095-0.26c-4.032-0.134-8.063-0.23-12.095-0.409l-0.051-0.003
		c-0.329-0.015-0.584-0.292-0.571-0.62C54.394,243.376,54.599,239.205,54.857,235.035z"/>
</g>
<g>
	<path fill="#B4B4B4" d="M185.574,235.035c0.258,4.17,0.464,8.341,0.623,12.511l-0.623-0.623c4.032-0.179,8.063-0.275,12.095-0.409
		c4.031-0.085,8.063-0.202,12.095-0.26c4.032-0.049,8.063-0.128,12.095-0.151l12.095-0.056l12.095,0.054
		c4.032,0.019,8.063,0.103,12.095,0.15l12.095,0.259c4.031,0.133,8.063,0.229,12.095,0.41l-0.626,0.626
		c0.16-4.17,0.366-8.341,0.626-12.511c0.26,4.17,0.466,8.341,0.626,12.511c0.013,0.33-0.244,0.608-0.574,0.624l-0.052,0.002
		c-4.031,0.181-8.063,0.277-12.095,0.41l-12.095,0.259c-4.032,0.048-8.063,0.132-12.095,0.15l-12.095,0.054l-12.095-0.056
		c-4.032-0.023-8.063-0.103-12.095-0.151c-4.032-0.058-8.063-0.175-12.095-0.26c-4.032-0.134-8.063-0.23-12.095-0.409l-0.051-0.003
		c-0.329-0.015-0.584-0.292-0.571-0.62C185.11,243.376,185.315,239.205,185.574,235.035z"/>
</g>
<g>
	<path fill="#B4B4B4" d="M317.42,235.035c0.258,4.17,0.464,8.341,0.623,12.511l-0.623-0.623c4.031-0.179,8.063-0.275,12.095-0.409
		c4.032-0.085,8.063-0.202,12.095-0.26c4.032-0.049,8.063-0.128,12.095-0.151l12.096-0.056l12.095,0.054
		c4.031,0.019,8.062,0.103,12.095,0.15l12.095,0.259c4.031,0.133,8.063,0.229,12.095,0.41l-0.626,0.626
		c0.16-4.17,0.366-8.341,0.626-12.511c0.26,4.17,0.466,8.341,0.626,12.511c0.013,0.33-0.244,0.608-0.574,0.624l-0.052,0.002
		c-4.031,0.181-8.063,0.277-12.095,0.41l-12.095,0.259c-4.032,0.048-8.063,0.132-12.095,0.15l-12.095,0.054l-12.096-0.056
		c-4.031-0.023-8.062-0.103-12.095-0.151c-4.031-0.058-8.062-0.175-12.095-0.26c-4.031-0.134-8.063-0.23-12.095-0.409l-0.052-0.003
		c-0.328-0.015-0.583-0.292-0.571-0.62C316.956,243.376,317.162,239.205,317.42,235.035z"/>
</g>
</svg>
