<?xml version="1.0" encoding="utf-8" standalone="no"?>
<!DOCTYPE svg PUBLIC "-//W3C//DTD SVG 1.1//EN"
  "http://www.w3.org/Graphics/SVG/1.1/DTD/svg11.dtd">
<!-- Created with matplotlib (http://matplotlib.org/) -->
<svg height="288pt" version="1.1" viewBox="0 0 432 288" width="432pt" xmlns="http://www.w3.org/2000/svg" xmlns:xlink="http://www.w3.org/1999/xlink">
 <defs>
  <style type="text/css">
*{stroke-linecap:butt;stroke-linejoin:round;}
  </style>
 </defs>
 <g id="figure_1">
  <g id="patch_1">
   <path d="M 0 288 
L 432 288 
L 432 0 
L 0 0 
z
" style="fill:none;"/>
  </g>
  <g id="axes_1">
   <g id="patch_2">
    <path d="M 43.2 244.8 
L 397.44 244.8 
L 397.44 28.8 
L 43.2 28.8 
z
" style="fill:none;"/>
   </g>
   <g id="patch_3">
    <path clip-path="url(#p400b061024)" d="M 88.848287 244.8 
L 93.820689 244.8 
L 93.820689 242.798888 
L 88.848287 242.798888 
z
" style="fill:#00bfff;opacity:0.5;"/>
   </g>
   <g id="patch_4">
    <path clip-path="url(#p400b061024)" d="M 93.820689 244.8 
L 98.793092 244.8 
L 98.793092 243.999555 
L 93.820689 243.999555 
z
" style="fill:#00bfff;opacity:0.5;"/>
   </g>
   <g id="patch_5">
    <path clip-path="url(#p400b061024)" d="M 98.793092 244.8 
L 103.765494 244.8 
L 103.765494 242.398666 
L 98.793092 242.398666 
z
" style="fill:#00bfff;opacity:0.5;"/>
   </g>
   <g id="patch_6">
    <path clip-path="url(#p400b061024)" d="M 103.765494 244.8 
L 108.737896 244.8 
L 108.737896 240.797777 
L 103.765494 240.797777 
z
" style="fill:#00bfff;opacity:0.5;"/>
   </g>
   <g id="patch_7">
    <path clip-path="url(#p400b061024)" d="M 108.737896 244.8 
L 113.710299 244.8 
L 113.710299 238.796665 
L 108.737896 238.796665 
z
" style="fill:#00bfff;opacity:0.5;"/>
   </g>
   <g id="patch_8">
    <path clip-path="url(#p400b061024)" d="M 113.710299 244.8 
L 118.682701 244.8 
L 118.682701 237.99622 
L 113.710299 237.99622 
z
" style="fill:#00bfff;opacity:0.5;"/>
   </g>
   <g id="patch_9">
    <path clip-path="url(#p400b061024)" d="M 118.682701 244.8 
L 123.655103 244.8 
L 123.655103 235.995108 
L 118.682701 235.995108 
z
" style="fill:#00bfff;opacity:0.5;"/>
   </g>
   <g id="patch_10">
    <path clip-path="url(#p400b061024)" d="M 123.655103 244.8 
L 128.627506 244.8 
L 128.627506 233.593774 
L 123.655103 233.593774 
z
" style="fill:#00bfff;opacity:0.5;"/>
   </g>
   <g id="patch_11">
    <path clip-path="url(#p400b061024)" d="M 128.627506 244.8 
L 133.599908 244.8 
L 133.599908 226.789994 
L 128.627506 226.789994 
z
" style="fill:#00bfff;opacity:0.5;"/>
   </g>
   <g id="patch_12">
    <path clip-path="url(#p400b061024)" d="M 133.599908 244.8 
L 138.572311 244.8 
L 138.572311 221.186882 
L 133.599908 221.186882 
z
" style="fill:#00bfff;opacity:0.5;"/>
   </g>
   <g id="patch_13">
    <path clip-path="url(#p400b061024)" d="M 138.572311 244.8 
L 143.544713 244.8 
L 143.544713 219.585992 
L 138.572311 219.585992 
z
" style="fill:#00bfff;opacity:0.5;"/>
   </g>
   <g id="patch_14">
    <path clip-path="url(#p400b061024)" d="M 143.544713 244.8 
L 148.517115 244.8 
L 148.517115 201.175764 
L 143.544713 201.175764 
z
" style="fill:#00bfff;opacity:0.5;"/>
   </g>
   <g id="patch_15">
    <path clip-path="url(#p400b061024)" d="M 148.517115 244.8 
L 153.489518 244.8 
L 153.489518 199.574875 
L 148.517115 199.574875 
z
" style="fill:#00bfff;opacity:0.5;"/>
   </g>
   <g id="patch_16">
    <path clip-path="url(#p400b061024)" d="M 153.489518 244.8 
L 158.46192 244.8 
L 158.46192 185.567093 
L 153.489518 185.567093 
z
" style="fill:#00bfff;opacity:0.5;"/>
   </g>
   <g id="patch_17">
    <path clip-path="url(#p400b061024)" d="M 158.46192 244.8 
L 163.434322 244.8 
L 163.434322 168.757754 
L 158.46192 168.757754 
z
" style="fill:#00bfff;opacity:0.5;"/>
   </g>
   <g id="patch_18">
    <path clip-path="url(#p400b061024)" d="M 163.434322 244.8 
L 168.406725 244.8 
L 168.406725 161.15353 
L 163.434322 161.15353 
z
" style="fill:#00bfff;opacity:0.5;"/>
   </g>
   <g id="patch_19">
    <path clip-path="url(#p400b061024)" d="M 168.406725 244.8 
L 173.379127 244.8 
L 173.379127 148.746637 
L 168.406725 148.746637 
z
" style="fill:#00bfff;opacity:0.5;"/>
   </g>
   <g id="patch_20">
    <path clip-path="url(#p400b061024)" d="M 173.379127 244.8 
L 178.351529 244.8 
L 178.351529 140.341968 
L 173.379127 140.341968 
z
" style="fill:#00bfff;opacity:0.5;"/>
   </g>
   <g id="patch_21">
    <path clip-path="url(#p400b061024)" d="M 178.351529 244.8 
L 183.323932 244.8 
L 183.323932 111.125737 
L 178.351529 111.125737 
z
" style="fill:#00bfff;opacity:0.5;"/>
   </g>
   <g id="patch_22">
    <path clip-path="url(#p400b061024)" d="M 183.323932 244.8 
L 188.296334 244.8 
L 188.296334 102.320845 
L 183.323932 102.320845 
z
" style="fill:#00bfff;opacity:0.5;"/>
   </g>
   <g id="patch_23">
    <path clip-path="url(#p400b061024)" d="M 188.296334 244.8 
L 193.268736 244.8 
L 193.268736 90.314175 
L 188.296334 90.314175 
z
" style="fill:#00bfff;opacity:0.5;"/>
   </g>
   <g id="patch_24">
    <path clip-path="url(#p400b061024)" d="M 193.268736 244.8 
L 198.241139 244.8 
L 198.241139 72.304169 
L 193.268736 72.304169 
z
" style="fill:#00bfff;opacity:0.5;"/>
   </g>
   <g id="patch_25">
    <path clip-path="url(#p400b061024)" d="M 198.241139 244.8 
L 203.213541 244.8 
L 203.213541 72.704391 
L 198.241139 72.704391 
z
" style="fill:#00bfff;opacity:0.5;"/>
   </g>
   <g id="patch_26">
    <path clip-path="url(#p400b061024)" d="M 203.213541 244.8 
L 208.185943 244.8 
L 208.185943 53.493719 
L 203.213541 53.493719 
z
" style="fill:#00bfff;opacity:0.5;"/>
   </g>
   <g id="patch_27">
    <path clip-path="url(#p400b061024)" d="M 208.185943 244.8 
L 213.158346 244.8 
L 213.158346 56.295275 
L 208.185943 56.295275 
z
" style="fill:#00bfff;opacity:0.5;"/>
   </g>
   <g id="patch_28">
    <path clip-path="url(#p400b061024)" d="M 213.158346 244.8 
L 218.130748 244.8 
L 218.130748 47.090161 
L 213.158346 47.090161 
z
" style="fill:#00bfff;opacity:0.5;"/>
   </g>
   <g id="patch_29">
    <path clip-path="url(#p400b061024)" d="M 218.130748 244.8 
L 223.10315 244.8 
L 223.10315 45.889494 
L 218.130748 45.889494 
z
" style="fill:#00bfff;opacity:0.5;"/>
   </g>
   <g id="patch_30">
    <path clip-path="url(#p400b061024)" d="M 223.10315 244.8 
L 228.075553 244.8 
L 228.075553 51.092385 
L 223.10315 51.092385 
z
" style="fill:#00bfff;opacity:0.5;"/>
   </g>
   <g id="patch_31">
    <path clip-path="url(#p400b061024)" d="M 228.075553 244.8 
L 233.047955 244.8 
L 233.047955 59.096832 
L 228.075553 59.096832 
z
" style="fill:#00bfff;opacity:0.5;"/>
   </g>
   <g id="patch_32">
    <path clip-path="url(#p400b061024)" d="M 233.047955 244.8 
L 238.020357 244.8 
L 238.020357 57.896165 
L 233.047955 57.896165 
z
" style="fill:#00bfff;opacity:0.5;"/>
   </g>
   <g id="patch_33">
    <path clip-path="url(#p400b061024)" d="M 238.020357 244.8 
L 242.99276 244.8 
L 242.99276 80.708838 
L 238.020357 80.708838 
z
" style="fill:#00bfff;opacity:0.5;"/>
   </g>
   <g id="patch_34">
    <path clip-path="url(#p400b061024)" d="M 242.99276 244.8 
L 247.965162 244.8 
L 247.965162 86.311951 
L 242.99276 86.311951 
z
" style="fill:#00bfff;opacity:0.5;"/>
   </g>
   <g id="patch_35">
    <path clip-path="url(#p400b061024)" d="M 247.965162 244.8 
L 252.937564 244.8 
L 252.937564 92.315286 
L 247.965162 92.315286 
z
" style="fill:#00bfff;opacity:0.5;"/>
   </g>
   <g id="patch_36">
    <path clip-path="url(#p400b061024)" d="M 252.937564 244.8 
L 257.909967 244.8 
L 257.909967 124.333074 
L 252.937564 124.333074 
z
" style="fill:#00bfff;opacity:0.5;"/>
   </g>
   <g id="patch_37">
    <path clip-path="url(#p400b061024)" d="M 257.909967 244.8 
L 262.882369 244.8 
L 262.882369 135.5393 
L 257.909967 135.5393 
z
" style="fill:#00bfff;opacity:0.5;"/>
   </g>
   <g id="patch_38">
    <path clip-path="url(#p400b061024)" d="M 262.882369 244.8 
L 267.854771 244.8 
L 267.854771 150.747749 
L 262.882369 150.747749 
z
" style="fill:#00bfff;opacity:0.5;"/>
   </g>
   <g id="patch_39">
    <path clip-path="url(#p400b061024)" d="M 267.854771 244.8 
L 272.827174 244.8 
L 272.827174 149.146859 
L 267.854771 149.146859 
z
" style="fill:#00bfff;opacity:0.5;"/>
   </g>
   <g id="patch_40">
    <path clip-path="url(#p400b061024)" d="M 272.827174 244.8 
L 277.799576 244.8 
L 277.799576 167.156865 
L 272.827174 167.156865 
z
" style="fill:#00bfff;opacity:0.5;"/>
   </g>
   <g id="patch_41">
    <path clip-path="url(#p400b061024)" d="M 277.799576 244.8 
L 282.771978 244.8 
L 282.771978 187.568205 
L 277.799576 187.568205 
z
" style="fill:#00bfff;opacity:0.5;"/>
   </g>
   <g id="patch_42">
    <path clip-path="url(#p400b061024)" d="M 282.771978 244.8 
L 287.744381 244.8 
L 287.744381 198.374208 
L 282.771978 198.374208 
z
" style="fill:#00bfff;opacity:0.5;"/>
   </g>
   <g id="patch_43">
    <path clip-path="url(#p400b061024)" d="M 287.744381 244.8 
L 292.716783 244.8 
L 292.716783 202.776654 
L 287.744381 202.776654 
z
" style="fill:#00bfff;opacity:0.5;"/>
   </g>
   <g id="patch_44">
    <path clip-path="url(#p400b061024)" d="M 292.716783 244.8 
L 297.689185 244.8 
L 297.689185 211.181323 
L 292.716783 211.181323 
z
" style="fill:#00bfff;opacity:0.5;"/>
   </g>
   <g id="patch_45">
    <path clip-path="url(#p400b061024)" d="M 297.689185 244.8 
L 302.661588 244.8 
L 302.661588 211.981768 
L 297.689185 211.981768 
z
" style="fill:#00bfff;opacity:0.5;"/>
   </g>
   <g id="patch_46">
    <path clip-path="url(#p400b061024)" d="M 302.661588 244.8 
L 307.63399 244.8 
L 307.63399 223.988438 
L 302.661588 223.988438 
z
" style="fill:#00bfff;opacity:0.5;"/>
   </g>
   <g id="patch_47">
    <path clip-path="url(#p400b061024)" d="M 307.63399 244.8 
L 312.606392 244.8 
L 312.606392 227.590439 
L 307.63399 227.590439 
z
" style="fill:#00bfff;opacity:0.5;"/>
   </g>
   <g id="patch_48">
    <path clip-path="url(#p400b061024)" d="M 312.606392 244.8 
L 317.578795 244.8 
L 317.578795 230.792218 
L 312.606392 230.792218 
z
" style="fill:#00bfff;opacity:0.5;"/>
   </g>
   <g id="patch_49">
    <path clip-path="url(#p400b061024)" d="M 317.578795 244.8 
L 322.551197 244.8 
L 322.551197 234.794441 
L 317.578795 234.794441 
z
" style="fill:#00bfff;opacity:0.5;"/>
   </g>
   <g id="patch_50">
    <path clip-path="url(#p400b061024)" d="M 322.551197 244.8 
L 327.523599 244.8 
L 327.523599 237.595998 
L 322.551197 237.595998 
z
" style="fill:#00bfff;opacity:0.5;"/>
   </g>
   <g id="patch_51">
    <path clip-path="url(#p400b061024)" d="M 327.523599 244.8 
L 332.496002 244.8 
L 332.496002 239.997332 
L 327.523599 239.997332 
z
" style="fill:#00bfff;opacity:0.5;"/>
   </g>
   <g id="patch_52">
    <path clip-path="url(#p400b061024)" d="M 332.496002 244.8 
L 337.468404 244.8 
L 337.468404 240.797777 
L 332.496002 240.797777 
z
" style="fill:#00bfff;opacity:0.5;"/>
   </g>
   <g id="patch_53">
    <path clip-path="url(#p400b061024)" d="M 337.468404 244.8 
L 342.440807 244.8 
L 342.440807 242.798888 
L 337.468404 242.798888 
z
" style="fill:#00bfff;opacity:0.5;"/>
   </g>
   <g id="patch_54">
    <path clip-path="url(#p400b061024)" d="M 342.440807 244.8 
L 347.413209 244.8 
L 347.413209 242.798888 
L 342.440807 242.798888 
z
" style="fill:#00bfff;opacity:0.5;"/>
   </g>
   <g id="patch_55">
    <path clip-path="url(#p400b061024)" d="M 347.413209 244.8 
L 352.385611 244.8 
L 352.385611 244.8 
L 347.413209 244.8 
z
" style="fill:#00bfff;opacity:0.5;"/>
   </g>
   <g id="patch_56">
    <path clip-path="url(#p400b061024)" d="M 352.385611 244.8 
L 357.358014 244.8 
L 357.358014 243.999555 
L 352.385611 243.999555 
z
" style="fill:#00bfff;opacity:0.5;"/>
   </g>
   <g id="patch_57">
    <path clip-path="url(#p400b061024)" d="M 57.914587 244.8 
L 62.877784 244.8 
L 62.877784 244.399778 
L 57.914587 244.399778 
z
" style="fill:#fb4c52;opacity:0.5;"/>
   </g>
   <g id="patch_58">
    <path clip-path="url(#p400b061024)" d="M 62.877784 244.8 
L 67.840981 244.8 
L 67.840981 244.399778 
L 62.877784 244.399778 
z
" style="fill:#fb4c52;opacity:0.5;"/>
   </g>
   <g id="patch_59">
    <path clip-path="url(#p400b061024)" d="M 67.840981 244.8 
L 72.804178 244.8 
L 72.804178 244.8 
L 67.840981 244.8 
z
" style="fill:#fb4c52;opacity:0.5;"/>
   </g>
   <g id="patch_60">
    <path clip-path="url(#p400b061024)" d="M 72.804178 244.8 
L 77.767376 244.8 
L 77.767376 244.8 
L 72.804178 244.8 
z
" style="fill:#fb4c52;opacity:0.5;"/>
   </g>
   <g id="patch_61">
    <path clip-path="url(#p400b061024)" d="M 77.767376 244.8 
L 82.730573 244.8 
L 82.730573 244.399778 
L 77.767376 244.399778 
z
" style="fill:#fb4c52;opacity:0.5;"/>
   </g>
   <g id="patch_62">
    <path clip-path="url(#p400b061024)" d="M 82.730573 244.8 
L 87.69377 244.8 
L 87.69377 244.8 
L 82.730573 244.8 
z
" style="fill:#fb4c52;opacity:0.5;"/>
   </g>
   <g id="patch_63">
    <path clip-path="url(#p400b061024)" d="M 87.69377 244.8 
L 92.656967 244.8 
L 92.656967 243.599333 
L 87.69377 243.599333 
z
" style="fill:#fb4c52;opacity:0.5;"/>
   </g>
   <g id="patch_64">
    <path clip-path="url(#p400b061024)" d="M 92.656967 244.8 
L 97.620165 244.8 
L 97.620165 243.599333 
L 92.656967 243.599333 
z
" style="fill:#fb4c52;opacity:0.5;"/>
   </g>
   <g id="patch_65">
    <path clip-path="url(#p400b061024)" d="M 97.620165 244.8 
L 102.583362 244.8 
L 102.583362 242.398666 
L 97.620165 242.398666 
z
" style="fill:#fb4c52;opacity:0.5;"/>
   </g>
   <g id="patch_66">
    <path clip-path="url(#p400b061024)" d="M 102.583362 244.8 
L 107.546559 244.8 
L 107.546559 242.798888 
L 102.583362 242.798888 
z
" style="fill:#fb4c52;opacity:0.5;"/>
   </g>
   <g id="patch_67">
    <path clip-path="url(#p400b061024)" d="M 107.546559 244.8 
L 112.509756 244.8 
L 112.509756 241.998444 
L 107.546559 241.998444 
z
" style="fill:#fb4c52;opacity:0.5;"/>
   </g>
   <g id="patch_68">
    <path clip-path="url(#p400b061024)" d="M 112.509756 244.8 
L 117.472954 244.8 
L 117.472954 238.396442 
L 112.509756 238.396442 
z
" style="fill:#fb4c52;opacity:0.5;"/>
   </g>
   <g id="patch_69">
    <path clip-path="url(#p400b061024)" d="M 117.472954 244.8 
L 122.436151 244.8 
L 122.436151 235.995108 
L 117.472954 235.995108 
z
" style="fill:#fb4c52;opacity:0.5;"/>
   </g>
   <g id="patch_70">
    <path clip-path="url(#p400b061024)" d="M 122.436151 244.8 
L 127.399348 244.8 
L 127.399348 232.79333 
L 122.436151 232.79333 
z
" style="fill:#fb4c52;opacity:0.5;"/>
   </g>
   <g id="patch_71">
    <path clip-path="url(#p400b061024)" d="M 127.399348 244.8 
L 132.362545 244.8 
L 132.362545 230.391996 
L 127.399348 230.391996 
z
" style="fill:#fb4c52;opacity:0.5;"/>
   </g>
   <g id="patch_72">
    <path clip-path="url(#p400b061024)" d="M 132.362545 244.8 
L 137.325743 244.8 
L 137.325743 223.588216 
L 132.362545 223.588216 
z
" style="fill:#fb4c52;opacity:0.5;"/>
   </g>
   <g id="patch_73">
    <path clip-path="url(#p400b061024)" d="M 137.325743 244.8 
L 142.28894 244.8 
L 142.28894 221.587104 
L 137.325743 221.587104 
z
" style="fill:#fb4c52;opacity:0.5;"/>
   </g>
   <g id="patch_74">
    <path clip-path="url(#p400b061024)" d="M 142.28894 244.8 
L 147.252137 244.8 
L 147.252137 207.979544 
L 142.28894 207.979544 
z
" style="fill:#fb4c52;opacity:0.5;"/>
   </g>
   <g id="patch_75">
    <path clip-path="url(#p400b061024)" d="M 147.252137 244.8 
L 152.215334 244.8 
L 152.215334 199.975097 
L 147.252137 199.975097 
z
" style="fill:#fb4c52;opacity:0.5;"/>
   </g>
   <g id="patch_76">
    <path clip-path="url(#p400b061024)" d="M 152.215334 244.8 
L 157.178532 244.8 
L 157.178532 195.572651 
L 152.215334 195.572651 
z
" style="fill:#fb4c52;opacity:0.5;"/>
   </g>
   <g id="patch_77">
    <path clip-path="url(#p400b061024)" d="M 157.178532 244.8 
L 162.141729 244.8 
L 162.141729 177.962868 
L 157.178532 177.962868 
z
" style="fill:#fb4c52;opacity:0.5;"/>
   </g>
   <g id="patch_78">
    <path clip-path="url(#p400b061024)" d="M 162.141729 244.8 
L 167.104926 244.8 
L 167.104926 167.156865 
L 162.141729 167.156865 
z
" style="fill:#fb4c52;opacity:0.5;"/>
   </g>
   <g id="patch_79">
    <path clip-path="url(#p400b061024)" d="M 167.104926 244.8 
L 172.068123 244.8 
L 172.068123 159.55264 
L 167.104926 159.55264 
z
" style="fill:#fb4c52;opacity:0.5;"/>
   </g>
   <g id="patch_80">
    <path clip-path="url(#p400b061024)" d="M 172.068123 244.8 
L 177.031321 244.8 
L 177.031321 141.942857 
L 172.068123 141.942857 
z
" style="fill:#fb4c52;opacity:0.5;"/>
   </g>
   <g id="patch_81">
    <path clip-path="url(#p400b061024)" d="M 177.031321 244.8 
L 181.994518 244.8 
L 181.994518 129.535964 
L 177.031321 129.535964 
z
" style="fill:#fb4c52;opacity:0.5;"/>
   </g>
   <g id="patch_82">
    <path clip-path="url(#p400b061024)" d="M 181.994518 244.8 
L 186.957715 244.8 
L 186.957715 114.727738 
L 181.994518 114.727738 
z
" style="fill:#fb4c52;opacity:0.5;"/>
   </g>
   <g id="patch_83">
    <path clip-path="url(#p400b061024)" d="M 186.957715 244.8 
L 191.920912 244.8 
L 191.920912 98.318621 
L 186.957715 98.318621 
z
" style="fill:#fb4c52;opacity:0.5;"/>
   </g>
   <g id="patch_84">
    <path clip-path="url(#p400b061024)" d="M 191.920912 244.8 
L 196.88411 244.8 
L 196.88411 83.110172 
L 191.920912 83.110172 
z
" style="fill:#fb4c52;opacity:0.5;"/>
   </g>
   <g id="patch_85">
    <path clip-path="url(#p400b061024)" d="M 196.88411 244.8 
L 201.847307 244.8 
L 201.847307 88.713285 
L 196.88411 88.713285 
z
" style="fill:#fb4c52;opacity:0.5;"/>
   </g>
   <g id="patch_86">
    <path clip-path="url(#p400b061024)" d="M 201.847307 244.8 
L 206.810504 244.8 
L 206.810504 71.103502 
L 201.847307 71.103502 
z
" style="fill:#fb4c52;opacity:0.5;"/>
   </g>
   <g id="patch_87">
    <path clip-path="url(#p400b061024)" d="M 206.810504 244.8 
L 211.773701 244.8 
L 211.773701 53.493719 
L 206.810504 53.493719 
z
" style="fill:#fb4c52;opacity:0.5;"/>
   </g>
   <g id="patch_88">
    <path clip-path="url(#p400b061024)" d="M 211.773701 244.8 
L 216.736899 244.8 
L 216.736899 41.487048 
L 211.773701 41.487048 
z
" style="fill:#fb4c52;opacity:0.5;"/>
   </g>
   <g id="patch_89">
    <path clip-path="url(#p400b061024)" d="M 216.736899 244.8 
L 221.700096 244.8 
L 221.700096 39.085714 
L 216.736899 39.085714 
z
" style="fill:#fb4c52;opacity:0.5;"/>
   </g>
   <g id="patch_90">
    <path clip-path="url(#p400b061024)" d="M 221.700096 244.8 
L 226.663293 244.8 
L 226.663293 52.293052 
L 221.700096 52.293052 
z
" style="fill:#fb4c52;opacity:0.5;"/>
   </g>
   <g id="patch_91">
    <path clip-path="url(#p400b061024)" d="M 226.663293 244.8 
L 231.62649 244.8 
L 231.62649 44.288605 
L 226.663293 44.288605 
z
" style="fill:#fb4c52;opacity:0.5;"/>
   </g>
   <g id="patch_92">
    <path clip-path="url(#p400b061024)" d="M 231.62649 244.8 
L 236.589687 244.8 
L 236.589687 59.096832 
L 231.62649 59.096832 
z
" style="fill:#fb4c52;opacity:0.5;"/>
   </g>
   <g id="patch_93">
    <path clip-path="url(#p400b061024)" d="M 236.589687 244.8 
L 241.552885 244.8 
L 241.552885 61.898388 
L 236.589687 61.898388 
z
" style="fill:#fb4c52;opacity:0.5;"/>
   </g>
   <g id="patch_94">
    <path clip-path="url(#p400b061024)" d="M 241.552885 244.8 
L 246.516082 244.8 
L 246.516082 72.304169 
L 241.552885 72.304169 
z
" style="fill:#fb4c52;opacity:0.5;"/>
   </g>
   <g id="patch_95">
    <path clip-path="url(#p400b061024)" d="M 246.516082 244.8 
L 251.479279 244.8 
L 251.479279 83.910617 
L 246.516082 83.910617 
z
" style="fill:#fb4c52;opacity:0.5;"/>
   </g>
   <g id="patch_96">
    <path clip-path="url(#p400b061024)" d="M 251.479279 244.8 
L 256.442476 244.8 
L 256.442476 109.524847 
L 251.479279 109.524847 
z
" style="fill:#fb4c52;opacity:0.5;"/>
   </g>
   <g id="patch_97">
    <path clip-path="url(#p400b061024)" d="M 256.442476 244.8 
L 261.405674 244.8 
L 261.405674 112.326404 
L 256.442476 112.326404 
z
" style="fill:#fb4c52;opacity:0.5;"/>
   </g>
   <g id="patch_98">
    <path clip-path="url(#p400b061024)" d="M 261.405674 244.8 
L 266.368871 244.8 
L 266.368871 131.136854 
L 261.405674 131.136854 
z
" style="fill:#fb4c52;opacity:0.5;"/>
   </g>
   <g id="patch_99">
    <path clip-path="url(#p400b061024)" d="M 266.368871 244.8 
L 271.332068 244.8 
L 271.332068 147.946192 
L 266.368871 147.946192 
z
" style="fill:#fb4c52;opacity:0.5;"/>
   </g>
   <g id="patch_100">
    <path clip-path="url(#p400b061024)" d="M 271.332068 244.8 
L 276.295265 244.8 
L 276.295265 172.359755 
L 271.332068 172.359755 
z
" style="fill:#fb4c52;opacity:0.5;"/>
   </g>
   <g id="patch_101">
    <path clip-path="url(#p400b061024)" d="M 276.295265 244.8 
L 281.258463 244.8 
L 281.258463 183.165759 
L 276.295265 183.165759 
z
" style="fill:#fb4c52;opacity:0.5;"/>
   </g>
   <g id="patch_102">
    <path clip-path="url(#p400b061024)" d="M 281.258463 244.8 
L 286.22166 244.8 
L 286.22166 192.370873 
L 281.258463 192.370873 
z
" style="fill:#fb4c52;opacity:0.5;"/>
   </g>
   <g id="patch_103">
    <path clip-path="url(#p400b061024)" d="M 286.22166 244.8 
L 291.184857 244.8 
L 291.184857 198.77443 
L 286.22166 198.77443 
z
" style="fill:#fb4c52;opacity:0.5;"/>
   </g>
   <g id="patch_104">
    <path clip-path="url(#p400b061024)" d="M 291.184857 244.8 
L 296.148054 244.8 
L 296.148054 208.379767 
L 291.184857 208.379767 
z
" style="fill:#fb4c52;opacity:0.5;"/>
   </g>
   <g id="patch_105">
    <path clip-path="url(#p400b061024)" d="M 296.148054 244.8 
L 301.111252 244.8 
L 301.111252 217.58488 
L 296.148054 217.58488 
z
" style="fill:#fb4c52;opacity:0.5;"/>
   </g>
   <g id="patch_106">
    <path clip-path="url(#p400b061024)" d="M 301.111252 244.8 
L 306.074449 244.8 
L 306.074449 217.985103 
L 301.111252 217.985103 
z
" style="fill:#fb4c52;opacity:0.5;"/>
   </g>
   <g id="patch_107">
    <path clip-path="url(#p400b061024)" d="M 306.074449 244.8 
L 311.037646 244.8 
L 311.037646 230.391996 
L 306.074449 230.391996 
z
" style="fill:#fb4c52;opacity:0.5;"/>
   </g>
   <g id="patch_108">
    <path clip-path="url(#p400b061024)" d="M 311.037646 244.8 
L 316.000843 244.8 
L 316.000843 233.993997 
L 311.037646 233.993997 
z
" style="fill:#fb4c52;opacity:0.5;"/>
   </g>
   <g id="patch_109">
    <path clip-path="url(#p400b061024)" d="M 316.000843 244.8 
L 320.964041 244.8 
L 320.964041 237.595998 
L 316.000843 237.595998 
z
" style="fill:#fb4c52;opacity:0.5;"/>
   </g>
   <g id="patch_110">
    <path clip-path="url(#p400b061024)" d="M 320.964041 244.8 
L 325.927238 244.8 
L 325.927238 234.394219 
L 320.964041 234.394219 
z
" style="fill:#fb4c52;opacity:0.5;"/>
   </g>
   <g id="patch_111">
    <path clip-path="url(#p400b061024)" d="M 325.927238 244.8 
L 330.890435 244.8 
L 330.890435 241.598221 
L 325.927238 241.598221 
z
" style="fill:#fb4c52;opacity:0.5;"/>
   </g>
   <g id="patch_112">
    <path clip-path="url(#p400b061024)" d="M 330.890435 244.8 
L 335.853632 244.8 
L 335.853632 238.796665 
L 330.890435 238.796665 
z
" style="fill:#fb4c52;opacity:0.5;"/>
   </g>
   <g id="patch_113">
    <path clip-path="url(#p400b061024)" d="M 335.853632 244.8 
L 340.81683 244.8 
L 340.81683 241.197999 
L 335.853632 241.197999 
z
" style="fill:#fb4c52;opacity:0.5;"/>
   </g>
   <g id="patch_114">
    <path clip-path="url(#p400b061024)" d="M 340.81683 244.8 
L 345.780027 244.8 
L 345.780027 242.398666 
L 340.81683 242.398666 
z
" style="fill:#fb4c52;opacity:0.5;"/>
   </g>
   <g id="patch_115">
    <path clip-path="url(#p400b061024)" d="M 345.780027 244.8 
L 350.743224 244.8 
L 350.743224 243.599333 
L 345.780027 243.599333 
z
" style="fill:#fb4c52;opacity:0.5;"/>
   </g>
   <g id="patch_116">
    <path clip-path="url(#p400b061024)" d="M 350.743224 244.8 
L 355.706421 244.8 
L 355.706421 244.8 
L 350.743224 244.8 
z
" style="fill:#fb4c52;opacity:0.5;"/>
   </g>
   <g id="patch_117">
    <path clip-path="url(#p400b061024)" d="M 355.706421 244.8 
L 360.669619 244.8 
L 360.669619 243.199111 
L 355.706421 243.199111 
z
" style="fill:#fb4c52;opacity:0.5;"/>
   </g>
   <g id="patch_118">
    <path clip-path="url(#p400b061024)" d="M 360.669619 244.8 
L 365.632816 244.8 
L 365.632816 244.8 
L 360.669619 244.8 
z
" style="fill:#fb4c52;opacity:0.5;"/>
   </g>
   <g id="patch_119">
    <path clip-path="url(#p400b061024)" d="M 365.632816 244.8 
L 370.596013 244.8 
L 370.596013 243.599333 
L 365.632816 243.599333 
z
" style="fill:#fb4c52;opacity:0.5;"/>
   </g>
   <g id="matplotlib.axis_1">
    <g id="xtick_1">
     <g id="line2d_1">
      <defs>
       <path d="M 0 0 
L 0 4 
" id="m4c5e7789b4" style="stroke:#222222;"/>
      </defs>
      <g>
       <use style="fill:#222222;stroke:#222222;" x="56.824615" xlink:href="#m4c5e7789b4" y="244.8"/>
      </g>
     </g>
     <g id="text_1">
      <!-- −6 -->
      <defs>
       <path d="M 10.59375 35.5 
L 73.1875 35.5 
L 73.1875 27.203125 
L 10.59375 27.203125 
z
" id="DejaVuSans-2212"/>
       <path d="M 33.015625 40.375 
Q 26.375 40.375 22.484375 35.828125 
Q 18.609375 31.296875 18.609375 23.390625 
Q 18.609375 15.53125 22.484375 10.953125 
Q 26.375 6.390625 33.015625 6.390625 
Q 39.65625 6.390625 43.53125 10.953125 
Q 47.40625 15.53125 47.40625 23.390625 
Q 47.40625 31.296875 43.53125 35.828125 
Q 39.65625 40.375 33.015625 40.375 
z
M 52.59375 71.296875 
L 52.59375 62.3125 
Q 48.875 64.0625 45.09375 64.984375 
Q 41.3125 65.921875 37.59375 65.921875 
Q 27.828125 65.921875 22.671875 59.328125 
Q 17.53125 52.734375 16.796875 39.40625 
Q 19.671875 43.65625 24.015625 45.921875 
Q 28.375 48.1875 33.59375 48.1875 
Q 44.578125 48.1875 50.953125 41.515625 
Q 57.328125 34.859375 57.328125 23.390625 
Q 57.328125 12.15625 50.6875 5.359375 
Q 44.046875 -1.421875 33.015625 -1.421875 
Q 20.359375 -1.421875 13.671875 8.265625 
Q 6.984375 17.96875 6.984375 36.375 
Q 6.984375 53.65625 15.1875 63.9375 
Q 23.390625 74.21875 37.203125 74.21875 
Q 40.921875 74.21875 44.703125 73.484375 
Q 48.484375 72.75 52.59375 71.296875 
z
" id="DejaVuSans-36"/>
      </defs>
      <g style="fill:#222222;" transform="translate(47.242194 262.677969)scale(0.13 -0.13)">
       <use xlink:href="#DejaVuSans-2212"/>
       <use x="83.789062" xlink:href="#DejaVuSans-36"/>
      </g>
     </g>
    </g>
    <g id="xtick_2">
     <g id="line2d_2">
      <g>
       <use style="fill:#222222;stroke:#222222;" x="111.323077" xlink:href="#m4c5e7789b4" y="244.8"/>
      </g>
     </g>
     <g id="text_2">
      <!-- −4 -->
      <defs>
       <path d="M 37.796875 64.3125 
L 12.890625 25.390625 
L 37.796875 25.390625 
z
M 35.203125 72.90625 
L 47.609375 72.90625 
L 47.609375 25.390625 
L 58.015625 25.390625 
L 58.015625 17.1875 
L 47.609375 17.1875 
L 47.609375 0 
L 37.796875 0 
L 37.796875 17.1875 
L 4.890625 17.1875 
L 4.890625 26.703125 
z
" id="DejaVuSans-34"/>
      </defs>
      <g style="fill:#222222;" transform="translate(101.740655 262.677969)scale(0.13 -0.13)">
       <use xlink:href="#DejaVuSans-2212"/>
       <use x="83.789062" xlink:href="#DejaVuSans-34"/>
      </g>
     </g>
    </g>
    <g id="xtick_3">
     <g id="line2d_3">
      <g>
       <use style="fill:#222222;stroke:#222222;" x="165.821538" xlink:href="#m4c5e7789b4" y="244.8"/>
      </g>
     </g>
     <g id="text_3">
      <!-- −2 -->
      <defs>
       <path d="M 19.1875 8.296875 
L 53.609375 8.296875 
L 53.609375 0 
L 7.328125 0 
L 7.328125 8.296875 
Q 12.9375 14.109375 22.625 23.890625 
Q 32.328125 33.6875 34.8125 36.53125 
Q 39.546875 41.84375 41.421875 45.53125 
Q 43.3125 49.21875 43.3125 52.78125 
Q 43.3125 58.59375 39.234375 62.25 
Q 35.15625 65.921875 28.609375 65.921875 
Q 23.96875 65.921875 18.8125 64.3125 
Q 13.671875 62.703125 7.8125 59.421875 
L 7.8125 69.390625 
Q 13.765625 71.78125 18.9375 73 
Q 24.125 74.21875 28.421875 74.21875 
Q 39.75 74.21875 46.484375 68.546875 
Q 53.21875 62.890625 53.21875 53.421875 
Q 53.21875 48.921875 51.53125 44.890625 
Q 49.859375 40.875 45.40625 35.40625 
Q 44.1875 33.984375 37.640625 27.21875 
Q 31.109375 20.453125 19.1875 8.296875 
z
" id="DejaVuSans-32"/>
      </defs>
      <g style="fill:#222222;" transform="translate(156.239117 262.677969)scale(0.13 -0.13)">
       <use xlink:href="#DejaVuSans-2212"/>
       <use x="83.789062" xlink:href="#DejaVuSans-32"/>
      </g>
     </g>
    </g>
    <g id="xtick_4">
     <g id="line2d_4">
      <g>
       <use style="fill:#222222;stroke:#222222;" x="220.32" xlink:href="#m4c5e7789b4" y="244.8"/>
      </g>
     </g>
     <g id="text_4">
      <!-- 0 -->
      <defs>
       <path d="M 31.78125 66.40625 
Q 24.171875 66.40625 20.328125 58.90625 
Q 16.5 51.421875 16.5 36.375 
Q 16.5 21.390625 20.328125 13.890625 
Q 24.171875 6.390625 31.78125 6.390625 
Q 39.453125 6.390625 43.28125 13.890625 
Q 47.125 21.390625 47.125 36.375 
Q 47.125 51.421875 43.28125 58.90625 
Q 39.453125 66.40625 31.78125 66.40625 
z
M 31.78125 74.21875 
Q 44.046875 74.21875 50.515625 64.515625 
Q 56.984375 54.828125 56.984375 36.375 
Q 56.984375 17.96875 50.515625 8.265625 
Q 44.046875 -1.421875 31.78125 -1.421875 
Q 19.53125 -1.421875 13.0625 8.265625 
Q 6.59375 17.96875 6.59375 36.375 
Q 6.59375 54.828125 13.0625 64.515625 
Q 19.53125 74.21875 31.78125 74.21875 
z
" id="DejaVuSans-30"/>
      </defs>
      <g style="fill:#222222;" transform="translate(216.184375 262.677969)scale(0.13 -0.13)">
       <use xlink:href="#DejaVuSans-30"/>
      </g>
     </g>
    </g>
    <g id="xtick_5">
     <g id="line2d_5">
      <g>
       <use style="fill:#222222;stroke:#222222;" x="274.818462" xlink:href="#m4c5e7789b4" y="244.8"/>
      </g>
     </g>
     <g id="text_5">
      <!-- 2 -->
      <g style="fill:#222222;" transform="translate(270.682837 262.677969)scale(0.13 -0.13)">
       <use xlink:href="#DejaVuSans-32"/>
      </g>
     </g>
    </g>
    <g id="xtick_6">
     <g id="line2d_6">
      <g>
       <use style="fill:#222222;stroke:#222222;" x="329.316923" xlink:href="#m4c5e7789b4" y="244.8"/>
      </g>
     </g>
     <g id="text_6">
      <!-- 4 -->
      <g style="fill:#222222;" transform="translate(325.181298 262.677969)scale(0.13 -0.13)">
       <use xlink:href="#DejaVuSans-34"/>
      </g>
     </g>
    </g>
    <g id="xtick_7">
     <g id="line2d_7">
      <g>
       <use style="fill:#222222;stroke:#222222;" x="383.815385" xlink:href="#m4c5e7789b4" y="244.8"/>
      </g>
     </g>
     <g id="text_7">
      <!-- 6 -->
      <g style="fill:#222222;" transform="translate(379.67976 262.677969)scale(0.13 -0.13)">
       <use xlink:href="#DejaVuSans-36"/>
      </g>
     </g>
    </g>
    <g id="text_8">
     <!-- $\bar{x}_{\mathrm{carbon}}-\bar{x}_{\mathrm{steel}}$ (min) -->
     <defs>
      <path d="M -39.34375 74.515625 
L -10.15625 74.515625 
L -10.15625 67.28125 
L -39.34375 67.28125 
z
" id="DejaVuSans-304"/>
      <path d="M 60.015625 54.6875 
L 34.90625 27.875 
L 50.296875 0 
L 39.984375 0 
L 28.421875 21.6875 
L 8.296875 0 
L -2.59375 0 
L 24.3125 28.8125 
L 10.015625 54.6875 
L 20.3125 54.6875 
L 30.8125 34.90625 
L 49.125 54.6875 
z
" id="DejaVuSans-Oblique-78"/>
      <path d="M 48.78125 52.59375 
L 48.78125 44.1875 
Q 44.96875 46.296875 41.140625 47.34375 
Q 37.3125 48.390625 33.40625 48.390625 
Q 24.65625 48.390625 19.8125 42.84375 
Q 14.984375 37.3125 14.984375 27.296875 
Q 14.984375 17.28125 19.8125 11.734375 
Q 24.65625 6.203125 33.40625 6.203125 
Q 37.3125 6.203125 41.140625 7.25 
Q 44.96875 8.296875 48.78125 10.40625 
L 48.78125 2.09375 
Q 45.015625 0.34375 40.984375 -0.53125 
Q 36.96875 -1.421875 32.421875 -1.421875 
Q 20.0625 -1.421875 12.78125 6.34375 
Q 5.515625 14.109375 5.515625 27.296875 
Q 5.515625 40.671875 12.859375 48.328125 
Q 20.21875 56 33.015625 56 
Q 37.15625 56 41.109375 55.140625 
Q 45.0625 54.296875 48.78125 52.59375 
z
" id="DejaVuSans-63"/>
      <path d="M 34.28125 27.484375 
Q 23.390625 27.484375 19.1875 25 
Q 14.984375 22.515625 14.984375 16.5 
Q 14.984375 11.71875 18.140625 8.90625 
Q 21.296875 6.109375 26.703125 6.109375 
Q 34.1875 6.109375 38.703125 11.40625 
Q 43.21875 16.703125 43.21875 25.484375 
L 43.21875 27.484375 
z
M 52.203125 31.203125 
L 52.203125 0 
L 43.21875 0 
L 43.21875 8.296875 
Q 40.140625 3.328125 35.546875 0.953125 
Q 30.953125 -1.421875 24.3125 -1.421875 
Q 15.921875 -1.421875 10.953125 3.296875 
Q 6 8.015625 6 15.921875 
Q 6 25.140625 12.171875 29.828125 
Q 18.359375 34.515625 30.609375 34.515625 
L 43.21875 34.515625 
L 43.21875 35.40625 
Q 43.21875 41.609375 39.140625 45 
Q 35.0625 48.390625 27.6875 48.390625 
Q 23 48.390625 18.546875 47.265625 
Q 14.109375 46.140625 10.015625 43.890625 
L 10.015625 52.203125 
Q 14.9375 54.109375 19.578125 55.046875 
Q 24.21875 56 28.609375 56 
Q 40.484375 56 46.34375 49.84375 
Q 52.203125 43.703125 52.203125 31.203125 
z
" id="DejaVuSans-61"/>
      <path d="M 41.109375 46.296875 
Q 39.59375 47.171875 37.8125 47.578125 
Q 36.03125 48 33.890625 48 
Q 26.265625 48 22.1875 43.046875 
Q 18.109375 38.09375 18.109375 28.8125 
L 18.109375 0 
L 9.078125 0 
L 9.078125 54.6875 
L 18.109375 54.6875 
L 18.109375 46.1875 
Q 20.953125 51.171875 25.484375 53.578125 
Q 30.03125 56 36.53125 56 
Q 37.453125 56 38.578125 55.875 
Q 39.703125 55.765625 41.0625 55.515625 
z
" id="DejaVuSans-72"/>
      <path d="M 48.6875 27.296875 
Q 48.6875 37.203125 44.609375 42.84375 
Q 40.53125 48.484375 33.40625 48.484375 
Q 26.265625 48.484375 22.1875 42.84375 
Q 18.109375 37.203125 18.109375 27.296875 
Q 18.109375 17.390625 22.1875 11.75 
Q 26.265625 6.109375 33.40625 6.109375 
Q 40.53125 6.109375 44.609375 11.75 
Q 48.6875 17.390625 48.6875 27.296875 
z
M 18.109375 46.390625 
Q 20.953125 51.265625 25.265625 53.625 
Q 29.59375 56 35.59375 56 
Q 45.5625 56 51.78125 48.09375 
Q 58.015625 40.1875 58.015625 27.296875 
Q 58.015625 14.40625 51.78125 6.484375 
Q 45.5625 -1.421875 35.59375 -1.421875 
Q 29.59375 -1.421875 25.265625 0.953125 
Q 20.953125 3.328125 18.109375 8.203125 
L 18.109375 0 
L 9.078125 0 
L 9.078125 75.984375 
L 18.109375 75.984375 
z
" id="DejaVuSans-62"/>
      <path d="M 30.609375 48.390625 
Q 23.390625 48.390625 19.1875 42.75 
Q 14.984375 37.109375 14.984375 27.296875 
Q 14.984375 17.484375 19.15625 11.84375 
Q 23.34375 6.203125 30.609375 6.203125 
Q 37.796875 6.203125 41.984375 11.859375 
Q 46.1875 17.53125 46.1875 27.296875 
Q 46.1875 37.015625 41.984375 42.703125 
Q 37.796875 48.390625 30.609375 48.390625 
z
M 30.609375 56 
Q 42.328125 56 49.015625 48.375 
Q 55.71875 40.765625 55.71875 27.296875 
Q 55.71875 13.875 49.015625 6.21875 
Q 42.328125 -1.421875 30.609375 -1.421875 
Q 18.84375 -1.421875 12.171875 6.21875 
Q 5.515625 13.875 5.515625 27.296875 
Q 5.515625 40.765625 12.171875 48.375 
Q 18.84375 56 30.609375 56 
z
" id="DejaVuSans-6f"/>
      <path d="M 54.890625 33.015625 
L 54.890625 0 
L 45.90625 0 
L 45.90625 32.71875 
Q 45.90625 40.484375 42.875 44.328125 
Q 39.84375 48.1875 33.796875 48.1875 
Q 26.515625 48.1875 22.3125 43.546875 
Q 18.109375 38.921875 18.109375 30.90625 
L 18.109375 0 
L 9.078125 0 
L 9.078125 54.6875 
L 18.109375 54.6875 
L 18.109375 46.1875 
Q 21.34375 51.125 25.703125 53.5625 
Q 30.078125 56 35.796875 56 
Q 45.21875 56 50.046875 50.171875 
Q 54.890625 44.34375 54.890625 33.015625 
z
" id="DejaVuSans-6e"/>
      <path d="M 44.28125 53.078125 
L 44.28125 44.578125 
Q 40.484375 46.53125 36.375 47.5 
Q 32.28125 48.484375 27.875 48.484375 
Q 21.1875 48.484375 17.84375 46.4375 
Q 14.5 44.390625 14.5 40.28125 
Q 14.5 37.15625 16.890625 35.375 
Q 19.28125 33.59375 26.515625 31.984375 
L 29.59375 31.296875 
Q 39.15625 29.25 43.1875 25.515625 
Q 47.21875 21.78125 47.21875 15.09375 
Q 47.21875 7.46875 41.1875 3.015625 
Q 35.15625 -1.421875 24.609375 -1.421875 
Q 20.21875 -1.421875 15.453125 -0.5625 
Q 10.6875 0.296875 5.421875 2 
L 5.421875 11.28125 
Q 10.40625 8.6875 15.234375 7.390625 
Q 20.0625 6.109375 24.8125 6.109375 
Q 31.15625 6.109375 34.5625 8.28125 
Q 37.984375 10.453125 37.984375 14.40625 
Q 37.984375 18.0625 35.515625 20.015625 
Q 33.0625 21.96875 24.703125 23.78125 
L 21.578125 24.515625 
Q 13.234375 26.265625 9.515625 29.90625 
Q 5.8125 33.546875 5.8125 39.890625 
Q 5.8125 47.609375 11.28125 51.796875 
Q 16.75 56 26.8125 56 
Q 31.78125 56 36.171875 55.265625 
Q 40.578125 54.546875 44.28125 53.078125 
z
" id="DejaVuSans-73"/>
      <path d="M 18.3125 70.21875 
L 18.3125 54.6875 
L 36.8125 54.6875 
L 36.8125 47.703125 
L 18.3125 47.703125 
L 18.3125 18.015625 
Q 18.3125 11.328125 20.140625 9.421875 
Q 21.96875 7.515625 27.59375 7.515625 
L 36.8125 7.515625 
L 36.8125 0 
L 27.59375 0 
Q 17.1875 0 13.234375 3.875 
Q 9.28125 7.765625 9.28125 18.015625 
L 9.28125 47.703125 
L 2.6875 47.703125 
L 2.6875 54.6875 
L 9.28125 54.6875 
L 9.28125 70.21875 
z
" id="DejaVuSans-74"/>
      <path d="M 56.203125 29.59375 
L 56.203125 25.203125 
L 14.890625 25.203125 
Q 15.484375 15.921875 20.484375 11.0625 
Q 25.484375 6.203125 34.421875 6.203125 
Q 39.59375 6.203125 44.453125 7.46875 
Q 49.3125 8.734375 54.109375 11.28125 
L 54.109375 2.78125 
Q 49.265625 0.734375 44.1875 -0.34375 
Q 39.109375 -1.421875 33.890625 -1.421875 
Q 20.796875 -1.421875 13.15625 6.1875 
Q 5.515625 13.8125 5.515625 26.8125 
Q 5.515625 40.234375 12.765625 48.109375 
Q 20.015625 56 32.328125 56 
Q 43.359375 56 49.78125 48.890625 
Q 56.203125 41.796875 56.203125 29.59375 
z
M 47.21875 32.234375 
Q 47.125 39.59375 43.09375 43.984375 
Q 39.0625 48.390625 32.421875 48.390625 
Q 24.90625 48.390625 20.390625 44.140625 
Q 15.875 39.890625 15.1875 32.171875 
z
" id="DejaVuSans-65"/>
      <path d="M 9.421875 75.984375 
L 18.40625 75.984375 
L 18.40625 0 
L 9.421875 0 
z
" id="DejaVuSans-6c"/>
      <path id="DejaVuSans-20"/>
      <path d="M 31 75.875 
Q 24.46875 64.65625 21.28125 53.65625 
Q 18.109375 42.671875 18.109375 31.390625 
Q 18.109375 20.125 21.3125 9.0625 
Q 24.515625 -2 31 -13.1875 
L 23.1875 -13.1875 
Q 15.875 -1.703125 12.234375 9.375 
Q 8.59375 20.453125 8.59375 31.390625 
Q 8.59375 42.28125 12.203125 53.3125 
Q 15.828125 64.359375 23.1875 75.875 
z
" id="DejaVuSans-28"/>
      <path d="M 52 44.1875 
Q 55.375 50.25 60.0625 53.125 
Q 64.75 56 71.09375 56 
Q 79.640625 56 84.28125 50.015625 
Q 88.921875 44.046875 88.921875 33.015625 
L 88.921875 0 
L 79.890625 0 
L 79.890625 32.71875 
Q 79.890625 40.578125 77.09375 44.375 
Q 74.3125 48.1875 68.609375 48.1875 
Q 61.625 48.1875 57.5625 43.546875 
Q 53.515625 38.921875 53.515625 30.90625 
L 53.515625 0 
L 44.484375 0 
L 44.484375 32.71875 
Q 44.484375 40.625 41.703125 44.40625 
Q 38.921875 48.1875 33.109375 48.1875 
Q 26.21875 48.1875 22.15625 43.53125 
Q 18.109375 38.875 18.109375 30.90625 
L 18.109375 0 
L 9.078125 0 
L 9.078125 54.6875 
L 18.109375 54.6875 
L 18.109375 46.1875 
Q 21.1875 51.21875 25.484375 53.609375 
Q 29.78125 56 35.6875 56 
Q 41.65625 56 45.828125 52.96875 
Q 50 49.953125 52 44.1875 
z
" id="DejaVuSans-6d"/>
      <path d="M 9.421875 54.6875 
L 18.40625 54.6875 
L 18.40625 0 
L 9.421875 0 
z
M 9.421875 75.984375 
L 18.40625 75.984375 
L 18.40625 64.59375 
L 9.421875 64.59375 
z
" id="DejaVuSans-69"/>
      <path d="M 8.015625 75.875 
L 15.828125 75.875 
Q 23.140625 64.359375 26.78125 53.3125 
Q 30.421875 42.28125 30.421875 31.390625 
Q 30.421875 20.453125 26.78125 9.375 
Q 23.140625 -1.703125 15.828125 -13.1875 
L 8.015625 -13.1875 
Q 14.5 -2 17.703125 9.0625 
Q 20.90625 20.125 20.90625 31.390625 
Q 20.90625 42.671875 17.703125 53.65625 
Q 14.5 64.65625 8.015625 75.875 
z
" id="DejaVuSans-29"/>
     </defs>
     <g style="fill:#222222;" transform="translate(134.01 283.05875)scale(0.18 -0.18)">
      <use transform="translate(62.138672 -0.078125)" xlink:href="#DejaVuSans-304"/>
      <use transform="translate(0 0.015625)" xlink:href="#DejaVuSans-Oblique-78"/>
      <use transform="translate(60.136719 -16.390625)scale(0.7)" xlink:href="#DejaVuSans-63"/>
      <use transform="translate(98.623047 -16.390625)scale(0.7)" xlink:href="#DejaVuSans-61"/>
      <use transform="translate(141.518555 -16.390625)scale(0.7)" xlink:href="#DejaVuSans-72"/>
      <use transform="translate(170.297852 -16.390625)scale(0.7)" xlink:href="#DejaVuSans-62"/>
      <use transform="translate(214.731445 -16.390625)scale(0.7)" xlink:href="#DejaVuSans-6f"/>
      <use transform="translate(257.558594 -16.390625)scale(0.7)" xlink:href="#DejaVuSans-6e"/>
      <use transform="translate(324.140625 0.015625)" xlink:href="#DejaVuSans-2212"/>
      <use transform="translate(489.550781 -0.078125)" xlink:href="#DejaVuSans-304"/>
      <use transform="translate(427.412109 0.015625)" xlink:href="#DejaVuSans-Oblique-78"/>
      <use transform="translate(487.548828 -16.390625)scale(0.7)" xlink:href="#DejaVuSans-73"/>
      <use transform="translate(524.018555 -16.390625)scale(0.7)" xlink:href="#DejaVuSans-74"/>
      <use transform="translate(551.464844 -16.390625)scale(0.7)" xlink:href="#DejaVuSans-65"/>
      <use transform="translate(594.53125 -16.390625)scale(0.7)" xlink:href="#DejaVuSans-65"/>
      <use transform="translate(637.597656 -16.390625)scale(0.7)" xlink:href="#DejaVuSans-6c"/>
      <use transform="translate(659.780273 0.015625)" xlink:href="#DejaVuSans-20"/>
      <use transform="translate(691.567383 0.015625)" xlink:href="#DejaVuSans-28"/>
      <use transform="translate(730.581055 0.015625)" xlink:href="#DejaVuSans-6d"/>
      <use transform="translate(827.993164 0.015625)" xlink:href="#DejaVuSans-69"/>
      <use transform="translate(855.776367 0.015625)" xlink:href="#DejaVuSans-6e"/>
      <use transform="translate(919.155273 0.015625)" xlink:href="#DejaVuSans-29"/>
     </g>
    </g>
   </g>
   <g id="matplotlib.axis_2"/>
   <g id="patch_120">
    <path d="M 43.2 244.8 
L 397.44 244.8 
" style="fill:none;stroke:#222222;stroke-linecap:square;stroke-linejoin:miter;"/>
   </g>
   <g id="legend_1">
    <g id="patch_121">
     <path d="M 296.87125 66.15625 
L 390.44 66.15625 
Q 392.44 66.15625 392.44 64.15625 
L 392.44 35.8 
Q 392.44 33.8 390.44 33.8 
L 296.87125 33.8 
Q 294.87125 33.8 294.87125 35.8 
L 294.87125 64.15625 
Q 294.87125 66.15625 296.87125 66.15625 
z
" style="fill:none;opacity:0.8;stroke:#cccccc;stroke-linejoin:miter;"/>
    </g>
    <g id="patch_122">
     <path d="M 298.87125 45.398438 
L 318.87125 45.398438 
L 318.87125 38.398438 
L 298.87125 38.398438 
z
" style="fill:#00bfff;opacity:0.5;"/>
    </g>
    <g id="text_9">
     <!-- Permutation -->
     <defs>
      <path d="M 19.671875 64.796875 
L 19.671875 37.40625 
L 32.078125 37.40625 
Q 38.96875 37.40625 42.71875 40.96875 
Q 46.484375 44.53125 46.484375 51.125 
Q 46.484375 57.671875 42.71875 61.234375 
Q 38.96875 64.796875 32.078125 64.796875 
z
M 9.8125 72.90625 
L 32.078125 72.90625 
Q 44.34375 72.90625 50.609375 67.359375 
Q 56.890625 61.8125 56.890625 51.125 
Q 56.890625 40.328125 50.609375 34.8125 
Q 44.34375 29.296875 32.078125 29.296875 
L 19.671875 29.296875 
L 19.671875 0 
L 9.8125 0 
z
" id="DejaVuSans-50"/>
      <path d="M 8.5 21.578125 
L 8.5 54.6875 
L 17.484375 54.6875 
L 17.484375 21.921875 
Q 17.484375 14.15625 20.5 10.265625 
Q 23.53125 6.390625 29.59375 6.390625 
Q 36.859375 6.390625 41.078125 11.03125 
Q 45.3125 15.671875 45.3125 23.6875 
L 45.3125 54.6875 
L 54.296875 54.6875 
L 54.296875 0 
L 45.3125 0 
L 45.3125 8.40625 
Q 42.046875 3.421875 37.71875 1 
Q 33.40625 -1.421875 27.6875 -1.421875 
Q 18.265625 -1.421875 13.375 4.4375 
Q 8.5 10.296875 8.5 21.578125 
z
M 31.109375 56 
z
" id="DejaVuSans-75"/>
     </defs>
     <g transform="translate(326.87125 45.398438)scale(0.1 -0.1)">
      <use xlink:href="#DejaVuSans-50"/>
      <use x="60.255859" xlink:href="#DejaVuSans-65"/>
      <use x="121.779297" xlink:href="#DejaVuSans-72"/>
      <use x="162.876953" xlink:href="#DejaVuSans-6d"/>
      <use x="260.289062" xlink:href="#DejaVuSans-75"/>
      <use x="323.667969" xlink:href="#DejaVuSans-74"/>
      <use x="362.876953" xlink:href="#DejaVuSans-61"/>
      <use x="424.15625" xlink:href="#DejaVuSans-74"/>
      <use x="463.365234" xlink:href="#DejaVuSans-69"/>
      <use x="491.148438" xlink:href="#DejaVuSans-6f"/>
      <use x="552.330078" xlink:href="#DejaVuSans-6e"/>
     </g>
    </g>
    <g id="patch_123">
     <path d="M 298.87125 60.076562 
L 318.87125 60.076562 
L 318.87125 53.076562 
L 298.87125 53.076562 
z
" style="fill:#fb4c52;opacity:0.5;"/>
    </g>
    <g id="text_10">
     <!-- Bootstrap -->
     <defs>
      <path d="M 19.671875 34.8125 
L 19.671875 8.109375 
L 35.5 8.109375 
Q 43.453125 8.109375 47.28125 11.40625 
Q 51.125 14.703125 51.125 21.484375 
Q 51.125 28.328125 47.28125 31.5625 
Q 43.453125 34.8125 35.5 34.8125 
z
M 19.671875 64.796875 
L 19.671875 42.828125 
L 34.28125 42.828125 
Q 41.5 42.828125 45.03125 45.53125 
Q 48.578125 48.25 48.578125 53.8125 
Q 48.578125 59.328125 45.03125 62.0625 
Q 41.5 64.796875 34.28125 64.796875 
z
M 9.8125 72.90625 
L 35.015625 72.90625 
Q 46.296875 72.90625 52.390625 68.21875 
Q 58.5 63.53125 58.5 54.890625 
Q 58.5 48.1875 55.375 44.234375 
Q 52.25 40.28125 46.1875 39.3125 
Q 53.46875 37.75 57.5 32.78125 
Q 61.53125 27.828125 61.53125 20.40625 
Q 61.53125 10.640625 54.890625 5.3125 
Q 48.25 0 35.984375 0 
L 9.8125 0 
z
" id="DejaVuSans-42"/>
      <path d="M 18.109375 8.203125 
L 18.109375 -20.796875 
L 9.078125 -20.796875 
L 9.078125 54.6875 
L 18.109375 54.6875 
L 18.109375 46.390625 
Q 20.953125 51.265625 25.265625 53.625 
Q 29.59375 56 35.59375 56 
Q 45.5625 56 51.78125 48.09375 
Q 58.015625 40.1875 58.015625 27.296875 
Q 58.015625 14.40625 51.78125 6.484375 
Q 45.5625 -1.421875 35.59375 -1.421875 
Q 29.59375 -1.421875 25.265625 0.953125 
Q 20.953125 3.328125 18.109375 8.203125 
z
M 48.6875 27.296875 
Q 48.6875 37.203125 44.609375 42.84375 
Q 40.53125 48.484375 33.40625 48.484375 
Q 26.265625 48.484375 22.1875 42.84375 
Q 18.109375 37.203125 18.109375 27.296875 
Q 18.109375 17.390625 22.1875 11.75 
Q 26.265625 6.109375 33.40625 6.109375 
Q 40.53125 6.109375 44.609375 11.75 
Q 48.6875 17.390625 48.6875 27.296875 
z
" id="DejaVuSans-70"/>
     </defs>
     <g transform="translate(326.87125 60.076562)scale(0.1 -0.1)">
      <use xlink:href="#DejaVuSans-42"/>
      <use x="68.603516" xlink:href="#DejaVuSans-6f"/>
      <use x="129.785156" xlink:href="#DejaVuSans-6f"/>
      <use x="190.966797" xlink:href="#DejaVuSans-74"/>
      <use x="230.175781" xlink:href="#DejaVuSans-73"/>
      <use x="282.275391" xlink:href="#DejaVuSans-74"/>
      <use x="321.484375" xlink:href="#DejaVuSans-72"/>
      <use x="362.597656" xlink:href="#DejaVuSans-61"/>
      <use x="423.876953" xlink:href="#DejaVuSans-70"/>
     </g>
    </g>
   </g>
  </g>
 </g>
 <defs>
  <clipPath id="p400b061024">
   <rect height="216" width="354.24" x="43.2" y="28.8"/>
  </clipPath>
 </defs>
</svg>
