<?xml version="1.0" encoding="utf-8"?>
<!-- Generator: Adobe Illustrator 16.0.4, SVG Export Plug-In . SVG Version: 6.00 Build 0)  -->
<!DOCTYPE svg PUBLIC "-//W3C//DTD SVG 1.1//EN" "http://www.w3.org/Graphics/SVG/1.1/DTD/svg11.dtd">
<svg version="1.1" id="Layer_1" xmlns="http://www.w3.org/2000/svg" xmlns:xlink="http://www.w3.org/1999/xlink" x="0px" y="0px"
	 width="198px" height="432px" viewBox="0 0 198 432" enable-background="new 0 0 198 432" xml:space="preserve">
<g>
	<path d="M111.6,423.131c0.789-2.988,2.424-5.289,5.777-4.92c2.621,0.287,4.471,1.955,4.562,4.92
		C118.492,423.131,115.047,423.131,111.6,423.131z"/>
	<path d="M86.319,143.919c1.795,2.112,4.229,0.869,6.313,1.034c16.433,1.302,21.74,9.858,14.914,24.97
		c-5.651,12.515-15.123,21.85-26.285,29.542c-2.02,1.392-2.215,1.841,0.095,3.261c7.544,4.635,10.891,14.833,7.218,21.227
		c-0.381,0.662-1.137,1.107-1.718,1.656c0.048-0.723,0.073-1.445,0.146-2.164c0.496-4.883,0.414-9.688-1.959-14.168
		c-1.725-3.257-4.342-5.36-8.077-5.683c-1.718-0.146-3.064-0.246-3.551-2.352c-0.481-2.087,0.748-2.882,2.098-3.856
		c10.495-7.572,19.634-16.494,26.204-27.722c3.393-5.798,7.059-12.513,2.344-18.667c-4.772-6.235-12.472-4.839-19.239-3.436
		c-4.048,0.839-7.852,2.852-11.765,4.336c-0.68,0.258-1.475,0.849-1.993-0.049c-0.45-0.777,0.02-1.491,0.805-1.821
		c4.832-2.028,9.678-4.026,14.52-6.033C86.39,143.994,86.319,143.919,86.319,143.919z"/>
	<path d="M166.384,67.279c2.082,2.893,1.155,5.959,0.247,8.857c-4.604,14.687-15.168,24.801-26.754,33.948
		c-15.91,12.56-33.104,23.202-50.845,32.964c-0.816,0.449-1.804,0.588-2.712,0.871c-0.001,0,0.069,0.075,0.068,0.075
		c8.706-5.442,17.598-10.611,26.081-16.384c16.896-11.498,34.145-22.688,46.137-39.852c4.293-6.145,8.977-12.274,7.843-20.555
		C166.452,67.198,166.384,67.279,166.384,67.279z"/>
	<path d="M60.262,112.648c-6.967-0.44-12.951-5.784-18.433-11.571c-2.265-2.392-0.065-5.384,1.342-7.718
		c5.995-9.954,14.085-18.189,22.252-26.303c20.415-20.284,41.673-39.613,66.409-54.6c10.995-6.662,18.053-4.436,24.634,6.774
		c1.886,3.213,0.455,6.333-0.896,9.238c-4.137,8.893-10.372,16.346-16.965,23.443c-18.92,20.374-38.707,39.818-62.031,55.248
		C70.519,111.166,66.089,112.604,60.262,112.648z M148.555,17.595c-0.285-0.187-0.57-0.374-0.854-0.561
		c-0.108-0.238-0.216-0.475-0.325-0.713c-0.094,0.11-0.188,0.219-0.282,0.329c0.226,0.103,0.452,0.204,0.679,0.309
		c0.297,0.186,0.595,0.371,0.891,0.556c0.146,0.292,0.295,0.583,0.441,0.875c0.354,0.136,0.707,0.272,1.061,0.408
		c0.013,0.078,0.023,0.156,0.036,0.235c-0.093-0.078-0.187-0.155-0.278-0.233c0.08-0.008,0.158-0.017,0.236-0.025
		c-0.379-0.104-0.758-0.208-1.137-0.315C148.871,18.166,148.721,17.873,148.555,17.595z M55.977,104.012
		c-0.014,0.049-0.027,0.096-0.041,0.146c0.06-0.044,0.118-0.087,0.177-0.132C56.064,104.02,56.017,104.014,55.977,104.012z
		 M65.708,107.48c0.143,0.213,0.286,0.427,0.429,0.64c0.079-0.056,0.158-0.111,0.237-0.166c-0.246-0.134-0.492-0.269-0.738-0.401
		c-2.686-2.41-5.325-4.873-8.096-7.182c-0.521-0.436-1.558-0.253-2.356-0.355c0.122,0.346,0.14,0.854,0.383,1.01
		C58.934,103.197,61.516,106.613,65.708,107.48z M121.768,63.706c0.03-0.021,0.062-0.04,0.094-0.06
		c-0.051,0.056-0.102,0.111-0.15,0.168c-0.708-4.771-4.998-6.893-7.633-10.234c-0.153-0.194-1.027-0.08-1.35,0.17
		c-0.723,0.563-0.232,1.062,0.271,1.544C115.93,58.094,118.839,60.913,121.768,63.706z M45.565,100.322
		c3.835-0.641,6.929-2.801,10.067-4.883c20.81-13.809,38.909-30.875,57.218-47.679c10.965-10.065,21.24-20.766,28.594-33.894
		c0.523-0.938,1.69-2,0.795-3.12c-0.201-0.25-1.897,0.52-2.788,1.026c-34.354,19.541-63.104,45.72-88.994,75.264
		c-2.837,3.236-5.224,6.854-6.354,11.123C43.773,99.402,43.516,100.648,45.565,100.322z M110.422,55.965
		c-0.738,0.41-1.152,0.543-1.441,0.813c-5.725,5.361-11.433,10.74-17.149,16.109c-0.782,0.735-0.767,1.273,0.045,2.1
		c2.482,2.527,4.88,5.141,7.237,7.785c1.554,1.742,2.894,2.112,4.789,0.291c4.18-4.019,8.623-7.763,12.777-11.805
		c1.439-1.4,4.401-3.31,3.299-4.914C117.344,62.514,113.684,59.391,110.422,55.965z M137.602,46.338
		c-1.731-3.673-4.522-6.177-7.526-8.083c-1.718-1.09-2.812,1.695-4.06,2.818c-2.953,2.658-5.623,5.632-8.608,8.249
		c-1.946,1.705-2.073,2.823-0.291,4.885c6.985,8.083,6.894,8.148,14.021-0.019c1.412-1.619,2.967-3.114,4.356-4.751
		C136.301,48.485,136.912,47.366,137.602,46.338z M88.739,74.982c-3.535,2.955-6.975,5.832-10.413,8.707
		c1.384,1.648,2.711,3.35,4.169,4.93c1.673,1.811,3.441,3.536,5.215,5.25c0.578,0.559,1.214,1.39,2.181,0.585
		c3.209-2.669,6.405-5.354,9.605-8.034c-1.758-1.916-3.532-3.814-5.267-5.752c-1.217-1.357-2.351-2.792-3.579-4.139
		C90.167,75.999,89.527,75.609,88.739,74.982z M87.125,96.18c-3.738-3.523-7.307-7.178-11.306-10.277
		c-0.481-0.375-3.332,2.188-4.992,3.506c-0.759,0.602,0.02,1.107,0.444,1.542c2.776,2.836,5.556,5.669,8.336,8.501
		c0.814,0.829,1.67,1.392,2.768,0.417C83.852,98.561,86.189,98.342,87.125,96.18z M78.861,101.718
		c-3.589-3.43-7.131-6.841-10.738-10.182c-0.15-0.14-1.054,0.249-1.311,0.604c-0.178,0.246,0.003,1.029,0.285,1.284
		c3.342,3.019,6.725,5.993,10.128,8.942c0.271,0.234,0.782,0.27,1.173,0.244C78.539,102.604,78.65,102.145,78.861,101.718z
		 M74.04,104.434c0.097-1.048-9.427-10.25-10.241-10.088c-0.374,0.074-0.877,0.387-0.984,0.706c-0.13,0.386-0.069,1.095,0.196,1.313
		c3.289,2.711,6.622,5.367,9.969,8.006C73.287,104.613,73.871,105.189,74.04,104.434z M134.369,32.281
		c-0.156,0.572-1.743,0.698-0.764,1.822c2.108,2.417,4.354,4.716,6.59,7.017c0.438,0.451,1.164,0.805,1.382-0.268
		C141.792,39.786,135.598,32.202,134.369,32.281z M70.154,107.303c0.207-0.224,0.413-0.447,0.619-0.673
		c-3.392-2.924-6.787-5.843-10.173-8.774c-0.657-0.568-1.394-0.825-1.905-0.02c-0.158,0.25,0.285,1.141,0.68,1.441
		C62.939,101.99,66.555,104.637,70.154,107.303z M139.299,26.392c-0.086,0.11-0.336,0.298-0.404,0.539
		c-0.233,0.822,5.744,8.194,6.506,7.984c0.338-0.092,0.705-0.52,0.822-0.874C146.536,33.105,140.439,26.224,139.299,26.392z
		 M139.738,43.371c-2.53-2.681-5.018-5.33-7.539-7.943c-0.112-0.116-0.766,0.028-0.792,0.141c-0.084,0.352-0.14,0.884,0.06,1.104
		c2.236,2.458,4.516,4.877,6.812,7.281c0.185,0.193,0.6,0.312,0.853,0.249C139.336,44.151,139.461,43.774,139.738,43.371z
		 M137.191,28.584c-0.428,0.715-0.881,1.245-0.793,1.36c2.106,2.758,4.271,5.473,6.451,8.173c0.02,0.024,0.412-0.254,0.631-0.392
		C141.448,34.771,139.416,31.817,137.191,28.584z M150.65,25.086c-1.924-2.055-3.668-3.918-5.412-5.781
		c-0.154,0.391-0.553,0.999-0.428,1.139c1.623,1.824,3.317,3.584,5.026,5.329C149.854,25.79,150.303,25.382,150.65,25.086z
		 M146.866,28.84c-0.896-2.512-2.12-4.733-5.648-6.606C143.654,25.083,145.26,26.961,146.866,28.84z"/>
	<path d="M51.783,94.139c-0.529-0.328-1.271-0.522-1.496-0.976c-0.612-1.228,0.161-2.272,0.812-3.259
		c6.039-9.154,13.86-16.741,21.715-24.249c17.444-16.672,35.259-32.927,55.875-45.719c1.854-1.15,4.375-3.703,6.252-1.561
		c1.836,2.098-0.936,4.367-2.312,6.059C115.406,45.617,94.8,63.245,73.573,80.195c-5.718,4.565-11.618,8.912-18.105,12.371
		C54.338,93.168,53.106,93.58,51.783,94.139z M52.537,92.615c6.252-2.896,11.718-6.707,17.006-10.762
		c22.492-17.25,43.918-35.649,61.832-57.793c1.096-1.354,1.705-3.101,2.54-4.665c-2.104-0.377-3.64,0.927-5.207,1.911
		c-22.179,13.937-41.417,31.429-59.907,49.799c-5.872,5.834-11.624,11.811-16.244,18.742c-0.459,0.688-0.683,1.538-0.946,2.336
		C51.597,92.225,52.251,92.484,52.537,92.615z"/>
	<path d="M24.067,422.131c6.438-12.65,12.89-25.296,19.284-37.97c0.467-0.925,0.909-2.154,0.691-3.085
		c-1.614-6.907,2.659-7.026,7.308-6.243c2.901,0.489,4.414-0.54,5.435-3.063c3.67-9.082,7.57-18.029,13.632-25.875
		c1.6-2.071,2.014-3.769-1.934-4.045c-14.021-0.979-25.265-6.684-31.541-20.002c-0.661-1.402-1.805-1.641-3.078-1.977
		c-6.071-1.604-11.928-3.727-16.953-7.643c-11.012-8.582-14.478-21.842-9.518-36.062c3.045-8.731,8.381-16.235,12.934-24.149
		c2.216-3.853,3.045-7.395,1.434-11.805c-5.49-15.029-8.371-30.943-15.37-45.473c-0.973-2.02,0.87-3.032,1.951-3.917
		c7.578-6.199,16.163-6.718,24.94-3.403c20.441,7.72,32.485,33.303,25.539,53.995c-0.658,1.963-0.006,2.498,1.415,3.483
		c14.691,10.203,29.718,5.508,44.694,1.041c3.586-1.07,4.748-4.535,5.852-7.68c6.029-17.189,10.764-34.746,13.963-52.672
		c1.441-8.078,5.742-12.618,13.756-14.017c6.604-1.152,13.238-1.722,19.927-1.574c5.563,0.123,9.646,2.985,10.343,8.396
		c2.414,18.709,9.478,35.641,18.467,51.98c2.359,4.292,2.517,9.04,0.848,13.789c-1.205,3.429,2.77,4.658,3.355,7.363
		c0,2.369,0,4.738,0,7.107c-1.109,2.771-2.08,5.612-3.367,8.301c-1.389,2.896-2.471,5.246-0.846,8.863
		c3.613,8.036,6.332,18.243,0.674,24.666c-6.424,7.292-4.936,14.896-6.457,22.505c-1.801,9.009-5.68,12.244-14.758,12.206
		c-3.32-0.015-5.963,1.215-8.42,3.402c-7.824,6.973-16.013,13.372-26.392,16.287c-1.271,0.355-2.408,1.722-3.278,2.869
		c-7.023,9.254-9.879,20.447-14.27,30.928c-0.545,1.301,0.443,2.005,1.095,2.8c6.595,8.085,13.095,16.255,19.896,24.162
		c1.883,2.188,2.851,3.948,1.193,6.506c-1.723,0-3.445,0-5.169,0c2.13-2.553,1.246-3.671-1.677-4.829
		c-27.062-10.716-48.844-27.729-63.132-53.545c-0.296-0.534-0.756-0.977-1.14-1.462c-0.408,0.567-0.928,1.087-1.208,1.714
		c-2.641,5.896-5.378,11.762-9.388,16.864c-1.48,1.885-1.331,3.106-0.066,5.021c8.884,13.454,19.583,25.312,31.374,36.236
		C65.426,422.131,44.747,422.131,24.067,422.131z M118.759,242.598c-1.024,0.471-2.016,1.058-3.083,1.391
		c-9.136,2.855-18.286,5.664-27.427,8.5c-0.572,0.178-1.103,0.484-1.652,0.73c0.517,0.319,0.994,0.756,1.556,0.94
		c4.598,1.513,9.294,2.771,13.783,4.555c1.951,0.774,3.485,2.603,5.211,3.95c-1.977-0.166-3.961-0.264-5.926-0.521
		c-1.488-0.194-2.956-0.576-4.426-0.906c-12.28-2.76-23.907-7.99-36.479-9.637c-0.794-0.104-1.617,0.01-2.428,0.021
		c0.371,0.738,0.649,1.544,1.127,2.208c2.322,3.231,4.9,6.317,5.961,10.265c0.252,0.938,0.162,1.967,0.229,2.953
		c-0.618-0.686-1.389-1.281-1.833-2.064c-3.941-6.955-9.278-12.869-14.143-19.139c-0.48-0.619-1.175-1.882-0.981-2.08
		c0.9-0.929,1.789-0.037,2.484,0.536c1.352,1.114,1.892,0.736,2.445-0.812c5.465-15.303-0.34-37.502-12.644-48.132
		c-9.081-7.844-21.285-9.274-29.906-3.641c-2.185,1.428-2.677,2.573-1.287,5.112c9.644,17.61,13.841,37.252,20.523,55.971
		c0.482,1.351,0.373,3.029-1.152,3.662c-1.479,0.614-2.156-0.918-3.047-1.812c-0.447-0.449-0.521-3.076-1.859-0.686
		c-4.3,7.68-9.79,14.723-12.458,23.28c-5.698,18.278,2.498,31.041,21.434,33.194c9.941,1.129,19.767-0.508,29.619-1.463
		c0.713-0.068,1.608-1.015,2.141,0.125c0.054,0.113-1.213,0.995-1.957,1.309c-5.61,2.357-11.596,3.238-17.533,4.221
		c-2.456,0.405-2.422,1.201-1.35,3.072c4.871,8.499,11.767,14.423,21.222,17.304c7.359,2.243,14.966,3.015,22.532,4.058
		c0.747,0.104,1.452,0.514,2.176,0.78c-0.736,0.347-1.449,0.919-2.213,0.997c-3.313,0.335-6.64,0.555-9.965,0.755
		c-1.235,0.075-2.267,0.089-2.591,1.714c-0.854,4.285-2.952,8.09-5.141,11.791c-1.429,2.414-1.341,4.336,0.028,6.814
		c8.216,14.874,20.033,26.275,33.86,35.814c1.095,0.756,1.898,1.344,2.576-0.485c3.104-8.372,6.723-16.581,9.338-25.099
		c3.297-10.729,1.67-14.101-7.823-20.223c-0.896-0.578-2.187-1.299-1.716-2.406c0.537-1.262,1.976-0.49,2.854-0.179
		c12.914,4.574,24.113,0.83,34.456-7.032c0.786-0.599,2.879-0.971,1.118-2.785c-4.472-4.612-8.256-9.849-14.085-13.143
		c-6.727-3.801-9.441-12.074-7.21-19.637c0.278-0.947,0.428-2.526-0.103-3.022c-3.265-3.048-3.742-7.551-6.168-11.082
		c-7.287-10.612-6.263-23.444,2.473-32.954c2.812-3.061,6.303-5.507,9.562-8.136c1.069-0.862,1.956-1.354,1.104-3.048
		c-2.198-4.371-2.271-9.141-2.023-13.904c0.521-10.064,3.215-20.033,1.307-30.217c-0.166-0.882,0.233-1.908,0.525-2.818
		c0.137-0.426,0.641-0.735,0.977-1.097c0.207,0.417,0.53,0.814,0.6,1.253c0.291,1.858-0.958,3.767,0.165,5.61
		c1.062-1.772,2.118-3.546,3.183-5.315c0.332-0.554,0.592-1.188,1.038-1.629c1.003-0.99,1.777-3.343,3.183-2.512
		c1.633,0.965,0.25,2.953-0.424,4.322c-4.772,9.704-6.048,19.927-4.422,30.515c1.344,8.742,5.122,16.008,14.342,18.44
		c9.498,2.506,19.065,1.947,28.17-1.912c7.199-3.053,10.004-9.483,7.715-17.012c-0.838-2.763-1.989-5.479-3.361-8.02
		c-6.549-12.117-11.061-24.95-14.117-38.357c-3.312-14.531-0.376-15.215-18.667-13.895c-14.265,1.03-16.562,2.846-19.995,16.495
		c-4.035,16.051-6.255,32.578-12.748,47.992C114.264,239.208,108.003,245.523,118.759,242.598z M115.814,277.439
		c-0.28,5.918,2.485,10.818,5.302,15.675c1.134,1.958,2.97,4.735,5.063,3.312c2.033-1.384,0.519-4.958-0.979-6.195
		c-4.521-3.735-1.597-5.724,1.323-7.713c2.289-1.562,4.705-3.136,7.3-3.998c4.437-1.478,10.62-2.315,12.079,2.441
		c2.297,7.496,6.332,4.312,10.398,3.612c1.062-0.185,2.135-0.3,3.196-0.468c7.05-1.121,15.153-0.824,17.746-9.564
		c2.09-7.046,8.019-12.367,8.473-20.045c0.183-3.076-0.327-4.08-3.603-2.301c-2.979,1.617-6.359,2.754-9.699,3.4
		c-10.66,2.067-21.342,3.59-31.023-3.521c-1.396-1.026-3.129-0.586-4.707-0.237C125.961,254.204,115.964,266.48,115.814,277.439z
		 M124.191,301.596c2.24,0.881,4.42,1.983,6.729,2.609c14.655,3.975,29.346,3.468,44.076,0.275c4.977-1.078,7.627-4,8.441-8.903
		c0.594-3.562,0.354-7.068-0.303-10.587c-0.48-2.588-0.531-5.325-4.125-1.963c-2.226,2.084-5.476,2.373-8.457,2.846
		c-13.184,2.091-25.863,5.574-37.111,13.145C130.768,300.816,127.833,301.688,124.191,301.596z M174.619,313.654
		c-0.969-1.081,1.617-4.896-1.99-4.027c-14.956,3.594-29.465,1.596-43.922-2.464c-0.809-0.226-1.732-1.101-2.273,0.543
		c-1.906,5.788,3.308,16.209,9.443,17.974c6.085,1.75,12.312,3.016,18.493,4.416C168.305,333.255,174.529,328.261,174.619,313.654z
		 M138.994,279.807c-3.115-0.018-7.366,1.766-10.822,4.537c-2.256,1.811-1.479,9.604,1.126,10.823
		c0.354,0.166,0.986-0.128,1.438-0.326c3.539-1.554,7.014-3.267,10.609-4.67c3.09-1.207,3.529-3.349,2.913-6.202
		C143.637,281.084,141.87,279.775,138.994,279.807z M128.951,414.036c-3.354-4.303-5.619-7.3-8.001-10.201
		c-0.613-0.746-1.595-1.19-2.405-1.774c-0.559,1.151-1.123,2.301-1.672,3.456c-0.557,1.174,0.129,1.823,1.038,2.337
		C121.073,409.635,124.244,411.401,128.951,414.036z"/>
	<path d="M166.242,228.891c-6.465,1.082-12.752,2.854-18.973,4.824c-2.16,0.684-2.695-0.285-3.01-1.98
		c-0.894-4.825,0.672-8.678,4.637-11.545c10.278-7.432,25.678-2.491,29.758,9.571c0.248,0.73,0.078,1.604,0.104,2.408
		c-1.699-0.759-3.654-1.217-5.016-2.374c-1.026-0.872,0.764-0.126,0.836-0.654c0.051-0.365,0.186-0.762,0.097-1.097
		c-1.319-5.093-8.323-9.562-14.579-9.328c-6.84,0.255-12.445,4.56-13.56,10.335c-0.462,2.396-0.271,3.383,2.624,2.278
		C154.613,229.249,160.354,228.496,166.242,228.891z"/>
	<path d="M110.361,311.913c-5.754-1.222-9.043-6.367-14.007-8.845c5.695,1.354,9.562,5.605,14.035,8.896L110.361,311.913z"/>
</g>
</svg>
