<?xml version="1.0" encoding="utf-8" standalone="no"?>
<!DOCTYPE svg PUBLIC "-//W3C//DTD SVG 1.1//EN"
  "http://www.w3.org/Graphics/SVG/1.1/DTD/svg11.dtd">
<!-- Created with matplotlib (http://matplotlib.org/) -->
<svg height="396pt" version="1.1" viewBox="0 0 468 396" width="468pt" xmlns="http://www.w3.org/2000/svg" xmlns:xlink="http://www.w3.org/1999/xlink">
 <defs>
  <style type="text/css">
*{stroke-linecap:butt;stroke-linejoin:round;}
  </style>
 </defs>
 <g id="figure_1">
  <g id="patch_1">
   <path d="M 0 396 
L 468 396 
L 468 0 
L 0 0 
z
" style="fill:none;"/>
  </g>
  <g id="axes_1">
   <g id="patch_2">
    <path d="M 66.125 336 
L 359.6 336 
L 359.6 108.4 
L 66.125 108.4 
z
" style="fill:none;"/>
   </g>
   <g id="PathCollection_1">
    <defs>
     <path d="M 0 2.738613 
C 0.726289 2.738613 1.422928 2.450055 1.936492 1.936492 
C 2.450055 1.422928 2.738613 0.726289 2.738613 0 
C 2.738613 -0.726289 2.450055 -1.422928 1.936492 -1.936492 
C 1.422928 -2.450055 0.726289 -2.738613 0 -2.738613 
C -0.726289 -2.738613 -1.422928 -2.450055 -1.936492 -1.936492 
C -2.450055 -1.422928 -2.738613 -0.726289 -2.738613 0 
C -2.738613 0.726289 -2.450055 1.422928 -1.936492 1.936492 
C -1.422928 2.450055 -0.726289 2.738613 0 2.738613 
z
" id="C0_0_cc351ccca0"/>
    </defs>
    <g clip-path="url(#pd70d5d06ba)">
     <use style="fill:none;stroke:#000000;stroke-opacity:0.5;" x="178.50641" xlink:href="#C0_0_cc351ccca0" y="259.814614"/>
    </g>
    <g clip-path="url(#pd70d5d06ba)">
     <use style="fill:none;stroke:#000000;stroke-opacity:0.5;" x="200.736821" xlink:href="#C0_0_cc351ccca0" y="237.872756"/>
    </g>
    <g clip-path="url(#pd70d5d06ba)">
     <use style="fill:none;stroke:#000000;stroke-opacity:0.5;" x="146.171266" xlink:href="#C0_0_cc351ccca0" y="291.160126"/>
    </g>
    <g clip-path="url(#pd70d5d06ba)">
     <use style="fill:none;stroke:#000000;stroke-opacity:0.5;" x="243.176697" xlink:href="#C0_0_cc351ccca0" y="209.661795"/>
    </g>
    <g clip-path="url(#pd70d5d06ba)">
     <use style="fill:none;stroke:#000000;stroke-opacity:0.5;" x="156.275998" xlink:href="#C0_0_cc351ccca0" y="248.843685"/>
    </g>
    <g clip-path="url(#pd70d5d06ba)">
     <use style="fill:none;stroke:#000000;stroke-opacity:0.5;" x="311.888878" xlink:href="#C0_0_cc351ccca0" y="140.701669"/>
    </g>
    <g clip-path="url(#pd70d5d06ba)">
     <use style="fill:none;stroke:#000000;stroke-opacity:0.5;" x="317.951717" xlink:href="#C0_0_cc351ccca0" y="161.076252"/>
    </g>
    <g clip-path="url(#pd70d5d06ba)">
     <use style="fill:none;stroke:#000000;stroke-opacity:0.5;" x="229.030072" xlink:href="#C0_0_cc351ccca0" y="225.334551"/>
    </g>
    <g clip-path="url(#pd70d5d06ba)">
     <use style="fill:none;stroke:#000000;stroke-opacity:0.5;" x="313.909824" xlink:href="#C0_0_cc351ccca0" y="123.461637"/>
    </g>
    <g clip-path="url(#pd70d5d06ba)">
     <use style="fill:none;stroke:#000000;stroke-opacity:0.5;" x="109.794229" xlink:href="#C0_0_cc351ccca0" y="322.505638"/>
    </g>
    <g clip-path="url(#pd70d5d06ba)">
     <use style="fill:none;stroke:#000000;stroke-opacity:0.5;" x="233.071965" xlink:href="#C0_0_cc351ccca0" y="176.749008"/>
    </g>
    <g clip-path="url(#pd70d5d06ba)">
     <use style="fill:none;stroke:#000000;stroke-opacity:0.5;" x="301.784145" xlink:href="#C0_0_cc351ccca0" y="146.970771"/>
    </g>
    <g clip-path="url(#pd70d5d06ba)">
     <use style="fill:none;stroke:#000000;stroke-opacity:0.5;" x="93.626658" xlink:href="#C0_0_cc351ccca0" y="305.265607"/>
    </g>
    <g clip-path="url(#pd70d5d06ba)">
     <use style="fill:none;stroke:#000000;stroke-opacity:0.5;" x="144.15032" xlink:href="#C0_0_cc351ccca0" y="266.083717"/>
    </g>
    <g clip-path="url(#pd70d5d06ba)">
     <use style="fill:none;stroke:#000000;stroke-opacity:0.5;" x="176.485463" xlink:href="#C0_0_cc351ccca0" y="215.930898"/>
    </g>
    <g clip-path="url(#pd70d5d06ba)">
     <use style="fill:none;stroke:#000000;stroke-opacity:0.5;" x="218.925339" xlink:href="#C0_0_cc351ccca0" y="239.440032"/>
    </g>
    <g clip-path="url(#pd70d5d06ba)">
     <use style="fill:none;stroke:#000000;stroke-opacity:0.5;" x="216.904393" xlink:href="#C0_0_cc351ccca0" y="228.469102"/>
    </g>
    <g clip-path="url(#pd70d5d06ba)">
     <use style="fill:none;stroke:#000000;stroke-opacity:0.5;" x="342.203075" xlink:href="#C0_0_cc351ccca0" y="129.73074"/>
    </g>
    <g clip-path="url(#pd70d5d06ba)">
     <use style="fill:none;stroke:#000000;stroke-opacity:0.5;" x="222.967232" xlink:href="#C0_0_cc351ccca0" y="192.421764"/>
    </g>
    <g clip-path="url(#pd70d5d06ba)">
     <use style="fill:none;stroke:#000000;stroke-opacity:0.5;" x="113.836122" xlink:href="#C0_0_cc351ccca0" y="308.400158"/>
    </g>
    <g clip-path="url(#pd70d5d06ba)">
     <use style="fill:none;stroke:#000000;stroke-opacity:0.5;" x="107.773283" xlink:href="#C0_0_cc351ccca0" y="316.236536"/>
    </g>
    <g clip-path="url(#pd70d5d06ba)">
     <use style="fill:none;stroke:#000000;stroke-opacity:0.5;" x="307.846985" xlink:href="#C0_0_cc351ccca0" y="128.163464"/>
    </g>
    <g clip-path="url(#pd70d5d06ba)">
     <use style="fill:none;stroke:#000000;stroke-opacity:0.5;" x="251.260483" xlink:href="#C0_0_cc351ccca0" y="197.12359"/>
    </g>
    <g clip-path="url(#pd70d5d06ba)">
     <use style="fill:none;stroke:#000000;stroke-opacity:0.5;" x="192.653035" xlink:href="#C0_0_cc351ccca0" y="198.690866"/>
    </g>
    <g clip-path="url(#pd70d5d06ba)">
     <use style="fill:none;stroke:#000000;stroke-opacity:0.5;" x="194.673982" xlink:href="#C0_0_cc351ccca0" y="272.352819"/>
    </g>
    <g clip-path="url(#pd70d5d06ba)">
     <use style="fill:none;stroke:#000000;stroke-opacity:0.5;" x="140.108427" xlink:href="#C0_0_cc351ccca0" y="289.592851"/>
    </g>
    <g clip-path="url(#pd70d5d06ba)">
     <use style="fill:none;stroke:#000000;stroke-opacity:0.5;" x="204.778714" xlink:href="#C0_0_cc351ccca0" y="245.709134"/>
    </g>
    <g clip-path="url(#pd70d5d06ba)">
     <use style="fill:none;stroke:#000000;stroke-opacity:0.5;" x="111.815176" xlink:href="#C0_0_cc351ccca0" y="281.756473"/>
    </g>
    <g clip-path="url(#pd70d5d06ba)">
     <use style="fill:none;stroke:#000000;stroke-opacity:0.5;" x="245.197644" xlink:href="#C0_0_cc351ccca0" y="208.09452"/>
    </g>
    <g clip-path="url(#pd70d5d06ba)">
     <use style="fill:none;stroke:#000000;stroke-opacity:0.5;" x="277.532787" xlink:href="#C0_0_cc351ccca0" y="217.498173"/>
    </g>
    <g clip-path="url(#pd70d5d06ba)">
     <use style="fill:none;stroke:#000000;stroke-opacity:0.5;" x="275.511841" xlink:href="#C0_0_cc351ccca0" y="157.9417"/>
    </g>
    <g clip-path="url(#pd70d5d06ba)">
     <use style="fill:none;stroke:#000000;stroke-opacity:0.5;" x="79.480032" xlink:href="#C0_0_cc351ccca0" y="311.534709"/>
    </g>
    <g clip-path="url(#pd70d5d06ba)">
     <use style="fill:none;stroke:#000000;stroke-opacity:0.5;" x="319.972664" xlink:href="#C0_0_cc351ccca0" y="170.479905"/>
    </g>
    <g clip-path="url(#pd70d5d06ba)">
     <use style="fill:none;stroke:#000000;stroke-opacity:0.5;" x="190.632089" xlink:href="#C0_0_cc351ccca0" y="270.785544"/>
    </g>
    <g clip-path="url(#pd70d5d06ba)">
     <use style="fill:none;stroke:#000000;stroke-opacity:0.5;" x="182.548303" xlink:href="#C0_0_cc351ccca0" y="256.680063"/>
    </g>
    <g clip-path="url(#pd70d5d06ba)">
     <use style="fill:none;stroke:#000000;stroke-opacity:0.5;" x="172.44357" xlink:href="#C0_0_cc351ccca0" y="258.247339"/>
    </g>
    <g clip-path="url(#pd70d5d06ba)">
     <use style="fill:none;stroke:#000000;stroke-opacity:0.5;" x="154.255052" xlink:href="#C0_0_cc351ccca0" y="278.621922"/>
    </g>
    <g clip-path="url(#pd70d5d06ba)">
     <use style="fill:none;stroke:#000000;stroke-opacity:0.5;" x="269.449002" xlink:href="#C0_0_cc351ccca0" y="153.239874"/>
    </g>
    <g clip-path="url(#pd70d5d06ba)">
     <use style="fill:none;stroke:#000000;stroke-opacity:0.5;" x="87.563818" xlink:href="#C0_0_cc351ccca0" y="292.727402"/>
    </g>
    <g clip-path="url(#pd70d5d06ba)">
     <use style="fill:none;stroke:#000000;stroke-opacity:0.5;" x="299.763199" xlink:href="#C0_0_cc351ccca0" y="139.134393"/>
    </g>
    <g clip-path="url(#pd70d5d06ba)">
     <use style="fill:none;stroke:#000000;stroke-opacity:0.5;" x="297.742252" xlink:href="#C0_0_cc351ccca0" y="162.643527"/>
    </g>
    <g clip-path="url(#pd70d5d06ba)">
     <use style="fill:none;stroke:#000000;stroke-opacity:0.5;" x="227.009125" xlink:href="#C0_0_cc351ccca0" y="175.181732"/>
    </g>
    <g clip-path="url(#pd70d5d06ba)">
     <use style="fill:none;stroke:#000000;stroke-opacity:0.5;" x="162.338838" xlink:href="#C0_0_cc351ccca0" y="244.141858"/>
    </g>
    <g clip-path="url(#pd70d5d06ba)">
     <use style="fill:none;stroke:#000000;stroke-opacity:0.5;" x="309.867931" xlink:href="#C0_0_cc351ccca0" y="159.508976"/>
    </g>
    <g clip-path="url(#pd70d5d06ba)">
     <use style="fill:none;stroke:#000000;stroke-opacity:0.5;" x="119.898962" xlink:href="#C0_0_cc351ccca0" y="314.66926"/>
    </g>
    <g clip-path="url(#pd70d5d06ba)">
     <use style="fill:none;stroke:#000000;stroke-opacity:0.5;" x="261.365216" xlink:href="#C0_0_cc351ccca0" y="201.825417"/>
    </g>
    <g clip-path="url(#pd70d5d06ba)">
     <use style="fill:none;stroke:#000000;stroke-opacity:0.5;" x="152.234106" xlink:href="#C0_0_cc351ccca0" y="262.949166"/>
    </g>
    <g clip-path="url(#pd70d5d06ba)">
     <use style="fill:none;stroke:#000000;stroke-opacity:0.5;" x="89.584765" xlink:href="#C0_0_cc351ccca0" y="309.967433"/>
    </g>
    <g clip-path="url(#pd70d5d06ba)">
     <use style="fill:none;stroke:#000000;stroke-opacity:0.5;" x="123.940855" xlink:href="#C0_0_cc351ccca0" y="284.891024"/>
    </g>
    <g clip-path="url(#pd70d5d06ba)">
     <use style="fill:none;stroke:#000000;stroke-opacity:0.5;" x="330.077396" xlink:href="#C0_0_cc351ccca0" y="211.229071"/>
    </g>
    <g clip-path="url(#pd70d5d06ba)">
     <use style="fill:none;stroke:#000000;stroke-opacity:0.5;" x="255.302376" xlink:href="#C0_0_cc351ccca0" y="193.989039"/>
    </g>
    <g clip-path="url(#pd70d5d06ba)">
     <use style="fill:none;stroke:#000000;stroke-opacity:0.5;" x="303.805092" xlink:href="#C0_0_cc351ccca0" y="118.759811"/>
    </g>
    <g clip-path="url(#pd70d5d06ba)">
     <use style="fill:none;stroke:#000000;stroke-opacity:0.5;" x="136.066534" xlink:href="#C0_0_cc351ccca0" y="283.323748"/>
    </g>
    <g clip-path="url(#pd70d5d06ba)">
     <use style="fill:none;stroke:#000000;stroke-opacity:0.5;" x="170.422624" xlink:href="#C0_0_cc351ccca0" y="253.545512"/>
    </g>
    <g clip-path="url(#pd70d5d06ba)">
     <use style="fill:none;stroke:#000000;stroke-opacity:0.5;" x="220.946286" xlink:href="#C0_0_cc351ccca0" y="179.883559"/>
    </g>
    <g clip-path="url(#pd70d5d06ba)">
     <use style="fill:none;stroke:#000000;stroke-opacity:0.5;" x="212.8625" xlink:href="#C0_0_cc351ccca0" y="226.901827"/>
    </g>
    <g clip-path="url(#pd70d5d06ba)">
     <use style="fill:none;stroke:#000000;stroke-opacity:0.5;" x="324.014557" xlink:href="#C0_0_cc351ccca0" y="181.450834"/>
    </g>
    <g clip-path="url(#pd70d5d06ba)">
     <use style="fill:none;stroke:#000000;stroke-opacity:0.5;" x="283.595627" xlink:href="#C0_0_cc351ccca0" y="178.316283"/>
    </g>
    <g clip-path="url(#pd70d5d06ba)">
     <use style="fill:none;stroke:#000000;stroke-opacity:0.5;" x="291.679413" xlink:href="#C0_0_cc351ccca0" y="184.585386"/>
    </g>
    <g clip-path="url(#pd70d5d06ba)">
     <use style="fill:none;stroke:#000000;stroke-opacity:0.5;" x="158.296945" xlink:href="#C0_0_cc351ccca0" y="247.27641"/>
    </g>
    <g clip-path="url(#pd70d5d06ba)">
     <use style="fill:none;stroke:#000000;stroke-opacity:0.5;" x="295.721306" xlink:href="#C0_0_cc351ccca0" y="164.210803"/>
    </g>
    <g clip-path="url(#pd70d5d06ba)">
     <use style="fill:none;stroke:#000000;stroke-opacity:0.5;" x="166.380731" xlink:href="#C0_0_cc351ccca0" y="251.978236"/>
    </g>
    <g clip-path="url(#pd70d5d06ba)">
     <use style="fill:none;stroke:#000000;stroke-opacity:0.5;" x="253.28143" xlink:href="#C0_0_cc351ccca0" y="151.672598"/>
    </g>
    <g clip-path="url(#pd70d5d06ba)">
     <use style="fill:none;stroke:#000000;stroke-opacity:0.5;" x="105.752336" xlink:href="#C0_0_cc351ccca0" y="297.429229"/>
    </g>
    <g clip-path="url(#pd70d5d06ba)">
     <use style="fill:none;stroke:#000000;stroke-opacity:0.5;" x="338.161182" xlink:href="#C0_0_cc351ccca0" y="125.028913"/>
    </g>
    <g clip-path="url(#pd70d5d06ba)">
     <use style="fill:none;stroke:#000000;stroke-opacity:0.5;" x="115.857069" xlink:href="#C0_0_cc351ccca0" y="273.920095"/>
    </g>
    <g clip-path="url(#pd70d5d06ba)">
     <use style="fill:none;stroke:#000000;stroke-opacity:0.5;" x="247.21859" xlink:href="#C0_0_cc351ccca0" y="200.258142"/>
    </g>
    <g clip-path="url(#pd70d5d06ba)">
     <use style="fill:none;stroke:#000000;stroke-opacity:0.5;" x="206.799661" xlink:href="#C0_0_cc351ccca0" y="233.170929"/>
    </g>
    <g clip-path="url(#pd70d5d06ba)">
     <use style="fill:none;stroke:#000000;stroke-opacity:0.5;" x="265.407109" xlink:href="#C0_0_cc351ccca0" y="190.854488"/>
    </g>
    <g clip-path="url(#pd70d5d06ba)">
     <use style="fill:none;stroke:#000000;stroke-opacity:0.5;" x="344.224021" xlink:href="#C0_0_cc351ccca0" y="131.298015"/>
    </g>
    <g clip-path="url(#pd70d5d06ba)">
     <use style="fill:none;stroke:#000000;stroke-opacity:0.5;" x="188.611142" xlink:href="#C0_0_cc351ccca0" y="234.738205"/>
    </g>
    <g clip-path="url(#pd70d5d06ba)">
     <use style="fill:none;stroke:#000000;stroke-opacity:0.5;" x="257.323323" xlink:href="#C0_0_cc351ccca0" y="173.614456"/>
    </g>
    <g clip-path="url(#pd70d5d06ba)">
     <use style="fill:none;stroke:#000000;stroke-opacity:0.5;" x="279.553734" xlink:href="#C0_0_cc351ccca0" y="214.363622"/>
    </g>
    <g clip-path="url(#pd70d5d06ba)">
     <use style="fill:none;stroke:#000000;stroke-opacity:0.5;" x="231.051018" xlink:href="#C0_0_cc351ccca0" y="241.007307"/>
    </g>
    <g clip-path="url(#pd70d5d06ba)">
     <use style="fill:none;stroke:#000000;stroke-opacity:0.5;" x="224.988179" xlink:href="#C0_0_cc351ccca0" y="222.2"/>
    </g>
    <g clip-path="url(#pd70d5d06ba)">
     <use style="fill:none;stroke:#000000;stroke-opacity:0.5;" x="130.003694" xlink:href="#C0_0_cc351ccca0" y="255.112788"/>
    </g>
    <g clip-path="url(#pd70d5d06ba)">
     <use style="fill:none;stroke:#000000;stroke-opacity:0.5;" x="184.569249" xlink:href="#C0_0_cc351ccca0" y="212.796346"/>
    </g>
    <g clip-path="url(#pd70d5d06ba)">
     <use style="fill:none;stroke:#000000;stroke-opacity:0.5;" x="208.820607" xlink:href="#C0_0_cc351ccca0" y="220.632724"/>
    </g>
    <g clip-path="url(#pd70d5d06ba)">
     <use style="fill:none;stroke:#000000;stroke-opacity:0.5;" x="150.213159" xlink:href="#C0_0_cc351ccca0" y="288.025575"/>
    </g>
    <g clip-path="url(#pd70d5d06ba)">
     <use style="fill:none;stroke:#000000;stroke-opacity:0.5;" x="83.521925" xlink:href="#C0_0_cc351ccca0" y="303.698331"/>
    </g>
    <g clip-path="url(#pd70d5d06ba)">
     <use style="fill:none;stroke:#000000;stroke-opacity:0.5;" x="125.961801" xlink:href="#C0_0_cc351ccca0" y="317.803811"/>
    </g>
    <g clip-path="url(#pd70d5d06ba)">
     <use style="fill:none;stroke:#000000;stroke-opacity:0.5;" x="168.401677" xlink:href="#C0_0_cc351ccca0" y="267.650992"/>
    </g>
    <g clip-path="url(#pd70d5d06ba)">
     <use style="fill:none;stroke:#000000;stroke-opacity:0.5;" x="97.66855" xlink:href="#C0_0_cc351ccca0" y="306.832882"/>
    </g>
    <g clip-path="url(#pd70d5d06ba)">
     <use style="fill:none;stroke:#000000;stroke-opacity:0.5;" x="321.99361" xlink:href="#C0_0_cc351ccca0" y="154.807149"/>
    </g>
    <g clip-path="url(#pd70d5d06ba)">
     <use style="fill:none;stroke:#000000;stroke-opacity:0.5;" x="289.658466" xlink:href="#C0_0_cc351ccca0" y="156.374425"/>
    </g>
    <g clip-path="url(#pd70d5d06ba)">
     <use style="fill:none;stroke:#000000;stroke-opacity:0.5;" x="132.024641" xlink:href="#C0_0_cc351ccca0" y="286.4583"/>
    </g>
    <g clip-path="url(#pd70d5d06ba)">
     <use style="fill:none;stroke:#000000;stroke-opacity:0.5;" x="81.500979" xlink:href="#C0_0_cc351ccca0" y="324.072914"/>
    </g>
    <g clip-path="url(#pd70d5d06ba)">
     <use style="fill:none;stroke:#000000;stroke-opacity:0.5;" x="142.129373" xlink:href="#C0_0_cc351ccca0" y="261.38189"/>
    </g>
    <g clip-path="url(#pd70d5d06ba)">
     <use style="fill:none;stroke:#000000;stroke-opacity:0.5;" x="336.140235" xlink:href="#C0_0_cc351ccca0" y="137.567118"/>
    </g>
    <g clip-path="url(#pd70d5d06ba)">
     <use style="fill:none;stroke:#000000;stroke-opacity:0.5;" x="305.826038" xlink:href="#C0_0_cc351ccca0" y="134.432567"/>
    </g>
    <g clip-path="url(#pd70d5d06ba)">
     <use style="fill:none;stroke:#000000;stroke-opacity:0.5;" x="127.982748" xlink:href="#C0_0_cc351ccca0" y="294.294677"/>
    </g>
    <g clip-path="url(#pd70d5d06ba)">
     <use style="fill:none;stroke:#000000;stroke-opacity:0.5;" x="239.134804" xlink:href="#C0_0_cc351ccca0" y="242.574583"/>
    </g>
    <g clip-path="url(#pd70d5d06ba)">
     <use style="fill:none;stroke:#000000;stroke-opacity:0.5;" x="160.317891" xlink:href="#C0_0_cc351ccca0" y="264.516441"/>
    </g>
    <g clip-path="url(#pd70d5d06ba)">
     <use style="fill:none;stroke:#000000;stroke-opacity:0.5;" x="186.590196" xlink:href="#C0_0_cc351ccca0" y="277.054646"/>
    </g>
    <g clip-path="url(#pd70d5d06ba)">
     <use style="fill:none;stroke:#000000;stroke-opacity:0.5;" x="148.192213" xlink:href="#C0_0_cc351ccca0" y="302.131055"/>
    </g>
    <g clip-path="url(#pd70d5d06ba)">
     <use style="fill:none;stroke:#000000;stroke-opacity:0.5;" x="259.344269" xlink:href="#C0_0_cc351ccca0" y="186.152661"/>
    </g>
    <g clip-path="url(#pd70d5d06ba)">
     <use style="fill:none;stroke:#000000;stroke-opacity:0.5;" x="267.428055" xlink:href="#C0_0_cc351ccca0" y="204.959968"/>
    </g>
    <g clip-path="url(#pd70d5d06ba)">
     <use style="fill:none;stroke:#000000;stroke-opacity:0.5;" x="346.244968" xlink:href="#C0_0_cc351ccca0" y="120.327086"/>
    </g>
    <g clip-path="url(#pd70d5d06ba)">
     <use style="fill:none;stroke:#000000;stroke-opacity:0.5;" x="237.113858" xlink:href="#C0_0_cc351ccca0" y="219.065449"/>
    </g>
    <g clip-path="url(#pd70d5d06ba)">
     <use style="fill:none;stroke:#000000;stroke-opacity:0.5;" x="263.386162" xlink:href="#C0_0_cc351ccca0" y="145.403496"/>
    </g>
    <g clip-path="url(#pd70d5d06ba)">
     <use style="fill:none;stroke:#000000;stroke-opacity:0.5;" x="326.035503" xlink:href="#C0_0_cc351ccca0" y="135.999842"/>
    </g>
    <g clip-path="url(#pd70d5d06ba)">
     <use style="fill:none;stroke:#000000;stroke-opacity:0.5;" x="99.689497" xlink:href="#C0_0_cc351ccca0" y="320.938363"/>
    </g>
    <g clip-path="url(#pd70d5d06ba)">
     <use style="fill:none;stroke:#000000;stroke-opacity:0.5;" x="202.757768" xlink:href="#C0_0_cc351ccca0" y="203.392693"/>
    </g>
    <g clip-path="url(#pd70d5d06ba)">
     <use style="fill:none;stroke:#000000;stroke-opacity:0.5;" x="340.182128" xlink:href="#C0_0_cc351ccca0" y="150.105323"/>
    </g>
    <g clip-path="url(#pd70d5d06ba)">
     <use style="fill:none;stroke:#000000;stroke-opacity:0.5;" x="271.469948" xlink:href="#C0_0_cc351ccca0" y="168.91263"/>
    </g>
    <g clip-path="url(#pd70d5d06ba)">
     <use style="fill:none;stroke:#000000;stroke-opacity:0.5;" x="273.490894" xlink:href="#C0_0_cc351ccca0" y="165.778078"/>
    </g>
    <g clip-path="url(#pd70d5d06ba)">
     <use style="fill:none;stroke:#000000;stroke-opacity:0.5;" x="196.694928" xlink:href="#C0_0_cc351ccca0" y="183.01811"/>
    </g>
    <g clip-path="url(#pd70d5d06ba)">
     <use style="fill:none;stroke:#000000;stroke-opacity:0.5;" x="287.63752" xlink:href="#C0_0_cc351ccca0" y="142.268945"/>
    </g>
    <g clip-path="url(#pd70d5d06ba)">
     <use style="fill:none;stroke:#000000;stroke-opacity:0.5;" x="95.647604" xlink:href="#C0_0_cc351ccca0" y="325.640189"/>
    </g>
    <g clip-path="url(#pd70d5d06ba)">
     <use style="fill:none;stroke:#000000;stroke-opacity:0.5;" x="281.57468" xlink:href="#C0_0_cc351ccca0" y="189.287212"/>
    </g>
    <g clip-path="url(#pd70d5d06ba)">
     <use style="fill:none;stroke:#000000;stroke-opacity:0.5;" x="174.464517" xlink:href="#C0_0_cc351ccca0" y="295.861953"/>
    </g>
    <g clip-path="url(#pd70d5d06ba)">
     <use style="fill:none;stroke:#000000;stroke-opacity:0.5;" x="121.919908" xlink:href="#C0_0_cc351ccca0" y="313.101985"/>
    </g>
    <g clip-path="url(#pd70d5d06ba)">
     <use style="fill:none;stroke:#000000;stroke-opacity:0.5;" x="214.883446" xlink:href="#C0_0_cc351ccca0" y="236.30548"/>
    </g>
    <g clip-path="url(#pd70d5d06ba)">
     <use style="fill:none;stroke:#000000;stroke-opacity:0.5;" x="315.930771" xlink:href="#C0_0_cc351ccca0" y="143.83622"/>
    </g>
    <g clip-path="url(#pd70d5d06ba)">
     <use style="fill:none;stroke:#000000;stroke-opacity:0.5;" x="332.098342" xlink:href="#C0_0_cc351ccca0" y="167.345354"/>
    </g>
    <g clip-path="url(#pd70d5d06ba)">
     <use style="fill:none;stroke:#000000;stroke-opacity:0.5;" x="103.73139" xlink:href="#C0_0_cc351ccca0" y="319.371087"/>
    </g>
    <g clip-path="url(#pd70d5d06ba)">
     <use style="fill:none;stroke:#000000;stroke-opacity:0.5;" x="101.710443" xlink:href="#C0_0_cc351ccca0" y="298.996504"/>
    </g>
    <g clip-path="url(#pd70d5d06ba)">
     <use style="fill:none;stroke:#000000;stroke-opacity:0.5;" x="210.841554" xlink:href="#C0_0_cc351ccca0" y="206.527244"/>
    </g>
    <g clip-path="url(#pd70d5d06ba)">
     <use style="fill:none;stroke:#000000;stroke-opacity:0.5;" x="85.542872" xlink:href="#C0_0_cc351ccca0" y="300.56378"/>
    </g>
    <g clip-path="url(#pd70d5d06ba)">
     <use style="fill:none;stroke:#000000;stroke-opacity:0.5;" x="285.616573" xlink:href="#C0_0_cc351ccca0" y="121.894362"/>
    </g>
    <g clip-path="url(#pd70d5d06ba)">
     <use style="fill:none;stroke:#000000;stroke-opacity:0.5;" x="180.527356" xlink:href="#C0_0_cc351ccca0" y="250.410961"/>
    </g>
    <g clip-path="url(#pd70d5d06ba)">
     <use style="fill:none;stroke:#000000;stroke-opacity:0.5;" x="249.239537" xlink:href="#C0_0_cc351ccca0" y="223.767276"/>
    </g>
    <g clip-path="url(#pd70d5d06ba)">
     <use style="fill:none;stroke:#000000;stroke-opacity:0.5;" x="198.715875" xlink:href="#C0_0_cc351ccca0" y="148.538047"/>
    </g>
    <g clip-path="url(#pd70d5d06ba)">
     <use style="fill:none;stroke:#000000;stroke-opacity:0.5;" x="164.359784" xlink:href="#C0_0_cc351ccca0" y="187.719937"/>
    </g>
    <g clip-path="url(#pd70d5d06ba)">
     <use style="fill:none;stroke:#000000;stroke-opacity:0.5;" x="334.119289" xlink:href="#C0_0_cc351ccca0" y="126.596189"/>
    </g>
    <g clip-path="url(#pd70d5d06ba)">
     <use style="fill:none;stroke:#000000;stroke-opacity:0.5;" x="293.700359" xlink:href="#C0_0_cc351ccca0" y="172.047181"/>
    </g>
    <g clip-path="url(#pd70d5d06ba)">
     <use style="fill:none;stroke:#000000;stroke-opacity:0.5;" x="328.05645" xlink:href="#C0_0_cc351ccca0" y="132.865291"/>
    </g>
    <g clip-path="url(#pd70d5d06ba)">
     <use style="fill:none;stroke:#000000;stroke-opacity:0.5;" x="241.155751" xlink:href="#C0_0_cc351ccca0" y="231.603654"/>
    </g>
    <g clip-path="url(#pd70d5d06ba)">
     <use style="fill:none;stroke:#000000;stroke-opacity:0.5;" x="134.045587" xlink:href="#C0_0_cc351ccca0" y="230.036378"/>
    </g>
    <g clip-path="url(#pd70d5d06ba)">
     <use style="fill:none;stroke:#000000;stroke-opacity:0.5;" x="235.092911" xlink:href="#C0_0_cc351ccca0" y="195.556315"/>
    </g>
    <g clip-path="url(#pd70d5d06ba)">
     <use style="fill:none;stroke:#000000;stroke-opacity:0.5;" x="138.08748" xlink:href="#C0_0_cc351ccca0" y="275.48737"/>
    </g>
    <g clip-path="url(#pd70d5d06ba)">
     <use style="fill:none;stroke:#000000;stroke-opacity:0.5;" x="117.878015" xlink:href="#C0_0_cc351ccca0" y="280.189197"/>
    </g>
    <g clip-path="url(#pd70d5d06ba)">
     <use style="fill:none;stroke:#000000;stroke-opacity:0.5;" x="91.605711" xlink:href="#C0_0_cc351ccca0" y="269.218268"/>
    </g>
   </g>
   <g id="matplotlib.axis_1">
    <g id="xtick_1">
     <g id="line2d_1">
      <defs>
       <path d="M 0 0 
L 0 4 
" id="m5fa321510c" style="stroke:#222222;"/>
      </defs>
      <g>
       <use style="fill:#222222;stroke:#222222;" x="77.459086" xlink:href="#m5fa321510c" y="336"/>
      </g>
     </g>
     <g id="text_1">
      <!-- 0 -->
      <defs>
       <path d="M 31.78125 66.40625 
Q 24.171875 66.40625 20.328125 58.90625 
Q 16.5 51.421875 16.5 36.375 
Q 16.5 21.390625 20.328125 13.890625 
Q 24.171875 6.390625 31.78125 6.390625 
Q 39.453125 6.390625 43.28125 13.890625 
Q 47.125 21.390625 47.125 36.375 
Q 47.125 51.421875 43.28125 58.90625 
Q 39.453125 66.40625 31.78125 66.40625 
z
M 31.78125 74.21875 
Q 44.046875 74.21875 50.515625 64.515625 
Q 56.984375 54.828125 56.984375 36.375 
Q 56.984375 17.96875 50.515625 8.265625 
Q 44.046875 -1.421875 31.78125 -1.421875 
Q 19.53125 -1.421875 13.0625 8.265625 
Q 6.59375 17.96875 6.59375 36.375 
Q 6.59375 54.828125 13.0625 64.515625 
Q 19.53125 74.21875 31.78125 74.21875 
z
" id="DejaVuSans-30"/>
      </defs>
      <g style="fill:#222222;" transform="translate(74.914086 348.07875)scale(0.08 -0.08)">
       <use xlink:href="#DejaVuSans-30"/>
      </g>
     </g>
    </g>
    <g id="xtick_2">
     <g id="line2d_2">
      <g>
       <use style="fill:#222222;stroke:#222222;" x="117.878015" xlink:href="#m5fa321510c" y="336"/>
      </g>
     </g>
     <g id="text_2">
      <!-- 20 -->
      <defs>
       <path d="M 19.1875 8.296875 
L 53.609375 8.296875 
L 53.609375 0 
L 7.328125 0 
L 7.328125 8.296875 
Q 12.9375 14.109375 22.625 23.890625 
Q 32.328125 33.6875 34.8125 36.53125 
Q 39.546875 41.84375 41.421875 45.53125 
Q 43.3125 49.21875 43.3125 52.78125 
Q 43.3125 58.59375 39.234375 62.25 
Q 35.15625 65.921875 28.609375 65.921875 
Q 23.96875 65.921875 18.8125 64.3125 
Q 13.671875 62.703125 7.8125 59.421875 
L 7.8125 69.390625 
Q 13.765625 71.78125 18.9375 73 
Q 24.125 74.21875 28.421875 74.21875 
Q 39.75 74.21875 46.484375 68.546875 
Q 53.21875 62.890625 53.21875 53.421875 
Q 53.21875 48.921875 51.53125 44.890625 
Q 49.859375 40.875 45.40625 35.40625 
Q 44.1875 33.984375 37.640625 27.21875 
Q 31.109375 20.453125 19.1875 8.296875 
z
" id="DejaVuSans-32"/>
      </defs>
      <g style="fill:#222222;" transform="translate(112.788015 348.07875)scale(0.08 -0.08)">
       <use xlink:href="#DejaVuSans-32"/>
       <use x="63.623047" xlink:href="#DejaVuSans-30"/>
      </g>
     </g>
    </g>
    <g id="xtick_3">
     <g id="line2d_3">
      <g>
       <use style="fill:#222222;stroke:#222222;" x="158.296945" xlink:href="#m5fa321510c" y="336"/>
      </g>
     </g>
     <g id="text_3">
      <!-- 40 -->
      <defs>
       <path d="M 37.796875 64.3125 
L 12.890625 25.390625 
L 37.796875 25.390625 
z
M 35.203125 72.90625 
L 47.609375 72.90625 
L 47.609375 25.390625 
L 58.015625 25.390625 
L 58.015625 17.1875 
L 47.609375 17.1875 
L 47.609375 0 
L 37.796875 0 
L 37.796875 17.1875 
L 4.890625 17.1875 
L 4.890625 26.703125 
z
" id="DejaVuSans-34"/>
      </defs>
      <g style="fill:#222222;" transform="translate(153.206945 348.07875)scale(0.08 -0.08)">
       <use xlink:href="#DejaVuSans-34"/>
       <use x="63.623047" xlink:href="#DejaVuSans-30"/>
      </g>
     </g>
    </g>
    <g id="xtick_4">
     <g id="line2d_4">
      <g>
       <use style="fill:#222222;stroke:#222222;" x="198.715875" xlink:href="#m5fa321510c" y="336"/>
      </g>
     </g>
     <g id="text_4">
      <!-- 60 -->
      <defs>
       <path d="M 33.015625 40.375 
Q 26.375 40.375 22.484375 35.828125 
Q 18.609375 31.296875 18.609375 23.390625 
Q 18.609375 15.53125 22.484375 10.953125 
Q 26.375 6.390625 33.015625 6.390625 
Q 39.65625 6.390625 43.53125 10.953125 
Q 47.40625 15.53125 47.40625 23.390625 
Q 47.40625 31.296875 43.53125 35.828125 
Q 39.65625 40.375 33.015625 40.375 
z
M 52.59375 71.296875 
L 52.59375 62.3125 
Q 48.875 64.0625 45.09375 64.984375 
Q 41.3125 65.921875 37.59375 65.921875 
Q 27.828125 65.921875 22.671875 59.328125 
Q 17.53125 52.734375 16.796875 39.40625 
Q 19.671875 43.65625 24.015625 45.921875 
Q 28.375 48.1875 33.59375 48.1875 
Q 44.578125 48.1875 50.953125 41.515625 
Q 57.328125 34.859375 57.328125 23.390625 
Q 57.328125 12.15625 50.6875 5.359375 
Q 44.046875 -1.421875 33.015625 -1.421875 
Q 20.359375 -1.421875 13.671875 8.265625 
Q 6.984375 17.96875 6.984375 36.375 
Q 6.984375 53.65625 15.1875 63.9375 
Q 23.390625 74.21875 37.203125 74.21875 
Q 40.921875 74.21875 44.703125 73.484375 
Q 48.484375 72.75 52.59375 71.296875 
z
" id="DejaVuSans-36"/>
      </defs>
      <g style="fill:#222222;" transform="translate(193.625875 348.07875)scale(0.08 -0.08)">
       <use xlink:href="#DejaVuSans-36"/>
       <use x="63.623047" xlink:href="#DejaVuSans-30"/>
      </g>
     </g>
    </g>
    <g id="xtick_5">
     <g id="line2d_5">
      <g>
       <use style="fill:#222222;stroke:#222222;" x="239.134804" xlink:href="#m5fa321510c" y="336"/>
      </g>
     </g>
     <g id="text_5">
      <!-- 80 -->
      <defs>
       <path d="M 31.78125 34.625 
Q 24.75 34.625 20.71875 30.859375 
Q 16.703125 27.09375 16.703125 20.515625 
Q 16.703125 13.921875 20.71875 10.15625 
Q 24.75 6.390625 31.78125 6.390625 
Q 38.8125 6.390625 42.859375 10.171875 
Q 46.921875 13.96875 46.921875 20.515625 
Q 46.921875 27.09375 42.890625 30.859375 
Q 38.875 34.625 31.78125 34.625 
z
M 21.921875 38.8125 
Q 15.578125 40.375 12.03125 44.71875 
Q 8.5 49.078125 8.5 55.328125 
Q 8.5 64.0625 14.71875 69.140625 
Q 20.953125 74.21875 31.78125 74.21875 
Q 42.671875 74.21875 48.875 69.140625 
Q 55.078125 64.0625 55.078125 55.328125 
Q 55.078125 49.078125 51.53125 44.71875 
Q 48 40.375 41.703125 38.8125 
Q 48.828125 37.15625 52.796875 32.3125 
Q 56.78125 27.484375 56.78125 20.515625 
Q 56.78125 9.90625 50.3125 4.234375 
Q 43.84375 -1.421875 31.78125 -1.421875 
Q 19.734375 -1.421875 13.25 4.234375 
Q 6.78125 9.90625 6.78125 20.515625 
Q 6.78125 27.484375 10.78125 32.3125 
Q 14.796875 37.15625 21.921875 38.8125 
z
M 18.3125 54.390625 
Q 18.3125 48.734375 21.84375 45.5625 
Q 25.390625 42.390625 31.78125 42.390625 
Q 38.140625 42.390625 41.71875 45.5625 
Q 45.3125 48.734375 45.3125 54.390625 
Q 45.3125 60.0625 41.71875 63.234375 
Q 38.140625 66.40625 31.78125 66.40625 
Q 25.390625 66.40625 21.84375 63.234375 
Q 18.3125 60.0625 18.3125 54.390625 
z
" id="DejaVuSans-38"/>
      </defs>
      <g style="fill:#222222;" transform="translate(234.044804 348.07875)scale(0.08 -0.08)">
       <use xlink:href="#DejaVuSans-38"/>
       <use x="63.623047" xlink:href="#DejaVuSans-30"/>
      </g>
     </g>
    </g>
    <g id="xtick_6">
     <g id="line2d_6">
      <g>
       <use style="fill:#222222;stroke:#222222;" x="279.553734" xlink:href="#m5fa321510c" y="336"/>
      </g>
     </g>
     <g id="text_6">
      <!-- 100 -->
      <defs>
       <path d="M 12.40625 8.296875 
L 28.515625 8.296875 
L 28.515625 63.921875 
L 10.984375 60.40625 
L 10.984375 69.390625 
L 28.421875 72.90625 
L 38.28125 72.90625 
L 38.28125 8.296875 
L 54.390625 8.296875 
L 54.390625 0 
L 12.40625 0 
z
" id="DejaVuSans-31"/>
      </defs>
      <g style="fill:#222222;" transform="translate(271.918734 348.07875)scale(0.08 -0.08)">
       <use xlink:href="#DejaVuSans-31"/>
       <use x="63.623047" xlink:href="#DejaVuSans-30"/>
       <use x="127.246094" xlink:href="#DejaVuSans-30"/>
      </g>
     </g>
    </g>
    <g id="xtick_7">
     <g id="line2d_7">
      <g>
       <use style="fill:#222222;stroke:#222222;" x="319.972664" xlink:href="#m5fa321510c" y="336"/>
      </g>
     </g>
     <g id="text_7">
      <!-- 120 -->
      <g style="fill:#222222;" transform="translate(312.337664 348.07875)scale(0.08 -0.08)">
       <use xlink:href="#DejaVuSans-31"/>
       <use x="63.623047" xlink:href="#DejaVuSans-32"/>
       <use x="127.246094" xlink:href="#DejaVuSans-30"/>
      </g>
     </g>
    </g>
    <g id="text_8">
     <!-- Rank of GDP per capita -->
     <defs>
      <path d="M 44.390625 34.1875 
Q 47.5625 33.109375 50.5625 29.59375 
Q 53.5625 26.078125 56.59375 19.921875 
L 66.609375 0 
L 56 0 
L 46.6875 18.703125 
Q 43.0625 26.03125 39.671875 28.421875 
Q 36.28125 30.8125 30.421875 30.8125 
L 19.671875 30.8125 
L 19.671875 0 
L 9.8125 0 
L 9.8125 72.90625 
L 32.078125 72.90625 
Q 44.578125 72.90625 50.734375 67.671875 
Q 56.890625 62.453125 56.890625 51.90625 
Q 56.890625 45.015625 53.6875 40.46875 
Q 50.484375 35.9375 44.390625 34.1875 
z
M 19.671875 64.796875 
L 19.671875 38.921875 
L 32.078125 38.921875 
Q 39.203125 38.921875 42.84375 42.21875 
Q 46.484375 45.515625 46.484375 51.90625 
Q 46.484375 58.296875 42.84375 61.546875 
Q 39.203125 64.796875 32.078125 64.796875 
z
" id="DejaVuSans-52"/>
      <path d="M 34.28125 27.484375 
Q 23.390625 27.484375 19.1875 25 
Q 14.984375 22.515625 14.984375 16.5 
Q 14.984375 11.71875 18.140625 8.90625 
Q 21.296875 6.109375 26.703125 6.109375 
Q 34.1875 6.109375 38.703125 11.40625 
Q 43.21875 16.703125 43.21875 25.484375 
L 43.21875 27.484375 
z
M 52.203125 31.203125 
L 52.203125 0 
L 43.21875 0 
L 43.21875 8.296875 
Q 40.140625 3.328125 35.546875 0.953125 
Q 30.953125 -1.421875 24.3125 -1.421875 
Q 15.921875 -1.421875 10.953125 3.296875 
Q 6 8.015625 6 15.921875 
Q 6 25.140625 12.171875 29.828125 
Q 18.359375 34.515625 30.609375 34.515625 
L 43.21875 34.515625 
L 43.21875 35.40625 
Q 43.21875 41.609375 39.140625 45 
Q 35.0625 48.390625 27.6875 48.390625 
Q 23 48.390625 18.546875 47.265625 
Q 14.109375 46.140625 10.015625 43.890625 
L 10.015625 52.203125 
Q 14.9375 54.109375 19.578125 55.046875 
Q 24.21875 56 28.609375 56 
Q 40.484375 56 46.34375 49.84375 
Q 52.203125 43.703125 52.203125 31.203125 
z
" id="DejaVuSans-61"/>
      <path d="M 54.890625 33.015625 
L 54.890625 0 
L 45.90625 0 
L 45.90625 32.71875 
Q 45.90625 40.484375 42.875 44.328125 
Q 39.84375 48.1875 33.796875 48.1875 
Q 26.515625 48.1875 22.3125 43.546875 
Q 18.109375 38.921875 18.109375 30.90625 
L 18.109375 0 
L 9.078125 0 
L 9.078125 54.6875 
L 18.109375 54.6875 
L 18.109375 46.1875 
Q 21.34375 51.125 25.703125 53.5625 
Q 30.078125 56 35.796875 56 
Q 45.21875 56 50.046875 50.171875 
Q 54.890625 44.34375 54.890625 33.015625 
z
" id="DejaVuSans-6e"/>
      <path d="M 9.078125 75.984375 
L 18.109375 75.984375 
L 18.109375 31.109375 
L 44.921875 54.6875 
L 56.390625 54.6875 
L 27.390625 29.109375 
L 57.625 0 
L 45.90625 0 
L 18.109375 26.703125 
L 18.109375 0 
L 9.078125 0 
z
" id="DejaVuSans-6b"/>
      <path id="DejaVuSans-20"/>
      <path d="M 30.609375 48.390625 
Q 23.390625 48.390625 19.1875 42.75 
Q 14.984375 37.109375 14.984375 27.296875 
Q 14.984375 17.484375 19.15625 11.84375 
Q 23.34375 6.203125 30.609375 6.203125 
Q 37.796875 6.203125 41.984375 11.859375 
Q 46.1875 17.53125 46.1875 27.296875 
Q 46.1875 37.015625 41.984375 42.703125 
Q 37.796875 48.390625 30.609375 48.390625 
z
M 30.609375 56 
Q 42.328125 56 49.015625 48.375 
Q 55.71875 40.765625 55.71875 27.296875 
Q 55.71875 13.875 49.015625 6.21875 
Q 42.328125 -1.421875 30.609375 -1.421875 
Q 18.84375 -1.421875 12.171875 6.21875 
Q 5.515625 13.875 5.515625 27.296875 
Q 5.515625 40.765625 12.171875 48.375 
Q 18.84375 56 30.609375 56 
z
" id="DejaVuSans-6f"/>
      <path d="M 37.109375 75.984375 
L 37.109375 68.5 
L 28.515625 68.5 
Q 23.6875 68.5 21.796875 66.546875 
Q 19.921875 64.59375 19.921875 59.515625 
L 19.921875 54.6875 
L 34.71875 54.6875 
L 34.71875 47.703125 
L 19.921875 47.703125 
L 19.921875 0 
L 10.890625 0 
L 10.890625 47.703125 
L 2.296875 47.703125 
L 2.296875 54.6875 
L 10.890625 54.6875 
L 10.890625 58.5 
Q 10.890625 67.625 15.140625 71.796875 
Q 19.390625 75.984375 28.609375 75.984375 
z
" id="DejaVuSans-66"/>
      <path d="M 59.515625 10.40625 
L 59.515625 29.984375 
L 43.40625 29.984375 
L 43.40625 38.09375 
L 69.28125 38.09375 
L 69.28125 6.78125 
Q 63.578125 2.734375 56.6875 0.65625 
Q 49.8125 -1.421875 42 -1.421875 
Q 24.90625 -1.421875 15.25 8.5625 
Q 5.609375 18.5625 5.609375 36.375 
Q 5.609375 54.25 15.25 64.234375 
Q 24.90625 74.21875 42 74.21875 
Q 49.125 74.21875 55.546875 72.453125 
Q 61.96875 70.703125 67.390625 67.28125 
L 67.390625 56.78125 
Q 61.921875 61.421875 55.765625 63.765625 
Q 49.609375 66.109375 42.828125 66.109375 
Q 29.4375 66.109375 22.71875 58.640625 
Q 16.015625 51.171875 16.015625 36.375 
Q 16.015625 21.625 22.71875 14.15625 
Q 29.4375 6.6875 42.828125 6.6875 
Q 48.046875 6.6875 52.140625 7.59375 
Q 56.25 8.5 59.515625 10.40625 
z
" id="DejaVuSans-47"/>
      <path d="M 19.671875 64.796875 
L 19.671875 8.109375 
L 31.59375 8.109375 
Q 46.6875 8.109375 53.6875 14.9375 
Q 60.6875 21.78125 60.6875 36.53125 
Q 60.6875 51.171875 53.6875 57.984375 
Q 46.6875 64.796875 31.59375 64.796875 
z
M 9.8125 72.90625 
L 30.078125 72.90625 
Q 51.265625 72.90625 61.171875 64.09375 
Q 71.09375 55.28125 71.09375 36.53125 
Q 71.09375 17.671875 61.125 8.828125 
Q 51.171875 0 30.078125 0 
L 9.8125 0 
z
" id="DejaVuSans-44"/>
      <path d="M 19.671875 64.796875 
L 19.671875 37.40625 
L 32.078125 37.40625 
Q 38.96875 37.40625 42.71875 40.96875 
Q 46.484375 44.53125 46.484375 51.125 
Q 46.484375 57.671875 42.71875 61.234375 
Q 38.96875 64.796875 32.078125 64.796875 
z
M 9.8125 72.90625 
L 32.078125 72.90625 
Q 44.34375 72.90625 50.609375 67.359375 
Q 56.890625 61.8125 56.890625 51.125 
Q 56.890625 40.328125 50.609375 34.8125 
Q 44.34375 29.296875 32.078125 29.296875 
L 19.671875 29.296875 
L 19.671875 0 
L 9.8125 0 
z
" id="DejaVuSans-50"/>
      <path d="M 18.109375 8.203125 
L 18.109375 -20.796875 
L 9.078125 -20.796875 
L 9.078125 54.6875 
L 18.109375 54.6875 
L 18.109375 46.390625 
Q 20.953125 51.265625 25.265625 53.625 
Q 29.59375 56 35.59375 56 
Q 45.5625 56 51.78125 48.09375 
Q 58.015625 40.1875 58.015625 27.296875 
Q 58.015625 14.40625 51.78125 6.484375 
Q 45.5625 -1.421875 35.59375 -1.421875 
Q 29.59375 -1.421875 25.265625 0.953125 
Q 20.953125 3.328125 18.109375 8.203125 
z
M 48.6875 27.296875 
Q 48.6875 37.203125 44.609375 42.84375 
Q 40.53125 48.484375 33.40625 48.484375 
Q 26.265625 48.484375 22.1875 42.84375 
Q 18.109375 37.203125 18.109375 27.296875 
Q 18.109375 17.390625 22.1875 11.75 
Q 26.265625 6.109375 33.40625 6.109375 
Q 40.53125 6.109375 44.609375 11.75 
Q 48.6875 17.390625 48.6875 27.296875 
z
" id="DejaVuSans-70"/>
      <path d="M 56.203125 29.59375 
L 56.203125 25.203125 
L 14.890625 25.203125 
Q 15.484375 15.921875 20.484375 11.0625 
Q 25.484375 6.203125 34.421875 6.203125 
Q 39.59375 6.203125 44.453125 7.46875 
Q 49.3125 8.734375 54.109375 11.28125 
L 54.109375 2.78125 
Q 49.265625 0.734375 44.1875 -0.34375 
Q 39.109375 -1.421875 33.890625 -1.421875 
Q 20.796875 -1.421875 13.15625 6.1875 
Q 5.515625 13.8125 5.515625 26.8125 
Q 5.515625 40.234375 12.765625 48.109375 
Q 20.015625 56 32.328125 56 
Q 43.359375 56 49.78125 48.890625 
Q 56.203125 41.796875 56.203125 29.59375 
z
M 47.21875 32.234375 
Q 47.125 39.59375 43.09375 43.984375 
Q 39.0625 48.390625 32.421875 48.390625 
Q 24.90625 48.390625 20.390625 44.140625 
Q 15.875 39.890625 15.1875 32.171875 
z
" id="DejaVuSans-65"/>
      <path d="M 41.109375 46.296875 
Q 39.59375 47.171875 37.8125 47.578125 
Q 36.03125 48 33.890625 48 
Q 26.265625 48 22.1875 43.046875 
Q 18.109375 38.09375 18.109375 28.8125 
L 18.109375 0 
L 9.078125 0 
L 9.078125 54.6875 
L 18.109375 54.6875 
L 18.109375 46.1875 
Q 20.953125 51.171875 25.484375 53.578125 
Q 30.03125 56 36.53125 56 
Q 37.453125 56 38.578125 55.875 
Q 39.703125 55.765625 41.0625 55.515625 
z
" id="DejaVuSans-72"/>
      <path d="M 48.78125 52.59375 
L 48.78125 44.1875 
Q 44.96875 46.296875 41.140625 47.34375 
Q 37.3125 48.390625 33.40625 48.390625 
Q 24.65625 48.390625 19.8125 42.84375 
Q 14.984375 37.3125 14.984375 27.296875 
Q 14.984375 17.28125 19.8125 11.734375 
Q 24.65625 6.203125 33.40625 6.203125 
Q 37.3125 6.203125 41.140625 7.25 
Q 44.96875 8.296875 48.78125 10.40625 
L 48.78125 2.09375 
Q 45.015625 0.34375 40.984375 -0.53125 
Q 36.96875 -1.421875 32.421875 -1.421875 
Q 20.0625 -1.421875 12.78125 6.34375 
Q 5.515625 14.109375 5.515625 27.296875 
Q 5.515625 40.671875 12.859375 48.328125 
Q 20.21875 56 33.015625 56 
Q 37.15625 56 41.109375 55.140625 
Q 45.0625 54.296875 48.78125 52.59375 
z
" id="DejaVuSans-63"/>
      <path d="M 9.421875 54.6875 
L 18.40625 54.6875 
L 18.40625 0 
L 9.421875 0 
z
M 9.421875 75.984375 
L 18.40625 75.984375 
L 18.40625 64.59375 
L 9.421875 64.59375 
z
" id="DejaVuSans-69"/>
      <path d="M 18.3125 70.21875 
L 18.3125 54.6875 
L 36.8125 54.6875 
L 36.8125 47.703125 
L 18.3125 47.703125 
L 18.3125 18.015625 
Q 18.3125 11.328125 20.140625 9.421875 
Q 21.96875 7.515625 27.59375 7.515625 
L 36.8125 7.515625 
L 36.8125 0 
L 27.59375 0 
Q 17.1875 0 13.234375 3.875 
Q 9.28125 7.765625 9.28125 18.015625 
L 9.28125 47.703125 
L 2.6875 47.703125 
L 2.6875 54.6875 
L 9.28125 54.6875 
L 9.28125 70.21875 
z
" id="DejaVuSans-74"/>
     </defs>
     <g style="fill:#222222;" transform="translate(131.350781 364.380313)scale(0.14 -0.14)">
      <use xlink:href="#DejaVuSans-52"/>
      <use x="69.451172" xlink:href="#DejaVuSans-61"/>
      <use x="130.730469" xlink:href="#DejaVuSans-6e"/>
      <use x="194.109375" xlink:href="#DejaVuSans-6b"/>
      <use x="252.019531" xlink:href="#DejaVuSans-20"/>
      <use x="283.806641" xlink:href="#DejaVuSans-6f"/>
      <use x="344.988281" xlink:href="#DejaVuSans-66"/>
      <use x="380.193359" xlink:href="#DejaVuSans-20"/>
      <use x="411.980469" xlink:href="#DejaVuSans-47"/>
      <use x="489.470703" xlink:href="#DejaVuSans-44"/>
      <use x="566.472656" xlink:href="#DejaVuSans-50"/>
      <use x="626.775391" xlink:href="#DejaVuSans-20"/>
      <use x="658.5625" xlink:href="#DejaVuSans-70"/>
      <use x="722.039062" xlink:href="#DejaVuSans-65"/>
      <use x="783.5625" xlink:href="#DejaVuSans-72"/>
      <use x="824.675781" xlink:href="#DejaVuSans-20"/>
      <use x="856.462891" xlink:href="#DejaVuSans-63"/>
      <use x="911.443359" xlink:href="#DejaVuSans-61"/>
      <use x="972.722656" xlink:href="#DejaVuSans-70"/>
      <use x="1036.199219" xlink:href="#DejaVuSans-69"/>
      <use x="1063.982422" xlink:href="#DejaVuSans-74"/>
      <use x="1103.191406" xlink:href="#DejaVuSans-61"/>
     </g>
     <!-- (constant2011international) -->
     <defs>
      <path d="M 31 75.875 
Q 24.46875 64.65625 21.28125 53.65625 
Q 18.109375 42.671875 18.109375 31.390625 
Q 18.109375 20.125 21.3125 9.0625 
Q 24.515625 -2 31 -13.1875 
L 23.1875 -13.1875 
Q 15.875 -1.703125 12.234375 9.375 
Q 8.59375 20.453125 8.59375 31.390625 
Q 8.59375 42.28125 12.203125 53.3125 
Q 15.828125 64.359375 23.1875 75.875 
z
" id="DejaVuSans-28"/>
      <path d="M 44.28125 53.078125 
L 44.28125 44.578125 
Q 40.484375 46.53125 36.375 47.5 
Q 32.28125 48.484375 27.875 48.484375 
Q 21.1875 48.484375 17.84375 46.4375 
Q 14.5 44.390625 14.5 40.28125 
Q 14.5 37.15625 16.890625 35.375 
Q 19.28125 33.59375 26.515625 31.984375 
L 29.59375 31.296875 
Q 39.15625 29.25 43.1875 25.515625 
Q 47.21875 21.78125 47.21875 15.09375 
Q 47.21875 7.46875 41.1875 3.015625 
Q 35.15625 -1.421875 24.609375 -1.421875 
Q 20.21875 -1.421875 15.453125 -0.5625 
Q 10.6875 0.296875 5.421875 2 
L 5.421875 11.28125 
Q 10.40625 8.6875 15.234375 7.390625 
Q 20.0625 6.109375 24.8125 6.109375 
Q 31.15625 6.109375 34.5625 8.28125 
Q 37.984375 10.453125 37.984375 14.40625 
Q 37.984375 18.0625 35.515625 20.015625 
Q 33.0625 21.96875 24.703125 23.78125 
L 21.578125 24.515625 
Q 13.234375 26.265625 9.515625 29.90625 
Q 5.8125 33.546875 5.8125 39.890625 
Q 5.8125 47.609375 11.28125 51.796875 
Q 16.75 56 26.8125 56 
Q 31.78125 56 36.171875 55.265625 
Q 40.578125 54.546875 44.28125 53.078125 
z
" id="DejaVuSans-73"/>
      <path d="M 9.421875 75.984375 
L 18.40625 75.984375 
L 18.40625 0 
L 9.421875 0 
z
" id="DejaVuSans-6c"/>
      <path d="M 8.015625 75.875 
L 15.828125 75.875 
Q 23.140625 64.359375 26.78125 53.3125 
Q 30.421875 42.28125 30.421875 31.390625 
Q 30.421875 20.453125 26.78125 9.375 
Q 23.140625 -1.703125 15.828125 -13.1875 
L 8.015625 -13.1875 
Q 14.5 -2 17.703125 9.0625 
Q 20.90625 20.125 20.90625 31.390625 
Q 20.90625 42.671875 17.703125 53.65625 
Q 14.5 64.65625 8.015625 75.875 
z
" id="DejaVuSans-29"/>
     </defs>
     <g style="fill:#222222;" transform="translate(114.478594 380.05725)scale(0.14 -0.14)">
      <use xlink:href="#DejaVuSans-28"/>
      <use x="39.013672" xlink:href="#DejaVuSans-63"/>
      <use x="93.994141" xlink:href="#DejaVuSans-6f"/>
      <use x="155.175781" xlink:href="#DejaVuSans-6e"/>
      <use x="218.554688" xlink:href="#DejaVuSans-73"/>
      <use x="270.654297" xlink:href="#DejaVuSans-74"/>
      <use x="309.863281" xlink:href="#DejaVuSans-61"/>
      <use x="371.142578" xlink:href="#DejaVuSans-6e"/>
      <use x="434.521484" xlink:href="#DejaVuSans-74"/>
      <use x="473.730469" xlink:href="#DejaVuSans-32"/>
      <use x="537.353516" xlink:href="#DejaVuSans-30"/>
      <use x="600.976562" xlink:href="#DejaVuSans-31"/>
      <use x="664.599609" xlink:href="#DejaVuSans-31"/>
      <use x="728.222656" xlink:href="#DejaVuSans-69"/>
      <use x="756.005859" xlink:href="#DejaVuSans-6e"/>
      <use x="819.384766" xlink:href="#DejaVuSans-74"/>
      <use x="858.59375" xlink:href="#DejaVuSans-65"/>
      <use x="920.117188" xlink:href="#DejaVuSans-72"/>
      <use x="961.214844" xlink:href="#DejaVuSans-6e"/>
      <use x="1024.59375" xlink:href="#DejaVuSans-61"/>
      <use x="1085.873047" xlink:href="#DejaVuSans-74"/>
      <use x="1125.082031" xlink:href="#DejaVuSans-69"/>
      <use x="1152.865234" xlink:href="#DejaVuSans-6f"/>
      <use x="1214.046875" xlink:href="#DejaVuSans-6e"/>
      <use x="1277.425781" xlink:href="#DejaVuSans-61"/>
      <use x="1338.705078" xlink:href="#DejaVuSans-6c"/>
      <use x="1366.488281" xlink:href="#DejaVuSans-29"/>
     </g>
    </g>
   </g>
   <g id="matplotlib.axis_2">
    <g id="ytick_1">
     <g id="line2d_8">
      <defs>
       <path d="M 0 0 
L -4 0 
" id="me6641a58c7" style="stroke:#222222;"/>
      </defs>
      <g>
       <use style="fill:#222222;stroke:#222222;" x="66.125" xlink:href="#me6641a58c7" y="327.207465"/>
      </g>
     </g>
     <g id="text_9">
      <!-- 0 -->
      <g style="fill:#222222;" transform="translate(55.035 330.24684)scale(0.08 -0.08)">
       <use xlink:href="#DejaVuSans-30"/>
      </g>
     </g>
    </g>
    <g id="ytick_2">
     <g id="line2d_9">
      <g>
       <use style="fill:#222222;stroke:#222222;" x="66.125" xlink:href="#me6641a58c7" y="295.861953"/>
      </g>
     </g>
     <g id="text_10">
      <!-- 20 -->
      <g style="fill:#222222;" transform="translate(49.945 298.901328)scale(0.08 -0.08)">
       <use xlink:href="#DejaVuSans-32"/>
       <use x="63.623047" xlink:href="#DejaVuSans-30"/>
      </g>
     </g>
    </g>
    <g id="ytick_3">
     <g id="line2d_10">
      <g>
       <use style="fill:#222222;stroke:#222222;" x="66.125" xlink:href="#me6641a58c7" y="264.516441"/>
      </g>
     </g>
     <g id="text_11">
      <!-- 40 -->
      <g style="fill:#222222;" transform="translate(49.945 267.555816)scale(0.08 -0.08)">
       <use xlink:href="#DejaVuSans-34"/>
       <use x="63.623047" xlink:href="#DejaVuSans-30"/>
      </g>
     </g>
    </g>
    <g id="ytick_4">
     <g id="line2d_11">
      <g>
       <use style="fill:#222222;stroke:#222222;" x="66.125" xlink:href="#me6641a58c7" y="233.170929"/>
      </g>
     </g>
     <g id="text_12">
      <!-- 60 -->
      <g style="fill:#222222;" transform="translate(49.945 236.210304)scale(0.08 -0.08)">
       <use xlink:href="#DejaVuSans-36"/>
       <use x="63.623047" xlink:href="#DejaVuSans-30"/>
      </g>
     </g>
    </g>
    <g id="ytick_5">
     <g id="line2d_12">
      <g>
       <use style="fill:#222222;stroke:#222222;" x="66.125" xlink:href="#me6641a58c7" y="201.825417"/>
      </g>
     </g>
     <g id="text_13">
      <!-- 80 -->
      <g style="fill:#222222;" transform="translate(49.945 204.864792)scale(0.08 -0.08)">
       <use xlink:href="#DejaVuSans-38"/>
       <use x="63.623047" xlink:href="#DejaVuSans-30"/>
      </g>
     </g>
    </g>
    <g id="ytick_6">
     <g id="line2d_13">
      <g>
       <use style="fill:#222222;stroke:#222222;" x="66.125" xlink:href="#me6641a58c7" y="170.479905"/>
      </g>
     </g>
     <g id="text_14">
      <!-- 100 -->
      <g style="fill:#222222;" transform="translate(44.855 173.51928)scale(0.08 -0.08)">
       <use xlink:href="#DejaVuSans-31"/>
       <use x="63.623047" xlink:href="#DejaVuSans-30"/>
       <use x="127.246094" xlink:href="#DejaVuSans-30"/>
      </g>
     </g>
    </g>
    <g id="ytick_7">
     <g id="line2d_14">
      <g>
       <use style="fill:#222222;stroke:#222222;" x="66.125" xlink:href="#me6641a58c7" y="139.134393"/>
      </g>
     </g>
     <g id="text_15">
      <!-- 120 -->
      <g style="fill:#222222;" transform="translate(44.855 142.173768)scale(0.08 -0.08)">
       <use xlink:href="#DejaVuSans-31"/>
       <use x="63.623047" xlink:href="#DejaVuSans-32"/>
       <use x="127.246094" xlink:href="#DejaVuSans-30"/>
      </g>
     </g>
    </g>
    <g id="text_16">
     <!-- Rank of Energy used -->
     <defs>
      <path d="M 9.8125 72.90625 
L 55.90625 72.90625 
L 55.90625 64.59375 
L 19.671875 64.59375 
L 19.671875 43.015625 
L 54.390625 43.015625 
L 54.390625 34.71875 
L 19.671875 34.71875 
L 19.671875 8.296875 
L 56.78125 8.296875 
L 56.78125 0 
L 9.8125 0 
z
" id="DejaVuSans-45"/>
      <path d="M 45.40625 27.984375 
Q 45.40625 37.75 41.375 43.109375 
Q 37.359375 48.484375 30.078125 48.484375 
Q 22.859375 48.484375 18.828125 43.109375 
Q 14.796875 37.75 14.796875 27.984375 
Q 14.796875 18.265625 18.828125 12.890625 
Q 22.859375 7.515625 30.078125 7.515625 
Q 37.359375 7.515625 41.375 12.890625 
Q 45.40625 18.265625 45.40625 27.984375 
z
M 54.390625 6.78125 
Q 54.390625 -7.171875 48.1875 -13.984375 
Q 42 -20.796875 29.203125 -20.796875 
Q 24.46875 -20.796875 20.265625 -20.09375 
Q 16.0625 -19.390625 12.109375 -17.921875 
L 12.109375 -9.1875 
Q 16.0625 -11.328125 19.921875 -12.34375 
Q 23.78125 -13.375 27.78125 -13.375 
Q 36.625 -13.375 41.015625 -8.765625 
Q 45.40625 -4.15625 45.40625 5.171875 
L 45.40625 9.625 
Q 42.625 4.78125 38.28125 2.390625 
Q 33.9375 0 27.875 0 
Q 17.828125 0 11.671875 7.65625 
Q 5.515625 15.328125 5.515625 27.984375 
Q 5.515625 40.671875 11.671875 48.328125 
Q 17.828125 56 27.875 56 
Q 33.9375 56 38.28125 53.609375 
Q 42.625 51.21875 45.40625 46.390625 
L 45.40625 54.6875 
L 54.390625 54.6875 
z
" id="DejaVuSans-67"/>
      <path d="M 32.171875 -5.078125 
Q 28.375 -14.84375 24.75 -17.8125 
Q 21.140625 -20.796875 15.09375 -20.796875 
L 7.90625 -20.796875 
L 7.90625 -13.28125 
L 13.1875 -13.28125 
Q 16.890625 -13.28125 18.9375 -11.515625 
Q 21 -9.765625 23.484375 -3.21875 
L 25.09375 0.875 
L 2.984375 54.6875 
L 12.5 54.6875 
L 29.59375 11.921875 
L 46.6875 54.6875 
L 56.203125 54.6875 
z
" id="DejaVuSans-79"/>
      <path d="M 8.5 21.578125 
L 8.5 54.6875 
L 17.484375 54.6875 
L 17.484375 21.921875 
Q 17.484375 14.15625 20.5 10.265625 
Q 23.53125 6.390625 29.59375 6.390625 
Q 36.859375 6.390625 41.078125 11.03125 
Q 45.3125 15.671875 45.3125 23.6875 
L 45.3125 54.6875 
L 54.296875 54.6875 
L 54.296875 0 
L 45.3125 0 
L 45.3125 8.40625 
Q 42.046875 3.421875 37.71875 1 
Q 33.40625 -1.421875 27.6875 -1.421875 
Q 18.265625 -1.421875 13.375 4.4375 
Q 8.5 10.296875 8.5 21.578125 
z
M 31.109375 56 
z
" id="DejaVuSans-75"/>
      <path d="M 45.40625 46.390625 
L 45.40625 75.984375 
L 54.390625 75.984375 
L 54.390625 0 
L 45.40625 0 
L 45.40625 8.203125 
Q 42.578125 3.328125 38.25 0.953125 
Q 33.9375 -1.421875 27.875 -1.421875 
Q 17.96875 -1.421875 11.734375 6.484375 
Q 5.515625 14.40625 5.515625 27.296875 
Q 5.515625 40.1875 11.734375 48.09375 
Q 17.96875 56 27.875 56 
Q 33.9375 56 38.25 53.625 
Q 42.578125 51.265625 45.40625 46.390625 
z
M 14.796875 27.296875 
Q 14.796875 17.390625 18.875 11.75 
Q 22.953125 6.109375 30.078125 6.109375 
Q 37.203125 6.109375 41.296875 11.75 
Q 45.40625 17.390625 45.40625 27.296875 
Q 45.40625 37.203125 41.296875 42.84375 
Q 37.203125 48.484375 30.078125 48.484375 
Q 22.953125 48.484375 18.875 42.84375 
Q 14.796875 37.203125 14.796875 27.296875 
z
" id="DejaVuSans-64"/>
     </defs>
     <g style="fill:#222222;" transform="translate(22.2665 294.726562)rotate(-90)scale(0.14 -0.14)">
      <use xlink:href="#DejaVuSans-52"/>
      <use x="69.451172" xlink:href="#DejaVuSans-61"/>
      <use x="130.730469" xlink:href="#DejaVuSans-6e"/>
      <use x="194.109375" xlink:href="#DejaVuSans-6b"/>
      <use x="252.019531" xlink:href="#DejaVuSans-20"/>
      <use x="283.806641" xlink:href="#DejaVuSans-6f"/>
      <use x="344.988281" xlink:href="#DejaVuSans-66"/>
      <use x="380.193359" xlink:href="#DejaVuSans-20"/>
      <use x="411.980469" xlink:href="#DejaVuSans-45"/>
      <use x="475.164062" xlink:href="#DejaVuSans-6e"/>
      <use x="538.542969" xlink:href="#DejaVuSans-65"/>
      <use x="600.066406" xlink:href="#DejaVuSans-72"/>
      <use x="641.164062" xlink:href="#DejaVuSans-67"/>
      <use x="704.640625" xlink:href="#DejaVuSans-79"/>
      <use x="763.820312" xlink:href="#DejaVuSans-20"/>
      <use x="795.607422" xlink:href="#DejaVuSans-75"/>
      <use x="858.986328" xlink:href="#DejaVuSans-73"/>
      <use x="911.085938" xlink:href="#DejaVuSans-65"/>
      <use x="972.609375" xlink:href="#DejaVuSans-64"/>
     </g>
     <!-- (kg oil equivalent, kWh) -->
     <defs>
      <path d="M 14.796875 27.296875 
Q 14.796875 17.390625 18.875 11.75 
Q 22.953125 6.109375 30.078125 6.109375 
Q 37.203125 6.109375 41.296875 11.75 
Q 45.40625 17.390625 45.40625 27.296875 
Q 45.40625 37.203125 41.296875 42.84375 
Q 37.203125 48.484375 30.078125 48.484375 
Q 22.953125 48.484375 18.875 42.84375 
Q 14.796875 37.203125 14.796875 27.296875 
z
M 45.40625 8.203125 
Q 42.578125 3.328125 38.25 0.953125 
Q 33.9375 -1.421875 27.875 -1.421875 
Q 17.96875 -1.421875 11.734375 6.484375 
Q 5.515625 14.40625 5.515625 27.296875 
Q 5.515625 40.1875 11.734375 48.09375 
Q 17.96875 56 27.875 56 
Q 33.9375 56 38.25 53.625 
Q 42.578125 51.265625 45.40625 46.390625 
L 45.40625 54.6875 
L 54.390625 54.6875 
L 54.390625 -20.796875 
L 45.40625 -20.796875 
z
" id="DejaVuSans-71"/>
      <path d="M 2.984375 54.6875 
L 12.5 54.6875 
L 29.59375 8.796875 
L 46.6875 54.6875 
L 56.203125 54.6875 
L 35.6875 0 
L 23.484375 0 
z
" id="DejaVuSans-76"/>
      <path d="M 11.71875 12.40625 
L 22.015625 12.40625 
L 22.015625 4 
L 14.015625 -11.625 
L 7.71875 -11.625 
L 11.71875 4 
z
" id="DejaVuSans-2c"/>
      <path d="M 3.328125 72.90625 
L 13.28125 72.90625 
L 28.609375 11.28125 
L 43.890625 72.90625 
L 54.984375 72.90625 
L 70.3125 11.28125 
L 85.59375 72.90625 
L 95.609375 72.90625 
L 77.296875 0 
L 64.890625 0 
L 49.515625 63.28125 
L 33.984375 0 
L 21.578125 0 
z
" id="DejaVuSans-57"/>
      <path d="M 54.890625 33.015625 
L 54.890625 0 
L 45.90625 0 
L 45.90625 32.71875 
Q 45.90625 40.484375 42.875 44.328125 
Q 39.84375 48.1875 33.796875 48.1875 
Q 26.515625 48.1875 22.3125 43.546875 
Q 18.109375 38.921875 18.109375 30.90625 
L 18.109375 0 
L 9.078125 0 
L 9.078125 75.984375 
L 18.109375 75.984375 
L 18.109375 46.1875 
Q 21.34375 51.125 25.703125 53.5625 
Q 30.078125 56 35.796875 56 
Q 45.21875 56 50.046875 50.171875 
Q 54.890625 44.34375 54.890625 33.015625 
z
" id="DejaVuSans-68"/>
     </defs>
     <g style="fill:#222222;" transform="translate(37.943438 305.638906)rotate(-90)scale(0.14 -0.14)">
      <use xlink:href="#DejaVuSans-28"/>
      <use x="39.013672" xlink:href="#DejaVuSans-6b"/>
      <use x="96.923828" xlink:href="#DejaVuSans-67"/>
      <use x="160.400391" xlink:href="#DejaVuSans-20"/>
      <use x="192.1875" xlink:href="#DejaVuSans-6f"/>
      <use x="253.369141" xlink:href="#DejaVuSans-69"/>
      <use x="281.152344" xlink:href="#DejaVuSans-6c"/>
      <use x="308.935547" xlink:href="#DejaVuSans-20"/>
      <use x="340.722656" xlink:href="#DejaVuSans-65"/>
      <use x="402.246094" xlink:href="#DejaVuSans-71"/>
      <use x="465.722656" xlink:href="#DejaVuSans-75"/>
      <use x="529.101562" xlink:href="#DejaVuSans-69"/>
      <use x="556.884766" xlink:href="#DejaVuSans-76"/>
      <use x="616.064453" xlink:href="#DejaVuSans-61"/>
      <use x="677.34375" xlink:href="#DejaVuSans-6c"/>
      <use x="705.126953" xlink:href="#DejaVuSans-65"/>
      <use x="766.650391" xlink:href="#DejaVuSans-6e"/>
      <use x="830.029297" xlink:href="#DejaVuSans-74"/>
      <use x="869.238281" xlink:href="#DejaVuSans-2c"/>
      <use x="901.025391" xlink:href="#DejaVuSans-20"/>
      <use x="932.8125" xlink:href="#DejaVuSans-6b"/>
      <use x="990.722656" xlink:href="#DejaVuSans-57"/>
      <use x="1089.599609" xlink:href="#DejaVuSans-68"/>
      <use x="1152.978516" xlink:href="#DejaVuSans-29"/>
     </g>
    </g>
   </g>
   <g id="patch_3">
    <path d="M 66.125 336 
L 66.125 108.4 
" style="fill:none;stroke:#222222;stroke-linecap:square;stroke-linejoin:miter;"/>
   </g>
   <g id="patch_4">
    <path d="M 359.6 336 
L 359.6 108.4 
" style="fill:none;stroke:#222222;stroke-linecap:square;stroke-linejoin:miter;"/>
   </g>
   <g id="patch_5">
    <path d="M 66.125 336 
L 359.6 336 
" style="fill:none;stroke:#222222;stroke-linecap:square;stroke-linejoin:miter;"/>
   </g>
   <g id="patch_6">
    <path d="M 66.125 108.4 
L 359.6 108.4 
" style="fill:none;stroke:#222222;stroke-linecap:square;stroke-linejoin:miter;"/>
   </g>
   <g id="text_17">
    <!-- r=0.917 -->
    <defs>
     <path d="M 10.59375 45.40625 
L 73.1875 45.40625 
L 73.1875 37.203125 
L 10.59375 37.203125 
z
M 10.59375 25.484375 
L 73.1875 25.484375 
L 73.1875 17.1875 
L 10.59375 17.1875 
z
" id="DejaVuSans-3d"/>
     <path d="M 10.6875 12.40625 
L 21 12.40625 
L 21 0 
L 10.6875 0 
z
" id="DejaVuSans-2e"/>
     <path d="M 10.984375 1.515625 
L 10.984375 10.5 
Q 14.703125 8.734375 18.5 7.8125 
Q 22.3125 6.890625 25.984375 6.890625 
Q 35.75 6.890625 40.890625 13.453125 
Q 46.046875 20.015625 46.78125 33.40625 
Q 43.953125 29.203125 39.59375 26.953125 
Q 35.25 24.703125 29.984375 24.703125 
Q 19.046875 24.703125 12.671875 31.3125 
Q 6.296875 37.9375 6.296875 49.421875 
Q 6.296875 60.640625 12.9375 67.421875 
Q 19.578125 74.21875 30.609375 74.21875 
Q 43.265625 74.21875 49.921875 64.515625 
Q 56.59375 54.828125 56.59375 36.375 
Q 56.59375 19.140625 48.40625 8.859375 
Q 40.234375 -1.421875 26.421875 -1.421875 
Q 22.703125 -1.421875 18.890625 -0.6875 
Q 15.09375 0.046875 10.984375 1.515625 
z
M 30.609375 32.421875 
Q 37.25 32.421875 41.125 36.953125 
Q 45.015625 41.5 45.015625 49.421875 
Q 45.015625 57.28125 41.125 61.84375 
Q 37.25 66.40625 30.609375 66.40625 
Q 23.96875 66.40625 20.09375 61.84375 
Q 16.21875 57.28125 16.21875 49.421875 
Q 16.21875 41.5 20.09375 36.953125 
Q 23.96875 32.421875 30.609375 32.421875 
z
" id="DejaVuSans-39"/>
     <path d="M 8.203125 72.90625 
L 55.078125 72.90625 
L 55.078125 68.703125 
L 28.609375 0 
L 18.3125 0 
L 43.21875 64.59375 
L 8.203125 64.59375 
z
" id="DejaVuSans-37"/>
    </defs>
    <g style="fill:#ce4ad0;" transform="translate(279.943432 329.944279)scale(0.18 -0.18)">
     <use xlink:href="#DejaVuSans-72"/>
     <use x="41.113281" xlink:href="#DejaVuSans-3d"/>
     <use x="124.902344" xlink:href="#DejaVuSans-30"/>
     <use x="188.525391" xlink:href="#DejaVuSans-2e"/>
     <use x="220.3125" xlink:href="#DejaVuSans-39"/>
     <use x="283.935547" xlink:href="#DejaVuSans-31"/>
     <use x="347.558594" xlink:href="#DejaVuSans-37"/>
    </g>
   </g>
  </g>
  <g id="axes_2">
   <g id="patch_7">
    <path clip-path="url(#p6e432d2238)" d="M 79.480032 101.2 
L 92.818279 101.2 
L 92.818279 18.914286 
L 79.480032 18.914286 
z
" style="fill:#00bfff;stroke:#ffffff;stroke-linejoin:miter;"/>
   </g>
   <g id="patch_8">
    <path clip-path="url(#p6e432d2238)" d="M 92.818279 101.2 
L 106.156526 101.2 
L 106.156526 18.914286 
L 92.818279 18.914286 
z
" style="fill:#00bfff;stroke:#ffffff;stroke-linejoin:miter;"/>
   </g>
   <g id="patch_9">
    <path clip-path="url(#p6e432d2238)" d="M 106.156526 101.2 
L 119.494772 101.2 
L 119.494772 30.669388 
L 106.156526 30.669388 
z
" style="fill:#00bfff;stroke:#ffffff;stroke-linejoin:miter;"/>
   </g>
   <g id="patch_10">
    <path clip-path="url(#p6e432d2238)" d="M 119.494772 101.2 
L 132.833019 101.2 
L 132.833019 18.914286 
L 119.494772 18.914286 
z
" style="fill:#00bfff;stroke:#ffffff;stroke-linejoin:miter;"/>
   </g>
   <g id="patch_11">
    <path clip-path="url(#p6e432d2238)" d="M 132.833019 101.2 
L 146.171266 101.2 
L 146.171266 30.669388 
L 132.833019 30.669388 
z
" style="fill:#00bfff;stroke:#ffffff;stroke-linejoin:miter;"/>
   </g>
   <g id="patch_12">
    <path clip-path="url(#p6e432d2238)" d="M 146.171266 101.2 
L 159.509513 101.2 
L 159.509513 18.914286 
L 146.171266 18.914286 
z
" style="fill:#00bfff;stroke:#ffffff;stroke-linejoin:miter;"/>
   </g>
   <g id="patch_13">
    <path clip-path="url(#p6e432d2238)" d="M 159.509513 101.2 
L 172.84776 101.2 
L 172.84776 18.914286 
L 159.509513 18.914286 
z
" style="fill:#00bfff;stroke:#ffffff;stroke-linejoin:miter;"/>
   </g>
   <g id="patch_14">
    <path clip-path="url(#p6e432d2238)" d="M 172.84776 101.2 
L 186.186006 101.2 
L 186.186006 30.669388 
L 172.84776 30.669388 
z
" style="fill:#00bfff;stroke:#ffffff;stroke-linejoin:miter;"/>
   </g>
   <g id="patch_15">
    <path clip-path="url(#p6e432d2238)" d="M 186.186006 101.2 
L 199.524253 101.2 
L 199.524253 18.914286 
L 186.186006 18.914286 
z
" style="fill:#00bfff;stroke:#ffffff;stroke-linejoin:miter;"/>
   </g>
   <g id="patch_16">
    <path clip-path="url(#p6e432d2238)" d="M 199.524253 101.2 
L 212.8625 101.2 
L 212.8625 30.669388 
L 199.524253 30.669388 
z
" style="fill:#00bfff;stroke:#ffffff;stroke-linejoin:miter;"/>
   </g>
   <g id="patch_17">
    <path clip-path="url(#p6e432d2238)" d="M 212.8625 101.2 
L 226.200747 101.2 
L 226.200747 18.914286 
L 212.8625 18.914286 
z
" style="fill:#00bfff;stroke:#ffffff;stroke-linejoin:miter;"/>
   </g>
   <g id="patch_18">
    <path clip-path="url(#p6e432d2238)" d="M 226.200747 101.2 
L 239.538994 101.2 
L 239.538994 18.914286 
L 226.200747 18.914286 
z
" style="fill:#00bfff;stroke:#ffffff;stroke-linejoin:miter;"/>
   </g>
   <g id="patch_19">
    <path clip-path="url(#p6e432d2238)" d="M 239.538994 101.2 
L 252.87724 101.2 
L 252.87724 30.669388 
L 239.538994 30.669388 
z
" style="fill:#00bfff;stroke:#ffffff;stroke-linejoin:miter;"/>
   </g>
   <g id="patch_20">
    <path clip-path="url(#p6e432d2238)" d="M 252.87724 101.2 
L 266.215487 101.2 
L 266.215487 18.914286 
L 252.87724 18.914286 
z
" style="fill:#00bfff;stroke:#ffffff;stroke-linejoin:miter;"/>
   </g>
   <g id="patch_21">
    <path clip-path="url(#p6e432d2238)" d="M 266.215487 101.2 
L 279.553734 101.2 
L 279.553734 30.669388 
L 266.215487 30.669388 
z
" style="fill:#00bfff;stroke:#ffffff;stroke-linejoin:miter;"/>
   </g>
   <g id="patch_22">
    <path clip-path="url(#p6e432d2238)" d="M 279.553734 101.2 
L 292.891981 101.2 
L 292.891981 18.914286 
L 279.553734 18.914286 
z
" style="fill:#00bfff;stroke:#ffffff;stroke-linejoin:miter;"/>
   </g>
   <g id="patch_23">
    <path clip-path="url(#p6e432d2238)" d="M 292.891981 101.2 
L 306.230228 101.2 
L 306.230228 18.914286 
L 292.891981 18.914286 
z
" style="fill:#00bfff;stroke:#ffffff;stroke-linejoin:miter;"/>
   </g>
   <g id="patch_24">
    <path clip-path="url(#p6e432d2238)" d="M 306.230228 101.2 
L 319.568474 101.2 
L 319.568474 30.669388 
L 306.230228 30.669388 
z
" style="fill:#00bfff;stroke:#ffffff;stroke-linejoin:miter;"/>
   </g>
   <g id="patch_25">
    <path clip-path="url(#p6e432d2238)" d="M 319.568474 101.2 
L 332.906721 101.2 
L 332.906721 18.914286 
L 319.568474 18.914286 
z
" style="fill:#00bfff;stroke:#ffffff;stroke-linejoin:miter;"/>
   </g>
   <g id="patch_26">
    <path clip-path="url(#p6e432d2238)" d="M 332.906721 101.2 
L 346.244968 101.2 
L 346.244968 18.914286 
L 332.906721 18.914286 
z
" style="fill:#00bfff;stroke:#ffffff;stroke-linejoin:miter;"/>
   </g>
   <g id="line2d_15">
    <path clip-path="url(#p6e432d2238)" d="M 79.480032 65.204564 
L 82.174627 63.261285 
L 84.869223 61.330757 
L 87.563818 59.422053 
L 90.258413 57.54394 
L 92.953009 55.704754 
L 95.647604 53.91229 
L 98.342199 52.173702 
L 101.036795 50.495427 
L 103.73139 48.883108 
L 106.425985 47.34155 
L 109.120581 45.874689 
L 111.815176 44.485569 
L 114.509771 43.176353 
L 117.204366 41.948339 
L 119.898962 40.80199 
L 122.593557 39.736987 
L 125.288152 38.752283 
L 127.982748 37.846171 
L 130.677343 37.01636 
L 133.371938 36.260056 
L 136.066534 35.574039 
L 138.761129 34.954748 
L 141.455724 34.398364 
L 144.15032 33.900883 
L 146.844915 33.458196 
L 149.53951 33.066148 
L 152.234106 32.720607 
L 154.928701 32.41751 
L 157.623296 32.152916 
L 160.317891 31.923039 
L 163.012487 31.724282 
L 165.707082 31.553255 
L 168.401677 31.406801 
L 171.096273 31.281995 
L 173.790868 31.176157 
L 176.485463 31.08685 
L 179.180059 31.011874 
L 181.874654 30.949258 
L 184.569249 30.897254 
L 187.263845 30.854324 
L 189.95844 30.819122 
L 192.653035 30.79049 
L 195.34763 30.767436 
L 198.042226 30.749124 
L 200.736821 30.734865 
L 203.431416 30.7241 
L 206.126012 30.716395 
L 208.820607 30.711432 
L 211.515202 30.709003 
L 214.209798 30.709003 
L 216.904393 30.711432 
L 219.598988 30.716395 
L 222.293584 30.7241 
L 224.988179 30.734865 
L 227.682774 30.749124 
L 230.37737 30.767436 
L 233.071965 30.79049 
L 235.76656 30.819122 
L 238.461155 30.854324 
L 241.155751 30.897254 
L 243.850346 30.949258 
L 246.544941 31.011874 
L 249.239537 31.08685 
L 251.934132 31.176157 
L 254.628727 31.281995 
L 257.323323 31.406801 
L 260.017918 31.553255 
L 262.712513 31.724282 
L 265.407109 31.923039 
L 268.101704 32.152916 
L 270.796299 32.41751 
L 273.490894 32.720607 
L 276.18549 33.066148 
L 278.880085 33.458196 
L 281.57468 33.900883 
L 284.269276 34.398364 
L 286.963871 34.954748 
L 289.658466 35.574039 
L 292.353062 36.260056 
L 295.047657 37.01636 
L 297.742252 37.846171 
L 300.436848 38.752283 
L 303.131443 39.736987 
L 305.826038 40.80199 
L 308.520634 41.948339 
L 311.215229 43.176353 
L 313.909824 44.485569 
L 316.604419 45.874689 
L 319.299015 47.34155 
L 321.99361 48.883108 
L 324.688205 50.495427 
L 327.382801 52.173702 
L 330.077396 53.91229 
L 332.771991 55.704754 
L 335.466587 57.54394 
L 338.161182 59.422053 
L 340.855777 61.330757 
L 343.550373 63.261285 
L 346.244968 65.204564 
" style="fill:none;stroke:#fb4c52;stroke-linecap:square;stroke-width:1.5;"/>
   </g>
  </g>
  <g id="axes_3">
   <g id="patch_27">
    <path clip-path="url(#paf27c9f988)" d="M 366.8 325.640189 
L 449.085714 325.640189 
L 449.085714 315.29617 
L 366.8 315.29617 
z
" style="fill:#00bfff;stroke:#ffffff;stroke-linejoin:miter;"/>
   </g>
   <g id="patch_28">
    <path clip-path="url(#paf27c9f988)" d="M 366.8 315.29617 
L 449.085714 315.29617 
L 449.085714 304.952152 
L 366.8 304.952152 
z
" style="fill:#00bfff;stroke:#ffffff;stroke-linejoin:miter;"/>
   </g>
   <g id="patch_29">
    <path clip-path="url(#paf27c9f988)" d="M 366.8 304.952152 
L 437.330612 304.952152 
L 437.330612 294.608133 
L 366.8 294.608133 
z
" style="fill:#00bfff;stroke:#ffffff;stroke-linejoin:miter;"/>
   </g>
   <g id="patch_30">
    <path clip-path="url(#paf27c9f988)" d="M 366.8 294.608133 
L 449.085714 294.608133 
L 449.085714 284.264114 
L 366.8 284.264114 
z
" style="fill:#00bfff;stroke:#ffffff;stroke-linejoin:miter;"/>
   </g>
   <g id="patch_31">
    <path clip-path="url(#paf27c9f988)" d="M 366.8 284.264114 
L 437.330612 284.264114 
L 437.330612 273.920095 
L 366.8 273.920095 
z
" style="fill:#00bfff;stroke:#ffffff;stroke-linejoin:miter;"/>
   </g>
   <g id="patch_32">
    <path clip-path="url(#paf27c9f988)" d="M 366.8 273.920095 
L 449.085714 273.920095 
L 449.085714 263.576076 
L 366.8 263.576076 
z
" style="fill:#00bfff;stroke:#ffffff;stroke-linejoin:miter;"/>
   </g>
   <g id="patch_33">
    <path clip-path="url(#paf27c9f988)" d="M 366.8 263.576076 
L 449.085714 263.576076 
L 449.085714 253.232057 
L 366.8 253.232057 
z
" style="fill:#00bfff;stroke:#ffffff;stroke-linejoin:miter;"/>
   </g>
   <g id="patch_34">
    <path clip-path="url(#paf27c9f988)" d="M 366.8 253.232057 
L 437.330612 253.232057 
L 437.330612 242.888038 
L 366.8 242.888038 
z
" style="fill:#00bfff;stroke:#ffffff;stroke-linejoin:miter;"/>
   </g>
   <g id="patch_35">
    <path clip-path="url(#paf27c9f988)" d="M 366.8 242.888038 
L 449.085714 242.888038 
L 449.085714 232.544019 
L 366.8 232.544019 
z
" style="fill:#00bfff;stroke:#ffffff;stroke-linejoin:miter;"/>
   </g>
   <g id="patch_36">
    <path clip-path="url(#paf27c9f988)" d="M 366.8 232.544019 
L 437.330612 232.544019 
L 437.330612 222.2 
L 366.8 222.2 
z
" style="fill:#00bfff;stroke:#ffffff;stroke-linejoin:miter;"/>
   </g>
   <g id="patch_37">
    <path clip-path="url(#paf27c9f988)" d="M 366.8 222.2 
L 449.085714 222.2 
L 449.085714 211.855981 
L 366.8 211.855981 
z
" style="fill:#00bfff;stroke:#ffffff;stroke-linejoin:miter;"/>
   </g>
   <g id="patch_38">
    <path clip-path="url(#paf27c9f988)" d="M 366.8 211.855981 
L 449.085714 211.855981 
L 449.085714 201.511962 
L 366.8 201.511962 
z
" style="fill:#00bfff;stroke:#ffffff;stroke-linejoin:miter;"/>
   </g>
   <g id="patch_39">
    <path clip-path="url(#paf27c9f988)" d="M 366.8 201.511962 
L 437.330612 201.511962 
L 437.330612 191.167943 
L 366.8 191.167943 
z
" style="fill:#00bfff;stroke:#ffffff;stroke-linejoin:miter;"/>
   </g>
   <g id="patch_40">
    <path clip-path="url(#paf27c9f988)" d="M 366.8 191.167943 
L 449.085714 191.167943 
L 449.085714 180.823924 
L 366.8 180.823924 
z
" style="fill:#00bfff;stroke:#ffffff;stroke-linejoin:miter;"/>
   </g>
   <g id="patch_41">
    <path clip-path="url(#paf27c9f988)" d="M 366.8 180.823924 
L 437.330612 180.823924 
L 437.330612 170.479905 
L 366.8 170.479905 
z
" style="fill:#00bfff;stroke:#ffffff;stroke-linejoin:miter;"/>
   </g>
   <g id="patch_42">
    <path clip-path="url(#paf27c9f988)" d="M 366.8 170.479905 
L 449.085714 170.479905 
L 449.085714 160.135886 
L 366.8 160.135886 
z
" style="fill:#00bfff;stroke:#ffffff;stroke-linejoin:miter;"/>
   </g>
   <g id="patch_43">
    <path clip-path="url(#paf27c9f988)" d="M 366.8 160.135886 
L 449.085714 160.135886 
L 449.085714 149.791867 
L 366.8 149.791867 
z
" style="fill:#00bfff;stroke:#ffffff;stroke-linejoin:miter;"/>
   </g>
   <g id="patch_44">
    <path clip-path="url(#paf27c9f988)" d="M 366.8 149.791867 
L 437.330612 149.791867 
L 437.330612 139.447848 
L 366.8 139.447848 
z
" style="fill:#00bfff;stroke:#ffffff;stroke-linejoin:miter;"/>
   </g>
   <g id="patch_45">
    <path clip-path="url(#paf27c9f988)" d="M 366.8 139.447848 
L 449.085714 139.447848 
L 449.085714 129.10383 
L 366.8 129.10383 
z
" style="fill:#00bfff;stroke:#ffffff;stroke-linejoin:miter;"/>
   </g>
   <g id="patch_46">
    <path clip-path="url(#paf27c9f988)" d="M 366.8 129.10383 
L 449.085714 129.10383 
L 449.085714 118.759811 
L 366.8 118.759811 
z
" style="fill:#00bfff;stroke:#ffffff;stroke-linejoin:miter;"/>
   </g>
   <g id="line2d_16">
    <path clip-path="url(#paf27c9f988)" d="M 402.795436 325.640189 
L 404.738715 323.550489 
L 406.669243 321.460788 
L 408.577947 319.371087 
L 410.45606 317.281386 
L 412.295246 315.191685 
L 414.08771 313.101985 
L 415.826298 311.012284 
L 417.504573 308.922583 
L 419.116892 306.832882 
L 420.65845 304.743181 
L 422.125311 302.653481 
L 423.514431 300.56378 
L 424.823647 298.474079 
L 426.051661 296.384378 
L 427.19801 294.294677 
L 428.263013 292.204977 
L 429.247717 290.115276 
L 430.153829 288.025575 
L 430.98364 285.935874 
L 431.739944 283.846174 
L 432.425961 281.756473 
L 433.045252 279.666772 
L 433.601636 277.577071 
L 434.099117 275.48737 
L 434.541804 273.39767 
L 434.933852 271.307969 
L 435.279393 269.218268 
L 435.58249 267.128567 
L 435.847084 265.038866 
L 436.076961 262.949166 
L 436.275718 260.859465 
L 436.446745 258.769764 
L 436.593199 256.680063 
L 436.718005 254.590362 
L 436.823843 252.500662 
L 436.91315 250.410961 
L 436.988126 248.32126 
L 437.050742 246.231559 
L 437.102746 244.141858 
L 437.145676 242.052158 
L 437.180878 239.962457 
L 437.20951 237.872756 
L 437.232564 235.783055 
L 437.250876 233.693354 
L 437.265135 231.603654 
L 437.2759 229.513953 
L 437.283605 227.424252 
L 437.288568 225.334551 
L 437.290997 223.24485 
L 437.290997 221.15515 
L 437.288568 219.065449 
L 437.283605 216.975748 
L 437.2759 214.886047 
L 437.265135 212.796346 
L 437.250876 210.706646 
L 437.232564 208.616945 
L 437.20951 206.527244 
L 437.180878 204.437543 
L 437.145676 202.347842 
L 437.102746 200.258142 
L 437.050742 198.168441 
L 436.988126 196.07874 
L 436.91315 193.989039 
L 436.823843 191.899338 
L 436.718005 189.809638 
L 436.593199 187.719937 
L 436.446745 185.630236 
L 436.275718 183.540535 
L 436.076961 181.450834 
L 435.847084 179.361134 
L 435.58249 177.271433 
L 435.279393 175.181732 
L 434.933852 173.092031 
L 434.541804 171.00233 
L 434.099117 168.91263 
L 433.601636 166.822929 
L 433.045252 164.733228 
L 432.425961 162.643527 
L 431.739944 160.553826 
L 430.98364 158.464126 
L 430.153829 156.374425 
L 429.247717 154.284724 
L 428.263013 152.195023 
L 427.19801 150.105323 
L 426.051661 148.015622 
L 424.823647 145.925921 
L 423.514431 143.83622 
L 422.125311 141.746519 
L 420.65845 139.656819 
L 419.116892 137.567118 
L 417.504573 135.477417 
L 415.826298 133.387716 
L 414.08771 131.298015 
L 412.295246 129.208315 
L 410.45606 127.118614 
L 408.577947 125.028913 
L 406.669243 122.939212 
L 404.738715 120.849511 
L 402.795436 118.759811 
" style="fill:none;stroke:#fb4c52;stroke-linecap:square;stroke-width:1.5;"/>
   </g>
  </g>
 </g>
 <defs>
  <clipPath id="pd70d5d06ba">
   <rect height="227.6" width="293.475" x="66.125" y="108.4"/>
  </clipPath>
  <clipPath id="p6e432d2238">
   <rect height="86.4" width="293.475" x="66.125" y="14.8"/>
  </clipPath>
  <clipPath id="paf27c9f988">
   <rect height="227.6" width="86.4" x="366.8" y="108.4"/>
  </clipPath>
 </defs>
</svg>
