<?xml version="1.0" encoding="utf-8" standalone="no"?>
<!DOCTYPE svg PUBLIC "-//W3C//DTD SVG 1.1//EN"
  "http://www.w3.org/Graphics/SVG/1.1/DTD/svg11.dtd">
<!-- Created with matplotlib (http://matplotlib.org/) -->
<svg height="288pt" version="1.1" viewBox="0 0 432 288" width="432pt" xmlns="http://www.w3.org/2000/svg" xmlns:xlink="http://www.w3.org/1999/xlink">
 <defs>
  <style type="text/css">
*{stroke-linecap:butt;stroke-linejoin:round;}
  </style>
 </defs>
 <g id="figure_1">
  <g id="patch_1">
   <path d="M 0 288 
L 432 288 
L 432 0 
L 0 0 
z
" style="fill:none;"/>
  </g>
  <g id="axes_1">
   <g id="patch_2">
    <path d="M 14.8 225.2 
L 417.2 225.2 
L 417.2 14.8 
L 14.8 14.8 
z
" style="fill:none;"/>
   </g>
   <g id="patch_3">
    <path clip-path="url(#p5f8c832328)" d="M 14.8 224.761668 
L 15.202803 224.749223 
L 15.605606 224.736454 
L 16.008408 224.723354 
L 16.411211 224.709916 
L 16.814014 224.696131 
L 17.216817 224.681992 
L 17.61962 224.667489 
L 18.022422 224.652616 
L 18.425225 224.637364 
L 18.828028 224.621724 
L 19.230831 224.605687 
L 19.633634 224.589244 
L 20.036436 224.572387 
L 20.439239 224.555106 
L 20.842042 224.537392 
L 21.244845 224.519235 
L 21.647648 224.500625 
L 22.05045 224.481552 
L 22.453253 224.462006 
L 22.856056 224.441978 
L 23.258859 224.421456 
L 23.661662 224.400429 
L 24.064464 224.378887 
L 24.467267 224.356819 
L 24.87007 224.334214 
L 25.272873 224.311059 
L 25.675676 224.287343 
L 26.078478 224.263055 
L 26.481281 224.238183 
L 26.884084 224.212713 
L 27.286887 224.186634 
L 27.68969 224.159933 
L 28.092492 224.132596 
L 28.495295 224.104611 
L 28.898098 224.075965 
L 29.300901 224.046644 
L 29.703704 224.016633 
L 30.106507 223.98592 
L 30.509309 223.954489 
L 30.912112 223.922326 
L 31.314915 223.889417 
L 31.717718 223.855747 
L 32.120521 223.8213 
L 32.523323 223.786061 
L 32.926126 223.750014 
L 33.328929 223.713144 
L 33.731732 223.675434 
L 34.134535 223.636867 
L 34.537337 223.597428 
L 34.94014 223.557099 
L 35.342943 223.515863 
L 35.745746 223.473703 
L 36.148549 223.430601 
L 36.551351 223.386539 
L 36.954154 223.341499 
L 37.356957 223.295463 
L 37.75976 223.248411 
L 38.162563 223.200326 
L 38.565365 223.151186 
L 38.968168 223.100974 
L 39.370971 223.049669 
L 39.773774 222.997252 
L 40.176577 222.943701 
L 40.579379 222.888997 
L 40.982182 222.833118 
L 41.384985 222.776044 
L 41.787788 222.717752 
L 42.190591 222.658222 
L 42.593393 222.597431 
L 42.996196 222.535357 
L 43.398999 222.471977 
L 43.801802 222.407269 
L 44.204605 222.341209 
L 44.607407 222.273774 
L 45.01021 222.204941 
L 45.413013 222.134685 
L 45.815816 222.062983 
L 46.218619 221.989809 
L 46.621421 221.915138 
L 47.024224 221.838947 
L 47.427027 221.761209 
L 47.82983 221.681898 
L 48.232633 221.600989 
L 48.635435 221.518455 
L 49.038238 221.43427 
L 49.441041 221.348407 
L 49.843844 221.260839 
L 50.246647 221.171539 
L 50.649449 221.080478 
L 51.052252 220.987629 
L 51.455055 220.892963 
L 51.857858 220.796453 
L 52.260661 220.698068 
L 52.663463 220.597781 
L 53.066266 220.495561 
L 53.469069 220.391379 
L 53.871872 220.285205 
L 54.274675 220.177009 
L 54.677477 220.066761 
L 55.08028 219.954429 
L 55.483083 219.839982 
L 55.885886 219.72339 
L 56.288689 219.60462 
L 56.691491 219.483641 
L 57.094294 219.360421 
L 57.497097 219.234928 
L 57.8999 219.107128 
L 58.302703 218.97699 
L 58.705506 218.844479 
L 59.108308 218.709563 
L 59.511111 218.572208 
L 59.913914 218.43238 
L 60.316717 218.290045 
L 60.71952 218.14517 
L 61.122322 217.997718 
L 61.525125 217.847656 
L 61.927928 217.694949 
L 62.330731 217.539562 
L 62.733534 217.381459 
L 63.136336 217.220604 
L 63.539139 217.056962 
L 63.941942 216.890497 
L 64.344745 216.721173 
L 64.747548 216.548954 
L 65.15035 216.373802 
L 65.553153 216.195682 
L 65.955956 216.014556 
L 66.358759 215.830387 
L 66.761562 215.643139 
L 67.164364 215.452774 
L 67.567167 215.259254 
L 67.96997 215.062542 
L 68.372773 214.862601 
L 68.775576 214.659392 
L 69.178378 214.452878 
L 69.581181 214.243021 
L 69.983984 214.029782 
L 70.386787 213.813123 
L 70.78959 213.593006 
L 71.192392 213.369393 
L 71.595195 213.142245 
L 71.997998 212.911524 
L 72.400801 212.677192 
L 72.803604 212.439209 
L 73.206406 212.197537 
L 73.609209 211.952138 
L 74.012012 211.702973 
L 74.414815 211.450004 
L 74.817618 211.193192 
L 75.22042 210.932498 
L 75.623223 210.667884 
L 76.026026 210.399311 
L 76.428829 210.126742 
L 76.831632 209.850137 
L 77.234434 209.569459 
L 77.637237 209.284669 
L 78.04004 208.995729 
L 78.442843 208.702602 
L 78.845646 208.405249 
L 79.248448 208.103633 
L 79.651251 207.797717 
L 80.054054 207.487462 
L 80.456857 207.172832 
L 80.85966 206.85379 
L 81.262462 206.530299 
L 81.665265 206.202322 
L 82.068068 205.869823 
L 82.470871 205.532766 
L 82.873674 205.191115 
L 83.276476 204.844834 
L 83.679279 204.493888 
L 84.082082 204.138243 
L 84.484885 203.777862 
L 84.887688 203.412713 
L 85.29049 203.04276 
L 85.693293 202.66797 
L 86.096096 202.28831 
L 86.498899 201.903747 
L 86.901702 201.514249 
L 87.304505 201.119782 
L 87.707307 200.720316 
L 88.11011 200.315818 
L 88.512913 199.906259 
L 88.915716 199.491608 
L 89.318519 199.071835 
L 89.721321 198.646911 
L 90.124124 198.216806 
L 90.526927 197.781493 
L 90.92973 197.340944 
L 91.332533 196.895132 
L 91.735335 196.44403 
L 92.138138 195.987611 
L 92.540941 195.525852 
L 92.943744 195.058726 
L 93.346547 194.58621 
L 93.749349 194.108281 
L 94.152152 193.624915 
L 94.554955 193.136091 
L 94.957758 192.641787 
L 95.360561 192.141983 
L 95.763363 191.636659 
L 96.166166 191.125795 
L 96.568969 190.609375 
L 96.971772 190.087379 
L 97.374575 189.559791 
L 97.777377 189.026596 
L 98.18018 188.487779 
L 98.582983 187.943325 
L 98.985786 187.393221 
L 99.388589 186.837455 
L 99.791391 186.276015 
L 100.194194 185.708891 
L 100.596997 185.136073 
L 100.9998 184.557553 
L 101.402603 183.973324 
L 101.805405 183.383377 
L 102.208208 182.787709 
L 102.611011 182.186314 
L 103.013814 181.579188 
L 103.416617 180.96633 
L 103.819419 180.347738 
L 104.222222 179.723411 
L 104.625025 179.093351 
L 105.027828 178.45756 
L 105.430631 177.816039 
L 105.833433 177.168795 
L 106.236236 176.515831 
L 106.639039 175.857155 
L 107.041842 175.192775 
L 107.444645 174.522698 
L 107.847447 173.846937 
L 108.25025 173.165501 
L 108.653053 172.478404 
L 109.055856 171.785659 
L 109.458659 171.087283 
L 109.861461 170.38329 
L 110.264264 169.6737 
L 110.667067 168.958531 
L 111.06987 168.237804 
L 111.472673 167.511541 
L 111.875475 166.779764 
L 112.278278 166.042498 
L 112.681081 165.29977 
L 113.083884 164.551606 
L 113.486687 163.798034 
L 113.889489 163.039086 
L 114.292292 162.274793 
L 114.695095 161.505187 
L 115.097898 160.730303 
L 115.500701 159.950176 
L 115.903504 159.164844 
L 116.306306 158.374346 
L 116.709109 157.578721 
L 117.111912 156.778011 
L 117.514715 155.97226 
L 117.917518 155.161512 
L 118.32032 154.345813 
L 118.723123 153.52521 
L 119.125926 152.699752 
L 119.528729 151.869491 
L 119.931532 151.034478 
L 120.334334 150.194767 
L 120.737137 149.350413 
L 121.13994 148.501473 
L 121.542743 147.648004 
L 121.945546 146.790067 
L 122.348348 145.927722 
L 122.751151 145.061033 
L 123.153954 144.190063 
L 123.556757 143.314878 
L 123.95956 142.435547 
L 124.362362 141.552137 
L 124.765165 140.664718 
L 125.167968 139.773364 
L 125.570771 138.878147 
L 125.973574 137.979142 
L 126.376376 137.076426 
L 126.779179 136.170076 
L 127.181982 135.260173 
L 127.584785 134.346796 
L 127.987588 133.430029 
L 128.39039 132.509955 
L 128.793193 131.586661 
L 129.195996 130.660232 
L 129.598799 129.730757 
L 130.001602 128.798327 
L 130.404404 127.863032 
L 130.807207 126.924965 
L 131.21001 125.98422 
L 131.612813 125.040893 
L 132.015616 124.095081 
L 132.418418 123.146882 
L 132.821221 122.196396 
L 133.224024 121.243725 
L 133.626827 120.288971 
L 134.02963 119.332237 
L 134.432432 118.373629 
L 134.835235 117.413253 
L 135.238038 116.451218 
L 135.640841 115.487632 
L 136.043644 114.522606 
L 136.446446 113.556251 
L 136.849249 112.58868 
L 137.252052 111.620008 
L 137.654855 110.65035 
L 138.057658 109.679821 
L 138.46046 108.708541 
L 138.863263 107.736627 
L 139.266066 106.764199 
L 139.668869 105.791379 
L 140.071672 104.818288 
L 140.474474 103.84505 
L 140.877277 102.871789 
L 141.28008 101.898629 
L 141.682883 100.925697 
L 142.085686 99.953121 
L 142.488488 98.981027 
L 142.891291 98.009545 
L 143.294094 97.038805 
L 143.696897 96.068938 
L 144.0997 95.100074 
L 144.502503 94.132346 
L 144.905305 93.165887 
L 145.308108 92.200832 
L 145.710911 91.237313 
L 146.113714 90.275467 
L 146.516517 89.315429 
L 146.919319 88.357336 
L 147.322122 87.401325 
L 147.724925 86.447533 
L 148.127728 85.496099 
L 148.530531 84.54716 
L 148.933333 83.600857 
L 149.336136 82.657329 
L 149.738939 81.716715 
L 150.141742 80.779155 
L 150.544545 79.844791 
L 150.947347 78.913764 
L 151.35015 77.986214 
L 151.752953 77.062282 
L 152.155756 76.142111 
L 152.558559 75.225843 
L 152.961361 74.313618 
L 153.364164 73.405579 
L 153.766967 72.501868 
L 154.16977 71.602627 
L 154.572573 70.707999 
L 154.975375 69.818124 
L 155.378178 68.933144 
L 155.780981 68.053203 
L 156.183784 67.17844 
L 156.586587 66.308997 
L 156.989389 65.445016 
L 157.392192 64.586638 
L 157.794995 63.734001 
L 158.197798 62.887248 
L 158.600601 62.046517 
L 159.003403 61.211949 
L 159.406206 60.383681 
L 159.809009 59.561851 
L 160.211812 58.746599 
L 160.614615 57.938061 
L 161.017417 57.136373 
L 161.42022 56.341671 
L 161.823023 55.554092 
L 162.225826 54.773768 
L 162.628629 54.000834 
L 163.031431 53.235423 
L 163.434234 52.477666 
L 163.837037 51.727695 
L 164.23984 50.98564 
L 164.642643 50.251631 
L 165.045445 49.525795 
L 165.448248 48.808259 
L 165.851051 48.09915 
L 166.253854 47.398593 
L 166.656657 46.706712 
L 167.059459 46.023629 
L 167.462262 45.349466 
L 167.865065 44.684342 
L 168.267868 44.028378 
L 168.670671 43.38169 
L 169.073473 42.744394 
L 169.476276 42.116606 
L 169.879079 41.498439 
L 170.281882 40.890004 
L 170.684685 40.291412 
L 171.087487 39.702772 
L 171.49029 39.124192 
L 171.893093 38.555776 
L 172.295896 37.997629 
L 172.698699 37.449854 
L 173.101502 36.912551 
L 173.504304 36.385818 
L 173.907107 35.869754 
L 174.30991 35.364454 
L 174.712713 34.870011 
L 175.115516 34.386517 
L 175.518318 33.914062 
L 175.921121 33.452734 
L 176.323924 33.00262 
L 176.726727 32.563802 
L 177.12953 32.136364 
L 177.532332 31.720385 
L 177.935135 31.315943 
L 178.337938 30.923116 
L 178.740741 30.541976 
L 179.143544 30.172595 
L 179.546346 29.815043 
L 179.949149 29.469389 
L 180.351952 29.135696 
L 180.754755 28.814029 
L 181.157558 28.504448 
L 181.56036 28.207012 
L 181.963163 27.921778 
L 182.365966 27.6488 
L 182.768769 27.38813 
L 183.171572 27.139818 
L 183.574374 26.903911 
L 183.977177 26.680454 
L 184.37998 26.46949 
L 184.782783 26.271059 
L 185.185586 26.085199 
L 185.588388 25.911946 
L 185.991191 25.751332 
L 186.393994 25.60339 
L 186.796797 25.468146 
L 187.1996 25.345628 
L 187.602402 25.235858 
L 188.005205 25.138858 
L 188.408008 25.054647 
L 188.810811 24.98324 
L 189.213614 24.924651 
L 189.616416 24.878891 
L 190.019219 24.84597 
L 190.422022 24.825893 
L 190.824825 24.818665 
L 191.227628 24.824287 
L 191.63043 24.842758 
L 192.033233 24.874074 
L 192.436036 24.918229 
L 192.838839 24.975215 
L 193.241642 25.04502 
L 193.644444 25.127632 
L 194.047247 25.223035 
L 194.45005 25.331209 
L 194.852853 25.452135 
L 195.255656 25.585789 
L 195.658458 25.732146 
L 196.061261 25.891177 
L 196.464064 26.062851 
L 196.866867 26.247137 
L 197.26967 26.443999 
L 197.672472 26.653399 
L 198.075275 26.875296 
L 198.478078 27.109649 
L 198.880881 27.356413 
L 199.283684 27.615541 
L 199.686486 27.886983 
L 200.089289 28.170688 
L 200.492092 28.466601 
L 200.894895 28.774666 
L 201.297698 29.094826 
L 201.700501 29.427018 
L 202.103303 29.771181 
L 202.506106 30.127248 
L 202.908909 30.495153 
L 203.311712 30.874826 
L 203.714515 31.266196 
L 204.117317 31.669188 
L 204.52012 32.083728 
L 204.922923 32.509736 
L 205.325726 32.947134 
L 205.728529 33.395839 
L 206.131331 33.855767 
L 206.534134 34.326833 
L 206.936937 34.808948 
L 207.33974 35.302023 
L 207.742543 35.805966 
L 208.145345 36.320685 
L 208.548148 36.846082 
L 208.950951 37.382062 
L 209.353754 37.928526 
L 209.756557 38.485372 
L 210.159359 39.052498 
L 210.562162 39.629801 
L 210.964965 40.217175 
L 211.367768 40.814511 
L 211.770571 41.421702 
L 212.173373 42.038637 
L 212.576176 42.665203 
L 212.978979 43.301288 
L 213.381782 43.946775 
L 213.784585 44.601548 
L 214.187387 45.26549 
L 214.59019 45.93848 
L 214.992993 46.620398 
L 215.395796 47.311122 
L 215.798599 48.010528 
L 216.201401 48.718492 
L 216.604204 49.434887 
L 217.007007 50.159585 
L 217.40981 50.892458 
L 217.812613 51.633376 
L 218.215415 52.382209 
L 218.618218 53.138822 
L 219.021021 53.903084 
L 219.423824 54.674858 
L 219.826627 55.45401 
L 220.229429 56.240402 
L 220.632232 57.033895 
L 221.035035 57.834351 
L 221.437838 58.641627 
L 221.840641 59.455583 
L 222.243443 60.276076 
L 222.646246 61.102959 
L 223.049049 61.936089 
L 223.451852 62.775318 
L 223.854655 63.620497 
L 224.257457 64.471476 
L 224.66026 65.328105 
L 225.063063 66.19023 
L 225.465866 67.057698 
L 225.868669 67.930351 
L 226.271471 68.808032 
L 226.674274 69.690582 
L 227.077077 70.577838 
L 227.47988 71.469637 
L 227.882683 72.365812 
L 228.285485 73.266196 
L 228.688288 74.170617 
L 229.091091 75.078902 
L 229.493894 75.990874 
L 229.896697 76.906353 
L 230.299499 77.825156 
L 230.702302 78.747097 
L 231.105105 79.671986 
L 231.507908 80.599627 
L 231.910711 81.529822 
L 232.313514 82.462367 
L 232.716316 83.397054 
L 233.119119 84.333668 
L 233.521922 85.271989 
L 233.924725 86.211793 
L 234.327528 87.152845 
L 234.73033 88.094907 
L 235.133133 89.037732 
L 235.535936 89.981063 
L 235.938739 90.924638 
L 236.341542 91.868184 
L 236.744344 92.811418 
L 237.147147 93.754049 
L 237.54995 94.695772 
L 237.952753 95.636274 
L 238.355556 96.575228 
L 238.758358 97.512293 
L 239.161161 98.447117 
L 239.563964 99.379334 
L 239.966767 100.30856 
L 240.36957 101.2344 
L 240.772372 102.156438 
L 241.175175 103.074244 
L 241.577978 103.987368 
L 241.980781 104.895345 
L 242.383584 105.797686 
L 242.786386 106.693884 
L 243.189189 107.583412 
L 243.591992 108.46572 
L 243.994795 109.340235 
L 244.397598 110.206363 
L 244.8004 111.063483 
L 245.203203 111.910952 
L 245.606006 112.748102 
L 246.008809 113.574237 
L 246.411612 114.388637 
L 246.814414 115.190553 
L 247.217217 115.979212 
L 247.62002 116.753809 
L 248.022823 117.513514 
L 248.425626 118.25747 
L 248.828428 118.984788 
L 249.231231 119.694555 
L 249.634034 120.385827 
L 250.036837 121.057634 
L 250.43964 121.708976 
L 250.842442 122.338828 
L 251.245245 122.946139 
L 251.648048 123.529829 
L 252.050851 124.088797 
L 252.453654 124.621915 
L 252.856456 125.128035 
L 253.259259 125.605987 
L 253.662062 126.05458 
L 254.064865 126.472608 
L 254.467668 126.858846 
L 254.87047 127.212057 
L 255.273273 127.530994 
L 255.676076 127.8144 
L 256.078879 128.061011 
L 256.481682 128.269562 
L 256.884484 128.438787 
L 257.287287 128.567425 
L 257.69009 128.654222 
L 258.092893 128.697935 
L 258.495696 128.697336 
L 258.898498 128.651217 
L 259.301301 128.558395 
L 259.704104 128.417712 
L 260.106907 128.228048 
L 260.50971 127.988319 
L 260.912513 127.697484 
L 261.315315 127.354551 
L 261.718118 126.958583 
L 262.120921 126.508702 
L 262.523724 126.004095 
L 262.926527 125.444019 
L 263.329329 124.827809 
L 263.732132 124.15488 
L 264.134935 123.424737 
L 264.537738 122.636977 
L 264.940541 121.791297 
L 265.343343 120.887497 
L 265.746146 119.925488 
L 266.148949 118.905297 
L 266.551752 117.827071 
L 266.954555 116.691082 
L 267.357357 115.497732 
L 267.76016 114.247558 
L 268.162963 112.941237 
L 268.565766 111.579586 
L 268.968569 110.163569 
L 269.371371 108.694302 
L 269.774174 107.173049 
L 270.176977 105.60123 
L 270.57978 103.980422 
L 270.982583 102.312357 
L 271.385385 100.598929 
L 271.788188 98.842186 
L 272.190991 97.044337 
L 272.593794 95.207748 
L 272.996597 93.334942 
L 273.399399 91.428592 
L 273.802202 89.491526 
L 274.205005 87.526719 
L 274.607808 85.537288 
L 275.010611 83.526491 
L 275.413413 81.497721 
L 275.816216 79.454496 
L 276.219019 77.400458 
L 276.621822 75.339363 
L 277.024625 73.275074 
L 277.427427 71.211551 
L 277.83023 69.152846 
L 278.233033 67.103089 
L 278.635836 65.066481 
L 279.038639 63.047281 
L 279.441441 61.0498 
L 279.844244 59.078383 
L 280.247047 57.137403 
L 280.64985 55.231246 
L 281.052653 53.364297 
L 281.455455 51.540932 
L 281.858258 49.765503 
L 282.261061 48.042323 
L 282.663864 46.375656 
L 283.066667 44.769703 
L 283.469469 43.228586 
L 283.872272 41.756341 
L 284.275075 40.356899 
L 284.677878 39.034078 
L 285.080681 37.791568 
L 285.483483 36.632919 
L 285.886286 35.56153 
L 286.289089 34.580637 
L 286.691892 33.693302 
L 287.094695 32.902405 
L 287.497497 32.210629 
L 287.9003 31.620457 
L 288.303103 31.134158 
L 288.705906 30.753785 
L 289.108709 30.481159 
L 289.511512 30.317874 
L 289.914314 30.265281 
L 290.317117 30.32449 
L 290.71992 30.496363 
L 291.122723 30.781514 
L 291.525526 31.180303 
L 291.928328 31.692836 
L 292.331131 32.318968 
L 292.733934 33.058298 
L 293.136737 33.910176 
L 293.53954 34.873702 
L 293.942342 35.947729 
L 294.345145 37.13087 
L 294.747948 38.421502 
L 295.150751 39.817768 
L 295.553554 41.317589 
L 295.956356 42.91867 
L 296.359159 44.618504 
L 296.761962 46.414388 
L 297.164765 48.303426 
L 297.567568 50.28254 
L 297.97037 52.348485 
L 298.373173 54.497857 
L 298.775976 56.727101 
L 299.178779 59.03253 
L 299.581582 61.410332 
L 299.984384 63.856584 
L 300.387187 66.367267 
L 300.78999 68.938274 
L 301.192793 71.565427 
L 301.595596 74.244488 
L 301.998398 76.971176 
L 302.401201 79.741172 
L 302.804004 82.550142 
L 303.206807 85.393739 
L 303.60961 88.267626 
L 304.012412 91.16748 
L 304.415215 94.089008 
L 304.818018 97.027959 
L 305.220821 99.980132 
L 305.623624 102.941389 
L 306.026426 105.907665 
L 306.429229 108.874979 
L 306.832032 111.839439 
L 307.234835 114.797256 
L 307.637638 117.74475 
L 308.04044 120.678353 
L 308.443243 123.594625 
L 308.846046 126.490252 
L 309.248849 129.362057 
L 309.651652 132.206999 
L 310.054454 135.022187 
L 310.457257 137.804872 
L 310.86006 140.55246 
L 311.262863 143.262508 
L 311.665666 145.932729 
L 312.068468 148.560993 
L 312.471271 151.145326 
L 312.874074 153.683911 
L 313.276877 156.175088 
L 313.67968 158.617352 
L 314.082482 161.009354 
L 314.485285 163.349893 
L 314.888088 165.637922 
L 315.290891 167.872537 
L 315.693694 170.052979 
L 316.096496 172.178628 
L 316.499299 174.249 
L 316.902102 176.263743 
L 317.304905 178.22263 
L 317.707708 180.125558 
L 318.110511 181.97254 
L 318.513313 183.763699 
L 318.916116 185.499268 
L 319.318919 187.179579 
L 319.721722 188.805057 
L 320.124525 190.37622 
L 320.527327 191.893669 
L 320.93013 193.358083 
L 321.332933 194.770212 
L 321.735736 196.130875 
L 322.138539 197.440952 
L 322.541341 198.701378 
L 322.944144 199.913139 
L 323.346947 201.077264 
L 323.74975 202.194824 
L 324.152553 203.266923 
L 324.555355 204.294697 
L 324.958158 205.279305 
L 325.360961 206.221928 
L 325.763764 207.123761 
L 326.166567 207.986013 
L 326.569369 208.809901 
L 326.972172 209.596644 
L 327.374975 210.347465 
L 327.777778 211.063581 
L 328.180581 211.746206 
L 328.583383 212.396543 
L 328.986186 213.015785 
L 329.388989 213.605111 
L 329.791792 214.165684 
L 330.194595 214.698646 
L 330.597397 215.205123 
L 331.0002 215.686216 
L 331.403003 216.143004 
L 331.805806 216.57654 
L 332.208609 216.987853 
L 332.611411 217.377942 
L 333.014214 217.747782 
L 333.417017 218.098317 
L 333.81982 218.430462 
L 334.222623 218.745104 
L 334.625425 219.043101 
L 335.028228 219.325277 
L 335.431031 219.592431 
L 335.833834 219.84533 
L 336.236637 220.084712 
L 336.639439 220.311285 
L 337.042242 220.525728 
L 337.445045 220.728692 
L 337.847848 220.920799 
L 338.250651 221.102645 
L 338.653453 221.274798 
L 339.056256 221.437798 
L 339.459059 221.592161 
L 339.861862 221.738379 
L 340.264665 221.876917 
L 340.667467 222.008219 
L 341.07027 222.132704 
L 341.473073 222.250771 
L 341.875876 222.362796 
L 342.278679 222.469136 
L 342.681481 222.570127 
L 343.084284 222.666088 
L 343.487087 222.757318 
L 343.88989 222.8441 
L 344.292693 222.9267 
L 344.695495 223.005368 
L 345.098298 223.080341 
L 345.501101 223.151839 
L 345.903904 223.22007 
L 346.306707 223.285229 
L 346.70951 223.347498 
L 347.112312 223.407049 
L 347.515115 223.464042 
L 347.917918 223.518628 
L 348.320721 223.570946 
L 348.723524 223.621127 
L 349.126326 223.669294 
L 349.529129 223.715563 
L 349.931932 223.760038 
L 350.334735 223.802822 
L 350.737538 223.844006 
L 351.14034 223.883677 
L 351.543143 223.921917 
L 351.945946 223.958801 
L 352.348749 223.994399 
L 352.751552 224.028778 
L 353.154354 224.061998 
L 353.557157 224.094117 
L 353.95996 224.125188 
L 354.362763 224.155261 
L 354.765566 224.184383 
L 355.168368 224.212596 
L 355.571171 224.239941 
L 355.973974 224.266457 
L 356.376777 224.292178 
L 356.77958 224.317137 
L 357.182382 224.341366 
L 357.585185 224.364894 
L 357.987988 224.387749 
L 358.390791 224.409954 
L 358.793594 224.431536 
L 359.196396 224.452516 
L 359.599199 224.472915 
L 360.002002 224.492755 
L 360.404805 224.512053 
L 360.807608 224.530829 
L 361.21041 224.549098 
L 361.613213 224.566877 
L 362.016016 224.584181 
L 362.418819 224.601026 
L 362.821622 224.617424 
L 363.224424 224.633389 
L 363.627227 224.648933 
L 364.03003 224.664069 
L 364.432833 224.678808 
L 364.835636 224.693161 
L 365.238438 224.707139 
L 365.641241 224.720752 
L 366.044044 224.73401 
L 366.446847 224.746922 
L 366.84965 224.759497 
L 367.252452 224.771744 
L 367.655255 224.783671 
L 368.058058 224.795287 
L 368.460861 224.8066 
L 368.863664 224.817618 
L 369.266466 224.828347 
L 369.669269 224.838795 
L 370.072072 224.848969 
L 370.474875 224.858876 
L 370.877678 224.868523 
L 371.28048 224.877915 
L 371.683283 224.88706 
L 372.086086 224.895964 
L 372.488889 224.904631 
L 372.891692 224.913069 
L 373.294494 224.921283 
L 373.697297 224.929278 
L 374.1001 224.93706 
L 374.502903 224.944634 
L 374.905706 224.952005 
L 375.308509 224.959178 
L 375.711311 224.966159 
L 376.114114 224.972951 
L 376.516917 224.97956 
L 376.91972 224.98599 
L 377.322523 224.992245 
L 377.725325 224.99833 
L 378.128128 225.00425 
L 378.530931 225.010007 
L 378.933734 225.015607 
L 379.336537 225.021054 
L 379.739339 225.02635 
L 380.142142 225.0315 
L 380.544945 225.036508 
L 380.947748 225.041378 
L 381.350551 225.046112 
L 381.753353 225.050714 
L 382.156156 225.055188 
L 382.558959 225.059537 
L 382.961762 225.063764 
L 383.364565 225.067872 
L 383.767367 225.071864 
L 384.17017 225.075744 
L 384.572973 225.079514 
L 384.975776 225.083177 
L 385.378579 225.086736 
L 385.781381 225.090194 
L 386.184184 225.093553 
L 386.586987 225.096816 
L 386.98979 225.099985 
L 387.392593 225.103063 
L 387.795395 225.106052 
L 388.198198 225.108955 
L 388.601001 225.111774 
L 389.003804 225.114511 
L 389.406607 225.117169 
L 389.809409 225.119749 
L 390.212212 225.122253 
L 390.615015 225.124685 
L 391.017818 225.127044 
L 391.420621 225.129335 
L 391.823423 225.131558 
L 392.226226 225.133715 
L 392.629029 225.135809 
L 393.031832 225.13784 
L 393.434635 225.139811 
L 393.837437 225.141723 
L 394.24024 225.143578 
L 394.643043 225.145378 
L 395.045846 225.147123 
L 395.448649 225.148816 
L 395.851451 225.150458 
L 396.254254 225.15205 
L 396.657057 225.153595 
L 397.05986 225.155092 
L 397.462663 225.156544 
L 397.865465 225.157951 
L 398.268268 225.159316 
L 398.671071 225.160639 
L 399.073874 225.161921 
L 399.476677 225.163164 
L 399.879479 225.164368 
L 400.282282 225.165535 
L 400.685085 225.166667 
L 401.087888 225.167763 
L 401.490691 225.168825 
L 401.893493 225.169854 
L 402.296296 225.170851 
L 402.699099 225.171817 
L 403.101902 225.172753 
L 403.504705 225.173659 
L 403.907508 225.174536 
L 404.31031 225.175386 
L 404.713113 225.17621 
L 405.115916 225.177007 
L 405.518719 225.177779 
L 405.921522 225.178526 
L 406.324324 225.179249 
L 406.727127 225.17995 
L 407.12993 225.180628 
L 407.532733 225.181284 
L 407.935536 225.181919 
L 408.338338 225.182534 
L 408.741141 225.183129 
L 409.143944 225.183705 
L 409.546747 225.184262 
L 409.94955 225.184801 
L 410.352352 225.185322 
L 410.755155 225.185827 
L 411.157958 225.186315 
L 411.560761 225.186787 
L 411.963564 225.187244 
L 412.366366 225.187685 
L 412.769169 225.188112 
L 413.171972 225.188525 
L 413.574775 225.188925 
L 413.977578 225.189311 
L 414.38038 225.189684 
L 414.783183 225.190045 
L 415.185986 225.190394 
L 415.588789 225.190732 
L 415.991592 225.191058 
L 416.394394 225.191373 
L 416.797197 225.191677 
L 417.2 225.191972 
z
" style="fill:#00bfff;stroke:#00bfff;stroke-linejoin:miter;"/>
   </g>
   <g id="matplotlib.axis_1">
    <g id="xtick_1">
     <g id="line2d_1">
      <defs>
       <path d="M 0 0 
L 0 4 
" id="m742edbbe94" style="stroke:#222222;"/>
      </defs>
      <g>
       <use style="fill:#222222;stroke:#222222;" x="39.95" xlink:href="#m742edbbe94" y="225.2"/>
      </g>
     </g>
     <g id="text_1">
      <!-- −4 -->
      <defs>
       <path d="M 10.59375 35.5 
L 73.1875 35.5 
L 73.1875 27.203125 
L 10.59375 27.203125 
z
" id="DejaVuSans-2212"/>
       <path d="M 37.796875 64.3125 
L 12.890625 25.390625 
L 37.796875 25.390625 
z
M 35.203125 72.90625 
L 47.609375 72.90625 
L 47.609375 25.390625 
L 58.015625 25.390625 
L 58.015625 17.1875 
L 47.609375 17.1875 
L 47.609375 0 
L 37.796875 0 
L 37.796875 17.1875 
L 4.890625 17.1875 
L 4.890625 26.703125 
z
" id="DejaVuSans-34"/>
      </defs>
      <g style="fill:#222222;" transform="translate(28.893359 244.597656)scale(0.15 -0.15)">
       <use xlink:href="#DejaVuSans-2212"/>
       <use x="83.789062" xlink:href="#DejaVuSans-34"/>
      </g>
     </g>
    </g>
    <g id="xtick_2">
     <g id="line2d_2">
      <g>
       <use style="fill:#222222;stroke:#222222;" x="90.25" xlink:href="#m742edbbe94" y="225.2"/>
      </g>
     </g>
     <g id="text_2">
      <!-- −3 -->
      <defs>
       <path d="M 40.578125 39.3125 
Q 47.65625 37.796875 51.625 33 
Q 55.609375 28.21875 55.609375 21.1875 
Q 55.609375 10.40625 48.1875 4.484375 
Q 40.765625 -1.421875 27.09375 -1.421875 
Q 22.515625 -1.421875 17.65625 -0.515625 
Q 12.796875 0.390625 7.625 2.203125 
L 7.625 11.71875 
Q 11.71875 9.328125 16.59375 8.109375 
Q 21.484375 6.890625 26.8125 6.890625 
Q 36.078125 6.890625 40.9375 10.546875 
Q 45.796875 14.203125 45.796875 21.1875 
Q 45.796875 27.640625 41.28125 31.265625 
Q 36.765625 34.90625 28.71875 34.90625 
L 20.21875 34.90625 
L 20.21875 43.015625 
L 29.109375 43.015625 
Q 36.375 43.015625 40.234375 45.921875 
Q 44.09375 48.828125 44.09375 54.296875 
Q 44.09375 59.90625 40.109375 62.90625 
Q 36.140625 65.921875 28.71875 65.921875 
Q 24.65625 65.921875 20.015625 65.03125 
Q 15.375 64.15625 9.8125 62.3125 
L 9.8125 71.09375 
Q 15.4375 72.65625 20.34375 73.4375 
Q 25.25 74.21875 29.59375 74.21875 
Q 40.828125 74.21875 47.359375 69.109375 
Q 53.90625 64.015625 53.90625 55.328125 
Q 53.90625 49.265625 50.4375 45.09375 
Q 46.96875 40.921875 40.578125 39.3125 
z
" id="DejaVuSans-33"/>
      </defs>
      <g style="fill:#222222;" transform="translate(79.193359 244.597656)scale(0.15 -0.15)">
       <use xlink:href="#DejaVuSans-2212"/>
       <use x="83.789062" xlink:href="#DejaVuSans-33"/>
      </g>
     </g>
    </g>
    <g id="xtick_3">
     <g id="line2d_3">
      <g>
       <use style="fill:#222222;stroke:#222222;" x="140.55" xlink:href="#m742edbbe94" y="225.2"/>
      </g>
     </g>
     <g id="text_3">
      <!-- −2 -->
      <defs>
       <path d="M 19.1875 8.296875 
L 53.609375 8.296875 
L 53.609375 0 
L 7.328125 0 
L 7.328125 8.296875 
Q 12.9375 14.109375 22.625 23.890625 
Q 32.328125 33.6875 34.8125 36.53125 
Q 39.546875 41.84375 41.421875 45.53125 
Q 43.3125 49.21875 43.3125 52.78125 
Q 43.3125 58.59375 39.234375 62.25 
Q 35.15625 65.921875 28.609375 65.921875 
Q 23.96875 65.921875 18.8125 64.3125 
Q 13.671875 62.703125 7.8125 59.421875 
L 7.8125 69.390625 
Q 13.765625 71.78125 18.9375 73 
Q 24.125 74.21875 28.421875 74.21875 
Q 39.75 74.21875 46.484375 68.546875 
Q 53.21875 62.890625 53.21875 53.421875 
Q 53.21875 48.921875 51.53125 44.890625 
Q 49.859375 40.875 45.40625 35.40625 
Q 44.1875 33.984375 37.640625 27.21875 
Q 31.109375 20.453125 19.1875 8.296875 
z
" id="DejaVuSans-32"/>
      </defs>
      <g style="fill:#222222;" transform="translate(129.493359 244.597656)scale(0.15 -0.15)">
       <use xlink:href="#DejaVuSans-2212"/>
       <use x="83.789062" xlink:href="#DejaVuSans-32"/>
      </g>
     </g>
    </g>
    <g id="xtick_4">
     <g id="line2d_4">
      <g>
       <use style="fill:#222222;stroke:#222222;" x="190.85" xlink:href="#m742edbbe94" y="225.2"/>
      </g>
     </g>
     <g id="text_4">
      <!-- −1 -->
      <defs>
       <path d="M 12.40625 8.296875 
L 28.515625 8.296875 
L 28.515625 63.921875 
L 10.984375 60.40625 
L 10.984375 69.390625 
L 28.421875 72.90625 
L 38.28125 72.90625 
L 38.28125 8.296875 
L 54.390625 8.296875 
L 54.390625 0 
L 12.40625 0 
z
" id="DejaVuSans-31"/>
      </defs>
      <g style="fill:#222222;" transform="translate(179.793359 244.597656)scale(0.15 -0.15)">
       <use xlink:href="#DejaVuSans-2212"/>
       <use x="83.789062" xlink:href="#DejaVuSans-31"/>
      </g>
     </g>
    </g>
    <g id="xtick_5">
     <g id="line2d_5">
      <g>
       <use style="fill:#222222;stroke:#222222;" x="241.15" xlink:href="#m742edbbe94" y="225.2"/>
      </g>
     </g>
     <g id="text_5">
      <!-- 0 -->
      <defs>
       <path d="M 31.78125 66.40625 
Q 24.171875 66.40625 20.328125 58.90625 
Q 16.5 51.421875 16.5 36.375 
Q 16.5 21.390625 20.328125 13.890625 
Q 24.171875 6.390625 31.78125 6.390625 
Q 39.453125 6.390625 43.28125 13.890625 
Q 47.125 21.390625 47.125 36.375 
Q 47.125 51.421875 43.28125 58.90625 
Q 39.453125 66.40625 31.78125 66.40625 
z
M 31.78125 74.21875 
Q 44.046875 74.21875 50.515625 64.515625 
Q 56.984375 54.828125 56.984375 36.375 
Q 56.984375 17.96875 50.515625 8.265625 
Q 44.046875 -1.421875 31.78125 -1.421875 
Q 19.53125 -1.421875 13.0625 8.265625 
Q 6.59375 17.96875 6.59375 36.375 
Q 6.59375 54.828125 13.0625 64.515625 
Q 19.53125 74.21875 31.78125 74.21875 
z
" id="DejaVuSans-30"/>
      </defs>
      <g style="fill:#222222;" transform="translate(236.378125 244.597656)scale(0.15 -0.15)">
       <use xlink:href="#DejaVuSans-30"/>
      </g>
     </g>
    </g>
    <g id="xtick_6">
     <g id="line2d_6">
      <g>
       <use style="fill:#222222;stroke:#222222;" x="291.45" xlink:href="#m742edbbe94" y="225.2"/>
      </g>
     </g>
     <g id="text_6">
      <!-- 1 -->
      <g style="fill:#222222;" transform="translate(286.678125 244.597656)scale(0.15 -0.15)">
       <use xlink:href="#DejaVuSans-31"/>
      </g>
     </g>
    </g>
    <g id="xtick_7">
     <g id="line2d_7">
      <g>
       <use style="fill:#222222;stroke:#222222;" x="341.75" xlink:href="#m742edbbe94" y="225.2"/>
      </g>
     </g>
     <g id="text_7">
      <!-- 2 -->
      <g style="fill:#222222;" transform="translate(336.978125 244.597656)scale(0.15 -0.15)">
       <use xlink:href="#DejaVuSans-32"/>
      </g>
     </g>
    </g>
    <g id="xtick_8">
     <g id="line2d_8">
      <g>
       <use style="fill:#222222;stroke:#222222;" x="392.05" xlink:href="#m742edbbe94" y="225.2"/>
      </g>
     </g>
     <g id="text_8">
      <!-- 3 -->
      <g style="fill:#222222;" transform="translate(387.278125 244.597656)scale(0.15 -0.15)">
       <use xlink:href="#DejaVuSans-33"/>
      </g>
     </g>
    </g>
    <g id="text_9">
     <!-- Values -->
     <defs>
      <path d="M 28.609375 0 
L 0.78125 72.90625 
L 11.078125 72.90625 
L 34.1875 11.53125 
L 57.328125 72.90625 
L 67.578125 72.90625 
L 39.796875 0 
z
" id="DejaVuSans-56"/>
      <path d="M 34.28125 27.484375 
Q 23.390625 27.484375 19.1875 25 
Q 14.984375 22.515625 14.984375 16.5 
Q 14.984375 11.71875 18.140625 8.90625 
Q 21.296875 6.109375 26.703125 6.109375 
Q 34.1875 6.109375 38.703125 11.40625 
Q 43.21875 16.703125 43.21875 25.484375 
L 43.21875 27.484375 
z
M 52.203125 31.203125 
L 52.203125 0 
L 43.21875 0 
L 43.21875 8.296875 
Q 40.140625 3.328125 35.546875 0.953125 
Q 30.953125 -1.421875 24.3125 -1.421875 
Q 15.921875 -1.421875 10.953125 3.296875 
Q 6 8.015625 6 15.921875 
Q 6 25.140625 12.171875 29.828125 
Q 18.359375 34.515625 30.609375 34.515625 
L 43.21875 34.515625 
L 43.21875 35.40625 
Q 43.21875 41.609375 39.140625 45 
Q 35.0625 48.390625 27.6875 48.390625 
Q 23 48.390625 18.546875 47.265625 
Q 14.109375 46.140625 10.015625 43.890625 
L 10.015625 52.203125 
Q 14.9375 54.109375 19.578125 55.046875 
Q 24.21875 56 28.609375 56 
Q 40.484375 56 46.34375 49.84375 
Q 52.203125 43.703125 52.203125 31.203125 
z
" id="DejaVuSans-61"/>
      <path d="M 9.421875 75.984375 
L 18.40625 75.984375 
L 18.40625 0 
L 9.421875 0 
z
" id="DejaVuSans-6c"/>
      <path d="M 8.5 21.578125 
L 8.5 54.6875 
L 17.484375 54.6875 
L 17.484375 21.921875 
Q 17.484375 14.15625 20.5 10.265625 
Q 23.53125 6.390625 29.59375 6.390625 
Q 36.859375 6.390625 41.078125 11.03125 
Q 45.3125 15.671875 45.3125 23.6875 
L 45.3125 54.6875 
L 54.296875 54.6875 
L 54.296875 0 
L 45.3125 0 
L 45.3125 8.40625 
Q 42.046875 3.421875 37.71875 1 
Q 33.40625 -1.421875 27.6875 -1.421875 
Q 18.265625 -1.421875 13.375 4.4375 
Q 8.5 10.296875 8.5 21.578125 
z
M 31.109375 56 
z
" id="DejaVuSans-75"/>
      <path d="M 56.203125 29.59375 
L 56.203125 25.203125 
L 14.890625 25.203125 
Q 15.484375 15.921875 20.484375 11.0625 
Q 25.484375 6.203125 34.421875 6.203125 
Q 39.59375 6.203125 44.453125 7.46875 
Q 49.3125 8.734375 54.109375 11.28125 
L 54.109375 2.78125 
Q 49.265625 0.734375 44.1875 -0.34375 
Q 39.109375 -1.421875 33.890625 -1.421875 
Q 20.796875 -1.421875 13.15625 6.1875 
Q 5.515625 13.8125 5.515625 26.8125 
Q 5.515625 40.234375 12.765625 48.109375 
Q 20.015625 56 32.328125 56 
Q 43.359375 56 49.78125 48.890625 
Q 56.203125 41.796875 56.203125 29.59375 
z
M 47.21875 32.234375 
Q 47.125 39.59375 43.09375 43.984375 
Q 39.0625 48.390625 32.421875 48.390625 
Q 24.90625 48.390625 20.390625 44.140625 
Q 15.875 39.890625 15.1875 32.171875 
z
" id="DejaVuSans-65"/>
      <path d="M 44.28125 53.078125 
L 44.28125 44.578125 
Q 40.484375 46.53125 36.375 47.5 
Q 32.28125 48.484375 27.875 48.484375 
Q 21.1875 48.484375 17.84375 46.4375 
Q 14.5 44.390625 14.5 40.28125 
Q 14.5 37.15625 16.890625 35.375 
Q 19.28125 33.59375 26.515625 31.984375 
L 29.59375 31.296875 
Q 39.15625 29.25 43.1875 25.515625 
Q 47.21875 21.78125 47.21875 15.09375 
Q 47.21875 7.46875 41.1875 3.015625 
Q 35.15625 -1.421875 24.609375 -1.421875 
Q 20.21875 -1.421875 15.453125 -0.5625 
Q 10.6875 0.296875 5.421875 2 
L 5.421875 11.28125 
Q 10.40625 8.6875 15.234375 7.390625 
Q 20.0625 6.109375 24.8125 6.109375 
Q 31.15625 6.109375 34.5625 8.28125 
Q 37.984375 10.453125 37.984375 14.40625 
Q 37.984375 18.0625 35.515625 20.015625 
Q 33.0625 21.96875 24.703125 23.78125 
L 21.578125 24.515625 
Q 13.234375 26.265625 9.515625 29.90625 
Q 5.8125 33.546875 5.8125 39.890625 
Q 5.8125 47.609375 11.28125 51.796875 
Q 16.75 56 26.8125 56 
Q 31.78125 56 36.171875 55.265625 
Q 40.578125 54.546875 44.28125 53.078125 
z
" id="DejaVuSans-73"/>
     </defs>
     <g style="fill:#222222;" transform="translate(182.564063 272.914062)scale(0.2 -0.2)">
      <use xlink:href="#DejaVuSans-56"/>
      <use x="68.298828" xlink:href="#DejaVuSans-61"/>
      <use x="129.578125" xlink:href="#DejaVuSans-6c"/>
      <use x="157.361328" xlink:href="#DejaVuSans-75"/>
      <use x="220.740234" xlink:href="#DejaVuSans-65"/>
      <use x="282.263672" xlink:href="#DejaVuSans-73"/>
     </g>
    </g>
   </g>
   <g id="matplotlib.axis_2"/>
   <g id="line2d_9">
    <path clip-path="url(#p5f8c832328)" d="M 190.85 225.2 
L 190.85 14.8 
" style="fill:none;stroke:#fb4c52;stroke-dasharray:5.55,2.4;stroke-dashoffset:0;stroke-width:1.5;"/>
   </g>
   <g id="line2d_10">
    <path clip-path="url(#p5f8c832328)" d="M 291.45 225.2 
L 291.45 14.8 
" style="fill:none;stroke:#fb4c52;stroke-dasharray:5.55,2.4;stroke-dashoffset:0;stroke-width:1.5;"/>
   </g>
   <g id="patch_4">
    <path d="M 14.8 225.2 
L 417.2 225.2 
" style="fill:none;stroke:#222222;stroke-linecap:square;stroke-linejoin:miter;"/>
   </g>
  </g>
 </g>
 <defs>
  <clipPath id="p5f8c832328">
   <rect height="210.4" width="402.4" x="14.8" y="14.8"/>
  </clipPath>
 </defs>
</svg>
