<?xml version="1.0" encoding="utf-8" standalone="no"?>
<!DOCTYPE svg PUBLIC "-//W3C//DTD SVG 1.1//EN"
  "http://www.w3.org/Graphics/SVG/1.1/DTD/svg11.dtd">
<!-- Created with matplotlib (http://matplotlib.org/) -->
<svg height="288pt" version="1.1" viewBox="0 0 432 288" width="432pt" xmlns="http://www.w3.org/2000/svg" xmlns:xlink="http://www.w3.org/1999/xlink">
 <defs>
  <style type="text/css">
*{stroke-linecap:butt;stroke-linejoin:round;}
  </style>
 </defs>
 <g id="figure_1">
  <g id="patch_1">
   <path d="M 0 288 
L 432 288 
L 432 0 
L 0 0 
z
" style="fill:none;"/>
  </g>
  <g id="axes_1">
   <g id="patch_2">
    <path d="M 14.8 237.2 
L 417.2 237.2 
L 417.2 14.8 
L 14.8 14.8 
z
" style="fill:none;"/>
   </g>
   <g id="patch_3">
    <path clip-path="url(#p64daa8a430)" d="M -118.273379 237.2 
L -112.414867 237.2 
L -112.414867 236.991156 
L -118.273379 236.991156 
z
" style="fill:#00bfff;"/>
   </g>
   <g id="patch_4">
    <path clip-path="url(#p64daa8a430)" d="M -112.414867 237.2 
L -106.556355 237.2 
L -106.556355 236.991156 
L -112.414867 236.991156 
z
" style="fill:#00bfff;"/>
   </g>
   <g id="patch_5">
    <path clip-path="url(#p64daa8a430)" d="M -106.556355 237.2 
L -100.697842 237.2 
L -100.697842 237.2 
L -106.556355 237.2 
z
" style="fill:#00bfff;"/>
   </g>
   <g id="patch_6">
    <path clip-path="url(#p64daa8a430)" d="M -100.697842 237.2 
L -94.83933 237.2 
L -94.83933 237.2 
L -100.697842 237.2 
z
" style="fill:#00bfff;"/>
   </g>
   <g id="patch_7">
    <path clip-path="url(#p64daa8a430)" d="M -94.83933 237.2 
L -88.980818 237.2 
L -88.980818 237.2 
L -94.83933 237.2 
z
" style="fill:#00bfff;"/>
   </g>
   <g id="patch_8">
    <path clip-path="url(#p64daa8a430)" d="M -88.980818 237.2 
L -83.122306 237.2 
L -83.122306 236.991156 
L -88.980818 236.991156 
z
" style="fill:#00bfff;"/>
   </g>
   <g id="patch_9">
    <path clip-path="url(#p64daa8a430)" d="M -83.122306 237.2 
L -77.263793 237.2 
L -77.263793 237.2 
L -83.122306 237.2 
z
" style="fill:#00bfff;"/>
   </g>
   <g id="patch_10">
    <path clip-path="url(#p64daa8a430)" d="M -77.263793 237.2 
L -71.405281 237.2 
L -71.405281 237.2 
L -77.263793 237.2 
z
" style="fill:#00bfff;"/>
   </g>
   <g id="patch_11">
    <path clip-path="url(#p64daa8a430)" d="M -71.405281 237.2 
L -65.546769 237.2 
L -65.546769 236.991156 
L -71.405281 236.991156 
z
" style="fill:#00bfff;"/>
   </g>
   <g id="patch_12">
    <path clip-path="url(#p64daa8a430)" d="M -65.546769 237.2 
L -59.688256 237.2 
L -59.688256 237.2 
L -65.546769 237.2 
z
" style="fill:#00bfff;"/>
   </g>
   <g id="patch_13">
    <path clip-path="url(#p64daa8a430)" d="M -59.688256 237.2 
L -53.829744 237.2 
L -53.829744 236.991156 
L -59.688256 236.991156 
z
" style="fill:#00bfff;"/>
   </g>
   <g id="patch_14">
    <path clip-path="url(#p64daa8a430)" d="M -53.829744 237.2 
L -47.971232 237.2 
L -47.971232 236.991156 
L -53.829744 236.991156 
z
" style="fill:#00bfff;"/>
   </g>
   <g id="patch_15">
    <path clip-path="url(#p64daa8a430)" d="M -47.971232 237.2 
L -42.112719 237.2 
L -42.112719 236.991156 
L -47.971232 236.991156 
z
" style="fill:#00bfff;"/>
   </g>
   <g id="patch_16">
    <path clip-path="url(#p64daa8a430)" d="M -42.112719 237.2 
L -36.254207 237.2 
L -36.254207 237.2 
L -42.112719 237.2 
z
" style="fill:#00bfff;"/>
   </g>
   <g id="patch_17">
    <path clip-path="url(#p64daa8a430)" d="M -36.254207 237.2 
L -30.395695 237.2 
L -30.395695 236.573468 
L -36.254207 236.573468 
z
" style="fill:#00bfff;"/>
   </g>
   <g id="patch_18">
    <path clip-path="url(#p64daa8a430)" d="M -30.395695 237.2 
L -24.537182 237.2 
L -24.537182 236.991156 
L -30.395695 236.991156 
z
" style="fill:#00bfff;"/>
   </g>
   <g id="patch_19">
    <path clip-path="url(#p64daa8a430)" d="M -24.537182 237.2 
L -18.67867 237.2 
L -18.67867 236.991156 
L -24.537182 236.991156 
z
" style="fill:#00bfff;"/>
   </g>
   <g id="patch_20">
    <path clip-path="url(#p64daa8a430)" d="M -18.67867 237.2 
L -12.820158 237.2 
L -12.820158 236.991156 
L -18.67867 236.991156 
z
" style="fill:#00bfff;"/>
   </g>
   <g id="patch_21">
    <path clip-path="url(#p64daa8a430)" d="M -12.820158 237.2 
L -6.961646 237.2 
L -6.961646 236.364624 
L -12.820158 236.364624 
z
" style="fill:#00bfff;"/>
   </g>
   <g id="patch_22">
    <path clip-path="url(#p64daa8a430)" d="M -6.961646 237.2 
L -1.103133 237.2 
L -1.103133 236.782312 
L -6.961646 236.782312 
z
" style="fill:#00bfff;"/>
   </g>
   <g id="patch_23">
    <path clip-path="url(#p64daa8a430)" d="M -1.103133 237.2 
L 4.755379 237.2 
L 4.755379 236.991156 
L -1.103133 236.991156 
z
" style="fill:#00bfff;"/>
   </g>
   <g id="patch_24">
    <path clip-path="url(#p64daa8a430)" d="M 4.755379 237.2 
L 10.613891 237.2 
L 10.613891 236.573468 
L 4.755379 236.573468 
z
" style="fill:#00bfff;"/>
   </g>
   <g id="patch_25">
    <path clip-path="url(#p64daa8a430)" d="M 10.613891 237.2 
L 16.472404 237.2 
L 16.472404 236.991156 
L 10.613891 236.991156 
z
" style="fill:#00bfff;"/>
   </g>
   <g id="patch_26">
    <path clip-path="url(#p64daa8a430)" d="M 16.472404 237.2 
L 22.330916 237.2 
L 22.330916 236.573468 
L 16.472404 236.573468 
z
" style="fill:#00bfff;"/>
   </g>
   <g id="patch_27">
    <path clip-path="url(#p64daa8a430)" d="M 22.330916 237.2 
L 28.189428 237.2 
L 28.189428 236.991156 
L 22.330916 236.991156 
z
" style="fill:#00bfff;"/>
   </g>
   <g id="patch_28">
    <path clip-path="url(#p64daa8a430)" d="M 28.189428 237.2 
L 34.047941 237.2 
L 34.047941 236.991156 
L 28.189428 236.991156 
z
" style="fill:#00bfff;"/>
   </g>
   <g id="patch_29">
    <path clip-path="url(#p64daa8a430)" d="M 34.047941 237.2 
L 39.906453 237.2 
L 39.906453 236.782312 
L 34.047941 236.782312 
z
" style="fill:#00bfff;"/>
   </g>
   <g id="patch_30">
    <path clip-path="url(#p64daa8a430)" d="M 39.906453 237.2 
L 45.764965 237.2 
L 45.764965 236.782312 
L 39.906453 236.782312 
z
" style="fill:#00bfff;"/>
   </g>
   <g id="patch_31">
    <path clip-path="url(#p64daa8a430)" d="M 45.764965 237.2 
L 51.623478 237.2 
L 51.623478 237.2 
L 45.764965 237.2 
z
" style="fill:#00bfff;"/>
   </g>
   <g id="patch_32">
    <path clip-path="url(#p64daa8a430)" d="M 51.623478 237.2 
L 57.48199 237.2 
L 57.48199 236.991156 
L 51.623478 236.991156 
z
" style="fill:#00bfff;"/>
   </g>
   <g id="patch_33">
    <path clip-path="url(#p64daa8a430)" d="M 57.48199 237.2 
L 63.340502 237.2 
L 63.340502 236.573468 
L 57.48199 236.573468 
z
" style="fill:#00bfff;"/>
   </g>
   <g id="patch_34">
    <path clip-path="url(#p64daa8a430)" d="M 63.340502 237.2 
L 69.199015 237.2 
L 69.199015 236.782312 
L 63.340502 236.782312 
z
" style="fill:#00bfff;"/>
   </g>
   <g id="patch_35">
    <path clip-path="url(#p64daa8a430)" d="M 69.199015 237.2 
L 75.057527 237.2 
L 75.057527 236.782312 
L 69.199015 236.782312 
z
" style="fill:#00bfff;"/>
   </g>
   <g id="patch_36">
    <path clip-path="url(#p64daa8a430)" d="M 75.057527 237.2 
L 80.916039 237.2 
L 80.916039 236.15578 
L 75.057527 236.15578 
z
" style="fill:#00bfff;"/>
   </g>
   <g id="patch_37">
    <path clip-path="url(#p64daa8a430)" d="M 80.916039 237.2 
L 86.774551 237.2 
L 86.774551 236.364624 
L 80.916039 236.364624 
z
" style="fill:#00bfff;"/>
   </g>
   <g id="patch_38">
    <path clip-path="url(#p64daa8a430)" d="M 86.774551 237.2 
L 92.633064 237.2 
L 92.633064 236.15578 
L 86.774551 236.15578 
z
" style="fill:#00bfff;"/>
   </g>
   <g id="patch_39">
    <path clip-path="url(#p64daa8a430)" d="M 92.633064 237.2 
L 98.491576 237.2 
L 98.491576 235.320405 
L 92.633064 235.320405 
z
" style="fill:#00bfff;"/>
   </g>
   <g id="patch_40">
    <path clip-path="url(#p64daa8a430)" d="M 98.491576 237.2 
L 104.350088 237.2 
L 104.350088 234.693873 
L 98.491576 234.693873 
z
" style="fill:#00bfff;"/>
   </g>
   <g id="patch_41">
    <path clip-path="url(#p64daa8a430)" d="M 104.350088 237.2 
L 110.208601 237.2 
L 110.208601 234.693873 
L 104.350088 234.693873 
z
" style="fill:#00bfff;"/>
   </g>
   <g id="patch_42">
    <path clip-path="url(#p64daa8a430)" d="M 110.208601 237.2 
L 116.067113 237.2 
L 116.067113 233.023121 
L 110.208601 233.023121 
z
" style="fill:#00bfff;"/>
   </g>
   <g id="patch_43">
    <path clip-path="url(#p64daa8a430)" d="M 116.067113 237.2 
L 121.925625 237.2 
L 121.925625 231.561214 
L 116.067113 231.561214 
z
" style="fill:#00bfff;"/>
   </g>
   <g id="patch_44">
    <path clip-path="url(#p64daa8a430)" d="M 121.925625 237.2 
L 127.784138 237.2 
L 127.784138 229.26393 
L 121.925625 229.26393 
z
" style="fill:#00bfff;"/>
   </g>
   <g id="patch_45">
    <path clip-path="url(#p64daa8a430)" d="M 127.784138 237.2 
L 133.64265 237.2 
L 133.64265 231.143526 
L 127.784138 231.143526 
z
" style="fill:#00bfff;"/>
   </g>
   <g id="patch_46">
    <path clip-path="url(#p64daa8a430)" d="M 133.64265 237.2 
L 139.501162 237.2 
L 139.501162 229.055086 
L 133.64265 229.055086 
z
" style="fill:#00bfff;"/>
   </g>
   <g id="patch_47">
    <path clip-path="url(#p64daa8a430)" d="M 139.501162 237.2 
L 145.359675 237.2 
L 145.359675 222.580924 
L 139.501162 222.580924 
z
" style="fill:#00bfff;"/>
   </g>
   <g id="patch_48">
    <path clip-path="url(#p64daa8a430)" d="M 145.359675 237.2 
L 151.218187 237.2 
L 151.218187 214.853698 
L 145.359675 214.853698 
z
" style="fill:#00bfff;"/>
   </g>
   <g id="patch_49">
    <path clip-path="url(#p64daa8a430)" d="M 151.218187 237.2 
L 157.076699 237.2 
L 157.076699 211.721039 
L 151.218187 211.721039 
z
" style="fill:#00bfff;"/>
   </g>
   <g id="patch_50">
    <path clip-path="url(#p64daa8a430)" d="M 157.076699 237.2 
L 162.935211 237.2 
L 162.935211 204.411501 
L 157.076699 204.411501 
z
" style="fill:#00bfff;"/>
   </g>
   <g id="patch_51">
    <path clip-path="url(#p64daa8a430)" d="M 162.935211 237.2 
L 168.793724 237.2 
L 168.793724 192.925085 
L 162.935211 192.925085 
z
" style="fill:#00bfff;"/>
   </g>
   <g id="patch_52">
    <path clip-path="url(#p64daa8a430)" d="M 168.793724 237.2 
L 174.652236 237.2 
L 174.652236 179.141385 
L 168.793724 179.141385 
z
" style="fill:#00bfff;"/>
   </g>
   <g id="patch_53">
    <path clip-path="url(#p64daa8a430)" d="M 174.652236 237.2 
L 180.510748 237.2 
L 180.510748 162.642713 
L 174.652236 162.642713 
z
" style="fill:#00bfff;"/>
   </g>
   <g id="patch_54">
    <path clip-path="url(#p64daa8a430)" d="M 180.510748 237.2 
L 186.369261 237.2 
L 186.369261 141.340632 
L 180.510748 141.340632 
z
" style="fill:#00bfff;"/>
   </g>
   <g id="patch_55">
    <path clip-path="url(#p64daa8a430)" d="M 186.369261 237.2 
L 192.227773 237.2 
L 192.227773 118.367798 
L 186.369261 118.367798 
z
" style="fill:#00bfff;"/>
   </g>
   <g id="patch_56">
    <path clip-path="url(#p64daa8a430)" d="M 192.227773 237.2 
L 198.086285 237.2 
L 198.086285 104.16641 
L 192.227773 104.16641 
z
" style="fill:#00bfff;"/>
   </g>
   <g id="patch_57">
    <path clip-path="url(#p64daa8a430)" d="M 198.086285 237.2 
L 203.944798 237.2 
L 203.944798 76.59901 
L 198.086285 76.59901 
z
" style="fill:#00bfff;"/>
   </g>
   <g id="patch_58">
    <path clip-path="url(#p64daa8a430)" d="M 203.944798 237.2 
L 209.80331 237.2 
L 209.80331 56.96768 
L 203.944798 56.96768 
z
" style="fill:#00bfff;"/>
   </g>
   <g id="patch_59">
    <path clip-path="url(#p64daa8a430)" d="M 209.80331 237.2 
L 215.661822 237.2 
L 215.661822 64.90375 
L 209.80331 64.90375 
z
" style="fill:#00bfff;"/>
   </g>
   <g id="patch_60">
    <path clip-path="url(#p64daa8a430)" d="M 215.661822 237.2 
L 221.520335 237.2 
L 221.520335 44.645887 
L 215.661822 44.645887 
z
" style="fill:#00bfff;"/>
   </g>
   <g id="patch_61">
    <path clip-path="url(#p64daa8a430)" d="M 221.520335 237.2 
L 227.378847 237.2 
L 227.378847 70.333692 
L 221.520335 70.333692 
z
" style="fill:#00bfff;"/>
   </g>
   <g id="patch_62">
    <path clip-path="url(#p64daa8a430)" d="M 227.378847 237.2 
L 233.237359 237.2 
L 233.237359 105.21063 
L 227.378847 105.21063 
z
" style="fill:#00bfff;"/>
   </g>
   <g id="patch_63">
    <path clip-path="url(#p64daa8a430)" d="M 233.237359 237.2 
L 239.095872 237.2 
L 239.095872 124.424272 
L 233.237359 124.424272 
z
" style="fill:#00bfff;"/>
   </g>
   <g id="patch_64">
    <path clip-path="url(#p64daa8a430)" d="M 239.095872 237.2 
L 244.954384 237.2 
L 244.954384 151.991673 
L 239.095872 151.991673 
z
" style="fill:#00bfff;"/>
   </g>
   <g id="patch_65">
    <path clip-path="url(#p64daa8a430)" d="M 244.954384 237.2 
L 250.812896 237.2 
L 250.812896 178.723697 
L 244.954384 178.723697 
z
" style="fill:#00bfff;"/>
   </g>
   <g id="patch_66">
    <path clip-path="url(#p64daa8a430)" d="M 250.812896 237.2 
L 256.671408 237.2 
L 256.671408 195.640056 
L 250.812896 195.640056 
z
" style="fill:#00bfff;"/>
   </g>
   <g id="patch_67">
    <path clip-path="url(#p64daa8a430)" d="M 256.671408 237.2 
L 262.529921 237.2 
L 262.529921 200.652311 
L 256.671408 200.652311 
z
" style="fill:#00bfff;"/>
   </g>
   <g id="patch_68">
    <path clip-path="url(#p64daa8a430)" d="M 262.529921 237.2 
L 268.388433 237.2 
L 268.388433 215.897918 
L 262.529921 215.897918 
z
" style="fill:#00bfff;"/>
   </g>
   <g id="patch_69">
    <path clip-path="url(#p64daa8a430)" d="M 268.388433 237.2 
L 274.246945 237.2 
L 274.246945 220.910173 
L 268.388433 220.910173 
z
" style="fill:#00bfff;"/>
   </g>
   <g id="patch_70">
    <path clip-path="url(#p64daa8a430)" d="M 274.246945 237.2 
L 280.105458 237.2 
L 280.105458 225.295895 
L 274.246945 225.295895 
z
" style="fill:#00bfff;"/>
   </g>
   <g id="patch_71">
    <path clip-path="url(#p64daa8a430)" d="M 280.105458 237.2 
L 285.96397 237.2 
L 285.96397 231.143526 
L 280.105458 231.143526 
z
" style="fill:#00bfff;"/>
   </g>
   <g id="patch_72">
    <path clip-path="url(#p64daa8a430)" d="M 285.96397 237.2 
L 291.822482 237.2 
L 291.822482 231.978902 
L 285.96397 231.978902 
z
" style="fill:#00bfff;"/>
   </g>
   <g id="patch_73">
    <path clip-path="url(#p64daa8a430)" d="M 291.822482 237.2 
L 297.680995 237.2 
L 297.680995 233.649653 
L 291.822482 233.649653 
z
" style="fill:#00bfff;"/>
   </g>
   <g id="patch_74">
    <path clip-path="url(#p64daa8a430)" d="M 297.680995 237.2 
L 303.539507 237.2 
L 303.539507 234.902717 
L 297.680995 234.902717 
z
" style="fill:#00bfff;"/>
   </g>
   <g id="patch_75">
    <path clip-path="url(#p64daa8a430)" d="M 303.539507 237.2 
L 309.398019 237.2 
L 309.398019 234.693873 
L 303.539507 234.693873 
z
" style="fill:#00bfff;"/>
   </g>
   <g id="patch_76">
    <path clip-path="url(#p64daa8a430)" d="M 309.398019 237.2 
L 315.256532 237.2 
L 315.256532 235.738092 
L 309.398019 235.738092 
z
" style="fill:#00bfff;"/>
   </g>
   <g id="patch_77">
    <path clip-path="url(#p64daa8a430)" d="M 315.256532 237.2 
L 321.115044 237.2 
L 321.115044 236.364624 
L 315.256532 236.364624 
z
" style="fill:#00bfff;"/>
   </g>
   <g id="patch_78">
    <path clip-path="url(#p64daa8a430)" d="M 321.115044 237.2 
L 326.973556 237.2 
L 326.973556 236.573468 
L 321.115044 236.573468 
z
" style="fill:#00bfff;"/>
   </g>
   <g id="patch_79">
    <path clip-path="url(#p64daa8a430)" d="M 326.973556 237.2 
L 332.832068 237.2 
L 332.832068 235.738092 
L 326.973556 235.738092 
z
" style="fill:#00bfff;"/>
   </g>
   <g id="patch_80">
    <path clip-path="url(#p64daa8a430)" d="M 332.832068 237.2 
L 338.690581 237.2 
L 338.690581 236.991156 
L 332.832068 236.991156 
z
" style="fill:#00bfff;"/>
   </g>
   <g id="patch_81">
    <path clip-path="url(#p64daa8a430)" d="M 338.690581 237.2 
L 344.549093 237.2 
L 344.549093 236.782312 
L 338.690581 236.782312 
z
" style="fill:#00bfff;"/>
   </g>
   <g id="patch_82">
    <path clip-path="url(#p64daa8a430)" d="M 344.549093 237.2 
L 350.407605 237.2 
L 350.407605 235.738092 
L 344.549093 235.738092 
z
" style="fill:#00bfff;"/>
   </g>
   <g id="patch_83">
    <path clip-path="url(#p64daa8a430)" d="M 350.407605 237.2 
L 356.266118 237.2 
L 356.266118 236.364624 
L 350.407605 236.364624 
z
" style="fill:#00bfff;"/>
   </g>
   <g id="patch_84">
    <path clip-path="url(#p64daa8a430)" d="M 356.266118 237.2 
L 362.12463 237.2 
L 362.12463 236.364624 
L 356.266118 236.364624 
z
" style="fill:#00bfff;"/>
   </g>
   <g id="patch_85">
    <path clip-path="url(#p64daa8a430)" d="M 362.12463 237.2 
L 367.983142 237.2 
L 367.983142 237.2 
L 362.12463 237.2 
z
" style="fill:#00bfff;"/>
   </g>
   <g id="patch_86">
    <path clip-path="url(#p64daa8a430)" d="M 367.983142 237.2 
L 373.841655 237.2 
L 373.841655 236.782312 
L 367.983142 236.782312 
z
" style="fill:#00bfff;"/>
   </g>
   <g id="patch_87">
    <path clip-path="url(#p64daa8a430)" d="M 373.841655 237.2 
L 379.700167 237.2 
L 379.700167 236.991156 
L 373.841655 236.991156 
z
" style="fill:#00bfff;"/>
   </g>
   <g id="patch_88">
    <path clip-path="url(#p64daa8a430)" d="M 379.700167 237.2 
L 385.558679 237.2 
L 385.558679 236.573468 
L 379.700167 236.573468 
z
" style="fill:#00bfff;"/>
   </g>
   <g id="patch_89">
    <path clip-path="url(#p64daa8a430)" d="M 385.558679 237.2 
L 391.417192 237.2 
L 391.417192 237.2 
L 385.558679 237.2 
z
" style="fill:#00bfff;"/>
   </g>
   <g id="patch_90">
    <path clip-path="url(#p64daa8a430)" d="M 391.417192 237.2 
L 397.275704 237.2 
L 397.275704 237.2 
L 391.417192 237.2 
z
" style="fill:#00bfff;"/>
   </g>
   <g id="patch_91">
    <path clip-path="url(#p64daa8a430)" d="M 397.275704 237.2 
L 403.134216 237.2 
L 403.134216 237.2 
L 397.275704 237.2 
z
" style="fill:#00bfff;"/>
   </g>
   <g id="patch_92">
    <path clip-path="url(#p64daa8a430)" d="M 403.134216 237.2 
L 408.992729 237.2 
L 408.992729 237.2 
L 403.134216 237.2 
z
" style="fill:#00bfff;"/>
   </g>
   <g id="patch_93">
    <path clip-path="url(#p64daa8a430)" d="M 408.992729 237.2 
L 414.851241 237.2 
L 414.851241 237.2 
L 408.992729 237.2 
z
" style="fill:#00bfff;"/>
   </g>
   <g id="patch_94">
    <path clip-path="url(#p64daa8a430)" d="M 414.851241 237.2 
L 420.709753 237.2 
L 420.709753 236.991156 
L 414.851241 236.991156 
z
" style="fill:#00bfff;"/>
   </g>
   <g id="patch_95">
    <path clip-path="url(#p64daa8a430)" d="M 420.709753 237.2 
L 426.568265 237.2 
L 426.568265 237.2 
L 420.709753 237.2 
z
" style="fill:#00bfff;"/>
   </g>
   <g id="patch_96">
    <path clip-path="url(#p64daa8a430)" d="M 426.568265 237.2 
L 432.426778 237.2 
L 432.426778 237.2 
L 426.568265 237.2 
z
" style="fill:#00bfff;"/>
   </g>
   <g id="patch_97">
    <path clip-path="url(#p64daa8a430)" d="M 432.426778 237.2 
L 438.28529 237.2 
L 438.28529 237.2 
L 432.426778 237.2 
z
" style="fill:#00bfff;"/>
   </g>
   <g id="patch_98">
    <path clip-path="url(#p64daa8a430)" d="M 438.28529 237.2 
L 444.143802 237.2 
L 444.143802 236.991156 
L 438.28529 236.991156 
z
" style="fill:#00bfff;"/>
   </g>
   <g id="patch_99">
    <path clip-path="url(#p64daa8a430)" d="M 444.143802 237.2 
L 450.002315 237.2 
L 450.002315 237.2 
L 444.143802 237.2 
z
" style="fill:#00bfff;"/>
   </g>
   <g id="patch_100">
    <path clip-path="url(#p64daa8a430)" d="M 450.002315 237.2 
L 455.860827 237.2 
L 455.860827 237.2 
L 450.002315 237.2 
z
" style="fill:#00bfff;"/>
   </g>
   <g id="patch_101">
    <path clip-path="url(#p64daa8a430)" d="M 455.860827 237.2 
L 461.719339 237.2 
L 461.719339 237.2 
L 455.860827 237.2 
z
" style="fill:#00bfff;"/>
   </g>
   <g id="patch_102">
    <path clip-path="url(#p64daa8a430)" d="M 461.719339 237.2 
L 467.577852 237.2 
L 467.577852 236.991156 
L 461.719339 236.991156 
z
" style="fill:#00bfff;"/>
   </g>
   <g id="matplotlib.axis_1">
    <g id="xtick_1">
     <g id="line2d_1">
      <defs>
       <path d="M 0 0 
L 0 4 
" id="md0dfec4784" style="stroke:#222222;"/>
      </defs>
      <g>
       <use style="fill:#222222;stroke:#222222;" x="37.155556" xlink:href="#md0dfec4784" y="237.2"/>
      </g>
     </g>
     <g id="text_1">
      <!-- −8 -->
      <defs>
       <path d="M 10.59375 35.5 
L 73.1875 35.5 
L 73.1875 27.203125 
L 10.59375 27.203125 
z
" id="DejaVuSans-2212"/>
       <path d="M 31.78125 34.625 
Q 24.75 34.625 20.71875 30.859375 
Q 16.703125 27.09375 16.703125 20.515625 
Q 16.703125 13.921875 20.71875 10.15625 
Q 24.75 6.390625 31.78125 6.390625 
Q 38.8125 6.390625 42.859375 10.171875 
Q 46.921875 13.96875 46.921875 20.515625 
Q 46.921875 27.09375 42.890625 30.859375 
Q 38.875 34.625 31.78125 34.625 
z
M 21.921875 38.8125 
Q 15.578125 40.375 12.03125 44.71875 
Q 8.5 49.078125 8.5 55.328125 
Q 8.5 64.0625 14.71875 69.140625 
Q 20.953125 74.21875 31.78125 74.21875 
Q 42.671875 74.21875 48.875 69.140625 
Q 55.078125 64.0625 55.078125 55.328125 
Q 55.078125 49.078125 51.53125 44.71875 
Q 48 40.375 41.703125 38.8125 
Q 48.828125 37.15625 52.796875 32.3125 
Q 56.78125 27.484375 56.78125 20.515625 
Q 56.78125 9.90625 50.3125 4.234375 
Q 43.84375 -1.421875 31.78125 -1.421875 
Q 19.734375 -1.421875 13.25 4.234375 
Q 6.78125 9.90625 6.78125 20.515625 
Q 6.78125 27.484375 10.78125 32.3125 
Q 14.796875 37.15625 21.921875 38.8125 
z
M 18.3125 54.390625 
Q 18.3125 48.734375 21.84375 45.5625 
Q 25.390625 42.390625 31.78125 42.390625 
Q 38.140625 42.390625 41.71875 45.5625 
Q 45.3125 48.734375 45.3125 54.390625 
Q 45.3125 60.0625 41.71875 63.234375 
Q 38.140625 66.40625 31.78125 66.40625 
Q 25.390625 66.40625 21.84375 63.234375 
Q 18.3125 60.0625 18.3125 54.390625 
z
" id="DejaVuSans-38"/>
      </defs>
      <g style="fill:#222222;" transform="translate(27.573134 255.077969)scale(0.13 -0.13)">
       <use xlink:href="#DejaVuSans-2212"/>
       <use x="83.789062" xlink:href="#DejaVuSans-38"/>
      </g>
     </g>
    </g>
    <g id="xtick_2">
     <g id="line2d_2">
      <g>
       <use style="fill:#222222;stroke:#222222;" x="81.866667" xlink:href="#md0dfec4784" y="237.2"/>
      </g>
     </g>
     <g id="text_2">
      <!-- −6 -->
      <defs>
       <path d="M 33.015625 40.375 
Q 26.375 40.375 22.484375 35.828125 
Q 18.609375 31.296875 18.609375 23.390625 
Q 18.609375 15.53125 22.484375 10.953125 
Q 26.375 6.390625 33.015625 6.390625 
Q 39.65625 6.390625 43.53125 10.953125 
Q 47.40625 15.53125 47.40625 23.390625 
Q 47.40625 31.296875 43.53125 35.828125 
Q 39.65625 40.375 33.015625 40.375 
z
M 52.59375 71.296875 
L 52.59375 62.3125 
Q 48.875 64.0625 45.09375 64.984375 
Q 41.3125 65.921875 37.59375 65.921875 
Q 27.828125 65.921875 22.671875 59.328125 
Q 17.53125 52.734375 16.796875 39.40625 
Q 19.671875 43.65625 24.015625 45.921875 
Q 28.375 48.1875 33.59375 48.1875 
Q 44.578125 48.1875 50.953125 41.515625 
Q 57.328125 34.859375 57.328125 23.390625 
Q 57.328125 12.15625 50.6875 5.359375 
Q 44.046875 -1.421875 33.015625 -1.421875 
Q 20.359375 -1.421875 13.671875 8.265625 
Q 6.984375 17.96875 6.984375 36.375 
Q 6.984375 53.65625 15.1875 63.9375 
Q 23.390625 74.21875 37.203125 74.21875 
Q 40.921875 74.21875 44.703125 73.484375 
Q 48.484375 72.75 52.59375 71.296875 
z
" id="DejaVuSans-36"/>
      </defs>
      <g style="fill:#222222;" transform="translate(72.284245 255.077969)scale(0.13 -0.13)">
       <use xlink:href="#DejaVuSans-2212"/>
       <use x="83.789062" xlink:href="#DejaVuSans-36"/>
      </g>
     </g>
    </g>
    <g id="xtick_3">
     <g id="line2d_3">
      <g>
       <use style="fill:#222222;stroke:#222222;" x="126.577778" xlink:href="#md0dfec4784" y="237.2"/>
      </g>
     </g>
     <g id="text_3">
      <!-- −4 -->
      <defs>
       <path d="M 37.796875 64.3125 
L 12.890625 25.390625 
L 37.796875 25.390625 
z
M 35.203125 72.90625 
L 47.609375 72.90625 
L 47.609375 25.390625 
L 58.015625 25.390625 
L 58.015625 17.1875 
L 47.609375 17.1875 
L 47.609375 0 
L 37.796875 0 
L 37.796875 17.1875 
L 4.890625 17.1875 
L 4.890625 26.703125 
z
" id="DejaVuSans-34"/>
      </defs>
      <g style="fill:#222222;" transform="translate(116.995356 255.077969)scale(0.13 -0.13)">
       <use xlink:href="#DejaVuSans-2212"/>
       <use x="83.789062" xlink:href="#DejaVuSans-34"/>
      </g>
     </g>
    </g>
    <g id="xtick_4">
     <g id="line2d_4">
      <g>
       <use style="fill:#222222;stroke:#222222;" x="171.288889" xlink:href="#md0dfec4784" y="237.2"/>
      </g>
     </g>
     <g id="text_4">
      <!-- −2 -->
      <defs>
       <path d="M 19.1875 8.296875 
L 53.609375 8.296875 
L 53.609375 0 
L 7.328125 0 
L 7.328125 8.296875 
Q 12.9375 14.109375 22.625 23.890625 
Q 32.328125 33.6875 34.8125 36.53125 
Q 39.546875 41.84375 41.421875 45.53125 
Q 43.3125 49.21875 43.3125 52.78125 
Q 43.3125 58.59375 39.234375 62.25 
Q 35.15625 65.921875 28.609375 65.921875 
Q 23.96875 65.921875 18.8125 64.3125 
Q 13.671875 62.703125 7.8125 59.421875 
L 7.8125 69.390625 
Q 13.765625 71.78125 18.9375 73 
Q 24.125 74.21875 28.421875 74.21875 
Q 39.75 74.21875 46.484375 68.546875 
Q 53.21875 62.890625 53.21875 53.421875 
Q 53.21875 48.921875 51.53125 44.890625 
Q 49.859375 40.875 45.40625 35.40625 
Q 44.1875 33.984375 37.640625 27.21875 
Q 31.109375 20.453125 19.1875 8.296875 
z
" id="DejaVuSans-32"/>
      </defs>
      <g style="fill:#222222;" transform="translate(161.706467 255.077969)scale(0.13 -0.13)">
       <use xlink:href="#DejaVuSans-2212"/>
       <use x="83.789062" xlink:href="#DejaVuSans-32"/>
      </g>
     </g>
    </g>
    <g id="xtick_5">
     <g id="line2d_5">
      <g>
       <use style="fill:#222222;stroke:#222222;" x="216" xlink:href="#md0dfec4784" y="237.2"/>
      </g>
     </g>
     <g id="text_5">
      <!-- 0 -->
      <defs>
       <path d="M 31.78125 66.40625 
Q 24.171875 66.40625 20.328125 58.90625 
Q 16.5 51.421875 16.5 36.375 
Q 16.5 21.390625 20.328125 13.890625 
Q 24.171875 6.390625 31.78125 6.390625 
Q 39.453125 6.390625 43.28125 13.890625 
Q 47.125 21.390625 47.125 36.375 
Q 47.125 51.421875 43.28125 58.90625 
Q 39.453125 66.40625 31.78125 66.40625 
z
M 31.78125 74.21875 
Q 44.046875 74.21875 50.515625 64.515625 
Q 56.984375 54.828125 56.984375 36.375 
Q 56.984375 17.96875 50.515625 8.265625 
Q 44.046875 -1.421875 31.78125 -1.421875 
Q 19.53125 -1.421875 13.0625 8.265625 
Q 6.59375 17.96875 6.59375 36.375 
Q 6.59375 54.828125 13.0625 64.515625 
Q 19.53125 74.21875 31.78125 74.21875 
z
" id="DejaVuSans-30"/>
      </defs>
      <g style="fill:#222222;" transform="translate(211.864375 255.077969)scale(0.13 -0.13)">
       <use xlink:href="#DejaVuSans-30"/>
      </g>
     </g>
    </g>
    <g id="xtick_6">
     <g id="line2d_6">
      <g>
       <use style="fill:#222222;stroke:#222222;" x="260.711111" xlink:href="#md0dfec4784" y="237.2"/>
      </g>
     </g>
     <g id="text_6">
      <!-- 2 -->
      <g style="fill:#222222;" transform="translate(256.575486 255.077969)scale(0.13 -0.13)">
       <use xlink:href="#DejaVuSans-32"/>
      </g>
     </g>
    </g>
    <g id="xtick_7">
     <g id="line2d_7">
      <g>
       <use style="fill:#222222;stroke:#222222;" x="305.422222" xlink:href="#md0dfec4784" y="237.2"/>
      </g>
     </g>
     <g id="text_7">
      <!-- 4 -->
      <g style="fill:#222222;" transform="translate(301.286597 255.077969)scale(0.13 -0.13)">
       <use xlink:href="#DejaVuSans-34"/>
      </g>
     </g>
    </g>
    <g id="xtick_8">
     <g id="line2d_8">
      <g>
       <use style="fill:#222222;stroke:#222222;" x="350.133333" xlink:href="#md0dfec4784" y="237.2"/>
      </g>
     </g>
     <g id="text_8">
      <!-- 6 -->
      <g style="fill:#222222;" transform="translate(345.997708 255.077969)scale(0.13 -0.13)">
       <use xlink:href="#DejaVuSans-36"/>
      </g>
     </g>
    </g>
    <g id="xtick_9">
     <g id="line2d_9">
      <g>
       <use style="fill:#222222;stroke:#222222;" x="394.844444" xlink:href="#md0dfec4784" y="237.2"/>
      </g>
     </g>
     <g id="text_9">
      <!-- 8 -->
      <g style="fill:#222222;" transform="translate(390.708819 255.077969)scale(0.13 -0.13)">
       <use xlink:href="#DejaVuSans-38"/>
      </g>
     </g>
    </g>
    <g id="text_10">
     <!-- Statistic of interest (Welch t) -->
     <defs>
      <path d="M 53.515625 70.515625 
L 53.515625 60.890625 
Q 47.90625 63.578125 42.921875 64.890625 
Q 37.9375 66.21875 33.296875 66.21875 
Q 25.25 66.21875 20.875 63.09375 
Q 16.5 59.96875 16.5 54.203125 
Q 16.5 49.359375 19.40625 46.890625 
Q 22.3125 44.4375 30.421875 42.921875 
L 36.375 41.703125 
Q 47.40625 39.59375 52.65625 34.296875 
Q 57.90625 29 57.90625 20.125 
Q 57.90625 9.515625 50.796875 4.046875 
Q 43.703125 -1.421875 29.984375 -1.421875 
Q 24.8125 -1.421875 18.96875 -0.25 
Q 13.140625 0.921875 6.890625 3.21875 
L 6.890625 13.375 
Q 12.890625 10.015625 18.65625 8.296875 
Q 24.421875 6.59375 29.984375 6.59375 
Q 38.421875 6.59375 43.015625 9.90625 
Q 47.609375 13.234375 47.609375 19.390625 
Q 47.609375 24.75 44.3125 27.78125 
Q 41.015625 30.8125 33.5 32.328125 
L 27.484375 33.5 
Q 16.453125 35.6875 11.515625 40.375 
Q 6.59375 45.0625 6.59375 53.421875 
Q 6.59375 63.09375 13.40625 68.65625 
Q 20.21875 74.21875 32.171875 74.21875 
Q 37.3125 74.21875 42.625 73.28125 
Q 47.953125 72.359375 53.515625 70.515625 
z
" id="DejaVuSans-53"/>
      <path d="M 18.3125 70.21875 
L 18.3125 54.6875 
L 36.8125 54.6875 
L 36.8125 47.703125 
L 18.3125 47.703125 
L 18.3125 18.015625 
Q 18.3125 11.328125 20.140625 9.421875 
Q 21.96875 7.515625 27.59375 7.515625 
L 36.8125 7.515625 
L 36.8125 0 
L 27.59375 0 
Q 17.1875 0 13.234375 3.875 
Q 9.28125 7.765625 9.28125 18.015625 
L 9.28125 47.703125 
L 2.6875 47.703125 
L 2.6875 54.6875 
L 9.28125 54.6875 
L 9.28125 70.21875 
z
" id="DejaVuSans-74"/>
      <path d="M 34.28125 27.484375 
Q 23.390625 27.484375 19.1875 25 
Q 14.984375 22.515625 14.984375 16.5 
Q 14.984375 11.71875 18.140625 8.90625 
Q 21.296875 6.109375 26.703125 6.109375 
Q 34.1875 6.109375 38.703125 11.40625 
Q 43.21875 16.703125 43.21875 25.484375 
L 43.21875 27.484375 
z
M 52.203125 31.203125 
L 52.203125 0 
L 43.21875 0 
L 43.21875 8.296875 
Q 40.140625 3.328125 35.546875 0.953125 
Q 30.953125 -1.421875 24.3125 -1.421875 
Q 15.921875 -1.421875 10.953125 3.296875 
Q 6 8.015625 6 15.921875 
Q 6 25.140625 12.171875 29.828125 
Q 18.359375 34.515625 30.609375 34.515625 
L 43.21875 34.515625 
L 43.21875 35.40625 
Q 43.21875 41.609375 39.140625 45 
Q 35.0625 48.390625 27.6875 48.390625 
Q 23 48.390625 18.546875 47.265625 
Q 14.109375 46.140625 10.015625 43.890625 
L 10.015625 52.203125 
Q 14.9375 54.109375 19.578125 55.046875 
Q 24.21875 56 28.609375 56 
Q 40.484375 56 46.34375 49.84375 
Q 52.203125 43.703125 52.203125 31.203125 
z
" id="DejaVuSans-61"/>
      <path d="M 9.421875 54.6875 
L 18.40625 54.6875 
L 18.40625 0 
L 9.421875 0 
z
M 9.421875 75.984375 
L 18.40625 75.984375 
L 18.40625 64.59375 
L 9.421875 64.59375 
z
" id="DejaVuSans-69"/>
      <path d="M 44.28125 53.078125 
L 44.28125 44.578125 
Q 40.484375 46.53125 36.375 47.5 
Q 32.28125 48.484375 27.875 48.484375 
Q 21.1875 48.484375 17.84375 46.4375 
Q 14.5 44.390625 14.5 40.28125 
Q 14.5 37.15625 16.890625 35.375 
Q 19.28125 33.59375 26.515625 31.984375 
L 29.59375 31.296875 
Q 39.15625 29.25 43.1875 25.515625 
Q 47.21875 21.78125 47.21875 15.09375 
Q 47.21875 7.46875 41.1875 3.015625 
Q 35.15625 -1.421875 24.609375 -1.421875 
Q 20.21875 -1.421875 15.453125 -0.5625 
Q 10.6875 0.296875 5.421875 2 
L 5.421875 11.28125 
Q 10.40625 8.6875 15.234375 7.390625 
Q 20.0625 6.109375 24.8125 6.109375 
Q 31.15625 6.109375 34.5625 8.28125 
Q 37.984375 10.453125 37.984375 14.40625 
Q 37.984375 18.0625 35.515625 20.015625 
Q 33.0625 21.96875 24.703125 23.78125 
L 21.578125 24.515625 
Q 13.234375 26.265625 9.515625 29.90625 
Q 5.8125 33.546875 5.8125 39.890625 
Q 5.8125 47.609375 11.28125 51.796875 
Q 16.75 56 26.8125 56 
Q 31.78125 56 36.171875 55.265625 
Q 40.578125 54.546875 44.28125 53.078125 
z
" id="DejaVuSans-73"/>
      <path d="M 48.78125 52.59375 
L 48.78125 44.1875 
Q 44.96875 46.296875 41.140625 47.34375 
Q 37.3125 48.390625 33.40625 48.390625 
Q 24.65625 48.390625 19.8125 42.84375 
Q 14.984375 37.3125 14.984375 27.296875 
Q 14.984375 17.28125 19.8125 11.734375 
Q 24.65625 6.203125 33.40625 6.203125 
Q 37.3125 6.203125 41.140625 7.25 
Q 44.96875 8.296875 48.78125 10.40625 
L 48.78125 2.09375 
Q 45.015625 0.34375 40.984375 -0.53125 
Q 36.96875 -1.421875 32.421875 -1.421875 
Q 20.0625 -1.421875 12.78125 6.34375 
Q 5.515625 14.109375 5.515625 27.296875 
Q 5.515625 40.671875 12.859375 48.328125 
Q 20.21875 56 33.015625 56 
Q 37.15625 56 41.109375 55.140625 
Q 45.0625 54.296875 48.78125 52.59375 
z
" id="DejaVuSans-63"/>
      <path id="DejaVuSans-20"/>
      <path d="M 30.609375 48.390625 
Q 23.390625 48.390625 19.1875 42.75 
Q 14.984375 37.109375 14.984375 27.296875 
Q 14.984375 17.484375 19.15625 11.84375 
Q 23.34375 6.203125 30.609375 6.203125 
Q 37.796875 6.203125 41.984375 11.859375 
Q 46.1875 17.53125 46.1875 27.296875 
Q 46.1875 37.015625 41.984375 42.703125 
Q 37.796875 48.390625 30.609375 48.390625 
z
M 30.609375 56 
Q 42.328125 56 49.015625 48.375 
Q 55.71875 40.765625 55.71875 27.296875 
Q 55.71875 13.875 49.015625 6.21875 
Q 42.328125 -1.421875 30.609375 -1.421875 
Q 18.84375 -1.421875 12.171875 6.21875 
Q 5.515625 13.875 5.515625 27.296875 
Q 5.515625 40.765625 12.171875 48.375 
Q 18.84375 56 30.609375 56 
z
" id="DejaVuSans-6f"/>
      <path d="M 37.109375 75.984375 
L 37.109375 68.5 
L 28.515625 68.5 
Q 23.6875 68.5 21.796875 66.546875 
Q 19.921875 64.59375 19.921875 59.515625 
L 19.921875 54.6875 
L 34.71875 54.6875 
L 34.71875 47.703125 
L 19.921875 47.703125 
L 19.921875 0 
L 10.890625 0 
L 10.890625 47.703125 
L 2.296875 47.703125 
L 2.296875 54.6875 
L 10.890625 54.6875 
L 10.890625 58.5 
Q 10.890625 67.625 15.140625 71.796875 
Q 19.390625 75.984375 28.609375 75.984375 
z
" id="DejaVuSans-66"/>
      <path d="M 54.890625 33.015625 
L 54.890625 0 
L 45.90625 0 
L 45.90625 32.71875 
Q 45.90625 40.484375 42.875 44.328125 
Q 39.84375 48.1875 33.796875 48.1875 
Q 26.515625 48.1875 22.3125 43.546875 
Q 18.109375 38.921875 18.109375 30.90625 
L 18.109375 0 
L 9.078125 0 
L 9.078125 54.6875 
L 18.109375 54.6875 
L 18.109375 46.1875 
Q 21.34375 51.125 25.703125 53.5625 
Q 30.078125 56 35.796875 56 
Q 45.21875 56 50.046875 50.171875 
Q 54.890625 44.34375 54.890625 33.015625 
z
" id="DejaVuSans-6e"/>
      <path d="M 56.203125 29.59375 
L 56.203125 25.203125 
L 14.890625 25.203125 
Q 15.484375 15.921875 20.484375 11.0625 
Q 25.484375 6.203125 34.421875 6.203125 
Q 39.59375 6.203125 44.453125 7.46875 
Q 49.3125 8.734375 54.109375 11.28125 
L 54.109375 2.78125 
Q 49.265625 0.734375 44.1875 -0.34375 
Q 39.109375 -1.421875 33.890625 -1.421875 
Q 20.796875 -1.421875 13.15625 6.1875 
Q 5.515625 13.8125 5.515625 26.8125 
Q 5.515625 40.234375 12.765625 48.109375 
Q 20.015625 56 32.328125 56 
Q 43.359375 56 49.78125 48.890625 
Q 56.203125 41.796875 56.203125 29.59375 
z
M 47.21875 32.234375 
Q 47.125 39.59375 43.09375 43.984375 
Q 39.0625 48.390625 32.421875 48.390625 
Q 24.90625 48.390625 20.390625 44.140625 
Q 15.875 39.890625 15.1875 32.171875 
z
" id="DejaVuSans-65"/>
      <path d="M 41.109375 46.296875 
Q 39.59375 47.171875 37.8125 47.578125 
Q 36.03125 48 33.890625 48 
Q 26.265625 48 22.1875 43.046875 
Q 18.109375 38.09375 18.109375 28.8125 
L 18.109375 0 
L 9.078125 0 
L 9.078125 54.6875 
L 18.109375 54.6875 
L 18.109375 46.1875 
Q 20.953125 51.171875 25.484375 53.578125 
Q 30.03125 56 36.53125 56 
Q 37.453125 56 38.578125 55.875 
Q 39.703125 55.765625 41.0625 55.515625 
z
" id="DejaVuSans-72"/>
      <path d="M 31 75.875 
Q 24.46875 64.65625 21.28125 53.65625 
Q 18.109375 42.671875 18.109375 31.390625 
Q 18.109375 20.125 21.3125 9.0625 
Q 24.515625 -2 31 -13.1875 
L 23.1875 -13.1875 
Q 15.875 -1.703125 12.234375 9.375 
Q 8.59375 20.453125 8.59375 31.390625 
Q 8.59375 42.28125 12.203125 53.3125 
Q 15.828125 64.359375 23.1875 75.875 
z
" id="DejaVuSans-28"/>
      <path d="M 3.328125 72.90625 
L 13.28125 72.90625 
L 28.609375 11.28125 
L 43.890625 72.90625 
L 54.984375 72.90625 
L 70.3125 11.28125 
L 85.59375 72.90625 
L 95.609375 72.90625 
L 77.296875 0 
L 64.890625 0 
L 49.515625 63.28125 
L 33.984375 0 
L 21.578125 0 
z
" id="DejaVuSans-57"/>
      <path d="M 9.421875 75.984375 
L 18.40625 75.984375 
L 18.40625 0 
L 9.421875 0 
z
" id="DejaVuSans-6c"/>
      <path d="M 54.890625 33.015625 
L 54.890625 0 
L 45.90625 0 
L 45.90625 32.71875 
Q 45.90625 40.484375 42.875 44.328125 
Q 39.84375 48.1875 33.796875 48.1875 
Q 26.515625 48.1875 22.3125 43.546875 
Q 18.109375 38.921875 18.109375 30.90625 
L 18.109375 0 
L 9.078125 0 
L 9.078125 75.984375 
L 18.109375 75.984375 
L 18.109375 46.1875 
Q 21.34375 51.125 25.703125 53.5625 
Q 30.078125 56 35.796875 56 
Q 45.21875 56 50.046875 50.171875 
Q 54.890625 44.34375 54.890625 33.015625 
z
" id="DejaVuSans-68"/>
      <path d="M 8.015625 75.875 
L 15.828125 75.875 
Q 23.140625 64.359375 26.78125 53.3125 
Q 30.421875 42.28125 30.421875 31.390625 
Q 30.421875 20.453125 26.78125 9.375 
Q 23.140625 -1.703125 15.828125 -13.1875 
L 8.015625 -13.1875 
Q 14.5 -2 17.703125 9.0625 
Q 20.90625 20.125 20.90625 31.390625 
Q 20.90625 42.671875 17.703125 53.65625 
Q 14.5 64.65625 8.015625 75.875 
z
" id="DejaVuSans-29"/>
     </defs>
     <g style="fill:#222222;" transform="translate(100.9575 273.939062)scale(0.16 -0.16)">
      <use xlink:href="#DejaVuSans-53"/>
      <use x="63.476562" xlink:href="#DejaVuSans-74"/>
      <use x="102.685547" xlink:href="#DejaVuSans-61"/>
      <use x="163.964844" xlink:href="#DejaVuSans-74"/>
      <use x="203.173828" xlink:href="#DejaVuSans-69"/>
      <use x="230.957031" xlink:href="#DejaVuSans-73"/>
      <use x="283.056641" xlink:href="#DejaVuSans-74"/>
      <use x="322.265625" xlink:href="#DejaVuSans-69"/>
      <use x="350.048828" xlink:href="#DejaVuSans-63"/>
      <use x="405.029297" xlink:href="#DejaVuSans-20"/>
      <use x="436.816406" xlink:href="#DejaVuSans-6f"/>
      <use x="497.998047" xlink:href="#DejaVuSans-66"/>
      <use x="533.203125" xlink:href="#DejaVuSans-20"/>
      <use x="564.990234" xlink:href="#DejaVuSans-69"/>
      <use x="592.773438" xlink:href="#DejaVuSans-6e"/>
      <use x="656.152344" xlink:href="#DejaVuSans-74"/>
      <use x="695.361328" xlink:href="#DejaVuSans-65"/>
      <use x="756.884766" xlink:href="#DejaVuSans-72"/>
      <use x="797.966797" xlink:href="#DejaVuSans-65"/>
      <use x="859.490234" xlink:href="#DejaVuSans-73"/>
      <use x="911.589844" xlink:href="#DejaVuSans-74"/>
      <use x="950.798828" xlink:href="#DejaVuSans-20"/>
      <use x="982.585938" xlink:href="#DejaVuSans-28"/>
      <use x="1021.599609" xlink:href="#DejaVuSans-57"/>
      <use x="1120.398438" xlink:href="#DejaVuSans-65"/>
      <use x="1181.921875" xlink:href="#DejaVuSans-6c"/>
      <use x="1209.705078" xlink:href="#DejaVuSans-63"/>
      <use x="1264.685547" xlink:href="#DejaVuSans-68"/>
      <use x="1328.064453" xlink:href="#DejaVuSans-20"/>
      <use x="1359.851562" xlink:href="#DejaVuSans-74"/>
      <use x="1399.060547" xlink:href="#DejaVuSans-29"/>
     </g>
    </g>
   </g>
   <g id="matplotlib.axis_2"/>
   <g id="patch_103">
    <path d="M 14.8 237.2 
L 417.2 237.2 
" style="fill:none;stroke:#222222;stroke-linecap:square;stroke-linejoin:miter;"/>
   </g>
  </g>
  <g id="axes_2">
   <g id="matplotlib.axis_3"/>
   <g id="line2d_10">
    <path clip-path="url(#p64daa8a430)" d="M 237.030814 237.2 
L 237.030814 37.04 
" style="fill:none;stroke:#fbc15e;stroke-linecap:square;stroke-width:1.5;"/>
   </g>
   <g id="line2d_11">
    <path clip-path="url(#p64daa8a430)" d="M 194.969186 237.2 
L 194.969186 14.8 
" style="fill:none;stroke:#fbc15e;stroke-dasharray:5.55,2.4;stroke-dashoffset:0;stroke-width:1.5;"/>
   </g>
   <g id="patch_104">
    <path d="M 14.8 237.2 
L 417.2 237.2 
" style="fill:none;stroke:#222222;stroke-linecap:square;stroke-linejoin:miter;"/>
   </g>
   <g id="text_11">
    <!-- Observed statistic -->
    <defs>
     <path d="M 39.40625 66.21875 
Q 28.65625 66.21875 22.328125 58.203125 
Q 16.015625 50.203125 16.015625 36.375 
Q 16.015625 22.609375 22.328125 14.59375 
Q 28.65625 6.59375 39.40625 6.59375 
Q 50.140625 6.59375 56.421875 14.59375 
Q 62.703125 22.609375 62.703125 36.375 
Q 62.703125 50.203125 56.421875 58.203125 
Q 50.140625 66.21875 39.40625 66.21875 
z
M 39.40625 74.21875 
Q 54.734375 74.21875 63.90625 63.9375 
Q 73.09375 53.65625 73.09375 36.375 
Q 73.09375 19.140625 63.90625 8.859375 
Q 54.734375 -1.421875 39.40625 -1.421875 
Q 24.03125 -1.421875 14.8125 8.828125 
Q 5.609375 19.09375 5.609375 36.375 
Q 5.609375 53.65625 14.8125 63.9375 
Q 24.03125 74.21875 39.40625 74.21875 
z
" id="DejaVuSans-4f"/>
     <path d="M 48.6875 27.296875 
Q 48.6875 37.203125 44.609375 42.84375 
Q 40.53125 48.484375 33.40625 48.484375 
Q 26.265625 48.484375 22.1875 42.84375 
Q 18.109375 37.203125 18.109375 27.296875 
Q 18.109375 17.390625 22.1875 11.75 
Q 26.265625 6.109375 33.40625 6.109375 
Q 40.53125 6.109375 44.609375 11.75 
Q 48.6875 17.390625 48.6875 27.296875 
z
M 18.109375 46.390625 
Q 20.953125 51.265625 25.265625 53.625 
Q 29.59375 56 35.59375 56 
Q 45.5625 56 51.78125 48.09375 
Q 58.015625 40.1875 58.015625 27.296875 
Q 58.015625 14.40625 51.78125 6.484375 
Q 45.5625 -1.421875 35.59375 -1.421875 
Q 29.59375 -1.421875 25.265625 0.953125 
Q 20.953125 3.328125 18.109375 8.203125 
L 18.109375 0 
L 9.078125 0 
L 9.078125 75.984375 
L 18.109375 75.984375 
z
" id="DejaVuSans-62"/>
     <path d="M 2.984375 54.6875 
L 12.5 54.6875 
L 29.59375 8.796875 
L 46.6875 54.6875 
L 56.203125 54.6875 
L 35.6875 0 
L 23.484375 0 
z
" id="DejaVuSans-76"/>
     <path d="M 45.40625 46.390625 
L 45.40625 75.984375 
L 54.390625 75.984375 
L 54.390625 0 
L 45.40625 0 
L 45.40625 8.203125 
Q 42.578125 3.328125 38.25 0.953125 
Q 33.9375 -1.421875 27.875 -1.421875 
Q 17.96875 -1.421875 11.734375 6.484375 
Q 5.515625 14.40625 5.515625 27.296875 
Q 5.515625 40.1875 11.734375 48.09375 
Q 17.96875 56 27.875 56 
Q 33.9375 56 38.25 53.625 
Q 42.578125 51.265625 45.40625 46.390625 
z
M 14.796875 27.296875 
Q 14.796875 17.390625 18.875 11.75 
Q 22.953125 6.109375 30.078125 6.109375 
Q 37.203125 6.109375 41.296875 11.75 
Q 45.40625 17.390625 45.40625 27.296875 
Q 45.40625 37.203125 41.296875 42.84375 
Q 37.203125 48.484375 30.078125 48.484375 
Q 22.953125 48.484375 18.875 42.84375 
Q 14.796875 37.203125 14.796875 27.296875 
z
" id="DejaVuSans-64"/>
    </defs>
    <g style="fill:#fbc15e;" transform="translate(237.030814 10.243062)scale(0.14 -0.14)">
     <use xlink:href="#DejaVuSans-4f"/>
     <use x="78.710938" xlink:href="#DejaVuSans-62"/>
     <use x="142.1875" xlink:href="#DejaVuSans-73"/>
     <use x="194.287109" xlink:href="#DejaVuSans-65"/>
     <use x="255.810547" xlink:href="#DejaVuSans-72"/>
     <use x="296.923828" xlink:href="#DejaVuSans-76"/>
     <use x="356.103516" xlink:href="#DejaVuSans-65"/>
     <use x="417.626953" xlink:href="#DejaVuSans-64"/>
     <use x="481.103516" xlink:href="#DejaVuSans-20"/>
     <use x="512.890625" xlink:href="#DejaVuSans-73"/>
     <use x="564.990234" xlink:href="#DejaVuSans-74"/>
     <use x="604.199219" xlink:href="#DejaVuSans-61"/>
     <use x="665.478516" xlink:href="#DejaVuSans-74"/>
     <use x="704.6875" xlink:href="#DejaVuSans-69"/>
     <use x="732.470703" xlink:href="#DejaVuSans-73"/>
     <use x="784.570312" xlink:href="#DejaVuSans-74"/>
     <use x="823.779297" xlink:href="#DejaVuSans-69"/>
     <use x="851.5625" xlink:href="#DejaVuSans-63"/>
    </g>
    <!-- 0.941 -->
    <defs>
     <path d="M 10.6875 12.40625 
L 21 12.40625 
L 21 0 
L 10.6875 0 
z
" id="DejaVuSans-2e"/>
     <path d="M 10.984375 1.515625 
L 10.984375 10.5 
Q 14.703125 8.734375 18.5 7.8125 
Q 22.3125 6.890625 25.984375 6.890625 
Q 35.75 6.890625 40.890625 13.453125 
Q 46.046875 20.015625 46.78125 33.40625 
Q 43.953125 29.203125 39.59375 26.953125 
Q 35.25 24.703125 29.984375 24.703125 
Q 19.046875 24.703125 12.671875 31.3125 
Q 6.296875 37.9375 6.296875 49.421875 
Q 6.296875 60.640625 12.9375 67.421875 
Q 19.578125 74.21875 30.609375 74.21875 
Q 43.265625 74.21875 49.921875 64.515625 
Q 56.59375 54.828125 56.59375 36.375 
Q 56.59375 19.140625 48.40625 8.859375 
Q 40.234375 -1.421875 26.421875 -1.421875 
Q 22.703125 -1.421875 18.890625 -0.6875 
Q 15.09375 0.046875 10.984375 1.515625 
z
M 30.609375 32.421875 
Q 37.25 32.421875 41.125 36.953125 
Q 45.015625 41.5 45.015625 49.421875 
Q 45.015625 57.28125 41.125 61.84375 
Q 37.25 66.40625 30.609375 66.40625 
Q 23.96875 66.40625 20.09375 61.84375 
Q 16.21875 57.28125 16.21875 49.421875 
Q 16.21875 41.5 20.09375 36.953125 
Q 23.96875 32.421875 30.609375 32.421875 
z
" id="DejaVuSans-39"/>
     <path d="M 12.40625 8.296875 
L 28.515625 8.296875 
L 28.515625 63.921875 
L 10.984375 60.40625 
L 10.984375 69.390625 
L 28.421875 72.90625 
L 38.28125 72.90625 
L 38.28125 8.296875 
L 54.390625 8.296875 
L 54.390625 0 
L 12.40625 0 
z
" id="DejaVuSans-31"/>
    </defs>
    <g style="fill:#fbc15e;" transform="translate(237.030814 25.92)scale(0.14 -0.14)">
     <use xlink:href="#DejaVuSans-30"/>
     <use x="63.623047" xlink:href="#DejaVuSans-2e"/>
     <use x="95.410156" xlink:href="#DejaVuSans-39"/>
     <use x="159.033203" xlink:href="#DejaVuSans-34"/>
     <use x="222.65625" xlink:href="#DejaVuSans-31"/>
    </g>
   </g>
  </g>
  <g id="axes_3">
   <g id="matplotlib.axis_4"/>
   <g id="patch_105">
    <path d="M 14.8 237.2 
L 417.2 237.2 
" style="fill:none;stroke:#222222;stroke-linecap:square;stroke-linejoin:miter;"/>
   </g>
   <g id="text_12">
    <!-- &gt;=0.941 -->
    <defs>
     <path d="M 10.59375 49.21875 
L 10.59375 58.109375 
L 73.1875 35.40625 
L 73.1875 27.296875 
L 10.59375 4.59375 
L 10.59375 13.484375 
L 60.890625 31.296875 
z
" id="DejaVuSans-3e"/>
     <path d="M 10.59375 45.40625 
L 73.1875 45.40625 
L 73.1875 37.203125 
L 10.59375 37.203125 
z
M 10.59375 25.484375 
L 73.1875 25.484375 
L 73.1875 17.1875 
L 10.59375 17.1875 
z
" id="DejaVuSans-3d"/>
    </defs>
    <g transform="translate(259.386369 110.323062)scale(0.14 -0.14)">
     <use xlink:href="#DejaVuSans-3e"/>
     <use x="83.789062" xlink:href="#DejaVuSans-3d"/>
     <use x="167.578125" xlink:href="#DejaVuSans-30"/>
     <use x="231.201172" xlink:href="#DejaVuSans-2e"/>
     <use x="262.988281" xlink:href="#DejaVuSans-39"/>
     <use x="326.611328" xlink:href="#DejaVuSans-34"/>
     <use x="390.234375" xlink:href="#DejaVuSans-31"/>
    </g>
    <!-- 1602 simulations -->
    <defs>
     <path d="M 52 44.1875 
Q 55.375 50.25 60.0625 53.125 
Q 64.75 56 71.09375 56 
Q 79.640625 56 84.28125 50.015625 
Q 88.921875 44.046875 88.921875 33.015625 
L 88.921875 0 
L 79.890625 0 
L 79.890625 32.71875 
Q 79.890625 40.578125 77.09375 44.375 
Q 74.3125 48.1875 68.609375 48.1875 
Q 61.625 48.1875 57.5625 43.546875 
Q 53.515625 38.921875 53.515625 30.90625 
L 53.515625 0 
L 44.484375 0 
L 44.484375 32.71875 
Q 44.484375 40.625 41.703125 44.40625 
Q 38.921875 48.1875 33.109375 48.1875 
Q 26.21875 48.1875 22.15625 43.53125 
Q 18.109375 38.875 18.109375 30.90625 
L 18.109375 0 
L 9.078125 0 
L 9.078125 54.6875 
L 18.109375 54.6875 
L 18.109375 46.1875 
Q 21.1875 51.21875 25.484375 53.609375 
Q 29.78125 56 35.6875 56 
Q 41.65625 56 45.828125 52.96875 
Q 50 49.953125 52 44.1875 
z
" id="DejaVuSans-6d"/>
     <path d="M 8.5 21.578125 
L 8.5 54.6875 
L 17.484375 54.6875 
L 17.484375 21.921875 
Q 17.484375 14.15625 20.5 10.265625 
Q 23.53125 6.390625 29.59375 6.390625 
Q 36.859375 6.390625 41.078125 11.03125 
Q 45.3125 15.671875 45.3125 23.6875 
L 45.3125 54.6875 
L 54.296875 54.6875 
L 54.296875 0 
L 45.3125 0 
L 45.3125 8.40625 
Q 42.046875 3.421875 37.71875 1 
Q 33.40625 -1.421875 27.6875 -1.421875 
Q 18.265625 -1.421875 13.375 4.4375 
Q 8.5 10.296875 8.5 21.578125 
z
M 31.109375 56 
z
" id="DejaVuSans-75"/>
    </defs>
    <g transform="translate(259.386369 126)scale(0.14 -0.14)">
     <use xlink:href="#DejaVuSans-31"/>
     <use x="63.623047" xlink:href="#DejaVuSans-36"/>
     <use x="127.246094" xlink:href="#DejaVuSans-30"/>
     <use x="190.869141" xlink:href="#DejaVuSans-32"/>
     <use x="254.492188" xlink:href="#DejaVuSans-20"/>
     <use x="286.279297" xlink:href="#DejaVuSans-73"/>
     <use x="338.378906" xlink:href="#DejaVuSans-69"/>
     <use x="366.162109" xlink:href="#DejaVuSans-6d"/>
     <use x="463.574219" xlink:href="#DejaVuSans-75"/>
     <use x="526.953125" xlink:href="#DejaVuSans-6c"/>
     <use x="554.736328" xlink:href="#DejaVuSans-61"/>
     <use x="616.015625" xlink:href="#DejaVuSans-74"/>
     <use x="655.224609" xlink:href="#DejaVuSans-69"/>
     <use x="683.007812" xlink:href="#DejaVuSans-6f"/>
     <use x="744.189453" xlink:href="#DejaVuSans-6e"/>
     <use x="807.568359" xlink:href="#DejaVuSans-73"/>
    </g>
   </g>
   <g id="text_13">
    <!-- &lt;=-0.941 -->
    <defs>
     <path d="M 73.1875 49.21875 
L 22.796875 31.296875 
L 73.1875 13.484375 
L 73.1875 4.59375 
L 10.59375 27.296875 
L 10.59375 35.40625 
L 73.1875 58.109375 
z
" id="DejaVuSans-3c"/>
     <path d="M 4.890625 31.390625 
L 31.203125 31.390625 
L 31.203125 23.390625 
L 4.890625 23.390625 
z
" id="DejaVuSans-2d"/>
    </defs>
    <g transform="translate(104.020193 110.323062)scale(0.14 -0.14)">
     <use xlink:href="#DejaVuSans-3c"/>
     <use x="83.789062" xlink:href="#DejaVuSans-3d"/>
     <use x="167.578125" xlink:href="#DejaVuSans-2d"/>
     <use x="203.662109" xlink:href="#DejaVuSans-30"/>
     <use x="267.285156" xlink:href="#DejaVuSans-2e"/>
     <use x="299.072266" xlink:href="#DejaVuSans-39"/>
     <use x="362.695312" xlink:href="#DejaVuSans-34"/>
     <use x="426.318359" xlink:href="#DejaVuSans-31"/>
    </g>
    <!-- 2877 simulations -->
    <defs>
     <path d="M 8.203125 72.90625 
L 55.078125 72.90625 
L 55.078125 68.703125 
L 28.609375 0 
L 18.3125 0 
L 43.21875 64.59375 
L 8.203125 64.59375 
z
" id="DejaVuSans-37"/>
    </defs>
    <g transform="translate(52.263943 126)scale(0.14 -0.14)">
     <use xlink:href="#DejaVuSans-32"/>
     <use x="63.623047" xlink:href="#DejaVuSans-38"/>
     <use x="127.246094" xlink:href="#DejaVuSans-37"/>
     <use x="190.869141" xlink:href="#DejaVuSans-37"/>
     <use x="254.492188" xlink:href="#DejaVuSans-20"/>
     <use x="286.279297" xlink:href="#DejaVuSans-73"/>
     <use x="338.378906" xlink:href="#DejaVuSans-69"/>
     <use x="366.162109" xlink:href="#DejaVuSans-6d"/>
     <use x="463.574219" xlink:href="#DejaVuSans-75"/>
     <use x="526.953125" xlink:href="#DejaVuSans-6c"/>
     <use x="554.736328" xlink:href="#DejaVuSans-61"/>
     <use x="616.015625" xlink:href="#DejaVuSans-74"/>
     <use x="655.224609" xlink:href="#DejaVuSans-69"/>
     <use x="683.007812" xlink:href="#DejaVuSans-6f"/>
     <use x="744.189453" xlink:href="#DejaVuSans-6e"/>
     <use x="807.568359" xlink:href="#DejaVuSans-73"/>
    </g>
   </g>
   <g id="text_14">
    <!-- pvalue = 0.4479 -->
    <defs>
     <path d="M 18.109375 8.203125 
L 18.109375 -20.796875 
L 9.078125 -20.796875 
L 9.078125 54.6875 
L 18.109375 54.6875 
L 18.109375 46.390625 
Q 20.953125 51.265625 25.265625 53.625 
Q 29.59375 56 35.59375 56 
Q 45.5625 56 51.78125 48.09375 
Q 58.015625 40.1875 58.015625 27.296875 
Q 58.015625 14.40625 51.78125 6.484375 
Q 45.5625 -1.421875 35.59375 -1.421875 
Q 29.59375 -1.421875 25.265625 0.953125 
Q 20.953125 3.328125 18.109375 8.203125 
z
M 48.6875 27.296875 
Q 48.6875 37.203125 44.609375 42.84375 
Q 40.53125 48.484375 33.40625 48.484375 
Q 26.265625 48.484375 22.1875 42.84375 
Q 18.109375 37.203125 18.109375 27.296875 
Q 18.109375 17.390625 22.1875 11.75 
Q 26.265625 6.109375 33.40625 6.109375 
Q 40.53125 6.109375 44.609375 11.75 
Q 48.6875 17.390625 48.6875 27.296875 
z
" id="DejaVuSans-70"/>
    </defs>
    <g transform="translate(34.92 37.04)scale(0.14 -0.14)">
     <use xlink:href="#DejaVuSans-70"/>
     <use x="63.476562" xlink:href="#DejaVuSans-76"/>
     <use x="122.65625" xlink:href="#DejaVuSans-61"/>
     <use x="183.935547" xlink:href="#DejaVuSans-6c"/>
     <use x="211.71875" xlink:href="#DejaVuSans-75"/>
     <use x="275.097656" xlink:href="#DejaVuSans-65"/>
     <use x="336.621094" xlink:href="#DejaVuSans-20"/>
     <use x="368.408203" xlink:href="#DejaVuSans-3d"/>
     <use x="452.197266" xlink:href="#DejaVuSans-20"/>
     <use x="483.984375" xlink:href="#DejaVuSans-30"/>
     <use x="547.607422" xlink:href="#DejaVuSans-2e"/>
     <use x="579.394531" xlink:href="#DejaVuSans-34"/>
     <use x="643.017578" xlink:href="#DejaVuSans-34"/>
     <use x="706.640625" xlink:href="#DejaVuSans-37"/>
     <use x="770.263672" xlink:href="#DejaVuSans-39"/>
    </g>
   </g>
  </g>
 </g>
 <defs>
  <clipPath id="p64daa8a430">
   <rect height="222.4" width="402.4" x="14.8" y="14.8"/>
  </clipPath>
 </defs>
</svg>
