<?xml version="1.0" encoding="utf-8"?>
<!-- Generator: Adobe Illustrator 16.0.4, SVG Export Plug-In . SVG Version: 6.00 Build 0)  -->
<!DOCTYPE svg PUBLIC "-//W3C//DTD SVG 1.1//EN" "http://www.w3.org/Graphics/SVG/1.1/DTD/svg11.dtd">
<svg version="1.1" id="layer1" xmlns="http://www.w3.org/2000/svg" xmlns:xlink="http://www.w3.org/1999/xlink" x="0px" y="0px"
	 width="88.5px" height="92px" viewBox="0 0 88.5 92" enable-background="new 0 0 88.5 92" xml:space="preserve">
<g>
	<path fill="#00BFFF" d="M30.747,9.35c0-0.293,0.053-0.586,0.158-0.877c0.105-0.292,0.26-0.553,0.464-0.784
		c0.204-0.232,0.453-0.418,0.747-0.561c0.293-0.142,0.626-0.213,0.998-0.213c0.444,0,0.825,0.099,1.142,0.295
		c0.316,0.197,0.555,0.454,0.716,0.771l-0.605,0.406c-0.069-0.147-0.151-0.271-0.248-0.372c-0.097-0.101-0.202-0.181-0.317-0.241
		c-0.114-0.06-0.234-0.102-0.357-0.127C33.319,7.623,33.2,7.61,33.085,7.61c-0.257,0-0.481,0.051-0.674,0.155
		c-0.193,0.103-0.354,0.24-0.485,0.409c-0.13,0.169-0.229,0.36-0.296,0.571c-0.066,0.211-0.1,0.422-0.1,0.633
		c0,0.239,0.039,0.466,0.117,0.681c0.078,0.216,0.187,0.406,0.327,0.571c0.14,0.165,0.306,0.297,0.499,0.396
		c0.193,0.099,0.404,0.148,0.633,0.148c0.12,0,0.242-0.015,0.368-0.045c0.126-0.03,0.248-0.078,0.365-0.145
		c0.117-0.066,0.225-0.15,0.323-0.251c0.098-0.101,0.18-0.223,0.244-0.365l0.64,0.365c-0.078,0.184-0.188,0.345-0.33,0.485
		c-0.142,0.14-0.303,0.258-0.481,0.354c-0.179,0.096-0.368,0.169-0.567,0.22c-0.2,0.05-0.396,0.076-0.588,0.076
		c-0.344,0-0.658-0.074-0.942-0.22c-0.284-0.147-0.53-0.338-0.736-0.575c-0.207-0.236-0.367-0.504-0.482-0.805
		C30.805,9.967,30.747,9.662,30.747,9.35z"/>
	<path fill="#00BFFF" d="M37.282,11.896c-0.285,0-0.54-0.051-0.767-0.151c-0.227-0.101-0.421-0.236-0.582-0.406
		c-0.161-0.17-0.284-0.368-0.371-0.595s-0.131-0.464-0.131-0.712s0.043-0.485,0.131-0.712c0.087-0.227,0.212-0.425,0.375-0.595
		c0.163-0.169,0.358-0.305,0.585-0.406s0.48-0.151,0.76-0.151c0.279,0,0.533,0.05,0.76,0.151s0.422,0.236,0.585,0.406
		s0.288,0.368,0.375,0.595s0.131,0.464,0.131,0.712s-0.044,0.485-0.131,0.712s-0.212,0.425-0.375,0.595
		c-0.163,0.169-0.358,0.305-0.585,0.406C37.815,11.845,37.561,11.896,37.282,11.896z M36.208,10.038
		c0,0.174,0.027,0.335,0.083,0.481c0.055,0.147,0.131,0.274,0.227,0.382c0.096,0.108,0.21,0.193,0.34,0.254
		c0.131,0.062,0.272,0.093,0.423,0.093c0.151,0,0.292-0.031,0.423-0.093c0.131-0.062,0.244-0.148,0.341-0.258
		c0.096-0.11,0.172-0.238,0.227-0.385c0.055-0.146,0.083-0.307,0.083-0.481c0-0.17-0.027-0.329-0.083-0.479
		c-0.055-0.149-0.13-0.279-0.227-0.389c-0.097-0.11-0.21-0.196-0.341-0.258c-0.131-0.062-0.271-0.093-0.423-0.093
		c-0.147,0-0.286,0.032-0.417,0.096c-0.13,0.064-0.244,0.151-0.34,0.262c-0.096,0.11-0.173,0.24-0.23,0.389
		S36.208,9.869,36.208,10.038z"/>
	<path fill="#00BFFF" d="M43.032,11.827h-0.756V9.811c0-0.339-0.054-0.586-0.162-0.74c-0.108-0.153-0.268-0.23-0.479-0.23
		c-0.11,0-0.22,0.021-0.33,0.062c-0.11,0.042-0.213,0.1-0.31,0.176c-0.097,0.076-0.182,0.165-0.258,0.268
		c-0.076,0.103-0.134,0.217-0.175,0.34v2.14h-0.757V8.229h0.688v0.722c0.137-0.243,0.337-0.435,0.598-0.575
		c0.262-0.14,0.551-0.209,0.867-0.209c0.215,0,0.392,0.039,0.529,0.117c0.138,0.078,0.247,0.185,0.327,0.32
		c0.08,0.136,0.136,0.292,0.168,0.468c0.032,0.177,0.048,0.364,0.048,0.561v2.194H43.032z"/>
	<path fill="#00BFFF" d="M45.915,11.641c-0.097,0.046-0.229,0.097-0.399,0.155c-0.168,0.057-0.351,0.086-0.543,0.086
		c-0.119,0-0.229-0.016-0.335-0.048s-0.198-0.08-0.278-0.145c-0.081-0.064-0.144-0.148-0.189-0.251s-0.07-0.228-0.07-0.375v-2.25
		h-0.475V8.229H44.1V7.045h0.757v1.184h0.783v0.584h-0.783v2.009c0.009,0.128,0.049,0.221,0.121,0.279
		c0.069,0.057,0.158,0.086,0.265,0.086s0.207-0.019,0.303-0.055c0.097-0.036,0.167-0.066,0.213-0.089L45.915,11.641z"/>
	<path fill="#00BFFF" d="M48.46,8.882c-0.293,0.009-0.554,0.077-0.78,0.203c-0.228,0.126-0.39,0.306-0.486,0.54v2.201h-0.756V8.229
		h0.701v0.805c0.125-0.248,0.286-0.446,0.485-0.595c0.2-0.149,0.414-0.23,0.644-0.244c0.045,0,0.084,0,0.113,0
		c0.03,0,0.057,0.002,0.079,0.007V8.882z"/>
	<path fill="#00BFFF" d="M50.627,11.896c-0.285,0-0.54-0.051-0.768-0.151c-0.228-0.101-0.42-0.236-0.582-0.406
		c-0.16-0.17-0.283-0.368-0.37-0.595s-0.132-0.464-0.132-0.712s0.043-0.485,0.132-0.712c0.087-0.227,0.212-0.425,0.375-0.595
		c0.163-0.169,0.358-0.305,0.585-0.406s0.48-0.151,0.76-0.151c0.28,0,0.533,0.05,0.76,0.151c0.229,0.101,0.422,0.236,0.586,0.406
		c0.162,0.17,0.287,0.368,0.375,0.595c0.086,0.227,0.131,0.464,0.131,0.712s-0.045,0.485-0.131,0.712
		c-0.088,0.227-0.213,0.425-0.375,0.595c-0.164,0.169-0.359,0.305-0.586,0.406C51.16,11.845,50.906,11.896,50.627,11.896z
		 M49.555,10.038c0,0.174,0.026,0.335,0.082,0.481c0.055,0.147,0.131,0.274,0.227,0.382c0.098,0.108,0.212,0.193,0.342,0.254
		c0.131,0.062,0.271,0.093,0.423,0.093s0.292-0.031,0.423-0.093c0.133-0.062,0.244-0.148,0.342-0.258
		c0.096-0.11,0.172-0.238,0.228-0.385c0.055-0.146,0.083-0.307,0.083-0.481c0-0.17-0.027-0.329-0.083-0.479
		c-0.056-0.149-0.13-0.279-0.228-0.389c-0.098-0.11-0.209-0.196-0.342-0.258c-0.131-0.062-0.271-0.093-0.423-0.093
		c-0.146,0-0.286,0.032-0.417,0.096c-0.13,0.064-0.244,0.151-0.34,0.262c-0.098,0.11-0.173,0.24-0.229,0.389
		C49.582,9.709,49.555,9.869,49.555,10.038z"/>
	<path fill="#00BFFF" d="M53.158,6.805h0.757v3.983c0,0.133,0.034,0.237,0.103,0.313c0.069,0.076,0.166,0.113,0.289,0.113
		c0.051,0,0.109-0.009,0.176-0.027c0.065-0.019,0.129-0.039,0.188-0.062l0.11,0.592c-0.11,0.05-0.241,0.09-0.393,0.12
		c-0.15,0.03-0.287,0.045-0.406,0.045c-0.262,0-0.463-0.071-0.608-0.213s-0.217-0.344-0.217-0.605L53.158,6.805L53.158,6.805z"/>
</g>
<g>
	<path fill="#FB4C52" d="M32.494,38.03h0.674l1.926,4.884h-0.812l-0.516-1.328h-1.885l-0.509,1.328h-0.818L32.494,38.03z
		 M33.615,41.016l-0.784-2.099l-0.812,2.099H33.615z"/>
	<path fill="#FB4C52" d="M37.605,42.729c-0.097,0.046-0.229,0.097-0.399,0.155c-0.169,0.057-0.351,0.086-0.543,0.086
		c-0.119,0-0.231-0.016-0.337-0.048c-0.106-0.032-0.198-0.08-0.278-0.145c-0.081-0.064-0.144-0.148-0.189-0.251
		s-0.069-0.228-0.069-0.375v-2.25h-0.475v-0.584h0.475v-1.184h0.757v1.184h0.784v0.584h-0.784v2.009
		c0.009,0.128,0.049,0.221,0.121,0.279c0.071,0.057,0.159,0.086,0.265,0.086s0.207-0.019,0.303-0.055
		c0.096-0.036,0.167-0.066,0.213-0.089L37.605,42.729z"/>
	<path fill="#FB4C52" d="M40.15,39.97c-0.293,0.009-0.554,0.077-0.781,0.203s-0.389,0.306-0.485,0.54v2.201h-0.757v-3.598h0.702
		v0.805c0.124-0.248,0.286-0.446,0.485-0.595c0.2-0.149,0.414-0.23,0.643-0.244c0.046,0,0.084,0,0.114,0
		c0.03,0,0.056,0.002,0.079,0.007V39.97z"/>
	<path fill="#FB4C52" d="M42.317,42.983c-0.285,0-0.54-0.051-0.767-0.151c-0.227-0.101-0.421-0.236-0.582-0.406
		c-0.161-0.17-0.284-0.368-0.371-0.595c-0.087-0.227-0.131-0.464-0.131-0.712s0.043-0.485,0.131-0.712
		c0.087-0.227,0.212-0.425,0.375-0.595c0.163-0.169,0.358-0.305,0.585-0.406c0.227-0.101,0.48-0.151,0.76-0.151
		c0.279,0,0.533,0.05,0.76,0.151c0.227,0.101,0.422,0.236,0.585,0.406s0.288,0.368,0.375,0.595c0.087,0.227,0.131,0.464,0.131,0.712
		s-0.044,0.485-0.131,0.712s-0.212,0.425-0.375,0.595c-0.163,0.169-0.358,0.305-0.585,0.406
		C42.851,42.932,42.597,42.983,42.317,42.983z M41.244,41.125c0,0.174,0.027,0.335,0.083,0.481c0.055,0.147,0.131,0.274,0.227,0.382
		c0.096,0.108,0.21,0.193,0.34,0.254c0.131,0.062,0.272,0.093,0.423,0.093s0.292-0.031,0.423-0.093
		c0.131-0.062,0.244-0.148,0.341-0.258c0.096-0.11,0.172-0.238,0.227-0.385c0.055-0.146,0.083-0.307,0.083-0.481
		c0-0.17-0.027-0.329-0.083-0.478c-0.055-0.149-0.13-0.279-0.227-0.389s-0.21-0.196-0.341-0.258
		c-0.131-0.062-0.271-0.093-0.423-0.093c-0.147,0-0.286,0.032-0.417,0.096c-0.13,0.064-0.244,0.151-0.34,0.262
		c-0.096,0.11-0.173,0.24-0.23,0.389C41.272,40.796,41.244,40.956,41.244,41.125z"/>
	<path fill="#FB4C52" d="M46.885,42.983c-0.289,0-0.543-0.069-0.764-0.207c-0.221-0.138-0.395-0.316-0.521-0.537v2.14h-0.758v-5.063
		h0.667v0.646c0.138-0.215,0.315-0.388,0.533-0.516c0.218-0.128,0.464-0.192,0.74-0.192c0.247,0,0.475,0.05,0.681,0.151
		c0.206,0.101,0.385,0.236,0.537,0.406c0.15,0.17,0.27,0.367,0.354,0.592c0.086,0.225,0.127,0.461,0.127,0.708
		c0,0.261-0.039,0.505-0.117,0.732c-0.076,0.227-0.188,0.424-0.328,0.592s-0.312,0.3-0.508,0.399
		C47.333,42.934,47.119,42.983,46.885,42.983z M46.637,42.336c0.161,0,0.307-0.035,0.438-0.104c0.13-0.069,0.241-0.16,0.337-0.275
		c0.094-0.115,0.166-0.246,0.217-0.392c0.051-0.147,0.076-0.298,0.076-0.454c0-0.165-0.029-0.321-0.086-0.468
		c-0.059-0.147-0.137-0.275-0.234-0.385c-0.099-0.11-0.217-0.197-0.354-0.262c-0.137-0.064-0.286-0.096-0.446-0.096
		c-0.097,0-0.196,0.019-0.304,0.055c-0.105,0.036-0.203,0.087-0.295,0.151s-0.172,0.139-0.24,0.224s-0.117,0.178-0.145,0.278v0.942
		c0.045,0.11,0.104,0.213,0.18,0.31c0.072,0.097,0.154,0.179,0.244,0.248c0.088,0.069,0.187,0.124,0.291,0.165
		C46.419,42.315,46.527,42.336,46.637,42.336z"/>
	<path fill="#FB4C52" d="M49.162,38.725v-0.833h0.757v0.833H49.162z M49.162,42.914v-3.598h0.757v3.598H49.162z"/>
	<path fill="#FB4C52" d="M54.053,42.914h-0.756v-2.016c0-0.339-0.054-0.586-0.162-0.74c-0.107-0.153-0.268-0.23-0.479-0.23
		c-0.11,0-0.221,0.021-0.33,0.062c-0.11,0.042-0.213,0.1-0.311,0.176s-0.183,0.165-0.259,0.268c-0.075,0.103-0.134,0.217-0.175,0.34
		v2.14h-0.757v-3.598h0.688v0.722c0.137-0.243,0.338-0.435,0.598-0.575c0.263-0.14,0.552-0.209,0.867-0.209
		c0.215,0,0.393,0.039,0.528,0.117c0.14,0.078,0.247,0.185,0.327,0.32c0.08,0.136,0.137,0.292,0.168,0.468
		c0.032,0.177,0.048,0.364,0.048,0.561v2.194H54.053z"/>
	<path fill="#FB4C52" d="M56.564,42.983c-0.28,0-0.535-0.049-0.766-0.148s-0.425-0.233-0.588-0.402
		c-0.163-0.17-0.289-0.367-0.378-0.592c-0.09-0.225-0.134-0.463-0.134-0.715s0.044-0.492,0.134-0.719
		c0.089-0.227,0.215-0.427,0.378-0.599c0.163-0.172,0.357-0.307,0.588-0.406s0.486-0.148,0.771-0.148
		c0.281,0,0.533,0.05,0.761,0.151c0.228,0.101,0.42,0.235,0.581,0.402s0.283,0.362,0.367,0.584c0.086,0.223,0.128,0.456,0.128,0.698
		c0,0.055-0.003,0.107-0.007,0.155c-0.006,0.048-0.01,0.088-0.016,0.121h-2.882c0.015,0.161,0.054,0.305,0.114,0.434
		c0.062,0.128,0.142,0.24,0.24,0.333c0.1,0.094,0.211,0.166,0.336,0.217c0.127,0.05,0.26,0.076,0.396,0.076
		c0.102,0,0.201-0.013,0.299-0.038c0.1-0.025,0.189-0.062,0.272-0.11c0.083-0.048,0.155-0.107,0.22-0.175
		c0.064-0.069,0.115-0.145,0.151-0.227l0.647,0.186c-0.125,0.271-0.33,0.492-0.617,0.664C57.277,42.897,56.943,42.983,56.564,42.983
		z M57.658,40.843c-0.014-0.151-0.053-0.291-0.114-0.419s-0.142-0.237-0.237-0.327c-0.096-0.089-0.207-0.16-0.336-0.21
		c-0.13-0.05-0.265-0.076-0.406-0.076c-0.143,0-0.275,0.025-0.401,0.076c-0.126,0.05-0.237,0.121-0.334,0.21
		c-0.097,0.089-0.175,0.198-0.233,0.327c-0.061,0.129-0.097,0.268-0.109,0.419H57.658z"/>
</g>
<g>
	<path fill="#231F20" d="M56.154,76.705c0-0.389,0.041-0.701,0.121-0.938c0.08-0.238,0.199-0.418,0.354-0.548
		c0.158-0.128,0.354-0.192,0.597-0.192c0.176,0,0.33,0.037,0.463,0.105c0.131,0.07,0.242,0.174,0.328,0.309
		c0.088,0.134,0.154,0.295,0.205,0.488c0.049,0.19,0.072,0.449,0.072,0.774c0,0.385-0.04,0.694-0.119,0.935
		c-0.078,0.235-0.195,0.42-0.354,0.549c-0.157,0.129-0.356,0.192-0.598,0.192c-0.315,0-0.564-0.112-0.746-0.34
		C56.264,77.766,56.154,77.32,56.154,76.705z M56.568,76.705c0,0.539,0.062,0.898,0.188,1.076s0.282,0.268,0.468,0.268
		s0.342-0.09,0.467-0.269c0.127-0.179,0.188-0.538,0.188-1.075c0-0.541-0.062-0.898-0.188-1.077
		c-0.125-0.178-0.282-0.267-0.471-0.267c-0.186,0-0.332,0.078-0.443,0.233C56.639,75.796,56.568,76.166,56.568,76.705z"/>
	<path fill="#231F20" d="M58.932,78.324v-0.459h0.459v0.459H58.932z"/>
	<path fill="#231F20" d="M59.979,77.464l0.424-0.036c0.031,0.206,0.104,0.361,0.219,0.465c0.113,0.104,0.252,0.155,0.413,0.155
		c0.192,0,0.356-0.073,0.491-0.22c0.136-0.146,0.203-0.34,0.203-0.582c0-0.23-0.064-0.411-0.193-0.544
		c-0.131-0.134-0.299-0.2-0.508-0.2c-0.131,0-0.248,0.03-0.353,0.089c-0.104,0.06-0.187,0.136-0.245,0.229l-0.379-0.049l0.318-1.688
		h1.632v0.385h-1.31l-0.178,0.884c0.196-0.139,0.403-0.207,0.619-0.207c0.287,0,0.529,0.101,0.727,0.299
		c0.197,0.199,0.297,0.453,0.297,0.766c0,0.297-0.088,0.555-0.26,0.77c-0.211,0.268-0.498,0.399-0.862,0.399
		c-0.3,0-0.542-0.084-0.731-0.251C60.113,77.962,60.006,77.74,59.979,77.464z"/>
	<path fill="#231F20" d="M63.916,78.324v-2.379h0.359v0.335c0.076-0.117,0.175-0.21,0.299-0.281s0.265-0.106,0.423-0.106
		c0.176,0,0.321,0.037,0.435,0.11c0.111,0.073,0.191,0.175,0.237,0.308c0.188-0.276,0.433-0.418,0.733-0.418
		c0.236,0,0.418,0.065,0.545,0.196c0.127,0.13,0.189,0.332,0.189,0.604v1.632h-0.4v-1.498c0-0.161-0.014-0.277-0.041-0.349
		c-0.025-0.07-0.072-0.127-0.141-0.17c-0.07-0.043-0.15-0.065-0.242-0.065c-0.168,0-0.308,0.056-0.418,0.167
		c-0.109,0.111-0.166,0.289-0.166,0.533v1.383h-0.402v-1.545c0-0.18-0.033-0.314-0.1-0.403c-0.064-0.089-0.172-0.134-0.322-0.134
		c-0.113,0-0.217,0.029-0.314,0.089c-0.096,0.06-0.166,0.147-0.209,0.262c-0.043,0.115-0.064,0.281-0.064,0.497v1.234h-0.399
		L63.916,78.324L63.916,78.324z"/>
	<path fill="#231F20" d="M68.727,78.324l-1.271-3.283h0.47l0.854,2.385c0.068,0.191,0.127,0.37,0.173,0.538
		c0.051-0.179,0.11-0.358,0.177-0.538l0.887-2.385h0.443l-1.285,3.283H68.727z"/>
</g>
<g>
	<path fill="#231F20" d="M71.395,86.784h-0.402v-2.568c-0.098,0.093-0.227,0.185-0.383,0.277c-0.157,0.093-0.299,0.162-0.424,0.208
		v-0.391c0.226-0.105,0.422-0.233,0.59-0.386c0.17-0.149,0.289-0.297,0.358-0.438h0.261V86.784z"/>
	<path fill="#231F20" d="M72.426,85.165c0-0.388,0.04-0.701,0.12-0.937c0.08-0.237,0.199-0.42,0.356-0.547
		c0.158-0.13,0.354-0.193,0.595-0.193c0.176,0,0.331,0.035,0.463,0.104c0.132,0.07,0.243,0.175,0.329,0.308
		c0.087,0.135,0.154,0.297,0.204,0.488c0.049,0.191,0.073,0.45,0.073,0.775c0,0.385-0.039,0.695-0.118,0.934
		c-0.079,0.236-0.197,0.42-0.355,0.549c-0.157,0.129-0.356,0.193-0.597,0.193c-0.316,0-0.564-0.113-0.746-0.34
		C72.534,86.227,72.426,85.782,72.426,85.165z M72.84,85.165c0,0.539,0.062,0.897,0.189,1.076c0.125,0.178,0.281,0.268,0.467,0.268
		s0.341-0.09,0.467-0.269c0.126-0.18,0.189-0.538,0.189-1.075c0-0.541-0.063-0.899-0.189-1.077s-0.283-0.268-0.471-0.268
		c-0.186,0-0.333,0.08-0.443,0.236C72.91,84.257,72.84,84.626,72.84,85.165z"/>
	<path fill="#231F20" d="M74.977,85.165c0-0.388,0.041-0.701,0.121-0.937c0.079-0.237,0.198-0.42,0.355-0.547
		c0.158-0.13,0.355-0.193,0.595-0.193c0.177,0,0.331,0.035,0.464,0.104c0.131,0.07,0.242,0.175,0.328,0.308
		c0.087,0.135,0.155,0.297,0.204,0.488s0.074,0.45,0.074,0.775c0,0.385-0.04,0.695-0.119,0.934c-0.079,0.236-0.197,0.42-0.354,0.549
		c-0.158,0.129-0.355,0.193-0.598,0.193c-0.316,0-0.564-0.113-0.746-0.34C75.085,86.227,74.977,85.782,74.977,85.165z
		 M75.391,85.165c0,0.539,0.063,0.897,0.189,1.076c0.126,0.178,0.281,0.268,0.467,0.268s0.342-0.09,0.467-0.269
		c0.127-0.18,0.189-0.538,0.189-1.075c0-0.541-0.062-0.899-0.189-1.077c-0.125-0.178-0.283-0.268-0.471-0.268
		c-0.186,0-0.333,0.08-0.443,0.236C75.46,84.257,75.391,84.626,75.391,85.165z"/>
	<path fill="#231F20" d="M78.914,86.784v-2.378h0.359v0.334c0.076-0.117,0.175-0.21,0.299-0.281c0.123-0.07,0.265-0.105,0.423-0.105
		c0.176,0,0.321,0.037,0.435,0.109c0.111,0.073,0.191,0.176,0.237,0.307c0.188-0.275,0.433-0.416,0.733-0.416
		c0.236,0,0.418,0.064,0.545,0.195s0.188,0.332,0.188,0.604v1.634h-0.399v-1.498c0-0.161-0.014-0.277-0.041-0.349
		c-0.025-0.07-0.072-0.129-0.143-0.172s-0.148-0.063-0.24-0.063c-0.168,0-0.308,0.056-0.418,0.167
		c-0.109,0.109-0.166,0.289-0.166,0.533v1.383h-0.402v-1.545c0-0.18-0.033-0.314-0.1-0.403c-0.064-0.089-0.174-0.134-0.322-0.134
		c-0.113,0-0.217,0.029-0.314,0.089c-0.096,0.062-0.166,0.146-0.209,0.263c-0.043,0.115-0.064,0.28-0.064,0.496v1.234h-0.399
		L78.914,86.784L78.914,86.784z"/>
	<path fill="#231F20" d="M82.573,86.074l0.397-0.062c0.021,0.16,0.086,0.282,0.188,0.367c0.104,0.085,0.244,0.127,0.429,0.127
		s0.323-0.038,0.412-0.113c0.09-0.076,0.134-0.164,0.134-0.266c0-0.091-0.04-0.163-0.119-0.215c-0.055-0.036-0.19-0.082-0.412-0.137
		c-0.295-0.075-0.5-0.141-0.615-0.193c-0.112-0.055-0.199-0.13-0.26-0.227c-0.059-0.098-0.088-0.203-0.088-0.319
		c0-0.106,0.024-0.204,0.073-0.294c0.048-0.09,0.114-0.166,0.198-0.225c0.062-0.047,0.148-0.086,0.257-0.119
		c0.108-0.031,0.224-0.047,0.349-0.047c0.188,0,0.351,0.025,0.49,0.08c0.141,0.055,0.245,0.127,0.312,0.219
		c0.065,0.093,0.113,0.215,0.139,0.369l-0.395,0.054c-0.019-0.123-0.069-0.218-0.154-0.287c-0.086-0.068-0.208-0.103-0.364-0.103
		c-0.185,0-0.317,0.029-0.396,0.092c-0.08,0.062-0.119,0.133-0.119,0.215c0,0.053,0.017,0.1,0.049,0.141
		c0.033,0.043,0.084,0.079,0.154,0.108c0.041,0.015,0.16,0.049,0.355,0.103c0.285,0.076,0.484,0.139,0.598,0.188
		c0.112,0.049,0.201,0.118,0.267,0.212c0.063,0.092,0.096,0.208,0.096,0.345c0,0.136-0.039,0.263-0.118,0.379
		c-0.078,0.119-0.189,0.211-0.339,0.276c-0.147,0.064-0.315,0.097-0.501,0.097c-0.309,0-0.544-0.063-0.707-0.19
		C82.721,86.518,82.618,86.327,82.573,86.074z"/>
</g>
<line fill="none" stroke="#D2D2D2" stroke-width="0.363" stroke-linecap="round" stroke-linejoin="round" stroke-miterlimit="22.926" x1="4.904" y1="24.799" x2="81.725" y2="24.799"/>
<path fill="none" stroke="#00BFFF" stroke-width="0.812" stroke-linecap="round" stroke-linejoin="round" stroke-miterlimit="22.926" d="
	M4.972,25.147l0.068,0.239l0.102,0.205c0.781,1.951,2.256,9.456,3.86,3.108l0.103-0.273l0.068-0.273l0.068-0.307
	c0.68-2.662,1.11-5.494,1.845-8.13l0.068-0.307l0.069-0.239c0.426-1.35,1.026-3.19,1.912-0.787l0.068,0.206l0.07,0.239l0.102,0.239
	 M13.375,19.067l0.068,0.273l0.068,0.274l0.069,0.308l0.068,0.307c0.92,3.057,1.019,6.446,2.528,9.291
	c0.266,0.362,0.616,0.347,0.922,0.034c0.192-0.286,0.161-0.114,0.376-0.512l0.068-0.137l0.069-0.137l0.102-0.136
	c0.376-0.693,0.719-1.465,1.127-2.118c0.307-0.464,0.651-0.963,1.162-1.197l0.068-0.032l0.068-0.035l0.069-0.034h0.102l0.068-0.034
	l0.069-0.035h0.067l0.069-0.034h0.103l0.069-0.034l0.067-0.034h0.068l0.103-0.035l0.069-0.033h0.068
	c0.156-0.081,0.301-0.177,0.444-0.274l0.102-0.068l0.068-0.068l0.069-0.069l0.068-0.068c1.093-1.231,1.497-3.248,2.528-4.441
	l0.068-0.067l0.069-0.035l0.103-0.034l0.067-0.035h0.24l0.068,0.035l0.068,0.069c0.473,0.292,0.927,1.742,1.059,2.254l0.102,0.239
	l0.069,0.273c0.368,1.54,0.774,3.067,1.127,4.611l0.068,0.307l0.103,0.273l0.068,0.309c0.515,1.599,1.172,4.48,2.528,1.468
	l0.069-0.171l0.067-0.205l0.069-0.171l0.068-0.204c0.823-2.05,1.416-4.15,2.528-6.081l0.068-0.136l0.103-0.137
	c0.504-0.9,1.675-3.045,2.493-3.587l0.069-0.034l0.102-0.034l0.069-0.034h0.239 M36.159,18.862l0.136,0.068l0.068,0.035l0.069,0.068
	l0.103,0.069c0.575,0.622,0.772,1.478,1.058,2.254l0.069,0.274l0.068,0.272c0.485,1.548,0.771,3.236,1.162,4.816l0.068,0.342
	l0.068,0.342l0.102,0.342l0.069,0.341c0.274,1.363,0.624,2.711,1.059,4.031l0.068,0.205l0.068,0.205l0.103,0.17
	c0.125,0.373,0.224,0.414,0.376,0.684l0.068,0.068l0.068,0.068l0.103,0.068l0.068,0.035h0.205l0.102-0.035l0.069-0.068
	c0.288-0.182,0.378-0.541,0.546-0.82c1.228-3.548,1.688-7.68,2.494-11.374l0.068-0.376l0.104-0.342l0.067-0.341
	c0.267-1.086,0.526-2.396,1.128-3.348l0.102-0.068l0.067-0.068c0.474-0.474,1.003,0.534,1.128,0.888
	c0.209,0.436,0.391,0.908,0.547,1.366c0.762,2.166,1.303,4.518,2.493,6.49l0.103,0.102l0.07,0.103
	c1.021,1.301,1.738,1.958,2.526,3.519l0.069,0.136l0.064,0.137l0.069,0.137l0.065,0.136c1.119,2.127,1.758,2.312,2.598-0.205
	l0.103-0.238l0.069-0.24c0.959-3.198,1.41-6.926,2.596-9.975l0.068-0.17l0.066-0.171l0.068-0.137l0.104-0.136 M58.943,18.521
	c0.564-0.959,1.156-0.251,1.502,0.443c0.412,0.783,0.77,1.725,1.059,2.562l0.102,0.171l0.141,0.41
	c0.609,1.55,1.193,3.112,2.354,4.338l0.068,0.069l0.104,0.068l0.067,0.069l0.069,0.067c0.773,0.597,1.421,0.939,2.357,1.23h0.102
	l0.068,0.034c1.428,0.228,2.182-0.897,2.801-2.015c0.186-0.267,0.363-0.738,0.545-1.059c0.334-0.686,0.646-1.412,0.992-2.083
	l0.065-0.137l0.067-0.171c0.326-0.476,0.562-1.043,1.094-1.332h0.066l0.068-0.034h0.239l0.067,0.034l0.07,0.034
	c0.365,0.126,0.25,0.261,0.477,0.376c0.119,0.202,0.262,0.381,0.377,0.581l0.066,0.137l0.067,0.171l0.067,0.136
	c0.388,0.672,0.713,1.638,1.095,2.322c0.118,0.368,0.299,0.522,0.442,0.854c0.285,0.377,0.606,0.878,1.158,0.82l0.07-0.034H76.9
	l0.067-0.034c0.257-0.128,0.149-0.004,0.375-0.239l0.103-0.034l0.07-0.069c0.151-0.165,0.229-0.178,0.375-0.375
	c0.155-0.168,0.225-0.176,0.375-0.376c0.327-0.292,0.648-0.586,1.06-0.752l0.103-0.034l0.067-0.034
	c0.549-0.191,1.12-0.039,1.674,0.034l0.067,0.034h0.172l0.068,0.034h0.137l0.104,0.035"/>
<path fill="#FBC15E" d="M8.729,31.228c0,0.641-0.52,1.161-1.161,1.161c-0.642,0-1.161-0.52-1.161-1.161
	c0-0.642,0.519-1.162,1.161-1.162C8.209,30.066,8.729,30.586,8.729,31.228"/>
<path fill="#FBC15E" d="M17.713,29.793c0,0.641-0.52,1.161-1.161,1.161c-0.641,0-1.162-0.52-1.162-1.161s0.521-1.161,1.162-1.161
	C17.193,28.632,17.713,29.152,17.713,29.793"/>
<path fill="#FBC15E" d="M30.215,30.988c0,0.641-0.52,1.161-1.161,1.161c-0.642,0-1.162-0.52-1.162-1.161
	c0-0.641,0.52-1.161,1.162-1.161C29.695,29.827,30.215,30.347,30.215,30.988"/>
<path fill="#FBC15E" d="M42.41,33.619c0,0.641-0.52,1.161-1.161,1.161c-0.642,0-1.162-0.521-1.162-1.161
	c0-0.641,0.52-1.162,1.162-1.162S42.41,32.978,42.41,33.619"/>
<path fill="#FBC15E" d="M55.73,31.432c0,0.641-0.521,1.162-1.16,1.162c-0.645,0-1.162-0.521-1.162-1.162
	c0-0.64,0.52-1.161,1.162-1.161C55.211,30.271,55.73,30.792,55.73,31.432"/>
<path fill="#FBC15E" d="M68.473,28.017c0,0.641-0.52,1.161-1.162,1.161c-0.64,0-1.16-0.52-1.16-1.161s0.521-1.162,1.16-1.162
	C67.953,26.855,68.473,27.376,68.473,28.017"/>
<path fill="#FBC15E" d="M77.762,26.616c0,0.641-0.52,1.162-1.16,1.162c-0.642,0-1.162-0.521-1.162-1.162
	c0-0.641,0.521-1.161,1.162-1.161C77.243,25.455,77.762,25.975,77.762,26.616"/>
<polyline fill="none" stroke="#231F20" stroke-width="0.75" stroke-linecap="round" stroke-linejoin="round" stroke-miterlimit="22.926" points="
	72.898,80.395 80.548,80.395 72.898,80.395 72.898,71.992 "/>
<line fill="none" stroke="#D2D2D2" stroke-width="0.363" stroke-linecap="round" stroke-linejoin="round" stroke-miterlimit="22.926" x1="4.904" y1="55.102" x2="81.725" y2="55.102"/>
<path fill="none" stroke="#FB4C52" stroke-width="0.812" stroke-linecap="round" stroke-linejoin="round" stroke-miterlimit="22.926" d="
	M4.972,57.465l0.068,0.443l0.102,0.479l0.069,0.479l0.068,0.442c0.223,1.229,0.398,2.366,0.683,3.588
	c0.164,0.621,0.285,1.164,0.546,1.742c0.122,0.276,0.328,0.648,0.684,0.409c0.948-1.371,1.403-4.877,1.81-6.56l0.103-0.344
	l0.068-0.375l0.068-0.342l0.069-0.343c0.365-1.328,0.805-3.86,1.844-4.851c0.141-0.178,0.359-0.25,0.512-0.409l0.103-0.035
	l0.069-0.033l0.067-0.067l0.069-0.067l0.103-0.035l0.068-0.067l0.068-0.066l0.069-0.067c0.252-0.182,0.613-0.834,0.785-1.094
	l0.068-0.171l0.068-0.137l0.07-0.172l0.102-0.17 M13.375,49.643l0.068-0.172l0.068-0.17l0.069-0.172l0.068-0.17
	c1.363-3.414,1.805-2.546,2.528,0.684l0.069,0.375l0.101,0.41l0.069,0.41c0.379,2.367,0.724,4.73,1.059,7.104l0.068,0.549
	l0.069,0.478c0.309,1.618,0.536,3.843,1.161,5.363c0.467,1.001,0.846,0.083,1.059-0.479c0.167-0.486,0.262-0.785,0.376-1.3
	l0.102-0.307l0.068-0.341l0.069-0.312c0.377-1.782,0.773-3.569,1.127-5.36l0.102-0.308l0.068-0.343l0.069-0.309
	c0.304-0.949,1.202-5.485,2.596-2.596c0.199,0.428,0.365,0.861,0.547,1.297c0.352,0.972,0.647,1.957,1.059,2.905l0.068,0.203
	l0.068,0.172c0.235,0.386,0.686,1.511,1.298,0.819l0.068-0.104l0.103-0.138l0.068-0.104c1.223-2.791,1.585-6.406,2.528-9.356
	l0.069-0.24l0.067-0.237l0.069-0.205l0.068-0.205c1.421-3.706,2.39,3.132,2.596,3.858l0.103,0.41l0.068,0.409l0.068,0.411
	c0.378,2.207,0.77,4.415,1.127,6.626l0.103,0.443l0.068,0.41c0.28,1.426,0.586,3.062,1.128,4.405c0.21,0.213,0.139,0.414,0.41,0.547
	 M36.159,65.014c0.126,0.168,0.283,0.119,0.444,0.035c0.532-0.49,0.835-1.604,1.059-2.291l0.068-0.271l0.102-0.271
	c0.383-1.404,0.709-2.82,1.06-4.234l0.068-0.31l0.068-0.341l0.102-0.311c0.545-2.145,1.272-6.228,2.494-7.992
	c0.323-0.26,0.147-0.188,0.478-0.271h0.068l0.068,0.034l0.07,0.034l0.067,0.033l0.103,0.033l0.067,0.068l0.069,0.068
	c0.134,0.195,0.27,0.289,0.375,0.547l0.103,0.136l0.068,0.138l0.067,0.137c0.375,0.766,0.733,1.533,1.061,2.322l0.066,0.139
	l0.104,0.171l0.068,0.137c0.75,1.448,1.261,2.08,2.904,2.117l0.067,0.035h0.067l0.067,0.03h0.104l0.068,0.035
	c2.355,0.744,3.023,6.853,5.465,2.188l0.103-0.14l0.069-0.135l0.065-0.104c0.693-1.12,1.114-1.865,2.459-2.118h0.069l0.066-0.034
	l0.067-0.033c0.259-0.021,0.899-0.377,1.06-0.582l0.104-0.065L57.4,53.88c0.377-0.338,0.811-0.807,1.127-1.196
	c0.24-0.123,0.173-0.252,0.412-0.375 M58.943,52.307l0.064-0.066l0.069-0.068l0.065-0.066l0.069-0.068l0.103-0.034
	c0.322-0.302,1.002-0.519,1.436-0.444l0.066,0.035h0.104l0.068,0.034c0.125,0.019,0.26,0.038,0.375,0.101
	c0.362,0.148,0.659,0.392,0.923,0.687c1.396,1.673,2.01,5.681,2.492,7.788l0.103,0.376l0.069,0.341l0.066,0.376l0.068,0.341
	c0.75,3.239,1.518,6.918,2.527,0.926l0.068-0.479l0.066-0.478c1.035-6.809,1.295-13.926,2.525-20.667
	c0.336-1.613,0.766-1.845,1.127-0.069c0.229,0.699,0.233,1.476,0.412,2.186l0.065,0.581l0.067,0.581l0.068,0.615
	c0.477,3.823,0.762,7.682,1.162,11.512l0.068,0.784l0.066,0.786l0.067,0.752c0.245,1.062,1.086,14.111,2.526,5.875
	c0.109-0.781,0.291-1.465,0.375-2.254c0.363-2.314,0.678-4.622,1.06-6.936l0.104-0.412l0.068-0.407l0.065-0.375
	c0.094-0.519,0.266-1.072,0.377-1.606l0.069-0.236l0.101-0.24c0.149-0.463,0.176-0.508,0.444-0.887
	c0.238-0.105,0.189-0.221,0.443-0.068c0.227,0.07,0.438,0.384,0.547,0.58c0.139,0.252,0.25,0.394,0.375,0.684l0.067,0.17
	l0.103,0.139l0.07,0.138c0.271,0.556,0.68,1.346,1.125,1.774c0.199,0.119,0.155,0.172,0.411,0.31"/>
<path fill="#FBC15E" d="M8.047,65.116c0,0.642-0.52,1.161-1.162,1.161c-0.642,0-1.162-0.521-1.162-1.161
	c0-0.642,0.52-1.162,1.162-1.162C7.527,63.954,8.047,64.475,8.047,65.116"/>
<path fill="#FBC15E" d="M20.309,64.773c0,0.642-0.52,1.162-1.162,1.162c-0.64,0-1.161-0.521-1.161-1.162
	c0-0.643,0.521-1.16,1.161-1.16C19.789,63.613,20.309,64.133,20.309,64.773"/>
<path fill="#FBC15E" d="M28.165,58.284c0,0.642-0.52,1.161-1.161,1.161c-0.642,0-1.162-0.521-1.162-1.161
	c0-0.642,0.52-1.162,1.162-1.162C27.645,57.122,28.165,57.643,28.165,58.284"/>
<path fill="#FBC15E" d="M37.457,65.116c0,0.642-0.52,1.161-1.162,1.161c-0.641,0-1.161-0.521-1.161-1.161
	c0-0.642,0.52-1.162,1.161-1.162C36.937,63.954,37.457,64.475,37.457,65.116"/>
<path fill="#FBC15E" d="M52.691,58.898c0,0.642-0.521,1.162-1.162,1.162s-1.16-0.521-1.16-1.162c0-0.643,0.52-1.16,1.16-1.16
	C52.171,57.738,52.691,58.258,52.691,58.898"/>
<path fill="#FBC15E" d="M67.619,65.766c0,0.643-0.52,1.16-1.162,1.16c-0.641,0-1.162-0.52-1.162-1.16
	c0-0.643,0.521-1.162,1.162-1.162C67.1,64.604,67.619,65.123,67.619,65.766"/>
<path fill="#FBC15E" d="M76.089,67.268c0,0.644-0.521,1.162-1.161,1.162c-0.64,0-1.162-0.521-1.162-1.162
	c0-0.641,0.521-1.16,1.162-1.16S76.089,66.627,76.089,67.268"/>
</svg>
