<?xml version="1.0" encoding="utf-8"?>
<!-- Generator: Adobe Illustrator 16.0.4, SVG Export Plug-In . SVG Version: 6.00 Build 0)  -->
<!DOCTYPE svg PUBLIC "-//W3C//DTD SVG 1.1//EN" "http://www.w3.org/Graphics/SVG/1.1/DTD/svg11.dtd">
<svg version="1.1" id="Layer_1" xmlns="http://www.w3.org/2000/svg" xmlns:xlink="http://www.w3.org/1999/xlink" x="0px" y="0px"
	 width="235.014px" height="149.539px" viewBox="0 0 235.014 149.539" enable-background="new 0 0 235.014 149.539"
	 xml:space="preserve">
<g>
	<path fill="none" d="M226.621,96.251c0,16.424,0,32.847,0,49.271c-71.797,0-143.594,0-215.392,0c0-16.513,0-33.026,0-49.54
		c0.411-0.04,0.57-0.401,0.819-0.644c1.415-1.38,1.899-3.206,2.432-5.019c0.436-1.484,0.817-3.01,2.069-4.179
		c1.118,0.865,2.151,1.722,3.243,2.496c2.769,1.962,2.961,2.588,1.605,5.684c-0.305,0.697-0.628,1.388-0.921,2.092
		c-0.243,0.583-0.375,1.192-0.407,1.829c-0.123,2.4,1.199,3.973,3.046,5.183c2.983,1.954,6.373,2.551,9.853,2.776
		c1.9,0.123,3.803,0.003,5.693-0.104c0.076,0.489-0.175,0.736-0.367,0.946c-1.58,1.729-1.872,3.81-1.713,6.025
		c0.064,0.896,0.074,1.797,0.2,2.684c0.924,6.522,0.152,12.878-1.817,19.123c-0.209,0.66-0.391,1.329-0.584,1.994
		c0.214,0.06,0.428,0.12,0.642,0.181c1.297-3.625,1.994-7.421,2.729-11.213c0.757-3.902-0.044-7.802-0.175-11.858
		c0.919,0.337,1.604,0.546,2.253,0.834c1.989,0.882,3.989,0.911,6.018,0.165c0.924-0.341,1.861-0.652,2.774-1.022
		c2.211-0.896,4.374-0.764,6.526,0.204c1.804,0.812,3.505,1.807,5.167,2.872c0.881,0.564,1.737,1.167,2.604,1.751
		c-1.235-1.883-3.232-2.867-4.751-4.203c1.663-2.68,4.079-3.15,6.86-2.695c0.882,0.145,1.789,0.141,2.681,0.228
		c1.763,0.172,3.358-0.218,4.857-1.199c1.611-1.054,3.273-2.038,4.959-2.97c1.026-0.568,2.104-1.094,3.396-1.138
		c-0.214,1.54-0.664,2.905-1.196,4.221c-2.16,5.34-1.235,10,2.921,14.005c0.097,0.093,0.175,0.205,0.264,0.306
		c5.859,6.638,13.06,10.68,21.994,11.379c0.383,0.03,0.82-0.039,1.142,0.339c-0.321,1.445-0.992,2.847-0.797,4.395
		c0.665-1.563,1.1-3.175,1.283-4.832c-0.85-0.541-1.82-0.356-2.729-0.783c0.119-1.804,0.239-3.616,0.366-5.528
		c5.502,0.898,10.937,0.679,16.488,0.337c-0.447-0.832-1.017-0.887-1.739-0.786c-4.92,0.693-9.827,0.334-14.719-0.149
		c-0.467-1.014-0.547-2.017-0.572-2.979c-0.102-4.055-1.714-7.098-5.175-9.427c-3.224-2.171-6.058-4.915-9.168-7.267
		c-2.098-1.586-3.335-3.583-3.773-6.125c-0.631-3.669-1.775-7.267-1.389-11.187c-2.458,1.963-3.684,1.893-5.922-0.174
		c-1.24-1.146-2.181-2.5-2.857-4.035c-1.321-3.002-1.849-6.172-1.931-9.43c-0.019-0.733-0.003-1.468-0.003-2.274
		c1.582,0.286,1.565,1.763,2.34,2.577c0.489-0.808,0.2-1.671,0.497-2.448c0.935,0.356,1.083,1.408,1.9,1.753
		c0.425-0.34,0.235-0.937,0.626-1.407c1.152,0.764,1.681,1.929,2.252,3.043c-0.346,0.986-0.574,1.933-0.664,2.926
		c-0.088,0.98,0.135,1.933,0.206,3.048c-1.062-0.447-1.998-0.841-2.898-1.219c-0.485-1.356-0.815-2.687-1.761-3.946
		c0.574,4.275,1.746,5.537,5.315,5.856c0.163-1.937-0.557-3.9,0.031-5.746c0.483-0.27,0.912,0.185,1.306-0.229
		c-0.949-3.245-1.208-6.564-0.508-9.934c0.457-2.198,0.883-4.396,0.56-6.668c-0.059-0.419,0.062-0.9,0.215-1.308
		c1.572-4.166,3.301-8.211,6.567-11.445c1.888-1.869,3-4.239,2.988-7.003c-0.002-0.5,0-1,0-1.5c0.945,2.139,1.986,4.151,3.8,5.452
		c0.273,0.704,0.197,1.366,0.737,2.021c0.544-1.799-0.088-3.238-0.769-4.604c-1.3-2.609-0.628-5.112,0.113-7.728
		c1.323,0.292,2.565,0.439,3.704,1.065c0.982,1.943,1.662,4.084,3.317,5.403c5.093,0.555,9.114,3.084,13.133,5.502
		c0.027,1.217,0.207,2.241,0.596,3.195c1.05,2.57-0.471,4.623-3.037,5.878c-0.761-0.463-1.145-1.178-1.279-1.974
		c0.194-1.047,1.295-1.444,1.494-2.399c-0.938-0.939-2.082-0.937-3.191-0.809c-2.135,0.246-4.083-0.194-5.949-1.235
		c-1.052-0.587-2.142-1.123-3.324-1.439c-1.147-0.309-1.938,0.089-2.387,1.157c-0.489,1.165-0.646,2.396-0.705,3.721
		c3.572,0.983,7.438,0.333,10.652,2.283c0.981-0.329,1.866-0.625,2.741-0.919c0.376,0.625-0.034,1.241,0.287,1.925
		c2.38,0.075,3.865,1.573,5.091,3.529c1.646,2.625-0.652,3.978-1.77,5.687c0.251,0.455,0.574,0.596,1.086,0.448
		c-0.074-1.071,0.554-1.825,1.187-2.597c1.384-1.69,1.289-2.764-0.237-4.333c-0.805-0.827-1.91-1.349-2.507-2.451
		c0.813-1.405,2.249-2.315,2.996-3.734c-0.259-1.643-0.748-3.215-0.744-4.921c1.111,0.256,1.697,1.148,2.605,1.61
		c0.776-0.403,1.255-1.082,1.687-1.62c-0.031-0.611-0.58-0.894-0.334-1.407c1.927,1.986,0.62,4.159,0.242,6.413
		c0.681,1.036,1.414,2.153,2.142,3.261c-0.187,0.427-0.502,0.661-0.875,0.884c-1.584-0.476-3.187-0.78-4.785,0.052
		c1.857,0.279,3.728,0.403,5.506,1.021c0.03,0.011,0.079-0.037,0.193-0.096c0.099-0.264,0.218-0.585,0.338-0.904
		c0.495-0.019,0.917,0.037,1.289,0.375c-0.359,1.273-1.328,2.23-1.827,3.607c0.773,0.735,1.565,1.522,2.395,2.268
		c0.914,0.822,1.477,2.006,2.646,2.563c-0.044,0.155-0.033,0.249,0.164,0.146c-0.067-0.042-0.13-0.081-0.192-0.12
		c-0.426-1.319-1.382-2.269-2.289-3.243c-1.916-2.057-1.882-3.521,0.139-5.524c0.506-0.502,1.166-0.875,1.616-1.726
		c-1.242,0.343-2.14,1.003-3.316,1.132c-1.994-2.291-2.06-4.963-1.732-7.672c1.876-0.582,3.232-0.102,4.101,1.493
		c0.479-0.44-0.116-0.904,0.348-1.248c1.036,0.657,2.833,0.345,2.985,2.268c-0.911,0.454-1.896,0.09-2.721,0.657
		c0.013,1.035,0.305,2.011,0.586,3.098c2.618-0.005,5.195-0.438,7.793-0.226c2.716,0.221,4.645,2.097,6.948,3.206
		c-1.209-1.877-3.303-2.611-5.065-3.961c1-0.376,1.859-0.204,2.701-0.234c1.826-0.065,2.388-0.956,1.671-2.662
		c-0.365-0.869-0.877-1.645-1.508-2.384c-3.054,1.095-5.959,2.491-9.284,2.925c0.113-0.604,0.192-1.025,0.27-1.435
		c-2.255-0.756-3.082-1.601-3.197-3.249c1.603,0.802,3.188,1.596,4.852,2.43c0.356-1.19,0.722-2.249,1.772-2.712
		c0.21-0.757-0.188-1.434,0.115-2.144c2.672,0.549,4.737,2.585,7.448,3.18c-0.041-0.866-0.879-1.143-0.95-1.94
		c1.543,0.188,2.462,1.133,3.094,2.348c1.494,2.873,2.904,5.841,3.224,9.075c0.674,6.826,0.899,13.679,0.31,20.534
		c-0.052,0.617-0.184,1.275,0.77,1.527c0.576-1.847-0.278-4.433,2.629-5.064c0.033,0.134,0.073,0.296,0.114,0.459l0.022-0.059
		c-0.857,2.663-1.259,5.372-1.123,8.186c0.099,2.021-0.68,3.694-2.589,4.915c-0.077-1.34,0.412-2.424,0.19-3.551
		c-0.48-0.083-0.787,0.125-1.068,0.486c0.022,5.108-1.434,9.777-4.357,14.004c-0.789,1.14-1.45,2.371-2.118,3.589
		c-2.865,5.229-6.281,10.012-10.795,13.982c-2.69,2.367-5.58,3.198-9.17,2.496c-4.796-0.938-9.479-2.417-14.338-3.007
		c-2.402-0.292-4.498-1.124-6.306-2.729c-0.253-0.225-0.498-0.645-1.026-0.462c1.716,2.231,3.852,3.62,6.674,3.896
		c1.782,0.175,3.592,0.265,5.309,0.823c2.993,0.974,6.097,1.467,9.141,2.219c3.602,0.889,6.713,0.081,9.56-2.212
		c3.994-3.216,7.311-7.001,9.859-11.454c0.498-0.87,0.973-1.753,1.458-2.629c-0.069,3.191,0.432,6.299,0.394,9.424
		c-0.013,1.055-0.235,2.054-0.789,2.953c-2.747,4.46-6.357,7.868-11.516,9.355c-2.124,0.613-4.3,0.902-6.51,0.903
		c-0.624,0-1.191,0.022-1.063,1.01c7.401-0.126,13.819-2.245,18.437-8.556c-2.33,6.578-3.702,13.281-4.392,20.136
		c2.594-7.582,3.317-15.679,6.485-23.647c3.406,6.007,8.804,8.436,14.854,9.772c0.022,4.72,0.265,9.196-1.269,13.518
		c2.469-4.389,2.216-9.147,2.03-13.799c-1.177-0.963-2.581-0.886-3.744-1.482c0.457-2.787,1.394-5.346,2.459-7.863
		c1.064-2.513,2.169-5.008,2.995-7.579c3.725-1.394,6.254-4.624,9.851-5.963c2.294,1.26,4.505,2.449,6.691,3.682
		c3.132,1.768,6.255,1.917,9.474,0.186c1.199-0.645,2.464-1.241,3.96-1.37c0.404,1.699,0.785,3.352,1.194,4.998
		c0.422,1.695,0.865,3.386,1.312,5.075c0.436,1.646,0.85,3.299,1.344,4.928c0.487,1.605,0.964,3.228,2.013,4.594
		c-2.615-10.283-5.313-20.528-7.502-30.989c0.412-0.047,0.673-0.081,0.935-0.106c6.162-0.608,12.34-1.064,18.523-1.271
		c6.012-0.2,11.298-1.82,15.402-6.437c0.069-0.078,0.226-0.077,0.38-0.125C222.9,91.444,224.655,93.891,226.621,96.251z
		 M141.263,64.465c-1.595-1.181-3.294-2.131-5.322-2.303c-2.703-0.228-5.202,0.201-7.357,2.289c0.854,0.374,1.578,0.443,2.33,0.479
		c0.011-0.457-0.347-0.849,0.047-1.21c0.333-0.315,0.73-0.485,1.176-0.494c1.024,0.613,0.119,1.186-0.095,1.798
		c1.938,0.414,3.721-0.148,5.517-0.407c1.297-0.187,2.384,0.041,3.251,1.089c0.354,0.429,0.754,0.857,1.433,0.86
		c-0.195-0.836-1.264-1.17-1.011-2.134c0.464,0.148,0.728-0.091,0.95-0.433c-3.798-4.608-8.762-5.098-14.79-0.558
		c1.76-0.168,3.125-0.641,4.146-1.94c1.173,0.027,2.34,0.086,3.372-0.614c0.309-0.209,0.705-0.052,1.047,0.051
		c1.642,0.492,3.176,1.218,4.565,2.224C140.951,63.471,141.423,63.802,141.263,64.465z M101.813,64.631l-0.021,0.042
		c3.439-2.961,7.289-2.587,11.26-1.221c-3.228-2.793-8.51-2.174-13.459,1.452c0.2,1.098-0.751,1.881-1.041,2.917
		c0.514,0.061,0.7-0.243,0.859-0.473c1.1-1.593,2.643-2.034,4.473-1.799c0.533,0.069,1.072,0.103,1.61,0.13
		c2.532,0.13,5.054,0.095,7.928-0.426c-1.204-0.627-2.11-1.015-2.926-1.542c-1.962-1.267-3.906-1.008-5.874-0.068
		c-0.566,0.271-1.125,0.557-1.683,0.842C102.58,64.668,102.231,64.905,101.813,64.631z M114.516,98.616
		c-0.616-0.528-1.038,0.087-1.731,0.158c2.348,2.316,4.865,3.985,7.728,5.125c1.574,0.627,3.172,0.604,4.712-0.091
		c2.721-1.227,5.056-2.856,5.898-5.904c-1.363-2.262-3.47-3.491-5.417-4.979c-2.151,1.719-4.362,0.922-6.514,0.245
		c-2.11,1.42-4.636,2.37-4.673,5.455L114.516,98.616z M116.562,79.183c-0.621-1.786-0.888-3.401-0.295-5.094
		c-0.351,0.262-0.702,0.524-1.072,0.802c0,1.289,0,2.538,0,3.742c-4.64,3.375-5.541,4.611-5.169,7.26
		c0.619-1.359,0.94-2.75,2.205-3.78c-0.059,1.81,0.703,2.999,1.978,3.938c1.729-0.349,3.372-0.972,5.133-1.134
		c0.35,0.383,0.665,0.759,1.013,1.102c1.342,1.324,3.226,1.301,4.522-0.042c1.743-1.807,2.402-1.868,4.453-0.417
		c1.184,0.838,1.912,0.708,2.649-0.537c0.414-0.697,0.746-1.443,1.136-2.207c0.501,0.417,0.239,1.105,0.974,1.315
		c-0.33-1.606-0.711-3.097-1.504-4.458c-0.562,0.119-0.56,0.862-1.262,0.929c-1.667-2.106-2.343-4.851-3.931-7.093
		c0.762,2.48,1.597,4.92,1.476,7.568c0.465-0.542,0.357-1.252,0.886-1.735c0.744,0.538,0.951,1.541,1.722,1.948
		c0.533,0.034,0.638-0.708,1.26-0.521c0.055,1.993-0.612,3.619-2.224,4.82c-1.218-0.586-1.736-1.849-2.91-2.329
		c-1.125,0.433-1.898,1.335-2.799,2.056c-1.828,1.462-3.137,1.337-4.597-0.447c-0.424-0.519-0.778-1.1-1.332-1.469
		c-1.961-0.489-2.968,0.871-3.946,2.032c-2.608-0.943-2.184-2.875-1.724-4.88C114.163,79.917,115.062,79.058,116.562,79.183z
		 M176.456,118.082c0.684,4.826,7.437,25.678,8.772,26.896C181.973,135.961,179.719,126.858,176.456,118.082z M117.279,111.784
		c3.971-3.245,7.89-2.854,11.792,0.149C126.311,107.695,120.836,107.61,117.279,111.784z M98.388,63.292
		c1.068,0.581,1.791,0.445,2.383,0.086c2.437-1.478,4.833-3.02,7.239-4.545c0.042-0.027,0.021-0.155,0.038-0.333
		C104.3,58.908,102.191,62.415,98.388,63.292z M104.779,69.319c1.592-0.263,3.361,0.489,4.482-0.582
		c1.291-1.235,3.008-0.677,4.365-1.415c-3.479-0.783-6.348,2.12-9.828,1.37C104.239,69.005,104.758,69.044,104.779,69.319z
		 M113.856,71.456c-2.458,1.875-5.621,2.506-8.05,4.431C109.059,75.416,111.665,73.803,113.856,71.456z M129.221,66.535
		c3.7,2.396,8.261,2.56,9.515,0.343c-2.175,2.007-4.342,0.839-6.517,0.141C131.336,66.735,130.448,66.451,129.221,66.535z
		 M109.238,96.229c1.904-2.244,2.727-5.134,4.559-7.414C111.166,90.595,110.29,93.474,109.238,96.229z M96.561,56.984
		c-2.403,2.346-4.573,6.844-4.638,9.566C93.311,63.101,94.777,59.964,96.561,56.984z M146.326,67.32
		c-0.095-3.344-0.666-6.595-2.303-9.588C144.914,60.894,145.415,64.145,146.326,67.32z M148.46,83.015
		c-0.437,1.557-0.573,2.801-0.264,4.192C149.375,86.305,149.466,85,148.46,83.015z M133.758,76.266
		c-1.09-1.218-2.18-2.437-3.514-3.926C130.842,74.571,131.847,75.718,133.758,76.266z M136.361,93.877
		c-0.294-1.902-0.92-3.688-2.369-5.079C134.671,90.529,135.245,92.305,136.361,93.877z"/>
	<path fill-rule="evenodd" clip-rule="evenodd" fill="none" d="M11.229,94.636c0-29.885,0-59.771,0-89.657
		c49.002,0,98.004,0,147.005,0c-0.6,0.614-1.621,0.66-2.17,1.566c0.563-0.031,0.998-0.055,1.489-0.083
		c0.513,1.077,1.193,2.009,1.908,2.855c3.064,0.332,4.524,1.48,5.109,4.082c-2.776-0.465-3.991-3.676-7.208-3.868
		c2.869,1.725,5.279,3.497,7.59,5.404c4.981,4.11,5.019,4.104,6.705,10.308c1.685,6.201,3.514,12.321,7.017,17.815
		c2.746,4.309,5.434,8.659,7.656,13.276c0.604,1.257,1.437,2.388,2.427,3.373c1.284,1.274,2.345,2.713,3.305,4.233
		c1.272,2.018,2.758,3.871,4.377,5.618c3.23,3.487,6.605,6.842,9.537,10.601c1.246,1.598,2.69,3.007,4.533,4.06
		c0.963,3.38,4.322,4.93,6.308,7.814c-9.693,2.68-19.497,2.192-29.112,3.281c-0.167-0.322-0.292-0.509-0.367-0.714
		c-2.145-5.913-5.337-11.238-9.054-16.28c-1.068-1.45-2.302-2.641-3.993-3.273c-2.237-0.837-4.355-1.811-5.61-4.011
		c-0.01-0.079-0.022-0.156-0.011-0.09c-0.041-0.067-0.002-0.004,0.035,0.06c0.131,2.145,1.76,2.983,3.416,3.521
		c2.796,0.909,4.877,2.557,6.311,5.093c0.286,0.504,0.673,0.95,1.004,1.43c5.359,7.774,9.348,16.088,9.937,25.744
		c-1.653,0.576-3.462,1.22-5.281,1.836c-2.516,0.852-4.958,0.635-7.28-0.639c-1.728-0.947-3.425-1.952-5.127-2.944
		c-2.256-1.314-3.233-1.235-5.187,0.462c-0.406,0.353-0.786,0.736-1.2,1.08c-1.545,1.28-3.159,2.463-4.862,3.491
		c-1.753-1.254-3.159-2.692-4.504-4.198c-2.576-2.878-4.775-6.052-7.15-9.087c-2.029-2.594-1.83-3.991,0.805-5.949
		c0.8-0.595,1.261-1.288,1.527-2.25c0.946-3.421,0.887-6.92,0.939-10.414l-0.022,0.059c0.387-0.696,0.463-1.531,1.02-2.156
		c0.768-0.864,1.123-1.907,1.312-3.041c0.541-3.233,1.373-6.391,2.47-9.485c1.051-2.962,1.34-6.017,0.959-9.149
		c-0.448-3.677-0.528-7.403-1.688-11.284c2.585,2.09,4.219,4.505,5.688,7.271c-2.964,1.673-1.234,4.391-1.655,6.609
		c1.203,1.53,2.694,2.547,4.109,3.64c0.977,0.754,1.561,1.62,1.704,2.896c0.22,1.955,1.202,3.656,2.088,5.377
		c-0.465-2.193-1.136-4.32-1.896-6.419c-0.783-2.163-1.4-4.349-1.202-6.696c0.041-0.472-0.029-1.037-0.261-1.434
		c-1.81-3.087-3.23-6.421-5.556-9.184c-2.707-3.215-6.479-4.705-10.285-6.108c-1.178-0.434-2.398-0.786-3.432-1.523
		c-0.973-0.694-1.761-1.535-1.896-3.201c1.619,1.188,3.127,1.6,4.767,1.212c0.643-0.697,0.605-1.724,1.301-2.385
		c4.642,0.324,8.407,3.008,12.608,4.659c-1.257-0.984-1.817-2.327-2.298-3.72l0.038,0.043c-0.593-3.302-1.603-6.332-4.83-8.09
		c-1.273-0.694-2.237-1.773-2.948-3.061c-0.471-0.853-1.201-1.442-2.066-1.859c-0.967-0.466-1.962-0.876-2.921-1.358
		c-2.095-1.052-3.827-2.468-4.654-4.82c0.335-0.746,0.801-1.338,1.659-1.72c0.162,0.755-0.096,1.45,0.299,2.217
		c1.208,0.903,3.006-0.463,4.19,0.959c0.172-0.684-0.362-1.206,0.106-1.736c2.217,0.397,4.31,1.163,6.283,2.241
		c3.188,1.741,6.104,3.915,9.189,5.823c0.912,0.564,1.42,1.451,1.821,2.429c1.221,2.98,2.492,5.939,3.708,8.921
		c1.08,2.646,3.026,4.463,5.441,5.857c0.034,0.048,0.067,0.095,0.058,0.083c0.013,0.008-0.035-0.024-0.083-0.057
		c-0.156-0.78-0.818-1.17-1.365-1.565c-2.169-1.561-3.468-3.676-4.33-6.159c-0.732-2.113-1.636-4.166-2.422-6.262
		c-0.752-2.007-2.039-3.486-3.852-4.664c-4.618-3.001-9.103-6.224-14.372-7.848c-1.364-4.247-1.343-4.478,0.507-5.436
		c-0.056,0.743-0.107,1.448-0.166,2.222c2.54,1.811,4.435-0.993,6.865-0.759c-0.633-0.766-0.167-1.585-0.519-2.309
		c-1.495,1.657-2.157,1.812-3.575,0.892c-0.264-0.17-0.507-0.372-0.774-0.535c-1.22-0.746-2.035-0.62-2.933,0.48
		c-0.392,0.482-0.734,1.005-1.114,1.531c0.402,1.3,0.79,2.556,1.256,4.064c-1.377-0.784-2.493-1.419-3.451-1.965
		c-2.989,1.341-3.157,3.474-1.918,5.836c-0.419,0.507-0.697,0.844-0.986,1.194c-4.754-3.376-9.752-6.083-14.908-8.51
		c-2.038-0.959-4.155-1.721-6.403-1.952c-3.121-0.319-6.254-0.511-9.379-0.789c-5.13-0.457-9.526,1.209-13.328,4.585
		c-1.575,1.398-3.062,2.897-4.674,4.25c-2.308,1.938-4.997,2.646-7.992,2.254c0.258-4.534-0.609-5.903-4.189-6.589
		c-2.001,1.978-4.332,3.567-7.056,4.658c-0.293-0.985-0.545-1.834-0.797-2.68c-0.407-0.197-0.767-0.373-1.128-0.547l0.018,0.019
		c-0.74-0.402-1.479-0.805-2.181-1.186c-1.174,0.585-1.953,1.461-2.63,2.404c-2.348,3.272-4.885,6.423-6.51,10.166
		c-0.352,0.811-0.856,1.594-1.44,2.258c-2.272,2.584-3.639,5.619-4.61,8.872c-0.92,3.085-2.367,5.892-4.42,8.386
		c-1.569,1.907-3.058,3.881-4.016,6.182c-2.415,5.797-5.408,11.312-8.167,16.942c-1.379,2.814-3.223,5.154-5.635,7.083
		c-2.288,1.83-4.329,3.887-6.135,6.197c-0.926,1.184-1.835,2.408-3.069,3.349c-0.324-0.183-0.609-0.314-0.862-0.491
		c-1.873-1.317-2.63-1.334-4.567-0.076c-0.798,0.519-1.452,1.187-2.023,1.947c-1.232,1.642-1.923,3.526-2.54,5.456
		C12.943,92.29,12.479,93.696,11.229,94.636z"/>
	<path fill-rule="evenodd" clip-rule="evenodd" d="M72.177,13.389c0.361,0.174,0.721,0.35,1.128,0.547
		c0.252,0.846,0.504,1.695,0.797,2.68c2.724-1.09,5.054-2.68,7.056-4.658c3.58,0.686,4.447,2.055,4.189,6.589
		c2.995,0.391,5.684-0.317,7.992-2.254c1.612-1.353,3.1-2.853,4.674-4.25C101.814,8.667,106.21,7,111.34,7.458
		c3.125,0.278,6.259,0.47,9.379,0.789c2.248,0.23,4.365,0.992,6.403,1.952c5.156,2.427,10.153,5.134,14.908,8.51
		c0.289-0.35,0.567-0.688,0.986-1.194c-1.239-2.363-1.07-4.495,1.918-5.836c0.958,0.546,2.074,1.181,3.451,1.965
		c-0.466-1.508-0.854-2.764-1.256-4.064c0.38-0.526,0.722-1.049,1.114-1.531c0.898-1.1,1.713-1.226,2.933-0.48
		c0.267,0.164,0.51,0.365,0.774,0.535c1.418,0.92,2.08,0.765,3.575-0.892c0.352,0.723-0.114,1.542,0.519,2.309
		c-2.431-0.234-4.325,2.57-6.865,0.759c0.058-0.774,0.109-1.479,0.166-2.222c-1.851,0.958-1.872,1.189-0.507,5.436
		c5.269,1.624,9.754,4.847,14.372,7.848c1.813,1.178,3.1,2.657,3.852,4.664c0.786,2.096,1.689,4.148,2.422,6.262
		c0.862,2.483,2.16,4.598,4.33,6.159c0.547,0.395,1.209,0.785,1.365,1.565l0.025-0.026c-2.415-1.393-4.362-3.21-5.441-5.856
		c-1.217-2.981-2.488-5.941-3.708-8.921c-0.401-0.979-0.909-1.865-1.821-2.429c-3.084-1.908-6.001-4.082-9.189-5.823
		c-1.973-1.078-4.065-1.843-6.283-2.241c-0.468,0.53,0.066,1.053-0.106,1.736c-1.184-1.422-2.981-0.057-4.19-0.959
		c-0.396-0.767-0.138-1.462-0.299-2.217c-0.858,0.382-1.324,0.974-1.659,1.72c0.827,2.352,2.559,3.768,4.654,4.82
		c0.959,0.482,1.955,0.892,2.921,1.358c0.865,0.417,1.595,1.006,2.066,1.859c0.711,1.288,1.674,2.367,2.948,3.061
		c3.227,1.759,4.236,4.789,4.828,8.088c-0.469-0.363-0.491-0.933-0.631-1.43c-0.728-2.578-1.992-4.717-4.369-6.173
		c-1.525-0.934-2.853-2.174-3.701-3.818c-0.151-0.293-0.376-0.484-0.675-0.618c-2.277-1.023-4.557-2.042-6.584-3.552
		c-0.413,0.377-0.867,0.53-0.987,1.111c2.362,1.614,4.013,3.878,5.438,6.339c1.411,2.435,2.603,4.999,4.282,7.328
		c2.718,0.367,4.829,2.187,7.389,3.135c0.152-0.891-0.392-1.598-0.197-2.361c0.48,1.393,1.041,2.736,2.298,3.72
		c-4.201-1.651-7.966-4.335-12.608-4.659c-0.695,0.661-0.658,1.688-1.301,2.385c-1.64,0.388-3.148-0.024-4.767-1.212
		c0.135,1.667,0.923,2.507,1.896,3.201c1.034,0.737,2.253,1.089,3.432,1.523c3.805,1.403,7.578,2.893,10.285,6.108
		c2.326,2.763,3.746,6.097,5.556,9.184c0.232,0.397,0.301,0.962,0.261,1.434c-0.198,2.347,0.419,4.533,1.202,6.696
		c0.761,2.1,1.431,4.227,1.896,6.419c-0.886-1.721-1.868-3.422-2.088-5.377c-0.144-1.275-0.727-2.142-1.704-2.896
		c-1.415-1.092-2.906-2.11-4.109-3.64c0.421-2.218-1.309-4.936,1.655-6.609c-1.469-2.766-3.103-5.181-5.688-7.271
		c1.161,3.881,1.24,7.607,1.688,11.284c0.381,3.132,0.092,6.187-0.959,9.149c-1.097,3.094-1.929,6.252-2.47,9.485
		c-0.189,1.134-0.545,2.177-1.312,3.041c-0.556,0.625-0.633,1.46-1.02,2.156c-0.041-0.163-0.081-0.325-0.114-0.459
		c-2.907,0.632-2.053,3.217-2.629,5.064c-0.954-0.252-0.822-0.91-0.77-1.527c0.589-6.855,0.365-13.708-0.31-20.534
		c-0.32-3.233-1.73-6.202-3.224-9.075c-0.631-1.215-1.551-2.159-3.094-2.348c0.07,0.797,0.909,1.074,0.95,1.94
		c-2.711-0.595-4.775-2.631-7.448-3.18c-0.303,0.71,0.095,1.387-0.115,2.144c-1.05,0.464-1.416,1.522-1.772,2.712
		c-1.664-0.834-3.249-1.628-4.852-2.43c0.115,1.648,0.942,2.493,3.197,3.249c-0.077,0.41-0.156,0.832-0.27,1.435
		c3.324-0.434,6.229-1.83,9.284-2.925c0.63,0.739,1.143,1.515,1.508,2.384c0.717,1.707,0.155,2.597-1.671,2.662
		c-0.842,0.03-1.701-0.142-2.701,0.234c1.762,1.35,3.856,2.083,5.065,3.961c-2.304-1.108-4.232-2.984-6.948-3.206
		c-2.598-0.211-5.176,0.221-7.793,0.226c-0.282-1.086-0.573-2.063-0.586-3.098c0.825-0.567,1.81-0.204,2.721-0.657
		c-0.152-1.922-1.949-1.61-2.985-2.268c-0.464,0.343,0.131,0.807-0.348,1.248c-0.869-1.595-2.225-2.074-4.101-1.493
		c-0.328,2.709-0.262,5.381,1.732,7.672c1.176-0.128,2.074-0.789,3.316-1.132c-0.45,0.85-1.109,1.224-1.616,1.726
		c-2.021,2.003-2.055,3.467-0.139,5.524c0.907,0.974,1.863,1.924,2.289,3.243l0.029-0.025c-1.168-0.557-1.731-1.741-2.646-2.563
		c-0.829-0.746-1.621-1.533-2.395-2.268c0.499-1.377,1.468-2.334,1.827-3.607c-0.371-0.338-0.794-0.394-1.289-0.375
		c-0.12,0.319-0.239,0.641-0.338,0.904c-0.114,0.059-0.163,0.106-0.193,0.096c-1.778-0.618-3.649-0.741-5.506-1.021
		c1.598-0.832,3.2-0.528,4.785-0.052c0.373-0.223,0.688-0.457,0.875-0.884c-0.728-1.108-1.461-2.225-2.142-3.261
		c0.378-2.253,1.685-4.426-0.242-6.413c-0.246,0.513,0.303,0.795,0.334,1.407c-0.432,0.538-0.911,1.217-1.687,1.62
		c-0.909-0.462-1.495-1.354-2.605-1.61c-0.004,1.706,0.485,3.279,0.744,4.921c-0.747,1.419-2.182,2.33-2.996,3.734
		c0.597,1.102,1.703,1.624,2.507,2.451c1.526,1.568,1.621,2.642,0.237,4.333c-0.632,0.772-1.261,1.526-1.187,2.597
		c-0.512,0.148-0.835,0.007-1.086-0.448c1.118-1.709,3.416-3.062,1.77-5.687c-1.227-1.956-2.711-3.454-5.091-3.529
		c-0.321-0.684,0.089-1.299-0.287-1.925c-0.875,0.293-1.76,0.59-2.741,0.919c-3.214-1.95-7.08-1.3-10.652-2.283
		c0.058-1.325,0.215-2.556,0.705-3.721c0.449-1.068,1.24-1.466,2.387-1.157c1.182,0.316,2.271,0.852,3.324,1.439
		c1.866,1.042,3.813,1.481,5.949,1.235c1.109-0.128,2.253-0.13,3.191,0.809c-0.198,0.955-1.3,1.352-1.494,2.399
		c0.135,0.796,0.518,1.51,1.279,1.974c2.565-1.255,4.086-3.308,3.037-5.878c-0.389-0.955-0.569-1.978-0.596-3.195
		c-4.02-2.418-8.04-4.947-13.133-5.502c-1.655-1.318-2.334-3.46-3.317-5.403c-1.139-0.626-2.381-0.773-3.704-1.065
		c-0.741,2.616-1.414,5.119-0.113,7.728c0.681,1.366,1.313,2.804,0.769,4.604c-0.54-0.655-0.464-1.316-0.737-2.021
		c-1.814-1.301-2.855-3.313-3.8-5.452c0,0.5-0.002,1,0,1.5c0.012,2.765-1.1,5.135-2.988,7.003c-3.266,3.234-4.995,7.28-6.567,11.445
		c-0.154,0.408-0.274,0.889-0.215,1.308c0.323,2.271-0.103,4.47-0.56,6.668c-0.701,3.369-0.441,6.689,0.508,9.934
		c-0.395,0.414-0.823-0.041-1.306,0.229c-0.588,1.846,0.132,3.81-0.031,5.746c-3.569-0.32-4.741-1.582-5.315-5.856
		c0.946,1.259,1.275,2.59,1.761,3.946c0.9,0.378,1.836,0.772,2.898,1.219c-0.071-1.115-0.294-2.068-0.206-3.048
		c0.089-0.993,0.318-1.94,0.664-2.926c-0.571-1.114-1.101-2.279-2.252-3.043c-0.392,0.47-0.201,1.067-0.626,1.407
		c-0.817-0.345-0.965-1.397-1.9-1.753c-0.296,0.776-0.007,1.64-0.497,2.448c-0.775-0.813-0.758-2.291-2.34-2.577
		c0,0.806-0.016,1.541,0.003,2.274c0.083,3.257,0.61,6.428,1.931,9.43c0.676,1.535,1.617,2.889,2.857,4.035
		c2.238,2.066,3.464,2.137,5.922,0.174c-0.387,3.919,0.757,7.518,1.389,11.187c0.438,2.542,1.675,4.539,3.773,6.125
		c3.111,2.352,5.944,5.096,9.168,7.267c3.461,2.329,5.073,5.373,5.175,9.427c0.025,0.962,0.105,1.966,0.572,2.979
		c4.892,0.484,9.798,0.842,14.719,0.149c0.722-0.101,1.292-0.045,1.739,0.786c-5.552,0.342-10.986,0.562-16.488-0.337
		c-0.126,1.912-0.247,3.724-0.366,5.528c0.909,0.427,1.879,0.242,2.729,0.783c-0.183,1.657-0.618,3.269-1.283,4.832
		c-0.195-1.548,0.476-2.949,0.797-4.395c-0.321-0.377-0.759-0.309-1.142-0.339c-8.935-0.699-16.135-4.741-21.994-11.379
		c-0.089-0.102-0.167-0.213-0.264-0.306c-4.156-4.005-5.081-8.666-2.921-14.005c0.532-1.316,0.982-2.682,1.196-4.221
		c-1.291,0.044-2.369,0.57-3.396,1.138c-1.686,0.932-3.348,1.916-4.959,2.97c-1.499,0.981-3.094,1.371-4.857,1.199
		c-0.893-0.087-1.799-0.083-2.681-0.228c-2.781-0.455-5.197,0.015-6.86,2.695c1.52,1.335,3.517,2.32,4.751,4.203
		c-0.867-0.585-1.722-1.188-2.604-1.751c-1.662-1.064-3.363-2.06-5.167-2.872c-2.152-0.967-4.315-1.099-6.526-0.204
		c-0.913,0.37-1.85,0.681-2.774,1.022c-2.028,0.747-4.029,0.717-6.018-0.165c-0.649-0.288-1.334-0.497-2.253-0.834
		c0.131,4.056,0.932,7.956,0.175,11.858c-0.735,3.792-1.432,7.588-2.729,11.213c-0.214-0.061-0.427-0.121-0.642-0.181
		c0.194-0.665,0.375-1.334,0.584-1.994c1.969-6.245,2.741-12.601,1.817-19.123c-0.125-0.887-0.136-1.789-0.2-2.684
		c-0.159-2.215,0.133-4.297,1.713-6.025c0.192-0.209,0.443-0.457,0.367-0.946c-1.891,0.106-3.793,0.227-5.693,0.104
		c-3.48-0.225-6.87-0.822-9.853-2.776c-1.847-1.21-3.169-2.783-3.046-5.183c0.032-0.637,0.165-1.246,0.407-1.829
		c0.293-0.704,0.616-1.395,0.921-2.092c1.355-3.095,1.163-3.722-1.605-5.684c-1.092-0.774-2.125-1.631-3.243-2.496
		c-1.251,1.169-1.633,2.695-2.069,4.179c-0.533,1.813-1.017,3.639-2.432,5.019c-0.249,0.243-0.408,0.604-0.819,0.644
		c0-0.448,0-0.897,0-1.346c1.25-0.94,1.714-2.347,2.16-3.74c0.617-1.93,1.308-3.814,2.54-5.456c0.571-0.76,1.225-1.428,2.023-1.947
		c1.938-1.259,2.694-1.241,4.567,0.076c0.253,0.177,0.538,0.308,0.862,0.491c1.234-0.941,2.143-2.165,3.069-3.349
		c1.806-2.31,3.848-4.367,6.135-6.197c2.413-1.929,4.256-4.268,5.635-7.083c2.759-5.63,5.752-11.145,8.167-16.942
		c0.958-2.3,2.447-4.274,4.016-6.182c2.053-2.495,3.5-5.301,4.42-8.386c0.971-3.253,2.337-6.288,4.61-8.872
		c0.584-0.664,1.088-1.447,1.44-2.258c1.625-3.743,4.162-6.894,6.51-10.166c0.677-0.943,1.456-1.819,2.63-2.404
		c0.702,0.381,1.441,0.784,2.187,1.194c-0.259,0.412-0.395,0.852-0.502,1.33c-0.499,2.221-2.012,3.594-3.865,4.629
		c-0.805-0.312-1.336-0.933-2.181-1.09c-1.59,1.249-2.464,3.011-3.282,4.806c-0.743,1.632-1.382,3.34-2.599,4.683
		c-2.194,2.424-3.482,5.292-4.396,8.373c-0.903,3.04-2.284,5.822-4.288,8.305c-1.466,1.817-2.748,3.788-3.699,5.917
		c-2.688,6.018-5.946,11.747-8.82,17.668c-1.193,2.458-2.641,4.669-4.873,6.317C28.585,78.13,25,83.348,20.698,87.975
		c1.102,0.978,2.274,1.721,2.64,3.192c-0.567,1.546-1.219,3.122-1.723,4.742c-1.233,3.965-0.104,6.317,3.753,7.92
		c0.783,0.325,1.599,0.589,2.422,0.795c3.153,0.789,6.378,0.885,9.607,1.013c1.369,0.054,2.156-0.567,2.836-1.619
		c0.675-1.042,1.008-2.291,1.933-3.179c0.129,0.455-0.22,0.752-0.385,1.102c-0.923,1.947-2.06,3.773-3.196,5.601
		c-1.078,1.733-1.479,3.613-1.085,5.56c3.431,1.951,6.817,2.516,10.274,0.385c2.456-1.514,4.809-1.476,7.322,0.032
		c1.922,1.152,2.713,0.919,4.001-0.813c1.034-1.392,2.351-1.85,3.973-1.739c0.76,0.053,1.526,0.09,2.276,0.215
		c2.668,0.443,5.134,0.024,7.497-1.366c2.737-1.61,5.476-3.255,8.654-4.026c0.616-2.004,0.75-3.997,0.715-6.148
		c-1.155,0.52-1.54,1.567-2.458,2.037c-0.732-0.189-1.412-0.508-2.227-0.997c-1.981-5.288-2.937-11.032-5.099-16.407
		c-2.163-5.375-4.283-10.776-5.758-16.717c-1.071,2.708-1.885,5.137-2.972,7.436c-2.477,5.239-5.402,10.058-11.6,11.684
		c-1.981,0.52-3.138,2.149-4.003,3.942c-1.542,3.192-3.353,6.235-5.166,9.275c-0.214,0.36-0.29,0.868-0.812,0.989
		c1.905-3.646,3.84-7.277,5.702-10.946c0.988-1.948,2.425-3.388,4.524-3.928c3.283-0.845,5.621-2.909,7.485-5.559
		c3.144-4.469,5.705-9.208,6.122-14.816c0.068-0.916,0.425-1.598,1.271-2.055c0.882-0.476,1.528-1.24,2.09-2.059
		c0.922-1.341,1.454-2.868,2.021-4.462c2.002-0.625,3.503-2.023,5.019-3.437c3.483-3.247,6.579-7,11.249-8.73
		c0.587-0.217,1.069-0.65,1.482-1.135c0.441-0.519,0.726-1.09,0.724-1.816c-3.699,0.965-4.397,0.756-5.813-1.73
		c-1.514,0.041-2.915,0.602-4.061,1.517c-3.709,2.96-8.041,4.844-12.097,7.203c-0.042-0.045-0.084-0.091-0.126-0.136
		c2.254-1.529,4.208-3.329,5.271-5.919c0.424-1.035,0.846-2.072,1.255-3.114c0.428-1.091,0.874-2.183,1.803-2.951
		c2.036-1.683,4.061-3.338,5.436-5.688c0.491-0.839,1.504-1.385,2.315-2.018c0.812-0.634,1.687-1.188,2.504-1.816
		c0.965-0.741,1.871-1.554,2.397-2.684c0.681-1.466,0.43-2.855-0.659-3.698c-0.186,0.608-0.369,1.202-0.559,1.824
		c-0.952,0.584-1.951,1.052-3.132,1.474c-0.411-0.521-0.824-1.044-1.284-1.628c-1.06,0.601-2.032,1.062-2.91,1.663
		c-3.656,2.503-7.099,5.309-10.89,7.628c-1.077,0.659-1.789,1.741-2.487,2.795c-2.773,4.185-5.487,8.412-8.603,12.359
		c-0.449,0.57-0.836,1.215-1.541,1.537c0.049-0.234,0.159-0.414,0.287-0.578c3.366-4.317,6.536-8.768,9.269-13.521
		c0.862-1.5,1.947-2.839,3.468-3.681c5.135-2.841,8.778-7.483,13.36-11.004c3.255-2.5,2.39-5.702-1.625-7.047
		c-1.087,0.953-2.646,1.547-2.943,3.354c0.901,0.311,1.686,0.412,2.444,0.411c0.908-0.586,1.593-1.438,2.815-1.766
		c-2.238,3.089-3.26,3.262-6.966,1.328c-1.871,0.783-3.243,2.207-4.554,3.684c-1.41,1.588-2.914,3.078-4.79,4.081
		c-3.49,1.866-5.46,4.757-6.718,8.485c-2.125,6.294-5.632,11.791-10.67,16.221c-0.27,0.237-0.461,0.681-0.998,0.526
		c0.573-0.975,1.37-1.708,2.2-2.382c2.271-1.845,3.926-4.167,5.321-6.698c1.798-3.265,3.318-6.658,4.526-10.18
		c0.791-2.307,2.146-4.122,4.244-5.356c2.336-1.375,4.363-3.125,6.315-4.991C74,17.16,74.152,15.892,72.177,13.389z M83.639,97.605
		c-0.946,0.946-1.028,2.035-0.979,3.079c0.141,2.937-0.593,5.676-1.597,8.389c-0.793,2.145-1.505,4.323-1.627,6.635
		c-0.079,1.481-0.164,2.986,0.651,4.32c4.005,6.548,9.371,11.506,16.672,14.182c2.01,0.736,4.051,1.354,6.165,1.663
		c0.327-0.583,0.246-1.132,0.279-1.658c0.204-3.197-0.335-6.349-0.578-9.52c-0.197-2.571-1.378-4.394-3.464-5.892
		c-3.276-2.353-6.407-4.906-9.603-7.369c-2.706-2.088-4.464-4.725-4.931-8.18C84.372,101.361,83.973,99.487,83.639,97.605z
		 M161.701,51.229c-2.296,2.2-1.107,6.296,2.443,8.672C165.079,56.989,163.709,52.491,161.701,51.229z M66.026,17.669
		c0.636,0.465,1.147,0.959,1.932,1.11c1.292-1.459,3.212-2.488,3.188-4.901c-0.33-0.417-0.617-0.918-1.292-1.096
		C68.236,14.152,66.87,15.684,66.026,17.669z M16.962,85.043c0.834,1.378,1.994,2.212,3.501,2.782
		c0.409-0.557,0.82-1.078,1.186-1.629c0.361-0.544,0.879-1.002,1.013-1.681C20.751,83.563,18.805,83.719,16.962,85.043z
		 M144.019,32.41c-0.075,1.982,0.988,2.737,3.489,2.624c0.531-0.567,1.012-1.188,1.301-2.101
		C147.205,32.701,145.706,32.087,144.019,32.41z M88.958,38.923c-1.493,0.313-2.915,0.599-4.231,1.262
		c0.732,1.593,2.864,2.005,5.074,1.017C89.62,40.455,89.646,39.632,88.958,38.923z M87.385,20.126
		c-1.636,0.347-2.898,0.896-3.467,2.583c0.929,0,1.75,0,2.574,0C86.924,21.942,87.262,21.184,87.385,20.126z M149.921,7.911
		c-0.367,1.185,0.225,1.749,1.07,2.097c0.615,0.253,1.148,0.131,1.264-0.683C151.78,8.42,150.841,8.317,149.921,7.911z
		 M147.45,14.784c-0.462-1.184-1.37-1.47-2.37-1.727C145.054,14.71,145.762,15.234,147.45,14.784z"/>
	<path fill-rule="evenodd" clip-rule="evenodd" fill="none" d="M158.503,4.979c22.706,0,45.412,0,68.117,0
		c0,29.975,0,59.951,0,89.926c-1.776-2.26-3.248-4.567-2.548-7.709c0.325-1.463-0.409-2.351-1.759-2.509
		c-3.6-0.421-7.153-1.291-10.808-1.185c-1.306,0.038-2.299-0.441-3.167-1.429c-3.604-4.109-7.254-8.18-10.889-12.263
		c-1.55-1.742-3.1-3.485-4.287-5.506c-0.959-1.633-2.092-3.127-3.423-4.472c-1.4-1.417-2.484-3.048-3.344-4.842
		c-1.8-3.764-3.863-7.381-6.15-10.869c-2.394-3.647-4.447-7.462-5.79-11.632c-1.111-3.452-2.204-6.914-3.022-10.447
		c-0.574-2.477-1.726-4.485-3.848-5.924c-0.624-0.423-1.176-0.951-1.773-1.44c0.253-1.431-0.372-2.418-1.318-3.371
		C162.45,9.246,160.495,7.094,158.503,4.979z"/>
	<path fill-rule="evenodd" clip-rule="evenodd" d="M158.503,4.979c1.992,2.114,3.946,4.267,5.992,6.327
		c0.946,0.953,1.571,1.939,1.318,3.371c0.597,0.489,1.149,1.017,1.773,1.44c2.122,1.439,3.274,3.448,3.848,5.924
		c0.818,3.533,1.911,6.995,3.022,10.447c1.343,4.17,3.396,7.985,5.79,11.632c2.287,3.488,4.35,7.105,6.15,10.869
		c0.859,1.794,1.943,3.425,3.344,4.842c1.331,1.345,2.464,2.838,3.423,4.472c1.187,2.021,2.736,3.765,4.287,5.506
		c3.635,4.083,7.285,8.154,10.889,12.263c0.868,0.988,1.861,1.467,3.167,1.429c3.655-0.105,7.208,0.764,10.808,1.185
		c1.35,0.158,2.084,1.046,1.759,2.509c-0.7,3.142,0.772,5.449,2.548,7.709c0,0.449,0,0.897,0,1.346
		c-1.965-2.36-3.72-4.808-3.318-8.17c-0.154,0.048-0.311,0.047-0.38,0.125c-4.104,4.617-9.39,6.237-15.402,6.437
		c-6.183,0.206-12.361,0.662-18.523,1.271c-0.262,0.025-0.523,0.06-0.935,0.106c2.189,10.46,4.888,20.706,7.502,30.989
		c-1.049-1.366-1.525-2.989-2.013-4.594c-0.495-1.629-0.909-3.282-1.344-4.928c-0.447-1.689-0.89-3.38-1.312-5.075
		c-0.409-1.646-0.791-3.299-1.194-4.998c-1.497,0.128-2.761,0.725-3.96,1.37c-3.219,1.731-6.342,1.582-9.474-0.186
		c-2.187-1.233-4.397-2.421-6.691-3.682c-3.597,1.339-6.126,4.569-9.851,5.963c-0.825,2.571-1.93,5.066-2.995,7.579
		c-1.065,2.518-2.002,5.077-2.459,7.863c1.163,0.596,2.566,0.519,3.744,1.482c0.186,4.651,0.439,9.41-2.03,13.799
		c1.534-4.322,1.291-8.797,1.269-13.518c-6.05-1.337-11.448-3.765-14.854-9.772c-3.168,7.969-3.891,16.065-6.485,23.647
		c0.69-6.855,2.062-13.559,4.392-20.136c-4.618,6.311-11.036,8.429-18.437,8.556c-0.127-0.988,0.44-1.01,1.063-1.01
		c2.21-0.001,4.386-0.29,6.51-0.903c5.159-1.487,8.769-4.895,11.516-9.355c0.554-0.899,0.776-1.898,0.789-2.953
		c0.038-3.125-0.463-6.232-0.394-9.424c-0.485,0.876-0.96,1.76-1.458,2.629c-2.549,4.453-5.866,8.237-9.859,11.454
		c-2.847,2.293-5.958,3.102-9.56,2.212c-3.043-0.752-6.147-1.245-9.141-2.219c-1.717-0.559-3.527-0.648-5.309-0.823
		c-2.823-0.276-4.958-1.665-6.674-3.896c0.528-0.183,0.772,0.237,1.026,0.462c1.809,1.604,3.904,2.437,6.306,2.729
		c4.859,0.59,9.542,2.069,14.338,3.007c3.59,0.702,6.479-0.129,9.17-2.496c4.514-3.971,7.93-8.754,10.795-13.982
		c0.668-1.218,1.33-2.449,2.118-3.589c2.924-4.228,4.379-8.896,4.357-14.004c0.281-0.361,0.588-0.57,1.068-0.486
		c0.221,1.127-0.267,2.211-0.19,3.551c1.91-1.22,2.688-2.894,2.589-4.915c-0.137-2.814,0.265-5.523,1.123-8.186
		c-0.053,3.494,0.006,6.992-0.939,10.414c-0.266,0.962-0.727,1.654-1.527,2.25c-2.634,1.958-2.834,3.355-0.805,5.949
		c2.375,3.035,4.574,6.209,7.15,9.087c1.345,1.505,2.751,2.944,4.504,4.198c1.704-1.028,3.317-2.21,4.862-3.491
		c0.414-0.343,0.794-0.727,1.2-1.08c1.953-1.697,2.93-1.776,5.187-0.462c1.703,0.992,3.4,1.997,5.127,2.944
		c2.322,1.273,4.764,1.491,7.28,0.639c1.819-0.616,3.627-1.26,5.281-1.836c-0.589-9.655-4.578-17.969-9.937-25.744
		c-0.331-0.48-0.718-0.926-1.004-1.43c-1.434-2.536-3.515-4.184-6.311-5.093c-1.656-0.538-3.285-1.375-3.416-3.521l-0.026,0.033
		c1.257,2.197,3.375,3.171,5.612,4.008c1.691,0.633,2.925,1.824,3.993,3.273c3.717,5.042,6.909,10.367,9.054,16.28
		c0.074,0.205,0.199,0.392,0.367,0.714c9.615-1.089,19.418-0.602,29.112-3.281c-1.986-2.884-5.345-4.434-6.308-7.814
		c-1.842-1.053-3.287-2.461-4.533-4.06c-2.931-3.759-6.307-7.114-9.537-10.601c-1.62-1.747-3.105-3.6-4.377-5.618
		c-0.959-1.521-2.021-2.959-3.305-4.233c-0.991-0.984-1.823-2.115-2.427-3.373c-2.222-4.618-4.91-8.968-7.656-13.276
		c-3.503-5.494-5.332-11.614-7.017-17.815c-1.686-6.204-1.724-6.198-6.705-10.308c-2.311-1.907-4.721-3.679-7.59-5.404
		c3.217,0.192,4.431,3.403,7.208,3.868c-0.584-2.602-2.045-3.75-5.109-4.082c-0.715-0.846-1.395-1.778-1.908-2.855
		c-0.492,0.028-0.926,0.052-1.489,0.083c0.55-0.906,1.57-0.952,2.17-1.566C158.324,4.979,158.414,4.979,158.503,4.979z
		 M147.167,95.772c-0.317,2.599-1.79,4.385-3.097,6.249c-1.025,1.462-1.803,3.007-1.844,4.822c-0.067,3.002-0.104,6.005-0.121,9.007
		c-0.005,0.921,0.335,1.765,0.906,2.486c0.863,1.088,1.702,2.205,2.655,3.21c2.143,2.261,4.726,3.779,7.899,4.438
		c0.778-3.788,2.282-7.236,3.683-10.722c0.501-1.246,0.962-2.508,1.421-3.771c0.29-0.799,0.087-1.484-0.536-2.07
		c-2.828-2.66-5.03-5.83-7.281-8.96C149.74,98.913,148.647,97.343,147.167,95.772z M210.866,83.874
		c1.157,3.599,4.357,5.244,6.454,7.872c2.12-1.933,5.092-2.815,5.917-5.983C219.156,84.603,215.091,84.362,210.866,83.874z
		 M157.803,6.308c0.754,0.984,1.118,1.965,2.389,2.173C160.024,7.098,159.422,6.371,157.803,6.308z"/>
	<path fill-rule="evenodd" clip-rule="evenodd" d="M114.519,98.625c0.037-3.085,2.563-4.034,4.673-5.455
		c2.152,0.678,4.363,1.474,6.514-0.245c1.947,1.488,4.055,2.716,5.417,4.979c-0.843,3.048-3.177,4.677-5.898,5.904
		c-1.541,0.694-3.138,0.718-4.712,0.091c-2.863-1.14-5.379-2.808-7.728-5.125c0.693-0.071,1.115-0.686,1.731-0.158
		c0.921,0.189,1.786-0.013,2.594-0.44c3.351-1.769,6.812-1.275,10.28-0.503c1.013,0.226,1.971,0.75,3.222,0.576
		c-1.167-2.215-3.138-3.268-5.011-4.44c-2.157,1.715-4.305,0.829-6.465,0.142C117.169,95.088,115.391,96.406,114.519,98.625z
		 M130.122,98.779c-1.777-0.61-3.517-0.436-5.248-0.273c-1.336,0.125-2.729,0.453-4,0.101c-2.268-0.629-4.19,0.327-6.417,0.912
		c2.032,1.431,3.852,2.862,6.074,3.609C124.125,104.336,128.575,102.353,130.122,98.779z"/>
	<path fill-rule="evenodd" clip-rule="evenodd" d="M116.562,79.183c-1.5-0.125-2.399,0.734-3.358,1.367
		c-0.46,2.005-0.885,3.938,1.724,4.88c0.978-1.161,1.984-2.521,3.946-2.032c0.553,0.369,0.908,0.951,1.332,1.469
		c1.46,1.785,2.769,1.909,4.597,0.447c0.901-0.721,1.674-1.623,2.799-2.056c1.174,0.48,1.692,1.743,2.91,2.329
		c1.611-1.201,2.279-2.827,2.224-4.82c-0.623-0.188-0.727,0.554-1.26,0.521c-0.771-0.407-0.978-1.41-1.722-1.948
		c-0.528,0.483-0.42,1.193-0.886,1.735c0.121-2.648-0.714-5.088-1.476-7.568c1.588,2.242,2.264,4.986,3.931,7.093
		c0.702-0.067,0.7-0.81,1.262-0.929c0.792,1.362,1.174,2.853,1.504,4.458c-0.734-0.21-0.472-0.898-0.974-1.315
		c-0.39,0.764-0.722,1.51-1.136,2.207c-0.737,1.245-1.465,1.375-2.649,0.537c-2.051-1.451-2.71-1.389-4.453,0.417
		c-1.296,1.343-3.18,1.366-4.522,0.042c-0.348-0.343-0.663-0.719-1.013-1.102c-1.761,0.163-3.404,0.786-5.133,1.134
		c-1.275-0.939-2.037-2.128-1.978-3.938c-1.265,1.03-1.586,2.421-2.205,3.78c-0.371-2.648,0.529-3.884,5.169-7.26
		c0-1.205,0-2.454,0-3.742c0.371-0.277,0.721-0.54,1.072-0.802C115.674,75.781,115.941,77.396,116.562,79.183z"/>
	<path fill-rule="evenodd" clip-rule="evenodd" d="M101.813,64.631c0.417,0.274,0.767,0.038,1.126-0.146
		c0.558-0.285,1.117-0.572,1.683-0.842c1.967-0.94,3.911-1.199,5.874,0.068c0.816,0.527,1.723,0.915,2.926,1.542
		c-2.874,0.521-5.396,0.556-7.928,0.426c-0.538-0.027-1.077-0.061-1.61-0.13c-1.83-0.235-3.373,0.206-4.473,1.799
		c-0.16,0.229-0.345,0.533-0.859,0.473c0.289-1.035,1.241-1.819,1.041-2.917c4.949-3.625,10.231-4.245,13.459-1.452
		c-3.971-1.367-7.82-1.741-11.258,1.219c0.023,0.018,0.044,0.036,0.064,0.055C101.844,64.694,101.829,64.663,101.813,64.631z
		 M108.28,64.505c0.81,0.564,1.41,1.025,2.126,0.13C109.471,63.769,109.471,63.769,108.28,64.505z"/>
	<path fill-rule="evenodd" clip-rule="evenodd" d="M141.231,64.431c-0.252,0.965,0.817,1.299,1.012,2.135
		c-0.679-0.002-1.078-0.431-1.433-0.86c-0.868-1.048-1.954-1.276-3.251-1.089c-1.796,0.259-3.58,0.821-5.517,0.407
		c0.214-0.612,1.119-1.185,0.095-1.798c-0.446,0.008-0.842,0.179-1.176,0.494c-0.394,0.361-0.036,0.753-0.047,1.21
		c-0.752-0.037-1.476-0.105-2.33-0.479c2.155-2.088,4.654-2.517,7.357-2.289c2.028,0.172,3.727,1.123,5.322,2.303L141.231,64.431z"
		/>
	<path fill-rule="evenodd" clip-rule="evenodd" d="M176.456,118.082c3.263,8.776,5.517,17.88,8.772,26.896
		C183.893,143.759,177.14,122.907,176.456,118.082z"/>
	<path fill-rule="evenodd" clip-rule="evenodd" d="M141.263,64.465c0.16-0.663-0.312-0.994-0.739-1.302
		c-1.39-1.006-2.923-1.732-4.565-2.224c-0.342-0.103-0.739-0.26-1.047-0.051c-1.032,0.7-2.199,0.641-3.372,0.614
		c-1.021,1.299-2.387,1.772-4.146,1.94c6.028-4.541,10.992-4.05,14.79,0.558c-0.223,0.342-0.486,0.581-0.951,0.432
		C141.231,64.431,141.263,64.465,141.263,64.465z"/>
	<path fill-rule="evenodd" clip-rule="evenodd" d="M117.279,111.784c3.558-4.174,9.032-4.089,11.792,0.149
		C125.169,108.93,121.25,108.54,117.279,111.784z"/>
	<path fill-rule="evenodd" clip-rule="evenodd" d="M98.388,63.292c3.803-0.877,5.913-4.384,9.66-4.791
		c-0.017,0.178,0.004,0.306-0.038,0.333c-2.406,1.525-4.803,3.067-7.239,4.545C100.178,63.737,99.456,63.873,98.388,63.292z"/>
	<path fill-rule="evenodd" clip-rule="evenodd" d="M104.779,69.319c-0.021-0.275-0.541-0.314-0.981-0.626
		c3.479,0.75,6.349-2.153,9.828-1.37c-1.356,0.738-3.074,0.18-4.365,1.415C108.141,69.808,106.371,69.056,104.779,69.319z"/>
	<path fill-rule="evenodd" clip-rule="evenodd" d="M113.856,71.456c-2.191,2.347-4.798,3.959-8.05,4.431
		C108.236,73.962,111.398,73.332,113.856,71.456z"/>
	<path fill-rule="evenodd" clip-rule="evenodd" d="M129.221,66.535c1.228-0.084,2.116,0.2,2.998,0.484
		c2.174,0.698,4.342,1.867,6.517-0.141C137.481,69.095,132.921,68.931,129.221,66.535z"/>
	<path fill-rule="evenodd" clip-rule="evenodd" d="M109.238,96.229c1.051-2.755,1.927-5.633,4.559-7.414
		C111.965,91.094,111.143,93.985,109.238,96.229z"/>
	<path fill-rule="evenodd" clip-rule="evenodd" d="M96.561,56.984c-1.784,2.98-3.25,6.117-4.638,9.566
		C91.988,63.828,94.158,59.33,96.561,56.984z"/>
	<path fill-rule="evenodd" clip-rule="evenodd" d="M146.326,67.32c-0.911-3.175-1.412-6.426-2.303-9.588
		C145.66,60.725,146.23,63.976,146.326,67.32z"/>
	<path fill-rule="evenodd" clip-rule="evenodd" d="M148.46,83.015c1.006,1.984,0.915,3.29-0.264,4.192
		C147.887,85.816,148.023,84.572,148.46,83.015z"/>
	<path fill-rule="evenodd" clip-rule="evenodd" d="M133.758,76.266c-1.911-0.547-2.916-1.695-3.514-3.926
		C131.578,73.829,132.668,75.047,133.758,76.266z"/>
	<path fill-rule="evenodd" clip-rule="evenodd" d="M136.361,93.877c-1.116-1.572-1.69-3.348-2.369-5.079
		C135.441,90.189,136.067,91.975,136.361,93.877z"/>
	<path fill-rule="evenodd" clip-rule="evenodd" d="M128.607,69.336c0.062,0.039,0.125,0.079,0.192,0.12
		c-0.196,0.103-0.208,0.009-0.164-0.146L128.607,69.336z"/>
	<path fill-rule="evenodd" clip-rule="evenodd" d="M168.705,71.006c-0.038-0.064-0.076-0.127-0.035-0.06
		c-0.011-0.065,0.001,0.011,0.011,0.09C168.679,71.039,168.705,71.006,168.705,71.006z"/>
	<path fill-rule="evenodd" clip-rule="evenodd" d="M175.179,39.99c0.048,0.033,0.096,0.065,0.083,0.057
		c0.009,0.013-0.024-0.035-0.058-0.083C175.204,39.964,175.179,39.99,175.179,39.99z"/>
	<path fill-rule="evenodd" clip-rule="evenodd" fill="none" d="M72.177,13.389c1.975,2.503,1.823,3.771-0.567,6.054
		c-1.952,1.866-3.979,3.616-6.315,4.991c-2.099,1.235-3.453,3.049-4.244,5.356c-1.208,3.522-2.729,6.916-4.526,10.18
		c-1.395,2.531-3.05,4.853-5.321,6.698c-0.83,0.675-1.627,1.408-2.2,2.382c0.537,0.155,0.729-0.289,0.998-0.526
		c5.039-4.43,8.546-9.927,10.67-16.221c1.258-3.728,3.229-6.619,6.718-8.485c1.875-1.003,3.379-2.493,4.79-4.081
		c1.311-1.477,2.684-2.9,4.554-3.684c3.707,1.935,4.729,1.761,6.966-1.328c-1.222,0.328-1.907,1.18-2.815,1.766
		c-0.759,0.001-1.543-0.1-2.444-0.411c0.297-1.808,1.856-2.402,2.943-3.354c4.014,1.345,4.88,4.547,1.625,7.047
		c-4.583,3.521-8.226,8.163-13.36,11.004c-1.521,0.842-2.605,2.181-3.468,3.681c-2.733,4.752-5.903,9.203-9.269,13.521
		c-0.128,0.165-0.238,0.344-0.287,0.578c0.705-0.321,1.092-0.967,1.541-1.537c3.115-3.947,5.829-8.174,8.603-12.359
		c0.698-1.054,1.41-2.136,2.487-2.795c3.791-2.319,7.234-5.125,10.89-7.628c0.878-0.601,1.85-1.062,2.91-1.663
		c0.46,0.584,0.873,1.107,1.284,1.628c1.181-0.421,2.18-0.89,3.132-1.474c0.19-0.622,0.373-1.216,0.559-1.824
		c1.089,0.843,1.34,2.232,0.659,3.698c-0.526,1.13-1.432,1.943-2.397,2.684c-0.817,0.628-1.691,1.182-2.504,1.816
		c-0.811,0.632-1.824,1.179-2.315,2.018c-1.375,2.351-3.4,4.006-5.436,5.688c-0.93,0.769-1.375,1.86-1.803,2.951
		c-0.409,1.042-0.831,2.079-1.255,3.114c-1.063,2.59-3.016,4.39-5.271,5.919c-1.416,0.931-2.276,2.378-3.371,3.611
		c1.491-0.835,2.349-2.301,3.498-3.475c4.056-2.359,8.388-4.242,12.097-7.203c1.146-0.915,2.547-1.476,4.061-1.517
		c1.417,2.486,2.115,2.695,5.813,1.73c0.002,0.726-0.283,1.297-0.724,1.816c-0.414,0.485-0.895,0.917-1.482,1.135
		c-4.669,1.729-7.765,5.483-11.249,8.73c-1.516,1.414-3.017,2.812-5.019,3.437c-0.567,1.594-1.099,3.121-2.021,4.462
		c-0.562,0.818-1.208,1.583-2.09,2.059c-0.846,0.457-1.204,1.14-1.271,2.055c-0.417,5.608-2.978,10.347-6.122,14.816
		c-1.864,2.65-4.202,4.714-7.485,5.559c-2.1,0.541-3.536,1.98-4.524,3.928c-1.861,3.668-3.797,7.299-5.702,10.946l0.047-0.045
		c-0.924,0.888-1.257,2.137-1.932,3.179c-0.68,1.052-1.468,1.673-2.836,1.619c-3.229-0.128-6.455-0.224-9.607-1.013
		c-0.823-0.206-1.639-0.47-2.422-0.795c-3.857-1.603-4.986-3.955-3.753-7.92c0.504-1.621,1.156-3.196,1.723-4.742
		c-0.366-1.471-1.539-2.214-2.64-3.192C25,83.348,28.585,78.13,33.696,74.354c2.231-1.648,3.68-3.86,4.873-6.317
		c2.874-5.921,6.131-11.65,8.82-17.668c0.952-2.13,2.233-4.101,3.699-5.917c2.004-2.483,3.385-5.265,4.288-8.305
		c0.915-3.081,2.203-5.949,4.396-8.373c1.216-1.343,1.856-3.051,2.599-4.683c0.817-1.795,1.691-3.557,3.282-4.806
		c0.845,0.157,1.376,0.778,2.181,1.09c1.853-1.035,3.366-2.408,3.865-4.629c0.107-0.478,0.243-0.917,0.502-1.33
		C72.195,13.408,72.177,13.389,72.177,13.389z"/>
	<path fill-rule="evenodd" clip-rule="evenodd" fill="none" d="M42.118,100.884c0.521-0.121,0.597-0.628,0.812-0.989
		c1.813-3.041,3.625-6.083,5.166-9.275c0.866-1.793,2.022-3.422,4.003-3.942c6.197-1.626,9.123-6.445,11.6-11.684
		c1.087-2.299,1.901-4.728,2.972-7.436c1.476,5.941,3.595,11.342,5.758,16.717c2.163,5.375,3.118,11.119,5.099,16.407
		c0.814,0.489,1.495,0.807,2.227,0.997c0.918-0.47,1.302-1.517,2.458-2.037c0.035,2.152-0.099,4.144-0.715,6.148
		c-3.178,0.771-5.917,2.416-8.654,4.026c-2.363,1.391-4.829,1.81-7.497,1.366c-0.75-0.125-1.516-0.162-2.276-0.215
		c-1.623-0.111-2.939,0.347-3.973,1.739c-1.288,1.732-2.079,1.965-4.001,0.813c-2.514-1.508-4.866-1.546-7.322-0.032
		c-3.457,2.131-6.843,1.566-10.274-0.385c-0.395-1.947,0.007-3.827,1.085-5.56c1.136-1.828,2.272-3.654,3.196-5.601
		c0.165-0.35,0.514-0.647,0.385-1.102C42.165,100.839,42.118,100.884,42.118,100.884z"/>
	<path fill-rule="evenodd" clip-rule="evenodd" fill="none" d="M83.639,97.605c0.334,1.882,0.733,3.756,0.989,5.649
		c0.466,3.455,2.225,6.092,4.931,8.18c3.196,2.463,6.327,5.017,9.603,7.369c2.086,1.498,3.268,3.321,3.464,5.892
		c0.243,3.171,0.782,6.323,0.578,9.52c-0.033,0.525,0.048,1.074-0.279,1.658c-2.114-0.31-4.155-0.927-6.165-1.663
		c-7.301-2.676-12.667-7.633-16.672-14.182c-0.815-1.334-0.73-2.839-0.651-4.32c0.122-2.312,0.834-4.49,1.627-6.635
		c1.004-2.713,1.738-5.452,1.597-8.389C82.61,99.64,82.692,98.551,83.639,97.605z"/>
	<path fill-rule="evenodd" clip-rule="evenodd" fill="none" d="M159.888,34.12c-0.195,0.763,0.349,1.47,0.197,2.361
		c-2.56-0.948-4.671-2.768-7.389-3.135c-1.679-2.329-2.872-4.893-4.282-7.328c-1.424-2.461-3.076-4.725-5.438-6.339
		c0.121-0.581,0.574-0.734,0.987-1.111c2.027,1.511,4.307,2.529,6.584,3.552c0.299,0.134,0.524,0.325,0.675,0.618
		c0.849,1.645,2.176,2.884,3.701,3.818c2.377,1.456,3.641,3.595,4.369,6.173c0.14,0.497,0.162,1.067,0.631,1.43
		C159.926,34.163,159.888,34.12,159.888,34.12z"/>
	<path fill-rule="evenodd" clip-rule="evenodd" fill="none" d="M161.701,51.229c2.008,1.261,3.378,5.76,2.443,8.672
		C160.594,57.526,159.405,53.43,161.701,51.229z"/>
	<path fill-rule="evenodd" clip-rule="evenodd" fill="none" d="M66.026,17.669c0.844-1.985,2.21-3.517,3.827-4.887
		c0.676,0.178,0.963,0.679,1.292,1.096c0.024,2.413-1.896,3.441-3.188,4.901C67.173,18.628,66.662,18.134,66.026,17.669z"/>
	<path fill-rule="evenodd" clip-rule="evenodd" fill="none" d="M16.962,85.043c1.843-1.324,3.789-1.48,5.699-0.528
		c-0.134,0.679-0.652,1.137-1.013,1.681c-0.365,0.551-0.777,1.072-1.186,1.629C18.956,87.255,17.796,86.422,16.962,85.043z"/>
	<path fill-rule="evenodd" clip-rule="evenodd" fill="none" d="M144.019,32.41c1.687-0.323,3.186,0.291,4.79,0.523
		c-0.289,0.913-0.77,1.534-1.301,2.101C145.007,35.147,143.944,34.393,144.019,32.41z"/>
	<path fill-rule="evenodd" clip-rule="evenodd" fill="none" d="M88.958,38.923c0.689,0.708,0.662,1.531,0.843,2.279
		c-2.21,0.988-4.342,0.576-5.074-1.017C86.043,39.522,87.465,39.237,88.958,38.923z"/>
	<path fill-rule="evenodd" clip-rule="evenodd" fill="none" d="M87.385,20.126c-0.123,1.057-0.461,1.816-0.894,2.583
		c-0.824,0-1.645,0-2.574,0C84.487,21.022,85.75,20.474,87.385,20.126z"/>
	<path fill-rule="evenodd" clip-rule="evenodd" fill="none" d="M149.921,7.911c0.92,0.407,1.858,0.509,2.333,1.415
		c-0.115,0.814-0.648,0.936-1.264,0.683C150.146,9.659,149.555,9.095,149.921,7.911z"/>
	<path fill-rule="evenodd" clip-rule="evenodd" fill="none" d="M147.45,14.784c-1.688,0.45-2.396-0.074-2.37-1.727
		C146.081,13.314,146.988,13.601,147.45,14.784z"/>
	<path fill-rule="evenodd" clip-rule="evenodd" fill="none" d="M147.167,95.772c1.48,1.571,2.573,3.141,3.687,4.688
		c2.251,3.13,4.453,6.3,7.281,8.96c0.623,0.586,0.826,1.271,0.536,2.07c-0.459,1.263-0.92,2.525-1.421,3.771
		c-1.401,3.486-2.905,6.934-3.683,10.722c-3.173-0.66-5.756-2.178-7.899-4.438c-0.953-1.005-1.792-2.122-2.655-3.21
		c-0.571-0.721-0.912-1.565-0.906-2.486c0.017-3.002,0.054-6.005,0.121-9.007c0.041-1.815,0.818-3.36,1.844-4.822
		C145.377,100.157,146.849,98.371,147.167,95.772z"/>
	<path fill-rule="evenodd" clip-rule="evenodd" fill="none" d="M210.866,83.874c4.225,0.488,8.29,0.729,12.371,1.889
		c-0.825,3.168-3.797,4.051-5.917,5.983C215.224,89.118,212.023,87.473,210.866,83.874z"/>
	<path fill-rule="evenodd" clip-rule="evenodd" fill="none" d="M157.803,6.308c1.62,0.063,2.222,0.79,2.389,2.173
		C158.921,8.272,158.557,7.292,157.803,6.308z"/>
	<path fill-rule="evenodd" clip-rule="evenodd" fill="none" d="M130.122,98.779c-1.546,3.574-5.997,5.557-9.591,4.348
		c-2.222-0.747-4.042-2.178-6.074-3.609c2.227-0.585,4.149-1.541,6.417-0.912c1.271,0.353,2.664,0.024,4-0.101
		C126.605,98.344,128.345,98.169,130.122,98.779z"/>
	<path fill-rule="evenodd" clip-rule="evenodd" fill="none" d="M114.519,98.625c0.873-2.219,2.65-3.537,4.617-4.675
		c2.16,0.688,4.308,1.573,6.465-0.142c1.874,1.173,3.844,2.226,5.011,4.44c-1.251,0.173-2.208-0.351-3.222-0.576
		c-3.468-0.771-6.93-1.266-10.28,0.503c-0.809,0.427-1.673,0.629-2.594,0.44C114.516,98.616,114.519,98.625,114.519,98.625z"/>
	<path fill-rule="evenodd" clip-rule="evenodd" fill="none" d="M108.28,64.505c1.19-0.736,1.19-0.736,2.126,0.13
		C109.69,65.53,109.09,65.069,108.28,64.505z"/>
	<path fill-rule="evenodd" clip-rule="evenodd" fill="none" d="M101.813,64.631c0.016,0.032,0.03,0.063,0.045,0.096
		c-0.021-0.019-0.042-0.037-0.064-0.055C101.792,64.673,101.813,64.631,101.813,64.631z"/>
	<path fill-rule="evenodd" clip-rule="evenodd" d="M67.835,48.931c-1.149,1.174-2.007,2.639-3.498,3.475
		c1.095-1.232,1.955-2.68,3.371-3.611C67.751,48.84,67.793,48.886,67.835,48.931z"/>
</g>
<g>
</g>
<g>
</g>
<g>
</g>
<g>
</g>
<g>
</g>
<g>
</g>
</svg>
