<?xml version="1.0" encoding="utf-8"?>
<!-- Generator: Adobe Illustrator 16.0.4, SVG Export Plug-In . SVG Version: 6.00 Build 0)  -->
<!DOCTYPE svg PUBLIC "-//W3C//DTD SVG 1.1//EN" "http://www.w3.org/Graphics/SVG/1.1/DTD/svg11.dtd">
<svg version="1.1" id="Layer_1" xmlns="http://www.w3.org/2000/svg" xmlns:xlink="http://www.w3.org/1999/xlink" x="0px" y="0px"
	 width="239.5px" height="81px" viewBox="0 0 239.5 81" enable-background="new 0 0 239.5 81" xml:space="preserve">
<g id="minmax">
	<g>
		<line fill="none" stroke="#000000" stroke-width="2" stroke-miterlimit="10" x1="6.625" y1="33.199" x2="234.125" y2="33.199"/>
		<g>
			<path fill="#FBC15E" d="M13.374,53.301c0-0.385,0.034-0.773,0.102-1.164s0.201-0.779,0.399-1.164
				c0.198-0.386,0.481-0.757,0.85-1.113c0.368-0.356,0.858-0.694,1.47-1.012c0.329-0.17,0.672-0.338,1.029-0.502
				s0.686-0.349,0.986-0.553c0.3-0.203,0.547-0.434,0.74-0.688c0.192-0.256,0.289-0.554,0.289-0.894
				c0-0.216-0.048-0.428-0.145-0.639c-0.096-0.209-0.238-0.396-0.425-0.562c-0.187-0.164-0.419-0.297-0.697-0.398
				c-0.278-0.104-0.604-0.153-0.978-0.153s-0.708,0.056-1.003,0.162c-0.295,0.106-0.553,0.233-0.774,0.383
				c-0.221,0.146-0.411,0.304-0.569,0.468c-0.158,0.163-0.278,0.297-0.357,0.398l-0.765-0.833c0.068-0.068,0.198-0.192,0.391-0.374
				c0.192-0.182,0.445-0.362,0.756-0.544c0.311-0.183,0.677-0.343,1.097-0.484c0.419-0.142,0.89-0.213,1.411-0.213
				s0.986,0.071,1.394,0.213c0.408,0.144,0.753,0.339,1.037,0.587c0.283,0.25,0.499,0.535,0.646,0.858
				c0.147,0.321,0.221,0.66,0.221,1.012c0,0.466-0.102,0.867-0.306,1.207c-0.204,0.341-0.456,0.636-0.756,0.884
				c-0.3,0.25-0.621,0.463-0.96,0.639s-0.646,0.324-0.918,0.449c-0.363,0.16-0.717,0.338-1.062,0.535
				c-0.345,0.198-0.655,0.418-0.927,0.655s-0.496,0.504-0.671,0.799c-0.175,0.296-0.264,0.623-0.264,0.986h6.052V53.3L13.374,53.301
				L13.374,53.301z"/>
		</g>
		<line fill="none" stroke="#000000" stroke-width="2" stroke-miterlimit="10" x1="17.625" y1="32.699" x2="17.625" y2="40.199"/>
		<line fill="none" stroke="#000000" stroke-width="2" stroke-miterlimit="10" x1="27.824" y1="32.699" x2="27.824" y2="40.199"/>
		<line fill="none" stroke="#000000" stroke-width="2" stroke-miterlimit="10" x1="47.225" y1="32.699" x2="47.225" y2="40.199"/>
		<line fill="none" stroke="#000000" stroke-width="2" stroke-miterlimit="10" x1="73.624" y1="32.699" x2="73.624" y2="40.199"/>
		<line fill="none" stroke="#000000" stroke-width="2" stroke-miterlimit="10" x1="114.625" y1="32.699" x2="114.625" y2="40.199"/>
		<line fill="none" stroke="#000000" stroke-width="2" stroke-miterlimit="10" x1="136.225" y1="32.699" x2="136.225" y2="40.199"/>
		<line fill="none" stroke="#000000" stroke-width="2" stroke-miterlimit="10" x1="178.225" y1="32.699" x2="178.225" y2="40.199"/>
		<line fill="none" stroke="#000000" stroke-width="2" stroke-miterlimit="10" x1="221.025" y1="32.699" x2="221.025" y2="40.199"/>
		<g>
			<path d="M28.771,48.762c0.66,0.109,1.188,0.41,1.583,0.899s0.592,1.095,0.592,1.815c0,0.448-0.083,0.861-0.248,1.236
				c-0.165,0.375-0.4,0.694-0.705,0.96c-0.305,0.265-0.67,0.47-1.095,0.615c-0.425,0.146-0.897,0.217-1.417,0.217
				c-0.76,0-1.425-0.151-1.995-0.457c-0.57-0.305-1-0.728-1.29-1.269l0.705-0.645c0.21,0.439,0.53,0.789,0.96,1.049
				c0.43,0.262,0.97,0.392,1.62,0.392c0.75,0,1.34-0.183,1.77-0.548c0.43-0.364,0.645-0.887,0.645-1.567
				c0-0.688-0.225-1.233-0.675-1.635c-0.45-0.4-1.101-0.601-1.95-0.601h-0.375v-0.869H27.3c0.77,0,1.36-0.179,1.77-0.532
				c0.41-0.355,0.615-0.818,0.615-1.39c0-0.299-0.055-0.563-0.165-0.795c-0.11-0.229-0.263-0.422-0.458-0.576
				c-0.195-0.155-0.425-0.272-0.69-0.354c-0.265-0.08-0.553-0.119-0.863-0.119c-0.57,0-1.072,0.127-1.507,0.383
				c-0.435,0.254-0.763,0.606-0.982,1.057L24.36,45.4c0.12-0.262,0.29-0.498,0.51-0.713c0.22-0.215,0.47-0.397,0.75-0.549
				c0.28-0.148,0.59-0.267,0.93-0.352c0.34-0.085,0.69-0.128,1.05-0.128c0.46,0,0.882,0.065,1.268,0.194
				c0.385,0.131,0.717,0.312,0.998,0.549c0.28,0.233,0.497,0.518,0.652,0.848c0.155,0.329,0.232,0.693,0.232,1.094
				c0,0.301-0.045,0.588-0.135,0.863c-0.09,0.275-0.22,0.52-0.39,0.734s-0.377,0.396-0.623,0.541
				C29.358,48.629,29.081,48.721,28.771,48.762z"/>
		</g>
		<g>
			<path fill="#00BFFF" d="M215.285,52.301c0-0.34,0.029-0.682,0.09-1.027c0.061-0.344,0.178-0.688,0.354-1.026
				c0.174-0.34,0.424-0.668,0.75-0.981c0.324-0.314,0.758-0.613,1.297-0.894c0.291-0.149,0.594-0.297,0.908-0.442
				s0.604-0.308,0.869-0.486c0.266-0.18,0.482-0.383,0.652-0.607s0.256-0.488,0.256-0.787c0-0.189-0.043-0.378-0.128-0.562
				c-0.085-0.186-0.21-0.351-0.375-0.495c-0.165-0.146-0.37-0.263-0.615-0.353s-0.532-0.135-0.862-0.135s-0.625,0.047-0.885,0.143
				c-0.26,0.095-0.488,0.207-0.683,0.338c-0.195,0.13-0.362,0.268-0.503,0.412c-0.141,0.146-0.244,0.263-0.314,0.353l-0.676-0.733
				c0.061-0.062,0.176-0.171,0.346-0.33c0.17-0.16,0.394-0.32,0.668-0.48s0.598-0.303,0.967-0.428
				c0.371-0.125,0.785-0.188,1.246-0.188c0.459,0,0.869,0.062,1.229,0.188c0.359,0.125,0.666,0.298,0.916,0.518
				c0.25,0.221,0.439,0.473,0.568,0.758c0.131,0.285,0.195,0.582,0.195,0.893c0,0.41-0.091,0.766-0.271,1.064
				c-0.181,0.301-0.402,0.561-0.667,0.78c-0.266,0.219-0.549,0.407-0.848,0.562c-0.301,0.155-0.569,0.289-0.811,0.397
				c-0.32,0.142-0.633,0.298-0.938,0.474c-0.307,0.176-0.578,0.366-0.818,0.577c-0.24,0.209-0.438,0.444-0.592,0.705
				c-0.155,0.261-0.232,0.55-0.232,0.869h5.34v0.931h-6.434V52.301z"/>
			<path fill="#00BFFF" d="M228.529,51.371v0.93h-5.084v-0.93h2.13v-6.42c-0.08,0.119-0.218,0.25-0.412,0.391
				c-0.195,0.141-0.41,0.27-0.646,0.391c-0.234,0.119-0.479,0.22-0.728,0.3c-0.25,0.079-0.472,0.12-0.66,0.12v-0.99
				c0.229,0,0.481-0.064,0.757-0.194c0.275-0.131,0.535-0.28,0.78-0.45s0.452-0.33,0.623-0.479c0.17-0.149,0.265-0.249,0.284-0.3
				h1.05v7.635h1.905V51.371z"/>
		</g>
		<g>
			<path d="M178.715,51.371v0.93h-5.084v-0.93h2.129v-6.42c-0.08,0.119-0.217,0.25-0.412,0.391s-0.41,0.27-0.645,0.391
				c-0.235,0.119-0.479,0.22-0.729,0.3c-0.25,0.079-0.47,0.12-0.66,0.12v-0.99c0.229,0,0.482-0.064,0.758-0.194
				c0.275-0.131,0.535-0.28,0.781-0.45c0.244-0.17,0.451-0.33,0.621-0.479s0.266-0.249,0.284-0.3h1.052v7.635h1.904V51.371z"/>
			<path d="M185.029,44.502h-5.744v-0.945h7.365l-5.385,10.649h-1.17L185.029,44.502z"/>
		</g>
		<g>
			<path d="M135.715,51.371v0.93h-5.084v-0.93h2.129v-6.42c-0.08,0.119-0.217,0.25-0.412,0.391s-0.41,0.27-0.645,0.391
				c-0.235,0.119-0.479,0.22-0.729,0.3c-0.25,0.079-0.47,0.12-0.66,0.12v-0.99c0.229,0,0.482-0.064,0.758-0.194
				c0.275-0.131,0.535-0.28,0.781-0.45c0.244-0.17,0.451-0.33,0.621-0.479s0.266-0.249,0.284-0.3h1.052v7.635h1.904V51.371z"/>
			<path d="M141.385,54.206v-2.67h-4.994v-0.899l5.324-6.9h0.689v6.871h1.32v0.93h-1.32v2.67L141.385,54.206L141.385,54.206z
				 M137.471,50.605h4.021v-5.265L137.471,50.605z"/>
		</g>
		<g>
			<path d="M114.715,51.371v0.93h-5.085v-0.93h2.13v-6.42c-0.08,0.119-0.217,0.25-0.412,0.391c-0.195,0.141-0.41,0.27-0.645,0.391
				c-0.235,0.119-0.478,0.22-0.728,0.3c-0.25,0.079-0.47,0.12-0.66,0.12v-0.99c0.23,0,0.482-0.064,0.757-0.194
				c0.275-0.131,0.535-0.28,0.78-0.45s0.452-0.33,0.623-0.479c0.17-0.149,0.265-0.249,0.285-0.3h1.05v7.635h1.905V51.371z"/>
			<path d="M115.706,52.301c0-0.34,0.03-0.682,0.09-1.027c0.06-0.344,0.177-0.688,0.353-1.026c0.175-0.34,0.425-0.668,0.75-0.981
				c0.325-0.314,0.757-0.613,1.297-0.894c0.29-0.149,0.593-0.297,0.908-0.442c0.315-0.145,0.605-0.308,0.87-0.486
				c0.265-0.18,0.482-0.383,0.652-0.607s0.255-0.488,0.255-0.787c0-0.189-0.042-0.378-0.127-0.562
				c-0.085-0.186-0.21-0.351-0.375-0.495c-0.165-0.146-0.37-0.263-0.615-0.353c-0.245-0.09-0.532-0.135-0.862-0.135
				s-0.625,0.047-0.885,0.143c-0.26,0.095-0.488,0.207-0.683,0.338c-0.195,0.13-0.363,0.268-0.502,0.412
				c-0.14,0.146-0.245,0.263-0.315,0.353l-0.675-0.733c0.06-0.062,0.175-0.171,0.345-0.33c0.17-0.16,0.392-0.32,0.667-0.48
				s0.597-0.303,0.967-0.428c0.37-0.125,0.785-0.188,1.245-0.188s0.87,0.062,1.23,0.188c0.36,0.125,0.665,0.298,0.915,0.518
				c0.25,0.221,0.439,0.473,0.57,0.758c0.13,0.285,0.195,0.582,0.195,0.893c0,0.41-0.09,0.766-0.271,1.064
				c-0.181,0.301-0.403,0.561-0.667,0.78c-0.266,0.22-0.548,0.407-0.848,0.562c-0.3,0.155-0.57,0.289-0.81,0.397
				c-0.32,0.142-0.632,0.298-0.938,0.474c-0.305,0.176-0.578,0.366-0.817,0.577c-0.24,0.209-0.438,0.444-0.593,0.705
				c-0.155,0.261-0.232,0.55-0.232,0.869h5.34v0.931h-6.435V52.301z"/>
		</g>
		<g>
			<path d="M77.771,49.346c0,0.471-0.1,0.894-0.3,1.269c-0.2,0.375-0.47,0.696-0.81,0.968c-0.34,0.271-0.738,0.479-1.193,0.622
				c-0.455,0.146-0.932,0.219-1.432,0.219c-0.53,0-1.02-0.083-1.47-0.248c-0.45-0.165-0.837-0.391-1.163-0.676
				c-0.325-0.284-0.577-0.617-0.757-0.996c-0.18-0.381-0.27-0.785-0.27-1.216c0-0.34,0.062-0.655,0.188-0.944
				c0.125-0.291,0.287-0.548,0.487-0.772c0.2-0.225,0.428-0.42,0.683-0.584c0.255-0.166,0.512-0.293,0.772-0.383
				c-0.24-0.101-0.465-0.224-0.675-0.367c-0.21-0.146-0.395-0.312-0.555-0.504c-0.16-0.19-0.288-0.398-0.382-0.629
				c-0.095-0.23-0.143-0.476-0.143-0.735c0-0.44,0.1-0.827,0.3-1.163c0.2-0.334,0.458-0.617,0.772-0.848
				c0.315-0.229,0.67-0.404,1.065-0.524s0.792-0.181,1.192-0.181s0.797,0.061,1.192,0.181s0.75,0.292,1.065,0.519
				c0.315,0.226,0.572,0.508,0.772,0.848c0.2,0.34,0.3,0.726,0.3,1.154c0,0.261-0.048,0.506-0.143,0.734
				c-0.095,0.23-0.225,0.443-0.39,0.639c-0.165,0.194-0.355,0.364-0.57,0.51c-0.215,0.146-0.442,0.269-0.683,0.367
				c0.29,0.101,0.565,0.237,0.825,0.412c0.26,0.176,0.487,0.377,0.682,0.607c0.195,0.23,0.35,0.49,0.465,0.779
				C77.713,48.691,77.771,49.006,77.771,49.346z M76.735,49.271c0-0.36-0.08-0.679-0.24-0.953c-0.16-0.274-0.37-0.508-0.63-0.697
				c-0.26-0.189-0.55-0.335-0.87-0.436c-0.32-0.101-0.635-0.149-0.945-0.149c-0.33,0-0.65,0.053-0.96,0.157s-0.59,0.256-0.84,0.449
				c-0.25,0.195-0.45,0.434-0.6,0.713c-0.15,0.28-0.225,0.59-0.225,0.931c0,0.351,0.08,0.663,0.24,0.938
				c0.16,0.274,0.368,0.508,0.623,0.697s0.54,0.334,0.855,0.436c0.315,0.101,0.632,0.148,0.953,0.148
				c0.32,0,0.637-0.053,0.952-0.156c0.315-0.104,0.598-0.256,0.848-0.451c0.25-0.194,0.452-0.43,0.607-0.705
				C76.658,49.919,76.735,49.611,76.735,49.271z M71.771,44.411c0,0.29,0.07,0.548,0.21,0.772c0.14,0.224,0.32,0.414,0.54,0.569
				c0.22,0.154,0.467,0.272,0.743,0.353c0.275,0.08,0.542,0.121,0.802,0.121c0.27,0,0.54-0.041,0.81-0.121s0.518-0.199,0.743-0.359
				c0.225-0.16,0.407-0.354,0.547-0.585c0.14-0.229,0.21-0.489,0.21-0.78c0-0.279-0.065-0.531-0.195-0.758
				c-0.13-0.225-0.303-0.414-0.518-0.568c-0.215-0.156-0.463-0.272-0.743-0.354c-0.28-0.081-0.57-0.12-0.87-0.12
				c-0.29,0-0.572,0.043-0.847,0.128s-0.518,0.205-0.728,0.359c-0.21,0.156-0.38,0.348-0.51,0.578
				C71.835,43.876,71.771,44.131,71.771,44.411z"/>
		</g>
		<line fill="none" stroke="#000000" stroke-width="2" stroke-miterlimit="10" x1="85.704" y1="33.699" x2="85.704" y2="41.199"/>
		<g>
			<g>
				<line fill="none" stroke="#FBC15E" stroke-miterlimit="10" x1="17.704" y1="19.524" x2="17.704" y2="26.259"/>
				<g>
					<polygon fill="#FBC15E" points="17.704,29.789 15.671,24.814 17.704,25.995 19.736,24.814 					"/>
				</g>
			</g>
		</g>
		<g>
			<path d="M81.849,46.396c0-0.511,0.098-0.988,0.292-1.434c0.194-0.445,0.462-0.833,0.802-1.163c0.34-0.329,0.74-0.59,1.2-0.778
				c0.46-0.189,0.955-0.285,1.485-0.285c0.56,0,1.075,0.103,1.545,0.308c0.47,0.205,0.872,0.497,1.207,0.878
				c0.335,0.379,0.598,0.848,0.788,1.402s0.285,1.178,0.285,1.867c0,1.08-0.095,2.021-0.285,2.826
				c-0.19,0.807-0.458,1.477-0.802,2.012c-0.345,0.533-0.76,0.932-1.245,1.19c-0.485,0.261-1.018,0.392-1.598,0.392
				c-0.7,0-1.333-0.176-1.897-0.525s-0.993-0.835-1.282-1.455l0.66-0.6c0.21,0.51,0.542,0.918,0.998,1.223s0.962,0.457,1.522,0.457
				c0.44,0,0.84-0.104,1.2-0.314c0.36-0.211,0.67-0.513,0.93-0.907c0.26-0.396,0.459-0.88,0.6-1.455
				c0.14-0.574,0.215-1.232,0.225-1.974c-0.23,0.592-0.613,1.062-1.147,1.41c-0.535,0.352-1.143,0.525-1.822,0.525
				c-0.51,0-0.988-0.092-1.433-0.277c-0.445-0.186-0.833-0.438-1.163-0.766c-0.33-0.324-0.59-0.707-0.78-1.146
				C81.944,47.366,81.849,46.896,81.849,46.396z M85.614,43.637c-0.38,0-0.738,0.072-1.073,0.217
				c-0.335,0.146-0.63,0.344-0.885,0.594c-0.255,0.25-0.458,0.542-0.607,0.878c-0.15,0.334-0.225,0.69-0.225,1.071
				s0.075,0.737,0.225,1.072c0.15,0.336,0.352,0.627,0.607,0.877c0.255,0.25,0.55,0.448,0.885,0.594s0.692,0.218,1.073,0.218
				c0.38,0,0.74-0.072,1.08-0.218c0.34-0.146,0.635-0.344,0.885-0.594s0.447-0.541,0.592-0.877c0.145-0.335,0.218-0.691,0.218-1.072
				c0-0.369-0.073-0.723-0.218-1.058s-0.345-0.63-0.6-0.886c-0.255-0.254-0.55-0.454-0.885-0.6
				C86.352,43.709,85.994,43.637,85.614,43.637z"/>
		</g>
		<g>
			<path fill="#FBC15E" d="M24.544,15.533h-1.43v-3.809c0-0.632-0.104-1.096-0.312-1.391c-0.208-0.294-0.512-0.442-0.91-0.442
				c-0.407,0-0.778,0.149-1.111,0.449c-0.334,0.299-0.574,0.687-0.722,1.164v4.03h-1.43v-3.809c0-0.641-0.104-1.107-0.312-1.397
				S17.81,9.892,17.42,9.892c-0.407,0-0.78,0.147-1.118,0.442c-0.338,0.295-0.581,0.681-0.728,1.157v4.043h-1.43v-6.8h1.3v1.365
				c0.269-0.477,0.622-0.843,1.06-1.099c0.438-0.255,0.938-0.383,1.502-0.383c0.563,0,1.007,0.147,1.332,0.442
				c0.325,0.295,0.527,0.663,0.604,1.105c0.286-0.502,0.646-0.886,1.079-1.15c0.434-0.264,0.927-0.396,1.482-0.396
				c0.399,0,0.73,0.076,0.995,0.228c0.264,0.152,0.475,0.353,0.63,0.604c0.156,0.251,0.265,0.544,0.325,0.877
				c0.061,0.334,0.091,0.687,0.091,1.06V15.533z"/>
			<path fill="#FBC15E" d="M26.195,7.616V6.042h1.43v1.573L26.195,7.616L26.195,7.616z M26.195,15.533V8.734h1.43v6.799H26.195z"/>
			<path fill="#FBC15E" d="M35.438,15.533h-1.43v-3.809c0-0.641-0.102-1.107-0.305-1.397c-0.204-0.29-0.505-0.436-0.904-0.436
				c-0.208,0-0.416,0.039-0.624,0.117c-0.208,0.078-0.403,0.188-0.585,0.332c-0.182,0.144-0.344,0.312-0.487,0.507
				c-0.143,0.195-0.253,0.41-0.332,0.644v4.043h-1.43v-6.8h1.3v1.365c0.26-0.459,0.637-0.821,1.131-1.085
				c0.494-0.264,1.04-0.396,1.638-0.396c0.408,0,0.741,0.074,1.001,0.221c0.26,0.147,0.465,0.349,0.617,0.604
				c0.152,0.255,0.258,0.55,0.318,0.884c0.061,0.334,0.091,0.687,0.091,1.06L35.438,15.533L35.438,15.533z"/>
			<path fill="#FBC15E" d="M37.102,7.616V6.042h1.43v1.573L37.102,7.616L37.102,7.616z M37.102,15.533V8.734h1.43v6.799H37.102z"/>
			<path fill="#FBC15E" d="M50.648,15.533h-1.43v-3.809c0-0.632-0.104-1.096-0.312-1.391c-0.208-0.294-0.512-0.442-0.91-0.442
				c-0.407,0-0.778,0.149-1.111,0.449c-0.334,0.299-0.574,0.687-0.722,1.164v4.03h-1.43v-3.809c0-0.641-0.104-1.107-0.312-1.397
				s-0.507-0.436-0.897-0.436c-0.407,0-0.78,0.147-1.118,0.442c-0.338,0.295-0.581,0.681-0.728,1.157v4.043h-1.43v-6.8h1.3v1.365
				C41.817,9.622,42.17,9.256,42.607,9c0.438-0.255,0.938-0.383,1.502-0.383c0.563,0,1.007,0.147,1.332,0.442
				c0.325,0.295,0.527,0.663,0.604,1.105c0.286-0.502,0.646-0.886,1.079-1.15c0.434-0.264,0.927-0.396,1.482-0.396
				c0.399,0,0.73,0.076,0.995,0.228c0.264,0.152,0.475,0.353,0.63,0.604c0.156,0.251,0.265,0.544,0.325,0.877
				c0.061,0.334,0.091,0.687,0.091,1.06L50.648,15.533L50.648,15.533z"/>
			<path fill="#FBC15E" d="M54.392,15.663c-0.711,0-1.248-0.231-1.612-0.695c-0.364-0.463-0.546-1.155-0.546-2.074v-4.16h1.43v3.874
				c0,1.222,0.433,1.833,1.3,1.833c0.407,0,0.793-0.126,1.157-0.377c0.364-0.251,0.646-0.615,0.845-1.092V8.734h1.43v5.109
				c0,0.165,0.028,0.282,0.084,0.351c0.056,0.069,0.158,0.108,0.306,0.117v1.222c-0.147,0.026-0.269,0.043-0.364,0.052
				c-0.095,0.009-0.187,0.013-0.273,0.013c-0.26,0-0.481-0.071-0.663-0.214c-0.182-0.143-0.277-0.327-0.286-0.553l-0.026-0.676
				c-0.303,0.494-0.698,0.869-1.183,1.125C55.506,15.536,54.973,15.663,54.392,15.663z"/>
			<path fill="#FBC15E" d="M70.616,15.533h-1.43v-3.809c0-0.632-0.104-1.096-0.312-1.391c-0.208-0.294-0.512-0.442-0.91-0.442
				c-0.407,0-0.778,0.149-1.111,0.449c-0.334,0.299-0.574,0.687-0.722,1.164v4.03h-1.43v-3.809c0-0.641-0.104-1.107-0.312-1.397
				s-0.507-0.436-0.897-0.436c-0.407,0-0.78,0.147-1.118,0.442s-0.581,0.681-0.728,1.157v4.043h-1.43v-6.8h1.3v1.365
				C61.785,9.622,62.138,9.256,62.575,9c0.438-0.255,0.938-0.383,1.502-0.383c0.563,0,1.007,0.147,1.332,0.442
				c0.325,0.295,0.527,0.663,0.604,1.105c0.286-0.502,0.646-0.886,1.079-1.15c0.434-0.264,0.927-0.396,1.482-0.396
				c0.399,0,0.73,0.076,0.995,0.228c0.264,0.152,0.475,0.353,0.63,0.604c0.156,0.251,0.265,0.544,0.325,0.877
				c0.061,0.334,0.091,0.687,0.091,1.06L70.616,15.533L70.616,15.533z"/>
		</g>
		<g>
			<g>
				<line fill="none" stroke="#00BFFF" stroke-miterlimit="10" x1="220.5" y1="19.524" x2="220.5" y2="26.259"/>
				<g>
					<polygon fill="#00BFFF" points="220.5,29.789 218.467,24.814 220.5,25.995 222.532,24.814 					"/>
				</g>
			</g>
		</g>
		<g>
			<path fill="#00BFFF" d="M174.34,15.533h-1.43v-3.809c0-0.632-0.104-1.096-0.312-1.391c-0.207-0.294-0.512-0.442-0.91-0.442
				c-0.406,0-0.777,0.149-1.11,0.449c-0.334,0.299-0.574,0.687-0.722,1.164v4.03h-1.431v-3.809c0-0.641-0.104-1.107-0.312-1.397
				s-0.508-0.436-0.896-0.436c-0.408,0-0.779,0.147-1.117,0.442s-0.582,0.681-0.729,1.157v4.043h-1.432v-6.8h1.301v1.365
				c0.27-0.477,0.621-0.843,1.06-1.099c0.438-0.255,0.938-0.383,1.503-0.383c0.563,0,1.006,0.147,1.331,0.442
				s0.526,0.663,0.604,1.105c0.285-0.502,0.646-0.886,1.078-1.15c0.435-0.264,0.928-0.396,1.481-0.396
				c0.399,0,0.729,0.076,0.995,0.228c0.266,0.152,0.475,0.353,0.63,0.604c0.156,0.251,0.267,0.544,0.326,0.877
				c0.062,0.334,0.09,0.687,0.09,1.06L174.34,15.533L174.34,15.533z"/>
			<path fill="#00BFFF" d="M177.799,15.663c-0.33,0-0.635-0.054-0.917-0.163c-0.282-0.108-0.524-0.257-0.728-0.448
				c-0.204-0.19-0.364-0.416-0.481-0.676c-0.116-0.26-0.176-0.542-0.176-0.845c0-0.321,0.069-0.611,0.208-0.871
				c0.139-0.26,0.336-0.485,0.592-0.676s0.559-0.338,0.91-0.442s0.738-0.156,1.163-0.156c0.321,0,0.638,0.028,0.948,0.084
				c0.312,0.057,0.594,0.132,0.846,0.229V11.23c0-0.502-0.143-0.895-0.43-1.176c-0.285-0.281-0.697-0.422-1.234-0.422
				c-0.363,0-0.721,0.067-1.072,0.201c-0.352,0.135-0.713,0.328-1.086,0.579L175.9,9.5c0.875-0.589,1.785-0.884,2.729-0.884
				c0.937,0,1.664,0.238,2.185,0.715c0.52,0.477,0.778,1.162,0.778,2.054v2.457c0,0.303,0.126,0.459,0.378,0.468v1.222
				c-0.14,0.026-0.259,0.043-0.357,0.052c-0.1,0.009-0.197,0.013-0.293,0.013c-0.276,0-0.491-0.069-0.644-0.208
				c-0.151-0.139-0.245-0.316-0.278-0.533l-0.039-0.429c-0.305,0.399-0.678,0.704-1.125,0.917
				C178.789,15.557,178.311,15.663,177.799,15.663z M178.188,14.61c0.348,0,0.674-0.063,0.981-0.188s0.548-0.301,0.722-0.527
				c0.183-0.156,0.272-0.32,0.272-0.494v-0.897c-0.242-0.095-0.5-0.169-0.772-0.221c-0.273-0.052-0.539-0.078-0.8-0.078
				c-0.512,0-0.93,0.111-1.255,0.332c-0.324,0.221-0.486,0.514-0.486,0.877c0,0.338,0.125,0.622,0.377,0.852
				C177.479,14.495,177.799,14.61,178.188,14.61z"/>
			<path fill="#00BFFF" d="M184.077,8.734l1.664,2.327l0.116,0.221l0.117-0.221l1.651-2.327h1.494l-2.481,3.406l2.508,3.393h-1.494
				l-1.678-2.314l-0.117-0.208l-0.116,0.208l-1.677,2.314h-1.496l2.51-3.393l-2.482-3.406H184.077z"/>
			<path fill="#00BFFF" d="M190.109,7.616V6.042h1.43v1.573L190.109,7.616L190.109,7.616z M190.109,15.533V8.734h1.43v6.799H190.109
				z"/>
			<path fill="#00BFFF" d="M203.654,15.533h-1.43v-3.809c0-0.632-0.104-1.096-0.312-1.391c-0.208-0.294-0.512-0.442-0.91-0.442
				c-0.406,0-0.777,0.149-1.111,0.449c-0.334,0.299-0.574,0.687-0.722,1.164v4.03h-1.43v-3.809c0-0.641-0.104-1.107-0.312-1.397
				s-0.508-0.436-0.896-0.436c-0.408,0-0.78,0.147-1.118,0.442s-0.581,0.681-0.728,1.157v4.043h-1.432v-6.8h1.301v1.365
				c0.27-0.477,0.621-0.843,1.06-1.099c0.438-0.255,0.938-0.383,1.502-0.383s1.007,0.147,1.332,0.442s0.526,0.663,0.604,1.105
				c0.285-0.502,0.646-0.886,1.078-1.15c0.434-0.264,0.928-0.396,1.48-0.396c0.4,0,0.73,0.076,0.996,0.228
				c0.265,0.152,0.475,0.353,0.629,0.604c0.156,0.251,0.267,0.544,0.326,0.877c0.062,0.334,0.09,0.687,0.09,1.06v4.146H203.654z"/>
			<path fill="#00BFFF" d="M207.398,15.663c-0.711,0-1.248-0.231-1.611-0.695c-0.364-0.463-0.547-1.155-0.547-2.074v-4.16h1.431
				v3.874c0,1.222,0.433,1.833,1.3,1.833c0.407,0,0.793-0.126,1.157-0.377s0.646-0.615,0.845-1.092V8.734h1.43v5.109
				c0,0.165,0.029,0.282,0.086,0.351c0.056,0.069,0.158,0.108,0.306,0.117v1.222c-0.147,0.026-0.271,0.043-0.364,0.052
				c-0.095,0.009-0.187,0.013-0.271,0.013c-0.26,0-0.481-0.071-0.664-0.214c-0.182-0.143-0.277-0.327-0.285-0.553l-0.025-0.676
				c-0.305,0.494-0.699,0.869-1.184,1.125C208.512,15.535,207.979,15.663,207.398,15.663z"/>
			<path fill="#00BFFF" d="M223.623,15.533h-1.43v-3.809c0-0.632-0.104-1.096-0.312-1.391c-0.208-0.294-0.512-0.442-0.91-0.442
				c-0.406,0-0.777,0.149-1.111,0.449c-0.334,0.299-0.573,0.687-0.721,1.164v4.03h-1.432v-3.809c0-0.641-0.104-1.107-0.312-1.397
				c-0.207-0.29-0.506-0.436-0.896-0.436c-0.406,0-0.779,0.147-1.117,0.442s-0.581,0.681-0.729,1.157v4.043h-1.43v-6.8h1.301v1.365
				c0.268-0.477,0.621-0.843,1.059-1.099c0.438-0.255,0.938-0.383,1.502-0.383c0.562,0,1.008,0.147,1.332,0.442
				c0.325,0.295,0.527,0.663,0.604,1.105c0.287-0.502,0.646-0.886,1.08-1.15c0.434-0.264,0.928-0.396,1.481-0.396
				c0.397,0,0.729,0.076,0.994,0.228c0.264,0.152,0.475,0.353,0.631,0.604c0.155,0.251,0.265,0.544,0.323,0.877
				c0.062,0.334,0.093,0.687,0.093,1.06L223.623,15.533L223.623,15.533z"/>
		</g>
		<g>
			<path d="M47.181,47.621c0.49,0,0.945,0.082,1.365,0.248c0.42,0.164,0.788,0.396,1.103,0.697c0.315,0.3,0.562,0.658,0.743,1.072
				c0.18,0.414,0.27,0.872,0.27,1.372c0,0.529-0.097,1.013-0.292,1.447c-0.195,0.435-0.46,0.806-0.795,1.108
				c-0.335,0.305-0.728,0.543-1.177,0.714c-0.45,0.17-0.93,0.255-1.44,0.255c-0.38,0-0.743-0.049-1.088-0.143
				c-0.345-0.096-0.663-0.232-0.952-0.412c-0.291-0.182-0.553-0.396-0.788-0.646c-0.235-0.25-0.428-0.529-0.578-0.84l0.675-0.51
				c0.28,0.49,0.662,0.885,1.147,1.186c0.485,0.299,1.017,0.449,1.597,0.449c0.37,0,0.715-0.062,1.035-0.188
				c0.32-0.125,0.6-0.304,0.84-0.533c0.24-0.229,0.428-0.504,0.562-0.824c0.135-0.32,0.203-0.67,0.203-1.051
				c0-0.369-0.065-0.707-0.195-1.013c-0.13-0.305-0.31-0.567-0.54-0.786c-0.23-0.222-0.5-0.392-0.81-0.511
				c-0.31-0.121-0.645-0.181-1.005-0.181c-0.47,0-0.913,0.103-1.328,0.308s-0.752,0.502-1.013,0.894h-0.945
				c0.01-0.062,0.035-0.195,0.075-0.405s0.09-0.46,0.15-0.75s0.125-0.612,0.195-0.968c0.07-0.354,0.14-0.713,0.21-1.072
				c0.17-0.84,0.355-1.775,0.555-2.805h5.145v0.945h-4.38l-0.735,3.823c0.26-0.278,0.578-0.497,0.953-0.651
				C46.318,47.699,46.731,47.621,47.181,47.621z"/>
		</g>
	</g>
</g>
<g id="range">
	<g>
		<g>
			<line fill="none" stroke="#FB4C52" stroke-miterlimit="10" x1="23.273" y1="63.5" x2="214.852" y2="63.5"/>
			<g>
				<polygon fill="#FB4C52" points="17.625,63.5 25.584,66.752 23.696,63.5 25.584,60.248 				"/>
			</g>
			<g>
				<polygon fill="#FB4C52" points="220.5,63.5 212.541,66.752 214.43,63.5 212.541,60.248 				"/>
			</g>
		</g>
	</g>
	<g>
		<path fill="#FB4C52" d="M105.384,69.936c-0.555,0.019-1.047,0.146-1.476,0.385c-0.429,0.238-0.734,0.578-0.917,1.021v4.16h-1.43
			v-6.799h1.326v1.521c0.234-0.469,0.54-0.844,0.917-1.125c0.377-0.281,0.782-0.436,1.215-0.461c0.086,0,0.158,0,0.214,0
			c0.057,0,0.106,0.004,0.15,0.012L105.384,69.936L105.384,69.936z"/>
		<path fill="#FB4C52" d="M108.14,75.63c-0.33,0-0.635-0.054-0.917-0.163c-0.282-0.107-0.524-0.257-0.728-0.447
			s-0.364-0.416-0.481-0.677c-0.117-0.26-0.176-0.542-0.176-0.845c0-0.32,0.069-0.611,0.208-0.871
			c0.139-0.26,0.336-0.484,0.592-0.676c0.255-0.191,0.559-0.338,0.91-0.442s0.739-0.155,1.163-0.155
			c0.321,0,0.637,0.027,0.949,0.084c0.312,0.058,0.593,0.133,0.845,0.229v-0.468c0-0.503-0.143-0.896-0.429-1.177
			c-0.286-0.283-0.698-0.424-1.235-0.424c-0.364,0-0.722,0.067-1.073,0.201c-0.351,0.135-0.713,0.328-1.085,0.579l-0.442-0.91
			c0.875-0.589,1.785-0.884,2.73-0.884c0.936,0,1.664,0.238,2.184,0.715s0.78,1.162,0.78,2.055v2.457
			c0,0.303,0.125,0.459,0.377,0.467V75.5c-0.139,0.025-0.258,0.043-0.357,0.052s-0.197,0.013-0.292,0.013
			c-0.277,0-0.492-0.067-0.644-0.207c-0.152-0.139-0.245-0.315-0.279-0.532l-0.039-0.431c-0.304,0.399-0.678,0.705-1.125,0.918
			C109.129,75.523,108.651,75.63,108.14,75.63z M108.53,74.577c0.346,0,0.674-0.063,0.981-0.188
			c0.307-0.125,0.548-0.301,0.721-0.527c0.182-0.154,0.273-0.319,0.273-0.492v-0.896c-0.243-0.096-0.5-0.17-0.773-0.222
			s-0.54-0.078-0.799-0.078c-0.512,0-0.93,0.111-1.254,0.332c-0.325,0.222-0.488,0.515-0.488,0.877c0,0.338,0.125,0.622,0.377,0.853
			C107.819,74.463,108.14,74.577,108.53,74.577z"/>
		<path fill="#FB4C52" d="M119.762,75.5h-1.43v-3.809c0-0.643-0.102-1.107-0.305-1.398c-0.204-0.289-0.505-0.436-0.904-0.436
			c-0.208,0-0.416,0.039-0.624,0.117c-0.208,0.077-0.403,0.188-0.585,0.332c-0.182,0.143-0.344,0.312-0.487,0.506
			c-0.143,0.195-0.253,0.41-0.332,0.645V75.5h-1.43v-6.799h1.3v1.365c0.26-0.459,0.637-0.821,1.131-1.086
			c0.494-0.265,1.04-0.396,1.638-0.396c0.408,0,0.741,0.074,1.001,0.221c0.26,0.148,0.465,0.351,0.617,0.605s0.258,0.55,0.318,0.883
			c0.061,0.334,0.091,0.688,0.091,1.061L119.762,75.5L119.762,75.5z"/>
		<path fill="#FB4C52" d="M124.117,75.564c-0.459,0-0.879-0.092-1.262-0.279c-0.381-0.186-0.707-0.439-0.98-0.76
			c-0.273-0.321-0.486-0.689-0.637-1.105c-0.152-0.416-0.229-0.854-0.229-1.312c0-0.485,0.078-0.942,0.234-1.371
			c0.156-0.43,0.373-0.803,0.65-1.118c0.276-0.316,0.607-0.567,0.994-0.754c0.385-0.187,0.812-0.279,1.28-0.279
			c0.546,0,1.024,0.13,1.437,0.392c0.412,0.26,0.752,0.598,1.021,1.014v-1.287h1.262v6.604c0,0.494-0.092,0.933-0.273,1.313
			s-0.436,0.704-0.76,0.968c-0.326,0.266-0.709,0.467-1.151,0.605s-0.918,0.207-1.431,0.207c-0.754,0-1.379-0.127-1.877-0.383
			c-0.5-0.257-0.918-0.613-1.256-1.072l0.807-0.754c0.26,0.363,0.596,0.641,1.008,0.832c0.411,0.188,0.852,0.285,1.318,0.285
			c0.295,0,0.574-0.039,0.838-0.117c0.265-0.078,0.496-0.199,0.695-0.363c0.2-0.165,0.358-0.373,0.476-0.624
			c0.116-0.251,0.176-0.552,0.176-0.897v-1.039c-0.243,0.416-0.577,0.736-1.001,0.961C125.031,75.453,124.585,75.564,124.117,75.564
			z M124.585,74.408c0.216,0,0.424-0.037,0.624-0.111c0.199-0.072,0.383-0.173,0.553-0.299c0.168-0.125,0.313-0.268,0.436-0.43
			c0.121-0.159,0.207-0.33,0.26-0.512v-1.781c-0.087-0.217-0.2-0.414-0.338-0.592c-0.139-0.179-0.297-0.332-0.475-0.461
			c-0.178-0.132-0.365-0.232-0.564-0.308c-0.2-0.073-0.398-0.108-0.598-0.108c-0.312,0-0.592,0.065-0.838,0.2
			c-0.248,0.136-0.459,0.312-0.631,0.533c-0.174,0.221-0.309,0.47-0.404,0.747s-0.143,0.562-0.143,0.857
			c0,0.312,0.055,0.604,0.163,0.877c0.109,0.273,0.259,0.513,0.448,0.715c0.191,0.205,0.414,0.367,0.67,0.488
			C124.002,74.348,124.281,74.408,124.585,74.408z"/>
		<path fill="#FB4C52" d="M132.684,75.63c-0.527,0-1.01-0.093-1.441-0.278c-0.434-0.188-0.805-0.44-1.112-0.762
			c-0.307-0.32-0.545-0.693-0.714-1.117c-0.169-0.426-0.253-0.875-0.253-1.353s0.084-0.931,0.253-1.358
			c0.169-0.43,0.407-0.807,0.714-1.131c0.31-0.324,0.679-0.581,1.112-0.768c0.433-0.187,0.919-0.279,1.456-0.279
			c0.528,0,1.008,0.096,1.437,0.286c0.43,0.19,0.795,0.444,1.1,0.761c0.303,0.316,0.535,0.686,0.695,1.104
			c0.159,0.422,0.239,0.861,0.239,1.32c0,0.104-0.004,0.2-0.013,0.293c-0.01,0.09-0.018,0.166-0.026,0.228h-5.446
			c0.025,0.304,0.098,0.575,0.215,0.819c0.117,0.241,0.269,0.453,0.455,0.629c0.187,0.179,0.397,0.314,0.637,0.41
			c0.238,0.096,0.488,0.144,0.748,0.144c0.189,0,0.379-0.024,0.564-0.071c0.188-0.048,0.357-0.117,0.514-0.209
			c0.156-0.09,0.295-0.201,0.416-0.331s0.217-0.272,0.287-0.429l1.222,0.352c-0.234,0.512-0.622,0.93-1.163,1.254
			C134.033,75.467,133.402,75.63,132.684,75.63z M134.751,71.587c-0.026-0.286-0.097-0.55-0.214-0.793s-0.268-0.448-0.449-0.618
			c-0.182-0.168-0.395-0.301-0.637-0.396s-0.498-0.144-0.768-0.144c-0.269,0-0.521,0.049-0.761,0.144
			c-0.237,0.096-0.448,0.229-0.631,0.396c-0.183,0.17-0.329,0.375-0.44,0.618c-0.113,0.243-0.184,0.507-0.209,0.793H134.751z"/>
	</g>
</g>
</svg>
