<?xml version="1.0" encoding="utf-8" standalone="no"?>
<!DOCTYPE svg PUBLIC "-//W3C//DTD SVG 1.1//EN"
  "http://www.w3.org/Graphics/SVG/1.1/DTD/svg11.dtd">
<!-- Created with matplotlib (http://matplotlib.org/) -->
<svg height="288pt" version="1.1" viewBox="0 0 432 288" width="432pt" xmlns="http://www.w3.org/2000/svg" xmlns:xlink="http://www.w3.org/1999/xlink">
 <defs>
  <style type="text/css">
*{stroke-linecap:butt;stroke-linejoin:round;}
  </style>
 </defs>
 <g id="figure_1">
  <g id="patch_1">
   <path d="M 0 288 
L 432 288 
L 432 0 
L 0 0 
z
" style="fill:none;"/>
  </g>
  <g id="axes_1">
   <g id="patch_2">
    <path d="M 4.32 230.4 
L 427.68 230.4 
L 427.68 28.8 
L 4.32 28.8 
z
" style="fill:none;"/>
   </g>
   <g id="matplotlib.axis_1">
    <g id="text_1">
     <!-- Parameter of interest -->
     <defs>
      <path d="M 19.671875 64.796875 
L 19.671875 37.40625 
L 32.078125 37.40625 
Q 38.96875 37.40625 42.71875 40.96875 
Q 46.484375 44.53125 46.484375 51.125 
Q 46.484375 57.671875 42.71875 61.234375 
Q 38.96875 64.796875 32.078125 64.796875 
z
M 9.8125 72.90625 
L 32.078125 72.90625 
Q 44.34375 72.90625 50.609375 67.359375 
Q 56.890625 61.8125 56.890625 51.125 
Q 56.890625 40.328125 50.609375 34.8125 
Q 44.34375 29.296875 32.078125 29.296875 
L 19.671875 29.296875 
L 19.671875 0 
L 9.8125 0 
z
" id="DejaVuSans-50"/>
      <path d="M 34.28125 27.484375 
Q 23.390625 27.484375 19.1875 25 
Q 14.984375 22.515625 14.984375 16.5 
Q 14.984375 11.71875 18.140625 8.90625 
Q 21.296875 6.109375 26.703125 6.109375 
Q 34.1875 6.109375 38.703125 11.40625 
Q 43.21875 16.703125 43.21875 25.484375 
L 43.21875 27.484375 
z
M 52.203125 31.203125 
L 52.203125 0 
L 43.21875 0 
L 43.21875 8.296875 
Q 40.140625 3.328125 35.546875 0.953125 
Q 30.953125 -1.421875 24.3125 -1.421875 
Q 15.921875 -1.421875 10.953125 3.296875 
Q 6 8.015625 6 15.921875 
Q 6 25.140625 12.171875 29.828125 
Q 18.359375 34.515625 30.609375 34.515625 
L 43.21875 34.515625 
L 43.21875 35.40625 
Q 43.21875 41.609375 39.140625 45 
Q 35.0625 48.390625 27.6875 48.390625 
Q 23 48.390625 18.546875 47.265625 
Q 14.109375 46.140625 10.015625 43.890625 
L 10.015625 52.203125 
Q 14.9375 54.109375 19.578125 55.046875 
Q 24.21875 56 28.609375 56 
Q 40.484375 56 46.34375 49.84375 
Q 52.203125 43.703125 52.203125 31.203125 
z
" id="DejaVuSans-61"/>
      <path d="M 41.109375 46.296875 
Q 39.59375 47.171875 37.8125 47.578125 
Q 36.03125 48 33.890625 48 
Q 26.265625 48 22.1875 43.046875 
Q 18.109375 38.09375 18.109375 28.8125 
L 18.109375 0 
L 9.078125 0 
L 9.078125 54.6875 
L 18.109375 54.6875 
L 18.109375 46.1875 
Q 20.953125 51.171875 25.484375 53.578125 
Q 30.03125 56 36.53125 56 
Q 37.453125 56 38.578125 55.875 
Q 39.703125 55.765625 41.0625 55.515625 
z
" id="DejaVuSans-72"/>
      <path d="M 52 44.1875 
Q 55.375 50.25 60.0625 53.125 
Q 64.75 56 71.09375 56 
Q 79.640625 56 84.28125 50.015625 
Q 88.921875 44.046875 88.921875 33.015625 
L 88.921875 0 
L 79.890625 0 
L 79.890625 32.71875 
Q 79.890625 40.578125 77.09375 44.375 
Q 74.3125 48.1875 68.609375 48.1875 
Q 61.625 48.1875 57.5625 43.546875 
Q 53.515625 38.921875 53.515625 30.90625 
L 53.515625 0 
L 44.484375 0 
L 44.484375 32.71875 
Q 44.484375 40.625 41.703125 44.40625 
Q 38.921875 48.1875 33.109375 48.1875 
Q 26.21875 48.1875 22.15625 43.53125 
Q 18.109375 38.875 18.109375 30.90625 
L 18.109375 0 
L 9.078125 0 
L 9.078125 54.6875 
L 18.109375 54.6875 
L 18.109375 46.1875 
Q 21.1875 51.21875 25.484375 53.609375 
Q 29.78125 56 35.6875 56 
Q 41.65625 56 45.828125 52.96875 
Q 50 49.953125 52 44.1875 
z
" id="DejaVuSans-6d"/>
      <path d="M 56.203125 29.59375 
L 56.203125 25.203125 
L 14.890625 25.203125 
Q 15.484375 15.921875 20.484375 11.0625 
Q 25.484375 6.203125 34.421875 6.203125 
Q 39.59375 6.203125 44.453125 7.46875 
Q 49.3125 8.734375 54.109375 11.28125 
L 54.109375 2.78125 
Q 49.265625 0.734375 44.1875 -0.34375 
Q 39.109375 -1.421875 33.890625 -1.421875 
Q 20.796875 -1.421875 13.15625 6.1875 
Q 5.515625 13.8125 5.515625 26.8125 
Q 5.515625 40.234375 12.765625 48.109375 
Q 20.015625 56 32.328125 56 
Q 43.359375 56 49.78125 48.890625 
Q 56.203125 41.796875 56.203125 29.59375 
z
M 47.21875 32.234375 
Q 47.125 39.59375 43.09375 43.984375 
Q 39.0625 48.390625 32.421875 48.390625 
Q 24.90625 48.390625 20.390625 44.140625 
Q 15.875 39.890625 15.1875 32.171875 
z
" id="DejaVuSans-65"/>
      <path d="M 18.3125 70.21875 
L 18.3125 54.6875 
L 36.8125 54.6875 
L 36.8125 47.703125 
L 18.3125 47.703125 
L 18.3125 18.015625 
Q 18.3125 11.328125 20.140625 9.421875 
Q 21.96875 7.515625 27.59375 7.515625 
L 36.8125 7.515625 
L 36.8125 0 
L 27.59375 0 
Q 17.1875 0 13.234375 3.875 
Q 9.28125 7.765625 9.28125 18.015625 
L 9.28125 47.703125 
L 2.6875 47.703125 
L 2.6875 54.6875 
L 9.28125 54.6875 
L 9.28125 70.21875 
z
" id="DejaVuSans-74"/>
      <path id="DejaVuSans-20"/>
      <path d="M 30.609375 48.390625 
Q 23.390625 48.390625 19.1875 42.75 
Q 14.984375 37.109375 14.984375 27.296875 
Q 14.984375 17.484375 19.15625 11.84375 
Q 23.34375 6.203125 30.609375 6.203125 
Q 37.796875 6.203125 41.984375 11.859375 
Q 46.1875 17.53125 46.1875 27.296875 
Q 46.1875 37.015625 41.984375 42.703125 
Q 37.796875 48.390625 30.609375 48.390625 
z
M 30.609375 56 
Q 42.328125 56 49.015625 48.375 
Q 55.71875 40.765625 55.71875 27.296875 
Q 55.71875 13.875 49.015625 6.21875 
Q 42.328125 -1.421875 30.609375 -1.421875 
Q 18.84375 -1.421875 12.171875 6.21875 
Q 5.515625 13.875 5.515625 27.296875 
Q 5.515625 40.765625 12.171875 48.375 
Q 18.84375 56 30.609375 56 
z
" id="DejaVuSans-6f"/>
      <path d="M 37.109375 75.984375 
L 37.109375 68.5 
L 28.515625 68.5 
Q 23.6875 68.5 21.796875 66.546875 
Q 19.921875 64.59375 19.921875 59.515625 
L 19.921875 54.6875 
L 34.71875 54.6875 
L 34.71875 47.703125 
L 19.921875 47.703125 
L 19.921875 0 
L 10.890625 0 
L 10.890625 47.703125 
L 2.296875 47.703125 
L 2.296875 54.6875 
L 10.890625 54.6875 
L 10.890625 58.5 
Q 10.890625 67.625 15.140625 71.796875 
Q 19.390625 75.984375 28.609375 75.984375 
z
" id="DejaVuSans-66"/>
      <path d="M 9.421875 54.6875 
L 18.40625 54.6875 
L 18.40625 0 
L 9.421875 0 
z
M 9.421875 75.984375 
L 18.40625 75.984375 
L 18.40625 64.59375 
L 9.421875 64.59375 
z
" id="DejaVuSans-69"/>
      <path d="M 54.890625 33.015625 
L 54.890625 0 
L 45.90625 0 
L 45.90625 32.71875 
Q 45.90625 40.484375 42.875 44.328125 
Q 39.84375 48.1875 33.796875 48.1875 
Q 26.515625 48.1875 22.3125 43.546875 
Q 18.109375 38.921875 18.109375 30.90625 
L 18.109375 0 
L 9.078125 0 
L 9.078125 54.6875 
L 18.109375 54.6875 
L 18.109375 46.1875 
Q 21.34375 51.125 25.703125 53.5625 
Q 30.078125 56 35.796875 56 
Q 45.21875 56 50.046875 50.171875 
Q 54.890625 44.34375 54.890625 33.015625 
z
" id="DejaVuSans-6e"/>
      <path d="M 44.28125 53.078125 
L 44.28125 44.578125 
Q 40.484375 46.53125 36.375 47.5 
Q 32.28125 48.484375 27.875 48.484375 
Q 21.1875 48.484375 17.84375 46.4375 
Q 14.5 44.390625 14.5 40.28125 
Q 14.5 37.15625 16.890625 35.375 
Q 19.28125 33.59375 26.515625 31.984375 
L 29.59375 31.296875 
Q 39.15625 29.25 43.1875 25.515625 
Q 47.21875 21.78125 47.21875 15.09375 
Q 47.21875 7.46875 41.1875 3.015625 
Q 35.15625 -1.421875 24.609375 -1.421875 
Q 20.21875 -1.421875 15.453125 -0.5625 
Q 10.6875 0.296875 5.421875 2 
L 5.421875 11.28125 
Q 10.40625 8.6875 15.234375 7.390625 
Q 20.0625 6.109375 24.8125 6.109375 
Q 31.15625 6.109375 34.5625 8.28125 
Q 37.984375 10.453125 37.984375 14.40625 
Q 37.984375 18.0625 35.515625 20.015625 
Q 33.0625 21.96875 24.703125 23.78125 
L 21.578125 24.515625 
Q 13.234375 26.265625 9.515625 29.90625 
Q 5.8125 33.546875 5.8125 39.890625 
Q 5.8125 47.609375 11.28125 51.796875 
Q 16.75 56 26.8125 56 
Q 31.78125 56 36.171875 55.265625 
Q 40.578125 54.546875 44.28125 53.078125 
z
" id="DejaVuSans-73"/>
     </defs>
     <g style="fill:#222222;" transform="translate(141.069375 250.949375)scale(0.14 -0.14)">
      <use xlink:href="#DejaVuSans-50"/>
      <use x="60.240234" xlink:href="#DejaVuSans-61"/>
      <use x="121.519531" xlink:href="#DejaVuSans-72"/>
      <use x="162.632812" xlink:href="#DejaVuSans-61"/>
      <use x="223.912109" xlink:href="#DejaVuSans-6d"/>
      <use x="321.324219" xlink:href="#DejaVuSans-65"/>
      <use x="382.847656" xlink:href="#DejaVuSans-74"/>
      <use x="422.056641" xlink:href="#DejaVuSans-65"/>
      <use x="483.580078" xlink:href="#DejaVuSans-72"/>
      <use x="524.693359" xlink:href="#DejaVuSans-20"/>
      <use x="556.480469" xlink:href="#DejaVuSans-6f"/>
      <use x="617.662109" xlink:href="#DejaVuSans-66"/>
      <use x="652.867188" xlink:href="#DejaVuSans-20"/>
      <use x="684.654297" xlink:href="#DejaVuSans-69"/>
      <use x="712.4375" xlink:href="#DejaVuSans-6e"/>
      <use x="775.816406" xlink:href="#DejaVuSans-74"/>
      <use x="815.025391" xlink:href="#DejaVuSans-65"/>
      <use x="876.548828" xlink:href="#DejaVuSans-72"/>
      <use x="917.630859" xlink:href="#DejaVuSans-65"/>
      <use x="979.154297" xlink:href="#DejaVuSans-73"/>
      <use x="1031.253906" xlink:href="#DejaVuSans-74"/>
     </g>
     <!-- $\pi$, ($\mu_1-\mu_2$), $\frac{M_1}{M_2}$, ... -->
     <defs>
      <path d="M 9.125 54.6875 
L 61.53125 54.6875 
L 59.765625 45.703125 
L 52.875 45.703125 
L 46.34375 12.109375 
Q 45.65625 8.59375 46.578125 7.03125 
Q 47.46875 5.515625 50.140625 5.515625 
Q 50.875 5.515625 51.953125 5.671875 
Q 53.078125 5.765625 53.421875 5.8125 
L 52.15625 -0.6875 
Q 50.34375 -1.3125 48.484375 -1.609375 
Q 46.578125 -1.90625 44.78125 -1.90625 
Q 38.921875 -1.90625 37.3125 1.265625 
Q 35.6875 4.5 37.359375 13.09375 
L 43.703125 45.703125 
L 23.53125 45.703125 
L 14.65625 0 
L 5.46875 0 
L 14.359375 45.703125 
L 7.375 45.703125 
z
" id="DejaVuSans-Oblique-3c0"/>
      <path d="M 11.71875 12.40625 
L 22.015625 12.40625 
L 22.015625 4 
L 14.015625 -11.625 
L 7.71875 -11.625 
L 11.71875 4 
z
" id="DejaVuSans-2c"/>
      <path d="M 31 75.875 
Q 24.46875 64.65625 21.28125 53.65625 
Q 18.109375 42.671875 18.109375 31.390625 
Q 18.109375 20.125 21.3125 9.0625 
Q 24.515625 -2 31 -13.1875 
L 23.1875 -13.1875 
Q 15.875 -1.703125 12.234375 9.375 
Q 8.59375 20.453125 8.59375 31.390625 
Q 8.59375 42.28125 12.203125 53.3125 
Q 15.828125 64.359375 23.1875 75.875 
z
" id="DejaVuSans-28"/>
      <path d="M -1.3125 -20.796875 
L 13.375 54.6875 
L 22.40625 54.6875 
L 15.765625 20.65625 
Q 15.578125 19.625 15.421875 18.359375 
Q 15.28125 17.09375 15.28125 15.828125 
Q 15.28125 11.28125 18.140625 8.828125 
Q 21 6.390625 26.3125 6.390625 
Q 33.546875 6.390625 37.984375 10.484375 
Q 42.4375 14.59375 44 22.796875 
L 50.203125 54.6875 
L 59.1875 54.6875 
L 51.03125 12.640625 
Q 50.828125 11.71875 50.75 11.03125 
Q 50.6875 10.359375 50.6875 9.8125 
Q 50.6875 8.296875 51.296875 7.59375 
Q 51.90625 6.890625 53.21875 6.890625 
Q 53.71875 6.890625 54.5625 7.125 
Q 55.421875 7.375 56.984375 8.015625 
L 55.609375 0.78125 
Q 53.46875 -0.296875 51.515625 -0.859375 
Q 49.5625 -1.421875 47.703125 -1.421875 
Q 44.484375 -1.421875 42.65625 0.625 
Q 40.828125 2.6875 40.828125 6.296875 
Q 38.09375 2.390625 34.296875 0.484375 
Q 30.515625 -1.421875 25.390625 -1.421875 
Q 20.84375 -1.421875 17.453125 0.671875 
Q 14.0625 2.78125 12.984375 6.203125 
L 7.71875 -20.796875 
z
" id="DejaVuSans-Oblique-3bc"/>
      <path d="M 12.40625 8.296875 
L 28.515625 8.296875 
L 28.515625 63.921875 
L 10.984375 60.40625 
L 10.984375 69.390625 
L 28.421875 72.90625 
L 38.28125 72.90625 
L 38.28125 8.296875 
L 54.390625 8.296875 
L 54.390625 0 
L 12.40625 0 
z
" id="DejaVuSans-31"/>
      <path d="M 10.59375 35.5 
L 73.1875 35.5 
L 73.1875 27.203125 
L 10.59375 27.203125 
z
" id="DejaVuSans-2212"/>
      <path d="M 19.1875 8.296875 
L 53.609375 8.296875 
L 53.609375 0 
L 7.328125 0 
L 7.328125 8.296875 
Q 12.9375 14.109375 22.625 23.890625 
Q 32.328125 33.6875 34.8125 36.53125 
Q 39.546875 41.84375 41.421875 45.53125 
Q 43.3125 49.21875 43.3125 52.78125 
Q 43.3125 58.59375 39.234375 62.25 
Q 35.15625 65.921875 28.609375 65.921875 
Q 23.96875 65.921875 18.8125 64.3125 
Q 13.671875 62.703125 7.8125 59.421875 
L 7.8125 69.390625 
Q 13.765625 71.78125 18.9375 73 
Q 24.125 74.21875 28.421875 74.21875 
Q 39.75 74.21875 46.484375 68.546875 
Q 53.21875 62.890625 53.21875 53.421875 
Q 53.21875 48.921875 51.53125 44.890625 
Q 49.859375 40.875 45.40625 35.40625 
Q 44.1875 33.984375 37.640625 27.21875 
Q 31.109375 20.453125 19.1875 8.296875 
z
" id="DejaVuSans-32"/>
      <path d="M 8.015625 75.875 
L 15.828125 75.875 
Q 23.140625 64.359375 26.78125 53.3125 
Q 30.421875 42.28125 30.421875 31.390625 
Q 30.421875 20.453125 26.78125 9.375 
Q 23.140625 -1.703125 15.828125 -13.1875 
L 8.015625 -13.1875 
Q 14.5 -2 17.703125 9.0625 
Q 20.90625 20.125 20.90625 31.390625 
Q 20.90625 42.671875 17.703125 53.65625 
Q 14.5 64.65625 8.015625 75.875 
z
" id="DejaVuSans-29"/>
      <path d="M 16.890625 72.90625 
L 31.6875 72.90625 
L 40.1875 23.78125 
L 68.40625 72.90625 
L 83.59375 72.90625 
L 69.390625 0 
L 59.8125 0 
L 72.21875 63.921875 
L 43.609375 14.015625 
L 33.984375 14.015625 
L 24.703125 64.109375 
L 12.3125 0 
L 2.6875 0 
z
" id="DejaVuSans-Oblique-4d"/>
      <path d="M 10.6875 12.40625 
L 21 12.40625 
L 21 0 
L 10.6875 0 
z
" id="DejaVuSans-2e"/>
     </defs>
     <g style="fill:#222222;" transform="translate(154.75 271.836937)scale(0.14 -0.14)">
      <use transform="translate(0 0.684375)" xlink:href="#DejaVuSans-Oblique-3c0"/>
      <use transform="translate(60.205078 0.684375)" xlink:href="#DejaVuSans-2c"/>
      <use transform="translate(91.992188 0.684375)" xlink:href="#DejaVuSans-20"/>
      <use transform="translate(123.779297 0.684375)" xlink:href="#DejaVuSans-28"/>
      <use transform="translate(162.792969 0.684375)" xlink:href="#DejaVuSans-Oblique-3bc"/>
      <use transform="translate(226.416016 -15.721875)scale(0.7)" xlink:href="#DejaVuSans-31"/>
      <use transform="translate(293.168945 0.684375)" xlink:href="#DejaVuSans-2212"/>
      <use transform="translate(396.44043 0.684375)" xlink:href="#DejaVuSans-Oblique-3bc"/>
      <use transform="translate(460.063477 -15.721875)scale(0.7)" xlink:href="#DejaVuSans-32"/>
      <use transform="translate(507.333984 0.684375)" xlink:href="#DejaVuSans-29"/>
      <use transform="translate(546.347656 0.684375)" xlink:href="#DejaVuSans-2c"/>
      <use transform="translate(578.134766 0.684375)" xlink:href="#DejaVuSans-20"/>
      <use transform="translate(609.921875 55.965625)scale(0.7)" xlink:href="#DejaVuSans-Oblique-4d"/>
      <use transform="translate(670.317383 44.48125)scale(0.49)" xlink:href="#DejaVuSans-31"/>
      <use transform="translate(609.921875 -37.803125)scale(0.7)" xlink:href="#DejaVuSans-Oblique-4d"/>
      <use transform="translate(670.317383 -49.2875)scale(0.49)" xlink:href="#DejaVuSans-32"/>
      <use transform="translate(715.906738 0.684375)" xlink:href="#DejaVuSans-2c"/>
      <use transform="translate(747.693848 0.684375)" xlink:href="#DejaVuSans-20"/>
      <use transform="translate(779.480957 0.684375)" xlink:href="#DejaVuSans-2e"/>
      <use transform="translate(811.268066 0.684375)" xlink:href="#DejaVuSans-2e"/>
      <use transform="translate(843.055176 0.684375)" xlink:href="#DejaVuSans-2e"/>
      <path d="M 609.921875 19.48125 
L 609.921875 25.73125 
L 703.406738 25.73125 
L 703.406738 19.48125 
L 609.921875 19.48125 
z
"/>
     </g>
    </g>
   </g>
   <g id="matplotlib.axis_2"/>
   <g id="line2d_1">
    <path clip-path="url(#pd49d0442ba)" d="M 198.765944 230.4 
L 198.765944 28.8 
" style="fill:none;stroke:#222222;stroke-dasharray:7.4,3.2;stroke-dashoffset:0;stroke-width:2;"/>
   </g>
   <g id="patch_3">
    <path d="M 4.32 230.4 
L 427.68 230.4 
" style="fill:none;stroke:#222222;stroke-linecap:square;stroke-linejoin:miter;"/>
   </g>
   <g id="text_2">
    <!-- Observed sample statistic -->
    <defs>
     <path d="M 39.40625 66.21875 
Q 28.65625 66.21875 22.328125 58.203125 
Q 16.015625 50.203125 16.015625 36.375 
Q 16.015625 22.609375 22.328125 14.59375 
Q 28.65625 6.59375 39.40625 6.59375 
Q 50.140625 6.59375 56.421875 14.59375 
Q 62.703125 22.609375 62.703125 36.375 
Q 62.703125 50.203125 56.421875 58.203125 
Q 50.140625 66.21875 39.40625 66.21875 
z
M 39.40625 74.21875 
Q 54.734375 74.21875 63.90625 63.9375 
Q 73.09375 53.65625 73.09375 36.375 
Q 73.09375 19.140625 63.90625 8.859375 
Q 54.734375 -1.421875 39.40625 -1.421875 
Q 24.03125 -1.421875 14.8125 8.828125 
Q 5.609375 19.09375 5.609375 36.375 
Q 5.609375 53.65625 14.8125 63.9375 
Q 24.03125 74.21875 39.40625 74.21875 
z
" id="DejaVuSans-4f"/>
     <path d="M 48.6875 27.296875 
Q 48.6875 37.203125 44.609375 42.84375 
Q 40.53125 48.484375 33.40625 48.484375 
Q 26.265625 48.484375 22.1875 42.84375 
Q 18.109375 37.203125 18.109375 27.296875 
Q 18.109375 17.390625 22.1875 11.75 
Q 26.265625 6.109375 33.40625 6.109375 
Q 40.53125 6.109375 44.609375 11.75 
Q 48.6875 17.390625 48.6875 27.296875 
z
M 18.109375 46.390625 
Q 20.953125 51.265625 25.265625 53.625 
Q 29.59375 56 35.59375 56 
Q 45.5625 56 51.78125 48.09375 
Q 58.015625 40.1875 58.015625 27.296875 
Q 58.015625 14.40625 51.78125 6.484375 
Q 45.5625 -1.421875 35.59375 -1.421875 
Q 29.59375 -1.421875 25.265625 0.953125 
Q 20.953125 3.328125 18.109375 8.203125 
L 18.109375 0 
L 9.078125 0 
L 9.078125 75.984375 
L 18.109375 75.984375 
z
" id="DejaVuSans-62"/>
     <path d="M 2.984375 54.6875 
L 12.5 54.6875 
L 29.59375 8.796875 
L 46.6875 54.6875 
L 56.203125 54.6875 
L 35.6875 0 
L 23.484375 0 
z
" id="DejaVuSans-76"/>
     <path d="M 45.40625 46.390625 
L 45.40625 75.984375 
L 54.390625 75.984375 
L 54.390625 0 
L 45.40625 0 
L 45.40625 8.203125 
Q 42.578125 3.328125 38.25 0.953125 
Q 33.9375 -1.421875 27.875 -1.421875 
Q 17.96875 -1.421875 11.734375 6.484375 
Q 5.515625 14.40625 5.515625 27.296875 
Q 5.515625 40.1875 11.734375 48.09375 
Q 17.96875 56 27.875 56 
Q 33.9375 56 38.25 53.625 
Q 42.578125 51.265625 45.40625 46.390625 
z
M 14.796875 27.296875 
Q 14.796875 17.390625 18.875 11.75 
Q 22.953125 6.109375 30.078125 6.109375 
Q 37.203125 6.109375 41.296875 11.75 
Q 45.40625 17.390625 45.40625 27.296875 
Q 45.40625 37.203125 41.296875 42.84375 
Q 37.203125 48.484375 30.078125 48.484375 
Q 22.953125 48.484375 18.875 42.84375 
Q 14.796875 37.203125 14.796875 27.296875 
z
" id="DejaVuSans-64"/>
     <path d="M 18.109375 8.203125 
L 18.109375 -20.796875 
L 9.078125 -20.796875 
L 9.078125 54.6875 
L 18.109375 54.6875 
L 18.109375 46.390625 
Q 20.953125 51.265625 25.265625 53.625 
Q 29.59375 56 35.59375 56 
Q 45.5625 56 51.78125 48.09375 
Q 58.015625 40.1875 58.015625 27.296875 
Q 58.015625 14.40625 51.78125 6.484375 
Q 45.5625 -1.421875 35.59375 -1.421875 
Q 29.59375 -1.421875 25.265625 0.953125 
Q 20.953125 3.328125 18.109375 8.203125 
z
M 48.6875 27.296875 
Q 48.6875 37.203125 44.609375 42.84375 
Q 40.53125 48.484375 33.40625 48.484375 
Q 26.265625 48.484375 22.1875 42.84375 
Q 18.109375 37.203125 18.109375 27.296875 
Q 18.109375 17.390625 22.1875 11.75 
Q 26.265625 6.109375 33.40625 6.109375 
Q 40.53125 6.109375 44.609375 11.75 
Q 48.6875 17.390625 48.6875 27.296875 
z
" id="DejaVuSans-70"/>
     <path d="M 9.421875 75.984375 
L 18.40625 75.984375 
L 18.40625 0 
L 9.421875 0 
z
" id="DejaVuSans-6c"/>
     <path d="M 48.78125 52.59375 
L 48.78125 44.1875 
Q 44.96875 46.296875 41.140625 47.34375 
Q 37.3125 48.390625 33.40625 48.390625 
Q 24.65625 48.390625 19.8125 42.84375 
Q 14.984375 37.3125 14.984375 27.296875 
Q 14.984375 17.28125 19.8125 11.734375 
Q 24.65625 6.203125 33.40625 6.203125 
Q 37.3125 6.203125 41.140625 7.25 
Q 44.96875 8.296875 48.78125 10.40625 
L 48.78125 2.09375 
Q 45.015625 0.34375 40.984375 -0.53125 
Q 36.96875 -1.421875 32.421875 -1.421875 
Q 20.0625 -1.421875 12.78125 6.34375 
Q 5.515625 14.109375 5.515625 27.296875 
Q 5.515625 40.671875 12.859375 48.328125 
Q 20.21875 56 33.015625 56 
Q 37.15625 56 41.109375 55.140625 
Q 45.0625 54.296875 48.78125 52.59375 
z
" id="DejaVuSans-63"/>
    </defs>
    <g transform="translate(94.613444 18.72)scale(0.16 -0.16)">
     <use xlink:href="#DejaVuSans-4f"/>
     <use x="78.710938" xlink:href="#DejaVuSans-62"/>
     <use x="142.1875" xlink:href="#DejaVuSans-73"/>
     <use x="194.287109" xlink:href="#DejaVuSans-65"/>
     <use x="255.810547" xlink:href="#DejaVuSans-72"/>
     <use x="296.923828" xlink:href="#DejaVuSans-76"/>
     <use x="356.103516" xlink:href="#DejaVuSans-65"/>
     <use x="417.626953" xlink:href="#DejaVuSans-64"/>
     <use x="481.103516" xlink:href="#DejaVuSans-20"/>
     <use x="512.890625" xlink:href="#DejaVuSans-73"/>
     <use x="564.990234" xlink:href="#DejaVuSans-61"/>
     <use x="626.269531" xlink:href="#DejaVuSans-6d"/>
     <use x="723.681641" xlink:href="#DejaVuSans-70"/>
     <use x="787.158203" xlink:href="#DejaVuSans-6c"/>
     <use x="814.941406" xlink:href="#DejaVuSans-65"/>
     <use x="876.464844" xlink:href="#DejaVuSans-20"/>
     <use x="908.251953" xlink:href="#DejaVuSans-73"/>
     <use x="960.351562" xlink:href="#DejaVuSans-74"/>
     <use x="999.560547" xlink:href="#DejaVuSans-61"/>
     <use x="1060.839844" xlink:href="#DejaVuSans-74"/>
     <use x="1100.048828" xlink:href="#DejaVuSans-69"/>
     <use x="1127.832031" xlink:href="#DejaVuSans-73"/>
     <use x="1179.931641" xlink:href="#DejaVuSans-74"/>
     <use x="1219.140625" xlink:href="#DejaVuSans-69"/>
     <use x="1246.923828" xlink:href="#DejaVuSans-63"/>
    </g>
   </g>
  </g>
  <g id="axes_2">
   <g id="patch_4">
    <path clip-path="url(#pd49d0442ba)" d="M 64.409691 230.4 
L 68.463001 230.4 
L 68.463001 229.647059 
L 64.409691 229.647059 
z
" style="fill:#b4b4b4;"/>
   </g>
   <g id="patch_5">
    <path clip-path="url(#pd49d0442ba)" d="M 68.463001 230.4 
L 72.516311 230.4 
L 72.516311 230.023529 
L 68.463001 230.023529 
z
" style="fill:#b4b4b4;"/>
   </g>
   <g id="patch_6">
    <path clip-path="url(#pd49d0442ba)" d="M 72.516311 230.4 
L 76.569621 230.4 
L 76.569621 230.023529 
L 72.516311 230.023529 
z
" style="fill:#b4b4b4;"/>
   </g>
   <g id="patch_7">
    <path clip-path="url(#pd49d0442ba)" d="M 76.569621 230.4 
L 80.622931 230.4 
L 80.622931 229.270588 
L 76.569621 229.270588 
z
" style="fill:#b4b4b4;"/>
   </g>
   <g id="patch_8">
    <path clip-path="url(#pd49d0442ba)" d="M 80.622931 230.4 
L 84.676241 230.4 
L 84.676241 230.023529 
L 80.622931 230.023529 
z
" style="fill:#b4b4b4;"/>
   </g>
   <g id="patch_9">
    <path clip-path="url(#pd49d0442ba)" d="M 84.676241 230.4 
L 88.729551 230.4 
L 88.729551 229.270588 
L 84.676241 229.270588 
z
" style="fill:#b4b4b4;"/>
   </g>
   <g id="patch_10">
    <path clip-path="url(#pd49d0442ba)" d="M 88.729551 230.4 
L 92.782861 230.4 
L 92.782861 230.023529 
L 88.729551 230.023529 
z
" style="fill:#b4b4b4;"/>
   </g>
   <g id="patch_11">
    <path clip-path="url(#pd49d0442ba)" d="M 92.782861 230.4 
L 96.836171 230.4 
L 96.836171 228.141176 
L 92.782861 228.141176 
z
" style="fill:#b4b4b4;"/>
   </g>
   <g id="patch_12">
    <path clip-path="url(#pd49d0442ba)" d="M 96.836171 230.4 
L 100.889481 230.4 
L 100.889481 227.388235 
L 96.836171 227.388235 
z
" style="fill:#b4b4b4;"/>
   </g>
   <g id="patch_13">
    <path clip-path="url(#pd49d0442ba)" d="M 100.889481 230.4 
L 104.942791 230.4 
L 104.942791 225.505882 
L 100.889481 225.505882 
z
" style="fill:#b4b4b4;"/>
   </g>
   <g id="patch_14">
    <path clip-path="url(#pd49d0442ba)" d="M 104.942791 230.4 
L 108.996101 230.4 
L 108.996101 227.764706 
L 104.942791 227.764706 
z
" style="fill:#b4b4b4;"/>
   </g>
   <g id="patch_15">
    <path clip-path="url(#pd49d0442ba)" d="M 108.996101 230.4 
L 113.049411 230.4 
L 113.049411 225.882353 
L 108.996101 225.882353 
z
" style="fill:#b4b4b4;"/>
   </g>
   <g id="patch_16">
    <path clip-path="url(#pd49d0442ba)" d="M 113.049411 230.4 
L 117.102721 230.4 
L 117.102721 220.235294 
L 113.049411 220.235294 
z
" style="fill:#b4b4b4;"/>
   </g>
   <g id="patch_17">
    <path clip-path="url(#pd49d0442ba)" d="M 117.102721 230.4 
L 121.156031 230.4 
L 121.156031 223.247059 
L 117.102721 223.247059 
z
" style="fill:#b4b4b4;"/>
   </g>
   <g id="patch_18">
    <path clip-path="url(#pd49d0442ba)" d="M 121.156031 230.4 
L 125.209341 230.4 
L 125.209341 217.223529 
L 121.156031 217.223529 
z
" style="fill:#b4b4b4;"/>
   </g>
   <g id="patch_19">
    <path clip-path="url(#pd49d0442ba)" d="M 125.209341 230.4 
L 129.262651 230.4 
L 129.262651 215.717647 
L 125.209341 215.717647 
z
" style="fill:#b4b4b4;"/>
   </g>
   <g id="patch_20">
    <path clip-path="url(#pd49d0442ba)" d="M 129.262651 230.4 
L 133.315961 230.4 
L 133.315961 204.047059 
L 129.262651 204.047059 
z
" style="fill:#b4b4b4;"/>
   </g>
   <g id="patch_21">
    <path clip-path="url(#pd49d0442ba)" d="M 133.315961 230.4 
L 137.369271 230.4 
L 137.369271 200.282353 
L 133.315961 200.282353 
z
" style="fill:#b4b4b4;"/>
   </g>
   <g id="patch_22">
    <path clip-path="url(#pd49d0442ba)" d="M 137.369271 230.4 
L 141.422581 230.4 
L 141.422581 186.352941 
L 137.369271 186.352941 
z
" style="fill:#b4b4b4;"/>
   </g>
   <g id="patch_23">
    <path clip-path="url(#pd49d0442ba)" d="M 141.422581 230.4 
L 145.475891 230.4 
L 145.475891 189.364706 
L 141.422581 189.364706 
z
" style="fill:#b4b4b4;"/>
   </g>
   <g id="patch_24">
    <path clip-path="url(#pd49d0442ba)" d="M 145.475891 230.4 
L 149.529201 230.4 
L 149.529201 176.941176 
L 145.475891 176.941176 
z
" style="fill:#b4b4b4;"/>
   </g>
   <g id="patch_25">
    <path clip-path="url(#pd49d0442ba)" d="M 149.529201 230.4 
L 153.582512 230.4 
L 153.582512 176.188235 
L 149.529201 176.188235 
z
" style="fill:#b4b4b4;"/>
   </g>
   <g id="patch_26">
    <path clip-path="url(#pd49d0442ba)" d="M 153.582512 230.4 
L 157.635822 230.4 
L 157.635822 152.094118 
L 153.582512 152.094118 
z
" style="fill:#b4b4b4;"/>
   </g>
   <g id="patch_27">
    <path clip-path="url(#pd49d0442ba)" d="M 157.635822 230.4 
L 161.689132 230.4 
L 161.689132 155.105882 
L 157.635822 155.105882 
z
" style="fill:#b4b4b4;"/>
   </g>
   <g id="patch_28">
    <path clip-path="url(#pd49d0442ba)" d="M 161.689132 230.4 
L 165.742442 230.4 
L 165.742442 122.729412 
L 161.689132 122.729412 
z
" style="fill:#b4b4b4;"/>
   </g>
   <g id="patch_29">
    <path clip-path="url(#pd49d0442ba)" d="M 165.742442 230.4 
L 169.795752 230.4 
L 169.795752 122.729412 
L 165.742442 122.729412 
z
" style="fill:#b4b4b4;"/>
   </g>
   <g id="patch_30">
    <path clip-path="url(#pd49d0442ba)" d="M 169.795752 230.4 
L 173.849062 230.4 
L 173.849062 107.670588 
L 169.795752 107.670588 
z
" style="fill:#b4b4b4;"/>
   </g>
   <g id="patch_31">
    <path clip-path="url(#pd49d0442ba)" d="M 173.849062 230.4 
L 177.902372 230.4 
L 177.902372 94.494118 
L 173.849062 94.494118 
z
" style="fill:#b4b4b4;"/>
   </g>
   <g id="patch_32">
    <path clip-path="url(#pd49d0442ba)" d="M 177.902372 230.4 
L 181.955682 230.4 
L 181.955682 74.917647 
L 177.902372 74.917647 
z
" style="fill:#b4b4b4;"/>
   </g>
   <g id="patch_33">
    <path clip-path="url(#pd49d0442ba)" d="M 181.955682 230.4 
L 186.008992 230.4 
L 186.008992 76.8 
L 181.955682 76.8 
z
" style="fill:#b4b4b4;"/>
   </g>
   <g id="patch_34">
    <path clip-path="url(#pd49d0442ba)" d="M 186.008992 230.4 
L 190.062302 230.4 
L 190.062302 60.611765 
L 186.008992 60.611765 
z
" style="fill:#b4b4b4;"/>
   </g>
   <g id="patch_35">
    <path clip-path="url(#pd49d0442ba)" d="M 190.062302 230.4 
L 194.115612 230.4 
L 194.115612 51.576471 
L 190.062302 51.576471 
z
" style="fill:#b4b4b4;"/>
   </g>
   <g id="patch_36">
    <path clip-path="url(#pd49d0442ba)" d="M 194.115612 230.4 
L 198.168922 230.4 
L 198.168922 39.905882 
L 194.115612 39.905882 
z
" style="fill:#b4b4b4;"/>
   </g>
   <g id="patch_37">
    <path clip-path="url(#pd49d0442ba)" d="M 198.168922 230.4 
L 202.222232 230.4 
L 202.222232 59.858824 
L 198.168922 59.858824 
z
" style="fill:#b4b4b4;"/>
   </g>
   <g id="patch_38">
    <path clip-path="url(#pd49d0442ba)" d="M 202.222232 230.4 
L 206.275542 230.4 
L 206.275542 46.682353 
L 202.222232 46.682353 
z
" style="fill:#b4b4b4;"/>
   </g>
   <g id="patch_39">
    <path clip-path="url(#pd49d0442ba)" d="M 206.275542 230.4 
L 210.328852 230.4 
L 210.328852 38.4 
L 206.275542 38.4 
z
" style="fill:#b4b4b4;"/>
   </g>
   <g id="patch_40">
    <path clip-path="url(#pd49d0442ba)" d="M 210.328852 230.4 
L 214.382162 230.4 
L 214.382162 55.717647 
L 210.328852 55.717647 
z
" style="fill:#b4b4b4;"/>
   </g>
   <g id="patch_41">
    <path clip-path="url(#pd49d0442ba)" d="M 214.382162 230.4 
L 218.435472 230.4 
L 218.435472 51.576471 
L 214.382162 51.576471 
z
" style="fill:#b4b4b4;"/>
   </g>
   <g id="patch_42">
    <path clip-path="url(#pd49d0442ba)" d="M 218.435472 230.4 
L 222.488782 230.4 
L 222.488782 68.141176 
L 218.435472 68.141176 
z
" style="fill:#b4b4b4;"/>
   </g>
   <g id="patch_43">
    <path clip-path="url(#pd49d0442ba)" d="M 222.488782 230.4 
L 226.542092 230.4 
L 226.542092 71.152941 
L 222.488782 71.152941 
z
" style="fill:#b4b4b4;"/>
   </g>
   <g id="patch_44">
    <path clip-path="url(#pd49d0442ba)" d="M 226.542092 230.4 
L 230.595402 230.4 
L 230.595402 92.235294 
L 226.542092 92.235294 
z
" style="fill:#b4b4b4;"/>
   </g>
   <g id="patch_45">
    <path clip-path="url(#pd49d0442ba)" d="M 230.595402 230.4 
L 234.648712 230.4 
L 234.648712 107.670588 
L 230.595402 107.670588 
z
" style="fill:#b4b4b4;"/>
   </g>
   <g id="patch_46">
    <path clip-path="url(#pd49d0442ba)" d="M 234.648712 230.4 
L 238.702022 230.4 
L 238.702022 121.976471 
L 234.648712 121.976471 
z
" style="fill:#b4b4b4;"/>
   </g>
   <g id="patch_47">
    <path clip-path="url(#pd49d0442ba)" d="M 238.702022 230.4 
L 242.755332 230.4 
L 242.755332 141.552941 
L 238.702022 141.552941 
z
" style="fill:#b4b4b4;"/>
   </g>
   <g id="patch_48">
    <path clip-path="url(#pd49d0442ba)" d="M 242.755332 230.4 
L 246.808642 230.4 
L 246.808642 156.235294 
L 242.755332 156.235294 
z
" style="fill:#b4b4b4;"/>
   </g>
   <g id="patch_49">
    <path clip-path="url(#pd49d0442ba)" d="M 246.808642 230.4 
L 250.861952 230.4 
L 250.861952 177.317647 
L 246.808642 177.317647 
z
" style="fill:#b4b4b4;"/>
   </g>
   <g id="patch_50">
    <path clip-path="url(#pd49d0442ba)" d="M 250.861952 230.4 
L 254.915262 230.4 
L 254.915262 185.6 
L 250.861952 185.6 
z
" style="fill:#b4b4b4;"/>
   </g>
   <g id="patch_51">
    <path clip-path="url(#pd49d0442ba)" d="M 254.915262 230.4 
L 258.968572 230.4 
L 258.968572 193.129412 
L 254.915262 193.129412 
z
" style="fill:#b4b4b4;"/>
   </g>
   <g id="patch_52">
    <path clip-path="url(#pd49d0442ba)" d="M 258.968572 230.4 
L 263.021882 230.4 
L 263.021882 205.176471 
L 258.968572 205.176471 
z
" style="fill:#b4b4b4;"/>
   </g>
   <g id="patch_53">
    <path clip-path="url(#pd49d0442ba)" d="M 263.021882 230.4 
L 267.075192 230.4 
L 267.075192 210.447059 
L 263.021882 210.447059 
z
" style="fill:#b4b4b4;"/>
   </g>
   <g id="patch_54">
    <path clip-path="url(#pd49d0442ba)" d="M 267.075192 230.4 
L 271.128502 230.4 
L 271.128502 214.964706 
L 267.075192 214.964706 
z
" style="fill:#b4b4b4;"/>
   </g>
   <g id="patch_55">
    <path clip-path="url(#pd49d0442ba)" d="M 271.128502 230.4 
L 275.181812 230.4 
L 275.181812 222.870588 
L 271.128502 222.870588 
z
" style="fill:#b4b4b4;"/>
   </g>
   <g id="patch_56">
    <path clip-path="url(#pd49d0442ba)" d="M 275.181812 230.4 
L 279.235122 230.4 
L 279.235122 226.258824 
L 275.181812 226.258824 
z
" style="fill:#b4b4b4;"/>
   </g>
   <g id="patch_57">
    <path clip-path="url(#pd49d0442ba)" d="M 279.235122 230.4 
L 283.288432 230.4 
L 283.288432 227.388235 
L 279.235122 227.388235 
z
" style="fill:#b4b4b4;"/>
   </g>
   <g id="patch_58">
    <path clip-path="url(#pd49d0442ba)" d="M 283.288432 230.4 
L 287.341742 230.4 
L 287.341742 225.882353 
L 283.288432 225.882353 
z
" style="fill:#b4b4b4;"/>
   </g>
   <g id="patch_59">
    <path clip-path="url(#pd49d0442ba)" d="M 287.341742 230.4 
L 291.395052 230.4 
L 291.395052 228.517647 
L 287.341742 228.517647 
z
" style="fill:#b4b4b4;"/>
   </g>
   <g id="patch_60">
    <path clip-path="url(#pd49d0442ba)" d="M 291.395052 230.4 
L 295.448362 230.4 
L 295.448362 230.023529 
L 291.395052 230.023529 
z
" style="fill:#b4b4b4;"/>
   </g>
   <g id="patch_61">
    <path clip-path="url(#pd49d0442ba)" d="M 295.448362 230.4 
L 299.501673 230.4 
L 299.501673 229.647059 
L 295.448362 229.647059 
z
" style="fill:#b4b4b4;"/>
   </g>
   <g id="patch_62">
    <path clip-path="url(#pd49d0442ba)" d="M 299.501673 230.4 
L 303.554983 230.4 
L 303.554983 229.647059 
L 299.501673 229.647059 
z
" style="fill:#b4b4b4;"/>
   </g>
   <g id="patch_63">
    <path clip-path="url(#pd49d0442ba)" d="M 303.554983 230.4 
L 307.608293 230.4 
L 307.608293 230.4 
L 303.554983 230.4 
z
" style="fill:#b4b4b4;"/>
   </g>
   <g id="patch_64">
    <path clip-path="url(#pd49d0442ba)" d="M 307.608293 230.4 
L 311.661603 230.4 
L 311.661603 230.4 
L 307.608293 230.4 
z
" style="fill:#b4b4b4;"/>
   </g>
   <g id="patch_65">
    <path clip-path="url(#pd49d0442ba)" d="M 311.661603 230.4 
L 315.714913 230.4 
L 315.714913 230.023529 
L 311.661603 230.023529 
z
" style="fill:#b4b4b4;"/>
   </g>
   <g id="matplotlib.axis_3"/>
   <g id="patch_66">
    <path d="M 4.32 230.4 
L 427.68 230.4 
" style="fill:none;stroke:#222222;stroke-linecap:square;stroke-linejoin:miter;"/>
   </g>
  </g>
  <g id="axes_3">
   <g id="patch_67">
    <path clip-path="url(#pd49d0442ba)" d="M 133.576438 230.4 
L 133.576438 79.2 
L 258.033461 79.2 
L 258.033461 230.4 
z
" style="fill:#00bfff;opacity:0.5;stroke:#00bfff;stroke-linejoin:miter;"/>
   </g>
   <g id="matplotlib.axis_4"/>
   <g id="patch_68">
    <path d="M 4.32 230.4 
L 427.68 230.4 
" style="fill:none;stroke:#222222;stroke-linecap:square;stroke-linejoin:miter;"/>
   </g>
   <g id="text_3">
    <!-- $(\frac{\alpha}{2})$% -->
    <defs>
     <path d="M 40.921875 25.4375 
L 40.96875 36.71875 
Q 41.015625 48.25 32.328125 48.296875 
Q 25.828125 48.34375 21.78125 42.921875 
Q 16.703125 36.234375 14.984375 27.296875 
Q 12.890625 16.546875 15.53125 11.421875 
Q 18.265625 6.203125 24.171875 6.203125 
Q 30.71875 6.203125 36.234375 16.609375 
z
M 33.84375 55.90625 
Q 49.078125 56.15625 48.875 40.375 
Q 48.875 40.375 56.5 54.6875 
L 64.5 54.6875 
L 48.734375 25.046875 
L 48.578125 14.359375 
Q 48.578125 11.96875 49.90625 9.96875 
Q 51.421875 7.625 52.984375 7.625 
L 57.328125 7.625 
L 55.859375 0 
L 50.4375 0 
Q 45.84375 0 42.53125 4.109375 
Q 40.96875 6.15625 40.921875 10.453125 
Q 37.75 5.21875 32.28125 0.78125 
Q 29.6875 -1.265625 22.703125 -1.21875 
Q 11.28125 -1.125 7.125 6.203125 
Q 2.875 13.8125 5.515625 27.296875 
Q 8.34375 41.796875 15.765625 48.390625 
Q 24.125 55.765625 33.84375 55.90625 
z
" id="DejaVuSans-Oblique-3b1"/>
     <path d="M 72.703125 32.078125 
Q 68.453125 32.078125 66.03125 28.46875 
Q 63.625 24.859375 63.625 18.40625 
Q 63.625 12.0625 66.03125 8.421875 
Q 68.453125 4.78125 72.703125 4.78125 
Q 76.859375 4.78125 79.265625 8.421875 
Q 81.6875 12.0625 81.6875 18.40625 
Q 81.6875 24.8125 79.265625 28.4375 
Q 76.859375 32.078125 72.703125 32.078125 
z
M 72.703125 38.28125 
Q 80.421875 38.28125 84.953125 32.90625 
Q 89.5 27.546875 89.5 18.40625 
Q 89.5 9.28125 84.9375 3.921875 
Q 80.375 -1.421875 72.703125 -1.421875 
Q 64.890625 -1.421875 60.34375 3.921875 
Q 55.8125 9.28125 55.8125 18.40625 
Q 55.8125 27.59375 60.375 32.9375 
Q 64.9375 38.28125 72.703125 38.28125 
z
M 22.3125 68.015625 
Q 18.109375 68.015625 15.6875 64.375 
Q 13.28125 60.75 13.28125 54.390625 
Q 13.28125 47.953125 15.671875 44.328125 
Q 18.0625 40.71875 22.3125 40.71875 
Q 26.5625 40.71875 28.96875 44.328125 
Q 31.390625 47.953125 31.390625 54.390625 
Q 31.390625 60.6875 28.953125 64.34375 
Q 26.515625 68.015625 22.3125 68.015625 
z
M 66.40625 74.21875 
L 74.21875 74.21875 
L 28.609375 -1.421875 
L 20.796875 -1.421875 
z
M 22.3125 74.21875 
Q 30.03125 74.21875 34.609375 68.875 
Q 39.203125 63.53125 39.203125 54.390625 
Q 39.203125 45.171875 34.640625 39.84375 
Q 30.078125 34.515625 22.3125 34.515625 
Q 14.546875 34.515625 10.03125 39.859375 
Q 5.515625 45.21875 5.515625 54.390625 
Q 5.515625 63.484375 10.046875 68.84375 
Q 14.59375 74.21875 22.3125 74.21875 
z
" id="DejaVuSans-25"/>
    </defs>
    <g style="fill:#00bfff;" transform="translate(112.696438 69.12)scale(0.18 -0.18)">
     <use transform="translate(0 0.007812)" xlink:href="#DejaVuSans-28"/>
     <use transform="translate(39.013672 44.690625)scale(0.7)" xlink:href="#DejaVuSans-Oblique-3b1"/>
     <use transform="translate(40.013672 -39.398438)scale(0.7)" xlink:href="#DejaVuSans-32"/>
     <use transform="translate(97.65625 0.007812)" xlink:href="#DejaVuSans-29"/>
     <use transform="translate(136.669922 0.007812)" xlink:href="#DejaVuSans-25"/>
     <path d="M 39.013672 18.804688 
L 39.013672 25.054688 
L 85.15625 25.054688 
L 85.15625 18.804688 
L 39.013672 18.804688 
z
"/>
    </g>
   </g>
   <g id="text_4">
    <!-- $(1-\frac{\alpha}{2})$% -->
    <g style="fill:#00bfff;" transform="translate(236.29931 69.12)scale(0.18 -0.18)">
     <use transform="translate(0 0.007812)" xlink:href="#DejaVuSans-28"/>
     <use transform="translate(39.013672 0.007812)" xlink:href="#DejaVuSans-31"/>
     <use transform="translate(122.119141 0.007812)" xlink:href="#DejaVuSans-2212"/>
     <use transform="translate(225.390625 44.690625)scale(0.7)" xlink:href="#DejaVuSans-Oblique-3b1"/>
     <use transform="translate(226.390625 -39.398438)scale(0.7)" xlink:href="#DejaVuSans-32"/>
     <use transform="translate(284.033203 0.007812)" xlink:href="#DejaVuSans-29"/>
     <use transform="translate(323.046875 0.007812)" xlink:href="#DejaVuSans-25"/>
     <path d="M 225.390625 18.804688 
L 225.390625 25.054688 
L 271.533203 25.054688 
L 271.533203 18.804688 
L 225.390625 18.804688 
z
"/>
    </g>
   </g>
  </g>
  <g id="axes_4">
   <g id="patch_69">
    <path clip-path="url(#pd49d0442ba)" d="M -40.8172 230.4 
L -36.710008 230.4 
L -36.710008 230.025 
L -40.8172 230.025 
z
" style="fill:#fbc15e;opacity:0.7;"/>
   </g>
   <g id="patch_70">
    <path clip-path="url(#pd49d0442ba)" d="M -36.710008 230.4 
L -32.602816 230.4 
L -32.602816 230.4 
L -36.710008 230.4 
z
" style="fill:#fbc15e;opacity:0.7;"/>
   </g>
   <g id="patch_71">
    <path clip-path="url(#pd49d0442ba)" d="M -32.602816 230.4 
L -28.495623 230.4 
L -28.495623 230.4 
L -32.602816 230.4 
z
" style="fill:#fbc15e;opacity:0.7;"/>
   </g>
   <g id="patch_72">
    <path clip-path="url(#pd49d0442ba)" d="M -28.495623 230.4 
L -24.388431 230.4 
L -24.388431 230.4 
L -28.495623 230.4 
z
" style="fill:#fbc15e;opacity:0.7;"/>
   </g>
   <g id="patch_73">
    <path clip-path="url(#pd49d0442ba)" d="M -24.388431 230.4 
L -20.281239 230.4 
L -20.281239 230.4 
L -24.388431 230.4 
z
" style="fill:#fbc15e;opacity:0.7;"/>
   </g>
   <g id="patch_74">
    <path clip-path="url(#pd49d0442ba)" d="M -20.281239 230.4 
L -16.174046 230.4 
L -16.174046 230.4 
L -20.281239 230.4 
z
" style="fill:#fbc15e;opacity:0.7;"/>
   </g>
   <g id="patch_75">
    <path clip-path="url(#pd49d0442ba)" d="M -16.174046 230.4 
L -12.066854 230.4 
L -12.066854 230.4 
L -16.174046 230.4 
z
" style="fill:#fbc15e;opacity:0.7;"/>
   </g>
   <g id="patch_76">
    <path clip-path="url(#pd49d0442ba)" d="M -12.066854 230.4 
L -7.959662 230.4 
L -7.959662 230.4 
L -12.066854 230.4 
z
" style="fill:#fbc15e;opacity:0.7;"/>
   </g>
   <g id="patch_77">
    <path clip-path="url(#pd49d0442ba)" d="M -7.959662 230.4 
L -3.852469 230.4 
L -3.852469 230.4 
L -7.959662 230.4 
z
" style="fill:#fbc15e;opacity:0.7;"/>
   </g>
   <g id="patch_78">
    <path clip-path="url(#pd49d0442ba)" d="M -3.852469 230.4 
L 0.254723 230.4 
L 0.254723 230.4 
L -3.852469 230.4 
z
" style="fill:#fbc15e;opacity:0.7;"/>
   </g>
   <g id="patch_79">
    <path clip-path="url(#pd49d0442ba)" d="M 0.254723 230.4 
L 4.361915 230.4 
L 4.361915 230.025 
L 0.254723 230.025 
z
" style="fill:#fbc15e;opacity:0.7;"/>
   </g>
   <g id="patch_80">
    <path clip-path="url(#pd49d0442ba)" d="M 4.361915 230.4 
L 8.469108 230.4 
L 8.469108 230.025 
L 4.361915 230.025 
z
" style="fill:#fbc15e;opacity:0.7;"/>
   </g>
   <g id="patch_81">
    <path clip-path="url(#pd49d0442ba)" d="M 8.469108 230.4 
L 12.5763 230.4 
L 12.5763 230.4 
L 8.469108 230.4 
z
" style="fill:#fbc15e;opacity:0.7;"/>
   </g>
   <g id="patch_82">
    <path clip-path="url(#pd49d0442ba)" d="M 12.5763 230.4 
L 16.683492 230.4 
L 16.683492 230.4 
L 12.5763 230.4 
z
" style="fill:#fbc15e;opacity:0.7;"/>
   </g>
   <g id="patch_83">
    <path clip-path="url(#pd49d0442ba)" d="M 16.683492 230.4 
L 20.790685 230.4 
L 20.790685 230.4 
L 16.683492 230.4 
z
" style="fill:#fbc15e;opacity:0.7;"/>
   </g>
   <g id="patch_84">
    <path clip-path="url(#pd49d0442ba)" d="M 20.790685 230.4 
L 24.897877 230.4 
L 24.897877 229.65 
L 20.790685 229.65 
z
" style="fill:#fbc15e;opacity:0.7;"/>
   </g>
   <g id="patch_85">
    <path clip-path="url(#pd49d0442ba)" d="M 24.897877 230.4 
L 29.005069 230.4 
L 29.005069 230.4 
L 24.897877 230.4 
z
" style="fill:#fbc15e;opacity:0.7;"/>
   </g>
   <g id="patch_86">
    <path clip-path="url(#pd49d0442ba)" d="M 29.005069 230.4 
L 33.112262 230.4 
L 33.112262 230.025 
L 29.005069 230.025 
z
" style="fill:#fbc15e;opacity:0.7;"/>
   </g>
   <g id="patch_87">
    <path clip-path="url(#pd49d0442ba)" d="M 33.112262 230.4 
L 37.219454 230.4 
L 37.219454 229.65 
L 33.112262 229.65 
z
" style="fill:#fbc15e;opacity:0.7;"/>
   </g>
   <g id="patch_88">
    <path clip-path="url(#pd49d0442ba)" d="M 37.219454 230.4 
L 41.326646 230.4 
L 41.326646 229.65 
L 37.219454 229.65 
z
" style="fill:#fbc15e;opacity:0.7;"/>
   </g>
   <g id="patch_89">
    <path clip-path="url(#pd49d0442ba)" d="M 41.326646 230.4 
L 45.433839 230.4 
L 45.433839 229.65 
L 41.326646 229.65 
z
" style="fill:#fbc15e;opacity:0.7;"/>
   </g>
   <g id="patch_90">
    <path clip-path="url(#pd49d0442ba)" d="M 45.433839 230.4 
L 49.541031 230.4 
L 49.541031 228.15 
L 45.433839 228.15 
z
" style="fill:#fbc15e;opacity:0.7;"/>
   </g>
   <g id="patch_91">
    <path clip-path="url(#pd49d0442ba)" d="M 49.541031 230.4 
L 53.648223 230.4 
L 53.648223 229.65 
L 49.541031 229.65 
z
" style="fill:#fbc15e;opacity:0.7;"/>
   </g>
   <g id="patch_92">
    <path clip-path="url(#pd49d0442ba)" d="M 53.648223 230.4 
L 57.755416 230.4 
L 57.755416 228.525 
L 53.648223 228.525 
z
" style="fill:#fbc15e;opacity:0.7;"/>
   </g>
   <g id="patch_93">
    <path clip-path="url(#pd49d0442ba)" d="M 57.755416 230.4 
L 61.862608 230.4 
L 61.862608 227.025 
L 57.755416 227.025 
z
" style="fill:#fbc15e;opacity:0.7;"/>
   </g>
   <g id="patch_94">
    <path clip-path="url(#pd49d0442ba)" d="M 61.862608 230.4 
L 65.9698 230.4 
L 65.9698 227.4 
L 61.862608 227.4 
z
" style="fill:#fbc15e;opacity:0.7;"/>
   </g>
   <g id="patch_95">
    <path clip-path="url(#pd49d0442ba)" d="M 65.9698 230.4 
L 70.076993 230.4 
L 70.076993 224.775 
L 65.9698 224.775 
z
" style="fill:#fbc15e;opacity:0.7;"/>
   </g>
   <g id="patch_96">
    <path clip-path="url(#pd49d0442ba)" d="M 70.076993 230.4 
L 74.184185 230.4 
L 74.184185 225.15 
L 70.076993 225.15 
z
" style="fill:#fbc15e;opacity:0.7;"/>
   </g>
   <g id="patch_97">
    <path clip-path="url(#pd49d0442ba)" d="M 74.184185 230.4 
L 78.291377 230.4 
L 78.291377 222.15 
L 74.184185 222.15 
z
" style="fill:#fbc15e;opacity:0.7;"/>
   </g>
   <g id="patch_98">
    <path clip-path="url(#pd49d0442ba)" d="M 78.291377 230.4 
L 82.39857 230.4 
L 82.39857 220.65 
L 78.291377 220.65 
z
" style="fill:#fbc15e;opacity:0.7;"/>
   </g>
   <g id="patch_99">
    <path clip-path="url(#pd49d0442ba)" d="M 82.39857 230.4 
L 86.505762 230.4 
L 86.505762 216.525 
L 82.39857 216.525 
z
" style="fill:#fbc15e;opacity:0.7;"/>
   </g>
   <g id="patch_100">
    <path clip-path="url(#pd49d0442ba)" d="M 86.505762 230.4 
L 90.612954 230.4 
L 90.612954 218.775 
L 86.505762 218.775 
z
" style="fill:#fbc15e;opacity:0.7;"/>
   </g>
   <g id="patch_101">
    <path clip-path="url(#pd49d0442ba)" d="M 90.612954 230.4 
L 94.720147 230.4 
L 94.720147 216.15 
L 90.612954 216.15 
z
" style="fill:#fbc15e;opacity:0.7;"/>
   </g>
   <g id="patch_102">
    <path clip-path="url(#pd49d0442ba)" d="M 94.720147 230.4 
L 98.827339 230.4 
L 98.827339 209.775 
L 94.720147 209.775 
z
" style="fill:#fbc15e;opacity:0.7;"/>
   </g>
   <g id="patch_103">
    <path clip-path="url(#pd49d0442ba)" d="M 98.827339 230.4 
L 102.934531 230.4 
L 102.934531 200.4 
L 98.827339 200.4 
z
" style="fill:#fbc15e;opacity:0.7;"/>
   </g>
   <g id="patch_104">
    <path clip-path="url(#pd49d0442ba)" d="M 102.934531 230.4 
L 107.041724 230.4 
L 107.041724 193.65 
L 102.934531 193.65 
z
" style="fill:#fbc15e;opacity:0.7;"/>
   </g>
   <g id="patch_105">
    <path clip-path="url(#pd49d0442ba)" d="M 107.041724 230.4 
L 111.148916 230.4 
L 111.148916 187.65 
L 107.041724 187.65 
z
" style="fill:#fbc15e;opacity:0.7;"/>
   </g>
   <g id="patch_106">
    <path clip-path="url(#pd49d0442ba)" d="M 111.148916 230.4 
L 115.256108 230.4 
L 115.256108 176.4 
L 111.148916 176.4 
z
" style="fill:#fbc15e;opacity:0.7;"/>
   </g>
   <g id="patch_107">
    <path clip-path="url(#pd49d0442ba)" d="M 115.256108 230.4 
L 119.363301 230.4 
L 119.363301 173.4 
L 115.256108 173.4 
z
" style="fill:#fbc15e;opacity:0.7;"/>
   </g>
   <g id="patch_108">
    <path clip-path="url(#pd49d0442ba)" d="M 119.363301 230.4 
L 123.470493 230.4 
L 123.470493 160.275 
L 119.363301 160.275 
z
" style="fill:#fbc15e;opacity:0.7;"/>
   </g>
   <g id="patch_109">
    <path clip-path="url(#pd49d0442ba)" d="M 123.470493 230.4 
L 127.577685 230.4 
L 127.577685 157.275 
L 123.470493 157.275 
z
" style="fill:#fbc15e;opacity:0.7;"/>
   </g>
   <g id="patch_110">
    <path clip-path="url(#pd49d0442ba)" d="M 127.577685 230.4 
L 131.684878 230.4 
L 131.684878 142.275 
L 127.577685 142.275 
z
" style="fill:#fbc15e;opacity:0.7;"/>
   </g>
   <g id="patch_111">
    <path clip-path="url(#pd49d0442ba)" d="M 131.684878 230.4 
L 135.79207 230.4 
L 135.79207 129.15 
L 131.684878 129.15 
z
" style="fill:#fbc15e;opacity:0.7;"/>
   </g>
   <g id="patch_112">
    <path clip-path="url(#pd49d0442ba)" d="M 135.79207 230.4 
L 139.899262 230.4 
L 139.899262 109.275 
L 135.79207 109.275 
z
" style="fill:#fbc15e;opacity:0.7;"/>
   </g>
   <g id="patch_113">
    <path clip-path="url(#pd49d0442ba)" d="M 139.899262 230.4 
L 144.006455 230.4 
L 144.006455 87.525 
L 139.899262 87.525 
z
" style="fill:#fbc15e;opacity:0.7;"/>
   </g>
   <g id="patch_114">
    <path clip-path="url(#pd49d0442ba)" d="M 144.006455 230.4 
L 148.113647 230.4 
L 148.113647 75.9 
L 144.006455 75.9 
z
" style="fill:#fbc15e;opacity:0.7;"/>
   </g>
   <g id="patch_115">
    <path clip-path="url(#pd49d0442ba)" d="M 148.113647 230.4 
L 152.220839 230.4 
L 152.220839 64.275 
L 148.113647 64.275 
z
" style="fill:#fbc15e;opacity:0.7;"/>
   </g>
   <g id="patch_116">
    <path clip-path="url(#pd49d0442ba)" d="M 152.220839 230.4 
L 156.328032 230.4 
L 156.328032 66.525 
L 152.220839 66.525 
z
" style="fill:#fbc15e;opacity:0.7;"/>
   </g>
   <g id="patch_117">
    <path clip-path="url(#pd49d0442ba)" d="M 156.328032 230.4 
L 160.435224 230.4 
L 160.435224 42.9 
L 156.328032 42.9 
z
" style="fill:#fbc15e;opacity:0.7;"/>
   </g>
   <g id="patch_118">
    <path clip-path="url(#pd49d0442ba)" d="M 160.435224 230.4 
L 164.542416 230.4 
L 164.542416 47.4 
L 160.435224 47.4 
z
" style="fill:#fbc15e;opacity:0.7;"/>
   </g>
   <g id="patch_119">
    <path clip-path="url(#pd49d0442ba)" d="M 164.542416 230.4 
L 168.649609 230.4 
L 168.649609 41.025 
L 164.542416 41.025 
z
" style="fill:#fbc15e;opacity:0.7;"/>
   </g>
   <g id="patch_120">
    <path clip-path="url(#pd49d0442ba)" d="M 168.649609 230.4 
L 172.756801 230.4 
L 172.756801 49.65 
L 168.649609 49.65 
z
" style="fill:#fbc15e;opacity:0.7;"/>
   </g>
   <g id="patch_121">
    <path clip-path="url(#pd49d0442ba)" d="M 172.756801 230.4 
L 176.863993 230.4 
L 176.863993 38.4 
L 172.756801 38.4 
z
" style="fill:#fbc15e;opacity:0.7;"/>
   </g>
   <g id="patch_122">
    <path clip-path="url(#pd49d0442ba)" d="M 176.863993 230.4 
L 180.971185 230.4 
L 180.971185 59.025 
L 176.863993 59.025 
z
" style="fill:#fbc15e;opacity:0.7;"/>
   </g>
   <g id="patch_123">
    <path clip-path="url(#pd49d0442ba)" d="M 180.971185 230.4 
L 185.078378 230.4 
L 185.078378 65.775 
L 180.971185 65.775 
z
" style="fill:#fbc15e;opacity:0.7;"/>
   </g>
   <g id="patch_124">
    <path clip-path="url(#pd49d0442ba)" d="M 185.078378 230.4 
L 189.18557 230.4 
L 189.18557 89.4 
L 185.078378 89.4 
z
" style="fill:#fbc15e;opacity:0.7;"/>
   </g>
   <g id="patch_125">
    <path clip-path="url(#pd49d0442ba)" d="M 189.18557 230.4 
L 193.292762 230.4 
L 193.292762 102.15 
L 189.18557 102.15 
z
" style="fill:#fbc15e;opacity:0.7;"/>
   </g>
   <g id="patch_126">
    <path clip-path="url(#pd49d0442ba)" d="M 193.292762 230.4 
L 197.399955 230.4 
L 197.399955 104.775 
L 193.292762 104.775 
z
" style="fill:#fbc15e;opacity:0.7;"/>
   </g>
   <g id="patch_127">
    <path clip-path="url(#pd49d0442ba)" d="M 197.399955 230.4 
L 201.507147 230.4 
L 201.507147 107.4 
L 197.399955 107.4 
z
" style="fill:#fbc15e;opacity:0.7;"/>
   </g>
   <g id="patch_128">
    <path clip-path="url(#pd49d0442ba)" d="M 201.507147 230.4 
L 205.614339 230.4 
L 205.614339 132.9 
L 201.507147 132.9 
z
" style="fill:#fbc15e;opacity:0.7;"/>
   </g>
   <g id="patch_129">
    <path clip-path="url(#pd49d0442ba)" d="M 205.614339 230.4 
L 209.721532 230.4 
L 209.721532 146.775 
L 205.614339 146.775 
z
" style="fill:#fbc15e;opacity:0.7;"/>
   </g>
   <g id="patch_130">
    <path clip-path="url(#pd49d0442ba)" d="M 209.721532 230.4 
L 213.828724 230.4 
L 213.828724 161.4 
L 209.721532 161.4 
z
" style="fill:#fbc15e;opacity:0.7;"/>
   </g>
   <g id="patch_131">
    <path clip-path="url(#pd49d0442ba)" d="M 213.828724 230.4 
L 217.935916 230.4 
L 217.935916 170.4 
L 213.828724 170.4 
z
" style="fill:#fbc15e;opacity:0.7;"/>
   </g>
   <g id="patch_132">
    <path clip-path="url(#pd49d0442ba)" d="M 217.935916 230.4 
L 222.043109 230.4 
L 222.043109 178.65 
L 217.935916 178.65 
z
" style="fill:#fbc15e;opacity:0.7;"/>
   </g>
   <g id="patch_133">
    <path clip-path="url(#pd49d0442ba)" d="M 222.043109 230.4 
L 226.150301 230.4 
L 226.150301 194.025 
L 222.043109 194.025 
z
" style="fill:#fbc15e;opacity:0.7;"/>
   </g>
   <g id="patch_134">
    <path clip-path="url(#pd49d0442ba)" d="M 226.150301 230.4 
L 230.257493 230.4 
L 230.257493 202.65 
L 226.150301 202.65 
z
" style="fill:#fbc15e;opacity:0.7;"/>
   </g>
   <g id="patch_135">
    <path clip-path="url(#pd49d0442ba)" d="M 230.257493 230.4 
L 234.364686 230.4 
L 234.364686 200.775 
L 230.257493 200.775 
z
" style="fill:#fbc15e;opacity:0.7;"/>
   </g>
   <g id="patch_136">
    <path clip-path="url(#pd49d0442ba)" d="M 234.364686 230.4 
L 238.471878 230.4 
L 238.471878 210.9 
L 234.364686 210.9 
z
" style="fill:#fbc15e;opacity:0.7;"/>
   </g>
   <g id="patch_137">
    <path clip-path="url(#pd49d0442ba)" d="M 238.471878 230.4 
L 242.57907 230.4 
L 242.57907 213.9 
L 238.471878 213.9 
z
" style="fill:#fbc15e;opacity:0.7;"/>
   </g>
   <g id="patch_138">
    <path clip-path="url(#pd49d0442ba)" d="M 242.57907 230.4 
L 246.686263 230.4 
L 246.686263 216.15 
L 242.57907 216.15 
z
" style="fill:#fbc15e;opacity:0.7;"/>
   </g>
   <g id="patch_139">
    <path clip-path="url(#pd49d0442ba)" d="M 246.686263 230.4 
L 250.793455 230.4 
L 250.793455 221.025 
L 246.686263 221.025 
z
" style="fill:#fbc15e;opacity:0.7;"/>
   </g>
   <g id="patch_140">
    <path clip-path="url(#pd49d0442ba)" d="M 250.793455 230.4 
L 254.900647 230.4 
L 254.900647 219.15 
L 250.793455 219.15 
z
" style="fill:#fbc15e;opacity:0.7;"/>
   </g>
   <g id="patch_141">
    <path clip-path="url(#pd49d0442ba)" d="M 254.900647 230.4 
L 259.00784 230.4 
L 259.00784 223.65 
L 254.900647 223.65 
z
" style="fill:#fbc15e;opacity:0.7;"/>
   </g>
   <g id="patch_142">
    <path clip-path="url(#pd49d0442ba)" d="M 259.00784 230.4 
L 263.115032 230.4 
L 263.115032 225.525 
L 259.00784 225.525 
z
" style="fill:#fbc15e;opacity:0.7;"/>
   </g>
   <g id="patch_143">
    <path clip-path="url(#pd49d0442ba)" d="M 263.115032 230.4 
L 267.222224 230.4 
L 267.222224 224.4 
L 263.115032 224.4 
z
" style="fill:#fbc15e;opacity:0.7;"/>
   </g>
   <g id="patch_144">
    <path clip-path="url(#pd49d0442ba)" d="M 267.222224 230.4 
L 271.329417 230.4 
L 271.329417 226.65 
L 267.222224 226.65 
z
" style="fill:#fbc15e;opacity:0.7;"/>
   </g>
   <g id="patch_145">
    <path clip-path="url(#pd49d0442ba)" d="M 271.329417 230.4 
L 275.436609 230.4 
L 275.436609 227.775 
L 271.329417 227.775 
z
" style="fill:#fbc15e;opacity:0.7;"/>
   </g>
   <g id="patch_146">
    <path clip-path="url(#pd49d0442ba)" d="M 275.436609 230.4 
L 279.543801 230.4 
L 279.543801 228.9 
L 275.436609 228.9 
z
" style="fill:#fbc15e;opacity:0.7;"/>
   </g>
   <g id="patch_147">
    <path clip-path="url(#pd49d0442ba)" d="M 279.543801 230.4 
L 283.650994 230.4 
L 283.650994 228.525 
L 279.543801 228.525 
z
" style="fill:#fbc15e;opacity:0.7;"/>
   </g>
   <g id="patch_148">
    <path clip-path="url(#pd49d0442ba)" d="M 283.650994 230.4 
L 287.758186 230.4 
L 287.758186 230.025 
L 283.650994 230.025 
z
" style="fill:#fbc15e;opacity:0.7;"/>
   </g>
   <g id="patch_149">
    <path clip-path="url(#pd49d0442ba)" d="M 287.758186 230.4 
L 291.865378 230.4 
L 291.865378 230.4 
L 287.758186 230.4 
z
" style="fill:#fbc15e;opacity:0.7;"/>
   </g>
   <g id="patch_150">
    <path clip-path="url(#pd49d0442ba)" d="M 291.865378 230.4 
L 295.972571 230.4 
L 295.972571 230.025 
L 291.865378 230.025 
z
" style="fill:#fbc15e;opacity:0.7;"/>
   </g>
   <g id="patch_151">
    <path clip-path="url(#pd49d0442ba)" d="M 295.972571 230.4 
L 300.079763 230.4 
L 300.079763 229.65 
L 295.972571 229.65 
z
" style="fill:#fbc15e;opacity:0.7;"/>
   </g>
   <g id="patch_152">
    <path clip-path="url(#pd49d0442ba)" d="M 300.079763 230.4 
L 304.186955 230.4 
L 304.186955 230.025 
L 300.079763 230.025 
z
" style="fill:#fbc15e;opacity:0.7;"/>
   </g>
   <g id="patch_153">
    <path clip-path="url(#pd49d0442ba)" d="M 304.186955 230.4 
L 308.294148 230.4 
L 308.294148 230.4 
L 304.186955 230.4 
z
" style="fill:#fbc15e;opacity:0.7;"/>
   </g>
   <g id="patch_154">
    <path clip-path="url(#pd49d0442ba)" d="M 308.294148 230.4 
L 312.40134 230.4 
L 312.40134 230.4 
L 308.294148 230.4 
z
" style="fill:#fbc15e;opacity:0.7;"/>
   </g>
   <g id="patch_155">
    <path clip-path="url(#pd49d0442ba)" d="M 312.40134 230.4 
L 316.508532 230.4 
L 316.508532 230.025 
L 312.40134 230.025 
z
" style="fill:#fbc15e;opacity:0.7;"/>
   </g>
   <g id="patch_156">
    <path clip-path="url(#pd49d0442ba)" d="M 316.508532 230.4 
L 320.615725 230.4 
L 320.615725 230.4 
L 316.508532 230.4 
z
" style="fill:#fbc15e;opacity:0.7;"/>
   </g>
   <g id="patch_157">
    <path clip-path="url(#pd49d0442ba)" d="M 320.615725 230.4 
L 324.722917 230.4 
L 324.722917 230.025 
L 320.615725 230.025 
z
" style="fill:#fbc15e;opacity:0.7;"/>
   </g>
   <g id="patch_158">
    <path clip-path="url(#pd49d0442ba)" d="M 324.722917 230.4 
L 328.830109 230.4 
L 328.830109 230.4 
L 324.722917 230.4 
z
" style="fill:#fbc15e;opacity:0.7;"/>
   </g>
   <g id="patch_159">
    <path clip-path="url(#pd49d0442ba)" d="M 328.830109 230.4 
L 332.937302 230.4 
L 332.937302 230.4 
L 328.830109 230.4 
z
" style="fill:#fbc15e;opacity:0.7;"/>
   </g>
   <g id="patch_160">
    <path clip-path="url(#pd49d0442ba)" d="M 332.937302 230.4 
L 337.044494 230.4 
L 337.044494 230.4 
L 332.937302 230.4 
z
" style="fill:#fbc15e;opacity:0.7;"/>
   </g>
   <g id="patch_161">
    <path clip-path="url(#pd49d0442ba)" d="M 337.044494 230.4 
L 341.151686 230.4 
L 341.151686 230.4 
L 337.044494 230.4 
z
" style="fill:#fbc15e;opacity:0.7;"/>
   </g>
   <g id="patch_162">
    <path clip-path="url(#pd49d0442ba)" d="M 341.151686 230.4 
L 345.258879 230.4 
L 345.258879 230.4 
L 341.151686 230.4 
z
" style="fill:#fbc15e;opacity:0.7;"/>
   </g>
   <g id="patch_163">
    <path clip-path="url(#pd49d0442ba)" d="M 345.258879 230.4 
L 349.366071 230.4 
L 349.366071 230.4 
L 345.258879 230.4 
z
" style="fill:#fbc15e;opacity:0.7;"/>
   </g>
   <g id="patch_164">
    <path clip-path="url(#pd49d0442ba)" d="M 349.366071 230.4 
L 353.473263 230.4 
L 353.473263 230.4 
L 349.366071 230.4 
z
" style="fill:#fbc15e;opacity:0.7;"/>
   </g>
   <g id="patch_165">
    <path clip-path="url(#pd49d0442ba)" d="M 353.473263 230.4 
L 357.580456 230.4 
L 357.580456 230.4 
L 353.473263 230.4 
z
" style="fill:#fbc15e;opacity:0.7;"/>
   </g>
   <g id="patch_166">
    <path clip-path="url(#pd49d0442ba)" d="M 357.580456 230.4 
L 361.687648 230.4 
L 361.687648 230.4 
L 357.580456 230.4 
z
" style="fill:#fbc15e;opacity:0.7;"/>
   </g>
   <g id="patch_167">
    <path clip-path="url(#pd49d0442ba)" d="M 361.687648 230.4 
L 365.79484 230.4 
L 365.79484 230.025 
L 361.687648 230.025 
z
" style="fill:#fbc15e;opacity:0.7;"/>
   </g>
   <g id="matplotlib.axis_5"/>
   <g id="line2d_2">
    <path clip-path="url(#pd49d0442ba)" d="M 166.619155 230.4 
L 166.619155 28.8 
" style="fill:none;stroke:#ce4ad0;stroke-dasharray:7.4,3.2;stroke-dashoffset:0;stroke-width:2;"/>
   </g>
   <g id="patch_168">
    <path d="M 4.32 230.4 
L 427.68 230.4 
" style="fill:none;stroke:#222222;stroke-linecap:square;stroke-linejoin:miter;"/>
   </g>
  </g>
  <g id="axes_5">
   <g id="patch_169">
    <path clip-path="url(#pd49d0442ba)" d="M -48.286975 230.4 
L -44.164048 230.4 
L -44.164048 229.676836 
L -48.286975 229.676836 
z
" style="fill:#ff8b22;opacity:0.6;"/>
   </g>
   <g id="patch_170">
    <path clip-path="url(#pd49d0442ba)" d="M -44.164048 230.4 
L -40.04112 230.4 
L -40.04112 230.4 
L -44.164048 230.4 
z
" style="fill:#ff8b22;opacity:0.6;"/>
   </g>
   <g id="patch_171">
    <path clip-path="url(#pd49d0442ba)" d="M -40.04112 230.4 
L -35.918193 230.4 
L -35.918193 230.4 
L -40.04112 230.4 
z
" style="fill:#ff8b22;opacity:0.6;"/>
   </g>
   <g id="patch_172">
    <path clip-path="url(#pd49d0442ba)" d="M -35.918193 230.4 
L -31.795266 230.4 
L -31.795266 230.4 
L -35.918193 230.4 
z
" style="fill:#ff8b22;opacity:0.6;"/>
   </g>
   <g id="patch_173">
    <path clip-path="url(#pd49d0442ba)" d="M -31.795266 230.4 
L -27.672339 230.4 
L -27.672339 230.4 
L -31.795266 230.4 
z
" style="fill:#ff8b22;opacity:0.6;"/>
   </g>
   <g id="patch_174">
    <path clip-path="url(#pd49d0442ba)" d="M -27.672339 230.4 
L -23.549412 230.4 
L -23.549412 230.038418 
L -27.672339 230.038418 
z
" style="fill:#ff8b22;opacity:0.6;"/>
   </g>
   <g id="patch_175">
    <path clip-path="url(#pd49d0442ba)" d="M -23.549412 230.4 
L -19.426485 230.4 
L -19.426485 230.4 
L -23.549412 230.4 
z
" style="fill:#ff8b22;opacity:0.6;"/>
   </g>
   <g id="patch_176">
    <path clip-path="url(#pd49d0442ba)" d="M -19.426485 230.4 
L -15.303558 230.4 
L -15.303558 230.4 
L -19.426485 230.4 
z
" style="fill:#ff8b22;opacity:0.6;"/>
   </g>
   <g id="patch_177">
    <path clip-path="url(#pd49d0442ba)" d="M -15.303558 230.4 
L -11.180631 230.4 
L -11.180631 230.038418 
L -15.303558 230.038418 
z
" style="fill:#ff8b22;opacity:0.6;"/>
   </g>
   <g id="patch_178">
    <path clip-path="url(#pd49d0442ba)" d="M -11.180631 230.4 
L -7.057704 230.4 
L -7.057704 230.038418 
L -11.180631 230.038418 
z
" style="fill:#ff8b22;opacity:0.6;"/>
   </g>
   <g id="patch_179">
    <path clip-path="url(#pd49d0442ba)" d="M -7.057704 230.4 
L -2.934777 230.4 
L -2.934777 230.4 
L -7.057704 230.4 
z
" style="fill:#ff8b22;opacity:0.6;"/>
   </g>
   <g id="patch_180">
    <path clip-path="url(#pd49d0442ba)" d="M -2.934777 230.4 
L 1.18815 230.4 
L 1.18815 230.038418 
L -2.934777 230.038418 
z
" style="fill:#ff8b22;opacity:0.6;"/>
   </g>
   <g id="patch_181">
    <path clip-path="url(#pd49d0442ba)" d="M 1.18815 230.4 
L 5.311077 230.4 
L 5.311077 229.315254 
L 1.18815 229.315254 
z
" style="fill:#ff8b22;opacity:0.6;"/>
   </g>
   <g id="patch_182">
    <path clip-path="url(#pd49d0442ba)" d="M 5.311077 230.4 
L 9.434004 230.4 
L 9.434004 230.038418 
L 5.311077 230.038418 
z
" style="fill:#ff8b22;opacity:0.6;"/>
   </g>
   <g id="patch_183">
    <path clip-path="url(#pd49d0442ba)" d="M 9.434004 230.4 
L 13.556931 230.4 
L 13.556931 229.676836 
L 9.434004 229.676836 
z
" style="fill:#ff8b22;opacity:0.6;"/>
   </g>
   <g id="patch_184">
    <path clip-path="url(#pd49d0442ba)" d="M 13.556931 230.4 
L 17.679858 230.4 
L 17.679858 228.59209 
L 13.556931 228.59209 
z
" style="fill:#ff8b22;opacity:0.6;"/>
   </g>
   <g id="patch_185">
    <path clip-path="url(#pd49d0442ba)" d="M 17.679858 230.4 
L 21.802785 230.4 
L 21.802785 228.230508 
L 17.679858 228.230508 
z
" style="fill:#ff8b22;opacity:0.6;"/>
   </g>
   <g id="patch_186">
    <path clip-path="url(#pd49d0442ba)" d="M 21.802785 230.4 
L 25.925712 230.4 
L 25.925712 227.145763 
L 21.802785 227.145763 
z
" style="fill:#ff8b22;opacity:0.6;"/>
   </g>
   <g id="patch_187">
    <path clip-path="url(#pd49d0442ba)" d="M 25.925712 230.4 
L 30.048639 230.4 
L 30.048639 228.59209 
L 25.925712 228.59209 
z
" style="fill:#ff8b22;opacity:0.6;"/>
   </g>
   <g id="patch_188">
    <path clip-path="url(#pd49d0442ba)" d="M 30.048639 230.4 
L 34.171566 230.4 
L 34.171566 226.061017 
L 30.048639 226.061017 
z
" style="fill:#ff8b22;opacity:0.6;"/>
   </g>
   <g id="patch_189">
    <path clip-path="url(#pd49d0442ba)" d="M 34.171566 230.4 
L 38.294493 230.4 
L 38.294493 226.422599 
L 34.171566 226.422599 
z
" style="fill:#ff8b22;opacity:0.6;"/>
   </g>
   <g id="patch_190">
    <path clip-path="url(#pd49d0442ba)" d="M 38.294493 230.4 
L 42.41742 230.4 
L 42.41742 226.422599 
L 38.294493 226.422599 
z
" style="fill:#ff8b22;opacity:0.6;"/>
   </g>
   <g id="patch_191">
    <path clip-path="url(#pd49d0442ba)" d="M 42.41742 230.4 
L 46.540347 230.4 
L 46.540347 221.722034 
L 42.41742 221.722034 
z
" style="fill:#ff8b22;opacity:0.6;"/>
   </g>
   <g id="patch_192">
    <path clip-path="url(#pd49d0442ba)" d="M 46.540347 230.4 
L 50.663274 230.4 
L 50.663274 220.275706 
L 46.540347 220.275706 
z
" style="fill:#ff8b22;opacity:0.6;"/>
   </g>
   <g id="patch_193">
    <path clip-path="url(#pd49d0442ba)" d="M 50.663274 230.4 
L 54.786201 230.4 
L 54.786201 220.275706 
L 50.663274 220.275706 
z
" style="fill:#ff8b22;opacity:0.6;"/>
   </g>
   <g id="patch_194">
    <path clip-path="url(#pd49d0442ba)" d="M 54.786201 230.4 
L 58.909128 230.4 
L 58.909128 215.936723 
L 54.786201 215.936723 
z
" style="fill:#ff8b22;opacity:0.6;"/>
   </g>
   <g id="patch_195">
    <path clip-path="url(#pd49d0442ba)" d="M 58.909128 230.4 
L 63.032055 230.4 
L 63.032055 212.682486 
L 58.909128 212.682486 
z
" style="fill:#ff8b22;opacity:0.6;"/>
   </g>
   <g id="patch_196">
    <path clip-path="url(#pd49d0442ba)" d="M 63.032055 230.4 
L 67.154982 230.4 
L 67.154982 207.620339 
L 63.032055 207.620339 
z
" style="fill:#ff8b22;opacity:0.6;"/>
   </g>
   <g id="patch_197">
    <path clip-path="url(#pd49d0442ba)" d="M 67.154982 230.4 
L 71.277909 230.4 
L 71.277909 205.089266 
L 67.154982 205.089266 
z
" style="fill:#ff8b22;opacity:0.6;"/>
   </g>
   <g id="patch_198">
    <path clip-path="url(#pd49d0442ba)" d="M 71.277909 230.4 
L 75.400836 230.4 
L 75.400836 198.580791 
L 71.277909 198.580791 
z
" style="fill:#ff8b22;opacity:0.6;"/>
   </g>
   <g id="patch_199">
    <path clip-path="url(#pd49d0442ba)" d="M 75.400836 230.4 
L 79.523764 230.4 
L 79.523764 187.371751 
L 75.400836 187.371751 
z
" style="fill:#ff8b22;opacity:0.6;"/>
   </g>
   <g id="patch_200">
    <path clip-path="url(#pd49d0442ba)" d="M 79.523764 230.4 
L 83.646691 230.4 
L 83.646691 180.501695 
L 79.523764 180.501695 
z
" style="fill:#ff8b22;opacity:0.6;"/>
   </g>
   <g id="patch_201">
    <path clip-path="url(#pd49d0442ba)" d="M 83.646691 230.4 
L 87.769618 230.4 
L 87.769618 176.885876 
L 83.646691 176.885876 
z
" style="fill:#ff8b22;opacity:0.6;"/>
   </g>
   <g id="patch_202">
    <path clip-path="url(#pd49d0442ba)" d="M 87.769618 230.4 
L 91.892545 230.4 
L 91.892545 153.744633 
L 87.769618 153.744633 
z
" style="fill:#ff8b22;opacity:0.6;"/>
   </g>
   <g id="patch_203">
    <path clip-path="url(#pd49d0442ba)" d="M 91.892545 230.4 
L 96.015472 230.4 
L 96.015472 151.936723 
L 91.892545 151.936723 
z
" style="fill:#ff8b22;opacity:0.6;"/>
   </g>
   <g id="patch_204">
    <path clip-path="url(#pd49d0442ba)" d="M 96.015472 230.4 
L 100.138399 230.4 
L 100.138399 139.642938 
L 96.015472 139.642938 
z
" style="fill:#ff8b22;opacity:0.6;"/>
   </g>
   <g id="patch_205">
    <path clip-path="url(#pd49d0442ba)" d="M 100.138399 230.4 
L 104.261326 230.4 
L 104.261326 119.39435 
L 100.138399 119.39435 
z
" style="fill:#ff8b22;opacity:0.6;"/>
   </g>
   <g id="patch_206">
    <path clip-path="url(#pd49d0442ba)" d="M 104.261326 230.4 
L 108.384253 230.4 
L 108.384253 106.738983 
L 104.261326 106.738983 
z
" style="fill:#ff8b22;opacity:0.6;"/>
   </g>
   <g id="patch_207">
    <path clip-path="url(#pd49d0442ba)" d="M 108.384253 230.4 
L 112.50718 230.4 
L 112.50718 87.936723 
L 108.384253 87.936723 
z
" style="fill:#ff8b22;opacity:0.6;"/>
   </g>
   <g id="patch_208">
    <path clip-path="url(#pd49d0442ba)" d="M 112.50718 230.4 
L 116.630107 230.4 
L 116.630107 83.59774 
L 112.50718 83.59774 
z
" style="fill:#ff8b22;opacity:0.6;"/>
   </g>
   <g id="patch_209">
    <path clip-path="url(#pd49d0442ba)" d="M 116.630107 230.4 
L 120.753034 230.4 
L 120.753034 76.366102 
L 116.630107 76.366102 
z
" style="fill:#ff8b22;opacity:0.6;"/>
   </g>
   <g id="patch_210">
    <path clip-path="url(#pd49d0442ba)" d="M 120.753034 230.4 
L 124.875961 230.4 
L 124.875961 67.688136 
L 120.753034 67.688136 
z
" style="fill:#ff8b22;opacity:0.6;"/>
   </g>
   <g id="patch_211">
    <path clip-path="url(#pd49d0442ba)" d="M 124.875961 230.4 
L 128.998888 230.4 
L 128.998888 44.546893 
L 124.875961 44.546893 
z
" style="fill:#ff8b22;opacity:0.6;"/>
   </g>
   <g id="patch_212">
    <path clip-path="url(#pd49d0442ba)" d="M 128.998888 230.4 
L 133.121815 230.4 
L 133.121815 38.4 
L 128.998888 38.4 
z
" style="fill:#ff8b22;opacity:0.6;"/>
   </g>
   <g id="patch_213">
    <path clip-path="url(#pd49d0442ba)" d="M 133.121815 230.4 
L 137.244742 230.4 
L 137.244742 52.140113 
L 133.121815 52.140113 
z
" style="fill:#ff8b22;opacity:0.6;"/>
   </g>
   <g id="patch_214">
    <path clip-path="url(#pd49d0442ba)" d="M 137.244742 230.4 
L 141.367669 230.4 
L 141.367669 50.332203 
L 137.244742 50.332203 
z
" style="fill:#ff8b22;opacity:0.6;"/>
   </g>
   <g id="patch_215">
    <path clip-path="url(#pd49d0442ba)" d="M 141.367669 230.4 
L 145.490596 230.4 
L 145.490596 52.501695 
L 141.367669 52.501695 
z
" style="fill:#ff8b22;opacity:0.6;"/>
   </g>
   <g id="patch_216">
    <path clip-path="url(#pd49d0442ba)" d="M 145.490596 230.4 
L 149.613523 230.4 
L 149.613523 70.219209 
L 145.490596 70.219209 
z
" style="fill:#ff8b22;opacity:0.6;"/>
   </g>
   <g id="patch_217">
    <path clip-path="url(#pd49d0442ba)" d="M 149.613523 230.4 
L 153.73645 230.4 
L 153.73645 83.59774 
L 149.613523 83.59774 
z
" style="fill:#ff8b22;opacity:0.6;"/>
   </g>
   <g id="patch_218">
    <path clip-path="url(#pd49d0442ba)" d="M 153.73645 230.4 
L 157.859377 230.4 
L 157.859377 90.829379 
L 153.73645 90.829379 
z
" style="fill:#ff8b22;opacity:0.6;"/>
   </g>
   <g id="patch_219">
    <path clip-path="url(#pd49d0442ba)" d="M 157.859377 230.4 
L 161.982304 230.4 
L 161.982304 97.337853 
L 157.859377 97.337853 
z
" style="fill:#ff8b22;opacity:0.6;"/>
   </g>
   <g id="patch_220">
    <path clip-path="url(#pd49d0442ba)" d="M 161.982304 230.4 
L 166.105231 230.4 
L 166.105231 120.479096 
L 161.982304 120.479096 
z
" style="fill:#ff8b22;opacity:0.6;"/>
   </g>
   <g id="patch_221">
    <path clip-path="url(#pd49d0442ba)" d="M 166.105231 230.4 
L 170.228158 230.4 
L 170.228158 127.710734 
L 166.105231 127.710734 
z
" style="fill:#ff8b22;opacity:0.6;"/>
   </g>
   <g id="patch_222">
    <path clip-path="url(#pd49d0442ba)" d="M 170.228158 230.4 
L 174.351085 230.4 
L 174.351085 139.281356 
L 170.228158 139.281356 
z
" style="fill:#ff8b22;opacity:0.6;"/>
   </g>
   <g id="patch_223">
    <path clip-path="url(#pd49d0442ba)" d="M 174.351085 230.4 
L 178.474012 230.4 
L 178.474012 161.337853 
L 174.351085 161.337853 
z
" style="fill:#ff8b22;opacity:0.6;"/>
   </g>
   <g id="patch_224">
    <path clip-path="url(#pd49d0442ba)" d="M 178.474012 230.4 
L 182.596939 230.4 
L 182.596939 167.123164 
L 178.474012 167.123164 
z
" style="fill:#ff8b22;opacity:0.6;"/>
   </g>
   <g id="patch_225">
    <path clip-path="url(#pd49d0442ba)" d="M 182.596939 230.4 
L 186.719866 230.4 
L 186.719866 172.546893 
L 182.596939 172.546893 
z
" style="fill:#ff8b22;opacity:0.6;"/>
   </g>
   <g id="patch_226">
    <path clip-path="url(#pd49d0442ba)" d="M 186.719866 230.4 
L 190.842793 230.4 
L 190.842793 181.224859 
L 186.719866 181.224859 
z
" style="fill:#ff8b22;opacity:0.6;"/>
   </g>
   <g id="patch_227">
    <path clip-path="url(#pd49d0442ba)" d="M 190.842793 230.4 
L 194.96572 230.4 
L 194.96572 195.326554 
L 190.842793 195.326554 
z
" style="fill:#ff8b22;opacity:0.6;"/>
   </g>
   <g id="patch_228">
    <path clip-path="url(#pd49d0442ba)" d="M 194.96572 230.4 
L 199.088648 230.4 
L 199.088648 203.281356 
L 194.96572 203.281356 
z
" style="fill:#ff8b22;opacity:0.6;"/>
   </g>
   <g id="patch_229">
    <path clip-path="url(#pd49d0442ba)" d="M 199.088648 230.4 
L 203.211575 230.4 
L 203.211575 205.450847 
L 199.088648 205.450847 
z
" style="fill:#ff8b22;opacity:0.6;"/>
   </g>
   <g id="patch_230">
    <path clip-path="url(#pd49d0442ba)" d="M 203.211575 230.4 
L 207.334502 230.4 
L 207.334502 213.40565 
L 203.211575 213.40565 
z
" style="fill:#ff8b22;opacity:0.6;"/>
   </g>
   <g id="patch_231">
    <path clip-path="url(#pd49d0442ba)" d="M 207.334502 230.4 
L 211.457429 230.4 
L 211.457429 216.659887 
L 207.334502 216.659887 
z
" style="fill:#ff8b22;opacity:0.6;"/>
   </g>
   <g id="patch_232">
    <path clip-path="url(#pd49d0442ba)" d="M 211.457429 230.4 
L 215.580356 230.4 
L 215.580356 219.19096 
L 211.457429 219.19096 
z
" style="fill:#ff8b22;opacity:0.6;"/>
   </g>
   <g id="patch_233">
    <path clip-path="url(#pd49d0442ba)" d="M 215.580356 230.4 
L 219.703283 230.4 
L 219.703283 219.914124 
L 215.580356 219.914124 
z
" style="fill:#ff8b22;opacity:0.6;"/>
   </g>
   <g id="patch_234">
    <path clip-path="url(#pd49d0442ba)" d="M 219.703283 230.4 
L 223.82621 230.4 
L 223.82621 221.360452 
L 219.703283 221.360452 
z
" style="fill:#ff8b22;opacity:0.6;"/>
   </g>
   <g id="patch_235">
    <path clip-path="url(#pd49d0442ba)" d="M 223.82621 230.4 
L 227.949137 230.4 
L 227.949137 223.891525 
L 223.82621 223.891525 
z
" style="fill:#ff8b22;opacity:0.6;"/>
   </g>
   <g id="patch_236">
    <path clip-path="url(#pd49d0442ba)" d="M 227.949137 230.4 
L 232.072064 230.4 
L 232.072064 224.253107 
L 227.949137 224.253107 
z
" style="fill:#ff8b22;opacity:0.6;"/>
   </g>
   <g id="patch_237">
    <path clip-path="url(#pd49d0442ba)" d="M 232.072064 230.4 
L 236.194991 230.4 
L 236.194991 226.061017 
L 232.072064 226.061017 
z
" style="fill:#ff8b22;opacity:0.6;"/>
   </g>
   <g id="patch_238">
    <path clip-path="url(#pd49d0442ba)" d="M 236.194991 230.4 
L 240.317918 230.4 
L 240.317918 227.868927 
L 236.194991 227.868927 
z
" style="fill:#ff8b22;opacity:0.6;"/>
   </g>
   <g id="patch_239">
    <path clip-path="url(#pd49d0442ba)" d="M 240.317918 230.4 
L 244.440845 230.4 
L 244.440845 227.868927 
L 240.317918 227.868927 
z
" style="fill:#ff8b22;opacity:0.6;"/>
   </g>
   <g id="patch_240">
    <path clip-path="url(#pd49d0442ba)" d="M 244.440845 230.4 
L 248.563772 230.4 
L 248.563772 228.59209 
L 244.440845 228.59209 
z
" style="fill:#ff8b22;opacity:0.6;"/>
   </g>
   <g id="patch_241">
    <path clip-path="url(#pd49d0442ba)" d="M 248.563772 230.4 
L 252.686699 230.4 
L 252.686699 228.953672 
L 248.563772 228.953672 
z
" style="fill:#ff8b22;opacity:0.6;"/>
   </g>
   <g id="patch_242">
    <path clip-path="url(#pd49d0442ba)" d="M 252.686699 230.4 
L 256.809626 230.4 
L 256.809626 228.59209 
L 252.686699 228.59209 
z
" style="fill:#ff8b22;opacity:0.6;"/>
   </g>
   <g id="patch_243">
    <path clip-path="url(#pd49d0442ba)" d="M 256.809626 230.4 
L 260.932553 230.4 
L 260.932553 229.676836 
L 256.809626 229.676836 
z
" style="fill:#ff8b22;opacity:0.6;"/>
   </g>
   <g id="patch_244">
    <path clip-path="url(#pd49d0442ba)" d="M 260.932553 230.4 
L 265.05548 230.4 
L 265.05548 230.038418 
L 260.932553 230.038418 
z
" style="fill:#ff8b22;opacity:0.6;"/>
   </g>
   <g id="patch_245">
    <path clip-path="url(#pd49d0442ba)" d="M 265.05548 230.4 
L 269.178407 230.4 
L 269.178407 229.676836 
L 265.05548 229.676836 
z
" style="fill:#ff8b22;opacity:0.6;"/>
   </g>
   <g id="patch_246">
    <path clip-path="url(#pd49d0442ba)" d="M 269.178407 230.4 
L 273.301334 230.4 
L 273.301334 229.676836 
L 269.178407 229.676836 
z
" style="fill:#ff8b22;opacity:0.6;"/>
   </g>
   <g id="patch_247">
    <path clip-path="url(#pd49d0442ba)" d="M 273.301334 230.4 
L 277.424261 230.4 
L 277.424261 230.4 
L 273.301334 230.4 
z
" style="fill:#ff8b22;opacity:0.6;"/>
   </g>
   <g id="patch_248">
    <path clip-path="url(#pd49d0442ba)" d="M 277.424261 230.4 
L 281.547188 230.4 
L 281.547188 230.4 
L 277.424261 230.4 
z
" style="fill:#ff8b22;opacity:0.6;"/>
   </g>
   <g id="patch_249">
    <path clip-path="url(#pd49d0442ba)" d="M 281.547188 230.4 
L 285.670115 230.4 
L 285.670115 230.038418 
L 281.547188 230.038418 
z
" style="fill:#ff8b22;opacity:0.6;"/>
   </g>
   <g id="patch_250">
    <path clip-path="url(#pd49d0442ba)" d="M 285.670115 230.4 
L 289.793042 230.4 
L 289.793042 230.4 
L 285.670115 230.4 
z
" style="fill:#ff8b22;opacity:0.6;"/>
   </g>
   <g id="patch_251">
    <path clip-path="url(#pd49d0442ba)" d="M 289.793042 230.4 
L 293.915969 230.4 
L 293.915969 230.4 
L 289.793042 230.4 
z
" style="fill:#ff8b22;opacity:0.6;"/>
   </g>
   <g id="patch_252">
    <path clip-path="url(#pd49d0442ba)" d="M 293.915969 230.4 
L 298.038896 230.4 
L 298.038896 230.4 
L 293.915969 230.4 
z
" style="fill:#ff8b22;opacity:0.6;"/>
   </g>
   <g id="patch_253">
    <path clip-path="url(#pd49d0442ba)" d="M 298.038896 230.4 
L 302.161823 230.4 
L 302.161823 230.038418 
L 298.038896 230.038418 
z
" style="fill:#ff8b22;opacity:0.6;"/>
   </g>
   <g id="patch_254">
    <path clip-path="url(#pd49d0442ba)" d="M 302.161823 230.4 
L 306.28475 230.4 
L 306.28475 230.4 
L 302.161823 230.4 
z
" style="fill:#ff8b22;opacity:0.6;"/>
   </g>
   <g id="patch_255">
    <path clip-path="url(#pd49d0442ba)" d="M 306.28475 230.4 
L 310.407677 230.4 
L 310.407677 230.038418 
L 306.28475 230.038418 
z
" style="fill:#ff8b22;opacity:0.6;"/>
   </g>
   <g id="matplotlib.axis_6"/>
   <g id="line2d_3">
    <path clip-path="url(#pd49d0442ba)" d="M 133.576438 230.4 
L 133.576438 28.8 
" style="fill:none;stroke:#ce4ad0;stroke-dasharray:7.4,3.2;stroke-dashoffset:0;stroke-width:2;"/>
   </g>
   <g id="patch_256">
    <path d="M 4.32 230.4 
L 427.68 230.4 
" style="fill:none;stroke:#222222;stroke-linecap:square;stroke-linejoin:miter;"/>
   </g>
  </g>
  <g id="axes_6">
   <g id="patch_257">
    <path clip-path="url(#pd49d0442ba)" d="M 154.810844 230.4 
L 158.884536 230.4 
L 158.884536 230.034286 
L 154.810844 230.034286 
z
" style="fill:#fb4c52;opacity:0.7;"/>
   </g>
   <g id="patch_258">
    <path clip-path="url(#pd49d0442ba)" d="M 158.884536 230.4 
L 162.958228 230.4 
L 162.958228 230.4 
L 158.884536 230.4 
z
" style="fill:#fb4c52;opacity:0.7;"/>
   </g>
   <g id="patch_259">
    <path clip-path="url(#pd49d0442ba)" d="M 162.958228 230.4 
L 167.03192 230.4 
L 167.03192 230.034286 
L 162.958228 230.034286 
z
" style="fill:#fb4c52;opacity:0.7;"/>
   </g>
   <g id="patch_260">
    <path clip-path="url(#pd49d0442ba)" d="M 167.03192 230.4 
L 171.105612 230.4 
L 171.105612 230.034286 
L 167.03192 230.034286 
z
" style="fill:#fb4c52;opacity:0.7;"/>
   </g>
   <g id="patch_261">
    <path clip-path="url(#pd49d0442ba)" d="M 171.105612 230.4 
L 175.179304 230.4 
L 175.179304 230.034286 
L 171.105612 230.034286 
z
" style="fill:#fb4c52;opacity:0.7;"/>
   </g>
   <g id="patch_262">
    <path clip-path="url(#pd49d0442ba)" d="M 175.179304 230.4 
L 179.252997 230.4 
L 179.252997 229.668571 
L 175.179304 229.668571 
z
" style="fill:#fb4c52;opacity:0.7;"/>
   </g>
   <g id="patch_263">
    <path clip-path="url(#pd49d0442ba)" d="M 179.252997 230.4 
L 183.326689 230.4 
L 183.326689 230.034286 
L 179.252997 230.034286 
z
" style="fill:#fb4c52;opacity:0.7;"/>
   </g>
   <g id="patch_264">
    <path clip-path="url(#pd49d0442ba)" d="M 183.326689 230.4 
L 187.400381 230.4 
L 187.400381 230.4 
L 183.326689 230.4 
z
" style="fill:#fb4c52;opacity:0.7;"/>
   </g>
   <g id="patch_265">
    <path clip-path="url(#pd49d0442ba)" d="M 187.400381 230.4 
L 191.474073 230.4 
L 191.474073 230.4 
L 187.400381 230.4 
z
" style="fill:#fb4c52;opacity:0.7;"/>
   </g>
   <g id="patch_266">
    <path clip-path="url(#pd49d0442ba)" d="M 191.474073 230.4 
L 195.547765 230.4 
L 195.547765 229.668571 
L 191.474073 229.668571 
z
" style="fill:#fb4c52;opacity:0.7;"/>
   </g>
   <g id="patch_267">
    <path clip-path="url(#pd49d0442ba)" d="M 195.547765 230.4 
L 199.621457 230.4 
L 199.621457 230.034286 
L 195.547765 230.034286 
z
" style="fill:#fb4c52;opacity:0.7;"/>
   </g>
   <g id="patch_268">
    <path clip-path="url(#pd49d0442ba)" d="M 199.621457 230.4 
L 203.695149 230.4 
L 203.695149 229.668571 
L 199.621457 229.668571 
z
" style="fill:#fb4c52;opacity:0.7;"/>
   </g>
   <g id="patch_269">
    <path clip-path="url(#pd49d0442ba)" d="M 203.695149 230.4 
L 207.768842 230.4 
L 207.768842 228.937143 
L 203.695149 228.937143 
z
" style="fill:#fb4c52;opacity:0.7;"/>
   </g>
   <g id="patch_270">
    <path clip-path="url(#pd49d0442ba)" d="M 207.768842 230.4 
L 211.842534 230.4 
L 211.842534 227.84 
L 207.768842 227.84 
z
" style="fill:#fb4c52;opacity:0.7;"/>
   </g>
   <g id="patch_271">
    <path clip-path="url(#pd49d0442ba)" d="M 211.842534 230.4 
L 215.916226 230.4 
L 215.916226 226.011429 
L 211.842534 226.011429 
z
" style="fill:#fb4c52;opacity:0.7;"/>
   </g>
   <g id="patch_272">
    <path clip-path="url(#pd49d0442ba)" d="M 215.916226 230.4 
L 219.989918 230.4 
L 219.989918 226.742857 
L 215.916226 226.742857 
z
" style="fill:#fb4c52;opacity:0.7;"/>
   </g>
   <g id="patch_273">
    <path clip-path="url(#pd49d0442ba)" d="M 219.989918 230.4 
L 224.06361 230.4 
L 224.06361 222.72 
L 219.989918 222.72 
z
" style="fill:#fb4c52;opacity:0.7;"/>
   </g>
   <g id="patch_274">
    <path clip-path="url(#pd49d0442ba)" d="M 224.06361 230.4 
L 228.137302 230.4 
L 228.137302 224.914286 
L 224.06361 224.914286 
z
" style="fill:#fb4c52;opacity:0.7;"/>
   </g>
   <g id="patch_275">
    <path clip-path="url(#pd49d0442ba)" d="M 228.137302 230.4 
L 232.210995 230.4 
L 232.210995 223.451429 
L 228.137302 223.451429 
z
" style="fill:#fb4c52;opacity:0.7;"/>
   </g>
   <g id="patch_276">
    <path clip-path="url(#pd49d0442ba)" d="M 232.210995 230.4 
L 236.284687 230.4 
L 236.284687 217.6 
L 232.210995 217.6 
z
" style="fill:#fb4c52;opacity:0.7;"/>
   </g>
   <g id="patch_277">
    <path clip-path="url(#pd49d0442ba)" d="M 236.284687 230.4 
L 240.358379 230.4 
L 240.358379 214.308571 
L 236.284687 214.308571 
z
" style="fill:#fb4c52;opacity:0.7;"/>
   </g>
   <g id="patch_278">
    <path clip-path="url(#pd49d0442ba)" d="M 240.358379 230.4 
L 244.432071 230.4 
L 244.432071 208.457143 
L 240.358379 208.457143 
z
" style="fill:#fb4c52;opacity:0.7;"/>
   </g>
   <g id="patch_279">
    <path clip-path="url(#pd49d0442ba)" d="M 244.432071 230.4 
L 248.505763 230.4 
L 248.505763 209.188571 
L 244.432071 209.188571 
z
" style="fill:#fb4c52;opacity:0.7;"/>
   </g>
   <g id="patch_280">
    <path clip-path="url(#pd49d0442ba)" d="M 248.505763 230.4 
L 252.579455 230.4 
L 252.579455 206.628571 
L 248.505763 206.628571 
z
" style="fill:#fb4c52;opacity:0.7;"/>
   </g>
   <g id="patch_281">
    <path clip-path="url(#pd49d0442ba)" d="M 252.579455 230.4 
L 256.653147 230.4 
L 256.653147 202.605714 
L 252.579455 202.605714 
z
" style="fill:#fb4c52;opacity:0.7;"/>
   </g>
   <g id="patch_282">
    <path clip-path="url(#pd49d0442ba)" d="M 256.653147 230.4 
L 260.72684 230.4 
L 260.72684 186.148571 
L 256.653147 186.148571 
z
" style="fill:#fb4c52;opacity:0.7;"/>
   </g>
   <g id="patch_283">
    <path clip-path="url(#pd49d0442ba)" d="M 260.72684 230.4 
L 264.800532 230.4 
L 264.800532 179.931429 
L 260.72684 179.931429 
z
" style="fill:#fb4c52;opacity:0.7;"/>
   </g>
   <g id="patch_284">
    <path clip-path="url(#pd49d0442ba)" d="M 264.800532 230.4 
L 268.874224 230.4 
L 268.874224 168.96 
L 264.800532 168.96 
z
" style="fill:#fb4c52;opacity:0.7;"/>
   </g>
   <g id="patch_285">
    <path clip-path="url(#pd49d0442ba)" d="M 268.874224 230.4 
L 272.947916 230.4 
L 272.947916 158.354286 
L 268.874224 158.354286 
z
" style="fill:#fb4c52;opacity:0.7;"/>
   </g>
   <g id="patch_286">
    <path clip-path="url(#pd49d0442ba)" d="M 272.947916 230.4 
L 277.021608 230.4 
L 277.021608 149.577143 
L 272.947916 149.577143 
z
" style="fill:#fb4c52;opacity:0.7;"/>
   </g>
   <g id="patch_287">
    <path clip-path="url(#pd49d0442ba)" d="M 277.021608 230.4 
L 281.0953 230.4 
L 281.0953 130.194286 
L 277.021608 130.194286 
z
" style="fill:#fb4c52;opacity:0.7;"/>
   </g>
   <g id="patch_288">
    <path clip-path="url(#pd49d0442ba)" d="M 281.0953 230.4 
L 285.168992 230.4 
L 285.168992 126.171429 
L 281.0953 126.171429 
z
" style="fill:#fb4c52;opacity:0.7;"/>
   </g>
   <g id="patch_289">
    <path clip-path="url(#pd49d0442ba)" d="M 285.168992 230.4 
L 289.242685 230.4 
L 289.242685 109.714286 
L 285.168992 109.714286 
z
" style="fill:#fb4c52;opacity:0.7;"/>
   </g>
   <g id="patch_290">
    <path clip-path="url(#pd49d0442ba)" d="M 289.242685 230.4 
L 293.316377 230.4 
L 293.316377 94.354286 
L 289.242685 94.354286 
z
" style="fill:#fb4c52;opacity:0.7;"/>
   </g>
   <g id="patch_291">
    <path clip-path="url(#pd49d0442ba)" d="M 293.316377 230.4 
L 297.390069 230.4 
L 297.390069 71.68 
L 293.316377 71.68 
z
" style="fill:#fb4c52;opacity:0.7;"/>
   </g>
   <g id="patch_292">
    <path clip-path="url(#pd49d0442ba)" d="M 297.390069 230.4 
L 301.463761 230.4 
L 301.463761 81.188571 
L 297.390069 81.188571 
z
" style="fill:#fb4c52;opacity:0.7;"/>
   </g>
   <g id="patch_293">
    <path clip-path="url(#pd49d0442ba)" d="M 301.463761 230.4 
L 305.537453 230.4 
L 305.537453 55.588571 
L 301.463761 55.588571 
z
" style="fill:#fb4c52;opacity:0.7;"/>
   </g>
   <g id="patch_294">
    <path clip-path="url(#pd49d0442ba)" d="M 305.537453 230.4 
L 309.611145 230.4 
L 309.611145 49.371429 
L 305.537453 49.371429 
z
" style="fill:#fb4c52;opacity:0.7;"/>
   </g>
   <g id="patch_295">
    <path clip-path="url(#pd49d0442ba)" d="M 309.611145 230.4 
L 313.684838 230.4 
L 313.684838 38.4 
L 309.611145 38.4 
z
" style="fill:#fb4c52;opacity:0.7;"/>
   </g>
   <g id="patch_296">
    <path clip-path="url(#pd49d0442ba)" d="M 313.684838 230.4 
L 317.75853 230.4 
L 317.75853 45.348571 
L 313.684838 45.348571 
z
" style="fill:#fb4c52;opacity:0.7;"/>
   </g>
   <g id="patch_297">
    <path clip-path="url(#pd49d0442ba)" d="M 317.75853 230.4 
L 321.832222 230.4 
L 321.832222 46.811429 
L 317.75853 46.811429 
z
" style="fill:#fb4c52;opacity:0.7;"/>
   </g>
   <g id="patch_298">
    <path clip-path="url(#pd49d0442ba)" d="M 321.832222 230.4 
L 325.905914 230.4 
L 325.905914 66.925714 
L 321.832222 66.925714 
z
" style="fill:#fb4c52;opacity:0.7;"/>
   </g>
   <g id="patch_299">
    <path clip-path="url(#pd49d0442ba)" d="M 325.905914 230.4 
L 329.979606 230.4 
L 329.979606 69.485714 
L 325.905914 69.485714 
z
" style="fill:#fb4c52;opacity:0.7;"/>
   </g>
   <g id="patch_300">
    <path clip-path="url(#pd49d0442ba)" d="M 329.979606 230.4 
L 334.053298 230.4 
L 334.053298 73.142857 
L 329.979606 73.142857 
z
" style="fill:#fb4c52;opacity:0.7;"/>
   </g>
   <g id="patch_301">
    <path clip-path="url(#pd49d0442ba)" d="M 334.053298 230.4 
L 338.12699 230.4 
L 338.12699 87.771429 
L 334.053298 87.771429 
z
" style="fill:#fb4c52;opacity:0.7;"/>
   </g>
   <g id="patch_302">
    <path clip-path="url(#pd49d0442ba)" d="M 338.12699 230.4 
L 342.200683 230.4 
L 342.200683 99.108571 
L 338.12699 99.108571 
z
" style="fill:#fb4c52;opacity:0.7;"/>
   </g>
   <g id="patch_303">
    <path clip-path="url(#pd49d0442ba)" d="M 342.200683 230.4 
L 346.274375 230.4 
L 346.274375 113.371429 
L 342.200683 113.371429 
z
" style="fill:#fb4c52;opacity:0.7;"/>
   </g>
   <g id="patch_304">
    <path clip-path="url(#pd49d0442ba)" d="M 346.274375 230.4 
L 350.348067 230.4 
L 350.348067 138.24 
L 346.274375 138.24 
z
" style="fill:#fb4c52;opacity:0.7;"/>
   </g>
   <g id="patch_305">
    <path clip-path="url(#pd49d0442ba)" d="M 350.348067 230.4 
L 354.421759 230.4 
L 354.421759 137.142857 
L 350.348067 137.142857 
z
" style="fill:#fb4c52;opacity:0.7;"/>
   </g>
   <g id="patch_306">
    <path clip-path="url(#pd49d0442ba)" d="M 354.421759 230.4 
L 358.495451 230.4 
L 358.495451 158.354286 
L 354.421759 158.354286 
z
" style="fill:#fb4c52;opacity:0.7;"/>
   </g>
   <g id="patch_307">
    <path clip-path="url(#pd49d0442ba)" d="M 358.495451 230.4 
L 362.569143 230.4 
L 362.569143 165.668571 
L 358.495451 165.668571 
z
" style="fill:#fb4c52;opacity:0.7;"/>
   </g>
   <g id="patch_308">
    <path clip-path="url(#pd49d0442ba)" d="M 362.569143 230.4 
L 366.642835 230.4 
L 366.642835 162.742857 
L 362.569143 162.742857 
z
" style="fill:#fb4c52;opacity:0.7;"/>
   </g>
   <g id="patch_309">
    <path clip-path="url(#pd49d0442ba)" d="M 366.642835 230.4 
L 370.716528 230.4 
L 370.716528 190.171429 
L 366.642835 190.171429 
z
" style="fill:#fb4c52;opacity:0.7;"/>
   </g>
   <g id="patch_310">
    <path clip-path="url(#pd49d0442ba)" d="M 370.716528 230.4 
L 374.79022 230.4 
L 374.79022 191.634286 
L 370.716528 191.634286 
z
" style="fill:#fb4c52;opacity:0.7;"/>
   </g>
   <g id="patch_311">
    <path clip-path="url(#pd49d0442ba)" d="M 374.79022 230.4 
L 378.863912 230.4 
L 378.863912 197.485714 
L 374.79022 197.485714 
z
" style="fill:#fb4c52;opacity:0.7;"/>
   </g>
   <g id="patch_312">
    <path clip-path="url(#pd49d0442ba)" d="M 378.863912 230.4 
L 382.937604 230.4 
L 382.937604 202.971429 
L 378.863912 202.971429 
z
" style="fill:#fb4c52;opacity:0.7;"/>
   </g>
   <g id="patch_313">
    <path clip-path="url(#pd49d0442ba)" d="M 382.937604 230.4 
L 387.011296 230.4 
L 387.011296 208.457143 
L 382.937604 208.457143 
z
" style="fill:#fb4c52;opacity:0.7;"/>
   </g>
   <g id="patch_314">
    <path clip-path="url(#pd49d0442ba)" d="M 387.011296 230.4 
L 391.084988 230.4 
L 391.084988 212.845714 
L 387.011296 212.845714 
z
" style="fill:#fb4c52;opacity:0.7;"/>
   </g>
   <g id="patch_315">
    <path clip-path="url(#pd49d0442ba)" d="M 391.084988 230.4 
L 395.158681 230.4 
L 395.158681 212.114286 
L 391.084988 212.114286 
z
" style="fill:#fb4c52;opacity:0.7;"/>
   </g>
   <g id="patch_316">
    <path clip-path="url(#pd49d0442ba)" d="M 395.158681 230.4 
L 399.232373 230.4 
L 399.232373 221.257143 
L 395.158681 221.257143 
z
" style="fill:#fb4c52;opacity:0.7;"/>
   </g>
   <g id="patch_317">
    <path clip-path="url(#pd49d0442ba)" d="M 399.232373 230.4 
L 403.306065 230.4 
L 403.306065 221.988571 
L 399.232373 221.988571 
z
" style="fill:#fb4c52;opacity:0.7;"/>
   </g>
   <g id="patch_318">
    <path clip-path="url(#pd49d0442ba)" d="M 403.306065 230.4 
L 407.379757 230.4 
L 407.379757 223.817143 
L 403.306065 223.817143 
z
" style="fill:#fb4c52;opacity:0.7;"/>
   </g>
   <g id="patch_319">
    <path clip-path="url(#pd49d0442ba)" d="M 407.379757 230.4 
L 411.453449 230.4 
L 411.453449 224.914286 
L 407.379757 224.914286 
z
" style="fill:#fb4c52;opacity:0.7;"/>
   </g>
   <g id="patch_320">
    <path clip-path="url(#pd49d0442ba)" d="M 411.453449 230.4 
L 415.527141 230.4 
L 415.527141 227.474286 
L 411.453449 227.474286 
z
" style="fill:#fb4c52;opacity:0.7;"/>
   </g>
   <g id="patch_321">
    <path clip-path="url(#pd49d0442ba)" d="M 415.527141 230.4 
L 419.600833 230.4 
L 419.600833 227.84 
L 415.527141 227.84 
z
" style="fill:#fb4c52;opacity:0.7;"/>
   </g>
   <g id="patch_322">
    <path clip-path="url(#pd49d0442ba)" d="M 419.600833 230.4 
L 423.674526 230.4 
L 423.674526 229.668571 
L 419.600833 229.668571 
z
" style="fill:#fb4c52;opacity:0.7;"/>
   </g>
   <g id="patch_323">
    <path clip-path="url(#pd49d0442ba)" d="M 423.674526 230.4 
L 427.748218 230.4 
L 427.748218 227.474286 
L 423.674526 227.474286 
z
" style="fill:#fb4c52;opacity:0.7;"/>
   </g>
   <g id="patch_324">
    <path clip-path="url(#pd49d0442ba)" d="M 427.748218 230.4 
L 431.82191 230.4 
L 431.82191 230.034286 
L 427.748218 230.034286 
z
" style="fill:#fb4c52;opacity:0.7;"/>
   </g>
   <g id="patch_325">
    <path clip-path="url(#pd49d0442ba)" d="M 431.82191 230.4 
L 435.895602 230.4 
L 435.895602 230.034286 
L 431.82191 230.034286 
z
" style="fill:#fb4c52;opacity:0.7;"/>
   </g>
   <g id="patch_326">
    <path clip-path="url(#pd49d0442ba)" d="M 435.895602 230.4 
L 439.969294 230.4 
L 439.969294 230.4 
L 435.895602 230.4 
z
" style="fill:#fb4c52;opacity:0.7;"/>
   </g>
   <g id="patch_327">
    <path clip-path="url(#pd49d0442ba)" d="M 439.969294 230.4 
L 444.042986 230.4 
L 444.042986 228.937143 
L 439.969294 228.937143 
z
" style="fill:#fb4c52;opacity:0.7;"/>
   </g>
   <g id="patch_328">
    <path clip-path="url(#pd49d0442ba)" d="M 444.042986 230.4 
L 448.116678 230.4 
L 448.116678 230.4 
L 444.042986 230.4 
z
" style="fill:#fb4c52;opacity:0.7;"/>
   </g>
   <g id="patch_329">
    <path clip-path="url(#pd49d0442ba)" d="M 448.116678 230.4 
L 452.190371 230.4 
L 452.190371 230.034286 
L 448.116678 230.034286 
z
" style="fill:#fb4c52;opacity:0.7;"/>
   </g>
   <g id="patch_330">
    <path clip-path="url(#pd49d0442ba)" d="M 452.190371 230.4 
L 456.264063 230.4 
L 456.264063 230.034286 
L 452.190371 230.034286 
z
" style="fill:#fb4c52;opacity:0.7;"/>
   </g>
   <g id="patch_331">
    <path clip-path="url(#pd49d0442ba)" d="M 456.264063 230.4 
L 460.337755 230.4 
L 460.337755 230.4 
L 456.264063 230.4 
z
" style="fill:#fb4c52;opacity:0.7;"/>
   </g>
   <g id="patch_332">
    <path clip-path="url(#pd49d0442ba)" d="M 460.337755 230.4 
L 464.411447 230.4 
L 464.411447 230.4 
L 460.337755 230.4 
z
" style="fill:#fb4c52;opacity:0.7;"/>
   </g>
   <g id="patch_333">
    <path clip-path="url(#pd49d0442ba)" d="M 464.411447 230.4 
L 468.485139 230.4 
L 468.485139 230.034286 
L 464.411447 230.034286 
z
" style="fill:#fb4c52;opacity:0.7;"/>
   </g>
   <g id="patch_334">
    <path clip-path="url(#pd49d0442ba)" d="M 468.485139 230.4 
L 472.558831 230.4 
L 472.558831 230.4 
L 468.485139 230.4 
z
" style="fill:#fb4c52;opacity:0.7;"/>
   </g>
   <g id="patch_335">
    <path clip-path="url(#pd49d0442ba)" d="M 472.558831 230.4 
L 476.632524 230.4 
L 476.632524 230.4 
L 472.558831 230.4 
z
" style="fill:#fb4c52;opacity:0.7;"/>
   </g>
   <g id="patch_336">
    <path clip-path="url(#pd49d0442ba)" d="M 476.632524 230.4 
L 480.706216 230.4 
L 480.706216 230.4 
L 476.632524 230.4 
z
" style="fill:#fb4c52;opacity:0.7;"/>
   </g>
   <g id="patch_337">
    <path clip-path="url(#pd49d0442ba)" d="M 480.706216 230.4 
L 484.779908 230.4 
L 484.779908 230.4 
L 480.706216 230.4 
z
" style="fill:#fb4c52;opacity:0.7;"/>
   </g>
   <g id="patch_338">
    <path clip-path="url(#pd49d0442ba)" d="M 484.779908 230.4 
L 488.8536 230.4 
L 488.8536 230.034286 
L 484.779908 230.034286 
z
" style="fill:#fb4c52;opacity:0.7;"/>
   </g>
   <g id="patch_339">
    <path clip-path="url(#pd49d0442ba)" d="M 488.8536 230.4 
L 492.927292 230.4 
L 492.927292 230.4 
L 488.8536 230.4 
z
" style="fill:#fb4c52;opacity:0.7;"/>
   </g>
   <g id="patch_340">
    <path clip-path="url(#pd49d0442ba)" d="M 492.927292 230.4 
L 497.000984 230.4 
L 497.000984 230.4 
L 492.927292 230.4 
z
" style="fill:#fb4c52;opacity:0.7;"/>
   </g>
   <g id="patch_341">
    <path clip-path="url(#pd49d0442ba)" d="M 497.000984 230.4 
L 501.074676 230.4 
L 501.074676 230.034286 
L 497.000984 230.034286 
z
" style="fill:#fb4c52;opacity:0.7;"/>
   </g>
   <g id="matplotlib.axis_7"/>
   <g id="line2d_4">
    <path clip-path="url(#pd49d0442ba)" d="M 315.714913 230.4 
L 315.714913 28.8 
" style="fill:none;stroke:#ce4ad0;stroke-dasharray:7.4,3.2;stroke-dashoffset:0;stroke-width:2;"/>
   </g>
   <g id="patch_342">
    <path d="M 4.32 230.4 
L 427.68 230.4 
" style="fill:none;stroke:#222222;stroke-linecap:square;stroke-linejoin:miter;"/>
   </g>
  </g>
 </g>
 <defs>
  <clipPath id="pd49d0442ba">
   <rect height="201.6" width="423.36" x="4.32" y="28.8"/>
  </clipPath>
 </defs>
</svg>
