<?xml version="1.0" encoding="utf-8" standalone="no"?>
<!DOCTYPE svg PUBLIC "-//W3C//DTD SVG 1.1//EN"
  "http://www.w3.org/Graphics/SVG/1.1/DTD/svg11.dtd">
<!-- Created with matplotlib (http://matplotlib.org/) -->
<svg height="288pt" version="1.1" viewBox="0 0 432 288" width="432pt" xmlns="http://www.w3.org/2000/svg" xmlns:xlink="http://www.w3.org/1999/xlink">
 <defs>
  <style type="text/css">
*{stroke-linecap:butt;stroke-linejoin:round;}
  </style>
 </defs>
 <g id="figure_1">
  <g id="patch_1">
   <path d="M 0 288 
L 432 288 
L 432 0 
L 0 0 
z
" style="fill:none;"/>
  </g>
  <g id="axes_1">
   <g id="patch_2">
    <path d="M 4.32 244.8 
L 414.72 244.8 
L 414.72 28.8 
L 4.32 28.8 
z
" style="fill:none;"/>
   </g>
   <g id="patch_3">
    <path clip-path="url(#p4d4e6cb64c)" d="M 79.413523 244.8 
L 84.762619 244.8 
L 84.762619 243.594643 
L 79.413523 243.594643 
z
" style="fill:#00bfff;"/>
   </g>
   <g id="patch_4">
    <path clip-path="url(#p4d4e6cb64c)" d="M 84.762619 244.8 
L 90.111715 244.8 
L 90.111715 244.8 
L 84.762619 244.8 
z
" style="fill:#00bfff;"/>
   </g>
   <g id="patch_5">
    <path clip-path="url(#p4d4e6cb64c)" d="M 90.111715 244.8 
L 95.46081 244.8 
L 95.46081 244.398214 
L 90.111715 244.398214 
z
" style="fill:#00bfff;"/>
   </g>
   <g id="patch_6">
    <path clip-path="url(#p4d4e6cb64c)" d="M 95.46081 244.8 
L 100.809906 244.8 
L 100.809906 244.398214 
L 95.46081 244.398214 
z
" style="fill:#00bfff;"/>
   </g>
   <g id="patch_7">
    <path clip-path="url(#p4d4e6cb64c)" d="M 100.809906 244.8 
L 106.159001 244.8 
L 106.159001 243.996429 
L 100.809906 243.996429 
z
" style="fill:#00bfff;"/>
   </g>
   <g id="patch_8">
    <path clip-path="url(#p4d4e6cb64c)" d="M 106.159001 244.8 
L 111.508097 244.8 
L 111.508097 243.996429 
L 106.159001 243.996429 
z
" style="fill:#00bfff;"/>
   </g>
   <g id="patch_9">
    <path clip-path="url(#p4d4e6cb64c)" d="M 111.508097 244.8 
L 116.857193 244.8 
L 116.857193 242.791071 
L 111.508097 242.791071 
z
" style="fill:#00bfff;"/>
   </g>
   <g id="patch_10">
    <path clip-path="url(#p4d4e6cb64c)" d="M 116.857193 244.8 
L 122.206288 244.8 
L 122.206288 241.183929 
L 116.857193 241.183929 
z
" style="fill:#00bfff;"/>
   </g>
   <g id="patch_11">
    <path clip-path="url(#p4d4e6cb64c)" d="M 122.206288 244.8 
L 127.555384 244.8 
L 127.555384 241.183929 
L 122.206288 241.183929 
z
" style="fill:#00bfff;"/>
   </g>
   <g id="patch_12">
    <path clip-path="url(#p4d4e6cb64c)" d="M 127.555384 244.8 
L 132.90448 244.8 
L 132.90448 240.380357 
L 127.555384 240.380357 
z
" style="fill:#00bfff;"/>
   </g>
   <g id="patch_13">
    <path clip-path="url(#p4d4e6cb64c)" d="M 132.90448 244.8 
L 138.253575 244.8 
L 138.253575 240.782143 
L 132.90448 240.782143 
z
" style="fill:#00bfff;"/>
   </g>
   <g id="patch_14">
    <path clip-path="url(#p4d4e6cb64c)" d="M 138.253575 244.8 
L 143.602671 244.8 
L 143.602671 238.773214 
L 138.253575 238.773214 
z
" style="fill:#00bfff;"/>
   </g>
   <g id="patch_15">
    <path clip-path="url(#p4d4e6cb64c)" d="M 143.602671 244.8 
L 148.951766 244.8 
L 148.951766 234.755357 
L 143.602671 234.755357 
z
" style="fill:#00bfff;"/>
   </g>
   <g id="patch_16">
    <path clip-path="url(#p4d4e6cb64c)" d="M 148.951766 244.8 
L 154.300862 244.8 
L 154.300862 229.933929 
L 148.951766 229.933929 
z
" style="fill:#00bfff;"/>
   </g>
   <g id="patch_17">
    <path clip-path="url(#p4d4e6cb64c)" d="M 154.300862 244.8 
L 159.649958 244.8 
L 159.649958 226.719643 
L 154.300862 226.719643 
z
" style="fill:#00bfff;"/>
   </g>
   <g id="patch_18">
    <path clip-path="url(#p4d4e6cb64c)" d="M 159.649958 244.8 
L 164.999053 244.8 
L 164.999053 219.085714 
L 159.649958 219.085714 
z
" style="fill:#00bfff;"/>
   </g>
   <g id="patch_19">
    <path clip-path="url(#p4d4e6cb64c)" d="M 164.999053 244.8 
L 170.348149 244.8 
L 170.348149 216.675 
L 164.999053 216.675 
z
" style="fill:#00bfff;"/>
   </g>
   <g id="patch_20">
    <path clip-path="url(#p4d4e6cb64c)" d="M 170.348149 244.8 
L 175.697244 244.8 
L 175.697244 204.219643 
L 170.348149 204.219643 
z
" style="fill:#00bfff;"/>
   </g>
   <g id="patch_21">
    <path clip-path="url(#p4d4e6cb64c)" d="M 175.697244 244.8 
L 181.04634 244.8 
L 181.04634 188.55 
L 175.697244 188.55 
z
" style="fill:#00bfff;"/>
   </g>
   <g id="patch_22">
    <path clip-path="url(#p4d4e6cb64c)" d="M 181.04634 244.8 
L 186.395436 244.8 
L 186.395436 190.960714 
L 181.04634 190.960714 
z
" style="fill:#00bfff;"/>
   </g>
   <g id="patch_23">
    <path clip-path="url(#p4d4e6cb64c)" d="M 186.395436 244.8 
L 191.744531 244.8 
L 191.744531 171.675 
L 186.395436 171.675 
z
" style="fill:#00bfff;"/>
   </g>
   <g id="patch_24">
    <path clip-path="url(#p4d4e6cb64c)" d="M 191.744531 244.8 
L 197.093627 244.8 
L 197.093627 153.192857 
L 191.744531 153.192857 
z
" style="fill:#00bfff;"/>
   </g>
   <g id="patch_25">
    <path clip-path="url(#p4d4e6cb64c)" d="M 197.093627 244.8 
L 202.442722 244.8 
L 202.442722 143.148214 
L 197.093627 143.148214 
z
" style="fill:#00bfff;"/>
   </g>
   <g id="patch_26">
    <path clip-path="url(#p4d4e6cb64c)" d="M 202.442722 244.8 
L 207.791818 244.8 
L 207.791818 133.103571 
L 202.442722 133.103571 
z
" style="fill:#00bfff;"/>
   </g>
   <g id="patch_27">
    <path clip-path="url(#p4d4e6cb64c)" d="M 207.791818 244.8 
L 213.140914 244.8 
L 213.140914 108.996429 
L 207.791818 108.996429 
z
" style="fill:#00bfff;"/>
   </g>
   <g id="patch_28">
    <path clip-path="url(#p4d4e6cb64c)" d="M 213.140914 244.8 
L 218.490009 244.8 
L 218.490009 88.103571 
L 213.140914 88.103571 
z
" style="fill:#00bfff;"/>
   </g>
   <g id="patch_29">
    <path clip-path="url(#p4d4e6cb64c)" d="M 218.490009 244.8 
L 223.839105 244.8 
L 223.839105 91.719643 
L 218.490009 91.719643 
z
" style="fill:#00bfff;"/>
   </g>
   <g id="patch_30">
    <path clip-path="url(#p4d4e6cb64c)" d="M 223.839105 244.8 
L 229.1882 244.8 
L 229.1882 59.175 
L 223.839105 59.175 
z
" style="fill:#00bfff;"/>
   </g>
   <g id="patch_31">
    <path clip-path="url(#p4d4e6cb64c)" d="M 229.1882 244.8 
L 234.537296 244.8 
L 234.537296 57.969643 
L 229.1882 57.969643 
z
" style="fill:#00bfff;"/>
   </g>
   <g id="patch_32">
    <path clip-path="url(#p4d4e6cb64c)" d="M 234.537296 244.8 
L 239.886392 244.8 
L 239.886392 55.157143 
L 234.537296 55.157143 
z
" style="fill:#00bfff;"/>
   </g>
   <g id="patch_33">
    <path clip-path="url(#p4d4e6cb64c)" d="M 239.886392 244.8 
L 245.235487 244.8 
L 245.235487 40.291071 
L 239.886392 40.291071 
z
" style="fill:#00bfff;"/>
   </g>
   <g id="patch_34">
    <path clip-path="url(#p4d4e6cb64c)" d="M 245.235487 244.8 
L 250.584583 244.8 
L 250.584583 39.085714 
L 245.235487 39.085714 
z
" style="fill:#00bfff;"/>
   </g>
   <g id="patch_35">
    <path clip-path="url(#p4d4e6cb64c)" d="M 250.584583 244.8 
L 255.933679 244.8 
L 255.933679 48.728571 
L 250.584583 48.728571 
z
" style="fill:#00bfff;"/>
   </g>
   <g id="patch_36">
    <path clip-path="url(#p4d4e6cb64c)" d="M 255.933679 244.8 
L 261.282774 244.8 
L 261.282774 63.594643 
L 255.933679 63.594643 
z
" style="fill:#00bfff;"/>
   </g>
   <g id="patch_37">
    <path clip-path="url(#p4d4e6cb64c)" d="M 261.282774 244.8 
L 266.63187 244.8 
L 266.63187 60.380357 
L 261.282774 60.380357 
z
" style="fill:#00bfff;"/>
   </g>
   <g id="patch_38">
    <path clip-path="url(#p4d4e6cb64c)" d="M 266.63187 244.8 
L 271.980965 244.8 
L 271.980965 56.3625 
L 266.63187 56.3625 
z
" style="fill:#00bfff;"/>
   </g>
   <g id="patch_39">
    <path clip-path="url(#p4d4e6cb64c)" d="M 271.980965 244.8 
L 277.330061 244.8 
L 277.330061 79.264286 
L 271.980965 79.264286 
z
" style="fill:#00bfff;"/>
   </g>
   <g id="patch_40">
    <path clip-path="url(#p4d4e6cb64c)" d="M 277.330061 244.8 
L 282.679157 244.8 
L 282.679157 86.496429 
L 277.330061 86.496429 
z
" style="fill:#00bfff;"/>
   </g>
   <g id="patch_41">
    <path clip-path="url(#p4d4e6cb64c)" d="M 282.679157 244.8 
L 288.028252 244.8 
L 288.028252 105.782143 
L 282.679157 105.782143 
z
" style="fill:#00bfff;"/>
   </g>
   <g id="patch_42">
    <path clip-path="url(#p4d4e6cb64c)" d="M 288.028252 244.8 
L 293.377348 244.8 
L 293.377348 118.639286 
L 288.028252 118.639286 
z
" style="fill:#00bfff;"/>
   </g>
   <g id="patch_43">
    <path clip-path="url(#p4d4e6cb64c)" d="M 293.377348 244.8 
L 298.726443 244.8 
L 298.726443 130.692857 
L 293.377348 130.692857 
z
" style="fill:#00bfff;"/>
   </g>
   <g id="patch_44">
    <path clip-path="url(#p4d4e6cb64c)" d="M 298.726443 244.8 
L 304.075539 244.8 
L 304.075539 145.558929 
L 298.726443 145.558929 
z
" style="fill:#00bfff;"/>
   </g>
   <g id="patch_45">
    <path clip-path="url(#p4d4e6cb64c)" d="M 304.075539 244.8 
L 309.424635 244.8 
L 309.424635 169.264286 
L 304.075539 169.264286 
z
" style="fill:#00bfff;"/>
   </g>
   <g id="patch_46">
    <path clip-path="url(#p4d4e6cb64c)" d="M 309.424635 244.8 
L 314.77373 244.8 
L 314.77373 172.880357 
L 309.424635 172.880357 
z
" style="fill:#00bfff;"/>
   </g>
   <g id="patch_47">
    <path clip-path="url(#p4d4e6cb64c)" d="M 314.77373 244.8 
L 320.122826 244.8 
L 320.122826 179.710714 
L 314.77373 179.710714 
z
" style="fill:#00bfff;"/>
   </g>
   <g id="patch_48">
    <path clip-path="url(#p4d4e6cb64c)" d="M 320.122826 244.8 
L 325.471921 244.8 
L 325.471921 200.603571 
L 320.122826 200.603571 
z
" style="fill:#00bfff;"/>
   </g>
   <g id="patch_49">
    <path clip-path="url(#p4d4e6cb64c)" d="M 325.471921 244.8 
L 330.821017 244.8 
L 330.821017 205.425 
L 325.471921 205.425 
z
" style="fill:#00bfff;"/>
   </g>
   <g id="patch_50">
    <path clip-path="url(#p4d4e6cb64c)" d="M 330.821017 244.8 
L 336.170113 244.8 
L 336.170113 218.683929 
L 330.821017 218.683929 
z
" style="fill:#00bfff;"/>
   </g>
   <g id="patch_51">
    <path clip-path="url(#p4d4e6cb64c)" d="M 336.170113 244.8 
L 341.519208 244.8 
L 341.519208 227.121429 
L 336.170113 227.121429 
z
" style="fill:#00bfff;"/>
   </g>
   <g id="patch_52">
    <path clip-path="url(#p4d4e6cb64c)" d="M 341.519208 244.8 
L 346.868304 244.8 
L 346.868304 232.344643 
L 341.519208 232.344643 
z
" style="fill:#00bfff;"/>
   </g>
   <g id="patch_53">
    <path clip-path="url(#p4d4e6cb64c)" d="M 346.868304 244.8 
L 352.2174 244.8 
L 352.2174 233.55 
L 346.868304 233.55 
z
" style="fill:#00bfff;"/>
   </g>
   <g id="patch_54">
    <path clip-path="url(#p4d4e6cb64c)" d="M 352.2174 244.8 
L 357.566495 244.8 
L 357.566495 233.55 
L 352.2174 233.55 
z
" style="fill:#00bfff;"/>
   </g>
   <g id="patch_55">
    <path clip-path="url(#p4d4e6cb64c)" d="M 357.566495 244.8 
L 362.915591 244.8 
L 362.915591 238.773214 
L 357.566495 238.773214 
z
" style="fill:#00bfff;"/>
   </g>
   <g id="patch_56">
    <path clip-path="url(#p4d4e6cb64c)" d="M 362.915591 244.8 
L 368.264686 244.8 
L 368.264686 239.978571 
L 362.915591 239.978571 
z
" style="fill:#00bfff;"/>
   </g>
   <g id="patch_57">
    <path clip-path="url(#p4d4e6cb64c)" d="M 368.264686 244.8 
L 373.613782 244.8 
L 373.613782 239.576786 
L 368.264686 239.576786 
z
" style="fill:#00bfff;"/>
   </g>
   <g id="patch_58">
    <path clip-path="url(#p4d4e6cb64c)" d="M 373.613782 244.8 
L 378.962878 244.8 
L 378.962878 243.594643 
L 373.613782 243.594643 
z
" style="fill:#00bfff;"/>
   </g>
   <g id="patch_59">
    <path clip-path="url(#p4d4e6cb64c)" d="M 378.962878 244.8 
L 384.311973 244.8 
L 384.311973 242.791071 
L 378.962878 242.791071 
z
" style="fill:#00bfff;"/>
   </g>
   <g id="patch_60">
    <path clip-path="url(#p4d4e6cb64c)" d="M 384.311973 244.8 
L 389.661069 244.8 
L 389.661069 244.8 
L 384.311973 244.8 
z
" style="fill:#00bfff;"/>
   </g>
   <g id="patch_61">
    <path clip-path="url(#p4d4e6cb64c)" d="M 389.661069 244.8 
L 395.010164 244.8 
L 395.010164 244.398214 
L 389.661069 244.398214 
z
" style="fill:#00bfff;"/>
   </g>
   <g id="matplotlib.axis_1">
    <g id="xtick_1">
     <g id="line2d_1">
      <defs>
       <path d="M 0 0 
L 0 4 
" id="m8d3015a97d" style="stroke:#222222;"/>
      </defs>
      <g>
       <use style="fill:#222222;stroke:#222222;" x="4.32" xlink:href="#m8d3015a97d" y="244.8"/>
      </g>
     </g>
     <g id="text_1">
      <!-- −0.3 -->
      <defs>
       <path d="M 10.59375 35.5 
L 73.1875 35.5 
L 73.1875 27.203125 
L 10.59375 27.203125 
z
" id="DejaVuSans-2212"/>
       <path d="M 31.78125 66.40625 
Q 24.171875 66.40625 20.328125 58.90625 
Q 16.5 51.421875 16.5 36.375 
Q 16.5 21.390625 20.328125 13.890625 
Q 24.171875 6.390625 31.78125 6.390625 
Q 39.453125 6.390625 43.28125 13.890625 
Q 47.125 21.390625 47.125 36.375 
Q 47.125 51.421875 43.28125 58.90625 
Q 39.453125 66.40625 31.78125 66.40625 
z
M 31.78125 74.21875 
Q 44.046875 74.21875 50.515625 64.515625 
Q 56.984375 54.828125 56.984375 36.375 
Q 56.984375 17.96875 50.515625 8.265625 
Q 44.046875 -1.421875 31.78125 -1.421875 
Q 19.53125 -1.421875 13.0625 8.265625 
Q 6.59375 17.96875 6.59375 36.375 
Q 6.59375 54.828125 13.0625 64.515625 
Q 19.53125 74.21875 31.78125 74.21875 
z
" id="DejaVuSans-30"/>
       <path d="M 10.6875 12.40625 
L 21 12.40625 
L 21 0 
L 10.6875 0 
z
" id="DejaVuSans-2e"/>
       <path d="M 40.578125 39.3125 
Q 47.65625 37.796875 51.625 33 
Q 55.609375 28.21875 55.609375 21.1875 
Q 55.609375 10.40625 48.1875 4.484375 
Q 40.765625 -1.421875 27.09375 -1.421875 
Q 22.515625 -1.421875 17.65625 -0.515625 
Q 12.796875 0.390625 7.625 2.203125 
L 7.625 11.71875 
Q 11.71875 9.328125 16.59375 8.109375 
Q 21.484375 6.890625 26.8125 6.890625 
Q 36.078125 6.890625 40.9375 10.546875 
Q 45.796875 14.203125 45.796875 21.1875 
Q 45.796875 27.640625 41.28125 31.265625 
Q 36.765625 34.90625 28.71875 34.90625 
L 20.21875 34.90625 
L 20.21875 43.015625 
L 29.109375 43.015625 
Q 36.375 43.015625 40.234375 45.921875 
Q 44.09375 48.828125 44.09375 54.296875 
Q 44.09375 59.90625 40.109375 62.90625 
Q 36.140625 65.921875 28.71875 65.921875 
Q 24.65625 65.921875 20.015625 65.03125 
Q 15.375 64.15625 9.8125 62.3125 
L 9.8125 71.09375 
Q 15.4375 72.65625 20.34375 73.4375 
Q 25.25 74.21875 29.59375 74.21875 
Q 40.828125 74.21875 47.359375 69.109375 
Q 53.90625 64.015625 53.90625 55.328125 
Q 53.90625 49.265625 50.4375 45.09375 
Q 46.96875 40.921875 40.578125 39.3125 
z
" id="DejaVuSans-33"/>
      </defs>
      <g style="fill:#222222;" transform="translate(-11.463828 262.677969)scale(0.13 -0.13)">
       <use xlink:href="#DejaVuSans-2212"/>
       <use x="83.789062" xlink:href="#DejaVuSans-30"/>
       <use x="147.412109" xlink:href="#DejaVuSans-2e"/>
       <use x="179.199219" xlink:href="#DejaVuSans-33"/>
      </g>
     </g>
    </g>
    <g id="xtick_2">
     <g id="line2d_2">
      <g>
       <use style="fill:#222222;stroke:#222222;" x="86.4" xlink:href="#m8d3015a97d" y="244.8"/>
      </g>
     </g>
     <g id="text_2">
      <!-- −0.2 -->
      <defs>
       <path d="M 19.1875 8.296875 
L 53.609375 8.296875 
L 53.609375 0 
L 7.328125 0 
L 7.328125 8.296875 
Q 12.9375 14.109375 22.625 23.890625 
Q 32.328125 33.6875 34.8125 36.53125 
Q 39.546875 41.84375 41.421875 45.53125 
Q 43.3125 49.21875 43.3125 52.78125 
Q 43.3125 58.59375 39.234375 62.25 
Q 35.15625 65.921875 28.609375 65.921875 
Q 23.96875 65.921875 18.8125 64.3125 
Q 13.671875 62.703125 7.8125 59.421875 
L 7.8125 69.390625 
Q 13.765625 71.78125 18.9375 73 
Q 24.125 74.21875 28.421875 74.21875 
Q 39.75 74.21875 46.484375 68.546875 
Q 53.21875 62.890625 53.21875 53.421875 
Q 53.21875 48.921875 51.53125 44.890625 
Q 49.859375 40.875 45.40625 35.40625 
Q 44.1875 33.984375 37.640625 27.21875 
Q 31.109375 20.453125 19.1875 8.296875 
z
" id="DejaVuSans-32"/>
      </defs>
      <g style="fill:#222222;" transform="translate(70.616172 262.677969)scale(0.13 -0.13)">
       <use xlink:href="#DejaVuSans-2212"/>
       <use x="83.789062" xlink:href="#DejaVuSans-30"/>
       <use x="147.412109" xlink:href="#DejaVuSans-2e"/>
       <use x="179.199219" xlink:href="#DejaVuSans-32"/>
      </g>
     </g>
    </g>
    <g id="xtick_3">
     <g id="line2d_3">
      <g>
       <use style="fill:#222222;stroke:#222222;" x="168.48" xlink:href="#m8d3015a97d" y="244.8"/>
      </g>
     </g>
     <g id="text_3">
      <!-- −0.1 -->
      <defs>
       <path d="M 12.40625 8.296875 
L 28.515625 8.296875 
L 28.515625 63.921875 
L 10.984375 60.40625 
L 10.984375 69.390625 
L 28.421875 72.90625 
L 38.28125 72.90625 
L 38.28125 8.296875 
L 54.390625 8.296875 
L 54.390625 0 
L 12.40625 0 
z
" id="DejaVuSans-31"/>
      </defs>
      <g style="fill:#222222;" transform="translate(152.696172 262.677969)scale(0.13 -0.13)">
       <use xlink:href="#DejaVuSans-2212"/>
       <use x="83.789062" xlink:href="#DejaVuSans-30"/>
       <use x="147.412109" xlink:href="#DejaVuSans-2e"/>
       <use x="179.199219" xlink:href="#DejaVuSans-31"/>
      </g>
     </g>
    </g>
    <g id="xtick_4">
     <g id="line2d_4">
      <g>
       <use style="fill:#222222;stroke:#222222;" x="250.56" xlink:href="#m8d3015a97d" y="244.8"/>
      </g>
     </g>
     <g id="text_4">
      <!-- 0.0 -->
      <g style="fill:#222222;" transform="translate(240.222969 262.677969)scale(0.13 -0.13)">
       <use xlink:href="#DejaVuSans-30"/>
       <use x="63.623047" xlink:href="#DejaVuSans-2e"/>
       <use x="95.410156" xlink:href="#DejaVuSans-30"/>
      </g>
     </g>
    </g>
    <g id="xtick_5">
     <g id="line2d_5">
      <g>
       <use style="fill:#222222;stroke:#222222;" x="332.64" xlink:href="#m8d3015a97d" y="244.8"/>
      </g>
     </g>
     <g id="text_5">
      <!-- 0.1 -->
      <g style="fill:#222222;" transform="translate(322.302969 262.677969)scale(0.13 -0.13)">
       <use xlink:href="#DejaVuSans-30"/>
       <use x="63.623047" xlink:href="#DejaVuSans-2e"/>
       <use x="95.410156" xlink:href="#DejaVuSans-31"/>
      </g>
     </g>
    </g>
    <g id="xtick_6">
     <g id="line2d_6">
      <g>
       <use style="fill:#222222;stroke:#222222;" x="414.72" xlink:href="#m8d3015a97d" y="244.8"/>
      </g>
     </g>
     <g id="text_6">
      <!-- 0.2 -->
      <g style="fill:#222222;" transform="translate(404.382969 262.677969)scale(0.13 -0.13)">
       <use xlink:href="#DejaVuSans-30"/>
       <use x="63.623047" xlink:href="#DejaVuSans-2e"/>
       <use x="95.410156" xlink:href="#DejaVuSans-32"/>
      </g>
     </g>
    </g>
    <g id="text_7">
     <!-- Regression slope ($\beta_1$) -->
     <defs>
      <path d="M 44.390625 34.1875 
Q 47.5625 33.109375 50.5625 29.59375 
Q 53.5625 26.078125 56.59375 19.921875 
L 66.609375 0 
L 56 0 
L 46.6875 18.703125 
Q 43.0625 26.03125 39.671875 28.421875 
Q 36.28125 30.8125 30.421875 30.8125 
L 19.671875 30.8125 
L 19.671875 0 
L 9.8125 0 
L 9.8125 72.90625 
L 32.078125 72.90625 
Q 44.578125 72.90625 50.734375 67.671875 
Q 56.890625 62.453125 56.890625 51.90625 
Q 56.890625 45.015625 53.6875 40.46875 
Q 50.484375 35.9375 44.390625 34.1875 
z
M 19.671875 64.796875 
L 19.671875 38.921875 
L 32.078125 38.921875 
Q 39.203125 38.921875 42.84375 42.21875 
Q 46.484375 45.515625 46.484375 51.90625 
Q 46.484375 58.296875 42.84375 61.546875 
Q 39.203125 64.796875 32.078125 64.796875 
z
" id="DejaVuSans-52"/>
      <path d="M 56.203125 29.59375 
L 56.203125 25.203125 
L 14.890625 25.203125 
Q 15.484375 15.921875 20.484375 11.0625 
Q 25.484375 6.203125 34.421875 6.203125 
Q 39.59375 6.203125 44.453125 7.46875 
Q 49.3125 8.734375 54.109375 11.28125 
L 54.109375 2.78125 
Q 49.265625 0.734375 44.1875 -0.34375 
Q 39.109375 -1.421875 33.890625 -1.421875 
Q 20.796875 -1.421875 13.15625 6.1875 
Q 5.515625 13.8125 5.515625 26.8125 
Q 5.515625 40.234375 12.765625 48.109375 
Q 20.015625 56 32.328125 56 
Q 43.359375 56 49.78125 48.890625 
Q 56.203125 41.796875 56.203125 29.59375 
z
M 47.21875 32.234375 
Q 47.125 39.59375 43.09375 43.984375 
Q 39.0625 48.390625 32.421875 48.390625 
Q 24.90625 48.390625 20.390625 44.140625 
Q 15.875 39.890625 15.1875 32.171875 
z
" id="DejaVuSans-65"/>
      <path d="M 45.40625 27.984375 
Q 45.40625 37.75 41.375 43.109375 
Q 37.359375 48.484375 30.078125 48.484375 
Q 22.859375 48.484375 18.828125 43.109375 
Q 14.796875 37.75 14.796875 27.984375 
Q 14.796875 18.265625 18.828125 12.890625 
Q 22.859375 7.515625 30.078125 7.515625 
Q 37.359375 7.515625 41.375 12.890625 
Q 45.40625 18.265625 45.40625 27.984375 
z
M 54.390625 6.78125 
Q 54.390625 -7.171875 48.1875 -13.984375 
Q 42 -20.796875 29.203125 -20.796875 
Q 24.46875 -20.796875 20.265625 -20.09375 
Q 16.0625 -19.390625 12.109375 -17.921875 
L 12.109375 -9.1875 
Q 16.0625 -11.328125 19.921875 -12.34375 
Q 23.78125 -13.375 27.78125 -13.375 
Q 36.625 -13.375 41.015625 -8.765625 
Q 45.40625 -4.15625 45.40625 5.171875 
L 45.40625 9.625 
Q 42.625 4.78125 38.28125 2.390625 
Q 33.9375 0 27.875 0 
Q 17.828125 0 11.671875 7.65625 
Q 5.515625 15.328125 5.515625 27.984375 
Q 5.515625 40.671875 11.671875 48.328125 
Q 17.828125 56 27.875 56 
Q 33.9375 56 38.28125 53.609375 
Q 42.625 51.21875 45.40625 46.390625 
L 45.40625 54.6875 
L 54.390625 54.6875 
z
" id="DejaVuSans-67"/>
      <path d="M 41.109375 46.296875 
Q 39.59375 47.171875 37.8125 47.578125 
Q 36.03125 48 33.890625 48 
Q 26.265625 48 22.1875 43.046875 
Q 18.109375 38.09375 18.109375 28.8125 
L 18.109375 0 
L 9.078125 0 
L 9.078125 54.6875 
L 18.109375 54.6875 
L 18.109375 46.1875 
Q 20.953125 51.171875 25.484375 53.578125 
Q 30.03125 56 36.53125 56 
Q 37.453125 56 38.578125 55.875 
Q 39.703125 55.765625 41.0625 55.515625 
z
" id="DejaVuSans-72"/>
      <path d="M 44.28125 53.078125 
L 44.28125 44.578125 
Q 40.484375 46.53125 36.375 47.5 
Q 32.28125 48.484375 27.875 48.484375 
Q 21.1875 48.484375 17.84375 46.4375 
Q 14.5 44.390625 14.5 40.28125 
Q 14.5 37.15625 16.890625 35.375 
Q 19.28125 33.59375 26.515625 31.984375 
L 29.59375 31.296875 
Q 39.15625 29.25 43.1875 25.515625 
Q 47.21875 21.78125 47.21875 15.09375 
Q 47.21875 7.46875 41.1875 3.015625 
Q 35.15625 -1.421875 24.609375 -1.421875 
Q 20.21875 -1.421875 15.453125 -0.5625 
Q 10.6875 0.296875 5.421875 2 
L 5.421875 11.28125 
Q 10.40625 8.6875 15.234375 7.390625 
Q 20.0625 6.109375 24.8125 6.109375 
Q 31.15625 6.109375 34.5625 8.28125 
Q 37.984375 10.453125 37.984375 14.40625 
Q 37.984375 18.0625 35.515625 20.015625 
Q 33.0625 21.96875 24.703125 23.78125 
L 21.578125 24.515625 
Q 13.234375 26.265625 9.515625 29.90625 
Q 5.8125 33.546875 5.8125 39.890625 
Q 5.8125 47.609375 11.28125 51.796875 
Q 16.75 56 26.8125 56 
Q 31.78125 56 36.171875 55.265625 
Q 40.578125 54.546875 44.28125 53.078125 
z
" id="DejaVuSans-73"/>
      <path d="M 9.421875 54.6875 
L 18.40625 54.6875 
L 18.40625 0 
L 9.421875 0 
z
M 9.421875 75.984375 
L 18.40625 75.984375 
L 18.40625 64.59375 
L 9.421875 64.59375 
z
" id="DejaVuSans-69"/>
      <path d="M 30.609375 48.390625 
Q 23.390625 48.390625 19.1875 42.75 
Q 14.984375 37.109375 14.984375 27.296875 
Q 14.984375 17.484375 19.15625 11.84375 
Q 23.34375 6.203125 30.609375 6.203125 
Q 37.796875 6.203125 41.984375 11.859375 
Q 46.1875 17.53125 46.1875 27.296875 
Q 46.1875 37.015625 41.984375 42.703125 
Q 37.796875 48.390625 30.609375 48.390625 
z
M 30.609375 56 
Q 42.328125 56 49.015625 48.375 
Q 55.71875 40.765625 55.71875 27.296875 
Q 55.71875 13.875 49.015625 6.21875 
Q 42.328125 -1.421875 30.609375 -1.421875 
Q 18.84375 -1.421875 12.171875 6.21875 
Q 5.515625 13.875 5.515625 27.296875 
Q 5.515625 40.765625 12.171875 48.375 
Q 18.84375 56 30.609375 56 
z
" id="DejaVuSans-6f"/>
      <path d="M 54.890625 33.015625 
L 54.890625 0 
L 45.90625 0 
L 45.90625 32.71875 
Q 45.90625 40.484375 42.875 44.328125 
Q 39.84375 48.1875 33.796875 48.1875 
Q 26.515625 48.1875 22.3125 43.546875 
Q 18.109375 38.921875 18.109375 30.90625 
L 18.109375 0 
L 9.078125 0 
L 9.078125 54.6875 
L 18.109375 54.6875 
L 18.109375 46.1875 
Q 21.34375 51.125 25.703125 53.5625 
Q 30.078125 56 35.796875 56 
Q 45.21875 56 50.046875 50.171875 
Q 54.890625 44.34375 54.890625 33.015625 
z
" id="DejaVuSans-6e"/>
      <path id="DejaVuSans-20"/>
      <path d="M 9.421875 75.984375 
L 18.40625 75.984375 
L 18.40625 0 
L 9.421875 0 
z
" id="DejaVuSans-6c"/>
      <path d="M 18.109375 8.203125 
L 18.109375 -20.796875 
L 9.078125 -20.796875 
L 9.078125 54.6875 
L 18.109375 54.6875 
L 18.109375 46.390625 
Q 20.953125 51.265625 25.265625 53.625 
Q 29.59375 56 35.59375 56 
Q 45.5625 56 51.78125 48.09375 
Q 58.015625 40.1875 58.015625 27.296875 
Q 58.015625 14.40625 51.78125 6.484375 
Q 45.5625 -1.421875 35.59375 -1.421875 
Q 29.59375 -1.421875 25.265625 0.953125 
Q 20.953125 3.328125 18.109375 8.203125 
z
M 48.6875 27.296875 
Q 48.6875 37.203125 44.609375 42.84375 
Q 40.53125 48.484375 33.40625 48.484375 
Q 26.265625 48.484375 22.1875 42.84375 
Q 18.109375 37.203125 18.109375 27.296875 
Q 18.109375 17.390625 22.1875 11.75 
Q 26.265625 6.109375 33.40625 6.109375 
Q 40.53125 6.109375 44.609375 11.75 
Q 48.6875 17.390625 48.6875 27.296875 
z
" id="DejaVuSans-70"/>
      <path d="M 31 75.875 
Q 24.46875 64.65625 21.28125 53.65625 
Q 18.109375 42.671875 18.109375 31.390625 
Q 18.109375 20.125 21.3125 9.0625 
Q 24.515625 -2 31 -13.1875 
L 23.1875 -13.1875 
Q 15.875 -1.703125 12.234375 9.375 
Q 8.59375 20.453125 8.59375 31.390625 
Q 8.59375 42.28125 12.203125 53.3125 
Q 15.828125 64.359375 23.1875 75.875 
z
" id="DejaVuSans-28"/>
      <path d="M 13.625 3.375 
L 8.9375 -20.796875 
L -0.09375 -20.796875 
L 14.5 54.34375 
Q 18.84375 76.609375 39.65625 76.609375 
Q 60.75 76.609375 57.171875 57.8125 
Q 54.734375 44.4375 45.21875 39.546875 
Q 58.015625 35.15625 55.515625 22.125 
Q 51.125 -1.078125 27.484375 -1.03125 
Q 17.140625 -0.984375 13.625 3.375 
z
M 15.921875 15.09375 
Q 19.671875 6.59375 29.296875 6.640625 
Q 43.359375 6.640625 46.34375 21.96875 
Q 49.03125 35.75 26.171875 34.671875 
L 27.78125 42.96875 
Q 45.453125 42.671875 48.53125 58.59375 
Q 50.640625 69.34375 39.203125 69.28125 
Q 26.421875 69.28125 23.484375 54.046875 
z
" id="DejaVuSans-Oblique-3b2"/>
      <path d="M 8.015625 75.875 
L 15.828125 75.875 
Q 23.140625 64.359375 26.78125 53.3125 
Q 30.421875 42.28125 30.421875 31.390625 
Q 30.421875 20.453125 26.78125 9.375 
Q 23.140625 -1.703125 15.828125 -13.1875 
L 8.015625 -13.1875 
Q 14.5 -2 17.703125 9.0625 
Q 20.90625 20.125 20.90625 31.390625 
Q 20.90625 42.671875 17.703125 53.65625 
Q 14.5 64.65625 8.015625 75.875 
z
" id="DejaVuSans-29"/>
     </defs>
     <g style="fill:#222222;" transform="translate(112.95 283.241562)scale(0.18 -0.18)">
      <use transform="translate(0 0.390625)" xlink:href="#DejaVuSans-52"/>
      <use transform="translate(69.482422 0.390625)" xlink:href="#DejaVuSans-65"/>
      <use transform="translate(131.005859 0.390625)" xlink:href="#DejaVuSans-67"/>
      <use transform="translate(194.482422 0.390625)" xlink:href="#DejaVuSans-72"/>
      <use transform="translate(235.595703 0.390625)" xlink:href="#DejaVuSans-65"/>
      <use transform="translate(297.119141 0.390625)" xlink:href="#DejaVuSans-73"/>
      <use transform="translate(349.21875 0.390625)" xlink:href="#DejaVuSans-73"/>
      <use transform="translate(401.318359 0.390625)" xlink:href="#DejaVuSans-69"/>
      <use transform="translate(429.101562 0.390625)" xlink:href="#DejaVuSans-6f"/>
      <use transform="translate(490.283203 0.390625)" xlink:href="#DejaVuSans-6e"/>
      <use transform="translate(553.662109 0.390625)" xlink:href="#DejaVuSans-20"/>
      <use transform="translate(585.449219 0.390625)" xlink:href="#DejaVuSans-73"/>
      <use transform="translate(637.548828 0.390625)" xlink:href="#DejaVuSans-6c"/>
      <use transform="translate(665.332031 0.390625)" xlink:href="#DejaVuSans-6f"/>
      <use transform="translate(726.513672 0.390625)" xlink:href="#DejaVuSans-70"/>
      <use transform="translate(789.990234 0.390625)" xlink:href="#DejaVuSans-65"/>
      <use transform="translate(851.513672 0.390625)" xlink:href="#DejaVuSans-20"/>
      <use transform="translate(883.300781 0.390625)" xlink:href="#DejaVuSans-28"/>
      <use transform="translate(922.314453 0.390625)" xlink:href="#DejaVuSans-Oblique-3b2"/>
      <use transform="translate(986.132812 -16.015625)scale(0.7)" xlink:href="#DejaVuSans-31"/>
      <use transform="translate(1033.40332 0.390625)" xlink:href="#DejaVuSans-29"/>
     </g>
    </g>
   </g>
   <g id="matplotlib.axis_2"/>
   <g id="patch_62">
    <path d="M 4.32 244.8 
L 414.72 244.8 
" style="fill:none;stroke:#222222;stroke-linecap:square;stroke-linejoin:miter;"/>
   </g>
  </g>
  <g id="axes_2">
   <g id="line2d_7">
    <path clip-path="url(#p4d4e6cb64c)" d="M 250.56 244.8 
L 250.56 28.8 
" style="fill:none;stroke:#222222;stroke-dasharray:5.55,2.4;stroke-dashoffset:0;stroke-width:1.5;"/>
   </g>
   <g id="text_8">
    <!-- $H_0$ -->
    <defs>
     <path d="M 16.890625 72.90625 
L 26.8125 72.90625 
L 21 43.015625 
L 56.78125 43.015625 
L 62.59375 72.90625 
L 72.515625 72.90625 
L 58.296875 0 
L 48.390625 0 
L 55.171875 34.71875 
L 19.390625 34.71875 
L 12.59375 0 
L 2.6875 0 
z
" id="DejaVuSans-Oblique-48"/>
    </defs>
    <g style="fill:#222222;" transform="translate(242.565 12.082844)scale(0.13 -0.13)">
     <use transform="translate(0 0.09375)" xlink:href="#DejaVuSans-Oblique-48"/>
     <use transform="translate(75.195312 -16.3125)scale(0.7)" xlink:href="#DejaVuSans-30"/>
    </g>
    <!-- (no association) -->
    <defs>
     <path d="M 34.28125 27.484375 
Q 23.390625 27.484375 19.1875 25 
Q 14.984375 22.515625 14.984375 16.5 
Q 14.984375 11.71875 18.140625 8.90625 
Q 21.296875 6.109375 26.703125 6.109375 
Q 34.1875 6.109375 38.703125 11.40625 
Q 43.21875 16.703125 43.21875 25.484375 
L 43.21875 27.484375 
z
M 52.203125 31.203125 
L 52.203125 0 
L 43.21875 0 
L 43.21875 8.296875 
Q 40.140625 3.328125 35.546875 0.953125 
Q 30.953125 -1.421875 24.3125 -1.421875 
Q 15.921875 -1.421875 10.953125 3.296875 
Q 6 8.015625 6 15.921875 
Q 6 25.140625 12.171875 29.828125 
Q 18.359375 34.515625 30.609375 34.515625 
L 43.21875 34.515625 
L 43.21875 35.40625 
Q 43.21875 41.609375 39.140625 45 
Q 35.0625 48.390625 27.6875 48.390625 
Q 23 48.390625 18.546875 47.265625 
Q 14.109375 46.140625 10.015625 43.890625 
L 10.015625 52.203125 
Q 14.9375 54.109375 19.578125 55.046875 
Q 24.21875 56 28.609375 56 
Q 40.484375 56 46.34375 49.84375 
Q 52.203125 43.703125 52.203125 31.203125 
z
" id="DejaVuSans-61"/>
     <path d="M 48.78125 52.59375 
L 48.78125 44.1875 
Q 44.96875 46.296875 41.140625 47.34375 
Q 37.3125 48.390625 33.40625 48.390625 
Q 24.65625 48.390625 19.8125 42.84375 
Q 14.984375 37.3125 14.984375 27.296875 
Q 14.984375 17.28125 19.8125 11.734375 
Q 24.65625 6.203125 33.40625 6.203125 
Q 37.3125 6.203125 41.140625 7.25 
Q 44.96875 8.296875 48.78125 10.40625 
L 48.78125 2.09375 
Q 45.015625 0.34375 40.984375 -0.53125 
Q 36.96875 -1.421875 32.421875 -1.421875 
Q 20.0625 -1.421875 12.78125 6.34375 
Q 5.515625 14.109375 5.515625 27.296875 
Q 5.515625 40.671875 12.859375 48.328125 
Q 20.21875 56 33.015625 56 
Q 37.15625 56 41.109375 55.140625 
Q 45.0625 54.296875 48.78125 52.59375 
z
" id="DejaVuSans-63"/>
     <path d="M 18.3125 70.21875 
L 18.3125 54.6875 
L 36.8125 54.6875 
L 36.8125 47.703125 
L 18.3125 47.703125 
L 18.3125 18.015625 
Q 18.3125 11.328125 20.140625 9.421875 
Q 21.96875 7.515625 27.59375 7.515625 
L 36.8125 7.515625 
L 36.8125 0 
L 27.59375 0 
Q 17.1875 0 13.234375 3.875 
Q 9.28125 7.765625 9.28125 18.015625 
L 9.28125 47.703125 
L 2.6875 47.703125 
L 2.6875 54.6875 
L 9.28125 54.6875 
L 9.28125 70.21875 
z
" id="DejaVuSans-74"/>
    </defs>
    <g style="fill:#222222;" transform="translate(198.779375 26.64)scale(0.13 -0.13)">
     <use xlink:href="#DejaVuSans-28"/>
     <use x="39.013672" xlink:href="#DejaVuSans-6e"/>
     <use x="102.392578" xlink:href="#DejaVuSans-6f"/>
     <use x="163.574219" xlink:href="#DejaVuSans-20"/>
     <use x="195.361328" xlink:href="#DejaVuSans-61"/>
     <use x="256.640625" xlink:href="#DejaVuSans-73"/>
     <use x="308.740234" xlink:href="#DejaVuSans-73"/>
     <use x="360.839844" xlink:href="#DejaVuSans-6f"/>
     <use x="422.021484" xlink:href="#DejaVuSans-63"/>
     <use x="477.001953" xlink:href="#DejaVuSans-69"/>
     <use x="504.785156" xlink:href="#DejaVuSans-61"/>
     <use x="566.064453" xlink:href="#DejaVuSans-74"/>
     <use x="605.273438" xlink:href="#DejaVuSans-69"/>
     <use x="633.056641" xlink:href="#DejaVuSans-6f"/>
     <use x="694.238281" xlink:href="#DejaVuSans-6e"/>
     <use x="757.617188" xlink:href="#DejaVuSans-29"/>
    </g>
   </g>
  </g>
  <g id="axes_3">
   <g id="line2d_8">
    <path clip-path="url(#p4d4e6cb64c)" d="M 65.010445 244.8 
L 65.010445 28.8 
" style="fill:none;stroke:#fb4c52;stroke-dasharray:5.55,2.4;stroke-dashoffset:0;stroke-width:1.5;"/>
   </g>
   <g id="text_9">
    <!-- Initial observation -->
    <defs>
     <path d="M 9.8125 72.90625 
L 19.671875 72.90625 
L 19.671875 0 
L 9.8125 0 
z
" id="DejaVuSans-49"/>
     <path d="M 48.6875 27.296875 
Q 48.6875 37.203125 44.609375 42.84375 
Q 40.53125 48.484375 33.40625 48.484375 
Q 26.265625 48.484375 22.1875 42.84375 
Q 18.109375 37.203125 18.109375 27.296875 
Q 18.109375 17.390625 22.1875 11.75 
Q 26.265625 6.109375 33.40625 6.109375 
Q 40.53125 6.109375 44.609375 11.75 
Q 48.6875 17.390625 48.6875 27.296875 
z
M 18.109375 46.390625 
Q 20.953125 51.265625 25.265625 53.625 
Q 29.59375 56 35.59375 56 
Q 45.5625 56 51.78125 48.09375 
Q 58.015625 40.1875 58.015625 27.296875 
Q 58.015625 14.40625 51.78125 6.484375 
Q 45.5625 -1.421875 35.59375 -1.421875 
Q 29.59375 -1.421875 25.265625 0.953125 
Q 20.953125 3.328125 18.109375 8.203125 
L 18.109375 0 
L 9.078125 0 
L 9.078125 75.984375 
L 18.109375 75.984375 
z
" id="DejaVuSans-62"/>
     <path d="M 2.984375 54.6875 
L 12.5 54.6875 
L 29.59375 8.796875 
L 46.6875 54.6875 
L 56.203125 54.6875 
L 35.6875 0 
L 23.484375 0 
z
" id="DejaVuSans-76"/>
    </defs>
    <g style="fill:#fb4c52;" transform="translate(6.516538 11.924406)scale(0.13 -0.13)">
     <use xlink:href="#DejaVuSans-49"/>
     <use x="29.492188" xlink:href="#DejaVuSans-6e"/>
     <use x="92.871094" xlink:href="#DejaVuSans-69"/>
     <use x="120.654297" xlink:href="#DejaVuSans-74"/>
     <use x="159.863281" xlink:href="#DejaVuSans-69"/>
     <use x="187.646484" xlink:href="#DejaVuSans-61"/>
     <use x="248.925781" xlink:href="#DejaVuSans-6c"/>
     <use x="276.708984" xlink:href="#DejaVuSans-20"/>
     <use x="308.496094" xlink:href="#DejaVuSans-6f"/>
     <use x="369.677734" xlink:href="#DejaVuSans-62"/>
     <use x="433.154297" xlink:href="#DejaVuSans-73"/>
     <use x="485.253906" xlink:href="#DejaVuSans-65"/>
     <use x="546.777344" xlink:href="#DejaVuSans-72"/>
     <use x="587.890625" xlink:href="#DejaVuSans-76"/>
     <use x="647.070312" xlink:href="#DejaVuSans-61"/>
     <use x="708.349609" xlink:href="#DejaVuSans-74"/>
     <use x="747.558594" xlink:href="#DejaVuSans-69"/>
     <use x="775.341797" xlink:href="#DejaVuSans-6f"/>
     <use x="836.523438" xlink:href="#DejaVuSans-6e"/>
    </g>
    <!-- $\beta_1=-0.226$ -->
    <defs>
     <path d="M 10.59375 45.40625 
L 73.1875 45.40625 
L 73.1875 37.203125 
L 10.59375 37.203125 
z
M 10.59375 25.484375 
L 73.1875 25.484375 
L 73.1875 17.1875 
L 10.59375 17.1875 
z
" id="DejaVuSans-3d"/>
     <path d="M 33.015625 40.375 
Q 26.375 40.375 22.484375 35.828125 
Q 18.609375 31.296875 18.609375 23.390625 
Q 18.609375 15.53125 22.484375 10.953125 
Q 26.375 6.390625 33.015625 6.390625 
Q 39.65625 6.390625 43.53125 10.953125 
Q 47.40625 15.53125 47.40625 23.390625 
Q 47.40625 31.296875 43.53125 35.828125 
Q 39.65625 40.375 33.015625 40.375 
z
M 52.59375 71.296875 
L 52.59375 62.3125 
Q 48.875 64.0625 45.09375 64.984375 
Q 41.3125 65.921875 37.59375 65.921875 
Q 27.828125 65.921875 22.671875 59.328125 
Q 17.53125 52.734375 16.796875 39.40625 
Q 19.671875 43.65625 24.015625 45.921875 
Q 28.375 48.1875 33.59375 48.1875 
Q 44.578125 48.1875 50.953125 41.515625 
Q 57.328125 34.859375 57.328125 23.390625 
Q 57.328125 12.15625 50.6875 5.359375 
Q 44.046875 -1.421875 33.015625 -1.421875 
Q 20.359375 -1.421875 13.671875 8.265625 
Q 6.984375 17.96875 6.984375 36.375 
Q 6.984375 53.65625 15.1875 63.9375 
Q 23.390625 74.21875 37.203125 74.21875 
Q 40.921875 74.21875 44.703125 73.484375 
Q 48.484375 72.75 52.59375 71.296875 
z
" id="DejaVuSans-36"/>
    </defs>
    <g style="fill:#fb4c52;" transform="translate(23.215445 26.64)scale(0.13 -0.13)">
     <use transform="translate(0 0.390625)" xlink:href="#DejaVuSans-Oblique-3b2"/>
     <use transform="translate(63.818359 -16.015625)scale(0.7)" xlink:href="#DejaVuSans-31"/>
     <use transform="translate(130.571289 0.390625)" xlink:href="#DejaVuSans-3d"/>
     <use transform="translate(253.325195 0.390625)" xlink:href="#DejaVuSans-2212"/>
     <use transform="translate(356.59668 0.390625)" xlink:href="#DejaVuSans-30"/>
     <use transform="translate(420.219727 0.390625)" xlink:href="#DejaVuSans-2e"/>
     <use transform="translate(451.928711 0.390625)" xlink:href="#DejaVuSans-32"/>
     <use transform="translate(515.551758 0.390625)" xlink:href="#DejaVuSans-32"/>
     <use transform="translate(579.174805 0.390625)" xlink:href="#DejaVuSans-36"/>
    </g>
   </g>
  </g>
 </g>
 <defs>
  <clipPath id="p4d4e6cb64c">
   <rect height="216" width="410.4" x="4.32" y="28.8"/>
  </clipPath>
 </defs>
</svg>
