<?xml version="1.0" encoding="utf-8" standalone="no"?>
<!DOCTYPE svg PUBLIC "-//W3C//DTD SVG 1.1//EN"
  "http://www.w3.org/Graphics/SVG/1.1/DTD/svg11.dtd">
<!-- Created with matplotlib (http://matplotlib.org/) -->
<svg height="288pt" version="1.1" viewBox="0 0 432 288" width="432pt" xmlns="http://www.w3.org/2000/svg" xmlns:xlink="http://www.w3.org/1999/xlink">
 <defs>
  <style type="text/css">
*{stroke-linecap:butt;stroke-linejoin:round;}
  </style>
 </defs>
 <g id="figure_1">
  <g id="patch_1">
   <path d="M 0 288 
L 432 288 
L 432 0 
L 0 0 
z
" style="fill:none;"/>
  </g>
  <g id="axes_1">
   <g id="patch_2">
    <path d="M 14.8 233.2 
L 417.2 233.2 
L 417.2 14.8 
L 14.8 14.8 
z
" style="fill:none;"/>
   </g>
   <g id="PathCollection_1">
    <defs>
     <path d="M 0 5 
C 1.326016 5 2.597899 4.473168 3.535534 3.535534 
C 4.473168 2.597899 5 1.326016 5 0 
C 5 -1.326016 4.473168 -2.597899 3.535534 -3.535534 
C 2.597899 -4.473168 1.326016 -5 0 -5 
C -1.326016 -5 -2.597899 -4.473168 -3.535534 -3.535534 
C -4.473168 -2.597899 -5 -1.326016 -5 0 
C -5 1.326016 -4.473168 2.597899 -3.535534 3.535534 
C -2.597899 4.473168 -1.326016 5 0 5 
z
" id="C0_0_9044b980e2"/>
    </defs>
    <g clip-path="url(#p904c076d39)">
     <use style="fill:none;stroke:#000000;stroke-opacity:0.7;" x="45.284848" xlink:href="#C0_0_9044b980e2" y="226.581818"/>
    </g>
    <g clip-path="url(#p904c076d39)">
     <use style="fill:none;stroke:#000000;stroke-opacity:0.7;" x="69.672727" xlink:href="#C0_0_9044b980e2" y="226.581818"/>
    </g>
    <g clip-path="url(#p904c076d39)">
     <use style="fill:none;stroke:#000000;stroke-opacity:0.7;" x="94.060606" xlink:href="#C0_0_9044b980e2" y="226.581818"/>
    </g>
    <g clip-path="url(#p904c076d39)">
     <use style="fill:none;stroke:#000000;stroke-opacity:0.7;" x="94.060606" xlink:href="#C0_0_9044b980e2" y="213.345455"/>
    </g>
    <g clip-path="url(#p904c076d39)">
     <use style="fill:none;stroke:#000000;stroke-opacity:0.7;" x="118.448485" xlink:href="#C0_0_9044b980e2" y="226.581818"/>
    </g>
    <g clip-path="url(#p904c076d39)">
     <use style="fill:none;stroke:#000000;stroke-opacity:0.7;" x="118.448485" xlink:href="#C0_0_9044b980e2" y="213.345455"/>
    </g>
    <g clip-path="url(#p904c076d39)">
     <use style="fill:none;stroke:#000000;stroke-opacity:0.7;" x="118.448485" xlink:href="#C0_0_9044b980e2" y="200.109091"/>
    </g>
    <g clip-path="url(#p904c076d39)">
     <use style="fill:none;stroke:#000000;stroke-opacity:0.7;" x="118.448485" xlink:href="#C0_0_9044b980e2" y="186.872727"/>
    </g>
    <g clip-path="url(#p904c076d39)">
     <use style="fill:none;stroke:#000000;stroke-opacity:0.7;" x="142.836364" xlink:href="#C0_0_9044b980e2" y="226.581818"/>
    </g>
    <g clip-path="url(#p904c076d39)">
     <use style="fill:none;stroke:#000000;stroke-opacity:0.7;" x="142.836364" xlink:href="#C0_0_9044b980e2" y="213.345455"/>
    </g>
    <g clip-path="url(#p904c076d39)">
     <use style="fill:none;stroke:#000000;stroke-opacity:0.7;" x="142.836364" xlink:href="#C0_0_9044b980e2" y="200.109091"/>
    </g>
    <g clip-path="url(#p904c076d39)">
     <use style="fill:none;stroke:#000000;stroke-opacity:0.7;" x="142.836364" xlink:href="#C0_0_9044b980e2" y="186.872727"/>
    </g>
    <g clip-path="url(#p904c076d39)">
     <use style="fill:none;stroke:#000000;stroke-opacity:0.7;" x="142.836364" xlink:href="#C0_0_9044b980e2" y="173.636364"/>
    </g>
    <g clip-path="url(#p904c076d39)">
     <use style="fill:none;stroke:#000000;stroke-opacity:0.7;" x="142.836364" xlink:href="#C0_0_9044b980e2" y="160.4"/>
    </g>
    <g clip-path="url(#p904c076d39)">
     <use style="fill:none;stroke:#000000;stroke-opacity:0.7;" x="142.836364" xlink:href="#C0_0_9044b980e2" y="147.163636"/>
    </g>
    <g clip-path="url(#p904c076d39)">
     <use style="fill:none;stroke:#000000;stroke-opacity:0.7;" x="142.836364" xlink:href="#C0_0_9044b980e2" y="133.927273"/>
    </g>
    <g clip-path="url(#p904c076d39)">
     <use style="fill:none;stroke:#000000;stroke-opacity:0.7;" x="167.224242" xlink:href="#C0_0_9044b980e2" y="226.581818"/>
    </g>
    <g clip-path="url(#p904c076d39)">
     <use style="fill:none;stroke:#000000;stroke-opacity:0.7;" x="167.224242" xlink:href="#C0_0_9044b980e2" y="213.345455"/>
    </g>
    <g clip-path="url(#p904c076d39)">
     <use style="fill:none;stroke:#000000;stroke-opacity:0.7;" x="167.224242" xlink:href="#C0_0_9044b980e2" y="200.109091"/>
    </g>
    <g clip-path="url(#p904c076d39)">
     <use style="fill:none;stroke:#000000;stroke-opacity:0.7;" x="167.224242" xlink:href="#C0_0_9044b980e2" y="186.872727"/>
    </g>
    <g clip-path="url(#p904c076d39)">
     <use style="fill:none;stroke:#000000;stroke-opacity:0.7;" x="167.224242" xlink:href="#C0_0_9044b980e2" y="173.636364"/>
    </g>
    <g clip-path="url(#p904c076d39)">
     <use style="fill:none;stroke:#000000;stroke-opacity:0.7;" x="167.224242" xlink:href="#C0_0_9044b980e2" y="160.4"/>
    </g>
    <g clip-path="url(#p904c076d39)">
     <use style="fill:none;stroke:#000000;stroke-opacity:0.7;" x="167.224242" xlink:href="#C0_0_9044b980e2" y="147.163636"/>
    </g>
    <g clip-path="url(#p904c076d39)">
     <use style="fill:none;stroke:#000000;stroke-opacity:0.7;" x="191.612121" xlink:href="#C0_0_9044b980e2" y="226.581818"/>
    </g>
    <g clip-path="url(#p904c076d39)">
     <use style="fill:none;stroke:#000000;stroke-opacity:0.7;" x="191.612121" xlink:href="#C0_0_9044b980e2" y="213.345455"/>
    </g>
    <g clip-path="url(#p904c076d39)">
     <use style="fill:none;stroke:#000000;stroke-opacity:0.7;" x="191.612121" xlink:href="#C0_0_9044b980e2" y="200.109091"/>
    </g>
    <g clip-path="url(#p904c076d39)">
     <use style="fill:none;stroke:#000000;stroke-opacity:0.7;" x="191.612121" xlink:href="#C0_0_9044b980e2" y="186.872727"/>
    </g>
    <g clip-path="url(#p904c076d39)">
     <use style="fill:none;stroke:#000000;stroke-opacity:0.7;" x="191.612121" xlink:href="#C0_0_9044b980e2" y="173.636364"/>
    </g>
    <g clip-path="url(#p904c076d39)">
     <use style="fill:none;stroke:#000000;stroke-opacity:0.7;" x="191.612121" xlink:href="#C0_0_9044b980e2" y="160.4"/>
    </g>
    <g clip-path="url(#p904c076d39)">
     <use style="fill:none;stroke:#000000;stroke-opacity:0.7;" x="191.612121" xlink:href="#C0_0_9044b980e2" y="147.163636"/>
    </g>
    <g clip-path="url(#p904c076d39)">
     <use style="fill:none;stroke:#000000;stroke-opacity:0.7;" x="191.612121" xlink:href="#C0_0_9044b980e2" y="133.927273"/>
    </g>
    <g clip-path="url(#p904c076d39)">
     <use style="fill:none;stroke:#000000;stroke-opacity:0.7;" x="191.612121" xlink:href="#C0_0_9044b980e2" y="120.690909"/>
    </g>
    <g clip-path="url(#p904c076d39)">
     <use style="fill:none;stroke:#000000;stroke-opacity:0.7;" x="216" xlink:href="#C0_0_9044b980e2" y="226.581818"/>
    </g>
    <g clip-path="url(#p904c076d39)">
     <use style="fill:none;stroke:#000000;stroke-opacity:0.7;" x="216" xlink:href="#C0_0_9044b980e2" y="213.345455"/>
    </g>
    <g clip-path="url(#p904c076d39)">
     <use style="fill:none;stroke:#000000;stroke-opacity:0.7;" x="216" xlink:href="#C0_0_9044b980e2" y="200.109091"/>
    </g>
    <g clip-path="url(#p904c076d39)">
     <use style="fill:none;stroke:#000000;stroke-opacity:0.7;" x="216" xlink:href="#C0_0_9044b980e2" y="186.872727"/>
    </g>
    <g clip-path="url(#p904c076d39)">
     <use style="fill:none;stroke:#000000;stroke-opacity:0.7;" x="216" xlink:href="#C0_0_9044b980e2" y="173.636364"/>
    </g>
    <g clip-path="url(#p904c076d39)">
     <use style="fill:none;stroke:#000000;stroke-opacity:0.7;" x="240.387879" xlink:href="#C0_0_9044b980e2" y="226.581818"/>
    </g>
    <g clip-path="url(#p904c076d39)">
     <use style="fill:none;stroke:#000000;stroke-opacity:0.7;" x="240.387879" xlink:href="#C0_0_9044b980e2" y="213.345455"/>
    </g>
    <g clip-path="url(#p904c076d39)">
     <use style="fill:none;stroke:#000000;stroke-opacity:0.7;" x="264.775758" xlink:href="#C0_0_9044b980e2" y="226.581818"/>
    </g>
    <g clip-path="url(#p904c076d39)">
     <use style="fill:none;stroke:#000000;stroke-opacity:0.7;" x="264.775758" xlink:href="#C0_0_9044b980e2" y="213.345455"/>
    </g>
    <g clip-path="url(#p904c076d39)">
     <use style="fill:none;stroke:#000000;stroke-opacity:0.7;" x="264.775758" xlink:href="#C0_0_9044b980e2" y="200.109091"/>
    </g>
    <g clip-path="url(#p904c076d39)">
     <use style="fill:none;stroke:#000000;stroke-opacity:0.7;" x="264.775758" xlink:href="#C0_0_9044b980e2" y="186.872727"/>
    </g>
    <g clip-path="url(#p904c076d39)">
     <use style="fill:none;stroke:#000000;stroke-opacity:0.7;" x="264.775758" xlink:href="#C0_0_9044b980e2" y="173.636364"/>
    </g>
    <g clip-path="url(#p904c076d39)">
     <use style="fill:none;stroke:#000000;stroke-opacity:0.7;" x="289.163636" xlink:href="#C0_0_9044b980e2" y="226.581818"/>
    </g>
    <g clip-path="url(#p904c076d39)">
     <use style="fill:none;stroke:#000000;stroke-opacity:0.7;" x="289.163636" xlink:href="#C0_0_9044b980e2" y="213.345455"/>
    </g>
    <g clip-path="url(#p904c076d39)">
     <use style="fill:none;stroke:#000000;stroke-opacity:0.7;" x="289.163636" xlink:href="#C0_0_9044b980e2" y="200.109091"/>
    </g>
    <g clip-path="url(#p904c076d39)">
     <use style="fill:none;stroke:#000000;stroke-opacity:0.7;" x="289.163636" xlink:href="#C0_0_9044b980e2" y="186.872727"/>
    </g>
    <g clip-path="url(#p904c076d39)">
     <use style="fill:none;stroke:#000000;stroke-opacity:0.7;" x="313.551515" xlink:href="#C0_0_9044b980e2" y="226.581818"/>
    </g>
    <g clip-path="url(#p904c076d39)">
     <use style="fill:none;stroke:#000000;stroke-opacity:0.7;" x="386.715152" xlink:href="#C0_0_9044b980e2" y="226.581818"/>
    </g>
   </g>
   <g id="matplotlib.axis_1">
    <g id="xtick_1">
     <g id="line2d_1">
      <defs>
       <path d="M 0 0 
L 0 4 
" id="mf0a7c1068a" style="stroke:#222222;"/>
      </defs>
      <g>
       <use style="fill:#222222;stroke:#222222;" x="62.730248" xlink:href="#mf0a7c1068a" y="233.2"/>
      </g>
     </g>
     <g id="text_1">
      <!-- 25 -->
      <defs>
       <path d="M 19.1875 8.296875 
L 53.609375 8.296875 
L 53.609375 0 
L 7.328125 0 
L 7.328125 8.296875 
Q 12.9375 14.109375 22.625 23.890625 
Q 32.328125 33.6875 34.8125 36.53125 
Q 39.546875 41.84375 41.421875 45.53125 
Q 43.3125 49.21875 43.3125 52.78125 
Q 43.3125 58.59375 39.234375 62.25 
Q 35.15625 65.921875 28.609375 65.921875 
Q 23.96875 65.921875 18.8125 64.3125 
Q 13.671875 62.703125 7.8125 59.421875 
L 7.8125 69.390625 
Q 13.765625 71.78125 18.9375 73 
Q 24.125 74.21875 28.421875 74.21875 
Q 39.75 74.21875 46.484375 68.546875 
Q 53.21875 62.890625 53.21875 53.421875 
Q 53.21875 48.921875 51.53125 44.890625 
Q 49.859375 40.875 45.40625 35.40625 
Q 44.1875 33.984375 37.640625 27.21875 
Q 31.109375 20.453125 19.1875 8.296875 
z
" id="DejaVuSans-32"/>
       <path d="M 10.796875 72.90625 
L 49.515625 72.90625 
L 49.515625 64.59375 
L 19.828125 64.59375 
L 19.828125 46.734375 
Q 21.96875 47.46875 24.109375 47.828125 
Q 26.265625 48.1875 28.421875 48.1875 
Q 40.625 48.1875 47.75 41.5 
Q 54.890625 34.8125 54.890625 23.390625 
Q 54.890625 11.625 47.5625 5.09375 
Q 40.234375 -1.421875 26.90625 -1.421875 
Q 22.3125 -1.421875 17.546875 -0.640625 
Q 12.796875 0.140625 7.71875 1.703125 
L 7.71875 11.625 
Q 12.109375 9.234375 16.796875 8.0625 
Q 21.484375 6.890625 26.703125 6.890625 
Q 35.15625 6.890625 40.078125 11.328125 
Q 45.015625 15.765625 45.015625 23.390625 
Q 45.015625 31 40.078125 35.4375 
Q 35.15625 39.890625 26.703125 39.890625 
Q 22.75 39.890625 18.8125 39.015625 
Q 14.890625 38.140625 10.796875 36.28125 
z
" id="DejaVuSans-35"/>
      </defs>
      <g style="fill:#222222;" transform="translate(54.458998 251.077969)scale(0.13 -0.13)">
       <use xlink:href="#DejaVuSans-32"/>
       <use x="63.623047" xlink:href="#DejaVuSans-35"/>
      </g>
     </g>
    </g>
    <g id="xtick_2">
     <g id="line2d_2">
      <g>
       <use style="fill:#222222;stroke:#222222;" x="143.711719" xlink:href="#mf0a7c1068a" y="233.2"/>
      </g>
     </g>
     <g id="text_2">
      <!-- 30 -->
      <defs>
       <path d="M 40.578125 39.3125 
Q 47.65625 37.796875 51.625 33 
Q 55.609375 28.21875 55.609375 21.1875 
Q 55.609375 10.40625 48.1875 4.484375 
Q 40.765625 -1.421875 27.09375 -1.421875 
Q 22.515625 -1.421875 17.65625 -0.515625 
Q 12.796875 0.390625 7.625 2.203125 
L 7.625 11.71875 
Q 11.71875 9.328125 16.59375 8.109375 
Q 21.484375 6.890625 26.8125 6.890625 
Q 36.078125 6.890625 40.9375 10.546875 
Q 45.796875 14.203125 45.796875 21.1875 
Q 45.796875 27.640625 41.28125 31.265625 
Q 36.765625 34.90625 28.71875 34.90625 
L 20.21875 34.90625 
L 20.21875 43.015625 
L 29.109375 43.015625 
Q 36.375 43.015625 40.234375 45.921875 
Q 44.09375 48.828125 44.09375 54.296875 
Q 44.09375 59.90625 40.109375 62.90625 
Q 36.140625 65.921875 28.71875 65.921875 
Q 24.65625 65.921875 20.015625 65.03125 
Q 15.375 64.15625 9.8125 62.3125 
L 9.8125 71.09375 
Q 15.4375 72.65625 20.34375 73.4375 
Q 25.25 74.21875 29.59375 74.21875 
Q 40.828125 74.21875 47.359375 69.109375 
Q 53.90625 64.015625 53.90625 55.328125 
Q 53.90625 49.265625 50.4375 45.09375 
Q 46.96875 40.921875 40.578125 39.3125 
z
" id="DejaVuSans-33"/>
       <path d="M 31.78125 66.40625 
Q 24.171875 66.40625 20.328125 58.90625 
Q 16.5 51.421875 16.5 36.375 
Q 16.5 21.390625 20.328125 13.890625 
Q 24.171875 6.390625 31.78125 6.390625 
Q 39.453125 6.390625 43.28125 13.890625 
Q 47.125 21.390625 47.125 36.375 
Q 47.125 51.421875 43.28125 58.90625 
Q 39.453125 66.40625 31.78125 66.40625 
z
M 31.78125 74.21875 
Q 44.046875 74.21875 50.515625 64.515625 
Q 56.984375 54.828125 56.984375 36.375 
Q 56.984375 17.96875 50.515625 8.265625 
Q 44.046875 -1.421875 31.78125 -1.421875 
Q 19.53125 -1.421875 13.0625 8.265625 
Q 6.59375 17.96875 6.59375 36.375 
Q 6.59375 54.828125 13.0625 64.515625 
Q 19.53125 74.21875 31.78125 74.21875 
z
" id="DejaVuSans-30"/>
      </defs>
      <g style="fill:#222222;" transform="translate(135.440469 251.077969)scale(0.13 -0.13)">
       <use xlink:href="#DejaVuSans-33"/>
       <use x="63.623047" xlink:href="#DejaVuSans-30"/>
      </g>
     </g>
    </g>
    <g id="xtick_3">
     <g id="line2d_3">
      <g>
       <use style="fill:#222222;stroke:#222222;" x="224.693189" xlink:href="#mf0a7c1068a" y="233.2"/>
      </g>
     </g>
     <g id="text_3">
      <!-- 35 -->
      <g style="fill:#222222;" transform="translate(216.421939 251.077969)scale(0.13 -0.13)">
       <use xlink:href="#DejaVuSans-33"/>
       <use x="63.623047" xlink:href="#DejaVuSans-35"/>
      </g>
     </g>
    </g>
    <g id="xtick_4">
     <g id="line2d_4">
      <g>
       <use style="fill:#222222;stroke:#222222;" x="305.674659" xlink:href="#mf0a7c1068a" y="233.2"/>
      </g>
     </g>
     <g id="text_4">
      <!-- 40 -->
      <defs>
       <path d="M 37.796875 64.3125 
L 12.890625 25.390625 
L 37.796875 25.390625 
z
M 35.203125 72.90625 
L 47.609375 72.90625 
L 47.609375 25.390625 
L 58.015625 25.390625 
L 58.015625 17.1875 
L 47.609375 17.1875 
L 47.609375 0 
L 37.796875 0 
L 37.796875 17.1875 
L 4.890625 17.1875 
L 4.890625 26.703125 
z
" id="DejaVuSans-34"/>
      </defs>
      <g style="fill:#222222;" transform="translate(297.403409 251.077969)scale(0.13 -0.13)">
       <use xlink:href="#DejaVuSans-34"/>
       <use x="63.623047" xlink:href="#DejaVuSans-30"/>
      </g>
     </g>
    </g>
    <g id="xtick_5">
     <g id="line2d_5">
      <g>
       <use style="fill:#222222;stroke:#222222;" x="386.65613" xlink:href="#mf0a7c1068a" y="233.2"/>
      </g>
     </g>
     <g id="text_5">
      <!-- 45 -->
      <g style="fill:#222222;" transform="translate(378.38488 251.077969)scale(0.13 -0.13)">
       <use xlink:href="#DejaVuSans-34"/>
       <use x="63.623047" xlink:href="#DejaVuSans-35"/>
      </g>
     </g>
    </g>
    <g id="text_6">
     <!-- data value -->
     <defs>
      <path d="M 45.40625 46.390625 
L 45.40625 75.984375 
L 54.390625 75.984375 
L 54.390625 0 
L 45.40625 0 
L 45.40625 8.203125 
Q 42.578125 3.328125 38.25 0.953125 
Q 33.9375 -1.421875 27.875 -1.421875 
Q 17.96875 -1.421875 11.734375 6.484375 
Q 5.515625 14.40625 5.515625 27.296875 
Q 5.515625 40.1875 11.734375 48.09375 
Q 17.96875 56 27.875 56 
Q 33.9375 56 38.25 53.625 
Q 42.578125 51.265625 45.40625 46.390625 
z
M 14.796875 27.296875 
Q 14.796875 17.390625 18.875 11.75 
Q 22.953125 6.109375 30.078125 6.109375 
Q 37.203125 6.109375 41.296875 11.75 
Q 45.40625 17.390625 45.40625 27.296875 
Q 45.40625 37.203125 41.296875 42.84375 
Q 37.203125 48.484375 30.078125 48.484375 
Q 22.953125 48.484375 18.875 42.84375 
Q 14.796875 37.203125 14.796875 27.296875 
z
" id="DejaVuSans-64"/>
      <path d="M 34.28125 27.484375 
Q 23.390625 27.484375 19.1875 25 
Q 14.984375 22.515625 14.984375 16.5 
Q 14.984375 11.71875 18.140625 8.90625 
Q 21.296875 6.109375 26.703125 6.109375 
Q 34.1875 6.109375 38.703125 11.40625 
Q 43.21875 16.703125 43.21875 25.484375 
L 43.21875 27.484375 
z
M 52.203125 31.203125 
L 52.203125 0 
L 43.21875 0 
L 43.21875 8.296875 
Q 40.140625 3.328125 35.546875 0.953125 
Q 30.953125 -1.421875 24.3125 -1.421875 
Q 15.921875 -1.421875 10.953125 3.296875 
Q 6 8.015625 6 15.921875 
Q 6 25.140625 12.171875 29.828125 
Q 18.359375 34.515625 30.609375 34.515625 
L 43.21875 34.515625 
L 43.21875 35.40625 
Q 43.21875 41.609375 39.140625 45 
Q 35.0625 48.390625 27.6875 48.390625 
Q 23 48.390625 18.546875 47.265625 
Q 14.109375 46.140625 10.015625 43.890625 
L 10.015625 52.203125 
Q 14.9375 54.109375 19.578125 55.046875 
Q 24.21875 56 28.609375 56 
Q 40.484375 56 46.34375 49.84375 
Q 52.203125 43.703125 52.203125 31.203125 
z
" id="DejaVuSans-61"/>
      <path d="M 18.3125 70.21875 
L 18.3125 54.6875 
L 36.8125 54.6875 
L 36.8125 47.703125 
L 18.3125 47.703125 
L 18.3125 18.015625 
Q 18.3125 11.328125 20.140625 9.421875 
Q 21.96875 7.515625 27.59375 7.515625 
L 36.8125 7.515625 
L 36.8125 0 
L 27.59375 0 
Q 17.1875 0 13.234375 3.875 
Q 9.28125 7.765625 9.28125 18.015625 
L 9.28125 47.703125 
L 2.6875 47.703125 
L 2.6875 54.6875 
L 9.28125 54.6875 
L 9.28125 70.21875 
z
" id="DejaVuSans-74"/>
      <path id="DejaVuSans-20"/>
      <path d="M 2.984375 54.6875 
L 12.5 54.6875 
L 29.59375 8.796875 
L 46.6875 54.6875 
L 56.203125 54.6875 
L 35.6875 0 
L 23.484375 0 
z
" id="DejaVuSans-76"/>
      <path d="M 9.421875 75.984375 
L 18.40625 75.984375 
L 18.40625 0 
L 9.421875 0 
z
" id="DejaVuSans-6c"/>
      <path d="M 8.5 21.578125 
L 8.5 54.6875 
L 17.484375 54.6875 
L 17.484375 21.921875 
Q 17.484375 14.15625 20.5 10.265625 
Q 23.53125 6.390625 29.59375 6.390625 
Q 36.859375 6.390625 41.078125 11.03125 
Q 45.3125 15.671875 45.3125 23.6875 
L 45.3125 54.6875 
L 54.296875 54.6875 
L 54.296875 0 
L 45.3125 0 
L 45.3125 8.40625 
Q 42.046875 3.421875 37.71875 1 
Q 33.40625 -1.421875 27.6875 -1.421875 
Q 18.265625 -1.421875 13.375 4.4375 
Q 8.5 10.296875 8.5 21.578125 
z
M 31.109375 56 
z
" id="DejaVuSans-75"/>
      <path d="M 56.203125 29.59375 
L 56.203125 25.203125 
L 14.890625 25.203125 
Q 15.484375 15.921875 20.484375 11.0625 
Q 25.484375 6.203125 34.421875 6.203125 
Q 39.59375 6.203125 44.453125 7.46875 
Q 49.3125 8.734375 54.109375 11.28125 
L 54.109375 2.78125 
Q 49.265625 0.734375 44.1875 -0.34375 
Q 39.109375 -1.421875 33.890625 -1.421875 
Q 20.796875 -1.421875 13.15625 6.1875 
Q 5.515625 13.8125 5.515625 26.8125 
Q 5.515625 40.234375 12.765625 48.109375 
Q 20.015625 56 32.328125 56 
Q 43.359375 56 49.78125 48.890625 
Q 56.203125 41.796875 56.203125 29.59375 
z
M 47.21875 32.234375 
Q 47.125 39.59375 43.09375 43.984375 
Q 39.0625 48.390625 32.421875 48.390625 
Q 24.90625 48.390625 20.390625 44.140625 
Q 15.875 39.890625 15.1875 32.171875 
z
" id="DejaVuSans-65"/>
     </defs>
     <g style="fill:#222222;" transform="translate(162.98125 272.978437)scale(0.2 -0.2)">
      <use xlink:href="#DejaVuSans-64"/>
      <use x="63.476562" xlink:href="#DejaVuSans-61"/>
      <use x="124.755859" xlink:href="#DejaVuSans-74"/>
      <use x="163.964844" xlink:href="#DejaVuSans-61"/>
      <use x="225.244141" xlink:href="#DejaVuSans-20"/>
      <use x="257.03125" xlink:href="#DejaVuSans-76"/>
      <use x="316.210938" xlink:href="#DejaVuSans-61"/>
      <use x="377.490234" xlink:href="#DejaVuSans-6c"/>
      <use x="405.273438" xlink:href="#DejaVuSans-75"/>
      <use x="468.652344" xlink:href="#DejaVuSans-65"/>
     </g>
    </g>
   </g>
   <g id="matplotlib.axis_2"/>
   <g id="line2d_6">
    <path clip-path="url(#p904c076d39)" d="M 33.090909 215.773044 
L 40.556586 213.62472 
L 48.022263 211.097398 
L 55.487941 208.077664 
L 62.953618 204.452102 
L 70.419295 200.107298 
L 77.884972 194.929837 
L 85.350649 188.806306 
L 92.816327 181.651819 
L 100.282004 173.481768 
L 107.747681 164.376878 
L 115.213358 154.533361 
L 122.679035 144.263581 
L 130.144712 133.943396 
L 137.61039 124.027945 
L 145.076067 115.000741 
L 152.541744 107.354744 
L 160.007421 101.568246 
L 167.473098 98.07057 
L 174.938776 97.187267 
L 182.404453 99.068917 
L 189.87013 103.614394 
L 197.335807 110.424675 
L 204.801484 118.815543 
L 212.267161 127.908309 
L 219.732839 136.778433 
L 227.198516 144.55773 
L 234.664193 150.912444 
L 242.12987 155.694769 
L 249.595547 159.014236 
L 257.061224 161.464923 
L 264.526902 163.676829 
L 271.992579 166.246521 
L 279.458256 169.60553 
L 286.923933 173.963805 
L 294.38961 179.299331 
L 301.855288 185.376013 
L 309.320965 191.864109 
L 316.786642 198.529212 
L 324.252319 205.152653 
L 331.717996 211.515765 
L 339.183673 217.399882 
L 346.649351 222.586335 
L 354.115028 226.856456 
L 361.580705 229.99158 
L 369.046382 231.773038 
L 376.512059 231.982162 
L 383.977737 230.400286 
L 391.443414 226.808742 
L 398.909091 220.988862 
" style="fill:none;stroke:#00bfff;stroke-linecap:square;stroke-width:1.5;"/>
   </g>
   <g id="patch_3">
    <path d="M 14.8 233.2 
L 417.2 233.2 
" style="fill:none;stroke:#222222;stroke-linecap:square;stroke-linejoin:miter;"/>
   </g>
  </g>
  <g id="axes_2">
   <g id="patch_4">
    <path clip-path="url(#p904c076d39)" d="M 156.493576 233.2 
L 157.986114 233.2 
L 157.986114 232.381425 
L 156.493576 232.381425 
z
" style="fill:#ff8b22;opacity:0.7;"/>
   </g>
   <g id="patch_5">
    <path clip-path="url(#p904c076d39)" d="M 157.986114 233.2 
L 159.478652 233.2 
L 159.478652 232.927142 
L 157.986114 232.927142 
z
" style="fill:#ff8b22;opacity:0.7;"/>
   </g>
   <g id="patch_6">
    <path clip-path="url(#p904c076d39)" d="M 159.478652 233.2 
L 160.97119 233.2 
L 160.97119 232.108566 
L 159.478652 232.108566 
z
" style="fill:#ff8b22;opacity:0.7;"/>
   </g>
   <g id="patch_7">
    <path clip-path="url(#p904c076d39)" d="M 160.97119 233.2 
L 162.463728 233.2 
L 162.463728 232.927142 
L 160.97119 232.927142 
z
" style="fill:#ff8b22;opacity:0.7;"/>
   </g>
   <g id="patch_8">
    <path clip-path="url(#p904c076d39)" d="M 162.463728 233.2 
L 163.956267 233.2 
L 163.956267 231.017132 
L 162.463728 231.017132 
z
" style="fill:#ff8b22;opacity:0.7;"/>
   </g>
   <g id="patch_9">
    <path clip-path="url(#p904c076d39)" d="M 163.956267 233.2 
L 165.448805 233.2 
L 165.448805 230.471415 
L 163.956267 230.471415 
z
" style="fill:#ff8b22;opacity:0.7;"/>
   </g>
   <g id="patch_10">
    <path clip-path="url(#p904c076d39)" d="M 165.448805 233.2 
L 166.941343 233.2 
L 166.941343 229.65284 
L 165.448805 229.65284 
z
" style="fill:#ff8b22;opacity:0.7;"/>
   </g>
   <g id="patch_11">
    <path clip-path="url(#p904c076d39)" d="M 166.941343 233.2 
L 168.433881 233.2 
L 168.433881 225.287105 
L 166.941343 225.287105 
z
" style="fill:#ff8b22;opacity:0.7;"/>
   </g>
   <g id="patch_12">
    <path clip-path="url(#p904c076d39)" d="M 168.433881 233.2 
L 169.926419 233.2 
L 169.926419 224.741388 
L 168.433881 224.741388 
z
" style="fill:#ff8b22;opacity:0.7;"/>
   </g>
   <g id="patch_13">
    <path clip-path="url(#p904c076d39)" d="M 169.926419 233.2 
L 171.418958 233.2 
L 171.418958 215.737059 
L 169.926419 215.737059 
z
" style="fill:#ff8b22;opacity:0.7;"/>
   </g>
   <g id="patch_14">
    <path clip-path="url(#p904c076d39)" d="M 171.418958 233.2 
L 172.911496 233.2 
L 172.911496 209.734173 
L 171.418958 209.734173 
z
" style="fill:#ff8b22;opacity:0.7;"/>
   </g>
   <g id="patch_15">
    <path clip-path="url(#p904c076d39)" d="M 172.911496 233.2 
L 174.404034 233.2 
L 174.404034 205.095579 
L 172.911496 205.095579 
z
" style="fill:#ff8b22;opacity:0.7;"/>
   </g>
   <g id="patch_16">
    <path clip-path="url(#p904c076d39)" d="M 174.404034 233.2 
L 175.896572 233.2 
L 175.896572 196.09125 
L 174.404034 196.09125 
z
" style="fill:#ff8b22;opacity:0.7;"/>
   </g>
   <g id="patch_17">
    <path clip-path="url(#p904c076d39)" d="M 175.896572 233.2 
L 177.38911 233.2 
L 177.38911 185.995487 
L 175.896572 185.995487 
z
" style="fill:#ff8b22;opacity:0.7;"/>
   </g>
   <g id="patch_18">
    <path clip-path="url(#p904c076d39)" d="M 177.38911 233.2 
L 178.881648 233.2 
L 178.881648 162.802519 
L 177.38911 162.802519 
z
" style="fill:#ff8b22;opacity:0.7;"/>
   </g>
   <g id="patch_19">
    <path clip-path="url(#p904c076d39)" d="M 178.881648 233.2 
L 180.374187 233.2 
L 180.374187 156.799633 
L 178.881648 156.799633 
z
" style="fill:#ff8b22;opacity:0.7;"/>
   </g>
   <g id="patch_20">
    <path clip-path="url(#p904c076d39)" d="M 180.374187 233.2 
L 181.866725 233.2 
L 181.866725 105.775102 
L 180.374187 105.775102 
z
" style="fill:#ff8b22;opacity:0.7;"/>
   </g>
   <g id="patch_21">
    <path clip-path="url(#p904c076d39)" d="M 181.866725 233.2 
L 183.359263 233.2 
L 183.359263 119.690883 
L 181.866725 119.690883 
z
" style="fill:#ff8b22;opacity:0.7;"/>
   </g>
   <g id="patch_22">
    <path clip-path="url(#p904c076d39)" d="M 183.359263 233.2 
L 184.851801 233.2 
L 184.851801 107.957969 
L 183.359263 107.957969 
z
" style="fill:#ff8b22;opacity:0.7;"/>
   </g>
   <g id="patch_23">
    <path clip-path="url(#p904c076d39)" d="M 184.851801 233.2 
L 186.344339 233.2 
L 186.344339 87.766444 
L 184.851801 87.766444 
z
" style="fill:#ff8b22;opacity:0.7;"/>
   </g>
   <g id="patch_24">
    <path clip-path="url(#p904c076d39)" d="M 186.344339 233.2 
L 187.836878 233.2 
L 187.836878 67.847776 
L 186.344339 67.847776 
z
" style="fill:#ff8b22;opacity:0.7;"/>
   </g>
   <g id="patch_25">
    <path clip-path="url(#p904c076d39)" d="M 187.836878 233.2 
L 189.329416 233.2 
L 189.329416 65.664909 
L 187.836878 65.664909 
z
" style="fill:#ff8b22;opacity:0.7;"/>
   </g>
   <g id="patch_26">
    <path clip-path="url(#p904c076d39)" d="M 189.329416 233.2 
L 190.821954 233.2 
L 190.821954 63.7549 
L 189.329416 63.7549 
z
" style="fill:#ff8b22;opacity:0.7;"/>
   </g>
   <g id="patch_27">
    <path clip-path="url(#p904c076d39)" d="M 190.821954 233.2 
L 192.314492 233.2 
L 192.314492 61.299174 
L 190.821954 61.299174 
z
" style="fill:#ff8b22;opacity:0.7;"/>
   </g>
   <g id="patch_28">
    <path clip-path="url(#p904c076d39)" d="M 192.314492 233.2 
L 193.80703 233.2 
L 193.80703 68.666352 
L 192.314492 68.666352 
z
" style="fill:#ff8b22;opacity:0.7;"/>
   </g>
   <g id="patch_29">
    <path clip-path="url(#p904c076d39)" d="M 193.80703 233.2 
L 195.299568 233.2 
L 195.299568 67.847776 
L 193.80703 67.847776 
z
" style="fill:#ff8b22;opacity:0.7;"/>
   </g>
   <g id="patch_30">
    <path clip-path="url(#p904c076d39)" d="M 195.299568 233.2 
L 196.792107 233.2 
L 196.792107 74.123521 
L 195.299568 74.123521 
z
" style="fill:#ff8b22;opacity:0.7;"/>
   </g>
   <g id="patch_31">
    <path clip-path="url(#p904c076d39)" d="M 196.792107 233.2 
L 198.284645 233.2 
L 198.284645 98.135065 
L 196.792107 98.135065 
z
" style="fill:#ff8b22;opacity:0.7;"/>
   </g>
   <g id="patch_32">
    <path clip-path="url(#p904c076d39)" d="M 198.284645 233.2 
L 199.777183 233.2 
L 199.777183 120.509458 
L 198.284645 120.509458 
z
" style="fill:#ff8b22;opacity:0.7;"/>
   </g>
   <g id="patch_33">
    <path clip-path="url(#p904c076d39)" d="M 199.777183 233.2 
L 201.269721 233.2 
L 201.269721 133.606664 
L 199.777183 133.606664 
z
" style="fill:#ff8b22;opacity:0.7;"/>
   </g>
   <g id="patch_34">
    <path clip-path="url(#p904c076d39)" d="M 201.269721 233.2 
L 202.762259 233.2 
L 202.762259 149.159596 
L 201.269721 149.159596 
z
" style="fill:#ff8b22;opacity:0.7;"/>
   </g>
   <g id="patch_35">
    <path clip-path="url(#p904c076d39)" d="M 202.762259 233.2 
L 204.254798 233.2 
L 204.254798 165.531103 
L 202.762259 165.531103 
z
" style="fill:#ff8b22;opacity:0.7;"/>
   </g>
   <g id="patch_36">
    <path clip-path="url(#p904c076d39)" d="M 204.254798 233.2 
L 205.747336 233.2 
L 205.747336 181.902611 
L 204.254798 181.902611 
z
" style="fill:#ff8b22;opacity:0.7;"/>
   </g>
   <g id="patch_37">
    <path clip-path="url(#p904c076d39)" d="M 205.747336 233.2 
L 207.239874 233.2 
L 207.239874 172.898282 
L 205.747336 172.898282 
z
" style="fill:#ff8b22;opacity:0.7;"/>
   </g>
   <g id="patch_38">
    <path clip-path="url(#p904c076d39)" d="M 207.239874 233.2 
L 208.732412 233.2 
L 208.732412 202.366995 
L 207.239874 202.366995 
z
" style="fill:#ff8b22;opacity:0.7;"/>
   </g>
   <g id="patch_39">
    <path clip-path="url(#p904c076d39)" d="M 208.732412 233.2 
L 210.22495 233.2 
L 210.22495 210.007031 
L 208.732412 210.007031 
z
" style="fill:#ff8b22;opacity:0.7;"/>
   </g>
   <g id="patch_40">
    <path clip-path="url(#p904c076d39)" d="M 210.22495 233.2 
L 211.717488 233.2 
L 211.717488 210.825607 
L 210.22495 210.825607 
z
" style="fill:#ff8b22;opacity:0.7;"/>
   </g>
   <g id="patch_41">
    <path clip-path="url(#p904c076d39)" d="M 211.717488 233.2 
L 213.210027 233.2 
L 213.210027 218.465643 
L 211.717488 218.465643 
z
" style="fill:#ff8b22;opacity:0.7;"/>
   </g>
   <g id="patch_42">
    <path clip-path="url(#p904c076d39)" d="M 213.210027 233.2 
L 214.702565 233.2 
L 214.702565 222.55852 
L 213.210027 222.55852 
z
" style="fill:#ff8b22;opacity:0.7;"/>
   </g>
   <g id="patch_43">
    <path clip-path="url(#p904c076d39)" d="M 214.702565 233.2 
L 216.195103 233.2 
L 216.195103 227.469972 
L 214.702565 227.469972 
z
" style="fill:#ff8b22;opacity:0.7;"/>
   </g>
   <g id="patch_44">
    <path clip-path="url(#p904c076d39)" d="M 216.195103 233.2 
L 217.687641 233.2 
L 217.687641 230.471415 
L 216.195103 230.471415 
z
" style="fill:#ff8b22;opacity:0.7;"/>
   </g>
   <g id="patch_45">
    <path clip-path="url(#p904c076d39)" d="M 217.687641 233.2 
L 219.180179 233.2 
L 219.180179 231.289991 
L 217.687641 231.289991 
z
" style="fill:#ff8b22;opacity:0.7;"/>
   </g>
   <g id="patch_46">
    <path clip-path="url(#p904c076d39)" d="M 219.180179 233.2 
L 220.672718 233.2 
L 220.672718 231.835708 
L 219.180179 231.835708 
z
" style="fill:#ff8b22;opacity:0.7;"/>
   </g>
   <g id="patch_47">
    <path clip-path="url(#p904c076d39)" d="M 220.672718 233.2 
L 222.165256 233.2 
L 222.165256 233.2 
L 220.672718 233.2 
z
" style="fill:#ff8b22;opacity:0.7;"/>
   </g>
   <g id="patch_48">
    <path clip-path="url(#p904c076d39)" d="M 222.165256 233.2 
L 223.657794 233.2 
L 223.657794 232.927142 
L 222.165256 232.927142 
z
" style="fill:#ff8b22;opacity:0.7;"/>
   </g>
   <g id="patch_49">
    <path clip-path="url(#p904c076d39)" d="M 223.657794 233.2 
L 225.150332 233.2 
L 225.150332 232.381425 
L 223.657794 232.381425 
z
" style="fill:#ff8b22;opacity:0.7;"/>
   </g>
   <g id="patch_50">
    <path clip-path="url(#p904c076d39)" d="M 225.150332 233.2 
L 226.64287 233.2 
L 226.64287 232.381425 
L 225.150332 232.381425 
z
" style="fill:#ff8b22;opacity:0.7;"/>
   </g>
   <g id="patch_51">
    <path clip-path="url(#p904c076d39)" d="M 226.64287 233.2 
L 228.135408 233.2 
L 228.135408 233.2 
L 226.64287 233.2 
z
" style="fill:#ff8b22;opacity:0.7;"/>
   </g>
   <g id="patch_52">
    <path clip-path="url(#p904c076d39)" d="M 228.135408 233.2 
L 229.627947 233.2 
L 229.627947 233.2 
L 228.135408 233.2 
z
" style="fill:#ff8b22;opacity:0.7;"/>
   </g>
   <g id="patch_53">
    <path clip-path="url(#p904c076d39)" d="M 229.627947 233.2 
L 231.120485 233.2 
L 231.120485 232.927142 
L 229.627947 232.927142 
z
" style="fill:#ff8b22;opacity:0.7;"/>
   </g>
   <g id="matplotlib.axis_3"/>
   <g id="line2d_7">
    <path clip-path="url(#p904c076d39)" d="M 191.124364 233.2 
L 191.124364 43.192 
" style="fill:none;stroke:#fb4c52;stroke-dasharray:5.55,2.4;stroke-dashoffset:0;stroke-width:1.5;"/>
   </g>
   <g id="patch_54">
    <path d="M 14.8 233.2 
L 417.2 233.2 
" style="fill:none;stroke:#222222;stroke-linecap:square;stroke-linejoin:miter;"/>
   </g>
   <g id="text_7">
    <!-- $\mu$ -->
    <defs>
     <path d="M -1.3125 -20.796875 
L 13.375 54.6875 
L 22.40625 54.6875 
L 15.765625 20.65625 
Q 15.578125 19.625 15.421875 18.359375 
Q 15.28125 17.09375 15.28125 15.828125 
Q 15.28125 11.28125 18.140625 8.828125 
Q 21 6.390625 26.3125 6.390625 
Q 33.546875 6.390625 37.984375 10.484375 
Q 42.4375 14.59375 44 22.796875 
L 50.203125 54.6875 
L 59.1875 54.6875 
L 51.03125 12.640625 
Q 50.828125 11.71875 50.75 11.03125 
Q 50.6875 10.359375 50.6875 9.8125 
Q 50.6875 8.296875 51.296875 7.59375 
Q 51.90625 6.890625 53.21875 6.890625 
Q 53.71875 6.890625 54.5625 7.125 
Q 55.421875 7.375 56.984375 8.015625 
L 55.609375 0.78125 
Q 53.46875 -0.296875 51.515625 -0.859375 
Q 49.5625 -1.421875 47.703125 -1.421875 
Q 44.484375 -1.421875 42.65625 0.625 
Q 40.828125 2.6875 40.828125 6.296875 
Q 38.09375 2.390625 34.296875 0.484375 
Q 30.515625 -1.421875 25.390625 -1.421875 
Q 20.84375 -1.421875 17.453125 0.671875 
Q 14.0625 2.78125 12.984375 6.203125 
L 7.71875 -20.796875 
z
" id="DejaVuSans-Oblique-3bc"/>
    </defs>
    <g style="fill:#fb4c52;" transform="translate(186.004364 34.654545)scale(0.16 -0.16)">
     <use transform="translate(0 0.3125)" xlink:href="#DejaVuSans-Oblique-3bc"/>
    </g>
   </g>
   <g id="text_8">
    <!-- $\bar{x}$ sampling -->
    <defs>
     <path d="M -39.34375 74.515625 
L -10.15625 74.515625 
L -10.15625 67.28125 
L -39.34375 67.28125 
z
" id="DejaVuSans-304"/>
     <path d="M 60.015625 54.6875 
L 34.90625 27.875 
L 50.296875 0 
L 39.984375 0 
L 28.421875 21.6875 
L 8.296875 0 
L -2.59375 0 
L 24.3125 28.8125 
L 10.015625 54.6875 
L 20.3125 54.6875 
L 30.8125 34.90625 
L 49.125 54.6875 
z
" id="DejaVuSans-Oblique-78"/>
     <path d="M 44.28125 53.078125 
L 44.28125 44.578125 
Q 40.484375 46.53125 36.375 47.5 
Q 32.28125 48.484375 27.875 48.484375 
Q 21.1875 48.484375 17.84375 46.4375 
Q 14.5 44.390625 14.5 40.28125 
Q 14.5 37.15625 16.890625 35.375 
Q 19.28125 33.59375 26.515625 31.984375 
L 29.59375 31.296875 
Q 39.15625 29.25 43.1875 25.515625 
Q 47.21875 21.78125 47.21875 15.09375 
Q 47.21875 7.46875 41.1875 3.015625 
Q 35.15625 -1.421875 24.609375 -1.421875 
Q 20.21875 -1.421875 15.453125 -0.5625 
Q 10.6875 0.296875 5.421875 2 
L 5.421875 11.28125 
Q 10.40625 8.6875 15.234375 7.390625 
Q 20.0625 6.109375 24.8125 6.109375 
Q 31.15625 6.109375 34.5625 8.28125 
Q 37.984375 10.453125 37.984375 14.40625 
Q 37.984375 18.0625 35.515625 20.015625 
Q 33.0625 21.96875 24.703125 23.78125 
L 21.578125 24.515625 
Q 13.234375 26.265625 9.515625 29.90625 
Q 5.8125 33.546875 5.8125 39.890625 
Q 5.8125 47.609375 11.28125 51.796875 
Q 16.75 56 26.8125 56 
Q 31.78125 56 36.171875 55.265625 
Q 40.578125 54.546875 44.28125 53.078125 
z
" id="DejaVuSans-73"/>
     <path d="M 52 44.1875 
Q 55.375 50.25 60.0625 53.125 
Q 64.75 56 71.09375 56 
Q 79.640625 56 84.28125 50.015625 
Q 88.921875 44.046875 88.921875 33.015625 
L 88.921875 0 
L 79.890625 0 
L 79.890625 32.71875 
Q 79.890625 40.578125 77.09375 44.375 
Q 74.3125 48.1875 68.609375 48.1875 
Q 61.625 48.1875 57.5625 43.546875 
Q 53.515625 38.921875 53.515625 30.90625 
L 53.515625 0 
L 44.484375 0 
L 44.484375 32.71875 
Q 44.484375 40.625 41.703125 44.40625 
Q 38.921875 48.1875 33.109375 48.1875 
Q 26.21875 48.1875 22.15625 43.53125 
Q 18.109375 38.875 18.109375 30.90625 
L 18.109375 0 
L 9.078125 0 
L 9.078125 54.6875 
L 18.109375 54.6875 
L 18.109375 46.1875 
Q 21.1875 51.21875 25.484375 53.609375 
Q 29.78125 56 35.6875 56 
Q 41.65625 56 45.828125 52.96875 
Q 50 49.953125 52 44.1875 
z
" id="DejaVuSans-6d"/>
     <path d="M 18.109375 8.203125 
L 18.109375 -20.796875 
L 9.078125 -20.796875 
L 9.078125 54.6875 
L 18.109375 54.6875 
L 18.109375 46.390625 
Q 20.953125 51.265625 25.265625 53.625 
Q 29.59375 56 35.59375 56 
Q 45.5625 56 51.78125 48.09375 
Q 58.015625 40.1875 58.015625 27.296875 
Q 58.015625 14.40625 51.78125 6.484375 
Q 45.5625 -1.421875 35.59375 -1.421875 
Q 29.59375 -1.421875 25.265625 0.953125 
Q 20.953125 3.328125 18.109375 8.203125 
z
M 48.6875 27.296875 
Q 48.6875 37.203125 44.609375 42.84375 
Q 40.53125 48.484375 33.40625 48.484375 
Q 26.265625 48.484375 22.1875 42.84375 
Q 18.109375 37.203125 18.109375 27.296875 
Q 18.109375 17.390625 22.1875 11.75 
Q 26.265625 6.109375 33.40625 6.109375 
Q 40.53125 6.109375 44.609375 11.75 
Q 48.6875 17.390625 48.6875 27.296875 
z
" id="DejaVuSans-70"/>
     <path d="M 9.421875 54.6875 
L 18.40625 54.6875 
L 18.40625 0 
L 9.421875 0 
z
M 9.421875 75.984375 
L 18.40625 75.984375 
L 18.40625 64.59375 
L 9.421875 64.59375 
z
" id="DejaVuSans-69"/>
     <path d="M 54.890625 33.015625 
L 54.890625 0 
L 45.90625 0 
L 45.90625 32.71875 
Q 45.90625 40.484375 42.875 44.328125 
Q 39.84375 48.1875 33.796875 48.1875 
Q 26.515625 48.1875 22.3125 43.546875 
Q 18.109375 38.921875 18.109375 30.90625 
L 18.109375 0 
L 9.078125 0 
L 9.078125 54.6875 
L 18.109375 54.6875 
L 18.109375 46.1875 
Q 21.34375 51.125 25.703125 53.5625 
Q 30.078125 56 35.796875 56 
Q 45.21875 56 50.046875 50.171875 
Q 54.890625 44.34375 54.890625 33.015625 
z
" id="DejaVuSans-6e"/>
     <path d="M 45.40625 27.984375 
Q 45.40625 37.75 41.375 43.109375 
Q 37.359375 48.484375 30.078125 48.484375 
Q 22.859375 48.484375 18.828125 43.109375 
Q 14.796875 37.75 14.796875 27.984375 
Q 14.796875 18.265625 18.828125 12.890625 
Q 22.859375 7.515625 30.078125 7.515625 
Q 37.359375 7.515625 41.375 12.890625 
Q 45.40625 18.265625 45.40625 27.984375 
z
M 54.390625 6.78125 
Q 54.390625 -7.171875 48.1875 -13.984375 
Q 42 -20.796875 29.203125 -20.796875 
Q 24.46875 -20.796875 20.265625 -20.09375 
Q 16.0625 -19.390625 12.109375 -17.921875 
L 12.109375 -9.1875 
Q 16.0625 -11.328125 19.921875 -12.34375 
Q 23.78125 -13.375 27.78125 -13.375 
Q 36.625 -13.375 41.015625 -8.765625 
Q 45.40625 -4.15625 45.40625 5.171875 
L 45.40625 9.625 
Q 42.625 4.78125 38.28125 2.390625 
Q 33.9375 0 27.875 0 
Q 17.828125 0 11.671875 7.65625 
Q 5.515625 15.328125 5.515625 27.984375 
Q 5.515625 40.671875 11.671875 48.328125 
Q 17.828125 56 27.875 56 
Q 33.9375 56 38.28125 53.609375 
Q 42.625 51.21875 45.40625 46.390625 
L 45.40625 54.6875 
L 54.390625 54.6875 
z
" id="DejaVuSans-67"/>
    </defs>
    <g style="fill:#ff8b22;" transform="translate(207.952 79.930625)scale(0.14 -0.14)">
     <use transform="translate(62.138672 -0.078125)" xlink:href="#DejaVuSans-304"/>
     <use transform="translate(0 0.015625)" xlink:href="#DejaVuSans-Oblique-78"/>
     <use transform="translate(59.179688 0.015625)" xlink:href="#DejaVuSans-20"/>
     <use transform="translate(90.966797 0.015625)" xlink:href="#DejaVuSans-73"/>
     <use transform="translate(143.066406 0.015625)" xlink:href="#DejaVuSans-61"/>
     <use transform="translate(204.345703 0.015625)" xlink:href="#DejaVuSans-6d"/>
     <use transform="translate(301.757812 0.015625)" xlink:href="#DejaVuSans-70"/>
     <use transform="translate(365.234375 0.015625)" xlink:href="#DejaVuSans-6c"/>
     <use transform="translate(393.017578 0.015625)" xlink:href="#DejaVuSans-69"/>
     <use transform="translate(420.800781 0.015625)" xlink:href="#DejaVuSans-6e"/>
     <use transform="translate(484.179688 0.015625)" xlink:href="#DejaVuSans-67"/>
    </g>
    <!-- distribution -->
    <defs>
     <path d="M 41.109375 46.296875 
Q 39.59375 47.171875 37.8125 47.578125 
Q 36.03125 48 33.890625 48 
Q 26.265625 48 22.1875 43.046875 
Q 18.109375 38.09375 18.109375 28.8125 
L 18.109375 0 
L 9.078125 0 
L 9.078125 54.6875 
L 18.109375 54.6875 
L 18.109375 46.1875 
Q 20.953125 51.171875 25.484375 53.578125 
Q 30.03125 56 36.53125 56 
Q 37.453125 56 38.578125 55.875 
Q 39.703125 55.765625 41.0625 55.515625 
z
" id="DejaVuSans-72"/>
     <path d="M 48.6875 27.296875 
Q 48.6875 37.203125 44.609375 42.84375 
Q 40.53125 48.484375 33.40625 48.484375 
Q 26.265625 48.484375 22.1875 42.84375 
Q 18.109375 37.203125 18.109375 27.296875 
Q 18.109375 17.390625 22.1875 11.75 
Q 26.265625 6.109375 33.40625 6.109375 
Q 40.53125 6.109375 44.609375 11.75 
Q 48.6875 17.390625 48.6875 27.296875 
z
M 18.109375 46.390625 
Q 20.953125 51.265625 25.265625 53.625 
Q 29.59375 56 35.59375 56 
Q 45.5625 56 51.78125 48.09375 
Q 58.015625 40.1875 58.015625 27.296875 
Q 58.015625 14.40625 51.78125 6.484375 
Q 45.5625 -1.421875 35.59375 -1.421875 
Q 29.59375 -1.421875 25.265625 0.953125 
Q 20.953125 3.328125 18.109375 8.203125 
L 18.109375 0 
L 9.078125 0 
L 9.078125 75.984375 
L 18.109375 75.984375 
z
" id="DejaVuSans-62"/>
     <path d="M 30.609375 48.390625 
Q 23.390625 48.390625 19.1875 42.75 
Q 14.984375 37.109375 14.984375 27.296875 
Q 14.984375 17.484375 19.15625 11.84375 
Q 23.34375 6.203125 30.609375 6.203125 
Q 37.796875 6.203125 41.984375 11.859375 
Q 46.1875 17.53125 46.1875 27.296875 
Q 46.1875 37.015625 41.984375 42.703125 
Q 37.796875 48.390625 30.609375 48.390625 
z
M 30.609375 56 
Q 42.328125 56 49.015625 48.375 
Q 55.71875 40.765625 55.71875 27.296875 
Q 55.71875 13.875 49.015625 6.21875 
Q 42.328125 -1.421875 30.609375 -1.421875 
Q 18.84375 -1.421875 12.171875 6.21875 
Q 5.515625 13.875 5.515625 27.296875 
Q 5.515625 40.765625 12.171875 48.375 
Q 18.84375 56 30.609375 56 
z
" id="DejaVuSans-6f"/>
    </defs>
    <g style="fill:#ff8b22;" transform="translate(207.952 95.636)scale(0.14 -0.14)">
     <use xlink:href="#DejaVuSans-64"/>
     <use x="63.476562" xlink:href="#DejaVuSans-69"/>
     <use x="91.259766" xlink:href="#DejaVuSans-73"/>
     <use x="143.359375" xlink:href="#DejaVuSans-74"/>
     <use x="182.568359" xlink:href="#DejaVuSans-72"/>
     <use x="223.681641" xlink:href="#DejaVuSans-69"/>
     <use x="251.464844" xlink:href="#DejaVuSans-62"/>
     <use x="314.941406" xlink:href="#DejaVuSans-75"/>
     <use x="378.320312" xlink:href="#DejaVuSans-74"/>
     <use x="417.529297" xlink:href="#DejaVuSans-69"/>
     <use x="445.3125" xlink:href="#DejaVuSans-6f"/>
     <use x="506.494141" xlink:href="#DejaVuSans-6e"/>
    </g>
   </g>
   <g id="patch_55">
    <path d="M 286.483061 178.6 
Q 191.123555 178.6 95.764049 178.6 
" style="fill:none;stroke:#9fc857;stroke-linecap:round;stroke-width:3;"/>
    <path d="M 278.483061 174.6 
L 286.483061 178.6 
L 278.483061 182.6 
" style="fill:none;stroke:#9fc857;stroke-linecap:round;stroke-width:3;"/>
    <path d="M 103.764049 182.6 
L 95.764049 178.6 
L 103.764049 174.6 
" style="fill:none;stroke:#9fc857;stroke-linecap:round;stroke-width:3;"/>
   </g>
   <g id="patch_56">
    <path d="M 205.500573 156.76 
Q 191.109019 156.76 176.717464 156.76 
" style="fill:none;stroke:#ce4ad0;stroke-linecap:round;stroke-width:2;"/>
    <path d="M 199.500573 153.76 
L 205.500573 156.76 
L 199.500573 159.76 
" style="fill:none;stroke:#ce4ad0;stroke-linecap:round;stroke-width:2;"/>
    <path d="M 182.717464 159.76 
L 176.717464 156.76 
L 182.717464 153.76 
" style="fill:none;stroke:#ce4ad0;stroke-linecap:round;stroke-width:2;"/>
   </g>
   <g id="text_9">
    <!-- Sample -->
    <defs>
     <path d="M 53.515625 70.515625 
L 53.515625 60.890625 
Q 47.90625 63.578125 42.921875 64.890625 
Q 37.9375 66.21875 33.296875 66.21875 
Q 25.25 66.21875 20.875 63.09375 
Q 16.5 59.96875 16.5 54.203125 
Q 16.5 49.359375 19.40625 46.890625 
Q 22.3125 44.4375 30.421875 42.921875 
L 36.375 41.703125 
Q 47.40625 39.59375 52.65625 34.296875 
Q 57.90625 29 57.90625 20.125 
Q 57.90625 9.515625 50.796875 4.046875 
Q 43.703125 -1.421875 29.984375 -1.421875 
Q 24.8125 -1.421875 18.96875 -0.25 
Q 13.140625 0.921875 6.890625 3.21875 
L 6.890625 13.375 
Q 12.890625 10.015625 18.65625 8.296875 
Q 24.421875 6.59375 29.984375 6.59375 
Q 38.421875 6.59375 43.015625 9.90625 
Q 47.609375 13.234375 47.609375 19.390625 
Q 47.609375 24.75 44.3125 27.78125 
Q 41.015625 30.8125 33.5 32.328125 
L 27.484375 33.5 
Q 16.453125 35.6875 11.515625 40.375 
Q 6.59375 45.0625 6.59375 53.421875 
Q 6.59375 63.09375 13.40625 68.65625 
Q 20.21875 74.21875 32.171875 74.21875 
Q 37.3125 74.21875 42.625 73.28125 
Q 47.953125 72.359375 53.515625 70.515625 
z
" id="DejaVuSans-53"/>
    </defs>
    <g style="fill:#9fc857;" transform="translate(256.24 130.163062)scale(0.14 -0.14)">
     <use xlink:href="#DejaVuSans-53"/>
     <use x="63.476562" xlink:href="#DejaVuSans-61"/>
     <use x="124.755859" xlink:href="#DejaVuSans-6d"/>
     <use x="222.167969" xlink:href="#DejaVuSans-70"/>
     <use x="285.644531" xlink:href="#DejaVuSans-6c"/>
     <use x="313.427734" xlink:href="#DejaVuSans-65"/>
    </g>
    <!-- standard deviation -->
    <g style="fill:#9fc857;" transform="translate(256.24 145.84)scale(0.14 -0.14)">
     <use xlink:href="#DejaVuSans-73"/>
     <use x="52.099609" xlink:href="#DejaVuSans-74"/>
     <use x="91.308594" xlink:href="#DejaVuSans-61"/>
     <use x="152.587891" xlink:href="#DejaVuSans-6e"/>
     <use x="215.966797" xlink:href="#DejaVuSans-64"/>
     <use x="279.443359" xlink:href="#DejaVuSans-61"/>
     <use x="340.722656" xlink:href="#DejaVuSans-72"/>
     <use x="381.820312" xlink:href="#DejaVuSans-64"/>
     <use x="445.296875" xlink:href="#DejaVuSans-20"/>
     <use x="477.083984" xlink:href="#DejaVuSans-64"/>
     <use x="540.560547" xlink:href="#DejaVuSans-65"/>
     <use x="602.083984" xlink:href="#DejaVuSans-76"/>
     <use x="661.263672" xlink:href="#DejaVuSans-69"/>
     <use x="689.046875" xlink:href="#DejaVuSans-61"/>
     <use x="750.326172" xlink:href="#DejaVuSans-74"/>
     <use x="789.535156" xlink:href="#DejaVuSans-69"/>
     <use x="817.318359" xlink:href="#DejaVuSans-6f"/>
     <use x="878.5" xlink:href="#DejaVuSans-6e"/>
    </g>
   </g>
   <g id="text_10">
    <!-- Sample statistic -->
    <defs>
     <path d="M 48.78125 52.59375 
L 48.78125 44.1875 
Q 44.96875 46.296875 41.140625 47.34375 
Q 37.3125 48.390625 33.40625 48.390625 
Q 24.65625 48.390625 19.8125 42.84375 
Q 14.984375 37.3125 14.984375 27.296875 
Q 14.984375 17.28125 19.8125 11.734375 
Q 24.65625 6.203125 33.40625 6.203125 
Q 37.3125 6.203125 41.140625 7.25 
Q 44.96875 8.296875 48.78125 10.40625 
L 48.78125 2.09375 
Q 45.015625 0.34375 40.984375 -0.53125 
Q 36.96875 -1.421875 32.421875 -1.421875 
Q 20.0625 -1.421875 12.78125 6.34375 
Q 5.515625 14.109375 5.515625 27.296875 
Q 5.515625 40.671875 12.859375 48.328125 
Q 20.21875 56 33.015625 56 
Q 37.15625 56 41.109375 55.140625 
Q 45.0625 54.296875 48.78125 52.59375 
z
" id="DejaVuSans-63"/>
    </defs>
    <g style="fill:#ce4ad0;" transform="translate(18.824 59.886125)scale(0.14 -0.14)">
     <use xlink:href="#DejaVuSans-53"/>
     <use x="63.476562" xlink:href="#DejaVuSans-61"/>
     <use x="124.755859" xlink:href="#DejaVuSans-6d"/>
     <use x="222.167969" xlink:href="#DejaVuSans-70"/>
     <use x="285.644531" xlink:href="#DejaVuSans-6c"/>
     <use x="313.427734" xlink:href="#DejaVuSans-65"/>
     <use x="374.951172" xlink:href="#DejaVuSans-20"/>
     <use x="406.738281" xlink:href="#DejaVuSans-73"/>
     <use x="458.837891" xlink:href="#DejaVuSans-74"/>
     <use x="498.046875" xlink:href="#DejaVuSans-61"/>
     <use x="559.326172" xlink:href="#DejaVuSans-74"/>
     <use x="598.535156" xlink:href="#DejaVuSans-69"/>
     <use x="626.318359" xlink:href="#DejaVuSans-73"/>
     <use x="678.417969" xlink:href="#DejaVuSans-74"/>
     <use x="717.626953" xlink:href="#DejaVuSans-69"/>
     <use x="745.410156" xlink:href="#DejaVuSans-63"/>
    </g>
    <!-- standard deviation -->
    <g style="fill:#ce4ad0;" transform="translate(18.824 75.563062)scale(0.14 -0.14)">
     <use xlink:href="#DejaVuSans-73"/>
     <use x="52.099609" xlink:href="#DejaVuSans-74"/>
     <use x="91.308594" xlink:href="#DejaVuSans-61"/>
     <use x="152.587891" xlink:href="#DejaVuSans-6e"/>
     <use x="215.966797" xlink:href="#DejaVuSans-64"/>
     <use x="279.443359" xlink:href="#DejaVuSans-61"/>
     <use x="340.722656" xlink:href="#DejaVuSans-72"/>
     <use x="381.820312" xlink:href="#DejaVuSans-64"/>
     <use x="445.296875" xlink:href="#DejaVuSans-20"/>
     <use x="477.083984" xlink:href="#DejaVuSans-64"/>
     <use x="540.560547" xlink:href="#DejaVuSans-65"/>
     <use x="602.083984" xlink:href="#DejaVuSans-76"/>
     <use x="661.263672" xlink:href="#DejaVuSans-69"/>
     <use x="689.046875" xlink:href="#DejaVuSans-61"/>
     <use x="750.326172" xlink:href="#DejaVuSans-74"/>
     <use x="789.535156" xlink:href="#DejaVuSans-69"/>
     <use x="817.318359" xlink:href="#DejaVuSans-6f"/>
     <use x="878.5" xlink:href="#DejaVuSans-6e"/>
    </g>
    <!-- (= Standard Error) -->
    <defs>
     <path d="M 31 75.875 
Q 24.46875 64.65625 21.28125 53.65625 
Q 18.109375 42.671875 18.109375 31.390625 
Q 18.109375 20.125 21.3125 9.0625 
Q 24.515625 -2 31 -13.1875 
L 23.1875 -13.1875 
Q 15.875 -1.703125 12.234375 9.375 
Q 8.59375 20.453125 8.59375 31.390625 
Q 8.59375 42.28125 12.203125 53.3125 
Q 15.828125 64.359375 23.1875 75.875 
z
" id="DejaVuSans-28"/>
     <path d="M 10.59375 45.40625 
L 73.1875 45.40625 
L 73.1875 37.203125 
L 10.59375 37.203125 
z
M 10.59375 25.484375 
L 73.1875 25.484375 
L 73.1875 17.1875 
L 10.59375 17.1875 
z
" id="DejaVuSans-3d"/>
     <path d="M 9.8125 72.90625 
L 55.90625 72.90625 
L 55.90625 64.59375 
L 19.671875 64.59375 
L 19.671875 43.015625 
L 54.390625 43.015625 
L 54.390625 34.71875 
L 19.671875 34.71875 
L 19.671875 8.296875 
L 56.78125 8.296875 
L 56.78125 0 
L 9.8125 0 
z
" id="DejaVuSans-45"/>
     <path d="M 8.015625 75.875 
L 15.828125 75.875 
Q 23.140625 64.359375 26.78125 53.3125 
Q 30.421875 42.28125 30.421875 31.390625 
Q 30.421875 20.453125 26.78125 9.375 
Q 23.140625 -1.703125 15.828125 -13.1875 
L 8.015625 -13.1875 
Q 14.5 -2 17.703125 9.0625 
Q 20.90625 20.125 20.90625 31.390625 
Q 20.90625 42.671875 17.703125 53.65625 
Q 14.5 64.65625 8.015625 75.875 
z
" id="DejaVuSans-29"/>
    </defs>
    <g style="fill:#ce4ad0;" transform="translate(18.824 91.24)scale(0.14 -0.14)">
     <use xlink:href="#DejaVuSans-28"/>
     <use x="39.013672" xlink:href="#DejaVuSans-3d"/>
     <use x="122.802734" xlink:href="#DejaVuSans-20"/>
     <use x="154.589844" xlink:href="#DejaVuSans-53"/>
     <use x="218.066406" xlink:href="#DejaVuSans-74"/>
     <use x="257.275391" xlink:href="#DejaVuSans-61"/>
     <use x="318.554688" xlink:href="#DejaVuSans-6e"/>
     <use x="381.933594" xlink:href="#DejaVuSans-64"/>
     <use x="445.410156" xlink:href="#DejaVuSans-61"/>
     <use x="506.689453" xlink:href="#DejaVuSans-72"/>
     <use x="547.787109" xlink:href="#DejaVuSans-64"/>
     <use x="611.263672" xlink:href="#DejaVuSans-20"/>
     <use x="643.050781" xlink:href="#DejaVuSans-45"/>
     <use x="706.234375" xlink:href="#DejaVuSans-72"/>
     <use x="747.332031" xlink:href="#DejaVuSans-72"/>
     <use x="788.414062" xlink:href="#DejaVuSans-6f"/>
     <use x="849.595703" xlink:href="#DejaVuSans-72"/>
     <use x="890.708984" xlink:href="#DejaVuSans-29"/>
    </g>
   </g>
  </g>
 </g>
 <defs>
  <clipPath id="p904c076d39">
   <rect height="218.4" width="402.4" x="14.8" y="14.8"/>
  </clipPath>
 </defs>
</svg>
